<?xml version="1.0" encoding="UTF-8"?>
<svg width="35px" height="30px" viewBox="0 0 35 30" version="1.1" xmlns="http://www.w3.org/2000/svg" xmlns:xlink="http://www.w3.org/1999/xlink">
    <!-- Generator: Sketch 51.2 (57519) - http://www.bohemiancoding.com/sketch -->
    <title>svg/text/file_icon_rar</title>
    <desc>Created with Sketch.</desc>
    <defs></defs>
    <g id="Page-1" stroke="none" stroke-width="1" fill="none" fill-rule="evenodd">
        <g id="png_pages/berezdubrava_text_03" transform="translate(-422.000000, -11795.000000)" fill="#796F62" fill-rule="nonzero">
            <g id="Скачать-файлы" transform="translate(422.000000, 11558.000000)">
                <g id="Group-4-Copy-3" transform="translate(0.000000, 237.000000)">
                    <g id="svg/text/file_icon_rar">
                        <path d="M15.4729167,3.96226415 L12.72425,0.236603774 L12.7236667,0.236037736 L12.5504167,0 L0,0 L0,30 L35,30 L35,3.96226415 L15.4729167,3.96226415 Z M33.8333333,5.09433962 L33.8333333,7.9245283 L18.3965833,7.9245283 L16.3088333,5.09433962 L33.8333333,5.09433962 Z M1.16666667,28.8679245 L1.16666667,1.13207547 L11.9495833,1.13207547 L14.86625,5.09433962 L14.87325,5.09433962 L17.6090833,8.80245283 C17.7228333,8.95641509 17.9019167,9.03849057 18.0833333,9.0390566 L18.0833333,9.05660377 L33.8333333,9.05660377 L33.8333333,28.8679245 L1.16666667,28.8679245 Z" id="Shape"></path>
                        <polygon id="Shape" points="17.5742506 22.8548613 17.5742506 13 16.4257494 13 16.4257494 22.8548613 12.8119904 19.3283833 12 20.1207621 17 25 22 20.1207621 21.1880096 19.3283833"></polygon>
                    </g>
                </g>
            </g>
        </g>
    </g>
</svg>