<?xml version="1.0" encoding="UTF-8"?>
<svg width="25px" height="33px" viewBox="0 0 25 33" version="1.1" xmlns="http://www.w3.org/2000/svg" xmlns:xlink="http://www.w3.org/1999/xlink">
    <!-- Generator: Sketch 51.2 (57519) - http://www.bohemiancoding.com/sketch -->
    <title>svg/text/file_doc</title>
    <desc>Created with Sketch.</desc>
    <defs></defs>
    <g id="Page-1" stroke="none" stroke-width="1" fill="none" fill-rule="evenodd">
        <g id="png_pages/berezdubrava_text_03" transform="translate(-427.000000, -11681.000000)" fill="#796F62" fill-rule="nonzero">
            <g id="Скачать-файлы" transform="translate(422.000000, 11558.000000)">
                <g id="Group-5" transform="translate(5.000000, 123.000000)">
                    <g id="svg/text/file_doc">
                        <path d="M20.4444444,12 L6.55555556,12 C6.24888889,12 6,12.2235 6,12.5 C6,12.7765 6.24888889,13 6.55555556,13 L20.4444444,13 C20.7511111,13 21,12.7765 21,12.5 C21,12.2235 20.7511111,12 20.4444444,12 Z" id="Shape"></path>
                        <path d="M6.58333333,9 L12.4166667,9 C12.7386667,9 13,8.7765 13,8.5 C13,8.2235 12.7386667,8 12.4166667,8 L6.58333333,8 C6.26133333,8 6,8.2235 6,8.5 C6,8.7765 6.26133333,9 6.58333333,9 Z" id="Shape"></path>
                        <path d="M20.4444444,17 L6.55555556,17 C6.24888889,17 6,17.2235 6,17.5 C6,17.7765 6.24888889,18 6.55555556,18 L20.4444444,18 C20.7511111,18 21,17.7765 21,17.5 C21,17.2235 20.7511111,17 20.4444444,17 Z" id="Shape"></path>
                        <path d="M20.4444444,21 L6.55555556,21 C6.24888889,21 6,21.2235 6,21.5 C6,21.7765 6.24888889,22 6.55555556,22 L20.4444444,22 C20.7511111,22 21,21.7765 21,21.5 C21,21.2235 20.7511111,21 20.4444444,21 Z" id="Shape"></path>
                        <path d="M20.4444444,25 L6.55555556,25 C6.24888889,25 6,25.2235 6,25.5 C6,25.7765 6.24888889,26 6.55555556,26 L20.4444444,26 C20.7511111,26 21,25.7765 21,25.5 C21,25.2235 20.7511111,25 20.4444444,25 Z" id="Shape"></path>
                        <path d="M17.2414894,0 L0,0 L0,33 L25,33 L25,8.0223 L17.2414894,0 Z M17.5531915,1.8777 L23.1840426,7.7 L17.5531915,7.7 L17.5531915,1.8777 Z M1.06382979,31.9 L1.06382979,1.1 L16.4893617,1.1 L16.4893617,8.8 L23.9361702,8.8 L23.9361702,31.9 L1.06382979,31.9 Z" id="Shape"></path>
                    </g>
                </g>
            </g>
        </g>
    </g>
</svg>