<?xml version="1.0" encoding="UTF-8"?>
<svg width="34px" height="34px" viewBox="0 0 34 34" version="1.1" xmlns="http://www.w3.org/2000/svg" xmlns:xlink="http://www.w3.org/1999/xlink">
    <!-- Generator: Sketch 51.2 (57519) - http://www.bohemiancoding.com/sketch -->
    <title>svg/text/file_folder_icon</title>
    <desc>Created with Sketch.</desc>
    <defs></defs>
    <g id="Page-1" stroke="none" stroke-width="1" fill="none" fill-rule="evenodd">
        <g id="png_pages/berezdubrava_text_03" transform="translate(-424.000000, -11734.000000)" fill="#796F62" fill-rule="nonzero">
            <g id="Скачать-файлы" transform="translate(422.000000, 11558.000000)">
                <g id="Group-4-Copy-2" transform="translate(2.000000, 176.000000)">
                    <g id="svg/text/file_folder_icon">
                        <path d="M32.5776667,15.3 L30.6,15.3 L30.6,11.7481333 C30.6,10.8947333 29.9052667,10.2 29.0518667,10.2 L27.2,10.2 L27.2,8.83206667 L26.9195,8.55156667 C26.9189333,8.55156667 26.9189333,8.551 26.9189333,8.55043333 L22.7845333,4.41603333 L18.3679333,0 L4.53333333,0 L4.53333333,6.23333333 L1.54813333,6.23333333 C0.694733333,6.23333333 0,6.92806667 0,7.78146667 L0,32.5374333 L0.0034,32.5374333 C0.000566666667,32.8564667 0.0997333333,33.1687 0.2992,33.4299333 C0.576866667,33.7926 0.997333333,34 1.4535,34 L26.8169333,34 C27.472,34 28.0488667,33.5585667 28.2052667,32.9726333 L34,17.0844333 L34,16.9841333 C34,16.0083333 33.4016,15.3 32.5776667,15.3 Z M29.0518667,11.3333333 C29.2802333,11.3333333 29.4666667,11.5192 29.4666667,11.7481333 L29.4666667,15.3 L27.2,15.3 L27.2,11.3333333 L29.0518667,11.3333333 Z M18.7,1.93516667 L25.2654,8.5 L18.7,8.5 L18.7,1.93516667 Z M5.66666667,1.13333333 L17.5666667,1.13333333 L17.5666667,9.63333333 L26.0666667,9.63333333 L26.0666667,10.2 L26.0666667,15.3 L7.21423333,15.3 C7.1332,15.3 7.0533,15.3068 6.9751,15.3198333 C6.42316667,15.4116333 5.96303333,15.8139667 5.8259,16.3273667 L5.66666667,16.7648333 L5.66666667,6.23333333 L5.66666667,1.13333333 Z M1.13333333,7.78146667 C1.13333333,7.55253333 1.31976667,7.36666667 1.54813333,7.36666667 L4.53333333,7.36666667 L4.53333333,19.8531667 L1.13333333,29.1261 L1.13333333,7.78146667 Z M27.1257667,32.6303667 C27.0883667,32.7692 26.9614333,32.8666667 26.8169333,32.8666667 L1.4535,32.8666667 C1.3158,32.8666667 1.23533333,32.7879 1.19963333,32.7408667 C1.16393333,32.6944 1.10896667,32.5958 1.12993333,32.5096667 L4.53333333,23.1755333 L4.53333333,23.1783667 L6.89066667,16.7161 L6.9054,16.6696333 C6.9428,16.5308 7.0703,16.4333333 7.21423333,16.4333333 L26.0666667,16.4333333 L27.2,16.4333333 L30.6,16.4333333 L32.5776667,16.4333333 C32.793,16.4333333 32.8479667,16.7427333 32.8621333,16.8974333 L27.1257667,32.6303667 Z" id="Shape"></path>
                        <path d="M8.58333333,9 L14.4166667,9 C14.7386667,9 15,8.7765 15,8.5 C15,8.2235 14.7386667,8 14.4166667,8 L8.58333333,8 C8.26133333,8 8,8.2235 8,8.5 C8,8.7765 8.26133333,9 8.58333333,9 Z" id="Shape"></path>
                        <path d="M8.58333333,6 L14.4166667,6 C14.7386667,6 15,5.7765 15,5.5 C15,5.2235 14.7386667,5 14.4166667,5 L8.58333333,5 C8.26133333,5 8,5.2235 8,5.5 C8,5.7765 8.26133333,6 8.58333333,6 Z" id="Shape"></path>
                        <path d="M8.57692308,13 L22.4230769,13 C22.7415385,13 23,12.7765 23,12.5 C23,12.2235 22.7415385,12 22.4230769,12 L8.57692308,12 C8.25846154,12 8,12.2235 8,12.5 C8,12.7765 8.25846154,13 8.57692308,13 Z" id="Shape"></path>
                    </g>
                </g>
            </g>
        </g>
    </g>
</svg>