<?xml version="1.0" encoding="UTF-8"?>
<svg width="100px" height="30px" viewBox="0 0 100 30" version="1.1" xmlns="http://www.w3.org/2000/svg" xmlns:xlink="http://www.w3.org/1999/xlink">
    <!-- Generator: Sketch 51.2 (57519) - http://www.bohemiancoding.com/sketch -->
    <title>svg/footer_logo_97</title>
    <desc>Created with Sketch.</desc>
    <defs></defs>
    <g id="Page-1" stroke="none" stroke-width="1" fill="none" fill-rule="evenodd">
        <g id="png_pages/berezdubrava_scroll_01" transform="translate(-670.000000, -3078.000000)">
            <g id="Футер" transform="translate(0.000000, 2742.000000)">
                <g id="svg/footer_logo_97" transform="translate(672.000000, 337.000000)">
                    <polygon id="Shape_16_copy_40" stroke="#BBEE2A" stroke-width="2" points="90.7890014 27.9983364 96 0 5.20989625 0 0 28 90.7890014 28"></polygon>
                    <path d="M14.4271386,13.6381828 L14.3580236,12.8253404 L14.2138541,12.8253404 L14.0648249,13.6398451 L12.3936462,22.818814 L10,22.818814 L13.2079071,5.20334982 L15.5297385,5.20334982 L16.3936758,14.3817646 L16.4633307,15.1968234 L16.6080402,15.1968234 L16.7565295,14.3823187 L18.4277081,5.20224165 L20.8208144,5.20224165 L17.6134472,22.8165976 L15.2916158,22.8165976 L14.4271386,13.6381828 Z M22.754414,5.19947123 L25.3645845,5.19947123 L22.1572174,22.8143813 L19.5465069,22.8143813 L22.754414,5.19947123 Z M28.5179555,13.633196 L28.4483006,12.8186914 L28.3035911,12.8186914 L28.1551019,13.633196 L26.4839232,22.8116109 L24.090817,22.8116109 L27.2987241,5.19614672 L29.6205555,5.19614672 L30.4844928,14.3751156 L30.5541477,15.1890662 L30.6993972,15.1890662 L30.8473464,14.3751156 L32.5212249,5.19503855 L34.9143312,5.19503855 L31.7064241,22.8099486 L29.3845926,22.8099486 L28.5179555,13.633196 Z M35.8975998,8.81265824 C36.0509486,7.97321976 36.8090536,5.00166295 40.0013018,5.0000007 C43.1935501,4.99833844 42.8684937,7.97044934 42.7162247,8.80933373 L40.8916972,18.8299574 C40.6649136,20.0760942 39.9872628,22.9988915 36.7242797,22.9999997 C33.4612966,23.0011079 33.8489885,20.0777564 34.075772,18.8316197 L34.2766374,17.729545 L36.8868079,17.729545 C36.4548393,20.1021362 36.3857243,20.748199 37.13411,20.7470909 C37.7869226,20.7470909 38.0374644,20.1713968 38.2815267,18.8305115 L38.883583,15.5231793 C38.4641672,15.7823002 37.9886597,15.9306067 37.4996634,15.9548114 C34.8171382,15.9548114 35.0968379,13.2242815 35.2761049,12.2424432 L35.8975998,8.81265824 Z M40.2432043,8.04358853 C40.2804411,7.84564407 40.2281485,7.64105298 40.1010305,7.48734332 C39.9739124,7.33363366 39.7856985,7.24740718 39.5893117,7.25290952 C39.1466791,7.29274279 38.773,7.60671742 38.6476201,8.04414262 L37.7183476,13.1489259 C37.6914932,13.3450084 37.7475077,13.5435274 37.8723025,13.6945525 C37.9970973,13.8455775 38.1787965,13.9347366 38.3717001,13.9396049 C38.7985245,13.9250667 39.1703359,13.6366957 39.3004327,13.2192947 L40.2432043,8.04358853 Z M47.6946633,7.75380218 L43.7788676,7.75380218 L44.2459337,5.1894977 L50.8210363,5.1894977 L50.3496505,7.77818191 L45.0040386,22.8066241 L42.2966752,22.8066241 L47.6946633,7.75380218 Z M52.078605,5.18728136 L58.0478716,5.18728136 L57.5619069,7.84688843 L54.2022708,7.84688843 L53.359932,12.4723884 L55.7767965,12.4723884 L55.2616739,15.2982209 L52.8458893,15.2982209 L51.9662931,20.1431384 L55.3253893,20.1431384 L54.8394245,22.8027455 L48.869078,22.8027455 L52.078605,5.18728136 Z M64.2374422,5.18340277 L66.775258,5.18340277 L60.8599874,22.7988669 L58.2498169,22.7988669 L58.7503606,5.18451094 L61.2881763,5.18451094 L60.8297496,14.8665888 L60.7919524,15.6090625 L60.9372018,15.6090625 L61.168305,14.8660347 L64.2374422,5.18340277 Z M67.959932,5.18340277 L73.9308184,5.18340277 L73.4448537,7.84300983 L70.0846777,7.84300983 L69.2423388,12.4685098 L71.6597433,12.4685098 L71.1457007,15.2943423 L68.7282962,15.2943423 L67.8470801,20.1392598 L71.2072562,20.1392598 L70.7212915,22.7988669 L64.7509449,22.7988669 L67.959932,5.18340277 Z M76.5993047,13.6160194 L76.5301897,12.8015148 L76.3854802,12.8015148 L76.236991,13.6160194 L74.5631125,22.7949883 L72.1694663,22.7949883 L75.3806132,5.17897009 L77.7024446,5.17897009 L78.5690817,14.357939 L78.6403565,15.1735518 L78.785606,15.1735518 L78.9335552,14.3584931 L80.6074337,5.17952417 L83,5.17952417 L79.7931728,22.7949883 L77.4713414,22.7949883 L76.5993047,13.6160194 Z" id="Shape_25_copy" fill="#FFFFFF"></path>
                </g>
            </g>
        </g>
    </g>
</svg>