<?xml version="1.0" encoding="UTF-8"?>
<svg width="23px" height="13px" viewBox="0 0 23 13" version="1.1" xmlns="http://www.w3.org/2000/svg" xmlns:xlink="http://www.w3.org/1999/xlink">
    <!-- Generator: Sketch 51.2 (57519) - http://www.bohemiancoding.com/sketch -->
    <title>svg/footer_cosial_vk_logo</title>
    <desc>Created with Sketch.</desc>
    <defs></defs>
    <g id="Page-1" stroke="none" stroke-width="1" fill="none" fill-rule="evenodd">
        <g id="png_pages/berezdubrava_scroll_01" transform="translate(-243.000000, -2861.000000)" fill="#FFFFFF">
            <g id="Футер" transform="translate(0.000000, 2742.000000)">
                <path d="M262.79422,127.265405 C263.556332,128.008907 264.362606,128.708634 265.046768,129.528993 C265.349874,129.891889 265.635582,130.267149 265.853042,130.689191 C266.163508,131.29101 265.883152,131.950972 265.343852,131.986727 L261.993968,131.986059 C261.128812,132.057569 260.440301,131.709042 259.859851,131.11825 C259.396494,130.647421 258.966593,130.144513 258.520299,129.657644 C258.337967,129.457817 258.145933,129.269686 257.917099,129.121654 C257.460433,128.824922 257.063653,128.915813 256.802032,129.392322 C256.535393,129.877186 256.474504,130.414512 256.449078,130.954178 C256.412612,131.743126 256.174409,131.949301 255.381852,131.986393 C253.688342,132.065588 252.081482,131.808955 250.588035,130.956183 C249.270563,130.203993 248.250844,129.142372 247.36227,127.940405 C245.631959,125.597287 244.306793,123.025605 243.116117,120.380074 C242.84814,119.784269 243.044188,119.465482 243.702255,119.453119 C244.795576,119.432067 245.888897,119.43474 246.982217,119.452116 C247.427174,119.459133 247.721581,119.713428 247.892538,120.132797 C248.483359,121.584714 249.207667,122.966125 250.115311,124.247287 C250.357193,124.588463 250.604094,124.928636 250.955709,125.169564 C251.343791,125.435554 251.639537,125.347671 251.822537,124.914936 C251.939631,124.639923 251.990149,124.345864 252.015575,124.051136 C252.102559,123.041644 252.11293,122.032486 251.962381,121.027004 C251.868706,120.397784 251.514414,119.991448 250.886457,119.872487 C250.566624,119.812005 250.613461,119.693713 250.769029,119.511262 C251.039013,119.195817 251.291936,119.000668 251.797446,119.000668 L255.58225,119 C256.178759,119.116955 256.31258,119.384282 256.393542,119.98443 L256.396888,124.185468 C256.389862,124.417708 256.513647,125.106074 256.931169,125.258116 C257.265723,125.368388 257.486528,125.100393 257.686591,124.888871 C258.594235,123.92683 259.240927,122.79136 259.820039,121.616125 C260.075638,121.097846 260.296109,120.561522 260.510223,120.024195 C260.66947,119.626881 260.91704,119.431398 261.366011,119.438081 L265.010637,119.442426 C265.118028,119.442426 265.227093,119.443428 265.333481,119.461807 C265.947721,119.566732 266.116001,119.830717 265.925975,120.429195 C265.626884,121.369516 265.045765,122.152783 264.477693,122.938055 C263.868805,123.778797 263.219437,124.590134 262.616572,125.434552 C262.062551,126.206457 262.106378,126.595083 262.79422,127.265405 Z" id="svg/footer_cosial_vk_logo"></path>
            </g>
        </g>
    </g>
</svg>