<?xml version="1.0" encoding="UTF-8"?>
<svg width="20px" height="20px" viewBox="0 0 20 20" version="1.1" xmlns="http://www.w3.org/2000/svg" xmlns:xlink="http://www.w3.org/1999/xlink">
    <!-- Generator: Sketch 51.2 (57519) - http://www.bohemiancoding.com/sketch -->
    <title>svg/footer_cosial_instagram</title>
    <desc>Created with Sketch.</desc>
    <defs></defs>
    <g id="Page-1" stroke="none" stroke-width="1" fill="none" fill-rule="evenodd">
        <g id="png_pages/berezdubrava_scroll_01" transform="translate(-181.000000, -2857.000000)" fill="#FFFFFF" fill-rule="nonzero">
            <g id="Футер" transform="translate(0.000000, 2742.000000)">
                <g id="svg/footer_cosial_instagram" transform="translate(181.000000, 115.000000)">
                    <path d="M14.1903516,0 L5.8096875,0 C2.60621094,0 0,2.60621094 0,5.8096875 L0,14.1903125 C0,17.3937891 2.60621094,20 5.8096875,20 L14.1903125,20 C17.3937891,20 20,17.3937891 20,14.1903516 L20,5.8096875 C20,2.60621094 17.3937891,0 14.1903516,0 Z M18.4375,14.1903125 C18.4375,16.5322266 16.5322266,18.4375 14.1903516,18.4375 L5.8096875,18.4375 C3.46777344,18.4375 1.5625,16.5322266 1.5625,14.1903516 L1.5625,5.8096875 C1.5625,3.46777344 3.46777344,1.5625 5.8096875,1.5625 L14.1903125,1.5625 C16.5322266,1.5625 18.4375,3.46777344 18.4375,5.8096875 L18.4375,14.1903125 Z" id="Shape"></path>
                    <path d="M10,4.609375 C7.02757812,4.609375 4.609375,7.02757812 4.609375,10 C4.609375,12.9724219 7.02757812,15.390625 10,15.390625 C12.9724219,15.390625 15.390625,12.9724219 15.390625,10 C15.390625,7.02757812 12.9724219,4.609375 10,4.609375 Z M10,13.828125 C7.88917969,13.828125 6.171875,12.1108203 6.171875,10 C6.171875,7.88917969 7.88917969,6.171875 10,6.171875 C12.1108203,6.171875 13.828125,7.88917969 13.828125,10 C13.828125,12.1108203 12.1108203,13.828125 10,13.828125 Z" id="Shape"></path>
                    <circle id="Oval" cx="15.46875" cy="4.53125" r="1"></circle>
                </g>
            </g>
        </g>
    </g>
</svg>