<?xml version="1.0" encoding="UTF-8"?>
<svg width="35px" height="33px" viewBox="0 0 35 33" version="1.1" xmlns="http://www.w3.org/2000/svg" xmlns:xlink="http://www.w3.org/1999/xlink">
    <!-- Generator: Sketch 51.2 (57519) - http://www.bohemiancoding.com/sketch -->
    <title>svg/text/form_icon_calendar</title>
    <desc>Created with Sketch.</desc>
    <defs></defs>
    <g id="Page-1" stroke="none" stroke-width="1" fill="none" fill-rule="evenodd">
        <g id="png_pages/berezdubrava_text_03" transform="translate(-1072.000000, -9052.000000)" fill="#BBEE2A" fill-rule="nonzero">
            <g id="Форма-обратной-связи" transform="translate(423.000000, 8404.000000)">
                <g id="Форма" transform="translate(0.000000, 211.000000)">
                    <g id="svg/text/form_icon_calendar" transform="translate(649.000000, 437.000000)">
                        <path d="M32.0848133,19.6084453 L32.0848133,5.49997852 C32.0848133,3.98333203 30.7766954,2.74995703 29.1679872,2.74995703 L24.7927823,2.74995703 L24.7927823,0.687457031 C24.7928507,0.307505859 24.4666928,0 24.063627,0 C23.6605613,0 23.3344034,0.307505859 23.3344034,0.687521484 L23.3344034,2.75002148 L10.2087887,2.75002148 L10.2087887,0.687521484 C10.2087887,0.307505859 9.8826992,0 9.47963344,0 C9.07656769,0 8.75040984,0.307505859 8.75040984,0.687521484 L8.75040984,2.75002148 L2.91682607,2.75002148 C1.30811791,2.75002148 0,3.98333203 0,5.49997852 L0,27.499957 C0,29.0166035 1.30811791,30.2499785 2.91682607,30.2499785 L20.79781,30.2499785 C22.2702716,31.9285312 24.4949949,33 26.9804531,33 C31.4033751,33 35.0016393,29.6075098 35.0016393,25.4375215 C35.0016393,23.0941992 33.8651799,20.9967012 32.0848133,19.6084453 Z M1.45837885,5.49997852 C1.45837885,4.74200977 2.1128138,4.125 2.91682607,4.125 L8.75040984,4.125 L8.75040984,5.49997852 C7.94571394,5.49997852 7.29203098,6.11698828 7.29203098,6.87495703 C7.29203098,7.63292578 7.94578231,8.24993555 8.75040984,8.24993555 C9.55503737,8.24993555 10.2087887,7.63292578 10.2087887,6.87495703 L10.2087887,4.125 L23.3344034,4.125 L23.3344034,5.49997852 C22.5297075,5.49997852 21.8760246,6.11698828 21.8760246,6.87495703 C21.8760246,7.63292578 22.5297759,8.24993555 23.3344034,8.24993555 C24.1390993,8.24993555 24.7927823,7.63292578 24.7927823,6.87495703 L24.7927823,4.125 L29.1679872,4.125 C29.9719995,4.125 30.6264344,4.74200977 30.6264344,5.49997852 L30.6264344,9.62497852 L1.45837885,9.62497852 L1.45837885,5.49997852 Z M2.91682607,28.875 C2.11288216,28.875 1.45844721,28.2579902 1.45844721,27.5000215 L1.45844721,11.0000215 L30.6264344,11.0000215 L30.6264344,18.7099043 C29.5310609,18.1800996 28.2938349,17.875043 26.9804531,17.875043 C22.5575311,17.875043 18.9592669,21.2675332 18.9592669,25.4375215 C18.9592669,26.6757949 19.282827,27.8422676 19.8447673,28.875 L2.91682607,28.875 Z M26.9804531,31.6250215 C23.361475,31.6250215 20.4176457,28.8494766 20.4176457,25.4375215 C20.4176457,22.0255664 23.3615434,19.2500215 26.9804531,19.2500215 C30.5993628,19.2500215 33.5432605,22.0255664 33.5432605,25.4375215 C33.5432605,28.8494766 30.5993628,31.6250215 26.9804531,31.6250215 Z" id="Shape"></path>
                        <path d="M30.6125109,23.1953276 L26.1627808,27.3906292 L24.5414549,25.8620082 C24.2652236,25.6015714 23.8177647,25.6015714 23.5415997,25.8620082 C23.2653684,26.122445 23.2653684,26.5443189 23.5415997,26.8046932 L25.6628863,28.804688 C25.8009688,28.9348752 25.9819411,29 26.1628471,29 C26.343753,29 26.524659,28.9348752 26.6628078,28.804688 L31.6124987,24.1380127 C31.88873,23.8775758 31.88873,23.4557019 31.6124987,23.1953276 C31.3362011,22.9348908 30.8887422,22.9348908 30.6125109,23.1953276 Z" id="Shape"></path>
                    </g>
                </g>
            </g>
        </g>
    </g>
</svg>