<svg xmlns="http://www.w3.org/2000/svg" width="140.844" height="145.625" viewBox="0 0 140.844 145.625">
  <metadata><?xpacket begin="﻿" id="W5M0MpCehiHzreSzNTczkc9d"?>
<x:xmpmeta xmlns:x="adobe:ns:meta/" x:xmptk="Adobe XMP Core 5.6-c140 79.160451, 2017/05/06-01:08:21        ">
   <rdf:RDF xmlns:rdf="http://www.w3.org/1999/02/22-rdf-syntax-ns#">
      <rdf:Description rdf:about=""/>
   </rdf:RDF>
</x:xmpmeta>
                                                                                                    
                                                                                                    
                                                                                                    
                                                                                                    
                                                                                                    
                                                                                                    
                                                                                                    
                                                                                                    
                                                                                                    
                                                                                                    
                                                                                                    
                                                                                                    
                                                                                                    
                                                                                                    
                                                                                                    
                                                                                                    
                                                                                                    
                                                                                                    
                                                                                                    
                                                                                                    
                           
<?xpacket end="w"?></metadata>
<defs>
    <style>
      .cls-1 {
        fill: #385443;
        fill-rule: evenodd;
      }
    </style>
  </defs>
  <path class="cls-1" d="M138.968,43.355c2.2,1.062-1.471,2.041-3.935,2.545a2.17,2.17,0,0,1,1.948,1.255c1.321,1.342-1,1.873-1,1.873,2.048,2.954-6.9,2.508-6.9,2.508,1.657,2.41-2.766,2.453-5.414,2.286a63.422,63.422,0,0,0-9.8,6.959,4.773,4.773,0,0,1,.957.412c2.424-4.2,5.231-1.482,5.231-1.482,5.983-2.459,5.122,1.488,5.122,1.488,8.087,1.18,4.405,4.087,4.405,4.087,8.485,5.335-.9,4.7-0.9,4.7,0.415,2.306-2.607.1-4.509-1.475a2,2,0,0,1,.114,2.242c-0.334,1.8-2.167.348-2.167,0.348-1.259,3.346-6.252-3.762-6.252-3.762-0.942,2.482-3.259-.092-4.752-2.174a25.932,25.932,0,0,1,.533,2.659c0.1,0.658.178,1.328,0.252,1.988l0.14,1.22a2.678,2.678,0,0,1,.386.866c7.935-1.9,5.721,2.138,5.721,2.138,10,1.8,1.083,4.675,1.083,4.675,1.328,1.978-2.354,1.052-4.746.3a2.039,2.039,0,0,1,1.007,2.021c0.423,1.789-1.857,1.127-1.857,1.127,0.1,1.729-1.638,1.482-3.438.784-0.257.642-.553,1.26-0.861,1.871a1.719,1.719,0,0,1,.846,1.19c6.194-1.378,4.388,1.778,4.388,1.778,7.7,1.563.729,3.708,0.729,3.708,0.983,1.581-1.85.8-3.682,0.167a1.6,1.6,0,0,1,.734,1.612c0.288,1.423-1.471.866-1.471,0.866,0.075,2.8-5.61-1.026-5.61-1.026a1.1,1.1,0,0,1-.012.132c0.8,0.3,1.266.763,0.723,1.5,0,0,1.555.456,0.615,1.363,0,0-.043.079-0.112,0.181a110.038,110.038,0,0,0,18.841-4.608,0.84,0.84,0,0,1,.43.305c3.329,6.724,4.964,13.674,3,21.159a2.01,2.01,0,0,1-1.594,1.608c-2.875.771-5.736,1.67-8.609,2.468a2.466,2.466,0,0,0-1.673,1.368,32.936,32.936,0,0,0-2.824,9.042,1.351,1.351,0,0,1-1.027,1.178A89.371,89.371,0,0,1,97.4,132.632c-1.1.192-2.216,0.267-3.305,0.508a2.312,2.312,0,0,0-1.29.785,27.483,27.483,0,0,1-18.982,11.522A29.6,29.6,0,0,1,54,141.776a22.305,22.305,0,0,1-7.8-7.827,1.627,1.627,0,0,0-1.038-.7,94.2,94.2,0,0,1-15.271-3.494,1.724,1.724,0,0,1-1.38-1.508,25.11,25.11,0,0,0-4.71-10.23,3.306,3.306,0,0,0-1.57-.975q-4.33-1.331-8.7-2.521c-1.659-.455-2.064-1.583-2.115-3.139A36.448,36.448,0,0,1,13.5,98.1c0.823-2.33,1.836-4.6,2.748-6.876,0.1,0.025.2,0.051,0.291,0.076a91.2,91.2,0,0,0,13,3.683,0.914,0.914,0,0,1-.352-0.85s-1.756.557-1.471-.866a1.606,1.606,0,0,1,.736-1.612c-1.832.63-4.665,1.415-3.682-.167,0,0-6.969-2.145.729-3.708,0,0-1.806-3.155,4.387-1.778,0,0,.4-2.261,2.733-0.8a1.1,1.1,0,0,1,.109-0.138A1.508,1.508,0,0,1,33,84.7q-0.282-.538-0.53-1.072a3.976,3.976,0,0,1-1.383-.787c-1.9.781-3.822,1.144-3.723-.677,0,0-2.279.662-1.857-1.126a2.039,2.039,0,0,1,1.008-2.022c-2.392.755-6.076,1.679-4.747-.3,0,0-8.916-2.877,1.083-4.676,0,0-2.213-4.033,5.722-2.138a1.937,1.937,0,0,1,1.893-1.6c0.005-.015.009-0.031,0.015-0.046a25.638,25.638,0,0,1,.87-5.417c-0.238-.255-0.471-0.511-0.718-0.766-1.312,2.017-4.381,6.219-5.5,3.267,0,0-4.994,7.106-6.251,3.761,0,0-1.834,1.455-2.168-.348a2,2,0,0,1,.115-2.243c-1.9,1.582-4.924,3.783-4.51,1.477,0,0-9.385.633-.9-4.7,0,0-3.682-2.907,4.4-4.089,0,0-.86-3.947,5.121-1.488,0,0,2.808-2.716,5.232,1.481a4.923,4.923,0,0,1,.958-0.411,63.557,63.557,0,0,0-9.8-6.959c-2.65.168-7.072,0.125-5.415-2.286,0,0-8.948.447-6.9-2.507,0,0-2.325-.53-1-1.874A2.172,2.172,0,0,1,5.965,45.9C3.5,45.4-.167,44.417,2.032,43.355c0,0-6.158-6.779,3.415-3.507,0,0,.241-4.543,6.079.913,0,0,2.8-3.02,4.312,3.016,0,0,3.962.514,1.888,4.874,0,0,2.76,1,2.289,3.29,1.544,0.932,3.015,1.886,4.394,2.867a3.228,3.228,0,0,1,.256-0.89c-4.474-4.509-.274-5.086-0.274-5.086-1.6-7.635,2.521-5.34,2.521-5.34,2.38-9.421,4.952-.8,4.952-0.8,2.139-1.165.995,2.287,0.086,4.528a2.245,2.245,0,0,1,2.166-.862c1.9-.311,1.085,1.826,1.085,1.826a1.181,1.181,0,0,1,1.223.6c0.2-.829.383-1.659,0.526-2.5a14.744,14.744,0,0,0-.329-7.079c-0.278-.9-0.57-1.8-0.86-2.684-0.354-1.1-.7-2.192-1.039-3.279a3.432,3.432,0,0,1,.327-2.62c-3.309,1.976-3.227-.68-3.227-0.68-5.546.1-3.439-2.365-3.439-2.365-6.31-2.773.042-3.4,0.042-3.4-0.562-1.576,1.726-.367,3.182.521a1.48,1.48,0,0,1-.341-1.557c0.006-1.307,1.411-.5,1.411-0.5,0.159-.9.818-0.891,1.588-0.514,0.033-.034.047-0.066,0.084-0.1,0,0-6.689-1.474-4.613-3.352,0,0-1.617-.885-0.39-1.661a1.607,1.607,0,0,1,1.674-.581c-1.719-.891-4.243-2.4-2.421-2.779,0,0-3.258-6.522,3.186-2.031,0,0,1.037-3.485,4.315,1.948,0,0,1.911-1.275,2.462,1.427a1.184,1.184,0,0,1,.175-0.015,1.6,1.6,0,0,1,1.651.482c-0.85-1.637-1.982-4.193-.323-3.467,0,0,1.15-6.8,3.675.209,0,0,2.81-2.092,2.294,3.885,0,0,2.875.106,0.483,3.543l0.247,0h1.622c0.456,0,.925,0,1.379-0.026a17.494,17.494,0,0,0,6.142-1.215,37.046,37.046,0,0,1,9.8-2.824l0.016,0c-0.037-.022-0.053-0.034-0.069-0.041-0.228-.118-0.456-0.232-0.682-0.35-0.185-.092-0.369-0.19-0.556-0.282a3.068,3.068,0,0,0-.352-0.16A1.9,1.9,0,0,1,63.52,14.4C63.358,14.27,63.206,14.13,63.044,14c-0.09-.069-0.194-0.115-0.29-0.177a1.092,1.092,0,0,1-.367-0.356,0.522,0.522,0,0,1-.021-0.528c0.067-.142.139-0.28,0.2-0.425a0.462,0.462,0,0,0,.013-0.337,0.1,0.1,0,0,0-.151-0.083c-0.439.09-.879,0.185-1.322,0.264a3.153,3.153,0,0,1-.75.039,1.9,1.9,0,0,0-.766.158,2.434,2.434,0,0,0-.766.515q-0.837.75-1.691,1.484c-0.4.342-.812,0.67-1.214,1.008a1.034,1.034,0,0,1-.665.236c-0.218,0-.437-0.008-0.656-0.015a0.109,0.109,0,0,0-.007-0.02,0.3,0.3,0,0,1,.038-0.048c0.565-.619,1.166-1.2,1.771-1.785s1.215-1.173,1.822-1.76a0.279,0.279,0,0,0,.034-0.042c-0.138-.018-0.268-0.031-0.4-0.049-0.213-.032-0.425-0.063-0.637-0.1a0.307,0.307,0,0,1-.075-0.038A0.253,0.253,0,0,1,57.2,11.88c0.177-.11.355-0.216,0.533-0.323,0.1-.057.2-0.112,0.294-0.172,0.054-.035.051-0.067-0.011-0.09-0.085-.029-0.173-0.054-0.258-0.081-0.046-.014-0.09-0.028-0.134-0.045-0.091-.04-0.1-0.1-0.015-0.155a0.852,0.852,0,0,1,.179-0.09c0.245-.08.49-0.148,0.729-0.233a2.952,2.952,0,0,0,1.145-.762c0.3-.319.582-0.655,0.87-0.988a5.321,5.321,0,0,1,.97-0.947,14.1,14.1,0,0,0,1.778-1.521c0.551-.528,1.091-1.067,1.646-1.594a6.8,6.8,0,0,1,.606-0.5,0.907,0.907,0,0,0,.415-0.788,0.625,0.625,0,0,0-.237-0.461c-0.266-.229-0.522-0.464-0.77-0.709-0.194-.19-0.369-0.4-0.553-0.6a0.155,0.155,0,0,0-.062-0.039q-0.75-.352-1.5-0.7l-0.039-.023c0.066-.009.115-0.016,0.164-0.022A10.9,10.9,0,0,1,64.311.975a1.076,1.076,0,0,0,.3.005,1.074,1.074,0,0,0,.24-0.172A3.417,3.417,0,0,1,66.161.246c0.1-.02.212-0.033,0.316-0.048H66.87c0.071,0.013.139,0.022,0.21,0.033a4.269,4.269,0,0,1,1.3.437,3.912,3.912,0,0,1,1.444,1.25,3.764,3.764,0,0,1,.653,1.966,2.139,2.139,0,0,0,.072.519c0.007,0.027.014,0.052,0.02,0.078V7.3a5.279,5.279,0,0,1-.445,1.178A5.933,5.933,0,0,1,69.1,9.858a10.147,10.147,0,0,1-1.245,1.131,3.621,3.621,0,0,1-1.138.605,3.478,3.478,0,0,1-.389.075c0.115,0.052.248,0.105,0.372,0.169a2.22,2.22,0,0,1,.286.181,0.3,0.3,0,0,1,.13.22,0.149,0.149,0,0,0,.132.111c0.136,0.039.271,0.073,0.408,0.1a2.772,2.772,0,0,1,1.56.909c0.324,0.375.661,0.735,0.989,1.1a0.471,0.471,0,0,1,.088.158c0.062,0.19.118,0.383,0.176,0.571l2.09,0.006c0.058-.19.115-0.385,0.178-0.577a0.473,0.473,0,0,1,.089-0.158c0.327-.367.665-0.727,0.989-1.1a2.754,2.754,0,0,1,1.558-.907c0.138-.031.272-0.065,0.408-0.1a0.144,0.144,0,0,0,.131-0.111,0.306,0.306,0,0,1,.131-0.22,2.081,2.081,0,0,1,.287-0.181c0.123-.064.257-0.118,0.371-0.169a3.53,3.53,0,0,1-.389-0.075,3.649,3.649,0,0,1-1.138-.605,10.122,10.122,0,0,1-1.244-1.131A5.9,5.9,0,0,1,72.9,8.48,5.256,5.256,0,0,1,72.455,7.3V4.482c0.005-.026.013-0.052,0.02-0.078a2.193,2.193,0,0,0,.071-0.519A3.783,3.783,0,0,1,73.2,1.918,3.916,3.916,0,0,1,74.643.668a4.273,4.273,0,0,1,1.3-.437c0.07-.011.138-0.02,0.21-0.033h0.393c0.1,0.016.213,0.028,0.317,0.048a3.4,3.4,0,0,1,1.3.561,1,1,0,0,0,.242.172,1.036,1.036,0,0,0,.3-0.005,10.868,10.868,0,0,1,1.361.071c0.049,0.005.1,0.014,0.165,0.022L80.2,1.09l-1.5.7a0.166,0.166,0,0,0-.062.039c-0.183.2-.358,0.406-0.552,0.6-0.249.245-.5,0.481-0.771,0.709a0.624,0.624,0,0,0-.236.461,0.908,0.908,0,0,0,.413.788,6.492,6.492,0,0,1,.608.5c0.554,0.527,1.1,1.066,1.645,1.595a14.162,14.162,0,0,0,1.778,1.521,5.32,5.32,0,0,1,.97.947c0.286,0.333.571,0.669,0.87,0.988a2.951,2.951,0,0,0,1.145.762c0.24,0.084.485,0.153,0.73,0.234a0.913,0.913,0,0,1,.18.089c0.082,0.054.075,0.114-.016,0.155-0.043.018-.088,0.032-0.134,0.045-0.084.028-.174,0.052-0.257,0.081-0.062.023-.064,0.055-0.01,0.09,0.1,0.061.194,0.115,0.292,0.173,0.178,0.107.356,0.211,0.535,0.321a0.313,0.313,0,0,1,.052.066,0.288,0.288,0,0,1-.075.038c-0.212.035-.425,0.067-0.638,0.1-0.129.018-.257,0.031-0.395,0.049a0.185,0.185,0,0,0,.034.042c0.607,0.588,1.214,1.178,1.822,1.76S87.831,15.1,88.4,15.72a0.44,0.44,0,0,1,.037.048,0.2,0.2,0,0,1-.007.02c-0.218.007-.437,0.02-0.655,0.015a1.039,1.039,0,0,1-.666-0.236c-0.4-.339-0.815-0.667-1.214-1.009q-0.853-.734-1.689-1.484a2.429,2.429,0,0,0-.766-0.514,1.857,1.857,0,0,0-.767-0.158,3.219,3.219,0,0,1-.748-0.04c-0.443-.08-0.884-0.175-1.323-0.264a0.1,0.1,0,0,0-.152.083,0.466,0.466,0,0,0,.015.337c0.057,0.146.129,0.284,0.195,0.425a0.523,0.523,0,0,1-.019.528,1.119,1.119,0,0,1-.369.357c-0.1.061-.2,0.106-0.29,0.176-0.161.127-.314,0.266-0.475,0.393a1.93,1.93,0,0,1-.546.338,3.5,3.5,0,0,0-.352.16c-0.187.094-.371,0.19-0.556,0.282-0.225.118-.455,0.233-0.683,0.35-0.015.007-.03,0.02-0.069,0.043,0.106,0.049.2,0.093,0.289,0.128A26.6,26.6,0,0,1,85.5,17.975a17.584,17.584,0,0,0,5.847,1.534,2.618,2.618,0,0,1,.263-0.681c-2.881-3.813.221-3.915,0.221-3.915-0.514-5.976,2.294-3.885,2.294-3.885C96.65,4.015,97.8,10.82,97.8,10.82c1.657-.725.527,1.83-0.324,3.467a1.6,1.6,0,0,1,1.653-.482,1.141,1.141,0,0,1,.172.016c0.552-2.7,2.464-1.428,2.464-1.428,3.278-5.432,4.316-1.947,4.316-1.947,6.442-4.492,3.184,2.032,3.184,2.032,1.824,0.379-.7,1.888-2.421,2.778a1.608,1.608,0,0,1,1.675.581c1.226,0.777-.391,1.661-0.391,1.661,2.078,1.879-4.613,3.352-4.613,3.352,0.038,0.034.052,0.066,0.085,0.1,0.771-.376,1.429-0.39,1.588.514,0,0,1.4-.809,1.412.5a1.48,1.48,0,0,1-.342,1.556c1.458-.889,3.744-2.1,3.183-0.522,0,0,6.352.632,0.039,3.407,0,0,2.108,2.462-3.436,2.365,0,0,0,.069-0.008.171,0.321,0.386.646,0.768,0.965,1.154a3.466,3.466,0,0,1,.7,3.065c-0.3,1.126-.647,2.341-1.091,3.545a16.093,16.093,0,0,0-1.442,6.319,36.781,36.781,0,0,0,.49,4c0.075-.436.367-0.8,1.226-0.659a2.241,2.241,0,0,1,2.167.862c-0.908-2.241-2.052-5.693.086-4.529,0,0,2.572-8.625,4.951.795,0,0,4.123-2.294,2.522,5.34,0,0,4.2.578-.273,5.088a3.272,3.272,0,0,1,.257.89c1.378-.983,2.849-1.935,4.391-2.868-0.469-2.293,2.291-3.29,2.291-3.29-2.075-4.361,1.887-4.873,1.887-4.873,1.509-6.038,4.314-3.017,4.314-3.017,5.838-5.456,6.078-.914,6.078-0.914C145.126,36.575,138.968,43.355,138.968,43.355ZM112.916,76.288c0.477-.019.947-0.038,1.37-0.059l2.072-.044c0.507-.012.792-0.009,0.792-0.009a18.5,18.5,0,0,0-2.84-.523c-0.425-.034-0.9-0.1-1.392-0.114-0.3-.017-0.613-0.02-0.924-0.03l-0.095.727c0,0.039-.013.076-0.018,0.114C112.231,76.326,112.584,76.3,112.916,76.288ZM30.4,75.507c-0.25-.006-0.51-0.019-0.753-0.019-0.54-.008-1.066.022-1.566,0.051-0.494.014-.968,0.08-1.392,0.115a18.278,18.278,0,0,0-2.84.523s0.285,0,.793.009,1.217,0.025,2.072.044c0.424,0.02.893,0.039,1.37,0.06s1,0.058,1.531.09c0.3,0.009.607,0.036,0.914,0.065ZM16.9,49.548c-0.294-.4-0.657-0.756-1.018-1.154s-0.774-.751-1.194-1.135c-0.419-.363-0.87-0.717-1.322-1.075-0.477-.322-0.926-0.666-1.41-0.959-0.476-.31-0.952-0.589-1.423-0.85s-0.933-.5-1.377-0.709C8.722,43.437,8.29,43.265,7.9,43.1a18.214,18.214,0,0,0-2.726-.927s0.248,0.135.678,0.393S6.887,43.172,7.61,43.6c0.36,0.22.744,0.466,1.157,0.717s0.832,0.524,1.271.808,0.878,0.6,1.336.9,0.882,0.646,1.342.957c0.438,0.336.879,0.667,1.3,1.008,0.4,0.361.841,0.674,1.207,1.032,0.2,0.2.4,0.379,0.6,0.558,0.621,0.323,1.216.656,1.813,0.986C17.419,50.235,17.165,49.9,16.9,49.548Zm9.543,12.817c-0.51-.019-1.04.046-1.578,0.079-0.553.051-1.107,0.138-1.68,0.231-0.562.112-1.128,0.239-1.694,0.372-0.552.161-1.114,0.308-1.649,0.491s-1.065.371-1.567,0.575-0.981.419-1.423,0.623-0.859.429-1.235,0.62a18.1,18.1,0,0,0-2.412,1.517l0.727-.274c0.468-.176,1.141-0.425,1.939-0.72,0.4-.144.831-0.291,1.3-0.454,0.45-.16.932-0.321,1.434-0.481,0.5-.177,1.028-0.312,1.551-0.481s1.072-.3,1.607-0.443c0.555-.136,1.094-0.279,1.632-0.4,0.548-.081,1.067-0.23,1.59-0.3s1.023-.181,1.5-0.215,0.928-.1,1.354-0.116,0.808-.019,1.156-0.041a4.946,4.946,0,0,1,.5.008c-0.128-.126-0.252-0.251-0.382-0.375-0.031,0-.056-0.014-0.088-0.018-0.349-.048-0.75-0.108-1.186-0.151S26.946,62.378,26.445,62.365Zm3.811-3.386c-0.12-.389-0.214-0.822-0.341-1.26s-0.181-.928-0.306-1.413c-0.1-.493-0.137-1.011-0.24-1.526-0.072-.519-0.123-1.056-0.173-1.587-0.031-.536-0.094-1.072-0.107-1.6s-0.058-1.052-.056-1.551-0.019-.993-0.014-1.465,0-.9,0-1.306c0.029-.818.041-1.5,0.052-1.974s0.025-.754.025-0.754a16.3,16.3,0,0,0-.674,2.676c-0.065.405-.154,0.845-0.193,1.319s-0.11.97-.131,1.486-0.039,1.049-.035,1.6,0.052,1.1.08,1.648c0.062,0.555.133,1.1,0.21,1.644,0.109,0.539.2,1.069,0.348,1.573a13.263,13.263,0,0,0,.464,1.444c0.135,0.342.264,0.662,0.4,0.966,0.322,0.284.645,0.568,0.956,0.853C30.442,59.5,30.364,59.255,30.257,58.979Zm1.865,2.311c0.079,0.078.148,0.158,0.227,0.236,0.058-.173.112-0.353,0.171-0.524,0.039-.116.083-0.233,0.123-0.349C32.455,60.888,32.276,61.106,32.122,61.29Zm73.071,38.027c-0.271-.184-0.66-0.453-1.112-0.767l-0.679.091c0.141,0.074.291,0.159,0.42,0.227a12.034,12.034,0,0,0,1.812.752S105.474,99.514,105.193,99.316ZM20.4,94.672c-1.963-.519-2.038-0.494-3.254,1.215a3.057,3.057,0,0,0-.177.266c-2.875,4.7-3.444,9.864-3,15.22a1.3,1.3,0,0,0,.823.885q8.2,2.358,16.448,4.611c1.33,0.367,2.71.545,4.078,0.81-0.013.113-.013,0.227-0.026,0.342h-6.9l-0.114.342c1.621,0.937,3.241,1.86,5,2.873-1.051.407-2.039,0.785-3,1.166,0.342,1.468.646,2.925,1.051,4.344a1.439,1.439,0,0,0,.849.886,153.782,153.782,0,0,0,21.931,4.381c1.633,0.2,3.267.38,4.888,0.583,0.012,0.126.012,0.266,0.012,0.4-2.836.229-5.673,0.457-8.61,0.7,0.266,0.455.507,0.963,0.823,1.431a17.466,17.466,0,0,0,8.509,6.419A28.156,28.156,0,0,0,72.317,143a21.377,21.377,0,0,0,11.651-4.2,12.836,12.836,0,0,0,3.848-4.469c-2.037-.444-3.974-0.862-5.914-1.291,4.473-.874,8.9-1.494,13.284-2.369,5.166-1.025,10.268-2.278,15.4-3.456a1.176,1.176,0,0,0,.835-0.519c0.19-1.482.292-2.976,0.418-4.419-1.279-.33-2.431-0.633-3.71-0.963,1.785-1.051,3.381-1.989,4.964-2.926-0.052-.114-0.1-0.239-0.153-0.353h-6.786c0-.089-0.013-0.19-0.013-0.28,0.455-.063.925-0.138,1.38-0.215a149.216,149.216,0,0,0,18.527-4.76,1.162,1.162,0,0,0,.986-1.292c-0.013-2.013.138-4.051-.025-6.052a22.568,22.568,0,0,0-3.267-9.877,1.088,1.088,0,0,0-1.545-.6,32.483,32.483,0,0,1-3.633.988c-3.519.806-7.054,1.465-10.6,2.027,0.42,0.3.493,0.615-.156,0.9,0,0,3.928,5.029-2.437,2.379,0,0-.325,3.224-4.084-0.855,0,0-1.628,1.652-2.539-1.2-4.534.5-9.084,0.855-13.647,1.115l-0.145.036c-2.987.72-5.99,1.4-8.9,2.088l-4.066.938a3.5,3.5,0,0,1-.733.089,4.045,4.045,0,0,1-.975-0.128c-0.9-.214-1.787-0.429-2.673-0.644-1.849-.457-3.709-0.912-5.571-1.317q-2.279-.481-4.556-1c-0.182-.011-0.365-0.015-0.547-0.026a0.044,0.044,0,0,0-.038-0.014c-3.913-.226-7.812-0.595-11.725-1.075-1.242-.156-2.48-0.338-3.719-0.511-0.875,3.477-2.67,1.648-2.67,1.648-3.758,4.079-4.085.855-4.085,0.855-6.363,2.65-2.436-2.379-2.436-2.379-1.039-.465-0.233-0.993.906-1.423C28.88,96.693,24.622,95.787,20.4,94.672Zm81.554,2.3c-0.126-.1-0.251-0.2-0.382-0.3-0.3-.229-0.574-0.49-0.876-0.728-0.284-.256-0.571-0.5-0.84-0.761-0.05-.052-0.1-0.1-0.151-0.15-0.2.121-.4,0.233-0.6,0.349,0.091,0.1.171,0.194,0.265,0.293,0.27,0.274.564,0.541,0.856,0.809,0.259,0.205.507,0.411,0.764,0.607C101.311,97.051,101.64,97.014,101.956,96.971Zm-4.551.568a1.656,1.656,0,0,1-.5-0.986c-1.109.526-2.225,0.981-3.321,1.378Q95.518,97.748,97.405,97.538Zm-52.533-1.33q-0.993-.484-1.9-1.007a2.217,2.217,0,0,1-.044,2.022c1.734,0.218,3.5.422,5.308,0.6,0.189,0.019.385,0.034,0.576,0.053-0.048-.019-0.1-0.035-0.146-0.053-1.213-.446-2.326-0.926-3.388-1.427l-0.406-.014C44.87,96.371,44.872,96.307,44.873,96.209Zm-3.124-1.758c-0.168-.108-0.339-0.214-0.5-0.325-0.088.094-.169,0.182-0.257,0.281-0.235.266-.522,0.506-0.781,0.776s-0.557.5-.842,0.761c-0.281.222-.537,0.461-0.814,0.678,0.311,0.047.625,0.092,0.939,0.138,0.114-.094.229-0.182,0.346-0.275,0.293-.269.585-0.536,0.855-0.809s0.534-.559.769-0.846C41.563,94.7,41.649,94.576,41.748,94.451Zm-7.662.295c-0.543-.74-0.08-1.207.724-1.5,0-.048-0.015-0.08-0.014-0.132,0,0-2.909,1.952-4.536,2.036,0.958,0.2,1.955.385,2.953,0.571C33,95.073,34.086,94.746,34.086,94.746Zm0.345,4.875a11.984,11.984,0,0,0,1.813-.752c0.257-.134.543-0.271,0.832-0.451,0.13-.074.269-0.166,0.405-0.246-0.264-.041-0.527-0.088-0.791-0.131-0.231.166-.454,0.332-0.661,0.478-0.472.329-.876,0.606-1.156,0.8S34.432,99.621,34.432,99.621ZM32.094,88.842c-0.444-.023-0.876-0.02-1.3-0.011s-0.828.034-1.207,0.068c-0.393.013-.745,0.069-1.079,0.109a13.766,13.766,0,0,0-2.189.445s0.224-.005.61,0,0.947,0,1.61.007c0.328,0,.687.021,1.068,0.025s0.771,0.028,1.183.044,0.836,0.055,1.262.076,0.861,0.087,1.3.119c0.432,0.055.865,0.1,1.284,0.169,0.422,0.087.845,0.126,1.239,0.22,0.35,0.087.691,0.148,1.015,0.228-0.253-.283-0.5-0.576-0.737-0.872l-0.111-.036c-0.409-.118-0.831-0.2-1.274-0.3S33.886,89,33.438,88.932C32.982,88.9,32.541,88.85,32.094,88.842Zm1.537-33.783a2.068,2.068,0,0,1,.9.171q0.519-1.528.983-3.044A26.2,26.2,0,0,1,33.632,55.059Zm0.694-27.9c-0.372-.059-0.741-0.1-1.1-0.161s-0.7-.113-1.022-0.175-0.633-.115-0.919-0.17c-0.565-.115-1.044-0.215-1.375-0.286s-0.524-.112-0.524-0.112a11.8,11.8,0,0,0,1.8.793c0.275,0.095.571,0.207,0.9,0.291s0.663,0.2,1.025.276,0.729,0.165,1.115.227,0.77,0.106,1.164.161c0.4,0.027.791,0.054,1.175,0.061,0.179,0,.344-0.01.517-0.013,0.064-.075.124-0.152,0.188-0.227l0.357-.423c-0.335.006-.684-0.027-1.038-0.03-0.372-.016-0.751-0.053-1.133-0.082C35.074,27.238,34.7,27.222,34.326,27.161Zm4.809-3.049c-0.03-.185-0.046-0.433-0.111-0.7s-0.148-.56-0.238-0.888-0.241-.662-0.38-1.026-0.346-.723-0.534-1.1-0.427-.741-0.666-1.125-0.505-.738-0.77-1.106c-0.292-.35-0.56-0.707-0.861-1.035s-0.591-.647-0.889-0.947-0.595-.575-0.882-0.826c-0.281-.275-0.565-0.493-0.824-0.705a13.833,13.833,0,0,0-1.834-1.276s0.159,0.16.422,0.441,0.651,0.689,1.105,1.17c0.225,0.24.46,0.513,0.719,0.791s0.513,0.576.784,0.885,0.537,0.643.816,0.967,0.532,0.683.812,1.021c0.258,0.35.522,0.7,0.764,1.045,0.228,0.366.491,0.7,0.695,1.049s0.432,0.684.608,1.012,0.346,0.642.485,0.933,0.262,0.57.373,0.819a5.481,5.481,0,0,1,.208.524c0.067,0.039.136,0.086,0.2,0.131C39.139,24.143,39.137,24.131,39.135,24.112Zm0.094-3.206c-0.016.02-.027,0.039-0.043,0.061a3.429,3.429,0,0,1,.365.322C39.459,21.182,39.351,21.055,39.228,20.906Zm0.683,3.619c-0.035.046-.068,0.091-0.109,0.137,0.028,0.023.053,0.05,0.08,0.074l0.1-.122C39.961,24.583,39.935,24.555,39.911,24.525Zm3.676-6c-0.039-.423-0.093-0.825-0.161-1.22s-0.141-.773-0.223-1.126c-0.066-.361-0.163-0.688-0.247-0.994a12.781,12.781,0,0,0-.72-2s0.036,0.209.082,0.576,0.119,0.884.205,1.507c0.039,0.308.07,0.646,0.115,1s0.075,0.728.113,1.115,0.057,0.789.091,1.194,0.027,0.816.057,1.227c0.005,0.413.015,0.826,0.005,1.226,0,0.043,0,.086,0,0.129l0.193-.228a3.974,3.974,0,0,1,.572-0.537c0-.2.01-0.4,0.01-0.609C43.644,19.364,43.637,18.942,43.587,18.526Zm26.534-3.571c-0.311-.247-0.623-0.5-0.942-0.735-0.441-.329-0.892-0.642-1.332-0.97a1.206,1.206,0,0,0-1.448,0,0.834,0.834,0,0,0-.318.662,0.859,0.859,0,0,1-.219.553c-0.057-.147-0.113-0.284-0.161-0.424a0.448,0.448,0,0,0-.157-0.225,0.322,0.322,0,0,1-.052-0.512,5.73,5.73,0,0,1,.681-0.683c0.015-.013.03-0.025,0.049-0.043A3.086,3.086,0,0,1,66,12.316a0.474,0.474,0,0,0-.384-0.214,2.335,2.335,0,0,0-.7.008,1.01,1.01,0,0,0-.7.511,4.137,4.137,0,0,1-.363.541,0.26,0.26,0,0,0-.042.252,0.525,0.525,0,0,0,.246.306,1.934,1.934,0,0,1,.613.586,0.4,0.4,0,0,0,.151.1l1.145,0.6c0.129,0.067.257,0.134,0.381,0.208a0.583,0.583,0,0,0,.269.059,7.108,7.108,0,0,1,.736.089l1.426-.176,1.615,0C70.306,15.111,70.214,15.028,70.121,14.955Zm8.072-.55a0.363,0.363,0,0,0,.151-0.1,1.941,1.941,0,0,1,.614-0.586,0.527,0.527,0,0,0,.244-0.306,0.259,0.259,0,0,0-.041-0.252,4.276,4.276,0,0,1-.364-0.541,1.006,1.006,0,0,0-.7-0.511A2.325,2.325,0,0,0,77.4,12.1a0.472,0.472,0,0,0-.384.214,3.347,3.347,0,0,1-.222.267c0.019,0.018.034,0.03,0.049,0.043a5.746,5.746,0,0,1,.683.683,0.323,0.323,0,0,1-.052.512,0.443,0.443,0,0,0-.158.225c-0.047.141-.1,0.278-0.161,0.424a0.858,0.858,0,0,1-.218-0.553,0.831,0.831,0,0,0-.319-0.662,1.208,1.208,0,0,0-1.447,0c-0.439.328-.89,0.641-1.332,0.97-0.319.239-.631,0.488-0.944,0.735-0.094.075-.188,0.16-0.286,0.245l0.742,0,0.759,0.089q0.62,0.079,1.236.137a5.853,5.853,0,0,1,1.049-.152,0.573,0.573,0,0,0,.267-0.059c0.124-.073.252-0.141,0.381-0.208Zm16.716-.4c-0.085.306-.181,0.633-0.248,0.994s-0.168.732-.223,1.124-0.12.8-.16,1.22-0.057.837-.09,1.267c0,0.352.006,0.7,0.018,1.041,0.187,0,.378.006,0.561,0.006l0.194,0c0-.339,0-0.681,0-1.026,0.031-.41.02-0.822,0.057-1.227s0.048-.807.093-1.194,0.066-.761.111-1.115,0.076-.694.115-1c0.088-.622.153-1.142,0.205-1.506s0.082-.577.082-0.577A12.852,12.852,0,0,0,94.909,14.007ZM89.866,41.9a5.538,5.538,0,0,0-.278,2.263,1.156,1.156,0,0,0,.885.577,3.476,3.476,0,0,1,1.194.256V24.373C92.08,24.39,92.49,24.4,92.9,24.4V46.157a3.6,3.6,0,0,1,.28,1.049,0.628,0.628,0,0,1-.087.444c-0.062.058-.13,0.117-0.192,0.175v16.26C92.49,64,92.08,63.907,91.669,63.818V48.941l-1,.895A2.719,2.719,0,0,1,89.4,52.853c-0.194.143-.4,0.3-0.6,0.451v9.9c-0.41-.088-0.821-0.175-1.235-0.261V53.863a1.872,1.872,0,0,1-1.56-.676,4,4,0,0,1,.286,1.578,4.214,4.214,0,0,1-1.592,1.72v5.877c-0.413-.081-0.823-0.163-1.234-0.24V56.714A3.77,3.77,0,0,1,81.7,55.053c-0.373,0-.743-0.028-1.105-0.038v6.627c-0.41-.062-0.821-0.121-1.234-0.177V55.125c-0.787.186-1.558,0.537-2.52,0.876L76.5,55.82v5.115a4.492,4.492,0,0,0,.8.449,38.246,38.246,0,0,0-5.9-.5c-1.1,0-2.2.079-3.313,0.189a6.874,6.874,0,0,0,1.621-1.023c0.714-.607,1.011-4.277.415-5.012A3.954,3.954,0,0,0,68.291,53.9v7.052q-0.616.038-1.235,0.09V53.585a1.353,1.353,0,0,0-.864.515,4.368,4.368,0,0,1-2,1.1v6.131c-0.41.052-.821,0.113-1.235,0.172V55.473a7.268,7.268,0,0,1-1.258-.679c-0.447-.209-0.908-0.381-1.53-0.639,0.176-.986.367-1.96,0.511-2.947a0.709,0.709,0,0,0-.224-0.569c-0.119-.023-0.243-0.037-0.365-0.056V61.955c-0.412.072-.822,0.14-1.235,0.215V50.722a1.591,1.591,0,0,1-.629.5,1.648,1.648,0,0,1-1.343-.3,1.387,1.387,0,0,0-.895-0.879V62.724l-1.235.249V50.16l-0.235.066c-0.512.139-.841,0.345-0.868-0.446a0.5,0.5,0,0,0-.046-0.214c-1.361-.027-0.867-1.733-1.718-2.173V63.572l-1.235.259V24.364c-0.955.028-1.911,0.013-2.867,0.024V64.425q-0.617.127-1.234,0.248V24.84c0.018-.021.037-0.042,0.053-0.062a1.091,1.091,0,0,1,.685-0.388c0.15,0,.3,0,0.449,0-0.157,0-.314,0-0.471,0a1.1,1.1,0,0,0-.685.388c-1.653,1.931-3.288,3.879-4.927,5.821-0.774.915-1.56,1.82-2.3,2.758v1.286c0.526,1.692,1.087,3.372,1.613,5.061a16.353,16.353,0,0,1,.386,7.763C40.509,52.382,38.69,57,37.076,61.677a29.961,29.961,0,0,0-1.749,7.333c-0.024.291-.042,0.584-0.051,0.878-0.005.158-.111,1.271-0.111,1.671v1.227c0,0.456.1,2,.148,2.321,0.1,0.68.207,1.359,0.329,2.035a20.138,20.138,0,0,0,3.829,8.247c3.072,4.221,7.39,6.536,12.166,8.206a94.857,94.857,0,0,0,11.445,2.95c2.607,0.559,5.192,1.233,7.791,1.85a1.67,1.67,0,0,0,.378.047,0.675,0.675,0,0,0,.147-0.005c4.96-1.157,9.931-2.278,14.874-3.51a36.452,36.452,0,0,0,10.706-4.176,20.863,20.863,0,0,0,9.87-14.144c0.1-.512.17-1.029,0.242-1.545,0.042-.3.127-1.492,0.127-1.782V71.6c0-.414-0.09-2-0.137-2.376-0.064-.526-0.128-1.05-0.2-1.573a33.536,33.536,0,0,0-1.672-6.257v4.756c-0.41-.039-0.823-0.087-1.235-0.133V57.9a59.933,59.933,0,0,1-2.415-8.006c-0.177-.85-0.323-1.71-0.451-2.572V65.635c-0.412-.061-0.823-0.122-1.234-0.191V29.58Q98.436,27.871,97,26.159V64.924c-0.41-.08-0.823-0.16-1.235-0.243V24.736a1.55,1.55,0,0,0-1.14-.341,34.345,34.345,0,0,1-5.966-.308c0.046,0.007.091,0.017,0.137,0.024V40.23a5.443,5.443,0,0,0,.823.562C90.124,41.109,90.113,41.315,89.866,41.9ZM87.911,23.955a18,18,0,0,1-3.211-.907v9.857c0.433,0.245.982,0.3,1.41,0.557,0.27,2.189.334,2.315,1.036,2.572l0.42,0.8V23.894C87.681,23.918,87.8,23.933,87.911,23.955Zm-4.445,7.594V22.525A20.525,20.525,0,0,0,80.6,21.458V31.4A6.331,6.331,0,0,1,83.465,31.548Zm-4.1.323V21.134a28,28,0,0,0-2.866-.528v8.3c0.7,0.592,1.054,1.683,1.689,2.391A2.1,2.1,0,0,0,79.362,31.872ZM74.921,55a5.694,5.694,0,0,0,.341,4.579v-4.4Zm0.341-26.49V20.46c-0.042,0-.083-0.011-0.125-0.015-0.725-.062-1.447-0.161-2.171-0.241H72.393v7.141c0.7,0.366,1.461.761,2.235,1.161a0.339,0.339,0,0,0,.213.036A2.312,2.312,0,0,1,75.262,28.511Zm-23.254,14.2a3.441,3.441,0,0,1,1.172-1.06A11.315,11.315,0,0,0,54.507,40.5c-0.053-.11-0.1-0.22-0.157-0.332l0.4,0.061V23.932q0.623-.122,1.235-0.29V38.324a1.718,1.718,0,0,1,.918-0.848c-0.319-1.311-.2-1.435.9-1.185a3.91,3.91,0,0,0,1.047-.035V36.13c-0.175-.343-0.313-0.617-0.476-0.932a2.019,2.019,0,0,0,.476-0.109V22.6c0.411-.163.82-0.328,1.235-0.477v12.37a1.322,1.322,0,0,1,1.828.368,7.848,7.848,0,0,1,.24-2.517,8.227,8.227,0,0,1,.8-1.564V21.238c0.411-.109.819-0.227,1.235-0.318V30a2.537,2.537,0,0,0,1-.639,2.043,2.043,0,0,1,1.872-.818v-8.1l1.235-.161v8.534c0.669,0.214,1.591.523,2.112-.688a1.608,1.608,0,0,1,.757-0.641V20.2H68.928q-1.293.17-2.587,0.336a32.74,32.74,0,0,0-8.594,2.493,19.181,19.181,0,0,1-6.579,1.321c-0.053,0-.106,0-0.16,0,0.061,0,.122,0,0.182,0,0.233-.013.462-0.037,0.694-0.055V42.938A2.568,2.568,0,0,1,52.007,42.711Zm-0.123,2.177v2.3c0.268-.605.507-1.146,0.738-1.672A1.707,1.707,0,0,1,51.885,44.888Zm14.906,7.742,0.266,0.054v-0.4Zm1.5-.571v0.875L70.621,53.4c-0.12-.7-0.219-1.274-0.348-2.036C69.521,51.871,68.89,52.394,68.291,52.058Zm33.968-14.83c0.38-1.022.681-2.075,0.964-3.126a0.956,0.956,0,0,0-.185-0.745c-0.641-.77-1.287-1.536-1.932-2.3v9.772A30.748,30.748,0,0,1,102.259,37.228Zm-3.029-9.4c-0.034-.084-0.072-0.152-0.1-0.246l-0.078.029Zm-1.519-4.2c-0.355.431-.718,0.833-1.03,1.158L96.7,24.819c0.31-.337.688-0.721,1.09-1.087Zm0.925-3.908c-0.124.149-.231,0.276-0.322,0.382a3.444,3.444,0,0,1,.366-0.322C98.662,19.764,98.653,19.746,98.636,19.725Zm-0.408,6.406c-0.173-.027-0.324-0.045-0.478-0.064l0.392,0.467,0.008,0c0.288,0.082.607,0.134,0.942,0.2s0.693,0.085,1.067.122c0.084,0.006.175,0,.26,0.006q-0.27-.322-0.541-0.646c-0.249,0-.5,0-0.731-0.015C98.826,26.17,98.514,26.164,98.228,26.131Zm5.46-10.65c0.272-.309.529-0.61,0.783-0.886s0.495-.551.721-0.791c0.455-.48.833-0.885,1.105-1.169s0.421-.442.421-0.442a13.814,13.814,0,0,0-1.834,1.278c-0.259.213-.543,0.43-0.823,0.7-0.286.252-.594,0.523-0.882,0.827s-0.6.609-.888,0.947-0.57.684-.861,1.033c-0.265.369-.532,0.737-0.771,1.107s-0.468.747-.666,1.124-0.39.737-.534,1.1c-0.078.206-.143,0.39-0.215,0.582,0.081,0.084.171,0.15,0.248,0.243l0.128,0.152c0.12-.232.248-0.465,0.374-0.72,0.176-.328.406-0.655,0.609-1.012s0.467-.682.694-1.048c0.243-.347.5-0.7,0.765-1.045,0.279-.338.529-0.694,0.811-1.021S103.41,15.785,103.688,15.481Zm2.093,10.681c0.327-.084.625-0.2,0.9-0.29a11.966,11.966,0,0,0,1.795-.793s-0.187.043-.524,0.111-0.81.17-1.375,0.285c-0.286.054-.595,0.106-0.919,0.169s-0.667.117-1.022,0.176-0.711.1-1.074,0.158c0.168,0.2.334,0.4,0.5,0.6,0.233-.046.47-0.088,0.693-0.142C105.117,26.361,105.459,26.258,105.781,26.161Zm3.333,44.781c-0.113-.949-0.215-1.9-0.353-2.849a37.088,37.088,0,0,0-1.927-7.078,91.6,91.6,0,0,1-3.67-11.612,40.9,40.9,0,0,1-.835-6.078,18.046,18.046,0,0,1,1.57-7.269,33.737,33.737,0,0,0,1.011-3.279,1.018,1.018,0,0,0-.191-0.785q-1.149-1.38-2.308-2.753a2.083,2.083,0,0,1-1.788.252q1.455,1.728,2.9,3.46a1.572,1.572,0,0,1,.311,1.315c-0.28,1.031-.591,2.127-0.985,3.182a16.694,16.694,0,0,0-1.454,6.647,38.646,38.646,0,0,0,.779,5.671,65.347,65.347,0,0,0,2.686,8.752c0.262,0.733.527,1.467,0.784,2.2a35.9,35.9,0,0,1,1.857,6.84c0.072,0.495.134,0.99,0.194,1.487l0.073,0.615,0.078,1.916,0,1.682-0.109,1.721c-0.08.583-.158,1.167-0.27,1.745A21.506,21.506,0,0,1,97.315,91.288a37.616,37.616,0,0,1-10.888,4.256c-3.7.923-7.486,1.8-11.142,2.644l-3.74.867a1.294,1.294,0,0,1-.291.032,2.219,2.219,0,0,1-.53-0.076q-1.32-.314-2.65-0.643c-1.7-.417-3.408-0.835-5.122-1.2a95.434,95.434,0,0,1-11.52-2.973c-5.876-2.053-9.721-4.652-12.47-8.43a20.586,20.586,0,0,1-3.939-8.507c-0.1-.571-0.194-1.146-0.282-1.72-0.017-.111-0.034-0.222-0.051-0.334l-0.149-1.8,0-.576,0-1.264L34.6,70.03a1.421,1.421,0,0,0,.044-0.162q0.011-.414.044-0.823a30.457,30.457,0,0,1,1.788-7.574q0.418-1.208.846-2.413a71.8,71.8,0,0,0,3.4-11.7,15.647,15.647,0,0,0-.366-7.467c-0.262-.838-0.532-1.676-0.8-2.511-0.335-1.029-.669-2.06-0.984-3.095a1.572,1.572,0,0,1,.272-1.315c0.583-.731,1.184-1.439,1.784-2.146L42.084,29.1c1.333-1.582,2.668-3.167,4.017-4.738a1.7,1.7,0,0,1,1.145-.608c0.328-.01.656-0.014,0.982-0.014l1.518,0.007c0.465,0,.927-0.006,1.389-0.03A18.29,18.29,0,0,0,57.5,22.45a32.956,32.956,0,0,1,8.76-2.538l2.586-.337,4.12-.005,0.769,0.086c0.485,0.058.97,0.116,1.457,0.159A24.784,24.784,0,0,1,83.9,22.02a21.442,21.442,0,0,0,9.457,1.756c0.418,0,.838-0.006,1.261-0.015h0.01a2.417,2.417,0,0,1,1.277.3L95.3,23.34c-0.015-.069-0.024-0.125-0.042-0.2-0.033-.179-0.06-0.383-0.087-0.579-3.736.035-7.416-.249-10.883-1.905a25.674,25.674,0,0,0-8.941-2.266c-0.76-.064-1.519-0.165-2.292-0.253H68.81c-0.911.114-1.822,0.241-2.721,0.354a34.69,34.69,0,0,0-9.054,2.621,19.93,19.93,0,0,1-6.926,1.393c-1.368.076-2.735,0-4.1,0.038a1.189,1.189,0,0,0-.723.406c-1.747,2.038-3.468,4.09-5.191,6.128-0.81.962-1.646,1.925-2.431,2.912a1.027,1.027,0,0,0-.178.785c0.609,1.963,1.266,3.925,1.886,5.887a17.346,17.346,0,0,1,.407,8.18c-0.887,5.166-2.8,10.03-4.5,14.956a31.569,31.569,0,0,0-1.845,7.7c-0.026.315-.045,0.631-0.055,0.95,0,0.164-.114,1.864-0.114,1.864s0.091,3.21.137,3.5c0.116,0.756.233,1.512,0.368,2.267,0.051,0.276.107,0.547,0.169,0.815A21.709,21.709,0,0,0,37.8,86.757c3.23,4.445,7.776,6.889,12.8,8.649a101.421,101.421,0,0,0,12.054,3.1c0.444,0.1.9,0.2,1.343,0.3,2.291,0.52,4.571,1.1,6.863,1.647,0.062,0.013.129,0.023,0.2,0.033,0.152,0,.3-0.014.457-0.021q3.515-.821,7.019-1.62c2.849-.658,5.7-1.329,8.535-2.039A38.749,38.749,0,0,0,98.339,92.4a21.968,21.968,0,0,0,10.394-14.891c0.166-.848.255-1.722,0.381-2.583V70.942Zm-1.142,17.9c-0.426.007-.848,0.055-1.281,0.086-0.238.3-.462,0.605-0.715,0.894,0.245-.032.488-0.066,0.737-0.1,0.438-.031.865-0.1,1.3-0.119s0.851-.066,1.261-0.076,0.807-.037,1.183-0.044,0.742-.023,1.071-0.025c0.66,0,1.217-.007,1.607-0.007s0.612,0,.612,0a13.8,13.8,0,0,0-2.19-.445c-0.334-.04-0.687-0.1-1.078-0.109-0.38-.034-0.79-0.068-1.207-0.068S108.418,88.819,107.972,88.842ZM112.9,50.028c-0.02-.517-0.077-1.014-0.132-1.485-0.036-.474-0.128-0.914-0.192-1.32a16.521,16.521,0,0,0-.672-2.676s0.006,0.277.024,0.754,0.022,1.155.052,1.974c0,0.4,0,.842,0,1.306s0,0.955-.016,1.464c0,0.5-.044,1.022-0.054,1.552s-0.076,1.06-.108,1.6c-0.05.53-.1,1.067-0.173,1.587-0.1.516-.137,1.034-0.241,1.525-0.122.485-.177,0.973-0.306,1.415s-0.22.87-.341,1.26c-0.106.276-.183,0.526-0.262,0.775,0.309-.285.633-0.57,0.954-0.855,0.136-.3.264-0.623,0.4-0.965a13.7,13.7,0,0,0,.465-1.443c0.143-.5.238-1.034,0.347-1.573,0.078-.54.148-1.09,0.21-1.644,0.029-.552.073-1.105,0.081-1.649S112.93,50.545,112.9,50.028Zm-0.938,12.543c-0.032,0-.056.013-0.086,0.017-0.131.126-.255,0.251-0.384,0.375,0.156-.009.322-0.014,0.505-0.008,0.346,0.023.737,0.033,1.155,0.042s0.883,0.09,1.352.115,0.983,0.153,1.507.215,1.041,0.215,1.591.3c0.535,0.116,1.075.26,1.632,0.394,0.534,0.147,1.08.274,1.6,0.445s1.056,0.3,1.554.481c0.5,0.161.984,0.322,1.434,0.481,0.468,0.163.9,0.31,1.3,0.455,0.8,0.294,1.469.544,1.939,0.719s0.727,0.273.727,0.273a18.208,18.208,0,0,0-2.414-1.515c-0.376-.191-0.776-0.421-1.233-0.62-0.44-.2-0.915-0.43-1.422-0.623s-1.022-.395-1.569-0.576-1.095-.329-1.647-0.49c-0.566-.134-1.132-0.261-1.693-0.372-0.575-.094-1.129-0.182-1.683-0.233-0.535-.032-1.065-0.1-1.577-0.077s-0.972.006-1.4,0.056S112.312,62.524,111.963,62.572ZM133.1,43.1c-0.391.17-.822,0.341-1.259,0.573-0.443.211-.915,0.441-1.375,0.709s-0.947.538-1.425,0.848c-0.482.294-.933,0.637-1.409,0.959-0.45.36-.9,0.713-1.321,1.077-0.42.383-.829,0.745-1.2,1.133s-0.724.76-1.019,1.155c-0.262.356-.517,0.688-0.732,1.014,0.6-.329,1.193-0.662,1.813-0.985,0.2-.181.4-0.362,0.6-0.558,0.366-.36.8-0.673,1.207-1.033,0.415-.339.855-0.671,1.293-1.008,0.459-.312.883-0.66,1.344-0.957s0.89-.622,1.334-0.9,0.864-.56,1.272-0.807,0.8-.5,1.157-0.718c0.725-.427,1.336-0.789,1.761-1.037s0.675-.394.675-0.394A18.392,18.392,0,0,0,133.1,43.1Zm-36.8,27.031a11.4,11.4,0,0,1,2.876-1.476,6.494,6.494,0,0,1,4.741.324c0.1,0.742.191,1.484,0.279,2.227v0.569c-0.178-.113-0.353-0.229-0.531-0.338a4.781,4.781,0,0,0-5.54.28,8.738,8.738,0,0,1-3.2,1.5,6.134,6.134,0,0,1-4.36-.8c-0.569-.324-1.1-0.7-1.666-1.027a4.612,4.612,0,0,0-4.9-.018c-0.624.353-1.208,0.777-1.836,1.121a6.177,6.177,0,0,1-6.6-.261c-0.413-.252-0.81-0.528-1.22-0.775a4.644,4.644,0,0,0-5.038-.077c-0.508.3-.989,0.636-1.49,0.935a6.288,6.288,0,0,1-7.078-.169c-0.329-.212-0.652-0.435-0.984-0.64a4.8,4.8,0,0,0-5.611.16,10.3,10.3,0,0,1-2.658,1.386,5.958,5.958,0,0,1-4.761-.527c-0.551-.3-1.069-0.648-1.6-0.983a4.8,4.8,0,0,0-5.613.089c-0.432.288-.865,0.569-1.317,0.814V71.2a2.09,2.09,0,0,0,.1-0.432c0.014-.4.067-0.791,0.108-1.185a7.423,7.423,0,0,1,4.343-1.228,7.984,7.984,0,0,1,3.792,1.33,17.013,17.013,0,0,0,1.58.936,4.122,4.122,0,0,0,4.271-.571,13.989,13.989,0,0,1,2.148-1.188,6.746,6.746,0,0,1,6.226.55c0.541,0.313,1.055.677,1.594,0.99a3.841,3.841,0,0,0,4.085.014c0.564-.327,1.1-0.7,1.664-1.028a7.073,7.073,0,0,1,4.152-1.019,8.241,8.241,0,0,1,3.935,1.5,12.274,12.274,0,0,0,1.137.684,3.827,3.827,0,0,0,3.91-.2c0.482-.286.942-0.609,1.425-0.893a7.084,7.084,0,0,1,8.148.374,6.29,6.29,0,0,0,2.353,1.108A4.217,4.217,0,0,0,96.294,70.127ZM42.447,29.685q0.617-.729,1.234-1.458V65.21q-0.617.11-1.234,0.216V29.685Zm-4.1,28.441c0.425-1.21.842-2.422,1.235-3.643V65.858c-0.413.055-.822,0.1-1.235,0.144V58.126Zm8.191,16.64a17.021,17.021,0,0,0,1.58.934,4.119,4.119,0,0,0,4.271-.57,13.988,13.988,0,0,1,2.148-1.189,6.743,6.743,0,0,1,6.226.552c0.541,0.31,1.055.674,1.594,0.989a3.835,3.835,0,0,0,4.085.013c0.564-.324,1.1-0.7,1.664-1.027a7.077,7.077,0,0,1,4.152-1.019,8.233,8.233,0,0,1,3.935,1.5,11.939,11.939,0,0,0,1.137.682,3.823,3.823,0,0,0,3.91-.2c0.482-.286.942-0.609,1.425-0.894a7.082,7.082,0,0,1,8.148.376,6.313,6.313,0,0,0,2.353,1.108,4.221,4.221,0,0,0,3.131-.819A11.392,11.392,0,0,1,99.17,73.73a6.5,6.5,0,0,1,4.8.343c0.078,0.035.151,0.081,0.225,0.118v0.485c-0.1.664-.18,1.328-0.3,1.988-0.078-.05-0.158-0.1-0.236-0.151a4.778,4.778,0,0,0-5.54.278,8.7,8.7,0,0,1-3.2,1.5,6.124,6.124,0,0,1-4.36-.8c-0.569-.322-1.1-0.7-1.666-1.026a4.614,4.614,0,0,0-4.9-.019c-0.624.355-1.208,0.777-1.836,1.12a6.168,6.168,0,0,1-6.6-.26c-0.413-.252-0.81-0.528-1.22-0.776a4.645,4.645,0,0,0-5.038-.076c-0.508.3-.989,0.634-1.49,0.934a6.287,6.287,0,0,1-7.078-.168c-0.329-.21-0.652-0.433-0.984-0.638a4.8,4.8,0,0,0-5.611.159,10.361,10.361,0,0,1-2.658,1.386,5.96,5.96,0,0,1-4.761-.528c-0.551-.295-1.069-0.648-1.6-0.981a4.8,4.8,0,0,0-5.613.09c-0.3.2-.6,0.386-0.9,0.569-0.146-.83-0.269-1.669-0.4-2.5a7.549,7.549,0,0,1,4.535-1.345A7.942,7.942,0,0,1,46.536,74.766Zm0,5.079a17.082,17.082,0,0,0,1.58.936,4.125,4.125,0,0,0,4.271-.571,14.108,14.108,0,0,1,2.148-1.189,6.745,6.745,0,0,1,6.226.551c0.541,0.313,1.055.677,1.594,0.991a3.842,3.842,0,0,0,4.085.013c0.564-.327,1.1-0.7,1.664-1.029a7.078,7.078,0,0,1,4.152-1.019,8.256,8.256,0,0,1,3.935,1.5,12.03,12.03,0,0,0,1.137.685,3.826,3.826,0,0,0,3.91-.2c0.482-.286.942-0.609,1.425-0.893a7.082,7.082,0,0,1,8.148.374A6.307,6.307,0,0,0,93.163,81.1a4.217,4.217,0,0,0,3.131-.818,11.4,11.4,0,0,1,2.876-1.475,6.451,6.451,0,0,1,4.192.121,19.3,19.3,0,0,1-.8,2.167,4.821,4.821,0,0,0-4.447.774,8.73,8.73,0,0,1-3.2,1.5,6.142,6.142,0,0,1-4.36-.795c-0.569-.323-1.1-0.7-1.666-1.027a4.615,4.615,0,0,0-4.9-.019c-0.624.355-1.208,0.779-1.836,1.122a6.172,6.172,0,0,1-6.6-.261c-0.413-.252-0.81-0.528-1.22-0.775a4.645,4.645,0,0,0-5.038-.077c-0.508.3-.989,0.635-1.49,0.934a6.285,6.285,0,0,1-7.078-.168c-0.329-.211-0.652-0.433-0.984-0.639a4.8,4.8,0,0,0-5.611.158,10.285,10.285,0,0,1-2.658,1.388,5.959,5.959,0,0,1-4.761-.527c-0.551-.3-1.069-0.648-1.6-0.982a4.735,4.735,0,0,0-5.113-.2,16.358,16.358,0,0,1-.887-2.164,7,7,0,0,1,3.622-.821A7.972,7.972,0,0,1,46.536,79.845Zm0,5.079a16.636,16.636,0,0,0,1.58.934,4.119,4.119,0,0,0,4.271-.57A13.912,13.912,0,0,1,54.535,84.1a6.745,6.745,0,0,1,6.225.551c0.542,0.313,1.055.676,1.6,0.99a3.84,3.84,0,0,0,4.084.013c0.566-.324,1.1-0.7,1.665-1.027a7.07,7.07,0,0,1,4.151-1.019,8.244,8.244,0,0,1,3.934,1.5,11.8,11.8,0,0,0,1.137.682,3.82,3.82,0,0,0,3.91-.2c0.482-.285.944-0.606,1.424-0.893a7.083,7.083,0,0,1,8.15.375,6.235,6.235,0,0,0,2.352,1.107,4.21,4.21,0,0,0,3.131-.817,11.418,11.418,0,0,1,2.876-1.477,6.676,6.676,0,0,1,2.049-.277,18.544,18.544,0,0,1-2.2,2.826,6.931,6.931,0,0,0-.9.513,8.7,8.7,0,0,1-3.195,1.5,6.129,6.129,0,0,1-4.36-.8c-0.569-.322-1.1-0.7-1.668-1.026a4.614,4.614,0,0,0-4.9-.019c-0.623.355-1.207,0.778-1.835,1.121a6.168,6.168,0,0,1-6.6-.26c-0.413-.252-0.812-0.528-1.222-0.776a4.651,4.651,0,0,0-5.037-.078c-0.507.3-.987,0.636-1.49,0.935a6.287,6.287,0,0,1-7.078-.167c-0.328-.212-0.651-0.433-0.984-0.641a4.8,4.8,0,0,0-5.611.161,10.312,10.312,0,0,1-2.657,1.387,5.954,5.954,0,0,1-4.762-.529c-0.549-.294-1.069-0.647-1.6-0.98a5.407,5.407,0,0,0-2.183-.822c-0.274-.322-0.547-0.642-0.8-0.992-0.306-.421-0.595-0.849-0.876-1.28a6.292,6.292,0,0,1,1.483-.094A7.973,7.973,0,0,1,46.537,84.923Zm8,4.254a6.744,6.744,0,0,1,6.225.551c0.541,0.312,1.055.677,1.594,0.99a3.839,3.839,0,0,0,4.085.013c0.565-.325,1.1-0.7,1.664-1.027a7.064,7.064,0,0,1,4.152-1.019,8.262,8.262,0,0,1,3.934,1.5,11.941,11.941,0,0,0,1.137.685,3.827,3.827,0,0,0,3.91-.2c0.482-.286.942-0.608,1.425-0.893a7.083,7.083,0,0,1,8.149.373,7.492,7.492,0,0,0,1.781.953,29.437,29.437,0,0,1-2.785,1.17c-0.3-.193-0.6-0.385-0.911-0.565A4.61,4.61,0,0,0,84,91.69c-0.623.352-1.207,0.776-1.835,1.121a6.174,6.174,0,0,1-6.6-.262c-0.414-.252-0.812-0.527-1.222-0.775A4.64,4.64,0,0,0,69.3,91.7c-0.508.294-.989,0.634-1.491,0.933a6.284,6.284,0,0,1-7.078-.17c-0.329-.21-0.652-0.433-0.984-0.638a4.8,4.8,0,0,0-5.611.158c-0.267.181-.538,0.353-0.813,0.518-0.015-.007-0.031-0.008-0.047-0.014-1.05-.367-2.072-0.771-3.062-1.221a5.608,5.608,0,0,0,2.169-.9A13.848,13.848,0,0,1,54.536,89.177ZM35.759,106.211q-0.559.108-1.121,0.209a3.442,3.442,0,0,0-.471-1.093,1.751,1.751,0,0,0-.714-0.625,3.744,3.744,0,0,0-.99-0.291c-0.414-.07-0.827-0.139-1.24-0.211q-0.173.993-.344,1.984c0.137,0.026.272,0.048,0.41,0.071a1.873,1.873,0,0,0,.637.039,0.436,0.436,0,0,0,.267-0.164,1.47,1.47,0,0,0,.163-0.547c0.016-.1.033-0.2,0.051-0.3l1.039,0.168q-0.273,1.691-.549,3.377l-1.056-.172c0.019-.116.039-0.232,0.058-0.344a1.164,1.164,0,0,0,0-.527,0.46,0.46,0,0,0-.2-0.257,2.384,2.384,0,0,0-.645-0.167l-0.372-.064c-0.106.611-.211,1.219-0.318,1.83a1.222,1.222,0,0,0-.031.36,0.206,0.206,0,0,0,.1.116,1.32,1.32,0,0,0,.367.1c0.232,0.039.465,0.077,0.7,0.118a3.592,3.592,0,0,0,1.355,0,2.528,2.528,0,0,0,1.068-.545,3.338,3.338,0,0,0,.822-1.039l1.027,0.526q-0.765,1.4-1.546,2.8-3.624-.562-7.233-1.23,0.1-.549.206-1.1l0.208,0.037a1.767,1.767,0,0,0,.57.046,0.359,0.359,0,0,0,.239-0.162,2.189,2.189,0,0,0,.118-0.479q0.395-2.163.791-4.328a1.335,1.335,0,0,0,.034-0.47,0.336,0.336,0,0,0-.124-0.188,1.043,1.043,0,0,0-.4-0.131l-0.36-.067c0.068-.366.138-0.732,0.205-1.1q3.366,0.626,6.743,1.149C35.4,104.435,35.575,105.325,35.759,106.211Zm-11.083-2.876a2.8,2.8,0,0,0-1.4-.643l-1.232-.261c-0.136.622-.269,1.245-0.4,1.867q0.929,0.2,1.858.388a3.434,3.434,0,0,1,2.083,1.131,2.207,2.207,0,0,1,.475,1.869,2.283,2.283,0,0,1-1.066,1.523,3.417,3.417,0,0,1-2.554.236q-2.439-.5-4.872-1.055c0.082-.363.166-0.728,0.25-1.09l0.4,0.091a0.652,0.652,0,0,0,.53-0.019,1.114,1.114,0,0,0,.221-0.543q0.486-2.166.974-4.331a0.881,0.881,0,0,0,0-.568,0.863,0.863,0,0,0-.55-0.261c-0.09-.02-0.182-0.042-0.274-0.061l0.251-1.09q3.343,0.762,6.7,1.421,0.21,1.343.43,2.684-0.564.084-1.129,0.164A2.789,2.789,0,0,0,24.676,103.335Zm-3.784,4.442c0.465,0.1.928,0.2,1.393,0.294a1.524,1.524,0,0,0,1.148-.1,1.136,1.136,0,0,0,.4-1.441,1.179,1.179,0,0,0-.449-0.473,3.018,3.018,0,0,0-.84-0.275l-1.169-.246Q21.135,106.656,20.892,107.777ZM36.71,122.994a0.815,0.815,0,0,0,.91-0.48q1.071-2.112,2.114-4.234a0.934,0.934,0,0,0,.1-0.277q0.061-.48-0.671-0.574l-0.381-.051c0.048-.367.1-0.737,0.147-1.106q3.817,0.5,7.647.884-0.055.556-.111,1.112c-0.115-.013-0.23-0.023-0.347-0.035a0.871,0.871,0,0,0-.583.063,0.957,0.957,0,0,0-.181.586q-0.23,2.173-.456,4.35a0.939,0.939,0,0,0,.063.633,1.148,1.148,0,0,0,.66.187c0.085,0.009.168,0.017,0.253,0.024,0.233,0.822.468,1.64,0.705,2.461l-1.2.26a3.146,3.146,0,0,0-.739-1.249,2.814,2.814,0,0,0-1.739-.661q-1.912-.213-3.823-0.455a2.829,2.829,0,0,0-1.84.233,3.208,3.208,0,0,0-1.022,1.041c-0.366-.176-0.732-0.355-1.1-0.532q0.64-1.11,1.268-2.225Zm3,0.245q1.472,0.184,2.948.352l0.627-5.515q-0.932-.106-1.864-0.218-1.091,2.4-2.21,4.787a0.732,0.732,0,0,0-.073.22C39.114,123.064,39.3,123.189,39.712,123.239Zm8.879-4.687a1.6,1.6,0,0,0-.619-0.139c0.036-.369.07-0.74,0.105-1.112q2.125,0.2,4.256.359c-0.028.374-.056,0.743-0.085,1.114-0.171-.013-0.341-0.026-0.512-0.037-0.214-.018-0.326.048-0.34,0.193a0.9,0.9,0,0,0,.151.465q0.609,1.053,1.232,2.1,0.6-.993,1.191-1.988a1.333,1.333,0,0,0,.2-0.416c0.007-.119-0.124-0.188-0.395-0.206-0.144-.01-0.288-0.02-0.43-0.032q0.04-.556.08-1.114,1.744,0.128,3.486.224c-0.02.372-.042,0.745-0.063,1.116l-0.16-.009-0.154-.014a0.9,0.9,0,0,0-.856.5q-1.529,2.469-3.111,4.918a2.581,2.581,0,0,1-2.524,1.307,2.1,2.1,0,0,1-1.148-.416,0.985,0.985,0,0,1-.412-0.9,0.853,0.853,0,0,1,.337-0.623,0.888,0.888,0,0,1,.625-0.2,1.139,1.139,0,0,1,.818.482,0.463,0.463,0,0,0,.313.206,0.529,0.529,0,0,0,.383-0.106,2.228,2.228,0,0,0,.412-0.552c0.067-.113.132-0.227,0.2-0.337q-1.318-2.131-2.587-4.275A1.5,1.5,0,0,0,48.591,118.552Zm9.385,6.437a0.693,0.693,0,0,0,.542-0.108,1.046,1.046,0,0,0,.13-0.57q0.108-2.217.217-4.435a0.854,0.854,0,0,0-.1-0.56,0.924,0.924,0,0,0-.615-0.164l-0.291-.017c0.019-.37.039-0.743,0.059-1.115q3.582,0.189,7.169.273,0.46,1.288.93,2.572l-1.135.354A2.831,2.831,0,0,0,63.9,119.9a3.11,3.11,0,0,0-1.559-.4c-0.439-.015-0.879-0.03-1.318-0.049q-0.04.952-.077,1.909c0.662,0.027,1.322.05,1.984,0.07a3.715,3.715,0,0,1,2.352.765,2.171,2.171,0,0,1,.826,1.759,2.233,2.233,0,0,1-.825,1.682,3.67,3.67,0,0,1-2.588.663q-2.6-.084-5.207-0.222c0.02-.371.04-0.743,0.061-1.114C57.691,124.976,57.834,124.982,57.976,124.989Zm4.317-.013a1.644,1.644,0,0,0,1.165-.3,1.1,1.1,0,0,0,.151-1.487,1.213,1.213,0,0,0-.548-0.391,3.355,3.355,0,0,0-.916-0.13c-0.415-.014-0.832-0.028-1.247-0.046-0.03.765-.061,1.531-0.093,2.294Q61.55,124.952,62.293,124.976Zm0.124,7.388c1.078-1.147,2.111-.067,3.138.312a2.256,2.256,0,0,1,.7-0.994,2.949,2.949,0,0,1,1.365.453c0.453,0.2.883,0.463,1.323,0.7,0.7-1.287.745-1.488,4.517-.127-1.348,1.29-3.211,1.639-7.452,1.606,0.64,0.168,1.271.392,1.922,0.5a11.038,11.038,0,0,0,8.408-1.974c0.361-.252.8-0.771,1.137-0.119a1.2,1.2,0,0,1-.383,1.1,4.3,4.3,0,0,0-1.949,2.9,2.839,2.839,0,0,1-1.974,2.126c-1.065.344-1.565,0.113-1.927-.7a14.441,14.441,0,0,1-2.938,1.393c-1.8.413-2.239-.025-2.347-1.836-3.7-.391-4.279-0.875-3.08-2.627C62.359,134.23,61.513,133.329,62.417,132.364Zm16.79-7.213a3.766,3.766,0,0,0,.6,0c0.013,0.372.028,0.746,0.04,1.117-1.146.042-2.291,0.073-3.435,0.1-0.008-.372-0.018-0.745-0.025-1.116a1.643,1.643,0,0,0,.48-0.063,0.624,0.624,0,0,0,.247-0.163,1.454,1.454,0,0,0,.207-0.393q1.276-3.213,2.486-6.443c0.643-.024,1.287-0.048,1.93-0.08q1.429,3.061,2.922,6.1a1.572,1.572,0,0,0,.418.592,1.142,1.142,0,0,0,.624.073c0.022,0.371.045,0.743,0.066,1.116q-2.1.124-4.2,0.212c-0.015-.371-0.032-0.743-0.047-1.115,0.084-.005.168-0.01,0.252-0.017a1.03,1.03,0,0,0,.485-0.1,0.237,0.237,0,0,0,.128-0.211,1.626,1.626,0,0,0-.138-0.422l-0.3-.723c-0.89.039-1.782,0.076-2.669,0.105l-0.3.827a1.2,1.2,0,0,0-.089.343,0.238,0.238,0,0,0,.076.166A0.453,0.453,0,0,0,79.207,125.151Zm2.23-2.672c-0.312-.727-0.626-1.454-0.932-2.181q-0.4,1.127-.8,2.249C80.282,122.526,80.858,122.5,81.437,122.479Zm4.333-14.791a3.951,3.951,0,0,1,1.377-1.58,4.519,4.519,0,0,1,4.113-.373c0.055-.122.106-0.242,0.161-0.362,0.275-.027.552-0.051,0.828-0.076q0.535,1.407,1.079,2.811c-0.356.138-.712,0.277-1.071,0.412a5.519,5.519,0,0,0-1.162-1.37,2.166,2.166,0,0,0-1.5-.472,1.974,1.974,0,0,0-1.041.395,2.152,2.152,0,0,0-.721.977,3.243,3.243,0,0,0-.19,1.442,3.413,3.413,0,0,0,.836,2.085,2.126,2.126,0,0,0,1.855.755,2.586,2.586,0,0,0,1.318-.5,4.6,4.6,0,0,0,1.276-1.41q0.492,0.287.989,0.573a6.648,6.648,0,0,1-1.5,1.81,4.728,4.728,0,0,1-2.533.941,4.209,4.209,0,0,1-2.19-.383,4,4,0,0,1-1.635-1.425A4.324,4.324,0,0,1,85.77,107.688Zm7.311,9.9a2.177,2.177,0,0,1,1.048.61,1.635,1.635,0,0,1,.442.972,1.611,1.611,0,0,1-.108.773,1.934,1.934,0,0,1-.468.682,2.828,2.828,0,0,1-.875.535,4.276,4.276,0,0,1,.968.232A1.933,1.933,0,0,1,94.9,122a1.827,1.827,0,0,1,.371.943,1.876,1.876,0,0,1-.307,1.22,2.578,2.578,0,0,1-1.118.933,6.719,6.719,0,0,1-2.245.48q-2.32.194-4.642,0.343-0.038-.558-0.072-1.114c0.114-.009.233-0.015,0.347-0.024a1.336,1.336,0,0,0,.467-0.085,0.336,0.336,0,0,0,.163-0.168,1.224,1.224,0,0,0,.019-0.458q-0.156-2.244-.309-4.491a1.314,1.314,0,0,0-.081-0.453,0.337,0.337,0,0,0-.181-0.144,1.246,1.246,0,0,0-.465-0.027l-0.339.021c-0.024-.372-0.047-0.743-0.071-1.114q2.437-.157,4.869-0.362A5.215,5.215,0,0,1,93.082,117.588Zm-3.033,6.235a2.235,2.235,0,0,0,.064.431,0.2,0.2,0,0,0,.114.1,1.266,1.266,0,0,0,.4,0l0.643-.051a3.718,3.718,0,0,0,.923-0.174,1.192,1.192,0,0,0,.59-0.448,1.075,1.075,0,0,0,.194-0.745,0.985,0.985,0,0,0-.238-0.588,1.087,1.087,0,0,0-.573-0.328,3.671,3.671,0,0,0-1.118-.033c-0.376.03-.751,0.061-1.129,0.088C89.958,122.661,90,123.242,90.049,123.823Zm-0.381-4.887c0.052,0.653.1,1.307,0.153,1.962,0.317-.025.636-0.049,0.952-0.076a3.765,3.765,0,0,0,1.1-.208,1.064,1.064,0,0,0,.507-0.4,0.853,0.853,0,0,0,.132-0.554,0.873,0.873,0,0,0-.218-0.528,0.942,0.942,0,0,0-.519-0.278,4.825,4.825,0,0,0-1.156,0Zm5.887-6.975a1.405,1.405,0,0,0,.47-0.105,0.352,0.352,0,0,0,.158-0.194,1.4,1.4,0,0,0-.005-0.476c-0.156-1.463-.317-2.924-0.472-4.385a1.353,1.353,0,0,0-.107-0.471,0.35,0.35,0,0,0-.187-0.165,1.069,1.069,0,0,0-.43-0.015c-0.114.013-.226,0.024-0.337,0.034-0.039-.37-0.076-0.739-0.117-1.11q1.985-.206,3.967-0.443l0.134,1.109c-0.087.011-.176,0.021-0.262,0.03a1.525,1.525,0,0,0-.463.1,0.414,0.414,0,0,0-.182.2,1,1,0,0,0-.01.438c0.081,0.712.166,1.424,0.249,2.135q1.151-1.309,2.278-2.629a1.792,1.792,0,0,0,.179-0.235,0.214,0.214,0,0,0,.021-0.1,0.135,0.135,0,0,0-.083-0.112,0.906,0.906,0,0,0-.347,0l-0.326.042c-0.048-.37-0.095-0.738-0.142-1.108q1.837-.23,3.67-0.488l0.156,1.107-0.121.016a1.617,1.617,0,0,0-.354.076,0.9,0.9,0,0,0-.228.146,3.1,3.1,0,0,0-.331.332q-0.871.971-1.758,1.933,1.388,1.41,2.8,2.8a1.913,1.913,0,0,0,.522.413,1.177,1.177,0,0,0,.563.025l0.163-.023c0.052,0.367.106,0.737,0.159,1.1q-2.115.3-4.237,0.57-0.068-.553-0.138-1.109c0.054-.006.111-0.014,0.168-0.022a2.037,2.037,0,0,0,.553-0.111,0.125,0.125,0,0,0,.086-0.116,0.945,0.945,0,0,0-.226-0.3q-0.864-.91-1.717-1.827-0.56.6-1.129,1.2,0.047,0.405.093,0.807a0.966,0.966,0,0,0,.109.4,0.336,0.336,0,0,0,.19.142,1.276,1.276,0,0,0,.451,0l0.343-.042c0.044,0.371.09,0.739,0.134,1.11q-2.051.246-4.107,0.456c-0.039-.37-0.076-0.739-0.115-1.11C95.349,111.984,95.451,111.972,95.555,111.961ZM97.1,123.726a1.346,1.346,0,0,0,.175-0.41q1.02-3.3,1.966-6.618c0.641-.075,1.279-0.153,1.919-0.233q1.674,2.933,3.408,5.841a1.558,1.558,0,0,0,.465.555,1.157,1.157,0,0,0,.627.025l0.156,1.1q-2.084.3-4.172,0.551c-0.047-.368-0.091-0.74-0.135-1.108l0.249-.039a1,1,0,0,0,.475-0.143,0.231,0.231,0,0,0,.111-0.222,1.537,1.537,0,0,0-.173-0.409l-0.353-.7q-1.329.168-2.656,0.32c-0.08.283-.157,0.566-0.235,0.848a1.257,1.257,0,0,0-.062.351,0.247,0.247,0,0,0,.089.158,0.468,0.468,0,0,0,.251.082,4.029,4.029,0,0,0,.595-0.044c0.043,0.37.088,0.74,0.129,1.109-1.137.132-2.28,0.257-3.42,0.374-0.037-.37-0.078-0.74-0.114-1.111a1.578,1.578,0,0,0,.472-0.1A0.617,0.617,0,0,0,97.1,123.726Zm4.118-2.889c-0.371-.7-0.739-1.4-1.108-2.1-0.2.769-.412,1.537-0.619,2.306Q100.35,120.944,101.213,120.837Zm4.1-10.095a1.47,1.47,0,0,0,.444-0.119,0.548,0.548,0,0,0,.213-0.189,1.415,1.415,0,0,0,.149-0.414q0.811-3.337,1.548-6.68,0.909-.146,1.818-0.3,1.733,2.869,3.534,5.711a1.539,1.539,0,0,0,.47.538,1.012,1.012,0,0,0,.6,0c0.069,0.366.136,0.733,0.2,1.1q-1.974.364-3.95,0.695c-0.064-.368-0.123-0.734-0.188-1.1l0.241-.045a0.9,0.9,0,0,0,.441-0.161,0.24,0.24,0,0,0,.1-0.224,1.7,1.7,0,0,0-.185-0.4c-0.126-.227-0.249-0.455-0.37-0.682q-1.258.213-2.518,0.412c-0.059.284-.122,0.57-0.184,0.855a1.519,1.519,0,0,0-.042.353,0.258,0.258,0,0,0,.094.154,0.437,0.437,0,0,0,.242.072,3.7,3.7,0,0,0,.568-0.065c0.059,0.368.116,0.735,0.174,1.1q-1.617.258-3.242,0.5C105.417,111.478,105.365,111.109,105.311,110.742Zm4.442-3.34c-0.389-.682-0.778-1.367-1.16-2.055q-0.234,1.164-.478,2.324Q108.934,107.542,109.753,107.4Zm5.54-4.942a2.737,2.737,0,0,1,.954-0.578,7.387,7.387,0,0,1,1.028-.3q2.483-.51,4.951-1.07,0.128,0.56.258,1.123c-0.1.021-.2,0.047-0.3,0.067l-0.166.032a0.792,0.792,0,0,0-.3.134,0.249,0.249,0,0,0-.112.175,1.279,1.279,0,0,0,.039.381q0.5,2.214,1,4.431a1.662,1.662,0,0,0,.124.418,0.4,0.4,0,0,0,.223.138,1.05,1.05,0,0,0,.426-0.034l0.371-.085c0.08,0.365.166,0.727,0.249,1.091q-2.028.459-4.066,0.886-0.114-.544-0.23-1.091l0.379-.082a1.063,1.063,0,0,0,.408-0.142,0.347,0.347,0,0,0,.116-0.194,1.765,1.765,0,0,0-.066-0.53c-0.112-.523-0.226-1.049-0.34-1.574-0.225.05-.451,0.1-0.68,0.146q-0.952,1.977-1.948,3.951-1.332.263-2.671,0.514c-0.067-.366-0.139-0.732-0.206-1.1,0.119-.023.238-0.043,0.357-0.067a1.374,1.374,0,0,0,.373-0.113,0.928,0.928,0,0,0,.247-0.185,1.6,1.6,0,0,0,.247-0.346c0.018-.032.039-0.064,0.055-0.1,0.445-.742.882-1.486,1.318-2.23a3.383,3.383,0,0,1-1.721-.419,1.847,1.847,0,0,1-.947-1.335,2,2,0,0,1,.064-1.048A2.131,2.131,0,0,1,115.293,102.46Zm1.49,1.6a0.948,0.948,0,0,0,.3.541,1.141,1.141,0,0,0,.605.26,3.465,3.465,0,0,0,1.094-.093c0.4-.083.806-0.169,1.21-0.255q-0.222-1.021-.441-2.043c-0.445.095-.888,0.188-1.333,0.281a3.327,3.327,0,0,0-.969.312,0.961,0.961,0,0,0-.4.427A0.9,0.9,0,0,0,116.783,104.055Zm-36.834,9.018,0.27-.011a1.518,1.518,0,0,0,.514-0.079,0.33,0.33,0,0,0,.177-0.176,1.459,1.459,0,0,0,.03-0.517c-0.026-.567-0.049-1.137-0.075-1.706q-1.514.064-3.026,0.111c0.014,0.568.032,1.136,0.05,1.707a1.891,1.891,0,0,0,.051.5,0.323,0.323,0,0,0,.19.186,1.773,1.773,0,0,0,.512.029l0.282-.009c0.013,0.371.025,0.744,0.037,1.116q-2.063.071-4.123,0.105c-0.006-.372-0.014-0.745-0.019-1.117,0.091,0,.185,0,0.28,0a1.446,1.446,0,0,0,.489-0.066,0.353,0.353,0,0,0,.186-0.165,1.236,1.236,0,0,0,.042-0.46c-0.029-1.461-.062-2.924-0.091-4.385a1.884,1.884,0,0,0-.062-0.535,0.342,0.342,0,0,0-.161-0.178,0.984,0.984,0,0,0-.415-0.051c-0.122,0-.246,0-0.366.006-0.008-.372-0.013-0.744-0.02-1.116q1.992-.033,3.985-0.1,0.017,0.558.039,1.116l-0.369.013a0.97,0.97,0,0,0-.413.072,0.332,0.332,0,0,0-.153.179,1.534,1.534,0,0,0-.033.492c0.015,0.469.028,0.936,0.042,1.405q1.507-.046,3.013-0.11c-0.019-.5-0.042-1.006-0.065-1.509a1.175,1.175,0,0,0-.052-0.373,0.308,0.308,0,0,0-.164-0.185,1.487,1.487,0,0,0-.5-0.032l-0.309.013-0.045-1.117q2-.078,3.994-0.187c0.02,0.371.042,0.743,0.062,1.115-0.111.007-.223,0.012-0.337,0.018a1.2,1.2,0,0,0-.447.078,0.319,0.319,0,0,0-.148.17,1.771,1.771,0,0,0-.018.508q0.114,2.186.228,4.371a1.419,1.419,0,0,0,.084.519,0.339,0.339,0,0,0,.182.16,1.856,1.856,0,0,0,.542.019c0.08,0,.161-0.007.241-0.013,0.021,0.372.042,0.743,0.063,1.114q-2.065.115-4.134,0.2C79.976,113.816,79.961,113.445,79.949,113.073Zm-4.66,6.707a2.209,2.209,0,0,1,.24.971,2.137,2.137,0,0,1-.826,1.75,3.611,3.611,0,0,1-2.374.727c-0.5,0-1,0-1.5,0,0,0.5,0,1.008,0,1.512a0.887,0.887,0,0,0,.044.358,0.343,0.343,0,0,0,.174.162,1.063,1.063,0,0,0,.4.052l0.451,0c0,0.373,0,.746.005,1.118q-2.169.011-4.334-.018c0.005-.371.009-0.745,0.014-1.117l0.3,0a1.649,1.649,0,0,0,.523-0.047,0.34,0.34,0,0,0,.186-0.164,1.2,1.2,0,0,0,.061-0.464q0.019-2.219.038-4.439a1.5,1.5,0,0,0-.046-0.49,0.329,0.329,0,0,0-.157-0.173,1.021,1.021,0,0,0-.413-0.061c-0.139,0-.279,0-0.418-0.005,0-.371.01-0.745,0.015-1.117q2.272,0.03,4.543.017a5.339,5.339,0,0,1,1.435.152,2.751,2.751,0,0,1,.987.486A2.36,2.36,0,0,1,75.289,119.78Zm-2.486.134a1.751,1.751,0,0,0-1.01-.237c-0.32,0-.641,0-0.96,0v2.291c0.248,0,.5,0,0.744,0a2.785,2.785,0,0,0,1-.134,1.164,1.164,0,0,0,.51-0.4,1.088,1.088,0,0,0,.185-0.643A1.021,1.021,0,0,0,72.8,119.914Zm-3.583-6.67h0.27a0.955,0.955,0,0,0,.627-0.129,0.971,0.971,0,0,0,.124-0.609q0.006-1.359.007-2.717-1.51,1.354-3.059,2.689a2.243,2.243,0,0,0,.035.521,0.265,0.265,0,0,0,.16.168,1.6,1.6,0,0,0,.53.062l0.283,0c-0.005.374-.008,0.745-0.013,1.117q-2.064-.023-4.129-0.081,0.015-.558.03-1.116l0.28,0.008a0.9,0.9,0,0,0,.619-0.116,0.869,0.869,0,0,0,.13-0.542q0.053-2.194.105-4.385a1.13,1.13,0,0,0-.1-0.65,0.7,0.7,0,0,0-.5-0.142c-0.123,0-.246-0.006-0.367-0.01,0.01-.372.022-0.744,0.032-1.116q1.994,0.055,3.99.078c0,0.372-.008.745-0.011,1.117-0.124,0-.248,0-0.37,0a0.764,0.764,0,0,0-.509.108,0.967,0.967,0,0,0-.125.606q-0.022,1.34-.042,2.678,1.537-1.352,3.038-2.727a0.73,0.73,0,0,0-.131-0.567,1.2,1.2,0,0,0-.552-0.085c-0.1,0-.206,0-0.31,0,0-.372.007-0.743,0.007-1.115q2,0.01,3.989-.009c0,0.372.01,0.746,0.013,1.118l-0.334,0a0.793,0.793,0,0,0-.539.126,0.991,0.991,0,0,0-.109.6q0.015,2.187.026,4.376a0.967,0.967,0,0,0,.129.621,1.081,1.081,0,0,0,.648.113l0.242,0c0,0.374.008,0.746,0.013,1.118q-2.069.02-4.132,0.009C69.217,113.987,69.218,113.616,69.221,113.244Zm-6.735-1.351a2.037,2.037,0,0,1-1.1,1.754,5.3,5.3,0,0,1-5.162-.232,5.4,5.4,0,0,1-1.459-1.843q0.487-.3.971-0.6a3.525,3.525,0,0,0,2.876,1.887,1.789,1.789,0,0,0,1.281-.309,1.19,1.19,0,0,0,.431-0.878,1.054,1.054,0,0,0-.327-0.869,2.283,2.283,0,0,0-1.369-.371c-0.36-.018-0.718-0.037-1.077-0.057,0.021-.394.044-0.79,0.066-1.184l0.908,0.048a2.432,2.432,0,0,0,1.388-.2,0.889,0.889,0,0,0,.4-0.735,0.905,0.905,0,0,0-.389-0.844,1.914,1.914,0,0,0-1.013-.317,2.012,2.012,0,0,0-1.48.482,4.874,4.874,0,0,0-1.079,1.443q-0.543-.19-1.081-0.384,0.5-1.417,1-2.839l0.824,0.05,0.172,0.359a4.439,4.439,0,0,1,2.074-.377,4.138,4.138,0,0,1,2.163.644,1.714,1.714,0,0,1,.816,1.555,1.916,1.916,0,0,1-1.626,1.81A1.942,1.942,0,0,1,62.485,111.893Zm-13.807.12a1.275,1.275,0,0,0,.372.07c0.235,0.02.468,0.041,0.7,0.063a3.515,3.515,0,0,0,1.346-.105,2.494,2.494,0,0,0,1.02-.623,3.341,3.341,0,0,0,.738-1.1l1.062,0.446q-0.656,1.455-1.322,2.911-3.647-.278-7.287-0.665c0.039-.372.08-0.741,0.12-1.111l0.21,0.022a1.8,1.8,0,0,0,.57,0,0.371,0.371,0,0,0,.225-0.182,2.274,2.274,0,0,0,.08-0.487l0.452-4.375a1.356,1.356,0,0,0,0-.47,0.324,0.324,0,0,0-.138-0.18,1,1,0,0,0-.41-0.1c-0.12-.014-0.242-0.027-0.362-0.039q0.059-.555.121-1.111,3.392,0.363,6.793.623,0.366,1.31.742,2.617l-1.1.3a3.46,3.46,0,0,0-.554-1.055,1.788,1.788,0,0,0-.758-0.571,3.755,3.755,0,0,0-1.008-.21c-0.417-.038-0.833-0.075-1.25-0.115q-0.093,1-.189,2l0.414,0.041a1.969,1.969,0,0,0,.637-0.011,0.437,0.437,0,0,0,.251-0.187,1.44,1.44,0,0,0,.121-0.555c0.008-.1.018-0.2,0.027-0.305,0.349,0.029.7,0.058,1.048,0.089-0.1,1.134-.19,2.272-0.286,3.407L50,110.96c0.01-.117.02-0.234,0.031-0.349a1.166,1.166,0,0,0-.041-0.523,0.464,0.464,0,0,0-.215-0.242,2.407,2.407,0,0,0-.655-0.119l-0.375-.033q-0.086.924-.175,1.849a1.186,1.186,0,0,0,0,.361A0.208,0.208,0,0,0,48.678,112.013Zm-4.932-3.1a3.353,3.353,0,0,1-2.336.424L40,109.154q-0.1.749-.2,1.5a0.96,0.96,0,0,0-.005.361,0.35,0.35,0,0,0,.144.182,1,1,0,0,0,.367.1c0.142,0.018.284,0.035,0.426,0.054q-0.07.555-.141,1.108-2.052-.259-4.1-0.557c0.056-.367.109-0.735,0.162-1.1,0.094,0.014.189,0.029,0.282,0.04a1.469,1.469,0,0,0,.5.019,0.341,0.341,0,0,0,.2-0.137,1.289,1.289,0,0,0,.121-0.456q0.308-2.2.62-4.394a1.7,1.7,0,0,0,.022-0.491,0.328,0.328,0,0,0-.125-0.194,0.984,0.984,0,0,0-.383-0.109l-0.395-.056q0.081-.552.161-1.106,2.142,0.31,4.286.578a4.96,4.96,0,0,1,1.336.328,2.6,2.6,0,0,1,.869.608,2.331,2.331,0,0,1,.509.858,2.306,2.306,0,0,1,.1.994A2.2,2.2,0,0,1,43.746,108.911Zm-1.454-2.8a1.609,1.609,0,0,0-.923-0.361c-0.3-.038-0.605-0.077-0.907-0.117q-0.152,1.137-.3,2.272c0.236,0.033.468,0.063,0.7,0.092a2.554,2.554,0,0,0,.961-0.01,1.129,1.129,0,0,0,.533-0.336,1.107,1.107,0,0,0,.261-0.614A1.044,1.044,0,0,0,42.293,106.108Z" transform="translate(-0.094 -0.188)"/>
</svg>
