<?xml version="1.0" encoding="UTF-8"?>
<svg width="33px" height="26px" viewBox="0 0 33 26" version="1.1" xmlns="http://www.w3.org/2000/svg" xmlns:xlink="http://www.w3.org/1999/xlink">
    <!-- Generator: Sketch 51.2 (57519) - http://www.bohemiancoding.com/sketch -->
    <title>svg/photo-camera</title>
    <desc>Created with Sketch.</desc>
    <defs></defs>
    <g id="Page-1" stroke="none" stroke-width="1" fill="none" fill-rule="evenodd">
        <g id="png_pages/berezdubrava_scroll_01" transform="translate(-400.000000, -520.000000)" fill="#000000" fill-rule="nonzero">
            <g id="Альбом" transform="translate(111.000000, 2.000000)">
                <g id="svg/photo-camera" transform="translate(289.000000, 518.000000)">
                    <path d="M31,26 L2,26 C0.940276722,26 0,25.077519 0,24 L0,5 C0,3.92149645 0.940276722,3 2,3 L31,3 C32.0607268,3 33,3.92149645 33,5 L33,24 C33,25.077519 32.0607268,26 31,26 Z M2,4 C1.48981706,4 1,4.47973036 1,5 L1,24 C1,24.5202696 1.48981706,25 2,25 L31,25 C31.5111867,25 32,24.5202696 32,24 L32,5 C32,4.47874731 31.5111867,4 31,4 L2,4 Z" id="Shape"></path>
                    <path d="M21.628,21.007 C17.921,21.007 14.905,17.991 14.905,14.284 C14.905,10.578 17.921,7.563 21.628,7.563 C25.335,7.563 28.35,10.578 28.35,14.284 C28.35,17.991 25.335,21.007 21.628,21.007 Z M21.628,8.563 C18.473,8.563 15.905,11.129 15.905,14.284 C15.905,17.439 18.472,20.007 21.628,20.007 C24.783,20.007 27.35,17.44 27.35,14.284 C27.35,11.13 24.783,8.563 21.628,8.563 Z" id="Shape"></path>
                    <path d="M12,4 L5,4 C5.22333001,4 5,3.76093917 5,3 L5,1 C5,0.239060832 5.22333001,0 5,0 L12,0 C11.77667,0 12,0.239060832 12,1 L12,3 C11.999003,3.7620064 11.77667,4 12,4 Z M6,3 L11,3 L11,1 L6,1 L6,3 Z" id="Shape"></path>
                    <path d="M6,21 C5.224,21 5,20.7713119 5,20 L5,8 C5,7.22868811 5.224,7 6,7 C5.776,7 6,7.22868811 6,8 L6,20 C6,20.7723328 5.776,21 6,21 Z" id="Shape"></path>
                </g>
            </g>
        </g>
    </g>
</svg>