<?xml version="1.0" encoding="UTF-8"?>
<svg width="1190px" height="1860px" viewBox="0 0 1190 1860" version="1.1" xmlns="http://www.w3.org/2000/svg" xmlns:xlink="http://www.w3.org/1999/xlink">
    <!-- Generator: Sketch 51.2 (57519) - http://www.bohemiancoding.com/sketch -->
    <title>Path 2 Copy 2</title>
    <desc>Created with Sketch.</desc>
    <defs>
        <filter x="-10.5%" y="-8.3%" width="120.9%" height="116.6%" filterUnits="objectBoundingBox" id="filter-1">
            <feGaussianBlur stdDeviation="50" in="SourceGraphic"></feGaussianBlur>
        </filter>
    </defs>
    <g id="Page-1" stroke="none" stroke-width="1" fill="none" fill-rule="evenodd" opacity="0.200000003">
        <g id="png_pages/berezdubrava_index_10" transform="translate(0.000000, -671.000000)" fill="#000000">
            <g id="Второй-экран" transform="translate(-950.000000, 378.000000)">
                <path d="M1082.92962,2130.70466 C1037.92177,2001.37409 961.747286,1907.6342 854.406162,1849.48499 C693.394476,1762.26118 690.579587,1381.49567 966.438768,1436.84925 C1150.34489,1473.75163 1265.00473,1416.72067 1310.41828,1265.75638 C1150.53255,941.462702 1135.70746,782.950189 1265.94302,790.218841 C1461.29636,801.121818 1296.90681,881.63611 1356.58247,1029.24564 C1416.25813,1176.85518 1560.94345,1356.33496 1395.42794,1436.84925 C1229.91244,1517.36354 1066.08586,1470.39687 1183.18527,1671.6826 C1300.28468,1872.96833 1557.56559,1888.06476 1426.95471,2087.67311 C1369.30156,2175.78254 1304.65548,2234.72258 1233.01648,2264.49323 C1182.01642,2285.68706 1123.49171,2261.52434 1102.29788,2210.52428 C1100.06769,2205.15763 1098.30958,2199.60678 1097.0435,2193.93477 L1082.92962,2130.70466 Z M920.837557,637.577163 C1037.37399,637.577163 930.971159,651.834902 941.104762,692.092048 C951.238364,732.349194 976.572371,644.286687 965.87579,569.643229 C955.17921,494.999771 1019.92167,418.678932 1050.88546,494.16108 C1081.84924,569.643229 1092.54582,754.155148 946.171563,763.380744 C799.797303,772.606339 875.236345,785.595874 875.236345,913.50635 C875.236345,1041.41683 764.329694,979.762903 805.427083,834.669439 C846.524471,689.575976 751.94418,812.024795 751.94418,718.091454 C751.94418,624.158114 804.301127,637.577163 920.837557,637.577163 Z M2140.81071,1273.30459 C2186.9749,1226.33792 2191.47873,1302.09963 2154.32218,1500.58973 C2111.16054,1564.88934 2067.62358,1590.05005 2023.71131,1576.07188 C1957.84289,1555.10461 1960.0948,1553.42723 1987.68072,1694.32724 C2015.26664,1835.22725 1918.43443,1751.3582 1777.12698,1529.9439 C1635.81952,1308.52959 1866.07749,1368.91531 1983.17689,1441.88139 C2100.2763,1514.84747 2071.56443,1343.7546 2140.81071,1273.30459 Z" id="Path-2-Copy-2" filter="url(#filter-1)" transform="translate(1461.591398, 1367.611510) rotate(-300.000000) translate(-1461.591398, -1367.611510) "></path>
            </g>
        </g>
    </g>
</svg>