<?xml version="1.0" encoding="UTF-8"?>
<svg width="36px" height="33px" viewBox="0 0 36 33" version="1.1" xmlns="http://www.w3.org/2000/svg" xmlns:xlink="http://www.w3.org/1999/xlink">
    <!-- Generator: Sketch 51.2 (57519) - http://www.bohemiancoding.com/sketch -->
    <title>svg/text/quote_sign</title>
    <desc>Created with Sketch.</desc>
    <defs></defs>
    <g id="Page-1" stroke="none" stroke-width="1" fill="none" fill-rule="evenodd">
        <g id="png_pages/berezdubrava_text_03" transform="translate(-260.000000, -969.000000)" fill="#BBEE2A">
            <g id="Цитата,-блокквоут" transform="translate(260.000000, 948.000000)">
                <path d="M16.55,21.8 C17.88334,24.600014 18.6416658,27.399986 18.825,30.2 C19.0083343,33.000014 18.6416712,35.7416533 17.725,38.425 C16.8083287,41.1083468 15.3583433,43.6999875 13.375,46.2 C11.3916567,48.7000125 8.9166815,51.016656 5.95,53.15 L1.7,50.45 C1.3999985,50.2833325 1.1666675,50.0416683 1,49.725 C0.8333325,49.4083317 0.75,49.083335 0.75,48.75 C0.75,48.283331 0.8666655,47.883335 1.1,47.55 C1.3333345,47.216665 1.6999975,46.783336 2.2,46.25 C2.6333355,45.7499975 3.20832975,44.966672 3.925,43.9 C4.64167025,42.833328 5.233331,41.5500075 5.7,40.05 C6.166669,38.5499925 6.3833335,36.8583428 6.35,34.975 C6.3166665,33.0916573 5.7833385,31.0666775 4.75,28.9 C4.3833315,28.1333295 4.44166425,27.4083367 4.925,26.725 C5.40833575,26.0416633 6.149995,25.5166685 7.15,25.15 L16.55,21.8 Z M33,21.8 C34.33334,24.600014 35.0916658,27.399986 35.275,30.2 C35.4583343,33.000014 35.0916712,35.7416533 34.175,38.425 C33.2583287,41.1083468 31.8083433,43.6999875 29.825,46.2 C27.8416568,48.7000125 25.3666815,51.016656 22.4,53.15 L18.15,50.45 C17.8499985,50.2833325 17.6166675,50.0416683 17.45,49.725 C17.2833325,49.4083317 17.2,49.083335 17.2,48.75 C17.2,48.283331 17.3166655,47.883335 17.55,47.55 C17.7833345,47.216665 18.1499975,46.783336 18.65,46.25 C19.0833355,45.7499975 19.6583298,44.966672 20.375,43.9 C21.0916702,42.833328 21.683331,41.5500075 22.15,40.05 C22.616669,38.5499925 22.8333335,36.8583428 22.8,34.975 C22.7666665,33.0916573 22.2333385,31.0666775 21.2,28.9 C20.8333315,28.1333295 20.8916643,27.4083367 21.375,26.725 C21.8583357,26.0416633 22.599995,25.5166685 23.6,25.15 L33,21.8 Z" id="svg/text/quote_sign"></path>
            </g>
        </g>
    </g>
</svg>