<?xml version="1.0" encoding="UTF-8"?>
<svg width="37px" height="32px" viewBox="0 0 37 32" version="1.1" xmlns="http://www.w3.org/2000/svg" xmlns:xlink="http://www.w3.org/1999/xlink">
    <!-- Generator: Sketch 51.2 (57519) - http://www.bohemiancoding.com/sketch -->
    <title>svg/video-camera</title>
    <desc>Created with Sketch.</desc>
    <defs></defs>
    <g id="Page-1" stroke="none" stroke-width="1" fill="none" fill-rule="evenodd">
        <g id="png_pages/berezdubrava_scroll_01" transform="translate(-523.000000, -514.000000)" fill="#000000" fill-rule="nonzero">
            <g id="Альбом" transform="translate(111.000000, 2.000000)">
                <g id="svg/video-camera" transform="translate(412.000000, 512.000000)">
                    <g id="Group" transform="translate(0.000000, 11.000000)">
                        <path d="M23.129448,21 L2.87255241,21 C1.28824774,21 0,19.7088027 0,18.1228757 L0,2.87712431 C0,1.29019477 1.28824774,0 2.87255241,0 L23.129448,0 C24.7127525,0 26,1.29119725 26,2.87712431 L26,18.1228757 C26,19.7088027 24.7127525,21 23.129448,21 Z M2.87239008,1 C1.84017504,1 1,1.84130251 1,2.87513194 L1,18.1248681 C1,19.1586975 1.84017504,20 2.87239008,20 L23.1296103,20 C24.1608252,20 25,19.1586975 25,18.1248681 L25,2.87513194 C25,1.84130251 24.1608252,1 23.1296103,1 L2.87239008,1 Z" id="Shape"></path>
                        <path d="M36.5153082,20 C36.4144923,20 36.3146458,19.967136 36.2303094,19.9014079 L25.199693,11.4122196 C25.0736732,11.3156815 25,11.1616314 25,10.9973113 C25,10.8329912 25.0746425,10.6779141 25.199693,10.581376 L36.2274012,2.09732266 C36.3737782,1.98435258 36.5705631,1.96894757 36.7324501,2.05521563 C36.8953066,2.1425107 36.9970918,2.31915483 36.9970918,2.51223097 L37,19.4844456 C37,19.6775218 36.8982147,19.8541659 36.7363277,19.941461 C36.6655626,19.981514 36.5899507,20 36.5153082,20 Z M26,10.9973113 L36,18.4993712 L35.9970084,4 L26,10.9973113 Z" id="Shape"></path>
                    </g>
                    <path d="M5.99951104,12 C2.69122321,12 0,9.30801825 0,6 C0,2.69198175 2.69122321,0 5.99951104,0 C9.30779888,0 12,2.69100391 12,6 C12,9.30899609 9.30779888,12 5.99951104,12 Z M5.99951319,1 C3.24320904,1 1,3.24299065 1,6 C1,8.75700935 3.24320904,11 5.99951319,11 C8.75679096,11 11,8.75700935 11,6 C11,3.24299065 8.75679096,1 5.99951319,1 Z" id="Shape"></path>
                    <path d="M20,12 C16.6919817,12 14,9.30899609 14,6 C14,2.69100391 16.6919817,0 20,0 C23.3080183,0 26,2.69100391 26,6 C26,9.30899609 23.3080183,12 20,12 Z M20,1 C17.2429907,1 15,3.24299065 15,6 C15,8.75700935 17.2429907,11 20,11 C22.7570093,11 25,8.75700935 25,6 C25,3.24299065 22.7570093,1 20,1 Z" id="Shape"></path>
                </g>
            </g>
        </g>
    </g>
</svg>