<svg width="34" height="34" viewBox="0 0 34 34" xmlns="http://www.w3.org/2000/svg"><title>svg/text/file_folder_icon</title><g fill="#796F62"><path d="M32.578 15.3H30.6v-3.552a1.55 1.55 0 0 0-1.548-1.548H27.2V8.832l-.28-.28-.001-.002-4.134-4.134L18.368 0H4.533v6.233H1.548A1.55 1.55 0 0 0 0 7.781v24.756h.003A1.443 1.443 0 0 0 1.453 34h25.364c.655 0 1.232-.441 1.388-1.027L34 17.084v-.1c0-.976-.598-1.684-1.422-1.684zm-3.526-3.967c.228 0 .415.186.415.415V15.3H27.2v-3.967h1.852zM18.7 1.935L25.265 8.5H18.7V1.935zM5.667 1.133h11.9v8.5h8.5V15.3H7.214c-.08 0-.16.007-.239.02-.552.092-1.012.494-1.15 1.007l-.158.438V1.133zM1.133 7.781c0-.228.187-.414.415-.414h2.985v12.486l-3.4 9.273V7.781zm25.993 24.85a.32.32 0 0 1-.31.236H1.455a.313.313 0 0 1-.254-.126c-.036-.047-.091-.145-.07-.231l3.403-9.334v.002l2.358-6.462.014-.046a.32.32 0 0 1 .31-.237h25.363c.215 0 .27.31.284.464L27.126 32.63z"/><path d="M8.583 9h5.834c.322 0 .583-.223.583-.5s-.261-.5-.583-.5H8.583C8.261 8 8 8.223 8 8.5s.261.5.583.5zm0-3h5.834c.322 0 .583-.223.583-.5s-.261-.5-.583-.5H8.583C8.261 5 8 5.223 8 5.5s.261.5.583.5zm-.006 7h13.846c.319 0 .577-.223.577-.5s-.258-.5-.577-.5H8.577c-.319 0-.577.223-.577.5s.258.5.577.5z"/></g></svg>