<svg width="25" height="33" viewBox="0 0 25 33" xmlns="http://www.w3.org/2000/svg"><title>svg/text/file_doc</title><g fill="#796F62"><path d="M20.444 12H6.556c-.307 0-.556.223-.556.5s.249.5.556.5h13.888c.307 0 .556-.223.556-.5s-.249-.5-.556-.5zM6.583 9h5.834c.322 0 .583-.223.583-.5s-.261-.5-.583-.5H6.583C6.261 8 6 8.223 6 8.5s.261.5.583.5zm13.861 8H6.556c-.307 0-.556.224-.556.5s.249.5.556.5h13.888c.307 0 .556-.224.556-.5s-.249-.5-.556-.5zm0 4H6.556c-.307 0-.556.224-.556.5s.249.5.556.5h13.888c.307 0 .556-.224.556-.5s-.249-.5-.556-.5zm0 4H6.556c-.307 0-.556.224-.556.5s.249.5.556.5h13.888c.307 0 .556-.224.556-.5s-.249-.5-.556-.5z"/><path d="M17.241 0H0v33h25V8.022L17.241 0zm.312 1.878L23.184 7.7h-5.63V1.878zM1.063 31.9V1.1H16.49v7.7h7.447v23.1H1.064z"/></g></svg>