<svg width="140" height="144" viewBox="0 0 140 144" xmlns="http://www.w3.org/2000/svg"><title>svg/footer_logo</title><path d="M138.062 42.669c2.187 1.05-1.463 2.018-3.912 2.516.832.007 1.586.49 1.936 1.24 1.314 1.327-.994 1.852-.994 1.852 2.036 2.921-6.859 2.48-6.859 2.48 1.648 2.383-2.75 2.425-5.382 2.26a63.045 63.045 0 0 0-9.741 6.88c.33.101.65.238.95.408 2.41-4.153 5.2-1.465 5.2-1.465 5.948-2.432 5.092 1.47 5.092 1.47 8.04 1.167 4.38 4.042 4.38 4.042 8.434 5.274-.895 4.646-.895 4.646.412 2.28-2.592.1-4.483-1.458a1.97 1.97 0 0 1 .114 2.217c-.332 1.78-2.154.344-2.154.344-1.252 3.308-6.215-3.72-6.215-3.72-.937 2.454-3.24-.09-4.724-2.15.222.867.4 1.745.53 2.63.1.65.177 1.313.25 1.965l.14 1.206c.178.26.307.55.383.857 7.888-1.879 5.687 2.113 5.687 2.113 9.94 1.78 1.077 4.623 1.077 4.623 1.32 1.955-2.34 1.04-4.718.296a2.013 2.013 0 0 1 1 1.998c.421 1.77-1.845 1.115-1.845 1.115.1 1.709-1.628 1.465-3.418.775a23.53 23.53 0 0 1-.856 1.85c.443.248.75.68.841 1.176 6.158-1.362 4.362 1.758 4.362 1.758 7.655 1.545.725 3.666.725 3.666.977 1.563-1.839.79-3.66.165.544.337.831.965.73 1.594.286 1.407-1.463.856-1.463.856.075 2.768-5.576-1.014-5.576-1.014a1.082 1.082 0 0 1-.012.13c.795.297 1.258.755.718 1.483 0 0 1.546.451.612 1.348 0 0-.043.078-.112.179a109.878 109.878 0 0 0 18.73-4.556.835.835 0 0 1 .427.301c3.31 6.648 4.935 13.52 2.982 20.92a1.993 1.993 0 0 1-1.584 1.59c-2.858.762-5.702 1.65-8.558 2.44a2.448 2.448 0 0 0-1.663 1.352 32.436 32.436 0 0 0-2.808 8.94 1.338 1.338 0 0 1-1.02 1.165 89.241 89.241 0 0 1-15.536 3.783c-1.093.19-2.203.264-3.285.503a2.3 2.3 0 0 0-1.282.776 27.343 27.343 0 0 1-18.87 11.391 29.56 29.56 0 0 1-19.705-3.629 22.112 22.112 0 0 1-7.754-7.738 1.618 1.618 0 0 0-1.032-.693 94.074 94.074 0 0 1-15.18-3.454 1.708 1.708 0 0 1-1.372-1.49 24.764 24.764 0 0 0-4.682-10.115 3.29 3.29 0 0 0-1.56-.964 279.42 279.42 0 0 0-8.65-2.493c-1.648-.45-2.051-1.565-2.102-3.103a35.858 35.858 0 0 1 2.072-13.132c.818-2.303 1.825-4.548 2.732-6.798.099.025.198.05.289.075a91.042 91.042 0 0 0 12.923 3.641.901.901 0 0 1-.35-.84s-1.746.55-1.462-.856c-.1-.63.188-1.257.731-1.594-1.82.623-4.637 1.4-3.66-.165 0 0-6.928-2.12.725-3.666 0 0-1.796-3.12 4.36-1.758 0 0 .398-2.235 2.718-.79a.905.905 0 0 1 .108-.137c.071-.133.162-.254.27-.36a24.576 24.576 0 0 1-.527-1.06 3.958 3.958 0 0 1-1.374-.778c-1.89.772-3.8 1.13-3.701-.67 0 0-2.266.655-1.846-1.113a2.013 2.013 0 0 1 1.002-1.999c-2.378.747-6.04 1.66-4.72-.296 0 0-8.862-2.845 1.077-4.624 0 0-2.2-3.987 5.689-2.113a1.923 1.923 0 0 1 1.881-1.582l.015-.046c.095-1.81.385-3.606.865-5.355-.237-.253-.468-.506-.714-.758-1.304 1.994-4.355 6.149-5.467 3.23 0 0-4.964 7.026-6.214 3.719 0 0-1.823 1.438-2.155-.344a1.969 1.969 0 0 1 .114-2.218c-1.889 1.564-4.895 3.74-4.483 1.46 0 0-9.33.626-.895-4.647 0 0-3.66-2.874 4.374-4.042 0 0-.855-3.903 5.09-1.471 0 0 2.792-2.686 5.202 1.464.302-.169.621-.305.952-.407a63.179 63.179 0 0 0-9.742-6.88c-2.634.166-7.03.124-5.383-2.26 0 0-8.895.442-6.859-2.479 0 0-2.31-.524-.994-1.852a2.16 2.16 0 0 1 1.939-1.24c-2.45-.494-6.096-1.466-3.91-2.516 0 0-6.122-6.703 3.395-3.468 0 0 .24-4.491 6.043.903 0 0 2.783-2.986 4.286 2.982 0 0 3.939.508 1.877 4.819 0 0 2.743.988 2.275 3.253a69.568 69.568 0 0 1 4.368 2.834c.042-.304.128-.6.255-.88-4.448-4.458-.273-5.028-.273-5.028-1.59-7.549 2.506-5.28 2.506-5.28 2.366-9.314 4.923-.79 4.923-.79 2.126-1.153.99 2.26.085 4.476a2.238 2.238 0 0 1 2.154-.852c1.888-.308 1.078 1.805 1.078 1.805.49-.078.978.16 1.216.593.199-.82.38-1.64.523-2.471a14.501 14.501 0 0 0-.327-7c-.277-.89-.567-1.779-.855-2.653a374.436 374.436 0 0 1-1.033-3.242 3.377 3.377 0 0 1 .325-2.59c-3.29 1.953-3.208-.673-3.208-.673-5.513.1-3.418-2.338-3.418-2.338-6.273-2.741.041-3.361.041-3.361-.558-1.558 1.716-.363 3.164.515a1.458 1.458 0 0 1-.34-1.54c.007-1.292 1.403-.494 1.403-.494.158-.89.813-.88 1.579-.508.033-.034.046-.065.083-.099 0 0-6.65-1.457-4.585-3.314 0 0-1.608-.875-.388-1.642a1.602 1.602 0 0 1 1.664-.575c-1.709-.88-4.218-2.373-2.407-2.747 0 0-3.238-6.448 3.167-2.008 0 0 1.031-3.446 4.29 1.926 0 0 1.9-1.26 2.447 1.41.058-.009.116-.014.174-.014a1.596 1.596 0 0 1 1.641.476c-.845-1.618-1.97-4.145-.32-3.428 0 0 1.143-6.723 3.653.207 0 0 2.793-2.068 2.28 3.841 0 0 2.858.105.48 3.503h1.858c.453 0 .92 0 1.37-.026a17.473 17.473 0 0 0 6.106-1.2 36.98 36.98 0 0 1 9.742-2.793h.016c-.037-.022-.053-.034-.068-.04-.227-.117-.454-.23-.678-.347-.184-.09-.367-.187-.553-.278a3.058 3.058 0 0 0-.35-.159 1.89 1.89 0 0 1-.54-.333c-.162-.128-.313-.267-.474-.395-.09-.068-.193-.114-.288-.175a1.083 1.083 0 0 1-.365-.352.514.514 0 0 1-.02-.522c.066-.14.137-.277.198-.42a.454.454 0 0 0 .013-.334.1.1 0 0 0-.15-.082c-.437.09-.874.183-1.314.261a3.151 3.151 0 0 1-.746.039 1.898 1.898 0 0 0-.761.156 2.42 2.42 0 0 0-.762.51c-.555.494-1.115.983-1.68 1.467-.399.338-.808.662-1.208.996-.186.153-.42.235-.66.233-.217 0-.435-.007-.653-.014a.107.107 0 0 0-.007-.02.297.297 0 0 1 .038-.048c.562-.612 1.159-1.186 1.76-1.764l1.812-1.74a.276.276 0 0 0 .033-.042c-.137-.018-.266-.03-.397-.048-.212-.032-.423-.063-.633-.1a.306.306 0 0 1-.075-.037.25.25 0 0 1 .056-.06c.176-.109.353-.214.53-.32.099-.056.198-.11.292-.17.053-.034.05-.066-.011-.089-.085-.028-.172-.053-.257-.08a1.91 1.91 0 0 1-.133-.044c-.09-.04-.1-.099-.015-.153a.849.849 0 0 1 .178-.09c.244-.078.487-.146.725-.23a2.936 2.936 0 0 0 1.138-.753c.298-.316.579-.648.865-.977.28-.352.604-.666.964-.936.63-.452 1.221-.955 1.768-1.504.547-.522 1.084-1.055 1.636-1.576a6.64 6.64 0 0 1 .602-.494.895.895 0 0 0 .413-.78.617.617 0 0 0-.236-.455 15.123 15.123 0 0 1-.765-.701c-.193-.188-.367-.396-.55-.593a.154.154 0 0 0-.062-.039c-.497-.232-.994-.463-1.49-.692l-.04-.023c.066-.009.115-.016.164-.021.449-.049.9-.07 1.353-.062.098.016.199.017.298.005.087-.045.167-.103.238-.17.39-.274.834-.463 1.303-.556.099-.02.21-.032.314-.047h.39c.07.013.139.022.21.033.45.073.887.22 1.291.432A3.883 3.883 0 0 1 69.328 1.7c.395.574.62 1.248.649 1.943.003.174.027.346.072.513l.02.078v2.787c-.1.404-.25.795-.443 1.164-.27.502-.614.961-1.018 1.365-.38.406-.795.78-1.237 1.118a3.606 3.606 0 0 1-1.132.598 3.474 3.474 0 0 1-.386.074c.114.052.246.104.37.167.099.053.194.112.284.18.073.049.12.129.129.217a.15.15 0 0 0 .131.11c.135.038.27.072.406.098a2.76 2.76 0 0 1 1.55.9c.323.37.658.726.984 1.087a.465.465 0 0 1 .087.156c.062.188.117.379.175.564l2.078.006c.057-.188.114-.38.177-.57a.473.473 0 0 1 .088-.156c.325-.363.661-.72.983-1.088.4-.463.946-.779 1.549-.897.137-.03.27-.064.405-.099a.143.143 0 0 0 .13-.11.302.302 0 0 1 .13-.217 2.07 2.07 0 0 1 .286-.179c.123-.063.256-.116.369-.167a3.526 3.526 0 0 1-.387-.074 3.634 3.634 0 0 1-1.13-.598 10.043 10.043 0 0 1-1.238-1.118 5.836 5.836 0 0 1-1.023-1.365 5.18 5.18 0 0 1-.443-1.166V4.236c.005-.026.013-.052.02-.078.044-.167.068-.34.07-.513.031-.696.256-1.37.65-1.944A3.887 3.887 0 0 1 74.119.465a4.25 4.25 0 0 1 1.293-.432c.07-.011.137-.02.208-.033h.391c.1.016.212.028.315.047a3.39 3.39 0 0 1 1.292.555.994.994 0 0 0 .24.17c.1.013.2.011.3-.005.451-.005.903.019 1.352.07.049.005.1.014.164.022l-.03.023-1.492.692a.165.165 0 0 0-.061.039c-.182.197-.356.401-.55.593-.247.242-.496.475-.766.7a.616.616 0 0 0-.234.457.896.896 0 0 0 .41.779c.212.152.414.317.605.494.55.521 1.093 1.054 1.635 1.577a14.058 14.058 0 0 0 1.767 1.504c.36.27.685.584.965.936.284.33.567.661.865.977a2.92 2.92 0 0 0 1.138.753c.238.083.482.151.725.232a.91.91 0 0 1 .18.088c.08.053.074.112-.017.153a1.168 1.168 0 0 1-.133.044c-.083.028-.173.052-.255.08-.062.023-.064.055-.01.09.1.06.193.113.29.17.177.106.354.209.532.318a.31.31 0 0 1 .052.065.287.287 0 0 1-.075.038c-.21.034-.422.066-.634.098-.128.018-.256.031-.393.049.01.015.02.03.034.041.603.582 1.207 1.165 1.811 1.74a38.233 38.233 0 0 1 1.762 1.757.43.43 0 0 1 .036.048.197.197 0 0 1-.007.02c-.216.007-.434.02-.65.014a1.036 1.036 0 0 1-.663-.233c-.397-.335-.81-.66-1.206-.997-.566-.484-1.125-.973-1.68-1.468a2.415 2.415 0 0 0-.76-.508 1.858 1.858 0 0 0-.763-.156 3.217 3.217 0 0 1-.744-.04c-.44-.079-.879-.173-1.315-.26a.1.1 0 0 0-.151.081.458.458 0 0 0 .015.334c.056.144.128.28.194.42a.515.515 0 0 1-.02.522 1.11 1.11 0 0 1-.366.353c-.1.06-.199.105-.288.174-.16.125-.313.263-.473.388a1.92 1.92 0 0 1-.542.335 3.34 3.34 0 0 0-.35.158c-.186.093-.37.188-.553.279-.224.116-.452.23-.679.346-.015.006-.03.02-.069.042.106.049.2.092.288.127 2.722.34 5.375 1.1 7.863 2.25a17.555 17.555 0 0 0 5.812 1.517 2.58 2.58 0 0 1 .262-.673c-2.864-3.77.22-3.87.22-3.87-.512-5.909 2.28-3.842 2.28-3.842 2.51-6.933 3.653-.205 3.653-.205 1.647-.717.524 1.81-.322 3.428a1.596 1.596 0 0 1 1.643-.477c.057.001.114.006.171.016.549-2.67 2.45-1.412 2.45-1.412 3.258-5.37 4.29-1.925 4.29-1.925 6.404-4.441 3.165 2.009 3.165 2.009 1.813.375-.696 1.867-2.407 2.747a1.603 1.603 0 0 1 1.665.574c1.219.768-.388 1.642-.388 1.642 2.065 1.858-4.586 3.314-4.586 3.314.038.034.052.066.084.1.767-.373 1.421-.386 1.58.507 0 0 1.39-.8 1.403.495a1.458 1.458 0 0 1-.34 1.538c1.45-.879 3.722-2.076 3.164-.516 0 0 6.314.625.039 3.368 0 0 2.095 2.435-3.416 2.339 0 0 0 .068-.008.169.32.381.642.76.96 1.14.705.842.964 1.968.695 3.031-.298 1.113-.643 2.315-1.084 3.505a15.84 15.84 0 0 0-1.434 6.247c.09 1.327.252 2.647.487 3.955.075-.43.365-.79 1.219-.651.822-.14 1.653.19 2.154.852-.902-2.216-2.04-5.629.086-4.478 0 0 2.556-8.527 4.921.786 0 0 4.099-2.268 2.507 5.28 0 0 4.175.571-.271 5.03.127.28.213.576.255.88a69.335 69.335 0 0 1 4.365-2.836c-.466-2.267 2.278-3.252 2.278-3.252-2.063-4.312 1.876-4.818 1.876-4.818 1.5-5.97 4.288-2.983 4.288-2.983 5.803-5.394 6.042-.904 6.042-.904 9.514-3.237 3.393 3.467 3.393 3.467zm-25.898 32.56c.474-.019.942-.038 1.362-.058l2.06-.044c.504-.012.787-.009.787-.009a18.48 18.48 0 0 0-2.823-.517c-.423-.033-.895-.099-1.384-.113-.298-.016-.61-.02-.918-.03l-.095.72c0 .038-.013.075-.018.112.348-.023.7-.05 1.03-.061zm-82.026-.772c-.249-.006-.507-.019-.749-.019-.537-.008-1.06.022-1.557.05-.49.014-.962.08-1.383.114-.954.098-1.898.271-2.823.517 0 0 .283 0 .788.01.505.008 1.21.024 2.06.043.421.02.887.038 1.361.059.475.02.994.057 1.522.089.299.009.604.036.909.064l-.128-.927zm-13.42-25.665c-.292-.396-.653-.748-1.012-1.141-.36-.394-.77-.743-1.187-1.123-.417-.358-.865-.708-1.314-1.062-.474-.319-.92-.659-1.402-.948a23.076 23.076 0 0 0-1.414-.84 23.508 23.508 0 0 0-1.37-.702c-.43-.226-.86-.396-1.248-.56a18.174 18.174 0 0 0-2.71-.916s.247.134.674.389c.428.255 1.03.599 1.748 1.022.358.217.74.46 1.15.709.41.248.827.518 1.263.799.437.28.873.593 1.329.89.455.296.876.638 1.334.946.435.332.873.66 1.292.996.397.357.836.667 1.2 1.02.199.198.397.375.596.552.617.32 1.209.649 1.802.975-.215-.327-.468-.658-.731-1.006zm9.486 12.672c-.507-.02-1.034.045-1.568.078-.55.05-1.1.136-1.67.228-.56.11-1.122.236-1.684.368-.55.159-1.108.304-1.64.485-.532.181-1.058.367-1.557.569-.5.201-.976.414-1.415.616-.44.201-.854.424-1.228.613a17.95 17.95 0 0 0-2.397 1.5l.722-.271c.466-.174 1.135-.42 1.928-.712.397-.143.826-.288 1.292-.45.447-.157.927-.316 1.426-.475.497-.175 1.022-.308 1.541-.475.52-.167 1.066-.297 1.598-.438.552-.135 1.087-.276 1.622-.396.545-.08 1.06-.227 1.58-.296.52-.07 1.018-.18 1.492-.213s.922-.099 1.346-.115c.423-.015.803-.018 1.149-.04.166-.006.332-.003.497.008-.127-.125-.25-.248-.38-.37-.03 0-.055-.015-.087-.019-.347-.047-.746-.106-1.18-.149-.433-.042-.887-.034-1.385-.046h-.002zm3.789-3.348c-.12-.385-.213-.813-.34-1.246-.126-.433-.18-.917-.304-1.397-.099-.487-.136-1-.238-1.509a36.063 36.063 0 0 1-.172-1.569c-.031-.53-.094-1.06-.107-1.582-.012-.522-.057-1.04-.055-1.533.002-.493-.02-.982-.014-1.448.005-.467 0-.89 0-1.292.029-.808.04-1.483.052-1.951.01-.469.024-.746.024-.746a16.044 16.044 0 0 0-.67 2.646c-.064.4-.153.835-.191 1.304-.04.469-.11.959-.13 1.47-.022.51-.04 1.036-.035 1.581.004.545.051 1.088.08 1.63.06.548.131 1.087.208 1.625.108.533.199 1.057.346 1.555.126.484.28.961.461 1.428.134.338.262.654.398.955.32.28.64.561.95.843a11.002 11.002 0 0 0-.26-.764h-.003zm1.853 2.285c.079.077.148.156.226.233.058-.171.111-.349.17-.518.039-.115.083-.23.122-.345-.184.232-.361.448-.515.63h-.003zm72.638 37.596a140.3 140.3 0 0 1-1.105-.758l-.675.09c.14.073.289.157.417.225.58.296 1.182.544 1.801.743 0 0-.156-.105-.435-.3h-.003zm-84.287-4.592c-1.951-.513-2.026-.488-3.235 1.201a3.021 3.021 0 0 0-.176.263c-2.858 4.647-3.423 9.753-2.982 15.048.112.408.418.735.818.875a1276.982 1276.982 0 0 0 16.35 4.559c1.323.363 2.695.539 4.055.8-.013.112-.013.225-.026.339h-6.86l-.113.338c1.612.926 3.222 1.839 4.97 2.84-1.044.403-2.026.777-2.982 1.153.34 1.452.643 2.892 1.045 4.295.136.403.445.724.844.876a153.605 153.605 0 0 0 21.801 4.331c1.623.198 3.248.376 4.86.577.011.124.011.263.011.395-2.82.227-5.64.452-8.559.692.264.45.504.953.818 1.415a17.353 17.353 0 0 0 8.459 6.347 28.132 28.132 0 0 0 12.511 1.437 21.322 21.322 0 0 0 11.582-4.152 12.71 12.71 0 0 0 3.825-4.419c-2.025-.439-3.95-.852-5.879-1.276 4.447-.864 8.847-1.477 13.205-2.342 5.136-1.014 10.207-2.253 15.309-3.417a1.17 1.17 0 0 0 .83-.513c.189-1.466.29-2.943.416-4.37-1.272-.326-2.417-.625-3.688-.951 1.774-1.04 3.36-1.967 4.934-2.893-.052-.113-.1-.237-.152-.35h-6.746c0-.087-.013-.187-.013-.276.453-.062.92-.137 1.372-.213a148.988 148.988 0 0 0 18.417-4.706 1.15 1.15 0 0 0 .98-1.277c-.012-1.99.138-4.005-.024-5.984a22.23 22.23 0 0 0-3.248-9.765 1.087 1.087 0 0 0-1.536-.593 32.43 32.43 0 0 1-3.611.977 158.509 158.509 0 0 1-10.537 2.004c.417.296.49.608-.155.89 0 0 3.904 4.972-2.423 2.352 0 0-.323 3.187-4.06-.846 0 0-1.618 1.634-2.524-1.186-4.507.494-9.03.845-13.566 1.102l-.144.036c-2.97.712-5.954 1.384-8.847 2.064l-4.042.928c-.24.054-.483.084-.729.088a4.042 4.042 0 0 1-.969-.127 587.4 587.4 0 0 1-2.657-.637 203.54 203.54 0 0 0-5.538-1.302 289.39 289.39 0 0 1-4.529-.989c-.18-.01-.363-.014-.544-.025a.044.044 0 0 0-.037-.014 182.62 182.62 0 0 1-11.656-1.063c-1.235-.154-2.465-.334-3.697-.505-.87 3.438-2.654 1.63-2.654 1.63-3.736 4.032-4.06.845-4.06.845-6.326 2.62-2.422-2.353-2.422-2.353-1.033-.46-.232-.981.9-1.406-4.262-.749-8.495-1.645-12.692-2.747zm81.07 2.274c-.125-.099-.25-.198-.38-.297-.298-.226-.57-.484-.87-.72-.283-.253-.568-.494-.835-.752-.05-.051-.1-.099-.15-.148-.2.12-.398.23-.597.345.09.099.17.192.264.29.268.27.56.535.85.8.258.202.504.406.76.6.32-.04.646-.077.96-.119l-.002.001zm-4.524.562a1.634 1.634 0 0 1-.497-.975 37.65 37.65 0 0 1-3.301 1.362c1.283-.121 2.55-.251 3.8-.39l-.002.003zm-52.221-1.315a30.816 30.816 0 0 1-1.889-.996 2.18 2.18 0 0 1-.044 2c1.724.215 3.48.416 5.277.592.188.02.383.034.572.053-.047-.02-.099-.035-.145-.053a41.09 41.09 0 0 1-3.368-1.41l-.403-.014.003-.173h-.003zm-3.106-1.739c-.167-.106-.337-.211-.497-.32-.087.092-.168.18-.255.277-.234.263-.519.5-.776.767-.258.267-.554.495-.837.753-.28.22-.534.455-.81.67l.934.136c.113-.093.227-.18.344-.272.291-.265.581-.53.85-.8.268-.27.53-.552.764-.836.101-.13.187-.252.285-.376l-.002.001zm-7.616.292c-.54-.731-.08-1.193.72-1.483 0-.047-.015-.079-.014-.13 0 0-2.892 1.93-4.51 2.013.953.197 1.944.38 2.936.564-.21-.642.87-.965.87-.965l-.002.001zm.343 4.82c.62-.198 1.223-.447 1.802-.744.256-.132.54-.267.827-.445.13-.074.267-.165.403-.244-.263-.04-.524-.087-.787-.13-.23.165-.45.33-.657.473-.469.326-.87.6-1.149.791-.278.192-.436.298-.436.298l-.003.001zm-2.321-10.658c-.442-.023-.871-.02-1.293-.01-.421.008-.823.033-1.2.066-.39.013-.74.069-1.072.108a13.75 13.75 0 0 0-2.176.44s.223-.005.606 0c.384.005.942 0 1.6.007.327 0 .684.02 1.062.025.38.004.767.027 1.176.043.41.016.831.055 1.255.075.423.021.856.086 1.292.118.43.054.86.099 1.277.167.42.086.84.125 1.231.218.348.086.687.146 1.01.225-.252-.28-.498-.57-.733-.862l-.11-.036c-.407-.116-.827-.197-1.267-.296-.44-.1-.877-.132-1.322-.2-.454-.03-.892-.08-1.336-.088zm1.528-33.4c.307-.012.612.046.894.168.344-1.007.67-2.01.977-3.01a25.89 25.89 0 0 1-1.87 2.841h-.001zm.69-27.585c-.37-.058-.737-.099-1.094-.16-.357-.06-.696-.111-1.016-.172-.32-.062-.63-.114-.914-.168a141.247 141.247 0 0 1-1.887-.394c.573.31 1.172.573 1.789.784.273.094.568.205.895.288.327.083.659.198 1.019.273.36.075.724.163 1.108.224.384.061.765.105 1.157.16.398.026.786.053 1.168.06.178 0 .342-.01.514-.013.064-.074.123-.15.187-.225l.355-.418c-.333.006-.68-.027-1.032-.03-.37-.015-.747-.052-1.126-.08-.379-.051-.75-.067-1.123-.127v-.002zm4.78-3.015c-.03-.182-.046-.428-.11-.692-.065-.264-.148-.553-.237-.878-.09-.324-.24-.654-.378-1.014s-.344-.715-.53-1.088c-.188-.372-.425-.732-.663-1.112-.237-.38-.502-.73-.765-1.093-.29-.346-.557-.7-.856-1.024-.3-.324-.588-.64-.884-.936a17.086 17.086 0 0 0-.877-.817c-.279-.271-.561-.487-.819-.697a13.753 13.753 0 0 0-1.823-1.261s.158.158.42.436c.261.278.647.681 1.098 1.157.224.237.457.507.715.782.257.275.51.57.78.875.269.305.533.635.81.956.278.32.53.675.808 1.01.256.345.519.691.76 1.032.226.362.487.692.69 1.038.203.345.43.676.604 1 .175.324.344.635.482.922.139.288.26.564.371.81.078.17.147.342.207.518.067.039.135.085.199.13.003-.02 0-.033-.001-.052l-.001-.002zm.093-3.17c-.016.02-.027.04-.042.061.128.097.25.204.362.318a20.59 20.59 0 0 1-.32-.376v-.002zm.68 3.579c-.036.045-.068.09-.11.135.029.023.054.05.08.073l.1-.12c-.021-.029-.047-.057-.07-.086v-.002zm3.653-5.932a15.32 15.32 0 0 0-.16-1.207 19.73 19.73 0 0 0-.221-1.113c-.066-.357-.162-.68-.246-.983a12.592 12.592 0 0 0-.716-1.977s.036.207.082.57c.046.362.118.874.204 1.49.039.304.07.638.114.988.045.35.075.72.112 1.103.038.382.057.78.09 1.18.035.4.028.807.058 1.213.005.409.014.817.005 1.212v.128l.191-.226c.172-.195.362-.373.569-.53 0-.198.01-.396.01-.603-.035-.414-.042-.831-.092-1.242v-.003zm26.377-3.53c-.31-.245-.62-.495-.936-.728-.439-.325-.887-.634-1.324-.959a1.204 1.204 0 0 0-1.44 0 .823.823 0 0 0-.316.655.847.847 0 0 1-.218.547c-.056-.146-.112-.281-.16-.42a.443.443 0 0 0-.156-.222.318.318 0 0 1-.051-.506 5.68 5.68 0 0 1 .676-.676l.05-.042a3.055 3.055 0 0 1-.221-.256.472.472 0 0 0-.382-.212 2.334 2.334 0 0 0-.696.008 1.004 1.004 0 0 0-.696.505 4.089 4.089 0 0 1-.36.535.256.256 0 0 0-.042.25.52.52 0 0 0 .244.302c.244.146.452.344.61.58a.398.398 0 0 0 .15.098l1.138.593c.128.067.255.133.378.206.084.04.175.06.268.058.245.017.49.046.731.088l1.418-.174h1.605c-.086-.074-.177-.156-.27-.228v-.003zm8.024-.545a.361.361 0 0 0 .15-.099c.158-.235.367-.433.61-.579a.522.522 0 0 0 .243-.302.255.255 0 0 0-.04-.25 4.226 4.226 0 0 1-.362-.535 1 1 0 0 0-.696-.505 2.324 2.324 0 0 0-.693-.006.47.47 0 0 0-.382.212c-.069.092-.142.18-.22.264.018.018.033.03.048.042.245.206.472.432.68.676a.318.318 0 0 1-.053.506.438.438 0 0 0-.157.222c-.046.14-.099.275-.16.42a.846.846 0 0 1-.216-.547.82.82 0 0 0-.317-.655 1.206 1.206 0 0 0-1.439 0c-.436.325-.885.634-1.324.96-.317.236-.627.482-.938.726-.094.074-.187.158-.285.242h.738l.754.088c.411.052.82.097 1.23.136a5.848 5.848 0 0 1 1.042-.15.572.572 0 0 0 .265-.059 8.1 8.1 0 0 1 .379-.206l1.143-.6zm16.617-.395c-.084.302-.18.626-.246.983-.067.356-.167.723-.222 1.11-.055.388-.12.792-.16 1.207-.039.415-.056.828-.089 1.253 0 .348.006.692.018 1.029.186 0 .376.006.558.006h.193V18.22c.03-.405.02-.812.056-1.213.037-.4.048-.798.093-1.18.045-.383.065-.753.11-1.103s.076-.686.114-.988c.088-.615.153-1.13.204-1.49l.082-.57a12.661 12.661 0 0 0-.711 1.976v-.005zM89.251 41.23a5.448 5.448 0 0 0-.276 2.238c.183.32.51.532.88.57.407.014.809.1 1.186.253v-20.39c.41.017.818.027 1.226.027V45.44c.145.33.239.68.278 1.037a.618.618 0 0 1-.086.44c-.062.056-.13.115-.191.172v16.076c-.409-.084-.816-.176-1.225-.264v-14.71l-.994.885a2.682 2.682 0 0 1-1.261 2.983c-.193.142-.398.297-.597.446v9.788c-.407-.087-.816-.173-1.227-.258v-8.977a1.865 1.865 0 0 1-1.551-.669c.2.496.296 1.027.284 1.56a4.175 4.175 0 0 1-1.582 1.701v5.81c-.411-.08-.819-.16-1.227-.237v-5.346a3.74 3.74 0 0 1-1.755-1.643c-.37 0-.738-.027-1.098-.037v6.552c-.408-.062-.816-.12-1.227-.175v-6.269c-.782.184-1.548.531-2.505.867l-.339-.18v5.058c.25.174.516.323.795.444-1.939-.316-3.9-.48-5.865-.495a33.65 33.65 0 0 0-3.293.187 6.839 6.839 0 0 0 1.612-1.011c.71-.6 1.005-4.229.412-4.956a3.934 3.934 0 0 0-1.821-1.125v6.973a55.75 55.75 0 0 0-1.228.089v-7.373a1.346 1.346 0 0 0-.859.51 4.349 4.349 0 0 1-1.988 1.087v6.061c-.407.052-.816.112-1.227.17V54.65a7.237 7.237 0 0 1-1.251-.672c-.444-.206-.903-.376-1.52-.632.174-.974.364-1.937.507-2.913a.699.699 0 0 0-.223-.563c-.118-.022-.241-.036-.362-.055v11.243c-.41.071-.818.139-1.228.213V49.952a1.58 1.58 0 0 1-.625.495c-.468.1-.955-.01-1.335-.297a1.375 1.375 0 0 0-.89-.869v12.537l-1.228.247V49.397l-.233.065c-.51.137-.836.341-.863-.441a.492.492 0 0 0-.046-.212c-1.353-.026-.862-1.713-1.708-2.148v15.996l-1.227.256v-39.02c-.95.027-1.9.012-2.85.023V63.5c-.41.084-.818.166-1.227.245V24.363c.018-.02.037-.041.053-.061a1.08 1.08 0 0 1 .68-.384h.447-.468c-.267.04-.51.177-.681.384-1.643 1.909-3.269 3.835-4.898 5.755-.77.905-1.55 1.8-2.286 2.727v1.271c.522 1.673 1.08 3.334 1.603 5.004.746 2.49.878 5.123.384 7.675-.84 4.86-2.648 9.425-4.253 14.05a29.489 29.489 0 0 0-1.739 7.25 16.74 16.74 0 0 0-.05.867c-.005.157-.11 1.257-.11 1.653v1.213c0 .45.099 1.977.147 2.294.099.673.205 1.344.327 2.012a19.862 19.862 0 0 0 3.806 8.154c3.054 4.173 7.346 6.462 12.094 8.113a94.711 94.711 0 0 0 11.377 2.917c2.591.552 5.161 1.219 7.745 1.829a1.669 1.669 0 0 0 .521.041c4.931-1.144 9.873-2.252 14.786-3.47a36.353 36.353 0 0 0 10.643-4.129 20.629 20.629 0 0 0 9.811-13.984c.1-.506.17-1.017.24-1.527.043-.297.127-1.475.127-1.762v-1.66c0-.41-.09-1.978-.136-2.35a99.155 99.155 0 0 0-.199-1.555 33.014 33.014 0 0 0-1.662-6.186v4.702c-.408-.039-.818-.086-1.228-.132V57.05a59.015 59.015 0 0 1-2.4-7.915 45.046 45.046 0 0 1-.449-2.543v18.106c-.41-.06-.818-.121-1.226-.19V29.05c-.953-1.127-1.905-2.254-2.856-3.383v38.327l-1.228-.24V24.26a1.547 1.547 0 0 0-1.133-.337 34.325 34.325 0 0 1-5.93-.304l.135.023V39.58c.255.21.53.396.818.556.502.313.491.517.246 1.095zm-1.943-17.742c-1.09-.2-2.159-.5-3.192-.897v9.746c.43.242.976.297 1.401.55.269 2.165.332 2.29 1.03 2.544l.418.79V23.428c.114.024.232.038.343.06zm-4.42 7.508v-8.922a20.474 20.474 0 0 0-2.848-1.055v9.83a6.327 6.327 0 0 1 2.848.146v.001zm-4.075.32V20.699a27.97 27.97 0 0 0-2.849-.522v8.206c.696.585 1.048 1.664 1.68 2.364.317.308.726.507 1.165.569h.004zm-4.418 22.866a5.602 5.602 0 0 0 .339 4.527v-4.35l-.34-.177zm.339-26.19v-7.96c-.042 0-.083-.01-.125-.014-.72-.061-1.438-.16-2.158-.238h-.57v7.06c.696.362 1.453.752 2.222 1.148a.34.34 0 0 0 .212.035 2.31 2.31 0 0 1 .419-.03v-.001zM51.618 42.03c.3-.435.7-.793 1.165-1.048.468-.344.91-.725 1.319-1.137-.053-.109-.1-.218-.156-.328l.397.06V23.465c.413-.08.822-.176 1.228-.286v14.516c.187-.384.513-.683.912-.839-.317-1.296-.198-1.419.895-1.171.347.035.697.023 1.04-.035v-.125c-.173-.339-.31-.61-.472-.921.161-.017.32-.053.473-.108V22.15c.408-.162.815-.325 1.228-.472v12.23a1.319 1.319 0 0 1 1.817.364 7.719 7.719 0 0 1 .238-2.489c.21-.542.476-1.06.796-1.546v-9.434c.408-.108.814-.225 1.227-.314v8.977c.377-.13.718-.346.994-.632.43-.58 1.14-.89 1.861-.809v-8.008l1.228-.16v8.438c.665.212 1.581.517 2.1-.68a1.59 1.59 0 0 1 .752-.634v-7.204h-2.223c-.857.112-1.714.222-2.572.332a32.68 32.68 0 0 0-8.543 2.465 19.158 19.158 0 0 1-6.54 1.306h-.159.181c.232-.013.46-.037.69-.055v18.432c.037-.076.078-.151.123-.224v-.001zm-.123 2.152v2.274c.267-.598.504-1.133.734-1.653a1.694 1.694 0 0 1-.734-.62zm14.818 7.655l.264.053v-.395l-.264.342zm1.49-.565v.865l2.317.462c-.12-.692-.218-1.26-.346-2.013-.747.501-1.375 1.018-1.97.686zM101.57 36.61c.378-1.01.677-2.052.959-3.09a.941.941 0 0 0-.184-.737c-.637-.761-1.28-1.519-1.92-2.274v9.661a30.282 30.282 0 0 1 1.145-3.56zm-3.01-9.294c-.034-.083-.072-.15-.1-.243l-.078.029.177.214zm-1.51-4.152a21.05 21.05 0 0 1-1.024 1.145l.018.032c.309-.333.684-.712 1.084-1.074l-.079-.103zm.919-3.864c-.123.147-.23.273-.32.378.113-.115.235-.221.364-.319-.018-.015-.027-.033-.044-.054V19.3zm-.406 6.334c-.172-.027-.322-.045-.475-.064l.39.462h.008c.286.081.603.133.936.198.333.065.69.084 1.06.12.084.006.175 0 .26.006l-.538-.638c-.248 0-.497 0-.727-.015-.32-.026-.63-.032-.914-.064v-.005zm5.428-10.53c.27-.305.526-.603.778-.876.253-.273.492-.545.717-.782.452-.474.828-.875 1.098-1.156.27-.28.419-.437.419-.437-.641.372-1.25.794-1.823 1.264-.258.21-.54.425-.818.692-.285.25-.59.517-.877.818-.286.3-.596.602-.883.936-.286.334-.566.676-.856 1.021-.263.365-.528.729-.766 1.095-.238.365-.465.738-.662 1.11-.197.374-.388.73-.531 1.088-.077.204-.142.386-.214.576.08.083.17.148.247.24l.127.15c.12-.229.247-.46.372-.711.175-.325.403-.648.605-1.001.202-.353.464-.674.69-1.036.242-.343.497-.692.76-1.033.278-.334.526-.686.807-1.01.28-.323.534-.642.81-.943v-.005zm2.08 10.56c.326-.083.622-.197.895-.286a11.928 11.928 0 0 0 1.785-.784s-.186.042-.521.11c-.335.066-.806.167-1.367.281-.284.053-.592.105-.914.167-.322.062-.663.116-1.016.174-.353.058-.706.099-1.067.156.167.198.332.396.497.594.231-.046.467-.087.689-.14.36-.07.7-.172 1.02-.268v-.004zm3.314 44.275c-.113-.939-.214-1.879-.351-2.817a36.512 36.512 0 0 0-1.916-6.998 90.208 90.208 0 0 1-3.648-11.48 40.231 40.231 0 0 1-.83-6.01 17.76 17.76 0 0 1 1.56-7.187c.39-1.063.726-2.145 1.006-3.242a1.002 1.002 0 0 0-.19-.776c-.762-.91-1.526-1.817-2.294-2.722a2.08 2.08 0 0 1-1.778.25 985.87 985.87 0 0 1 2.883 3.42c.295.365.408.843.31 1.3-.28 1.02-.588 2.103-.98 3.147a16.43 16.43 0 0 0-1.445 6.571 37.96 37.96 0 0 0 .774 5.607 64.349 64.349 0 0 0 2.67 8.653c.26.725.524 1.45.78 2.175a35.342 35.342 0 0 1 1.845 6.763c.072.49.134.979.193 1.47l.073.608.077 1.894v1.663l-.108 1.702c-.08.576-.157 1.154-.268 1.725A21.264 21.264 0 0 1 96.656 90.06a37.514 37.514 0 0 1-10.824 4.208c-3.678.913-7.441 1.78-11.076 2.614l-3.717.857a1.293 1.293 0 0 1-.29.032 2.217 2.217 0 0 1-.527-.075 312.06 312.06 0 0 1-2.634-.636c-1.69-.412-3.388-.825-5.091-1.186a95.287 95.287 0 0 1-11.452-2.94c-5.841-2.03-9.663-4.599-12.396-8.334a20.303 20.303 0 0 1-3.916-8.411 80.82 80.82 0 0 1-.33-2.03l-.149-1.78v-1.821l.059-1.516a1.4 1.4 0 0 0 .044-.16c.007-.273.021-.544.043-.814a29.976 29.976 0 0 1 1.778-7.488c.277-.797.557-1.592.84-2.386a70.694 70.694 0 0 0 3.38-11.568 15.39 15.39 0 0 0-.363-7.382c-.26-.829-.53-1.657-.796-2.483a165.838 165.838 0 0 1-.978-3.06c-.11-.451-.01-.928.27-1.3.58-.723 1.178-1.423 1.774-2.122l1.447-1.704a654.032 654.032 0 0 1 3.994-4.684 1.693 1.693 0 0 1 1.138-.602c.326-.01.652-.013.976-.013l1.509.007c.462 0 .921-.006 1.38-.03A18.28 18.28 0 0 0 57.077 22a32.896 32.896 0 0 1 8.708-2.51l2.57-.332 4.096-.005.765.085a47.3 47.3 0 0 0 1.448.157 24.74 24.74 0 0 1 8.656 2.18 21.417 21.417 0 0 0 9.401 1.736c.416 0 .833-.006 1.254-.015h.01c.442-.019.882.084 1.27.297l-.602-.713c-.015-.068-.024-.123-.042-.198-.033-.177-.06-.378-.087-.572-3.713.035-7.372-.246-10.818-1.883a25.634 25.634 0 0 0-8.888-2.24c-.755-.064-1.51-.164-2.278-.251h-4.22c-.906.113-1.811.238-2.705.35a34.627 34.627 0 0 0-9 2.591 19.906 19.906 0 0 1-6.885 1.378c-1.36.075-2.719 0-4.076.037-.28.044-.535.186-.719.402-1.736 2.015-3.447 4.043-5.16 6.058-.805.951-1.636 1.903-2.416 2.88a1.011 1.011 0 0 0-.177.775c.605 1.941 1.258 3.881 1.874 5.82a17.06 17.06 0 0 1 .405 8.088c-.882 5.108-2.783 9.917-4.473 14.787a31.072 31.072 0 0 0-1.834 7.613 18.32 18.32 0 0 0-.055.94c0 .161-.113 1.842-.113 1.842s.09 3.174.136 3.46c.115.748.231 1.495.366 2.242.05.273.106.54.168.806a21.417 21.417 0 0 0 3.838 7.775c3.21 4.394 7.73 6.81 12.724 8.55A101.265 101.265 0 0 0 62.2 97.197c.442.098.895.197 1.335.296 2.278.514 4.544 1.088 6.823 1.629.061.012.128.022.199.032.15 0 .298-.014.454-.02 2.33-.542 4.655-1.076 6.977-1.602 2.832-.65 5.666-1.314 8.485-2.016a38.64 38.64 0 0 0 11.2-4.356 21.721 21.721 0 0 0 10.333-14.723c.165-.838.254-1.702.379-2.554V69.94zm-1.135 17.697c-.424.007-.843.054-1.274.085-.236.297-.46.598-.71.884l.732-.099c.435-.03.86-.099 1.292-.118.433-.018.846-.065 1.254-.075.407-.01.802-.036 1.176-.043.374-.007.737-.023 1.064-.025.657 0 1.21-.007 1.598-.007h.608a13.784 13.784 0 0 0-2.177-.44c-.332-.04-.683-.099-1.071-.108a13.515 13.515 0 0 0-1.2-.067c-.415 0-.85-.006-1.292.017v-.004zm4.898-38.37a18.712 18.712 0 0 0-.13-1.469c-.037-.469-.128-.904-.192-1.305a16.262 16.262 0 0 0-.668-2.646s.006.274.024.746c.018.471.022 1.142.052 1.951v1.292c0 .458 0 .944-.016 1.447 0 .494-.044 1.01-.054 1.534-.01.524-.075 1.048-.107 1.582-.05.524-.1 1.055-.172 1.57-.1.51-.136 1.022-.24 1.507-.121.48-.176.962-.304 1.4-.128.436-.219.86-.339 1.245-.105.273-.182.52-.26.766.307-.282.629-.564.948-.845.135-.297.262-.616.398-.954.18-.467.334-.943.462-1.427.142-.494.236-1.022.345-1.555.077-.534.147-1.078.209-1.626.028-.545.072-1.092.08-1.63a21.81 21.81 0 0 0-.036-1.584zm-.932 12.4c-.032 0-.056.013-.086.017-.13.125-.253.248-.381.37.155-.008.32-.013.502-.007.344.023.732.033 1.148.041.415.01.878.09 1.344.114.466.025.977.151 1.498.213.52.061 1.035.212 1.581.296.532.115 1.07.257 1.623.39.53.145 1.073.27 1.59.44.517.169 1.05.296 1.545.475.497.16.978.319 1.426.476.465.161.894.306 1.292.45.795.29 1.46.538 1.927.71l.723.27a18.115 18.115 0 0 0-2.4-1.497c-.373-.19-.771-.417-1.225-.613-.438-.198-.91-.425-1.414-.616-.504-.191-1.016-.39-1.56-.57-.543-.179-1.088-.325-1.637-.484a46.764 46.764 0 0 0-1.683-.368 24.214 24.214 0 0 0-1.673-.23c-.532-.032-1.059-.1-1.567-.076-.51.022-.967.005-1.392.055-.426.05-.833.098-1.18.145h-.001zm21.012-19.25c-.388.168-.817.337-1.251.566-.44.209-.91.436-1.367.701-.457.265-.941.532-1.416.838-.48.291-.928.63-1.401.949-.447.356-.895.705-1.313 1.064-.418.38-.824.737-1.193 1.12-.369.384-.72.752-1.013 1.143-.26.351-.514.68-.728 1.002.597-.325 1.186-.654 1.803-.974.198-.179.397-.358.596-.551.364-.356.795-.666 1.2-1.022.412-.335.85-.663 1.285-.996.456-.309.878-.653 1.336-.947.458-.293.885-.615 1.326-.89.442-.274.86-.553 1.265-.797.405-.244.795-.495 1.15-.71.72-.422 1.328-.78 1.75-1.025l.671-.39c-.922.236-1.825.543-2.7.919zM95.647 69.142a11.355 11.355 0 0 1 2.859-1.46 6.488 6.488 0 0 1 4.713.32c.099.734.19 1.468.277 2.203v.562c-.177-.112-.351-.226-.528-.334a4.774 4.774 0 0 0-5.507.277 8.707 8.707 0 0 1-3.181 1.483c-1.493.283-3.04 0-4.334-.791-.566-.32-1.094-.692-1.656-1.016a4.606 4.606 0 0 0-4.871-.017c-.62.349-1.201.768-1.825 1.108a6.168 6.168 0 0 1-6.561-.258c-.41-.25-.805-.522-1.213-.766a4.638 4.638 0 0 0-5.008-.076c-.505.296-.983.628-1.481.924a6.279 6.279 0 0 1-7.036-.167c-.327-.21-.648-.43-.978-.633a4.793 4.793 0 0 0-5.578.158 10.259 10.259 0 0 1-2.642 1.37 5.951 5.951 0 0 1-4.733-.52c-.548-.297-1.063-.641-1.59-.972a4.793 4.793 0 0 0-5.58.088c-.43.284-.86.562-1.31.805v-1.231c.049-.139.082-.282.1-.428.014-.395.066-.782.107-1.171a7.409 7.409 0 0 1 4.317-1.214 7.965 7.965 0 0 1 3.77 1.315c.506.336 1.03.645 1.57.925 1.41.621 3.05.403 4.246-.564a13.94 13.94 0 0 1 2.136-1.175 6.738 6.738 0 0 1 6.189.544c.537.31 1.048.67 1.584.979a3.836 3.836 0 0 0 4.06.013c.562-.323 1.094-.692 1.655-1.016a7.061 7.061 0 0 1 4.127-1.007c1.411.149 2.76.66 3.912 1.483.364.245.742.47 1.13.676a3.822 3.822 0 0 0 3.887-.198c.48-.283.937-.602 1.417-.883a7.073 7.073 0 0 1 8.1.37 6.268 6.268 0 0 0 2.338 1.096 4.209 4.209 0 0 0 3.112-.806l.006.004zM42.113 29.153l1.227-1.441v36.564c-.409.073-.818.144-1.227.214V29.153zm-4.075 28.12a144.02 144.02 0 0 0 1.227-3.602v11.246c-.41.054-.817.099-1.227.142v-7.786zm8.142 16.451a16.9 16.9 0 0 0 1.57.924 4.113 4.113 0 0 0 4.246-.564c.676-.453 1.39-.847 2.136-1.175a6.735 6.735 0 0 1 6.189.545c.537.307 1.048.667 1.584.978a3.83 3.83 0 0 0 4.06.013c.562-.32 1.094-.692 1.655-1.015a7.065 7.065 0 0 1 4.127-1.008 8.21 8.21 0 0 1 3.912 1.483c.364.246.741.47 1.13.674a3.818 3.818 0 0 0 3.887-.197c.48-.283.937-.602 1.417-.884a7.071 7.071 0 0 1 8.1.372 6.29 6.29 0 0 0 2.338 1.095 4.213 4.213 0 0 0 3.113-.81A11.347 11.347 0 0 1 98.5 72.7a6.494 6.494 0 0 1 4.771.34c.078.034.15.08.224.116v.48c-.1.656-.179 1.312-.298 1.965l-.235-.15a4.77 4.77 0 0 0-5.507.275 8.67 8.67 0 0 1-3.181 1.483 6.116 6.116 0 0 1-4.334-.79c-.566-.319-1.094-.693-1.656-1.015a4.608 4.608 0 0 0-4.871-.019c-.62.351-1.201.768-1.825 1.108a6.16 6.16 0 0 1-6.561-.258c-.41-.249-.805-.522-1.213-.767a4.639 4.639 0 0 0-5.008-.075c-.505.297-.983.627-1.481.924a6.278 6.278 0 0 1-7.036-.167c-.327-.207-.648-.428-.978-.63a4.793 4.793 0 0 0-5.578.157 10.32 10.32 0 0 1-2.642 1.37 5.953 5.953 0 0 1-4.733-.522c-.548-.291-1.063-.64-1.59-.97a4.793 4.793 0 0 0-5.58.09c-.299.197-.597.38-.895.562-.145-.82-.267-1.65-.398-2.472a7.533 7.533 0 0 1 4.508-1.33 7.923 7.923 0 0 1 3.775 1.32h.002zm0 5.022c.506.336 1.03.645 1.57.925 1.41.62 3.05.402 4.246-.564.676-.453 1.39-.847 2.136-1.176a6.737 6.737 0 0 1 6.189.545c.537.31 1.048.67 1.584.98a3.837 3.837 0 0 0 4.06.012c.562-.323 1.094-.692 1.655-1.017a7.066 7.066 0 0 1 4.127-1.007 8.23 8.23 0 0 1 3.912 1.483c.364.246.741.472 1.13.677a3.821 3.821 0 0 0 3.887-.198c.48-.283.937-.602 1.417-.883a7.071 7.071 0 0 1 8.1.37 6.284 6.284 0 0 0 2.335 1.094 4.209 4.209 0 0 0 3.113-.81A11.355 11.355 0 0 1 98.5 77.72a6.446 6.446 0 0 1 4.167.12 19.324 19.324 0 0 1-.795 2.142 4.813 4.813 0 0 0-4.421.765 8.7 8.7 0 0 1-3.181 1.483 6.134 6.134 0 0 1-4.334-.786c-.566-.32-1.094-.692-1.656-1.015a4.609 4.609 0 0 0-4.871-.02c-.62.352-1.201.77-1.825 1.11a6.163 6.163 0 0 1-6.561-.258c-.41-.25-.805-.522-1.213-.766a4.639 4.639 0 0 0-5.008-.076c-.505.296-.983.627-1.481.923a6.276 6.276 0 0 1-7.036-.166c-.327-.209-.648-.428-.978-.632a4.793 4.793 0 0 0-5.578.156 10.244 10.244 0 0 1-2.642 1.373 5.952 5.952 0 0 1-4.733-.521c-.548-.297-1.063-.641-1.59-.971a4.728 4.728 0 0 0-5.083-.198 16.123 16.123 0 0 1-.882-2.14 6.99 6.99 0 0 1 3.6-.811 7.953 7.953 0 0 1 3.779 1.314h.002zm0 5.021c.506.337 1.03.645 1.57.924a4.113 4.113 0 0 0 4.246-.564 13.852 13.852 0 0 1 2.134-1.174 6.737 6.737 0 0 1 6.188.544c.538.31 1.048.669 1.59.98a3.835 3.835 0 0 0 4.06.012c.563-.32 1.093-.692 1.655-1.015a7.058 7.058 0 0 1 4.126-1.008c1.411.15 2.759.66 3.911 1.483.364.246.741.471 1.13.674a3.815 3.815 0 0 0 3.887-.197c.48-.282.939-.6 1.416-.883a7.072 7.072 0 0 1 8.101.37 6.2 6.2 0 0 0 2.338 1.095 4.202 4.202 0 0 0 3.113-.808c.878-.619 1.84-1.11 2.859-1.46a6.67 6.67 0 0 1 2.037-.274c-.637 1-1.37 1.935-2.187 2.794a6.9 6.9 0 0 0-.895.507 8.67 8.67 0 0 1-3.176 1.483 6.12 6.12 0 0 1-4.334-.79c-.566-.319-1.094-.693-1.658-1.015a4.608 4.608 0 0 0-4.871-.019c-.62.351-1.2.77-1.824 1.109a6.16 6.16 0 0 1-6.561-.257c-.41-.25-.807-.522-1.215-.768a4.645 4.645 0 0 0-5.007-.077c-.504.297-.981.629-1.481.925a6.278 6.278 0 0 1-7.036-.165c-.326-.21-.647-.429-.978-.634a4.793 4.793 0 0 0-5.578.159 10.27 10.27 0 0 1-2.641 1.371 5.947 5.947 0 0 1-4.734-.523c-.546-.29-1.063-.64-1.59-.969a5.393 5.393 0 0 0-2.17-.812c-.273-.319-.544-.635-.796-.981-.304-.416-.591-.84-.87-1.266a6.32 6.32 0 0 1 1.473-.093 7.954 7.954 0 0 1 3.767 1.321l.001.001zm7.953 4.206a6.736 6.736 0 0 1 6.188.545c.537.308 1.048.67 1.584.979a3.834 3.834 0 0 0 4.06.013c.563-.322 1.094-.693 1.655-1.016a7.052 7.052 0 0 1 4.127-1.007 8.24 8.24 0 0 1 3.911 1.483c.364.246.741.472 1.13.677a3.822 3.822 0 0 0 3.887-.198c.48-.282.937-.6 1.417-.883a7.072 7.072 0 0 1 8.1.37 7.5 7.5 0 0 0 1.77.941 29.35 29.35 0 0 1-2.768 1.157 22.63 22.63 0 0 0-.905-.558 4.604 4.604 0 0 0-4.87-.02c-.619.349-1.2.768-1.823 1.11a6.165 6.165 0 0 1-6.561-.26c-.412-.25-.807-.521-1.215-.766a4.634 4.634 0 0 0-5.013-.073c-.505.29-.983.626-1.482.922a6.275 6.275 0 0 1-7.036-.168c-.327-.208-.648-.428-.978-.63a4.793 4.793 0 0 0-5.578.155c-.266.18-.535.35-.808.513-.015-.007-.031-.008-.047-.014a36.388 36.388 0 0 1-3.044-1.207 5.591 5.591 0 0 0 2.156-.89 13.788 13.788 0 0 1 2.14-1.176l.003.001zm-18.668 16.84c-.37.072-.742.14-1.114.207a3.393 3.393 0 0 0-.469-1.08 1.738 1.738 0 0 0-.71-.618 3.737 3.737 0 0 0-.984-.288c-.411-.07-.822-.138-1.232-.209l-.342 1.962c.136.025.27.047.407.07.208.049.422.062.634.038a.431.431 0 0 0 .265-.162c.09-.168.144-.351.162-.54l.05-.297 1.034.166c-.181 1.115-.363 2.228-.546 3.339l-1.05-.17.058-.34c.04-.172.04-.35 0-.521a.455.455 0 0 0-.199-.254 2.38 2.38 0 0 0-.641-.166l-.37-.063-.316 1.81a1.202 1.202 0 0 0-.03.355c.016.05.052.09.098.115.117.05.24.084.365.099.23.038.463.076.696.117a3.59 3.59 0 0 0 1.347 0 2.518 2.518 0 0 0 1.062-.54c.338-.284.616-.633.817-1.026l1.02.52c-.506.922-1.018 1.845-1.536 2.768-2.402-.37-4.798-.776-7.19-1.216.066-.362.134-.725.205-1.088l.206.037c.186.045.377.06.567.045a.357.357 0 0 0 .238-.16c.057-.153.096-.312.117-.473l.786-4.28c.04-.151.05-.309.034-.464a.332.332 0 0 0-.123-.186 1.04 1.04 0 0 0-.398-.13l-.358-.066c.068-.362.137-.724.204-1.087 2.23.412 4.465.79 6.703 1.136.176.885.35 1.764.533 2.64zm-11.017-2.843a2.79 2.79 0 0 0-1.392-.636l-1.225-.258c-.135.615-.267 1.231-.397 1.846.615.132 1.23.26 1.847.384a3.419 3.419 0 0 1 2.07 1.118c.434.511.608 1.192.472 1.848a2.257 2.257 0 0 1-1.06 1.506 3.413 3.413 0 0 1-2.538.233 225.53 225.53 0 0 1-4.843-1.043c.081-.36.165-.72.248-1.078l.398.09a.65.65 0 0 0 .527-.019c.12-.156.196-.341.22-.537.322-1.427.644-2.855.968-4.282a.867.867 0 0 0 0-.561.86.86 0 0 0-.547-.258c-.09-.02-.18-.042-.272-.06l.25-1.078c2.215.502 4.435.97 6.66 1.405.139.885.281 1.77.427 2.653-.374.056-.748.11-1.122.163a2.751 2.751 0 0 0-.691-1.436zm-3.762 4.392c.462.099.923.197 1.385.29.379.117.788.082 1.141-.098a1.12 1.12 0 0 0 .398-1.425 1.168 1.168 0 0 0-.447-.468 3.012 3.012 0 0 0-.835-.272l-1.162-.243-.48 2.216zm15.724 15.045a.811.811 0 0 0 .905-.475c.71-1.392 1.41-2.787 2.101-4.186a.92.92 0 0 0 .1-.274c.04-.316-.182-.506-.667-.568l-.379-.05c.048-.363.1-.729.146-1.093 2.53.33 5.064.62 7.602.874l-.11 1.099c-.115-.013-.23-.023-.346-.035a.87.87 0 0 0-.58.063.943.943 0 0 0-.179.579 1951.67 1951.67 0 0 0-.453 4.3.93.93 0 0 0 .062.627c.195.126.424.19.656.185l.252.023c.232.813.465 1.622.7 2.433l-1.192.257a3.107 3.107 0 0 0-.735-1.234 2.806 2.806 0 0 0-1.728-.654c-1.268-.14-2.534-.29-3.8-.45a2.826 2.826 0 0 0-1.83.23 3.18 3.18 0 0 0-1.016 1.03c-.364-.174-.727-.351-1.093-.526.424-.732.844-1.465 1.26-2.2l.324.045zm2.982.242c.976.121 1.953.237 2.931.348l.623-5.453c-.617-.07-1.235-.142-1.853-.215a444.026 444.026 0 0 1-2.197 4.732.721.721 0 0 0-.072.218c-.024.197.16.32.57.37h-.002zm8.827-4.634a1.598 1.598 0 0 0-.616-.138c.036-.364.07-.731.105-1.1 1.408.133 2.818.251 4.23.356-.027.37-.055.734-.084 1.101-.17-.013-.339-.025-.509-.036-.213-.018-.324.047-.338.19a.887.887 0 0 0 .15.46c.404.694.812 1.386 1.225 2.076.398-.654.792-1.31 1.184-1.965.09-.125.157-.264.199-.411.007-.118-.124-.186-.393-.204-.143-.01-.286-.02-.427-.032l.08-1.101c1.155.084 2.31.158 3.464.221l-.062 1.104-.16-.01-.152-.013a.895.895 0 0 0-.851.494 301.514 301.514 0 0 1-3.093 4.863 2.57 2.57 0 0 1-2.509 1.292 2.095 2.095 0 0 1-1.141-.411.972.972 0 0 1-.41-.89.842.842 0 0 1 .335-.616.886.886 0 0 1 .622-.198c.328.034.624.208.813.477a.46.46 0 0 0 .311.203.528.528 0 0 0 .38-.104c.165-.16.303-.344.41-.546.067-.112.132-.225.2-.333a253.433 253.433 0 0 1-2.573-4.227 1.484 1.484 0 0 0-.388-.502h-.002zm9.33 6.364a.69.69 0 0 0 .538-.107 1.03 1.03 0 0 0 .13-.563c.07-1.462.143-2.923.215-4.385a.84.84 0 0 0-.1-.554.922.922 0 0 0-.61-.162l-.29-.017.058-1.102c2.374.124 4.75.214 7.127.27.305.849.613 1.696.924 2.543l-1.128.35a2.8 2.8 0 0 0-.974-1.304 3.105 3.105 0 0 0-1.55-.396c-.436-.015-.874-.03-1.31-.048l-.077 1.887c.659.027 1.315.05 1.973.07a3.706 3.706 0 0 1 2.338.756c.534.418.838 1.063.82 1.739a2.203 2.203 0 0 1-.82 1.663 3.663 3.663 0 0 1-2.572.655 252.994 252.994 0 0 1-5.176-.22l.06-1.1c.142.012.284.018.425.025h-.002zm4.29-.013c.41.05.824-.056 1.159-.297a1.083 1.083 0 0 0 .15-1.47 1.206 1.206 0 0 0-.545-.386 3.352 3.352 0 0 0-.91-.129c-.413-.014-.828-.027-1.24-.045-.03.756-.06 1.513-.093 2.268.495.024.99.043 1.482.06h-.002zm.124 7.304c1.071-1.134 2.098-.066 3.12.309a2.23 2.23 0 0 1 .695-.983c.483.036.949.19 1.357.448.45.198.878.458 1.315.692.696-1.272.74-1.471 4.49-.125-1.34 1.275-3.192 1.62-7.408 1.587.637.167 1.264.388 1.911.495 2.937.505 5.954-.2 8.358-1.952.36-.249.795-.762 1.13-.118.07.404-.073.815-.38 1.088a4.25 4.25 0 0 0-1.938 2.867 2.813 2.813 0 0 1-1.962 2.102c-1.059.34-1.556.112-1.916-.692a14.39 14.39 0 0 1-2.92 1.377c-1.79.409-2.226-.024-2.333-1.815-3.678-.387-4.254-.865-3.062-2.597-.513-.838-1.354-1.728-.455-2.683h-.002zm16.69-7.13c.199.015.398.015.597 0l.04 1.103c-1.14.042-2.278.073-3.415.1-.008-.368-.018-.737-.025-1.104.161.003.322-.018.477-.062a.62.62 0 0 0 .246-.161 1.45 1.45 0 0 0 .205-.389 345.85 345.85 0 0 0 2.472-6.37c.639-.024 1.279-.048 1.918-.08a335.63 335.63 0 0 0 2.905 6.032c.09.224.233.425.415.585.196.081.411.106.62.072.023.367.045.735.066 1.104-1.391.081-2.783.151-4.175.21l-.047-1.103c.084-.005.167-.01.251-.017.166.007.332-.027.482-.099a.234.234 0 0 0 .127-.208 1.602 1.602 0 0 0-.137-.418l-.298-.715c-.885.04-1.771.076-2.653.104l-.298.818a1.181 1.181 0 0 0-.089.34c.002.062.03.12.076.163.07.055.154.087.242.094h-.002zm2.217-2.643c-.31-.718-.622-1.437-.927-2.156l-.795 2.224c.576-.021 1.148-.047 1.724-.068h-.002zm4.307-14.623a3.913 3.913 0 0 1 1.37-1.562 4.513 4.513 0 0 1 4.088-.37c.054-.12.105-.238.16-.357.273-.027.548-.05.823-.075.354.927.712 1.854 1.072 2.779-.353.136-.707.274-1.064.407a5.464 5.464 0 0 0-1.155-1.354 2.161 2.161 0 0 0-1.491-.467 1.969 1.969 0 0 0-1.035.39 2.128 2.128 0 0 0-.717.967 3.19 3.19 0 0 0-.189 1.425c.035.761.328 1.488.831 2.062a2.12 2.12 0 0 0 1.844.746c.475-.04.928-.212 1.31-.494a4.557 4.557 0 0 0 1.269-1.394c.326.189.654.378.983.566a6.58 6.58 0 0 1-1.491 1.79c-.73.547-1.606.87-2.518.93a4.204 4.204 0 0 1-2.177-.379 3.97 3.97 0 0 1-1.625-1.408 4.255 4.255 0 0 1-.286-4.202h-.002zm7.268 9.788c.398.099.759.308 1.042.603.25.262.405.6.44.96a1.6 1.6 0 0 1-.108.765 1.912 1.912 0 0 1-.466.674c-.255.228-.55.407-.87.53.33.038.652.115.963.229.319.125.598.332.81.6a1.8 1.8 0 0 1 .368.933c.04.425-.067.851-.305 1.206a2.56 2.56 0 0 1-1.112.923 6.71 6.71 0 0 1-2.231.474c-1.538.128-3.076.241-4.615.34-.025-.368-.049-.735-.071-1.102.113-.009.231-.015.345-.024.158 0 .315-.028.464-.084a.333.333 0 0 0 .162-.166c.035-.148.041-.302.019-.453-.104-1.479-.206-2.959-.307-4.44 0-.153-.028-.304-.081-.448a.335.335 0 0 0-.18-.142 1.245 1.245 0 0 0-.462-.027l-.337.021-.07-1.101c1.614-.104 3.228-.223 4.84-.358a5.212 5.212 0 0 1 1.765.087h-.003zm-3.015 6.164c.007.144.028.287.064.426a.198.198 0 0 0 .113.1c.132.02.266.02.397 0l.64-.051a3.76 3.76 0 0 0 .917-.172c.238-.082.443-.237.587-.443.153-.214.222-.476.193-.737a.971.971 0 0 0-.237-.581 1.082 1.082 0 0 0-.57-.324 3.669 3.669 0 0 0-1.111-.033c-.374.03-.747.06-1.122.087.041.58.083 1.154.132 1.728h-.003zm-.379-4.832c.052.646.1 1.293.152 1.94.315-.024.632-.048.947-.075a3.76 3.76 0 0 0 1.093-.206 1.05 1.05 0 0 0 .504-.395.84.84 0 0 0 .131-.548.86.86 0 0 0-.216-.522.938.938 0 0 0-.516-.275 4.822 4.822 0 0 0-1.15 0l-.945.081zm5.852-6.896c.16-.007.319-.042.467-.103a.348.348 0 0 0 .157-.192 1.377 1.377 0 0 0-.004-.47c-.156-1.447-.316-2.892-.47-4.336a1.332 1.332 0 0 0-.106-.466.347.347 0 0 0-.186-.163 1.068 1.068 0 0 0-.427-.015 14.24 14.24 0 0 1-.335.034c-.04-.366-.076-.73-.117-1.098a255.64 255.64 0 0 0 3.944-.438l.133 1.097-.26.03a1.523 1.523 0 0 0-.46.098.41.41 0 0 0-.182.198.983.983 0 0 0-.01.433c.08.704.165 1.408.248 2.11.763-.862 1.518-1.728 2.264-2.598a1.67 1.67 0 0 0 .178-.233.21.21 0 0 0 .021-.099.134.134 0 0 0-.082-.11.905.905 0 0 0-.345 0l-.324.041-.141-1.095a242.12 242.12 0 0 0 3.648-.483l.155 1.095-.12.016c-.12.011-.238.037-.352.075a.895.895 0 0 0-.227.144c-.118.101-.228.21-.329.328-.577.64-1.16 1.277-1.748 1.911.92.93 1.848 1.853 2.784 2.769a1.9 1.9 0 0 0 .519.408c.182.053.374.062.56.025l.161-.023.158 1.088a308.62 308.62 0 0 1-4.211.563l-.138-1.096c.054-.006.11-.014.167-.022a2.02 2.02 0 0 0 .55-.11.124.124 0 0 0 .086-.114.935.935 0 0 0-.225-.297c-.573-.6-1.142-1.202-1.707-1.806-.37.395-.745.79-1.122 1.186l.092.798a.951.951 0 0 0 .109.395c.043.068.11.118.189.14.148.027.3.027.448 0l.34-.04.134 1.097c-1.36.162-2.72.312-4.083.45l-.114-1.097c.111-.002.213-.014.316-.025h-.003zm1.539 11.632a1.3 1.3 0 0 0 .174-.405 308.516 308.516 0 0 0 1.954-6.543c.638-.074 1.272-.152 1.908-.23a350.485 350.485 0 0 0 3.388 5.774c.108.217.267.405.462.549.201.065.417.074.623.025l.155 1.087c-1.38.198-2.763.38-4.147.545-.047-.364-.09-.732-.134-1.095l.247-.039a.998.998 0 0 0 .473-.141.228.228 0 0 0 .11-.22 1.515 1.515 0 0 0-.172-.404l-.35-.692c-.882.11-1.762.216-2.641.316-.08.28-.156.56-.234.839a1.237 1.237 0 0 0-.061.347c.008.06.04.117.088.156.074.05.16.078.25.08.198 0 .395-.014.591-.043.043.366.088.732.128 1.097-1.13.13-2.266.254-3.4.37-.036-.366-.077-.732-.113-1.099.16-.009.319-.042.47-.099a.613.613 0 0 0 .231-.175zm4.094-2.856c-.37-.692-.735-1.384-1.102-2.076-.199.76-.41 1.52-.615 2.28.57-.066 1.14-.134 1.712-.204h.005zm4.075-9.98a1.53 1.53 0 0 0 .442-.118.544.544 0 0 0 .211-.187c.07-.128.12-.266.149-.41.537-2.2 1.05-4.4 1.538-6.604.603-.096 1.205-.195 1.808-.297a309.279 309.279 0 0 0 3.513 5.647c.111.211.271.393.467.532.194.06.402.06.596 0 .069.361.135.724.199 1.087-1.308.24-2.617.47-3.927.687-.063-.364-.122-.725-.186-1.087l.24-.045a.898.898 0 0 0 .438-.159.237.237 0 0 0 .099-.221 1.677 1.677 0 0 0-.184-.396c-.125-.224-.247-.45-.368-.674-.833.14-1.668.276-2.503.407-.058.281-.121.564-.183.846a1.494 1.494 0 0 0-.041.349.25.25 0 0 0 .093.152.436.436 0 0 0 .24.071c.19-.007.379-.028.565-.064.059.364.115.726.173 1.087-1.071.17-2.146.335-3.223.495-.057-.371-.109-.736-.163-1.099h.007zm4.416-3.303c-.387-.674-.773-1.352-1.153-2.032-.155.767-.314 1.533-.475 2.298.538-.085 1.078-.174 1.621-.268l.007.002zm5.507-4.886a2.73 2.73 0 0 1 .948-.572 7.374 7.374 0 0 1 1.022-.296c1.646-.336 3.286-.689 4.922-1.058l.256 1.11c-.099.021-.198.047-.298.066l-.165.032a.79.79 0 0 0-.298.133.246.246 0 0 0-.111.173c-.007.126.007.253.038.376l.994 4.381c.023.143.065.282.124.413a.398.398 0 0 0 .221.137c.142.018.287.006.424-.034l.369-.084c.08.361.165.719.247 1.079-1.344.302-2.691.594-4.042.876l-.228-1.079.376-.08a1.06 1.06 0 0 0 .406-.141.34.34 0 0 0 .115-.192 1.736 1.736 0 0 0-.065-.524l-.338-1.556c-.224.05-.449.099-.676.144a234.65 234.65 0 0 1-1.937 3.906c-.882.174-1.767.343-2.655.509-.066-.362-.138-.724-.205-1.088.119-.023.237-.043.355-.066.129-.02.253-.057.371-.112a.922.922 0 0 0 .246-.183c.096-.103.179-.218.245-.342.018-.032.039-.063.055-.099.442-.733.877-1.469 1.31-2.205a3.378 3.378 0 0 1-1.71-.414 1.827 1.827 0 0 1-.942-1.32 1.967 1.967 0 0 1 .063-1.036c.113-.326.304-.619.556-.854h.007zm1.481 1.582a.936.936 0 0 0 .298.535c.171.142.38.232.602.257.365.027.732-.004 1.087-.092.398-.082.802-.167 1.203-.252-.147-.673-.293-1.347-.438-2.02-.443.094-.883.186-1.325.278a3.32 3.32 0 0 0-.964.308.952.952 0 0 0-.397.422.885.885 0 0 0-.073.559l.007.005zM79.4 111.603l.268-.011c.174.003.347-.023.511-.078a.327.327 0 0 0 .176-.174c.04-.168.05-.34.03-.511-.026-.561-.049-1.125-.075-1.687-1.003.042-2.006.079-3.008.11.014.561.032 1.123.05 1.687a1.86 1.86 0 0 0 .05.495.32.32 0 0 0 .19.184c.167.034.338.043.508.028l.28-.009c.014.367.026.736.038 1.104-1.368.046-2.734.081-4.099.104-.006-.368-.014-.737-.019-1.105h.279c.164.006.329-.016.486-.065a.35.35 0 0 0 .184-.163c.043-.148.057-.302.042-.455l-.09-4.335a1.853 1.853 0 0 0-.062-.53.339.339 0 0 0-.16-.175.983.983 0 0 0-.412-.05c-.122 0-.245 0-.364.005-.008-.368-.013-.735-.02-1.103 1.32-.022 2.64-.055 3.961-.1.011.369.024.737.039 1.104l-.367.013a.969.969 0 0 0-.41.071.329.329 0 0 0-.152.177c-.038.16-.049.324-.033.487.015.463.028.925.041 1.389 1-.03 1.998-.067 2.996-.109-.02-.494-.042-.995-.065-1.492a1.156 1.156 0 0 0-.052-.369.305.305 0 0 0-.163-.183 1.486 1.486 0 0 0-.497-.031l-.307.013-.045-1.105c1.326-.051 2.65-.113 3.97-.185l.062 1.103c-.11.007-.221.012-.335.018a1.199 1.199 0 0 0-.444.077.316.316 0 0 0-.147.168c-.03.166-.036.335-.018.502l.227 4.322c-.005.174.023.348.083.513.039.073.103.13.181.158.178.032.36.039.539.019.08 0 .16-.007.24-.013l.062 1.101c-1.369.076-2.738.142-4.11.198-.02-.383-.034-.75-.046-1.117l.007.005zm-4.633 6.63c.153.298.234.627.239.96a2.108 2.108 0 0 1-.821 1.731 3.603 3.603 0 0 1-2.36.719h-1.491v1.495c-.01.12.005.24.044.354a.34.34 0 0 0 .173.16c.128.042.263.06.397.051h.448c0 .369 0 .738.005 1.106-1.437.007-2.873 0-4.308-.018l.014-1.105h.298c.175.013.35-.003.52-.046a.337.337 0 0 0 .185-.162c.05-.148.071-.304.06-.459l.039-4.389a1.475 1.475 0 0 0-.046-.484.326.326 0 0 0-.156-.171 1.02 1.02 0 0 0-.41-.06c-.139 0-.278 0-.416-.005 0-.367.01-.737.015-1.105 1.505.02 3.01.026 4.516.017.48-.014.96.036 1.426.15.356.093.69.257.981.48.268.21.487.475.641.777l.007.005zm-2.47.133a1.748 1.748 0 0 0-1.005-.234h-.954v2.265h.74c.336.016.673-.028.993-.132.204-.082.38-.219.507-.396.127-.187.192-.41.184-.636a1.008 1.008 0 0 0-.476-.872l.01.005zm-3.563-6.594h.269a.954.954 0 0 0 .623-.128.956.956 0 0 0 .123-.602c.004-.896.007-1.791.007-2.686-1 .892-2.014 1.779-3.04 2.658-.01.173.002.346.034.516a.263.263 0 0 0 .16.166c.17.05.348.07.526.061h.281l-.012 1.104a243.709 243.709 0 0 1-4.105-.08l.03-1.103.278.008a.899.899 0 0 0 .616-.115.855.855 0 0 0 .129-.536l.104-4.335a1.112 1.112 0 0 0-.1-.643.699.699 0 0 0-.496-.14c-.123 0-.245-.006-.365-.01l.032-1.103c1.321.036 2.643.061 3.966.077 0 .367-.008.736-.01 1.104h-.369a.763.763 0 0 0-.506.107.952.952 0 0 0-.124.599l-.042 2.648c1.019-.891 2.026-1.79 3.02-2.697a.719.719 0 0 0-.13-.56c-.174-.07-.362-.1-.549-.084h-.308c0-.368.007-.735.007-1.103 1.326.007 2.647.004 3.965-.008 0 .367.01.737.013 1.105h-.332a.792.792 0 0 0-.535.125.975.975 0 0 0-.109.593c.01 1.441.019 2.883.026 4.326a.952.952 0 0 0 .128.614c.198.103.423.142.644.112h.241c0 .37.008.737.013 1.105-1.371.013-2.74.016-4.108.01a51.61 51.61 0 0 1 0-1.11l.005.005zm-6.695-1.336a2.013 2.013 0 0 1-1.093 1.734 5.293 5.293 0 0 1-5.132-.23 5.344 5.344 0 0 1-1.45-1.821l.965-.594a3.505 3.505 0 0 0 2.86 1.866c.447.063.903-.046 1.273-.305.261-.215.417-.531.428-.868a1.039 1.039 0 0 0-.325-.86 2.279 2.279 0 0 0-1.36-.366c-.359-.018-.715-.037-1.071-.057.02-.39.043-.78.065-1.17l.903.047c.47.07.95.002 1.38-.198a.878.878 0 0 0 .397-.726.893.893 0 0 0-.386-.835 1.91 1.91 0 0 0-1.007-.313 2.007 2.007 0 0 0-1.472.476 4.821 4.821 0 0 0-1.072 1.427c-.36-.125-.718-.252-1.075-.38l.994-2.806.82.049.17.355a4.434 4.434 0 0 1 2.062-.373 4.13 4.13 0 0 1 2.15.637c.534.325.845.915.811 1.537a1.898 1.898 0 0 1-1.616 1.79 1.924 1.924 0 0 1 1.774 1.98l.007.004zm-13.725.119a1.3 1.3 0 0 0 .37.069c.234.02.465.04.696.062.448.052.903.017 1.338-.104.383-.12.731-.332 1.014-.616.315-.31.564-.68.733-1.087l1.056.44c-.435.96-.873 1.92-1.314 2.879a245.047 245.047 0 0 1-7.244-.658c.039-.367.08-.732.12-1.098l.208.022c.188.03.38.03.567 0a.368.368 0 0 0 .224-.18c.044-.157.07-.319.08-.482l.448-4.325a1.334 1.334 0 0 0 0-.465.32.32 0 0 0-.137-.178.998.998 0 0 0-.407-.099 22.21 22.21 0 0 0-.36-.038l.12-1.099a224.9 224.9 0 0 0 6.753.616c.242.864.488 1.726.737 2.588l-1.093.296a3.414 3.414 0 0 0-.55-1.043 1.776 1.776 0 0 0-.754-.564 3.75 3.75 0 0 0-1.002-.208c-.415-.038-.828-.074-1.243-.114-.062.66-.124 1.319-.188 1.978l.412.04c.21.03.424.027.633-.01a.434.434 0 0 0 .25-.186c.076-.173.117-.36.12-.548l.027-.302 1.041.088c-.099 1.121-.188 2.247-.284 3.369l-1.064-.09.031-.344a1.16 1.16 0 0 0-.04-.517.46.46 0 0 0-.214-.24 2.404 2.404 0 0 0-.651-.117l-.373-.033a586.47 586.47 0 0 1-.174 1.828 1.166 1.166 0 0 0 0 .357c.02.048.059.087.107.108l.007.005zm-4.903-3.065a3.348 3.348 0 0 1-2.322.419l-1.408-.186-.2 1.483a.944.944 0 0 0-.004.357.346.346 0 0 0 .143.18c.114.056.238.09.365.099.141.018.282.034.423.053l-.14 1.096a223.88 223.88 0 0 1-4.075-.551c.055-.363.108-.727.16-1.088.094.014.188.03.28.04.164.035.332.04.498.019a.339.339 0 0 0 .199-.136c.067-.141.108-.294.12-.45.204-1.45.41-2.899.616-4.345.031-.16.039-.323.022-.485a.324.324 0 0 0-.124-.192.982.982 0 0 0-.38-.108l-.393-.055.16-1.094c1.42.205 2.84.395 4.26.572.456.046.903.155 1.328.324.327.14.62.344.864.601a2.268 2.268 0 0 1 .605 1.831c-.07.66-.44 1.253-1.003 1.609l.006.007zm-1.445-2.769a1.604 1.604 0 0 0-.917-.356l-.902-.116c-.1.75-.2 1.498-.298 2.246.234.033.465.062.696.091.316.057.64.054.955-.01.205-.058.388-.173.53-.332.147-.17.238-.383.26-.607a1.029 1.029 0 0 0-.33-.925l.006.01z" fill="#FFF" fill-rule="evenodd"/></svg>