<svg width="100" height="30" viewBox="0 0 100 30" xmlns="http://www.w3.org/2000/svg"><title>svg/footer_logo_97</title><g fill="none" fill-rule="evenodd"><path stroke="#BBEE2A" stroke-width="2" d="M92.789 28.998L98 1H7.21L2 29h90.789z"/><path d="M16.427 14.638l-.069-.813h-.144l-.15.815-1.67 9.179H12l3.208-17.616h2.322l.864 9.179.07.815h.144l.149-.815 1.67-9.18h2.394l-3.208 17.615h-2.321l-.865-9.179zM24.754 6.2h2.61l-3.207 17.615h-2.61L24.754 6.2zm5.764 8.434l-.07-.814h-.144l-.149.814-1.671 9.179H26.09l3.208-17.616h2.322l.863 9.18.07.813h.145l.148-.814 1.674-9.18h2.393L33.706 23.81h-2.321l-.867-9.177zm7.38-4.82C38.05 8.973 38.809 6.002 42 6c3.193-.002 2.867 2.97 2.715 3.81l-1.824 10.02c-.227 1.246-.905 4.169-4.168 4.17-3.263.001-2.875-2.922-2.648-4.168l.2-1.102h2.61c-.431 2.372-.5 3.018.248 3.017.653 0 .903-.576 1.148-1.916l.602-3.308c-.42.26-.895.408-1.384.432-2.683 0-2.403-2.73-2.224-3.713l.622-3.43zm4.345-.77a.678.678 0 0 0-.142-.556.64.64 0 0 0-.512-.234c-.442.04-.816.354-.941.791l-.93 5.105a.707.707 0 0 0 .154.546.67.67 0 0 0 .5.245c.427-.015.798-.303.928-.72l.943-5.176zm7.452-.29h-3.916l.467-2.564h6.575l-.471 2.59-5.346 15.028h-2.707l5.398-15.053zm4.384-2.566h5.969l-.486 2.66h-3.36l-.842 4.625h2.417l-.515 2.826h-2.416l-.88 4.845h3.36l-.487 2.66h-5.97l3.21-17.616zm12.158-.004h2.538L62.86 23.8h-2.61l.5-17.614h2.538l-.458 9.682-.038.742h.145l.231-.743 3.07-9.683zm3.723 0h5.97l-.485 2.66h-3.36l-.843 4.626h2.418l-.514 2.825h-2.418l-.88 4.845h3.36l-.487 2.66h-5.97L69.96 6.183zm8.64 8.433l-.07-.814h-.145l-.148.814-1.674 9.179H74.17L77.382 6.18h2.321l.867 9.179.071.816h.146l.148-.816 1.673-9.178H85l-3.207 17.615h-2.322l-.872-9.179z" fill="#FFF"/></g></svg>