<svg width="23" height="13" viewBox="0 0 23 13" xmlns="http://www.w3.org/2000/svg"><title>svg/footer_cosial_vk_logo</title><path fill="#BBEE2A" d="M19.794 8.265c.762.744 1.569 1.444 2.253 2.264.303.363.589.738.806 1.16.31.602.03 1.262-.51 1.298h-3.349c-.865.07-1.554-.278-2.134-.869-.464-.47-.893-.973-1.34-1.46a3.131 3.131 0 0 0-.603-.536c-.457-.297-.853-.206-1.115.27-.267.485-.327 1.023-.353 1.562-.036.79-.275.995-1.067 1.032-1.694.08-3.3-.177-4.794-1.03-1.317-.752-2.337-1.814-3.226-3.016C2.632 6.597 1.307 4.026.116 1.38-.152.784.044.465.702.453a93.326 93.326 0 0 1 3.28 0c.445.006.74.26.91.68.591 1.452 1.316 2.833 2.223 4.114.242.341.49.682.84.923.389.266.685.178.868-.255.117-.275.167-.57.193-.864.087-1.01.097-2.019-.054-3.024C8.87 1.397 8.514.991 7.886.872c-.32-.06-.273-.178-.117-.36C8.039.195 8.292 0 8.797 0h3.785c.597.117.73.384.812.984l.003 4.201c-.007.233.117.921.534 1.073.335.11.556-.158.756-.37.907-.961 1.554-2.097 2.133-3.272.256-.518.476-1.054.69-1.592.16-.397.407-.593.856-.586l3.645.004c.107 0 .216.001.322.02.615.105.783.369.593.967-.3.94-.88 1.724-1.448 2.51-.61.84-1.259 1.651-1.861 2.496-.554.771-.51 1.16.177 1.83z" fill-rule="evenodd"/></svg>