<svg width="20" height="20" viewBox="0 0 20 20" xmlns="http://www.w3.org/2000/svg"><title>svg/footer_cosial_instagram</title><g fill="#BBEE2A"><path d="M14.19 0H5.81A5.816 5.816 0 0 0 0 5.81v8.38A5.816 5.816 0 0 0 5.81 20h8.38A5.816 5.816 0 0 0 20 14.19V5.81A5.816 5.816 0 0 0 14.19 0zm4.248 14.19a4.252 4.252 0 0 1-4.248 4.248H5.81a4.252 4.252 0 0 1-4.247-4.248V5.81A4.252 4.252 0 0 1 5.81 1.563h8.38a4.252 4.252 0 0 1 4.248 4.247v8.38z"/><path d="M10 4.61A5.397 5.397 0 0 0 4.61 10 5.397 5.397 0 0 0 10 15.39 5.397 5.397 0 0 0 15.39 10 5.397 5.397 0 0 0 10 4.61zm0 9.218A3.832 3.832 0 0 1 6.172 10 3.832 3.832 0 0 1 10 6.172 3.832 3.832 0 0 1 13.828 10 3.832 3.832 0 0 1 10 13.828z"/><circle cx="15.469" cy="4.531" r="1"/></g></svg>