<svg width="1303" height="390" viewBox="0 0 1303 390" xmlns="http://www.w3.org/2000/svg"><title>svg/footer_leaves</title><path d="M1086.357-562.224c-7.075-2.114-14.095-4.62-21.278-6.4-6.731 6.071-13.823 7.853-20.695.683-5.953-6.21-13.744-7.28-19.33-9.141 5.925.96 13.122 3.672 20.065 7.766 6.272 3.702 13.222 7.112 20.221.91l-20.539-24.464c.255 1.026.396 2.16.545 3.295.374 3.09 4.461 6.137.806 9.199-3.125 2.603-6.321.087-9.27-1.338-6.044-2.924-12.11-5.825-18.036-9.003a18.804 18.804 0 0 0-4.823-1.8c7.954.479 9.532-2.235 7.441-10.896-.38-1.602-.858-3.19-1.315-4.773-1.066-3.688-2.319-7.329-3.198-11.059-1.592-6.783 4.984-1.03 5.732-3.544 1.779-5.913-6.424-10.479-2.61-16.82 4.555-1.45 2.534 6.922 6.459 4.621 3.558-2.086 8.466-3.557 9.373-8.524.609-3.308-1.793-4.973-4.742-5.567-3.468-.698-6.376 1.906-9.415 2.183-5.42.49-1.031-3.586-1.717-5.457-2.582-.774-8.84-1.9-4.45-4.953 8.113-5.63 6.7-12.24 5.842-20.22-3.247 2.46-6.175 4.684-8.972 6.805-5.392-2.84-3.966-9.063-7.476-12.772-1.094 2.058-2.264 5.692-3.08 5.616-13.59-1.271-12.821 7.37-11.326 16.177.56 3.302 2.243 6.535-1.869 8.428-5.427 2.493-6.133-1.665-7.275-5.347-.27-.877-1.503-1.63-2.458-2.093-13.43-6.576-14.046-6.645-19.985-16.696-3.22-5.443-7.511-7.64-13.458-7.591-4.035.041-8.106-.049-7.088 6.037.65 3.91-2.79 5.733-4.742 8.227-2.776 3.558-3.115 6.873-.028 10.362 2.97 3.37 4.998 7.315 5.988 11.646 2.41 10.562.028 13.726-12.537 17.276-2.353-1.92-1.17-3.82 0-5.754 3.725-6.12 5.628-12.157-1.239-17.497-7.808-6.065-15.984-5.975-23.204 1.07-2.963 2.895-6.002 4.104-9.83 5.209-15.174 4.407-20.47 12.807-14.357 26.899 4.202 9.684 4.368 19.9 7.324 29.64 1.391 4.587 1.405 7.951 6.438 8.946 4.818.953 8.314-.677 11.235-4.884 10.674-15.307 10.792-15.224 33.006-14.326-19.493 8.227-23.8 25.793-33.027 39.629-2.423 3.627.422 6.922 2.7 8.358 5.455 3.44 1.578 7.93 2.187 11.654 3.275 3.64 6.175-.505 9.18-.139 8.48 1.043 12.55-2.756 12.315-11.135-.132-4.614 1.315-8.641 3.786-12.406-.006-.711-.013-1.416.007-2.114a23.792 23.792 0 0 1 2.397-1.906c.05.555.156 1.158.323 1.815 7.028-.771 14.133-1.44 10.301 10.093-1.251 3.767-1.626 7.84-2.538 12.45 7.12 3.156 14.317-.247 17.909-4.56 4.666-5.606.827-13.046-3.372-18.703 1.916-4.436 5.896-2.422 8.788-3.403 3.125-1.07 6.123-3.135 9.7-1.942 2.383 14.9.884 30.746 9.948 44.032 3.825 5.606-1.52 7.039-4.207 9.031-2.778 2.058-6.398 2.698-8.576-1.396-.792-1.476-.672-3.476-1.478-4.93-3.224-5.803-7.162-6.669-12.16-1.84-6.116 5.912-7.24 14.784-12.402 21.343-2.142 2.72.467 5.083 3.606 6.094 7.997 2.567 14.296.786 18.425-7.119l-.983-.916.835 1.061c2.566.517 6.03-.065 5.649 4.356-.297 3.396-1.492 6.843-1.103 10.116.318 2.632 2.1 5.497 5.48 5.62 2.417.088 4.807-1.206 5.16-3.533 1.075-7.09 4.193-7.876 8.527-2.975 4.299 4.865 8.817 4.618 13.413 1.55 3.81-2.546 7.982-6.08 1.887-10.509-3.549-2.574-5.656-5.46-5.387-9.911.558-9.374-5.176-8.094-13.85-3.767 6.002-9.556 12.945-11.06 17.654-15.395 1.98-1.113-.722.102 1.272-.982-.431.328-.961.466-1.435.72.262 8.77 6.604 13.104 12.557 17.388 3.153 2.268 7 3.81 10.633-.219 2.864-3.177 1.803-5.657.446-9.242-4.568-11.985-4.292-12.1 7.508-21.154 0 5.679-.176 10.588.057 15.474.177 3.542 2.778 4.829 5.84 4.923 3.04.095 5.607-.56 5.098-4.77-.46-3.803.664-7.665 4.588-7.876 4.497-.24 5.692 5.033 8.315 7.861 2.856 3.076 1.435 5.389-.912 8.763-8.69 12.5-8.216 15.14-1.139 24.281 5.02 6.48 10.832 7.927 17.91 4.989 6.794-2.829 14.154-5.432 18.474-11.773 6.886-10.116 17.188-12.734 27.73-15.41 1.54-.392 4.185-1.723 4.263.058.593 12.646 15.413 6.516 18.8 15.432.996 2.625 4.05 2.45 5.67.756 4.376-4.574 10.803-2.45 15.59-5.65 4.574-3.062 9-3.753 13.688.894 5.02 4.981 11.072 3.84 17.463 1.273-8.258-6.974-26.238-15.257-33.88-15.337-9.072-.087-17.174-.61-24.973-7.577-8.64-7.716-21.034-7.04-31.978-9.309-1.52-.32-4.228.982-4.695.306-11.772-17.147-29.97-9.097-45.363-12.58 17.421-9.367 34.242-5.513 49.966 3.555 13.787 7.956 28.938 8.065 44.224 9.687-11.775-5.094-23.546-10.193-35.32-15.292.175-.257.344-.538.507-.845.973-1.828-.987-9.019 2.395-5.137 5.406 6.22 4.068-1.934 5.868-1.466 3.095.8 3.088 4.024 4.18 6.298 5.763 11.917 17.233 12.703 27.814 13.27 3.956.212 8.01 1.304 13.255 1.233-3.494-6.079-2.598-12.427-4.243-18.584-5.196-.503-1.709 9.621-8.074 6.363-4.307-2.197-12.464 3.251-11.911.028 1.743-10.259-10.055-13.447-9.173-22.572.364-3.72-1.156-7.744-2.311-11.477-1.674-5.385 1.583-12.909-3.053-16.062-5.133-3.492-12.205 2.24-18.941-.73-3.824-1.686-6.73 3.295-8.543 6.696-3.186 5.95-6.905 4.187-10.952 1.41-3.361-4.4-1.968-12.583-9.845-14.07 2.724-6.016-.392-10.67-2.62-16.076-2.002-4.853-3.703-7.772-9.186-7.538-2.423.106-4.097-.914-3.312-4.152.679-2.827 8.809-1.162 4.131-6.192-2.353-2.515-6.96-.028-8.529 2.749-3.746 6.624-6.631-9.579-9.677-.128-1.505 4.648-4.552 9.331-.756 14.41.931 1.248 1.211 2.99 1.757 4.4-4.005 4.336-5.847-.375-8.578-1.438-4.208-1.636-7.513.907-10.433 3.486-3.522 3.11-.896 6.433.651 9.125 6.736 11.676 13.585 23.288 20.832 34.637 1.695 2.643 5.007 4.358 7.808 6.129 6.617 4.173 6.988-2.083 8.914-5.831 5.476 2.995 6.588 10.643 10.401 14.196zM477.385-408.933c-1.135.788-2.515 1.46-4.28 1.92 4.69-6.992 1.065-11.854-1.729-17.224-1.809-3.5-3.48-5.871-7.569-4.557-4.32 1.398-6.831 4.049-4.501 8.904 1.216 2.546 1.787 5.28-.282 8.035-5.47 2.532-7.902-2.957-11.824-4.487-5.435-2.115-5.384-4.703-2.656-10.15 5.485-10.948 3.314-16.325-5.79-22.663-8.459-5.891-14.566-5.029-24.64 2.7-8.473 6.497-12.352 15.999-17.649 24.471-2.699 4.306-2.85 8.626-10.478 7.736-4.776-.564-7.613 5.46-8.98 11.68-5.66-13.746-18.989-10.185-28.352-14.525-1.962-.905-3.626-.126-4.357 1.238-3.726 6.95-12.967 6.803-17.425 13.001-3.3 4.584-7.511 6.407-12.714 1.238-2.59-2.588-6.643-1.655-9.719.188-3.17 1.906-9.653 2.142-8.242 6.907 1.932 6.498 6.31.487 9.668.307 2.83-.153 5.89-.007 8.517.904 9.74 3.38 19.003 2.65 28.316-1.517 4.233-1.899 9.096-2.253 13.59-.994 15.848 4.445 31.543 5.07 47.225-.543.998-.355 2.843-.946 3.039-.654 9.002 13.356 21.108 2.929 31.673 3.875 2.873.257 5.782.076 8.684.097-6.513 6.977-14.386 10.761-24.358 9.892-1.91 1.176-1.96 2.407-.13 3.708 3.372 2.35 6.585-.133 9.834-.397 18.482-1.523 35.437.737 47.558 16.34 1.266 1.642 3.06 3.22 7.193 2.157-3.647-4.237-6.99-8.111-11.065-12.842 5.08-4.187 11.021-1.356 16.058-2.476v-.455c8.96 1.467 17.92 2.931 26.876 4.4-6.699 3.742-14.327 1.565-20.969 7.91 8.075 14.057 16.186 28.746 16.662 45.897-4.762-3.344-8.508-.861-11.666 4.225-1.576 2.518-3.286 4.894-1.427 7.711 4.23 6.417 9.076-.889 13.547.349 2.356 3.834-5.563 4.118-2.675 8.088 6.514 2.17 8.48-7.092 16.775-5.727-7.955 8.345-8.87 16.973-2.349 26.676 5.727-.569 2.768-9.902 8.785-9.83 5.45 1.244 4.506 7.39 7.657 10.264 2.15.57 3.378-.477 3.867-2.198 2.839-9.938 5.812-5.108 8.828-.114 1.625-10.855 1.675-10.87-3.846-27.942-.958-2.945-1.356-5.655 1.49-7.49 3.037-1.964 5.216-.918 6.21 2.625.815 2.945 3.618 3.094 5.52 2.568 7.713-2.113 14.781-4.582 16.392 7.575.333 2.512 8.43-2.582 9.949 5.008.404 2.05 7.99 3.593 12.297 3.664 4.925.071 3.648-5.933 5.642-8.92 9.04-13.516 8.55-14.512-2.548-27.373-10.169-11.78-10.07-16.255.681-28.61 6.692 2.66 4.237 8.542 3.96 13.038-.525 8.544 3.534 12.122 11.29 13.857 8.019 1.793 15.803 1.572 18.542-6.914 2.349-7.306 6.905-10.827 12.589-14.874 11.758-8.387 13.22-17.97 3.555-28.831-8.345-9.383-11.155-21.426-17.72-31.606-3.334-5.178-6.875-4.93-11.232-4.915-4.435.014-7.494 2.283-8.856 6.587-1.98 6.267 1.767 14.27-5.046 18.986-6.968 4.816-14.83 7.96-24.382 11.275.695-6.651 6.351-8.394 8.58-12.307 5.499-9.624 9.451-19.74 10.878-30.709 1.071-8.173 7.706-17.997-6.202-22.436-1.647-.526-1.476-5.463-3.208-7.412-1.724-1.956-4.01-.52-5.244 1.75-1.476-.114-3.193-.22-4.86.036-11.113 1.7-11.418 1.814-8.381 12.711 1.866 6.723 4.648 13.06-2.732 18.232-2.363 1.65-4.655 3.308-7.714 2.376-3.52-1.074-3.236-4.24-3.441-6.95-.433-5.982-.667-11.972-1.022-18.46-23.205 12.016-24.049 16.02-6.529 30.262-5.123 4.716-11.105 7.056-17.087 9.148-11.297-12.997-13.32-31.712-28.76-40.697.815-4.652 3.91-7.277 6.755-9.937 3.243-3.024 5.804-4.994 7.962 1.735 1.894 5.883 7.805 6.609 12.63 3.543 3.826-2.433 6.643-7.256 4.833-11.787-2.554-6.388-6.017-1.174-9.232.27-3.619 1.63-7.252.512-7.657-3.464-.305-3.087 3.187-4.04 6.202-4.09 3.385-.064 6.813.092 10.127-.449 4.364-.725 4.719-4.31 4.364-7.853-.462-4.61-3.378-3.628-7.025-4.126-10.985-1.5-13.412 8.536-20.373 13.78-4.23-3.515-2.023-8.352-2.91-12.243-.922-4.012-2.242-8.679-6.961-8.117-5.564.669-7.032 4.866-4.584 10.165.362.783-.327 2.042-.76 4.311-6.812-1.273-13.773-8.479-20.983-.76-4.527 4.858-5.215 9.218.76 11.587 5.456 2.163 8.103 5.584 10.161 10.407.639 1.53 1.49 3.294 2.768 4.19 5.606 3.934 5.662 3.82 1.426 9.468-2.675 3.571-4.038 8.252-8.544 10.265-2.377 1.06-4.981 3.635-7.181.057-1.143-1.85-2.406-4.368-2.03-6.26.873-4.354 4.102-2.106 6.657-1.58 1.582.32 3.455.925 4.42-2.532-3.526-7.825-12.02-7.704-19.273-9.518-2.888-.718-5.35.968-6.925 3.735-1.952 3.414-1.838 6.509 1.213 9.077 5.407 4.538 9.65 9.617 8.899 17.307-2.443 2.998-.942 6.82-2.03 10.102zm-6.414 16.212c.68 3.93 5.713 5.591 16.434 8.073 2.214.512 3.441 1.515 1.227 1.053-.513-.11-1.05.161-1.567.591-10.394-5.305-22.28-2.924-33.548-3.642 7.02-.022 12.497-2.616 17.454-6.075zm323.68 513.54c-2.695.389-5.092-.575-7.404-3.197-4.41-5.006-9.967-9.054-12.269-18.622-4.768 10.217-9.902 18.206-5.93 25.779 3.148 5.993 11.308 6.635 20.874 1.65l-2.07 5.256c-2.571 3.903-5.058 7.852-6.83 12.166-.839 2.04-1.973 4.313-2.83 6.58-10.458-9.262-22.932-12.969-35.058-16.662-9.307-2.842-14.14.444-17.374 10.294-1.592 4.837-3.965 5.888-8.354 6.403-3.915.458-7.686 2.037-11.537 3.067-4.998 1.34-7.952 4.301-7.923 9.59.028 6.275 4.453 6.79 9.379 7.184 10.476.854 15.072 6.642 14.04 19.3-4.633-6.107-9.68-8.54-15.31-10.12-2.89-.81-5.377-1.995-7.55.953-2.316 3.145-2.768 5.831 1.14 8.426 2.76 1.826 6.088 4.435 3.57 8.214-2.882 4.35-7.98 3.695-12.547 3.794-4.346.091-5.529-2.461-6.303-6.283-1.65-8.052-4.955-14.49-15.101-15.011-12.714-.656-14.427-.036-19.432 10.78-4.274 9.238-3.127 18.284-1.162 27.993 1.456 7.178 8.805 15.816-1.678 22.747-1.032.677-.373 4.238-.05 6.395.975 6.607-2.037 8.835-7.508 5.486-6.64-4.068-10.519-1.932-13.853 3.815-.28.48-.208 1.227-.574 1.572-12.376 11.648-12.634 11.585-16.399 27.104-1.111 4.577-2.775 7.164-7.68 7.129-3.821-.014-6.811 1.82-8.295 5.049-1.779 3.857-7.228 8.517-3.155 11.958 5.126 4.322 6.797-2.531 9.572-5.52 2.66-2.864 5.6-6.742 9-7.433 8.288-1.706 12.634-7.347 16.9-13.326 4.381-6.142 9.58-10.816 17.145-12.946 5.012-1.417 8.468-5.845 12.835-8.18 10.232-5.47 12.046-19.27 26.409-21.667 11.659-1.946 16.22-16.838 27.011-22.528.638-.317 1.276-.635 1.922-.924 1.828-1.206 3.843-1.6 6.044-1.347a8.021 8.021 0 0 0 3.901-2.108c3.836-5.38 5.887-11.338 6.253-18.248 1.061 6.07 4.732 9.484 10.505 7.862 9.967-2.785 18.363-7.799 19.016-19.193 1.169 9.307-6.396 12.607-12.592 17.465-8.662 6.79-21.454 8.744-25.749 20.78-.122 1.883.674 3.25 2.352 4.139 2.524.98 5.105 1.086 7.73.698 13.007-2.285 26.158-.43 39.2-1.354 4.949-.345 12.621.127 12.75-5.472a7.577 7.577 0 0 0-.143-1.725c1.263 2.149 4.377 1.697 7.036 1.524 3.402-.212 6.861-.897 9.928 1.286 3.903.438 8.155-.692 12.989 3.682-6.636 2.007-12.334 4.869-9.187 12.649 1.737 4.304 5.414 7.151 9.216 5.908 7.464-2.438 2.79-9.724 4.622-14.946 4.775.367 2.682 7.222 6.934 7.384 4.354.17 1.752-6.324 7.588-6.847 1.352 9.434 4.048 18.91 16.237 21.779 2.18-5.045-7.34-10.458-.865-14.571 5.204-3.314 9.282 3.06 14.137 4.211 6.388-2.063-10.96-12.57 4.564-11.765 3.213.17 1.36-3.428 0-4.82-5.153-5.236-9.434-11.589-17.603-13.1-2.559-.467-3.78-2.368-3.41-5.004.452-3.159 2.567-2.883 5.045-2.53 8.853 1.258 10.023-9.087 15.401-10.444 4.608-1.166 9.936 4.275 17.095 3.809 11.956-.778 11.687-13.264 20.343-16.451 1.207-.445-.64-3.689-2.05-5.653-5.945-8.296-10.974-15.702-24.1-15.109-10.488.474-18.09-7.97-17.851-14.67.102-2.685-.124-5.921 3.227-7.2 3.452-1.322 4.87 1.18 6.789 3.462 10.495 12.487 18.868 12.663 28.265.742 1.352-1.724 3.49-4.6 2.879-5.773-5.575-10.678.61-20.825.828-31.185.218-10.38-7.958-19.206-20.278-18.443-11.186.692-17.574-7.13-26.616-9.88-9.042-2.741-8.845-5.073-13.875-1.144-5.182 4.05-6.585 8.268-3.496 14.677 9.18 19.023 8.54 21.263-7.02 38.04-4.652-5.958 1.969-11.187.537-17.144-2.5-10.459-7.573-19.412-12.174-28.782-4.63-9.42-11.397-13.801-22.183-9.78-1.46 2.523-4.302 2.622-7.144 2.904-4.26.424-7.843 2.262-8.664 6.586-.77 4.042 2.85 5.887 5.8 7.215 11.07 4.996 11.106 14.197 10.154 23.892.756.19 1.512.375 2.166.572.428-.197 1.272-.282 1.432-.657.755-1.696 2.194-1.533 1.795-.19-.834 2.815-2.012 5.458-3.38 8.004zm-11.803 42.737c5.673 3.88 12.72 7.168 19.666 4.073 7.421-3.314 11.375-1.964 18.461 1.66 11.724 6 25.948 1.485 39.038 2.884 2.325-.007.021 3.307.537 1.102.131-.515-.203-.812-.988-.883-25.628-2.226-51.43.756-77.057-2.367a9.442 9.442 0 0 0-2.481.022 217.34 217.34 0 0 0 2.824-6.49zM764.74 202.99c2.102 4.261 8.784 6.167 21.392 8.029-2.362 1.936-7.254 1.166-7.167 5.187.01.376.043.72.1 1.032-1.99-3.773-8.336-2.898-12.634-3.474-5.034-.67-10.196-.077-16.198-.197 3.772-4.807 9.379-7.534 14.507-10.577zm219.547-786.017c.33-1.207.382-2.65.08-4.386-1.364-7.847-.277-21.967-16.137-19.77-1.62 1.485.616-.38-1.038 1.091-1.135 1.009-2.257 2.031-3.53 2.867.74-1.091 2.125-1.375 3.004-2.404 16.282-19.721-9.242-32.625-7.207-50.357-.567 11.536 11.18 13.67 16.248 21.69 7.178 11.363 3.925 23.804 9.483 35.133 3.8 7.757 6.923 11.398 13.864 11.444-4.718 2.23-9.691 3.655-14.767 4.692zm19.128-7.041c-.375-1.821-1.926-4.084.563-4.62 1.964-.419 4.243 1.061 6.505 1.712a24.982 24.982 0 0 0-2.942.05 43.569 43.569 0 0 1-4.126 2.858zm251.464 1068.553c-15.181 3.791-29.254 10.426-41.553 20.868-6.198 5.258-12.258 10.007-20.72 9.483l-.467.51.655-.284c8.776-9.636 19.23-17.076 29.691-24.494 2.27-1.614 5.175-3.003 4.548-6.392-.613-3.302-3.657-4-6.429-4.582-3.114-.655-6.167-1.963-9.296-2.426 4.818-1.33 9.756-2.267 14.928-2.527-1.598-10.868-10.993-11.552-18.747-13.568-7.64-1.994-15.445-4.28-23.043-5.405-12.198-1.81-19.304-8.09-23.926-17.67 9.295 12.207 27.322 21.587 36.246 18.062 7.177-2.842 9.446-8.362 6.314-17.193 5.143 9.38 12.341 14.97 18.248 21.7 3.339 3.811 10.273 6.938 4.723 13.946 5.564 5.05 12.933 5.227 19.59 7.442 2.966.985 6.22 1.526 9.238 2.53zm3.44 1.465c2.007 1.104 3.776 2.646 5.101 4.98a54.28 54.28 0 0 0-7.295-.485c-5.07 3.068-10.858 4.276-16.172 6.72-1.386 2.283-4.931.865-5.97 3.774.467-3.477 4.34-1.091 5.475-3.47 5.335-3.025 11.325-4.232 16.778-6.879.695-1.55 1.388-3.096 2.083-4.64zm9.277 5.67c4.494.165 8.629 1.601 12.678 3.382-4.18-1.325-8.391-2.54-12.678-3.382zm26.628 9.462c.565.183 1.135.353 1.71.509 20.238 5.483 40.747 10.29 60.458 17.306 15.48 5.512 30.982 10.733 46.805 15.099 2.69.74 5.193 2.514 8.803.434-5.036-5.163-11.578-6.61-17.713-8.682-25.354-8.539-50.671-16.986-74.384-29.834-13.04-7.065-28.657-6.068-42.846-10.284-13.204-3.931-26.366-6.075-34.128-19.67-3.481-6.104-13.29-6.745-16.365-17.144 13.148 7.728 24.633 14.743 36.397 21.281 6.378 3.547 12.406 7.941 20.388 8.12 6.107.134 10.78-.984 12.513-9.11 5.1 7.022 7.555 12.77 16.008 15.27 16.444 4.85 30.547 16.843 49.994 11.922 4.087-1.04 12.206 3.283 17.114 8.425 5.086 5.327 11.328 9.465 18.726 11.431 2.832.755 5.557 1.56 7.876-.954 2.382-2.586.927-4.971-.107-7.728-4.994-13.31-16.244-22.698-22.008-35.603-2.169-4.864-5.236-1.787-7.39 1.425-2.22 3.304-4.295 3.981-8.04.762-8.34-7.165-13.861-7.008-21.73.114-2.782 2.521-5.343 4.344-8.946 3.269-5.564-1.653-1.241-5.64-1.626-8.497-.814-6.153-2.597-11.117-10.002-11.445-6.299-.27-6.713-3.839-6.263-9.337 1.54-18.902-4.723-35.71-15.909-50.666-8.553-11.46-14.41-10.797-28.763-6.638-7.897 2.294-12.235 5.014-14.168 12.087-1.726 6.281-6.113 12.77.2 19.144 1.876 1.894 1.783 4.536-.756 5.59-7.312 3.034-14.953 5.563-22.9 5.22-4.665-.199-4.794-4.686-3.146-7.805 2.04-3.846 5.187-7.108 8.518-11.495-5.443-3.12-7.184-13.61-16.015-7.2-16.08 11.673-16.101 13.275-5.322 31.778-11.814-7.677-16.344-15.718-15.794-26.658.47-9.415 6.306-13.866 14.838-16.288 5.85-1.659 9.702-4.58 8.182-12.356-1.59-8.105-7.433-10.555-13.104-9.565-6.706 1.175-13.519 1.196-20.11 2.67-2.654.592-5.872 2.137-5.622 5.499.314 4.337 3.638 2.436 6.328 2.557 8.938.427 9.823 2.556 5.557 9.8-3.745 6.338-7.548 5.932-12 1.075-1.148-1.26-2.353-2.514-3.23-3.96-1.17-1.937-3.047-4.138-2.883-6.09.9-11.067-9.195-19.307-8.29-30.617 9.04-.043 8.775 7.777 12.292 12.82 1.79-1.688 3.881-2.942 4.944-4.786 4.33-7.45 9.71-12.236 19.226-11.01 7.305.94 8.396-4.253 7.775-9.972-.977-9.016-8.24-15.433-17.506-14.593-3.938.356-7.64 1.923-12.727-.982 6.47-7.934 8.054-15.883-1.134-22.656-11.007 5.107-16.23 14.366-17.899 26.836-8.667-5.384-9.095-14.094-11.406-21.174-3.04-9.294-15.488-3.518-16.116-15.725-3.41 4.615-5.058 6.26-6.013 8.233-5.344 11.103-3.446 15.768 7.797 19.002 2.696.776 5.714.391 8.446 1.096 5.172 1.332 5.693 5.385 3.91 9.373-1.67 3.746-5.494 3.397-8.918 2.557-1.013-.257-2.382-.997-2.703-1.852-2.405-6.196-6.007-10.241-12.599-5.448-3.688 2.678-2.218 14.813 1.577 19.208 2.86 3.326 13.825 4.316 17.513 1.58 10.722-7.962 11.907-7.641 16.308 6.34 2.347 7.456 3.867 15.17 5.8 22.925-4.373 1.368-4.808-1.901-5.778-4.145-4.637-10.59-7.32-12-15.395-5.128-10.394 8.839-19.718 18.924-29.605 28.367-3.653 3.483-2.818 8.333-3.767 12.834-7.248-1.901-9.98-8.155-14.681-12.043-4.33-3.583-8.84-6.958-11.728-9.223 1.755-7.955 4.737-5.947 7.39-5.755 9.816.741 13.447-7.734 17.899-13.603 4.323-5.705-2.925-8.86-6.2-12.007-4.822-4.63-5.963-12.457-14.624-15.925-.206 13.489-7.112 23.666-12.334 34.563-16.807-7.329-19.546-15.505-10.365-29.713 1.234-1.916 3.124-3.547 3.852-5.612 1.477-4.23 9.224-7.13 3.481-12.948-4.708-4.786-10.322-7.165-16.835-2.956-1.399.898-2.776 1.83-4.145 2.742-2.932-2.2-.657-3.945.278-5.797 1.334-2.621 6.156-5.306 1.256-8.134-3.91-2.243-5.436 1.14-7.027 4.644-3.838 8.49-11.314 11.089-23.756 9.038 6.877 13.738 5.372 27.128-1.412 40.318-.756 1.474-2.304 3.945-1.862 4.415 8.967 9.408.007 24.885 11.507 33.502 1.862 1.403 2.197 4.843 4.515 10.384-14.053-7.528-23.627-15.633-31.91-25.383-2.382-2.799-2.46-6.31-1.932-9.743.35-2.229 1.184-4.38 1.683-6.588 4.58-20.369.286-26.187-20.203-27.284-2.839-.157-5.685-.028-8.717-.028-.1 4.337 13.99 8.14.713 11.972-4.309 1.239-8.831 4.508-9.174 6.31-1.869 9.785-10.58 11.082-16.807 15.405-3.738 2.592-8.161 4.444-11.307 7.585-11.036 11.032-16.172 25.504-2.097 38.508 6.92 6.403 12.926 12.386 8.467 23.396-2.147 5.306 3.018 9.188 7.434 12.157 7.447 5.029 16.486 3.896 24.626 6.296 3.089.919 5.521-1.31 7.005-3.803 3.438-5.783 8.033-11.58 6.542-18.688-1.727-8.24 4.694-7.243 8.403-9.273 2.718 1.29 1.306 3.055 1.085 4.515-1 6.61 11.128 9.166 6.013 16.04-6.292 8.474-11.506 18.189-22.75 22.27-14.238 5.163-14.51 5.712-13.054 21.822.506 5.533-4.594 5.947-5.671 9.536-5.622 7.564 1.933 9.636 6.042 12.314 6.228 4.06 16.03 4.693 31.153 3.575-.007-3.297-5.7-1.773-4.837-5.413.7-2.948 3.075-2.585 5.344-1.623 8.796 3.781 10.493-7.877 17.164-7.991 7.112-.121 7.276 11.908 16.586 9.793 4.258-.97 8.068.384 8.118-6.382.014-1.474 5.95 1.19 7.89 3.967 2.482 3.547 3.488 8.44-.664 10.576-13.982 7.222-15.523 21.423-20.274 33.851-.792 2.073-1.006 4.473.85 6.474 4.35.52 3.701-2.913 4.187-5.42.777-4.095 1.94-8.738 7.283-6.609 4.701 1.873 3.76 6.374 1.762 10.213-.977 1.873-2.233 3.604-4.423 7.072 11.885-1.018 15.138-13.489 24.919-14.237 3.93 6.602.114 13.931 1.705 21.986 8.36-4.515 9.552-13.689 16.136-18.489 3.14-2.279.257-8.98-3.78-11.687-5.915-3.96-2.22-6.545.884-8.867 5.265-3.931 6.492-.178 7.747 4.252 1.541 5.434 3.703 10.704 11.272 13.069 1.155-9.55-9.232-15.647-6.257-24.657 2.79.463 5.572.92 8.368 1.382-1.312-8.532 3.781-13.233 10.722-17.135 20.738-11.68 41.29-23.325 63.833-31.822l.756-.286c-12.33 5.551-24.641 11.139-36.668 17.327-11.004 5.665-10.97 14.472-1.783 22.653 3.573 3.186 6.13-.225 9.159-.363 2.507-.102 4.2 1.192 5.237 3.418 1.212 2.618.021 5.003-2.193 5.534-13.672 3.302-13.087 15.127-15.016 25.453 4.22 3.39 4.673-1.214 6.637-2.407 1.31-.792 3.301-1.6 4.492-1.105 3.1 1.287.738 3.454.425 5.483-1.31 8.516 4.193 14.72 11.04 12.458 1.733-.567 6.825-1.49 1.309-5.018-1.755-1.12-3.357-3.025-4.298-4.96-.989-2.058-.968-4.727 1.08-6.327 2.068-1.614 3.977-.603 5.802 1.098 8.977 8.407 8.977 8.342 17.732.698 1.644-1.447 3.51-3.2 5.488-3.541 9.918-1.695 10.698-8.276 7.668-18.181 8.017 7.898 14.355 7.672 20.686.167 1.609-1.905 4.903-2.458 7.536-3.207 11.408-3.251 11.993-2.596 10.858 9.869-.418 4.596-.662 9.294-.195 13.86.348 3.404 2.298 3.819 6.205 4.582 5.906 1.171 16.312.83 15.33 12.953-.37 4.53 3.37 4.188 5.704 3.112 3.482-1.622 8.065-3.447 9.52-6.538 5.148-10.967 15.449-16.45 22.539-25.199 3.433-4.232 7.41-7.76 12.418-7.927 10.879-.356 14.278-6.145 11.297-17.613 11.506 5.33 11.728 21.184 24.397 20.297.474 6.421-6.672 5.774-5.996 12.283 12.808-3.68 18.094-15.432 26.445-25.032-7.236 2.771-12.954 4.575-17.35-4.472-3.106-6.407-11.805-5.287-17.773-8.014-11.924-5.447-23.346-10.102-33.759 4.668-1.08-9.417 8.316-9.992 8.581-17.562-10.245 2.581-15.998 12.094-27.135 17.686 2.201-8.145 7.362-10.523 10.621-14.327 2.912-3.392 4.032-5.687 3.039-7.485zm-844.796 80.086c-2.394 3.174-3.832 6.843-4.383 10.913-.647 4.779-2.039 8.907-6.917 10.809-1.328 1.258-1.2 3.108-1.826 4.648.135-1.742.54-3.369 1.897-4.583-.377-3.507.028-6.869 1.349-10.173 3.721-9.261 4.609-17.12-6.164-23.193-4.382-2.472-6.868-8.943-9.51-13.975-3.167-6.03-7.57-10.75-14.11-11.264-10.838-.86-9.745-7.02-5.633-15.349-10.581 1.771-9.367 10.556-12.847 15.544-3.565 5.119-7.442 10.331-7.279 17.178.107 4.389 2.748 6.066 6.647 6.044 1.967-.007 5.177.094 2.195-3.246-2.827-3.181-3.246-6.6.199-8.683 2.77-1.677 5.283 1.236 6.661 3.76 2.194 4.005 5.554 5.183 9.737 5.827 5.028.773 9.906 2.414 12.882 6.246 1.364 2.683.036 4.44-1.37 4.692-9.836 1.779-11.733 8.445-8.963 16.528 2.315 6.752.824 11.228-2.606 17.38-6.577 11.835-9.332 25.637-17.783 36.843-2.947 3.912-2.33 9.934.1 16.44 9.878-5.4 16.674.565 20.602 8.496 3.849 7.794 8.138 8.589 15.09 5.748 6.215-2.545 11.59-7.353 18.742-7.577 7.301 12.21 4.311 24.277-.206 35.802 2.443 4.135 7.088.607 9.218 3.839.888 1.352 1.975 2.899 2.032 4.395.078 2.025-1.94 2.986-3.565 2.545-11.2-3.058-12.613 3.442-11.889 12.27.142 1.713.092 3.491-.192 5.183-.958 5.625-7.165 9.659-5.468 15.906 2.01 7.432 9.957 3.868 14.31 7.1 1.165.867 2.33 2.855 2.173 4.15-.177 1.38-1.69 3.159-3.032 3.715-5.07 2.097-9.794 1.396-13.607-4.72-1.08 6.636-3.594 12.348 2.727 15.008 4.19 1.772 9.424 5.365 13.507-1.185 1.57-2.51 4.176-4.367 6.96-1.432 3.736 3.94.341 5.907-2.414 8.047-1.336 1.026-2.82 2.104-2.55 4.157 14.417-1.482 22.008-7.917 24.565-21.48.66-3.492.518-7.634 5.021-7.519 5.525.145 4.85 4.794 5.404 8.893.292 2.227-3.636 9.558 4.325 6.37 7.024-2.799 18.6 10.027 21.497-6.507.391-2.27.988-4.52 1.123-6.804 1.278-21.805 2.194-43.639 3.849-65.415.724-9.616-3.97-16.68-8.82-23.663-3.317-4.772-9.283-3.846-10.178 1.93-2.222 14.351-11.327 26.512-11.774 41.319-.2 6.47-2.337 12.363-8.224 16.57 7.819-14.8 5.028-31.558 9.417-47.413 4.318-15.616 8.046-33.568 2.194-50.717-7.684.022-4.687 6.355-4.737 9.963-.127 9.832-2.99 19.354-2.556 24.66.291-7.388 2.997-19.13 2.23-31.13a29.481 29.481 0 0 0-.967-5.873c.626.244 1.259.476 1.881.713 1.636.284 3.852-.028 4.83.944 19.103 18.805 39.052 45.437 30.413 73.986-1.524 5.031-1.447 10.041-1.202 15.108 1.181 23.9-3.341 47.19-8.143 70.324-1.168 5.635-.231 14.427-10.282 15.974-2.985-5.365 2.851-9.31 2.341-14.05-.978-1.555-2.579-1.995-4.166-1.548-3.725 1.044-7.332 3.2-11.323 1.88-4.69-1.539-8.982-1.872-11.268 3.507-1.838 4.35-2.048 8.7 1.776 12.489 1.544 1.526 2.53 3.62 3.76 5.457 2.866 1.71 5.662 3.825 9.17 1.646-3.613 2.647-6.304.235-9.065-1.76-2.747 1.76-6.452 2.115-8.269 6.075 6.934 8.941 16.23 6.99 25.457 4.67-.832 13.113-.776 12.723-12.393 11.048-6.647-.95-14.12-1.213-13.595 9.339.182 3.577-2.237 4.833-4.676 6.224-4.292 2.448-4.166 6.124-2.586 10.836 6.41-3.918 13.063-6.813 20.305-6.806 4.802 10.893-9.052 17.79-4.67 29.194 4.069-3.044 7.354-5.613 10.751-8.011 2.104-1.476 4.355-.937 6.137.574 2.628 2.215 1.608 4.861.734 7.679-1.769 5.72-9.793 2.98-11.442 9.672 6.242 1.739 11.281-1.554 14.825-5.187 9.108-9.332 22.325-15.683 23.255-31.515.203-3.343 3.285-6.273 7.27-5.081 3.047.922 7.073 1.448 8.1 5.159 1.063 3.853-6.94 1.682-5.032 6.521 2.202 5.592 2.978 12.447 10.072 14.477 4.27 1.228 8.71 1.93 11.974 7.11-4.432 6.529-9.22 13.718-3.37 22.489 1.538 2.299 1.58 5.69-2.565 6.138-3.543.376-3.166 3.08-2.537 4.896 3.16 9.133 6.801 18.053 15.392 23.56 7.555 4.854 9.876 4.435 14.329-4.542 1.824-3.683 4.068-4.378 7.486-5.25 14.972-3.826 15.727-4.273 15.783-20.51.056-13.503 7.94-23.183 13.776-33.934 2.307-4.25 6.857-4.385 10.317-2.44 5.396 3.03 9.506.844 15.014-2.662.042 7.983 4.684 15.98-8.464 17.265-4.208.412-8.36 5.386-11.806 8.991-5.033 5.259-7.311 11.22-2.076 18.153 2.684 3.562 4.362 7.898 6.808 11.673 8.276 12.724 14.336 14.888 27.302 7.253 6.71-3.939 11.806-1.484 17.286.688 27.365 10.822 41.673 3.037 47.803-26.398.692-3.3 1.803-6.89 1.167-10.02-1.866-9.162 6.193-11.83 10.01-17.273 3.9-5.57-2.013-13.71 4.55-18.628 1.783-1.334 3.768-2.398 5.669-3.583.657-5.124-2.055-8.927-4.53-12.624-7.625-11.404-11.442-12.142-23.22-5.01-2.872 1.745-6.109 3.129-8.485 5.421-7.263 7.004-15.105 7.047-22.92 1.916-9.604-6.309-21.109-9.693-29.811-18.493 2.013-1.05 3.306-2.221 3.844-1.937 13.274 7.025 26.45-.703 39.66-.178 3.3.128 8.947.895 9.38-1.59 2.664-15.363 20.453-8.564 26.387-19.507 3.04-5.613 9.017 3.044 14.944-.596-3.781-4.811-2.188-10.921-3.34-16.23-1.525-7.067-.253-10.175 5.912-13.248 10.22-5.081 1.622-7.72-1.544-12.042-4.04 5.052-4.257 11.758-12.274 14.228 6.241-9.864 5.459-17.713-4.047-23.546-4.628-2.853-8.27-2.945-11.47 1.76-2.223 3.264-4.348 6.592-6.585 9.857-11.666 17.066-19.495 17.826-37.822 2.334 11.394-7.912 17.496-21.41 33.81-25.234-10.87-11.66-26.205-7.054-34.09-16.932-5.27 3.123-4.766 7.75-6.92 10.914-4.48 6.571-8.744 12.873-2.823 21.46 2.69 3.91-1.07 6.521-4.956 4.761-10.995-4.96-21.717-10.51-33.104-16.108 11.974-8.473 11.806-8.544 18.705-25.121 3.69-8.87 8.066-17.457 12.162-26.15 1.971-4.194 3.467-8.502 1.545-13.065-2.698-6.38-7.528-2.235-11.554-2.27-3.222-.029-6.885.376-8.5-6.224 12.253-.305 24.136-1.128 35.984-.73 9.82.326 10.01 2.029 5.85 13.234-2.027 5.478-1.307 11.233 2.656 16.002 3.335 4.002 7.396 4.513 12.093 2.59 2.572-1.057 5.473-1.291 7.996-2.434 3.502-1.568 7.759-3.044 6.508-8.352-1.028-4.322-3.58-6.969-8.458-6.053-1.07.198-2.342.553-3.23.163-4.97-2.207-4.857-7.153-5.612-11.532-.357-2.079 1.293-3.15 2.922-3.35 4.403-.538 9.142-1.518 11.19 4.337.364 1.064.392 2.313.95 3.243 10.262 17.109 17.524 16.626 27.806-2.001-2.293-4.798-10.82-1.924-11.33-10.205-.28-4.52-6.536-2.186-10.135-2.69-7.43-1.036-15.658 2.733-23.29-4.42 10.184-7.622 16.873-17.741 22.157-29.344-3.04-3.115-8.492-3.434-14.056-3.271-2.628.078-5.99-.681-6.557 3.229-.566 3.867-2.153 6.947-6.179 6.095-4.326-.915-5.36-4.69-5.731-9.097-1.056-12.582-12.938-20.523-24.073-16.385-4.83 1.795-8.423 5.996-5.152 10.424 8.123 11.014 2.034 18.94-3.977 27.35-1.265 1.766-2.146 3.81-3.886 6.968 7.06 1.213 15.566-3.612 18.558 5.94-10.156 3.548-41.191 4.428-48.495 1.12-2.81-1.277-7.542-2.348-5.557-6.698 1.992-4.357 4.257-10.162 9.597-10.659 4.767-.447 5.333 4.726 6.13 8.636.587 2.917 2.013 5.642 5.361 5.103 2.3-.37 4.082-3.236 3.62-5.16-2.62-10.736.154-22.424-9.526-32.117-4.774-4.79-7.675-4.677-12.226-3.52-4.599 1.178-8.136 3.747-7.8 9.445.14 2.257.126 4.549-.084 6.805-1.21 13.49-8.255 20.111-21.808 20.147-7.15.028-14.567.404-20.033-5.926.846-.936 1.42-2.157 2.083-2.207 5.452-.44 10.904 6.487 15.706 2.016 6.193-5.762 7.556-14.91 10.29-22.723 1.565-4.499-3.412-7.742-8.116-9.069-3.802-1.071-7.48-2.874-8.877 3.407-.56 2.533-2.6 4.995-4.543 6.89-5.592 5.464-10.904 4.166-11.359-3.385-.49-8.324-5.794-16.3-1.482-26.143 9.702 4.436 18.083.767 24.898-6.422 4.362-4.591 13.567-8.515 5.221-17.45-.384-.411.755-2.072.804-3.165.23-4.747 4.83-9.196.259-14.32-5.788-6.479-12.218-12.12-20.725-13.646-19.222-3.456-38.416-4.677-56.736 4.648-4.487 2.292-9.017 2.335-10.995-3.3-3.215-9.14-10.15-8.686-16.901-6.514-3.32 1.071-5.753 6.273-9.36.787-2.488-3.789-1.607-7.351 1.02-10.935 2.098-2.867 7.983-5.783 4.048-9.466-4.145-3.868-1.782-12.305-9.282-12.894-10.08-.781-7.466-5.514-3.656-10.929.992-1.405 1.244-3.065-.909-5.953-13.86 4.669-25.128-8.445-39.674-8.062-6.277.17-10.946-3.364-11.107-11.822-.16-8.686-14.804-20.587-23.108-20.473-2.46.028-4.096 1.59-5.193 3.647-1.244 2.328-.238 4.23 1.21 6.153 3.123 4.158 9.848 3.363 11.93 8.437 2.922 7.125 11.24 10.084 11.15 20.565-.07 7.04 9.827 13.25 17.145 17.436 11.429 6.543 19.418 13.98 22.228 28.64 2.656 13.952 17.167 21.694 24.94 33.226 6.85 10.169 15.691 14.15 28.895 13.596-3.837 4.371-8.751 2.69-10.506 6.188-2.096 4.173.252 7.65 2.062 11.141 2.922 5.649 7.55 9.744 12.163 13.91 11.896 10.75 22.772 22.707 37.332 30.925-1.978 1.341-3.145 2.569-3.55 2.349-19.188-10.304-40.737-16.584-52.047-38.739-12.903-25.277-31.426-46.346-51.577-66.272-14.315-14.15-26.051-31.004-38.752-46.8-3.145-3.91-5.382-8.623-14.79-11.738 12.309 15.669 19.18 30.663 30.72 42.564 12.176 12.546 23.22 26.008 31.265 41.74 1.238 2.427 1.601 5.308 2.377 7.984l.461 2.327c.2.297.403.592.605.887zm5.66 7.734a264.543 264.543 0 0 0 4.313 5.426c-3.426-.248-6.522 2.696-9.094 9.74 1.657-5.043 4.409-10.04 4.781-15.166zM431.795 44.815c-8.28-6.66-17.916-8.6-23.53-16.689 8.23-1.02 13.364 4.438 19.428 7.813 6.378 3.554 11.935 7.847 17.891-2.602 2.817-4.948 12.535-6.66 19.464-8.882 5.799-1.857 11.398-4.645 13.15-9.731C481.48 5.207 487.05 2.308 500 8.216c-9.954-12.306-19.964-17.772-29.182-23.893-5.82-3.865-11.069-1.118-12.72 5.348-.344 1.34.607 2.982.965 4.493.887-1.36 1.616-2.85 2.703-4.037 2.56-2.788 5.027-1.58 7.143.6 1.695 1.732 2.603 4.852.208 5.549-13.558 3.968-11.992 19.22-21.138 26.102-3.067-.45-4.311-2.333-4.033-4.638 1.145-9.49-4.605-11.408-12.499-10.711-7.83.69-13.171-2.292-19.578-7.005-12.056-8.869-26.5-14.597-37.047-25.764-2.203-2.326-5.864-3.41-9.475-3.244-3.468.152-6.15.11-6.385 5.197-.5 11.098-5.285 17.503-15.61 16.15-6.822-.89-5.928.621-6.007 4.562-.1 4.969-.05 9.869 1.824 14.672 2.023 5.197 2.946 10.594.643 17.302-9.174-.545-18.82-.207-27.086-5.28-7.437-4.575-10.855-2.152-13.486 4.75-.494 1.276-2.51 2.014-3.468 2.732-1.88.359-2.96-.228-2.853-1.615 1.165-14.866 1.251-15.121-13.858-18.248-4.913-1.014-7.801-4.154-11.477-6.66-7.63-5.183-8.68-4.755-13.479 3.997-1.065 1.953-1.83 4.078-3.103 5.887-1.352 1.904-3.368 2.87-5.892 1.987-2.474-.876-3.268-2.857-3.504-5.141-.594-5.674 2.317-9.4 10.054-11.809-10.555-3.396-16.332-3.734-20.558 5.721-2.317 5.183 0 6.75 2.467 9.552 1.945 2.209 3.575 4.596.193 6.936-2.832 1.96-5.12 1.118-7.337-1.304-2.174-2.368-2.174-6.543-6.364-7.226-.83 15.135 6.822 27.192 19.593 30.173 4.083.946 8.988 1.34 7.515 6.495-1.344 4.706-5.542 6.804-10.733 3.581-1.93-1.194-3.933-2.25-7.243-1.104-.494 4.569-2.01 9.345-4.248 14.128-3.554 7.605-.722 11.263 8.052 14.01 10.826 3.381 21.91 5.245 33.071 7.267 12.535 2.277 25.199 5.963 37.598 9.676 5.084 1.518 9.746 2.47 14.923.42 6.214-2.463 15.968-2.38 16.926-9.213 1.08-7.716-9.132-8.123-14.702-11.008-10.962-5.68-21.337-12.498-33.722-15.638-5.034-1.284-10.683-3.61-12.65-9.725 26.515 7.378 50.305 21.506 77.406 26.647 4.527.86 9.033 2.198 13.597 2.539-1.236 2.339-3.35 4.119-6.027 5.432-12.155 5.938-24.028 12.394-36.627 17.486-12.02 4.859-24.154 2.635-34.757-1.207-17.079-6.186-35.308-6.257-52.196-12.778-15.71-6.072-31.674-11.506-47.406-17.578-7.894-3.047-9.48-15.186-20.182-12.579-2.237-6.066-2.208-12.23.677-17.913 1.954-3.842 7.322-8.132 1.058-11.016-5.594-2.57-6.222 4.823-8.303 8.204-1.369 2.223-1.249 5.426-1.58 8.21-.388 3.31.19 7.273-4.416 7.891-3.647.483-6.356-1.768-8.74-4.318-2.759-2.955.232-4.39 1.184-6.811 3.196-8.161 7.753-16.336-6.017-21.393-4.797-1.769-5.044-13.985-16.825-10.036 6.667 7.095 4.021 16.037 6.963 23.942-13.418 3.104-18.433-13.693-30.567-11.094-1.065 4.702 3.076 6.144 4.317 9.148 1.566 3.786 3.704 7.53-1.481 10.022-4.176 2.01-8.007.689-10.187-3.175-1.594-2.812-2.031-6.293-3.442-11.03-2.674 5.15-2.575 9.51-.607 12.976 7.4 13.062 12.818 28.034 29.368 32.985 4.183 1.25 7.125 4.219 5.072 8.928-1.975 4.517-3.5 9.936-9.7 10.64-.847.091-2.06-.534-2.66-1.23-6.786-7.883-14.306-7.216-19.442 1.804-6.955 12.203-6.955 12.203-17.24-.156-4.706-3.416-9.644 0-14.448-.461 4.762.312 9.714-3.388 14.306.653 2.667-2.173 3.789-5.206-.331-5.924-13.072-2.258-25.714.569-38.108 4.73-3.781 1.265-1.333 4.461-1.926 5.775-2.638 5.874-1.75 17.352-14.003 12.217-1.524-.64-2.483-.448-2.258 1.136.233 1.534.939 4.176 1.722 4.283 8.564 1.172 9.671 5.014 8.627 13.715-1.234 10.377 6.547 17.706 17.975 17.87 16.268.234 24.218 13.203 35.441 21.08 4.057 2.848 1.496 7.7-.867 10.69-3.937 4.95-4.882 9.709-1.22 14.95-3.874 2.437-6.78.157-9.94-.76-4.07-1.186-4.092-1.981-4.043-7.194.156-17.025-17.135-26.898-32.88-20.612-3.661 1.463-7.464 2.692-10.906 4.574-10.702 5.845-14.215 12.131-10.272 23.694 3.034 8.885 1.087 15.193-4.211 21.869-2.765 3.487-5.39 7.45-6.772 11.641-4.819 14.681 1.763 30.534 15.809 38.183 4.91 2.67 10.525 3.992 15.653 6.279 7.76 3.452 18.617 2.692 20.303 14.688 5.905-1.733 6.01 9.993 13.58 5.625 3.746-2.159 6.737 1.634 7.075 4.986.515 5.178-4.197 3.836-7.202 4.404-1.552.298-3.076.689-4.586 2.244 6.625 1.42 13.136 1.648 19.866-.426 19.548-6.023 24.45-13.885 15.096-32.09-8.12-15.795-4.155-26.96 6.949-37.948 6.504-6.435 9.368-16.805 19.555-19.49.72 1.137 1.396 1.861 1.27 2.06-9.178 14.099-5.214 30.648-8.402 45.861-.565 2.678-.762 7.7.254 8.097 14.588 5.76 5.27 22.82 14.906 31.209 3.66 3.182.345 8.246-3.28 11.677-1.715 1.626-1.419 4.226.507 6.023 2.455 2.287 3.4-.753 5.108-1.343 10.997-3.8 21.53-.383 25.812 8.75 1.622 3.467 2.511 6.322 6.78 5.292 1.516-.37 3.357-1.442 4.055-2.735 2.554-4.652-2.194-5.312-4.352-7.436-.727-.717-1.037-1.854-2.519-4.645 9.305 2.507 16.409.028 22.44-5.952 4-3.963 4.494-7.43.254-11.492-4.902-4.695-9.798-9.432-14.292-14.518-8.296-9.403-5.735-26.073 4.762-32.558 4.05-2.5 5.75.093 7.866 3.19 7.174 10.525 15.724 20.235 17.488 35.81 11.35-11.307 11.957-26.925 25.395-35.313-13.078-7.728-20.147-24.092-38.658-15.122 2.342-8.452 16.388-30.193 27.266-42.082-4.014 13.913 3.88 18.63 11.851 23.644 9.538 5.995 18.715 12.572 28.147 18.75 3.273 2.146 6.624 4.49 10.293 5.626 7.407 2.294 10.412-.021 11.788-8.566.627-3.892.084-8.175 6.088-9.283 2.504 13.175-2.138 25.719-3.076 38.475-.339 4.687-4.028 8.026-8.656 9.56-2.123.703-5.122.916-5.298-1.897-.811-12.777-9.573-6.598-14.962-5.98-6.702.774-8.684 6.279-8.19 12.707.253 3.387.014 6.825.31 10.213.331 3.835-.099 8.544 5.495 8.928 4.572.312 7.196-2.38 8.437-6.726.614-2.138 1.2-4.532 2.568-6.137 3.323-3.892 7.979-3.743 12.529-2.969 3.457.59 4.529 3.24 3.964 6.307-.839 4.596-2.356 9.149-7.943 9.575-5.206.39-9.559 1.818-13.911 5.1-6.399 4.815-7.153 9.744-2.512 15.717 3.04 3.914 5.792 8.445 12.247 9.582 4.635-2.67 1.34-14.191 12.105-12.224 2.575.469 4.402-7.209 4.367-11.897-.063-7.493 1.905-14.39 6.271-23.502 6.547 14.553 16.797 23.374 27.238 32.153 4.613-3.267 4.613-8.885 6.377-13.48 1.658-4.305 2.123-8.822-4.84-9.852-2.842-.419-4.373-3.8-3.16-6.804 1.1-2.734 3.71-3.992 6.737-4.418 4.423-.618 7.986 3.516 13.008 1.23 9.171-4.184 15.506-17.388 12.339-27.253-1.348-4.184-4.953-5.789-7.81-4.361-13.876 6.925-22.235-1.052-30.425-10.335-1.46-1.655-3.252-3.125-5.898-2.677-2.702 3.11 1.764 6.378-.063 9.546-2.244 3.913-5.016 9.425-9.474 7.961-5.348-1.754-3.274-7.613-1.348-11.527 3.908-7.905 5.1-16.137 4.543-24.78-.303-4.717 1.2-8.915 3.429-12.97 6.13-11.151 10.398-11.13 17.763-.376 3.915 5.717 1.185 8.125-3.81 9.979-3.9 1.449-9.227-1.62-11.858 3.459-.282 3.31 2.116 4.048 4.035 4.95 10.66 5.014 21.516-1.016 32.457.064 4.177.405 10.667-5.448 9.672-14.319-.86-7.592-3.492-12.43-10.476-12.784-12.423-.625-21.276-6.272-23.018-18.268-1.651-11.329 2.497-21.961 11.322-29.597 2.991 1.094 3.548 2.742 2.772 4.276-7.69 15.036-7.724 15.015 7.4 24.767 11.81 7.628 13.418 7.77 18.737.86 4.226-5.498 6.963-10.768-2.413-14.34-2.398-.91-4.395-3.538-5.982-5.797-3.908-5.575-2.08-10.085 4.564-10.547 6.159-.433 12.444-.234 18.582.483 7.562.88 11.703 3.132 8.747 13.168-3.365 11.443 3.266 24.895 12.628 26.692 8.698 1.669 16.824 8.906 26.179 5.81 9.17-3.033 14.482-10.462 18.214-19.07 8.465-19.504 12.127-39.527 7.64-60.806-1.185-5.604-5.502-14.809 8.12-12.344 3.978.717 8.366-13.474 6.116-20.427-.74-2.287-4.656-3.743-.988-6.563 2.427-1.875 5.242-2.01 7.965-.753 1.51.696 3.428 1.513 4.113 2.834 5.058 9.702 12.19 6.18 19.4 3.509 4.246-1.577 4.316-1.392 9.643-12.202 5.502.419 8.112 4.766 10.327 9.02 5.806-1.91 7.323-6.67 7.81-10.817 1.784-15.242 13.706-26.13 16.655-40.875.74-3.722 4.903-4.12 8.5-2.43 4.918 2.323 10.081 3.275 14.004-1.292 5.128-5.98 9.798-12.394 14.13-18.985.691-1.037-.995-4.347-2.357-5.917-2.278-2.613-5.657-2.024-7.28.434-4.493 6.804-11.562 9.645-17.918 13.864-5.009 3.317-9.227 3.892-15.026 4.368-11.082.909-18.715 9.51-25.318 18.133-5.284 6.896-18.024 14.958-26.348 14.872-16.62-.177-27.499 12.11-41.064 18.495-4.628 2.181-6.66 7.117-13.601 7.97-7.111.866-5.192 12.67-9.559 18.537-7.181-11.783-9.192-13.381-20.19-6.449-14.997 9.446-30.284 18.936-42.27 32.459-3.732 4.204-6.709 9.077-12.042 12.024-3.936-4.155-.987-7.315 1.573-9.936 7.125-7.294 13.954-14.49 18.088-24.29 2.92-6.926 10.067-10.747 16.945-13.403 17.34-6.705 33.282-16.826 51.455-21.422 3.964-1.001 7.498-2.784 10.433-5.383 26.08-23.148 57.48-37.715 87.136-55.11 4.586-2.691 10.638-3.593 12.98-9.367-1.636-1.783-3.562-1.847-4.916-1.002-15.696 9.773-34.003 14.127-48.944 25.967-13.234 10.483-29.614 16.144-45.374 22.338-.82.321-1.635.65-2.448.984zm-4.187 1.784a208.47 208.47 0 0 0-12.784 6.192c.269-2.478-2.308-4.959-7.732-8.163-2.43-1.429-5.077-2.505-7.63-3.754-2.002-.98-4.297-1.636-5.262-6.06 12.535-1.99 20.694 10.753 33.408 11.785zm-38.94 21.612c-1.118.714-2.234 1.43-3.348 2.148-5.327 3.432-10.288 5.873-16.196 6.138-8.247-3.423-17.755-2.798-26.187-5.602-5.885-1.953-12.113-2.657-17.862-8.144 9.417-1.394 16.84 1.878 24.012 4.48 13.93 5.054 27.016 4.804 39.581.98zm910.602-726.733c6.095 4.13 12.147 7.522 19.986 4.982 3.406-1.107 7.368-1.313 7.516 3.505.155 4.804-1.738 9.119-7.98 8.054-2.724-.461-5.405-2.122-8.044-1.987-5.552.284-11.907.483-11.914 8.587-.014 7.103-14.124 8.43-6.77 18.01 6.657-3.981 14.272-5.833 22.23-6.798 1.64 10.977-11.315 17.669-6.333 28.647 5.264.24 6.242-4.74 9.472-6.564 3.385-1.902 6.594-2.449 8.832 1 2.16 3.328.232 6.316-2.02 9.133-2.237 2.789-8.41.348-8.163 8.629 16.453-6.784 28.24-17.442 34.877-32.486 6.087-13.802 6.523-14.512 19.486-2.54-.247 2.689-1.844 1.937-3.336 1.305-1.414-.589-2.73-1.824-4.349-.404.373 13.752 11.063 17.939 22.273 22.487-4.891 8.899-9 16.066-2.52 26.689 4.434 7.266-4.137 1.022-6.86 2.129.302 10.693 5.559 19.407 12.258 26.993 7.77 8.807 13.913 8.21 20.274-2.136 2.717-4.442 6.285-3.74 9.782-4.917 12.23-4.116 13.476-5.812 11.844-19.387-1.844-15.235 8.944-24.922 15.313-36.474 1.597-2.91 6.375-2.1 9.387-.461 5.046 2.753 9.395 1.71 14.201-2.108.796 8.303 3.709 15.633-9.127 16.846-4.806.455-9.007 7.97-13.399 12.355-3.209 3.207-3.378 6.663-1.175 10.757 3.209 5.983 6.024 12.135 10.598 17.3 10.084 11.397 11.787 12.17 25.419 5.458 6.284-3.094 11.301-2.54 17.417.326 24.813 11.624 43.947.98 48.275-26.518.612-3.896.528-7.912.718-11.879.21-4.598.88-8.16 5.728-11.148 4.581-2.817 9.163-8.281 6.58-14.618-2.287-5.606.957-8.366 4.37-8.899 4.926-.766 2.674 4.975 4.335 7.43.52.774 1.633 1.143 3.934 2.64-.387-14.718-6.742-24.95-16.749-33.387-2.836-2.385-5.989-2.867-9.324-.817-1.921 1.178-3.85 2.406-5.911 3.265-8.023 3.342-13.069 13.177-23.667 10.942-7.199-1.512-28.528-14.47-35.052-21.494.71-1.845 2.625-2.683 3.892-1.994 14.144 7.692 28.106-4.47 42.195-.312.929.276 3.06-.37 3.103-.76 1.752-15.845 20.246-8.77 26.193-19.62 3.216-5.87 9.035-.675 13.722.056 1.436.227 3.709-.383 4.511-1.44 2.512-3.343-1.38-2.86-2.681-4.123-4.483-4.322-1.605-10.545-3.723-15.881-2.435-6.124 4.124-7.962 8.846-9.885 2.569-1.05 2.815-3.57 1.407-5.585-1.64-2.342-4.025-4.45-6.91-1.753-1.992 1.86-2.428 5.16-6.89 6.834 3.28-12.837-4.426-18.698-14.095-24.524-5.644 7.77-10.654 15.22-16.22 22.225-6.7 8.416-22.808 8.359-29.747.241-2.252-2.64-1.788-5.216.584-7.394 7.044-6.436 12.385-14.803 21.196-19.238 2.35-1.192 6.059-1.05 5.595-4.988-.38-3.186-3.153-4.606-5.926-5.16-4.905-.986-10.07-.446-14.651-3.327-3.751-2.363-7.805-4.222-12.512-6.727-6.644 12.028-13.786 23.19-4.82 40.504-16.102-7.238-28.488-12.801-42.886-19.28 23.476-12.028 22.71-36.829 33.357-55.023 4.588-7.849.26-11.588-10.338-11.418-3.8.057-8.03.88-9.746-7.01 12.73 0 24.84-.42 36.903.134 9.366.426 10.049 2.377 6.115 11.957-3.188 7.735-1.168 16.207 4.68 19.67 4.292 2.555 20.584-1.461 23.173-6.095 2.287-4.116.83-8.033-3.18-9.97-2.288-1.107-5.61.135-8.072-.78-3.519-1.314-4.469-4.79-4.448-8.41.014-3.136 1.133-5.563 4.525-6.039 3.427-.49 6.742-.49 8.438 3.527 1.09 2.576 2.02 5.344 3.652 7.55 8.656 11.723 17.072 11.326 24.771-1.021 3.082-4.946 2.196-7.182-3.772-9.807-13.933-6.131-13.666-6.777-29.612-7.53-3.413-.162-6.714-.354-9.986-3.576 1.815-7.138 9.155-9.466 13.842-13.021 5.925-4.492-3.357-16.264 10.52-15.193-10.407-4.868-19.373-11.347-25.685 2.597-.444.98-3.153 1.774-4.398 1.363-3.498-1.15-4.758-4.038-5.117-7.792-1.428-14.824-11.562-22.14-24.39-17.733-3.28 1.128-7.734 4.222-5.764 6.99 10.415 14.625 1.063 25.44-7.713 38.063 8.508.348 17.115-3.179 21.323 8.743-15.51 0-30.31.298-45.087-.17-4.842-.157-11.098-1.47-11.943-7.239-.661-4.534 4.568-7.436 7.776-10.438 3.406-3.186 6.06-1.618 7.383 2.52.844 2.653 1.231 5.527 2.47 7.968.584 1.157 2.624 2.001 4.095 2.179 1.964.227 3.068-1.668 3.11-3.293.31-12.922-1.808-25.518-8.704-36.46-3.814-6.046-18.367-1.973-20.563 5.251-.479 1.583-.253 3.378-.422 5.067-2.421 25.71-19.557 33.054-42.118 17.96 2.554-5.06 5.918-1.384 8.135-.191 7.157 3.846 11.696 2.114 14.384-5.408.76-2.136 1.492-4.272 2.322-6.372 6.06-15.207 6.066-15.207-10.893-21.033-3.413 4.173-3.498 10.68-8.895 13.681-3.997 2.214-9.043 2.839-9.346-2.15-.577-9.395-5.552-18.5-2.343-29.321 12.11 5.35 20.668-.617 28.29-8.714 3.574-3.796 9.563-7.38 2.99-13.887-.908-.894.415-4.144.774-6.287 2.175-12.589 1.281-15.768-10.035-21.04-13.314-6.195-27.269-10.375-42.307-6.394-9.543 2.512-20.218.057-28.769 7.316-1.998 1.689-5.25.092-7.417-2.235-11.083-11.893-11.112-11.865-24.468-5.713-3.125-3.285-3.21-7.521-1.626-11.041 2.45-5.429 5.68-9.012 1.534-16.413-3.582-6.38-8.085-7.998-13.223-9.474-.851-5.464 4.195-8.75 3.069-13.447-1.07-.752-1.97-1.944-2.822-1.916-14.82.582-27.6-8.444-42.259-9.012-4.644-.177-7.987-3.718-7.375-9.495.479-4.499 1.014-9.324-3.694-12.198-6.228-3.803-12.421-7.791-19.592-9.53-1.19-.29-3.202 1.022-4.208 2.15-2.35 2.661-.669 5.251.865 7.621 3.252 4.989 9.867 5.287 13.202 11.759 2.752 5.329 7.643 8.607 8.691 16.285.985 7.238 9.367 12.149 16.066 16.527 4.16 2.71 8.846 4.18 12.407 8.402 4.855 5.748 10.724 9.693 11.119 18.883.295 7.025 5.784 13.227 10.408 19.074 6.868 8.672 15.876 15.15 21.702 25.213 3.406 5.882 13.962 4.705 21.773 6.784-11.9 7.21-13.427 10.232-5.383 19.166 10.436 11.581 21.456 22.829 34.222 32.046 4.947 3.577 10.816 5.968 14.602 11.212-1.133.525-2.498 1.625-2.97 1.32-16.896-10.779-39.12-13.014-50.097-33.437-7.2-13.39-17.636-24.893-23.941-38.958-1.126-2.519-2.794-5.13-4.912-6.805-26.376-20.912-45.665-48.246-66.417-74.254-2.442-3.05-5.285-5.776-8.593-9.352-2.998 5.861 1.422 7.947 3.083 10.821 11.104 19.153 27.41 34.31 39.872 52.334 17.312 25.028 35.426 49.425 54.898 72.7 8.641 10.332 18.353 19.692 26.502 30.62 9.74 13.071 14.18 27.391 11.52 42.995-2.576 15.051-.704 30.116-2.632 45.203-2.16 16.803-5.13 33.423-7.952 50.084-1.035 6.117-3.28 12.135-9.5 15.285-1.105.845-2.034 1.852-2.85 2.966-4.209 5.117-9.684 4.322-15.2 3.35-.726 0-1.436 0-2.161.007-2.949 1.476-6.355 2.32-8.22 6.436zM962.632-143.86c26.89-3.79 52.844-5.76 76.023 14.632 15.918 14.012 34.452 24.933 49.99 39.722 10.395 9.893 24.212 16.824 26.483 33.276.555 4.026 9.93.543 6.191 7.138-3.085 5.453-4.217 13.812-13.451 12.99 2.08 10.343 2.993 11.05 8.792 6.31 3.52-2.876 6.74-6.017 8.04-10.685.78-2.77 1.87-6.088 5.524-4.325 2.361 1.135 4.364 3.526 5.91 5.789 2.13 3.083.008 4.696-2.516 6.623-8.11 6.21-13.114 12.192-2.108 21.535 3.662 3.105-2.382 14.66 10.388 13.812-3.191-7.795-.485-15.51 3.33-24.49 10.381 5.367 11.337 19.8 21.837 23.526 4.133-3.94.57-5.753-.28-8.002-1.519-3.975-2.067-7.872 1.798-10.749 1.202-.9 3.388-1.563 4.646-1.07 4.118 1.634 5.939 5.053 5.257 9.557-.394 2.548-2.158 5.053-.345 8.587 7.415-16.546 3.866-38.901-8.005-49.972-2.755-2.57-5.369-4.49-3.675-8.144 2.305-4.954 6.965-7.145 12.102-8.03.541-.093 1.532 1.32 2.017 2.206 5.187 9.586 10.718 11.62 18.203 5.21 6.389-5.46 11.076-8.55 14.59 2.191.506 1.542 1.617 3.041 2.797 4.183 3.676 3.526 8.638 1.535 12.855 2.834 6.733 2.07-3.015 7.651 1.44 8.893 7.97 2.22 16.046 5.868 24.648 2.827 3.683-1.306 7.478-2.584 10.774-4.604 3.079-1.877 5.37-6.745 2.826-8.65-8.75-6.568-2.896-13.505-1.968-20.515.948-7.159.098-13.826-8.118-16.61-14.8-5.017-17.212-19.992-24.127-31.291-2.137-3.498.421-6.488 2.93-8.908 2.383-2.327 5.054-4.361 7.366-6.76 1.652-1.705-2.39-8.472 4.273-5.531 3.303 1.456 7.267 4.19 5.362 9.25-2.874 7.623-.09 14.597 2.053 21.635.64 2.098 1.61 4.968 3.226 5.731 11.216 5.268 23.136 3.705 34.522 1.442 8.56-1.713 9.965-9.779 9.558-17.751-.302-5.803 2.446-9.743 7.407-12.306.998-.514 1.926-1.17 2.938-1.684 23.51-11.963 21.991-35.582 6.03-51.778-3.577-3.626-7.323-7.073-11.069-10.52-4.343-3.99-10.36-6.339-8.103-14.911.808-3.048-4.484-6.924-7.984-9.586-7.717-5.853-7.682-5.903 1.455-12.72-6.164-5.353-13.642-4.832-20.867-4.283-12.615.957-18.097 5.54-16.502 18.309 2.495 19.821-5.243 31.078-22.87 37.659-6.142 2.284-10.886 8.08-17.837 8.208-2.242-1.128-2.312-3.148-1.23-4.247 8.364-8.458 14.59-17.53 17.93-29.75 2.002-7.31 10.59-11.899 3.471-21.692-3.683-5.082 4.35-11.213 3.634-17.694-4.414-3.783-9.96-.586-14.59-2.513-2.018-.842-4.618-1.834-3.965-4.66.605-2.606 3.22-3.698 5.032-1.778 8.153 8.7 10.564-2.184 15.694-4.176 4.512-1.756 4.765-4.946 3.732-7.944-1.778-5.11-3.865 1.413-6.03.385-4.828-2.284-8.469-6.138-14.668-6.845-4.708-.535-2.726-7.651-2.319-12.02.197-2.162 1.525-4.746-1.44-5.503-1.99-.514-4.527-.214-6.424.643-2.678 1.199-1.856 3.733-.85 5.838 2.656 5.553 5.854 10.914 5.615 18.244-4.864-1.049-5.412-5.446-6.846-8.422-3.9-8.144-10.029-8.109-17-5.532-5.349 1.977-8.849 5.096-5.609 11.563a110.703 110.703 0 0 1 4.175 9.344c7.808 19.985 5.193 25.71-16.973 35.189-4.463-13.783-6.002-27.938-6.41-44.333-11.75 5.989-17.704 16.488-27.648 21.463-2.762 1.378-1.21 4.875.12 7.595 4.954 10.086 9.445 20.535 26.298 20.185-14.12 9.793-25.055 17.367-36.138 25.054-4.16-4.797 2.41-9.393-1.23-14.511-9.818-13.819-18.119-28.758-28.05-42.491-5.46-7.538-9.368-6.224-15.068 2.634-2.059 3.205-4.006 6.938-10.837 6.188 5.904-7.694 8.483-16.074 11.955-24.061 2.734-6.296 6.43-12.484 13.34-14.54 2.691-.8 10.267-4.882 6.985 5.525-1.82 5.753 4.857 6.48 8.792 7.316 4.934 1.05 10.444 1.506 13.424-4.09 1.848-3.476 3.03-7.359 4.154-11.163 1.145-3.89 2.01-8.466-2.137-10.757-4.505-2.484-8.384-1.213-10.81 4.211-3.155 7.052-8.166 3.662-12.692 1.52-2.98-1.406-4.062-3.947-3.022-7.009 1.146-3.419 3.416-6.43 7.302-5.596 4.934 1.071 9.46 2.47 14.745.771 10.873-3.49 12.672-6.495 8.511-17.138-2.319-5.895-5.046-11.613-11.252-3.483-4.174 5.453-12.896-4.018-15.89 6.003-1.722 5.796-6.087 10.828-9.537 16.017-1.174 1.756-3.191 2.927-6.501 5.846-2.39-13.49-1.251-27.43-15.048-34.925-3.493 4.71-12.046 6.66-7.73 15.724 1.377 2.906 5.13 5.432 1.405 8.623-2.769 2.362-6.34 1.406-9.593.143-11.99-4.647-16.031-3.94-22.884 3.933-8.321 9.536-6.754 15.453 5.616 17.823 7.885 1.52 10.978 6.78 14.204 13.004 2.003 3.862 1.405 9.294 6.36 11.564 3.605-1.185 1.862-4.69 2.945-6.924 2.249-4.618 7.407-7.794 10.647-5.625 5.292 3.54.612 8.152-2.382 11.207-4.864 4.968-8.28 10.52-10.542 17.173-3.12 9.172-9.657 14.954-18.948 17.338-3.1-5.632-8.483-11.678-5.981-16.624 3.303-6.495 10.043 1.727 15.328-.071 1.005-.343 1.89-1.035 3.528-1.956-8.68-13.997-22.602-14.897-36.356-15.068-7.155-.093-6.417 7.802-8.687 12.27-2.298 4.525 1.02 7.609 4.843 9.329 11.167 5.025 16.895 13.305 14.309 25.789-2.228 10.763-9.502 17.252-18.695 20.97-2.347-1.127-2.642-1.998-1.954-3.147 2.783-4.718 11.393-5.218 10.226-12.32-1.405-8.544-8.644-14.197-13.163-21.12-2.116-3.241-8.406-.8-12.047 2.533-3.141 2.87-5.735 5.903-1.616 9.914 2.136 2.092 3.17 4.504 3.542 7.474.998 7.93-2.635 11.591-9.453 8.158-7.421-3.733-15.813-5.953-22.996-13.355 5.433-5.339 10.486-10.906 9.123-19.785-1.35-8.787.653-18.951-12.644-19.565-.773-.036-1.37-1.749-2.242-2.42-12.742-9.786-16.115-9.921-29.223-1.206-5.228 3.483-9.825 7.787-13.065 13.162-8.3 13.79-18.294 26.838-18.224 44.368.021 3.94-2.81 6.588-8.089 6.389-9.284-.357-16.874 4.454-15.462 11.927 2.355 12.398-4.85 5.317-7.843 4.989-2.86-.314-4.006-3.583-4.744-6.453-.83-3.269-2.537-8.7-5.3-7.216-5.559 2.998-10.295-3.983-16.01.857-7.618 6.452-8.264 5.674-14.189-4.783-9.692 2.434-8.87 15.332-19.236 18.93-7.92 2.74-13.234 13.24-19.51 20.071-14.105-10.457-23.888-9.564-36.103 1.913-2.41 2.263-2.903 4.461-1.378 7.43 2.024 3.962 4.927 4.262 8.35 2.356 5.221-2.912 9.874-5.896 16.663-5.889 5.454 0 9.854-.928 15.603 1.735 8.468 3.933 17.514-.557 25.3-4.84 11.33-6.224 21.704-8.993 35.071-3.94 13.93 5.275 28.703-.913 42.675-4.525 17.921-4.625 17.795-5.132 26.418-15.846 2.558 4.147-2.565 8.658 1.132 12.141 3.802 3.59 8.307 3.534 12.657 3.063 15.589-1.67 30.516-6.203 45.212-11.62 5.018-1.857 9.39-6.225 15.42-5.011.344 5.089-3.1 6.88-5.91 7.794-8.196 2.662-15.182 6.795-21.493 12.84-5.039 4.84-11.934 6.403-18.842 5.91-40.13-2.897-79.052 4.769-117.988 13.149-12.517 2.698-25.554 2.962-38.373 4.218-5.482.535-11.337-.228-16.277 7.174 18.308-2.749 35.295-.85 52.373-4.804 15.132-3.505 30.973-4.418 46.568-5.097 19.053-.82 38.296.457 56.766-5.339 6.585-2.055 12.053 2.363 18.16 1.1 1.132-2.577 3.613-4.419 6.277-4.797zm287.892-745.685c7.997-12.515 5.198-22.225-6.451-30.044-4.116-2.762-5.782-7.013-7.79-11.048-3.098-6.222-8.324-9.955-14.648-10.588-8.067-.799-9.563-4.122-6.75-11.084.577-1.432.157-3.223-2.727-4.69-6.544 9.12-10.888 19.65-15.474 29.965-2.043 4.597.72 7.646 5.241 8.87.983.265 2.55.25 3.183-.346 2.215-2.122-.833-2.28-1.488-3.345-1.666-2.719-2.072-5.394.627-7.574 1.381-1.13 3.688-1.208 4.578.223 6.452 10.408 19.283 8.631 27.892 14.774-.029 5.79-4.522 4.078-7.228 4.834-4.628 1.287-7.526 4.64-6.066 8.797 7.056 20.132-7.855 34.273-12.996 51.026-2.107 6.876-9.655 11.379-8.58 19.708.278 2.194.577 4.387 1.04 7.89 13.244-5.955 20.735.216 22.871 11.99.997 5.446 3.674 3.05 5.37 3.13 8.409.352 14.86-5.186 22.137-8.243 6.544-2.755 9.791-.813 9.82 6.387.014 3.445.961 7.286-.2 10.271-4.122 10.595-3.474 19.637 8.453 26.484-15.552 1.885-13.743 2.324-17.168 16.73-2.685 11.315-6.922 22.17-7.854 34.066-.691 8.768 4.571 10.43 10.716 12.53 4.636 1.59 5.918-1.791 7.961-4.41 1.524-1.948 3.482-3.063 5.711-1.244 2.848 2.324 2.47 4.942-.17 7.129-2.045 1.697-4.501 2.97-4.644 6.358 17.204-3.575 22.345-8.243 24.788-22.967.59-3.553.712-7.552 4.756-8.005 4.137-.46 5.611 3.114 5.69 6.869.057 2.82-1.34 7.092 1.103 8.027 5.006 1.935 10.596 2.798 16 3.1 8.645.49 9.756-5.675 10.076-12.63 1.061-22.694 2.258-45.373 3.646-68.045.449-7.308-2.122-13.472-5.597-19.507-1.702-2.963-3.104-6.48-7.249-6.272-4.272.223-5.319 4.115-6.309 7.2-3.816 11.962-7.298 24.032-10.837 36.087-.776 2.647-1.225 5.38-2.663 7.97-2.343-9.769-1.417-18.882 1.758-28.678 5.291-16.3 6.75-33.483 6.081-50.724-.07-1.791-1.182-3.115-4.372-3.992-5.276 13.695 3.226 30.231-7.619 44.574-2.67-19.047 8.716-37.26-1.267-53.767-5.768-9.53-11.194-20.039-20.657-26.484-6.694.619-6.188 6.481-8.495 10.027-2.137 3.273-.157 8.207-4.764 11.2-6.373-5.453-1.823-10.87.25-16.034 2.328-5.804 4.934-11.465 2.121-18.248-7.455 5.575-4.714 16.896-12.675 21.737-1.36 1.323-1.046 3.186-1.516 4.798-.42-1.92.562-3.31 1.737-4.618.15-3.438-.947-7.675.648-10.164zM928.031-126.238c-5.006.568-11.647-1.434-14.125 3.81-2.802 5.938 3.32 9.686 6.756 13.898 1.916 2.363 5.827 3.742 4.51 8.848-14.097-1.947-14.961-20.238-29.288-22.33 5.158 12.547 17.503 19.974 22.812 33.907-2.744-1.642-3.71-1.96-4.3-2.605-8.341-9.07-14.99-22.129-25.397-26.126-9.782-3.756-23.165 4.6-35.56 3.52-4.301-.382-7.557 1.987-10.906 4.274-7.671 5.244-7.75 5.14-18.533 1.656 5.013 11.93 10.833 22.01 19.62 30.886 5.576-4.698-.266-6.222-.749-8.778-.432-2.294-.67-5.876.93-5.834 12.684.277 18.64-11.75 28.89-14.91 3.919 2.696 2.86 5.238.987 7.49-3.71 4.469-1.368 7.4 2.867 8.958 21.01 7.739 29.056 26.597 39.075 43.225 3.998 6.624 8.723 11.1 13.787 15.014 5.114-.326 5.02-3.305 5.567-5.959 1.347-6.505 4.495-7.974 12.101-7.544 13.815.796 13.93-.375 16.948-13.434 1.24-5.349 2.233-10.739 3.335-16.115 15.674 2.903 17.38 3.949 30.685 18.768 4.725-1.247 7.238-6.997 14.002-6.131.792 4.212-3.407 6.11-5.323 8.958-1.837 2.73-1.916 5.605.893 7.282 13.03 7.794 20.003 21.678 32.852 29.68 6.188 3.859 11.064 4.15 16.17-1.503 2.154-2.398 2.983-4.552 2.003-7.4-1.073-3.117-3.097-6.762 2.334-7.6 4.948-.762 5.078 3.222 5.575 6.512.23 1.573.576 3.125 2.456 3.68 6.584-12.95 5.373-22.17-4.783-30.152-3.133-2.467-8.355-4.455-5.77-8.508 2.918-4.587 7.974-2.64 12.015.332 1.772 1.31 3.796 2.287 6.108 3.652 1.614-4.996 3.076-8.855 7.542-12.055 5.034-3.61 5.51-9.651-.57-14.016-7.771-5.577-14.513-12.152-23.344-16.794-11.87-6.222-22.372-14.93-33.155-22.96-6.756-5.037-14.124-7.067-22.494-6.665-3.58.173-7.13.526-8.99 3.803-2.124 3.755.908 6.277 3.329 8.467 9.478 8.59 16.883 18.699 26.276 31.19-11.18-3.096-14.997-10.246-20.485-15.297-13.643-12.547-26.889-25.614-45.422-31.669-.216 6.984 8.968 7.4 10.43 13.254 5.424 2.764 9.184 7.773 14.795 10.281-5.82-2.245-9.5-7.316-14.701-10.378-13.398-5.238-27.162-8.224-41.755-6.582zM675.877 251.955c-10.332 5.539-18.589 13.02-26.798 20.944-9.56 9.223-19.733 17.843-29.079 27.535 18.658-4.93 26.743-27.361 50.39-29.076-11.517 12.579-25.074 19.545-32.297 33.201-.572-.837-.22.329.517.657 4.893 2.15 9.001 6.29 14.984 5.733-2.123-5.25 2.185-8.841 3.556-13.208.786-2.532.924-5.271 4.129-6.698 3.64.014 5.052 4.749 9.532 4.387 12.055-.978 22.214 4.36 32.319 9.953 8.643 4.783 9.298 4.327 13.654-4.943.227-.475.11-1.212.44-1.52 7.714-7.086 12.063-14.755 2.496-23.844 10.077-4.629 19.581.087 27.494-5.673 1.854-1.347 3.15 6.02 8.65 7.16 12.965 2.692 12.785 3.51 21.25-5.298 4.831 2.35-.373 7.046 2.432 9.865 11.759-.87 4.611-10.877 7.396-16.155 4.632-8.787-7.072-9.135-13.323-13.723 6.465-4.106 11.359-9.264 9.49-17.314-20.304-10.596-41.388-6.832-62.445-3.202-7.547 11.065-7.175 11.587 11.31 15.6 3.026 2.464 6.59 2.605 8.63 2.35-1.537 0-4.832.737-7.589-1.721-7.574-2.163-15.425-3.141-23.034-5.218-5.645-1.533-1.696-4.675-1.944-7.153-.475-3.108-1.778-5.686-4.742-7.234-5.996 11.494-16.39 18.687-27.418 24.595zm-313.03-625.113c-7.09 1.849-15.19-1.546-22.181 3.908-2.47 1.928-4.815-1.98-8.666-2.767.635 6.14 3.824 10.647 6.294 15.487 7.905-3.135 16.229-4.738 22.962-10.185 3.51 4.284-.816 9.723 4.382 12.85 10.773 6.48 13.92 18.666 18.783 29.378 3.237 7.152 5.351 15.235 13.8 4.334 1.033-1.336 4.313-1.856 6.162-1.307 7.745 2.283 9.091-2.268 10.856-8.632 2.973-10.777 5.052-11.023 13.292-3.915 3.573 3.084 5.429 9.354 12.022 7.079 2.086-.715 3.65.982 2.763 2.514-5.051 8.769 4.354 11.875 6.391 17.805 1.466 4.255 5.052 5.981 9.33 2.47 1.555-1.278 3.69-3.336 5.232-.252.593 1.185.112 3.532-.712 4.739-1.395 2.051-5.17 3.481-.948 6.161 2.24 1.423 4.151-.6 6.098-1.618 3.23-1.69 2.093-10.886 9.824-5.771 1.137.75 2.456-5.534 2.581-8.986.21-6.025-6.293-7.636-7.723-12.389 3.167-6.797 7.947.441 11.777-1.907 4.703-2.889 9.664-6.233 4.898-11.817-11.38-13.335-23.932-25.6-38.92-34.579-2.832-1.697-6.997-3.893-11.77-1.062-.426 7.325 8.338 11.42 7.912 23.578-11.715-24.278-31.97-23.635-49.88-28.396-8.457-2.239-9.63 2.492-9.56 9.167-9.042 2.608-15.015-8.495-25-5.887z" fill="#07170F" fill-rule="evenodd" opacity=".398"/></svg>