<svg width="35" height="33" viewBox="0 0 35 33" xmlns="http://www.w3.org/2000/svg"><title>svg/text/form_icon_calendar</title><g fill="#BBEE2A"><path d="M32.085 19.608V5.5c0-1.517-1.308-2.75-2.917-2.75h-4.375V.687c0-.38-.326-.687-.73-.687-.402 0-.729.308-.729.688V2.75H10.21V.688c0-.38-.326-.688-.73-.688-.402 0-.729.308-.729.688V2.75H2.917C1.308 2.75 0 3.983 0 5.5v22c0 1.517 1.308 2.75 2.917 2.75h17.88C22.27 31.929 24.496 33 26.98 33c4.423 0 8.022-3.392 8.022-7.562 0-2.344-1.137-4.441-2.917-5.83zM1.458 5.5c0-.758.655-1.375 1.459-1.375H8.75V5.5c-.804 0-1.458.617-1.458 1.375S7.946 8.25 8.75 8.25c.805 0 1.459-.617 1.459-1.375v-2.75h13.125V5.5c-.804 0-1.458.617-1.458 1.375s.654 1.375 1.458 1.375c.805 0 1.459-.617 1.459-1.375v-2.75h4.375c.804 0 1.458.617 1.458 1.375v4.125H1.458V5.5zm1.459 23.375c-.804 0-1.459-.617-1.459-1.375V11h29.168v7.71a8.355 8.355 0 0 0-3.646-.835c-4.422 0-8.02 3.393-8.02 7.563 0 1.238.323 2.404.885 3.437H2.917zm24.063 2.75c-3.619 0-6.562-2.776-6.562-6.187 0-3.412 2.944-6.188 6.562-6.188 3.62 0 6.563 2.776 6.563 6.188 0 3.411-2.944 6.187-6.563 6.187z"/><path d="M30.613 23.195l-4.45 4.196-1.622-1.529a.737.737 0 0 0-1 0 .64.64 0 0 0 0 .943l2.122 2c.138.13.319.195.5.195a.73.73 0 0 0 .5-.195l4.95-4.667a.64.64 0 0 0 0-.943.738.738 0 0 0-1 0z"/></g></svg>