<svg width="146" height="151" viewBox="0 0 146 151" xmlns="http://www.w3.org/2000/svg"><title>svg/index/logo</title><g fill="none" fill-rule="evenodd"><path d="M-96-1390h1440v7760H-96z"/><path d="M143.979 44.743c2.28 1.1-1.525 2.116-4.08 2.638a2.25 2.25 0 0 1 2.02 1.301c1.37 1.392-1.037 1.942-1.037 1.942 2.123 3.063-7.153 2.6-7.153 2.6 1.718 2.499-2.867 2.544-5.612 2.37a65.748 65.748 0 0 0-10.16 7.215c.345.106.678.25.992.427 2.513-4.354 5.423-1.536 5.423-1.536 6.202-2.55 5.31 1.543 5.31 1.543 8.383 1.223 4.566 4.237 4.566 4.237 8.797 5.53-.933 4.872-.933 4.872.43 2.391-2.702.104-4.674-1.529.512.678.558 1.599.118 2.325-.346 1.866-2.246.36-2.246.36-1.305 3.47-6.481-3.9-6.481-3.9-.977 2.573-3.379-.095-4.927-2.254.232.909.417 1.83.553 2.757.103.682.184 1.377.261 2.061l.145 1.265c.186.273.321.577.4.898 8.226-1.97 5.931 2.216 5.931 2.216 10.367 1.866 1.123 4.847 1.123 4.847 1.377 2.05-2.44 1.09-4.92.311a2.114 2.114 0 0 1 1.044 2.095c.438 1.855-1.925 1.169-1.925 1.169.103 1.792-1.698 1.536-3.564.813a24.737 24.737 0 0 1-.893 1.94c.461.26.782.712.877 1.233 6.421-1.429 4.549 1.843 4.549 1.843 7.982 1.62.756 3.845.756 3.845 1.019 1.639-1.918.829-3.817.173.567.353.866 1.011.76 1.671.3 1.475-1.524.898-1.524.898.077 2.903-5.816-1.064-5.816-1.064a1.14 1.14 0 0 1-.013.137c.83.311 1.313.791.75 1.555 0 0 1.612.473.638 1.413 0 0-.045.082-.117.188a114.066 114.066 0 0 0 19.532-4.778.87.87 0 0 1 .446.317c3.451 6.97 5.146 14.176 3.11 21.936a2.084 2.084 0 0 1-1.652 1.667c-2.98.8-5.947 1.732-8.925 2.559a2.556 2.556 0 0 0-1.734 1.418 34.148 34.148 0 0 0-2.928 9.374 1.4 1.4 0 0 1-1.065 1.222 92.643 92.643 0 0 1-16.2 3.967c-1.141.2-2.298.277-3.427.527-.524.114-.995.4-1.337.814a28.49 28.49 0 0 1-19.678 11.945 30.684 30.684 0 0 1-20.55-3.806 23.124 23.124 0 0 1-8.086-8.114 1.687 1.687 0 0 0-1.076-.726 97.648 97.648 0 0 1-15.831-3.622 1.787 1.787 0 0 1-1.431-1.564 26.034 26.034 0 0 0-4.883-10.606c-.435-.484-1-.835-1.627-1.01a290.168 290.168 0 0 0-9.02-2.614c-1.72-.472-2.139-1.641-2.192-3.254a37.79 37.79 0 0 1 2.16-13.77c.854-2.416 1.904-4.77 2.85-7.13l.301.08a94.54 94.54 0 0 0 13.477 3.818.948.948 0 0 1-.365-.881s-1.82.577-1.525-.898a1.665 1.665 0 0 1 .763-1.671c-1.9.653-4.836 1.467-3.817-.173 0 0-7.225-2.224.756-3.845 0 0-1.873-3.27 4.547-1.843 0 0 .415-2.344 2.834-.83a1.14 1.14 0 0 1 .113-.143c.074-.139.17-.266.282-.377a25.828 25.828 0 0 1-.55-1.111 4.122 4.122 0 0 1-1.434-.816c-1.97.81-3.962 1.186-3.859-.702 0 0-2.363.686-1.925-1.167a2.114 2.114 0 0 1 1.045-2.097c-2.48.783-6.299 1.74-4.921-.31 0 0-9.243-2.984 1.122-4.849 0 0-2.294-4.18 5.932-2.216a2.008 2.008 0 0 1 1.963-1.659l.015-.048c.1-1.899.402-3.781.902-5.616-.247-.264-.488-.53-.744-.794-1.36 2.091-4.542 6.448-5.702 3.387 0 0-5.177 7.367-6.48 3.9 0 0-1.901 1.508-2.248-.361a2.074 2.074 0 0 1 .12-2.326c-1.97 1.64-5.105 3.922-4.676 1.531 0 0-9.729.657-.933-4.872 0 0-3.817-3.014 4.562-4.24 0 0-.892-4.092 5.308-1.542 0 0 2.911-2.816 5.424 1.535.315-.177.648-.32.993-.426a65.888 65.888 0 0 0-10.159-7.215c-2.747.175-7.331.13-5.614-2.37 0 0-9.276.464-7.153-2.599 0 0-2.41-.55-1.036-1.943a2.252 2.252 0 0 1 2.021-1.3c-2.555-.518-6.357-1.537-4.077-2.638 0 0-6.384-7.028 3.54-3.636 0 0 .25-4.71 6.302.947 0 0 2.903-3.131 4.47 3.126 0 0 4.108.533 1.958 5.053 0 0 2.86 1.037 2.372 3.411a72.909 72.909 0 0 1 4.556 2.973c.043-.319.133-.63.265-.923-4.638-4.675-.284-5.273-.284-5.273-1.659-7.915 2.613-5.536 2.613-5.536 2.468-9.767 5.134-.83 5.134-.83 2.217-1.207 1.031 2.372.09 4.695a2.327 2.327 0 0 1 2.245-.894c1.97-.322 1.124 1.893 1.124 1.893a1.224 1.224 0 0 1 1.268.622c.208-.86.397-1.72.545-2.592a15.287 15.287 0 0 0-.34-7.339 168.32 168.32 0 0 0-.892-2.782 374.31 374.31 0 0 1-1.077-3.4 3.558 3.558 0 0 1 .339-2.716c-3.43 2.049-3.346-.705-3.346-.705-5.749.104-3.565-2.452-3.565-2.452-6.541-2.875.044-3.525.044-3.525-.583-1.634 1.79-.38 3.299.54a1.534 1.534 0 0 1-.354-1.614c.006-1.355 1.463-.518 1.463-.518.165-.933.848-.924 1.646-.533.034-.035.049-.069.087-.104 0 0-6.934-1.528-4.782-3.475 0 0-1.676-.918-.404-1.722a1.666 1.666 0 0 1 1.735-.602c-1.782-.924-4.399-2.489-2.51-2.882 0 0-3.377-6.761 3.303-2.105 0 0 1.075-3.613 4.473 2.02 0 0 1.981-1.322 2.553 1.479.06-.01.12-.015.181-.016a1.66 1.66 0 0 1 1.712.5c-.882-1.697-2.055-4.347-.335-3.594 0 0 1.192-7.05 3.81.216 0 0 2.913-2.169 2.378 4.028 0 0 2.98.11.5 3.673h1.938c.473 0 .959 0 1.43-.027 2.18-.033 4.337-.46 6.367-1.26a38.402 38.402 0 0 1 10.16-2.927h.016c-.039-.023-.055-.035-.072-.043-.236-.122-.473-.24-.707-.363-.192-.095-.382-.196-.576-.292a3.18 3.18 0 0 0-.365-.166 1.97 1.97 0 0 1-.564-.35c-.168-.134-.326-.28-.494-.414-.093-.071-.2-.12-.3-.183a1.132 1.132 0 0 1-.38-.37.541.541 0 0 1-.022-.547c.069-.147.144-.29.207-.44a.479.479 0 0 0 .013-.35.104.104 0 0 0-.156-.086c-.455.093-.911.192-1.37.274a3.268 3.268 0 0 1-.778.04 1.97 1.97 0 0 0-.794.164 2.523 2.523 0 0 0-.794.534c-.579.518-1.163 1.031-1.753 1.539-.415.354-.842.694-1.259 1.045a1.07 1.07 0 0 1-.69.244c-.225 0-.452-.008-.68-.015a.113.113 0 0 0-.007-.021.311.311 0 0 1 .04-.05c.586-.642 1.209-1.244 1.836-1.85l1.889-1.825a.29.29 0 0 0 .035-.044c-.143-.018-.278-.032-.415-.05-.22-.034-.44-.066-.66-.104a.318.318 0 0 1-.078-.04.262.262 0 0 1 .058-.063c.184-.114.368-.224.553-.335.103-.059.207-.116.304-.178.056-.036.053-.07-.011-.093-.088-.03-.18-.056-.267-.084a1.984 1.984 0 0 1-.14-.047c-.094-.041-.103-.104-.015-.16a.883.883 0 0 1 .186-.094c.254-.083.508-.153.755-.241a3.06 3.06 0 0 0 1.187-.79c.311-.331.604-.68.902-1.025.292-.369.63-.698 1.006-.982a14.617 14.617 0 0 0 1.843-1.576c.571-.548 1.131-1.107 1.706-1.653.2-.185.41-.358.629-.518a.94.94 0 0 0 .43-.817.648.648 0 0 0-.246-.478 15.804 15.804 0 0 1-.798-.735c-.201-.197-.383-.415-.573-.622a.16.16 0 0 0-.065-.04 312.68 312.68 0 0 0-1.555-.727l-.04-.023.17-.023c.468-.051.94-.072 1.41-.064.104.016.208.018.312.005.09-.048.174-.108.249-.179A3.54 3.54 0 0 1 68.502.05c.103-.021.22-.034.327-.05h.408c.073.013.144.023.217.034.471.078.926.23 1.348.453A4.056 4.056 0 0 1 72.3 1.783c.412.603.646 1.31.677 2.038.003.182.028.363.075.539l.02.08v2.923a5.44 5.44 0 0 1-.461 1.221 6.151 6.151 0 0 1-1.062 1.431 10.52 10.52 0 0 1-1.29 1.173c-.353.277-.752.49-1.18.627-.133.033-.267.06-.403.078.119.053.257.108.385.175.104.055.203.117.297.187a.311.311 0 0 1 .135.228c.016.064.071.11.137.116.14.04.28.075.423.103a2.875 2.875 0 0 1 1.617.943c.336.388.685.762 1.025 1.14a.49.49 0 0 1 .091.164c.064.197.123.397.183.592l2.166.006c.06-.197.12-.4.185-.598a.49.49 0 0 1 .092-.164c.34-.38.69-.754 1.025-1.14a2.855 2.855 0 0 1 1.616-.94c.143-.033.281-.068.422-.104a.15.15 0 0 0 .136-.115.317.317 0 0 1 .136-.229 2.13 2.13 0 0 1 .298-.187c.127-.067.266-.123.384-.175a3.66 3.66 0 0 1-.403-.078 3.783 3.783 0 0 1-1.18-.627 10.493 10.493 0 0 1-1.29-1.173 6.117 6.117 0 0 1-1.067-1.43 5.45 5.45 0 0 1-.461-1.224V4.441c.005-.027.013-.053.02-.08.046-.176.07-.357.074-.539a3.92 3.92 0 0 1 .678-2.039A4.06 4.06 0 0 1 77.295.487a4.43 4.43 0 0 1 1.347-.453c.073-.011.143-.02.218-.034h.408c.103.017.22.029.328.05.485.097.944.295 1.348.581.074.072.159.132.25.179.104.013.209.011.312-.005.471-.005.942.02 1.41.073.051.005.104.015.172.023l-.032.024-1.555.725a.172.172 0 0 0-.065.04c-.19.208-.37.422-.572.623a13.84 13.84 0 0 1-.8.735.647.647 0 0 0-.244.478.941.941 0 0 0 .428.817c.22.16.431.333.63.518.575.547 1.14 1.105 1.706 1.654.57.575 1.186 1.103 1.843 1.577.376.283.714.613 1.006.982.296.345.592.693.902 1.024a3.06 3.06 0 0 0 1.187.79c.248.087.502.159.756.243a.946.946 0 0 1 .187.092c.085.056.078.118-.017.16a1.213 1.213 0 0 1-.139.047c-.087.03-.18.054-.266.084-.064.024-.066.057-.01.093.103.064.2.12.302.18.185.11.37.219.555.333a.36.36 0 0 1 .054.068.299.299 0 0 1-.078.04c-.22.036-.44.069-.661.103-.134.019-.267.032-.41.05.01.017.022.032.035.044.63.61 1.259 1.222 1.89 1.825.63.603 1.246 1.2 1.836 1.842a.456.456 0 0 1 .039.05.207.207 0 0 1-.008.02c-.226.008-.453.022-.679.016a1.077 1.077 0 0 1-.69-.244c-.415-.352-.845-.692-1.259-1.046-.59-.508-1.173-1.02-1.75-1.539a2.518 2.518 0 0 0-.795-.533 1.925 1.925 0 0 0-.795-.164c-.259.017-.52.003-.775-.041-.46-.083-.917-.181-1.372-.274a.104.104 0 0 0-.157.086.483.483 0 0 0 .015.35c.06.151.134.294.202.44a.542.542 0 0 1-.02.548 1.16 1.16 0 0 1-.382.37c-.104.063-.207.11-.3.182-.167.132-.326.276-.493.408a2 2 0 0 1-.566.35 3.628 3.628 0 0 0-.365.166c-.194.098-.384.197-.576.292-.233.123-.472.242-.708.363-.016.008-.031.021-.072.045.11.05.208.096.3.133a27.574 27.574 0 0 1 8.2 2.36 18.228 18.228 0 0 0 6.061 1.59c.058-.246.15-.484.273-.705-2.987-3.954.229-4.06.229-4.06-.533-6.195 2.378-4.027 2.378-4.027 2.618-7.27 3.81-.216 3.81-.216 1.718-.751.546 1.898-.336 3.595a1.659 1.659 0 0 1 1.714-.5c.06.001.12.007.178.017.572-2.8 2.554-1.48 2.554-1.48 3.399-5.632 4.475-2.02 4.475-2.02 6.678-4.656 3.3 2.107 3.3 2.107 1.891.393-.725 1.958-2.51 2.88a1.667 1.667 0 0 1 1.737.603c1.271.805-.405 1.722-.405 1.722 2.154 1.948-4.782 3.475-4.782 3.475.039.035.053.068.088.104.799-.39 1.481-.405 1.646.532 0 0 1.451-.838 1.464.519.206.56.067 1.19-.355 1.613 1.512-.922 3.881-2.177 3.3-.541 0 0 6.585.655.04 3.532 0 0 2.186 2.552-3.562 2.452 0 0 0 .071-.008.177.333.4.67.796 1 1.197a3.594 3.594 0 0 1 .726 3.177c-.311 1.168-.67 2.427-1.131 3.675a16.685 16.685 0 0 0-1.495 6.552c.094 1.39.263 2.775.508 4.147.078-.452.38-.83 1.271-.684a2.323 2.323 0 0 1 2.247.894c-.942-2.323-2.128-5.902.089-4.695 0 0 2.666-8.942 5.132.824 0 0 4.274-2.378 2.615 5.536 0 0 4.354.6-.283 5.275.132.293.222.604.266.923a72.264 72.264 0 0 1 4.552-2.974c-.486-2.377 2.375-3.41 2.375-3.41-2.15-4.522 1.956-5.053 1.956-5.053 1.565-6.26 4.473-3.127 4.473-3.127 6.052-5.657 6.3-.948 6.3-.948 9.922-3.394 3.539 3.635 3.539 3.635zM116.97 78.886c.495-.02.982-.04 1.42-.061l2.148-.046c.526-.012.822-.01.822-.01a19.177 19.177 0 0 0-2.945-.541c-.44-.036-.933-.104-1.443-.119-.31-.017-.635-.02-.958-.03l-.098.753c0 .04-.014.079-.019.118.363-.025.73-.052 1.073-.064zm-85.542-.81c-.259-.006-.528-.02-.78-.02-.56-.008-1.105.023-1.624.053-.512.015-1.003.083-1.443.12-.994.102-1.978.284-2.944.542 0 0 .296 0 .822.01.527.009 1.262.025 2.148.045l1.42.062c.495.022 1.037.06 1.588.093.31.01.629.038.947.068l-.134-.973zM17.434 51.163c-.305-.414-.68-.783-1.055-1.196-.374-.413-.802-.779-1.238-1.177-.434-.376-.902-.743-1.37-1.114-.495-.334-.96-.69-1.462-.994a24.197 24.197 0 0 0-1.475-.882c-.489-.27-.967-.518-1.428-.735-.45-.237-.898-.415-1.302-.587a18.881 18.881 0 0 0-2.826-.96s.257.14.703.407c.446.267 1.073.628 1.823 1.072.373.228.77.483 1.199.743.428.26.863.543 1.318.838.455.294.91.622 1.385.933.474.311.914.67 1.39.992.455.348.912.692 1.348 1.045.415.374.872.699 1.252 1.07.207.207.414.393.622.579.644.334 1.26.68 1.88 1.022-.226-.343-.489-.69-.764-1.056zm9.893 13.288c-.529-.02-1.078.048-1.636.082-.573.053-1.147.143-1.741.24-.583.116-1.17.248-1.756.385-.573.167-1.155.32-1.71.51-.554.19-1.104.384-1.624.596-.52.211-1.017.434-1.476.645-.458.212-.89.445-1.28.643-.873.458-1.71.984-2.5 1.573l.753-.284c.486-.183 1.183-.44 2.01-.747.415-.149.862-.301 1.348-.47a47.71 47.71 0 0 1 1.487-.499c.518-.183 1.065-.323 1.608-.499.542-.175 1.111-.31 1.666-.459.575-.14 1.134-.29 1.691-.415.569-.083 1.107-.238 1.649-.31.542-.073 1.06-.188 1.555-.223.494-.036.962-.104 1.403-.12.442-.017.838-.02 1.199-.043.173-.006.346-.003.518.008-.133-.13-.261-.26-.396-.389-.032 0-.058-.014-.091-.018-.362-.05-.778-.112-1.23-.157-.452-.044-.925-.035-1.445-.049h-.002zm3.95-3.51c-.123-.403-.22-.852-.353-1.306-.131-.454-.187-.962-.317-1.465-.103-.511-.142-1.048-.249-1.582a38.016 38.016 0 0 1-.179-1.646c-.032-.555-.097-1.111-.11-1.658-.014-.548-.061-1.091-.059-1.608.002-.518-.02-1.03-.014-1.52.005-.489 0-.932 0-1.353.03-.848.042-1.555.053-2.047.012-.491.026-.782.026-.782a16.9 16.9 0 0 0-.698 2.775c-.068.42-.16.876-.2 1.367-.04.492-.114 1.006-.136 1.54a34.36 34.36 0 0 0-.036 1.66c.004.57.053 1.14.082 1.708.065.576.138 1.14.218 1.705.113.558.207 1.108.36 1.63.133.508.293 1.008.482 1.498.14.354.274.686.415 1.001.333.294.668.589.99.884-.08-.26-.16-.515-.27-.801h-.004zm1.934 2.396c.082.08.154.164.236.245.06-.18.116-.366.177-.544.04-.12.086-.241.127-.362-.191.244-.377.47-.537.66h-.003zm75.75 39.424c-.28-.19-.683-.47-1.152-.795l-.704.094c.146.077.302.165.436.236.604.31 1.232.571 1.878.78 0 0-.163-.11-.454-.316l-.003.001zm-87.898-4.815c-2.035-.539-2.113-.513-3.374 1.26a3.17 3.17 0 0 0-.183.275c-2.98 4.873-3.57 10.226-3.11 15.78.116.427.435.77.853.917 5.667 1.63 11.35 3.223 17.051 4.78 1.379.38 2.81.565 4.228.84-.014.117-.014.235-.027.354h-7.153l-.119.355c1.68.971 3.36 1.928 5.184 2.979-1.09.422-2.114.813-3.11 1.208.354 1.522.67 3.033 1.09 4.504.141.422.464.76.88.919a159.411 159.411 0 0 0 22.735 4.542c1.693.207 3.387.394 5.067.604.012.13.012.276.012.415-2.94.237-5.88.474-8.925.725.275.472.525.999.853 1.484a18.107 18.107 0 0 0 8.82 6.655 29.187 29.187 0 0 0 13.048 1.507 22.16 22.16 0 0 0 12.079-4.354 13.307 13.307 0 0 0 3.989-4.633c-2.112-.46-4.12-.894-6.131-1.339 4.637-.906 9.226-1.549 13.771-2.456 5.356-1.062 10.645-2.361 15.965-3.583.353-.044.67-.24.865-.538.197-1.536.303-3.085.434-4.581-1.326-.342-2.52-.656-3.846-.999 1.85-1.09 3.505-2.062 5.146-3.033-.054-.118-.104-.248-.159-.366h-7.035c0-.092-.013-.197-.013-.29.472-.066.959-.143 1.43-.223a154.679 154.679 0 0 0 19.207-4.935 1.205 1.205 0 0 0 1.022-1.34c-.013-2.087.143-4.2-.026-6.274a23.398 23.398 0 0 0-3.387-10.24 1.128 1.128 0 0 0-1.601-.622 33.672 33.672 0 0 1-3.767 1.024 164.49 164.49 0 0 1-10.988 2.102c.435.31.51.637-.162.933 0 0 4.072 5.214-2.526 2.466 0 0-.337 3.343-4.234-.886 0 0-1.688 1.713-2.632-1.244-4.7.518-9.417.886-14.148 1.156l-.15.037c-3.097.747-6.21 1.452-9.226 2.165l-4.216.972a3.6 3.6 0 0 1-.76.093 4.193 4.193 0 0 1-1.01-.133 603.5 603.5 0 0 1-2.771-.668 211.283 211.283 0 0 0-5.775-1.365 300.36 300.36 0 0 1-4.724-1.037c-.188-.011-.378-.015-.567-.027a.046.046 0 0 0-.039-.014 189.429 189.429 0 0 1-12.155-1.115c-1.288-.162-2.57-.35-3.855-.53-.907 3.605-2.768 1.709-2.768 1.709-3.896 4.229-4.235.886-4.235.886-6.596 2.748-2.525-2.466-2.525-2.466-1.078-.482-.242-1.03.939-1.475-4.445-.785-8.86-1.725-13.236-2.88zm84.544 2.384c-.13-.104-.26-.207-.396-.311-.31-.237-.595-.508-.908-.755-.294-.265-.592-.518-.87-.789-.052-.054-.104-.103-.157-.155-.208.125-.415.241-.622.362.094.103.177.2.275.303.28.284.584.561.887.84.268.212.525.425.792.628.333-.041.674-.08 1.001-.124l-.002.001zm-4.718.589a1.717 1.717 0 0 1-.518-1.022 39.144 39.144 0 0 1-3.443 1.428c1.338-.127 2.66-.263 3.963-.408l-.002.002zM46.43 99.54a32.075 32.075 0 0 1-1.969-1.044 2.299 2.299 0 0 1-.045 2.096c1.797.226 3.628.438 5.502.622.196.02.4.036.597.055-.05-.02-.103-.036-.15-.055a42.723 42.723 0 0 1-3.513-1.48l-.421-.014.003-.181-.003.001zm-3.238-1.823c-.174-.112-.351-.221-.518-.337a14.85 14.85 0 0 0-.266.292c-.244.276-.542.524-.81.804-.269.28-.577.519-.873.79-.291.23-.557.477-.844.702.323.049.648.096.974.143.118-.097.237-.188.358-.285.304-.279.607-.556.887-.839.28-.283.553-.58.797-.877.106-.135.195-.264.297-.394l-.002.001zm-7.943.306c-.563-.767-.083-1.251.75-1.555 0-.05-.015-.083-.014-.137 0 0-3.015 2.024-4.702 2.111.993.207 2.027.4 3.061.592-.218-.673.907-1.012.907-1.012l-.002.001zm.358 5.054a12.423 12.423 0 0 0 1.88-.78c.266-.138.562-.28.862-.467.135-.077.279-.172.42-.255-.274-.042-.546-.091-.82-.136-.24.172-.47.345-.685.496-.49.341-.908.628-1.199.83-.29.2-.455.311-.455.311l-.003.001zm-2.42-11.176c-.46-.024-.909-.02-1.348-.011-.44.01-.859.035-1.252.07-.407.014-.772.072-1.118.113a14.27 14.27 0 0 0-2.27.462s.233-.005.633 0 .982 0 1.67.007c.34 0 .711.022 1.106.026.395.004.8.029 1.227.046.427.016.866.057 1.308.078.442.022.892.09 1.348.124.447.057.896.103 1.33.175.438.09.877.13 1.285.228.363.09.716.153 1.052.236a21.86 21.86 0 0 1-.764-.904l-.115-.037c-.424-.122-.861-.207-1.32-.311-.46-.104-.915-.138-1.38-.208-.472-.034-.93-.085-1.393-.094zm1.593-35.024c.32-.011.639.05.933.177.358-1.056.698-2.108 1.019-3.156a27.163 27.163 0 0 1-1.951 2.979h-.001zm.72-28.925c-.386-.061-.769-.104-1.141-.167-.372-.063-.726-.117-1.06-.182-.333-.064-.656-.119-.952-.176-.586-.12-1.083-.223-1.426-.296l-.543-.117c.598.326 1.222.601 1.866.823.285.098.592.214.933.301.341.087.687.208 1.063.286.375.08.755.172 1.156.236.4.064.798.11 1.206.167.415.028.82.056 1.218.063.186 0 .357-.01.536-.014.067-.077.129-.157.195-.235l.37-.438c-.347.006-.709-.028-1.076-.032-.385-.016-.778-.054-1.174-.085-.395-.052-.783-.069-1.17-.132l-.002-.002zm4.985-3.161c-.032-.192-.048-.45-.115-.726-.068-.277-.154-.58-.247-.92-.094-.34-.25-.687-.394-1.064-.144-.378-.359-.75-.554-1.14-.195-.392-.442-.769-.69-1.167-.248-.398-.524-.765-.798-1.147-.303-.363-.58-.733-.893-1.073-.312-.34-.613-.67-.922-.982a17.858 17.858 0 0 0-.914-.856c-.291-.285-.586-.511-.854-.73a14.34 14.34 0 0 0-1.901-1.324s.164.166.437.457c.273.292.675.715 1.146 1.213.233.25.476.532.745.82.268.289.532.598.813.918.28.32.556.667.846 1.003.289.335.551.708.841 1.058.268.363.542.726.792 1.083.237.38.51.726.72 1.088.212.362.449.71.631 1.05.183.34.359.665.503.966.144.302.272.591.387.85.08.177.153.358.215.543.07.04.141.089.208.136.003-.022 0-.035-.001-.054l-.001-.002zm.097-3.324c-.017.02-.028.04-.045.063.134.102.26.214.379.334-.094-.109-.206-.24-.334-.395v-.002zm.708 3.752c-.036.048-.07.094-.113.142.03.024.055.052.083.077l.104-.127c-.022-.03-.049-.059-.074-.09v-.002zm3.81-6.22c-.04-.44-.096-.856-.166-1.265-.07-.41-.146-.802-.231-1.168-.069-.374-.17-.713-.256-1.03a13.153 13.153 0 0 0-.747-2.074s.038.217.085.597c.048.38.124.917.213 1.563.04.319.072.67.12 1.036.046.367.077.755.116 1.156.04.402.06.818.095 1.238.035.42.028.846.059 1.272.005.429.015.857.005 1.271v.134l.2-.236a4.12 4.12 0 0 1 .593-.557c0-.207.01-.415.01-.631-.036-.435-.043-.872-.095-1.304v-.003zm27.508-3.703c-.322-.256-.646-.518-.977-.762-.457-.341-.924-.665-1.38-1.006a1.25 1.25 0 0 0-1.502 0 .865.865 0 0 0-.33.687.89.89 0 0 1-.226.573c-.06-.152-.117-.294-.167-.44a.464.464 0 0 0-.163-.233.334.334 0 0 1-.054-.53 5.94 5.94 0 0 1 .706-.709l.05-.044a3.2 3.2 0 0 1-.23-.269.491.491 0 0 0-.397-.222 2.42 2.42 0 0 0-.726.009c-.31.058-.576.253-.726.53-.11.196-.236.384-.376.56a.27.27 0 0 0-.043.262c.04.134.132.248.255.317.254.153.47.36.635.607a.415.415 0 0 0 .157.104l1.187.622c.133.07.266.14.395.216a.604.604 0 0 0 .278.06c.256.018.51.05.763.093l1.479-.182h1.674c-.09-.078-.186-.164-.282-.24v-.003zm8.368-.57a.376.376 0 0 0 .156-.104c.165-.247.383-.454.637-.607a.546.546 0 0 0 .253-.318.269.269 0 0 0-.043-.26 4.433 4.433 0 0 1-.377-.562 1.043 1.043 0 0 0-.726-.53 2.41 2.41 0 0 0-.722-.006.49.49 0 0 0-.398.222 3.47 3.47 0 0 1-.23.277l.05.045c.256.215.493.452.708.708a.335.335 0 0 1-.053.53.46.46 0 0 0-.164.234 6.284 6.284 0 0 1-.167.44.89.89 0 0 1-.226-.574.862.862 0 0 0-.33-.686 1.252 1.252 0 0 0-1.5 0c-.456.34-.924.664-1.382 1.005-.33.248-.654.506-.978.762-.098.078-.195.166-.297.254h.77l.786.093c.429.054.856.102 1.282.142a6.067 6.067 0 0 1 1.087-.158.594.594 0 0 0 .277-.061 8.5 8.5 0 0 1 .395-.216l1.192-.63zm17.329-.415c-.088.317-.188.656-.257 1.03-.07.375-.174.76-.231 1.166-.057.406-.125.83-.166 1.265-.042.435-.06.868-.094 1.313 0 .365.007.726.02 1.08.193 0 .391.006.58.006h.202v-1.064c.032-.425.02-.852.059-1.272.038-.42.05-.837.096-1.238.047-.401.069-.789.115-1.156.047-.367.08-.72.12-1.036.09-.645.158-1.184.212-1.562l.085-.598a13.325 13.325 0 0 0-.741 2.071v-.005zm-5.228 28.923a5.742 5.742 0 0 0-.288 2.347 1.2 1.2 0 0 0 .917.598c.425.014.844.104 1.238.265v-21.38c.428.017.853.027 1.278.027v22.557c.151.346.25.712.29 1.087a.651.651 0 0 1-.09.46c-.064.06-.134.122-.199.182v16.858c-.426-.089-.85-.185-1.277-.277V50.534l-1.037.928a2.819 2.819 0 0 1-1.315 3.128c-.201.148-.415.31-.622.467v10.264c-.425-.091-.851-.181-1.28-.27v-9.414a1.94 1.94 0 0 1-1.618-.7 4.12 4.12 0 0 1 .297 1.635 4.369 4.369 0 0 1-1.65 1.783v6.093c-.429-.084-.854-.169-1.28-.249v-5.606a3.908 3.908 0 0 1-1.83-1.722c-.386 0-.77-.03-1.145-.04v6.87a84.366 84.366 0 0 0-1.28-.183v-6.573c-.815.193-1.614.557-2.612.909l-.353-.188v5.303c.26.183.538.339.83.465a39.646 39.646 0 0 0-6.117-.518c-1.14 0-2.28.082-3.435.196a7.126 7.126 0 0 0 1.68-1.06c.741-.63 1.049-4.435.431-5.197a4.099 4.099 0 0 0-1.9-1.18v7.311a57.82 57.82 0 0 0-1.28.094v-7.731a1.403 1.403 0 0 0-.895.534 4.528 4.528 0 0 1-2.074 1.14v6.356c-.425.054-.85.118-1.28.179v-6.252a7.534 7.534 0 0 1-1.304-.704c-.463-.217-.941-.395-1.586-.662.182-1.023.38-2.032.53-3.056a.735.735 0 0 0-.233-.59c-.123-.023-.251-.038-.378-.058v11.79c-.427.075-.852.145-1.28.223V52.381a1.65 1.65 0 0 1-.652.518 1.708 1.708 0 0 1-1.393-.311 1.438 1.438 0 0 0-.927-.911v13.147l-1.28.258V51.798l-.244.068c-.531.144-.872.358-.9-.462a.518.518 0 0 0-.048-.222c-1.41-.028-.899-1.797-1.78-2.253v16.774l-1.281.268V25.054c-.99.029-1.981.013-2.972.025v41.508c-.427.088-.853.174-1.28.257V25.547c.02-.021.039-.043.056-.064.178-.218.431-.361.71-.402h.465-.488a1.14 1.14 0 0 0-.71.402c-1.714 2.002-3.409 4.022-5.108 6.035-.802.949-1.617 1.887-2.384 2.86v1.333c.545 1.754 1.127 3.496 1.672 5.247a16.96 16.96 0 0 1 .4 8.048c-.876 5.096-2.762 9.883-4.435 14.732a31.064 31.064 0 0 0-1.813 7.603 17.65 17.65 0 0 0-.053.91c-.005.164-.115 1.318-.115 1.732v1.272c0 .473.104 2.074.153 2.407.104.705.215 1.409.342 2.11a20.879 20.879 0 0 0 3.969 8.55c3.185 4.376 7.66 6.776 12.612 8.507a98.33 98.33 0 0 0 11.865 3.058c2.702.58 5.382 1.279 8.076 1.918.129.031.26.048.392.049a.7.7 0 0 0 .153-.005c5.142-1.2 10.295-2.362 15.42-3.64a37.787 37.787 0 0 0 11.098-4.329 21.63 21.63 0 0 0 10.232-14.663c.103-.531.176-1.067.25-1.602.044-.311.132-1.547.132-1.848v-1.741c0-.43-.093-2.074-.142-2.464a96.702 96.702 0 0 0-.207-1.63 34.77 34.77 0 0 0-1.733-6.487v4.93c-.425-.04-.854-.09-1.28-.137v-8.416a62.139 62.139 0 0 1-2.504-8.3 46.826 46.826 0 0 1-.468-2.666v18.986a66.855 66.855 0 0 1-1.279-.198V30.462l-2.978-3.547v40.19c-.425-.084-.854-.166-1.28-.253V25.44a1.607 1.607 0 0 0-1.182-.354 35.602 35.602 0 0 1-6.185-.32l.142.026v16.711c.266.22.551.415.853.583.523.328.512.542.256 1.148zM91.049 24.63a18.659 18.659 0 0 1-3.328-.94v10.219c.448.254 1.018.31 1.461.577.28 2.27.347 2.4 1.074 2.667l.436.83V24.566c.119.025.242.04.357.063zm-4.608 7.873v-9.356a21.277 21.277 0 0 0-2.97-1.106V32.35a6.563 6.563 0 0 1 2.97.153v.001zm-4.25.335V21.705a29.025 29.025 0 0 0-2.971-.547v8.605c.726.614 1.092 1.745 1.75 2.479.332.323.758.532 1.217.596h.004zm-4.608 23.978a5.904 5.904 0 0 0 .353 4.747v-4.562l-.353-.185zm.353-27.464v-8.345c-.043 0-.086-.012-.13-.016-.75-.064-1.5-.167-2.25-.25h-.594v7.404c.726.379 1.515.788 2.317 1.203.068.036.145.05.221.038.144-.024.29-.035.436-.033zM53.83 44.074c.314-.455.73-.832 1.215-1.099.488-.361.948-.76 1.375-1.192-.055-.114-.103-.228-.162-.344l.414.063V24.606c.43-.084.858-.184 1.28-.3v15.221a1.79 1.79 0 0 1 .952-.88c-.33-1.358-.207-1.487.933-1.228.362.037.727.025 1.086-.036v-.13c-.182-.356-.325-.64-.494-.967.169-.017.334-.055.494-.113V23.225c.426-.169.85-.34 1.28-.494v12.824a1.37 1.37 0 0 1 1.895.382 8.137 8.137 0 0 1 .249-2.61 8.53 8.53 0 0 1 .83-1.621v-9.893c.425-.113.848-.235 1.28-.33v9.414a2.63 2.63 0 0 0 1.036-.662 2.118 2.118 0 0 1 1.94-.848v-8.398l1.281-.167v8.848c.693.221 1.65.542 2.19-.714.184-.298.46-.531.784-.664v-7.555H71.37c-.893.117-1.787.234-2.682.348a33.939 33.939 0 0 0-8.909 2.585 19.883 19.883 0 0 1-6.82 1.37h-.166.189c.241-.014.479-.039.72-.058v19.329c.038-.081.08-.16.127-.236zm-.128 2.257v2.385c.278-.628.526-1.188.765-1.734a1.77 1.77 0 0 1-.765-.65zm15.453 8.027l.276.056v-.415l-.276.359zm1.555-.592v.907l2.415.484c-.124-.726-.227-1.32-.36-2.11-.78.525-1.434 1.067-2.055.719zm35.213-15.375c.394-1.06.706-2.152 1-3.241a.991.991 0 0 0-.192-.773 450.435 450.435 0 0 0-2.003-2.384v10.131a31.88 31.88 0 0 1 1.195-3.733zm-3.14-9.746c-.035-.087-.074-.157-.103-.255l-.081.03.184.225zm-1.574-4.354a21.61 21.61 0 0 1-1.068 1.2l.02.035c.321-.35.713-.748 1.13-1.127l-.082-.108zm.959-4.052c-.129.155-.24.286-.334.396a3.57 3.57 0 0 1 .38-.333c-.02-.017-.029-.036-.046-.057v-.006zm-.423 6.642c-.18-.028-.336-.047-.496-.067l.406.485h.009c.298.085.629.138.976.207.348.068.719.088 1.106.126.088.007.182 0 .27.007l-.56-.67c-.259 0-.52 0-.759-.016-.332-.027-.656-.033-.952-.067v-.005zm5.66-11.042c.282-.32.548-.632.812-.918.263-.286.513-.571.747-.82.472-.498.864-.918 1.146-1.212a91.3 91.3 0 0 0 .436-.458 14.32 14.32 0 0 0-1.901 1.325c-.269.22-.563.445-.853.725-.297.262-.616.542-.915.858-.298.315-.622.631-.92.981-.299.35-.591.71-.893 1.071-.275.383-.551.764-.8 1.148-.247.384-.484.775-.69 1.165-.205.391-.404.764-.553 1.14-.081.214-.148.405-.223.604.084.087.177.156.257.252l.133.158c.124-.24.257-.482.387-.747.183-.34.421-.679.632-1.049.21-.37.484-.707.72-1.086.251-.36.518-.726.792-1.084.29-.35.549-.72.841-1.058.292-.34.557-.674.845-.99v-.005zm2.17 11.074c.339-.087.648-.207.933-.3a12.404 12.404 0 0 0 1.86-.823s-.193.045-.543.115c-.35.07-.84.176-1.425.296-.297.056-.617.11-.953.175-.336.065-.691.121-1.06.182-.367.061-.736.104-1.113.164l.519.622c.241-.048.487-.091.718-.147.375-.073.73-.18 1.064-.28v-.004zm3.455 46.426c-.117-.983-.223-1.97-.366-2.953a38.453 38.453 0 0 0-1.998-7.338 94.97 94.97 0 0 1-3.804-12.04 42.406 42.406 0 0 1-.866-6.3 18.71 18.71 0 0 1 1.628-7.537 35.299 35.299 0 0 0 1.048-3.399 1.055 1.055 0 0 0-.198-.814 550.151 550.151 0 0 0-2.393-2.854 2.16 2.16 0 0 1-1.854.261c1.006 1.195 2.008 2.39 3.007 3.587.307.383.425.884.322 1.364-.29 1.069-.612 2.205-1.02 3.299a17.309 17.309 0 0 0-1.508 6.89 40.01 40.01 0 0 0 .807 5.88 67.752 67.752 0 0 0 2.785 9.074c.271.76.546 1.52.813 2.28a37.221 37.221 0 0 1 1.925 7.092c.074.513.139 1.026.2 1.542l.076.637.081 1.987v1.743l-.113 1.785c-.083.604-.163 1.21-.28 1.809a22.296 22.296 0 0 1-10.524 15.103 38.994 38.994 0 0 1-11.287 4.413c-3.836.956-7.76 1.866-11.55 2.74l-3.878.9a1.39 1.39 0 0 1-.302.033 2.3 2.3 0 0 1-.549-.079 330.23 330.23 0 0 1-2.747-.667 180.195 180.195 0 0 0-5.31-1.244 98.928 98.928 0 0 1-11.942-3.082c-6.092-2.128-10.078-4.823-12.928-8.74a21.343 21.343 0 0 1-4.083-8.82 85.173 85.173 0 0 1-.293-1.783l-.052-.346-.155-1.866v-1.907l.061-1.591a1.39 1.39 0 0 0 .046-.168c.008-.286.023-.57.046-.853.28-2.686.902-5.325 1.853-7.852.289-.835.581-1.67.877-2.502a74.442 74.442 0 0 0 3.525-12.13c.5-2.573.37-5.23-.38-7.741-.271-.87-.551-1.738-.829-2.604a174.599 174.599 0 0 1-1.02-3.208 1.63 1.63 0 0 1 .282-1.364 91.237 91.237 0 0 1 1.85-2.225l1.509-1.787c1.382-1.64 2.766-3.283 4.164-4.912a1.762 1.762 0 0 1 1.187-.63c.34-.01.68-.015 1.018-.015l1.574.007c.482 0 .96-.006 1.44-.03a18.96 18.96 0 0 0 6.598-1.314 34.163 34.163 0 0 1 9.081-2.632l2.681-.349 4.271-.005.797.089c.503.06 1.006.12 1.51.165 3.124.206 6.183.98 9.028 2.286a22.227 22.227 0 0 0 9.804 1.82c.433 0 .869-.006 1.307-.015h.01c.462-.02.92.087 1.324.31l-.627-.747c-.015-.071-.025-.13-.043-.207-.034-.186-.062-.397-.09-.6-3.873.036-7.688-.258-11.283-1.975a26.614 26.614 0 0 0-9.268-2.35c-.788-.066-1.575-.17-2.376-.262h-4.401c-.945.118-1.889.25-2.82.367a35.96 35.96 0 0 0-9.387 2.717 20.66 20.66 0 0 1-7.18 1.445c-1.418.078-2.835 0-4.25.04a1.233 1.233 0 0 0-.75.42c-1.81 2.113-3.595 4.24-5.381 6.353-.84.998-1.707 1.996-2.52 3.02a1.06 1.06 0 0 0-.185.813c.631 2.035 1.313 4.07 1.955 6.103.816 2.753.96 5.66.422 8.48-.92 5.357-2.902 10.4-4.665 15.506a32.731 32.731 0 0 0-1.912 7.983 18.93 18.93 0 0 0-.057.985c0 .17-.119 1.933-.119 1.933s.095 3.328.142 3.628c.12.784.242 1.568.382 2.35.053.287.11.568.175.846a22.507 22.507 0 0 0 4.003 8.153c3.348 4.608 8.06 7.142 13.27 8.966 4.095 1.327 8.268 2.4 12.495 3.214.46.104.933.208 1.392.311 2.375.54 4.739 1.14 7.115 1.708.064.013.134.024.207.034.158 0 .311-.014.474-.022 2.43-.567 4.855-1.127 7.277-1.68a494.3 494.3 0 0 0 8.847-2.113 40.168 40.168 0 0 0 11.682-4.568 22.775 22.775 0 0 0 10.775-15.438c.172-.88.264-1.785.395-2.678v-4.135zm-1.184 18.558c-.442.007-.88.057-1.328.09-.247.31-.479.627-.741.926.254-.033.506-.068.764-.104.454-.032.897-.103 1.347-.123.451-.02.883-.068 1.308-.079.425-.01.836-.038 1.226-.045.39-.008.77-.024 1.11-.026.685 0 1.262-.007 1.666-.007h.635a14.305 14.305 0 0 0-2.27-.462c-.347-.041-.713-.104-1.118-.113a14.14 14.14 0 0 0-1.251-.07c-.433 0-.886-.007-1.348.017v-.004zm5.109-40.236a19.907 19.907 0 0 0-.137-1.54c-.037-.49-.133-.947-.2-1.368a17.129 17.129 0 0 0-.696-2.774s.006.287.025.781c.019.495.023 1.198.054 2.047v1.354c0 .48 0 .99-.017 1.518 0 .518-.045 1.06-.056 1.609-.01.55-.078 1.099-.112 1.658-.051.55-.103 1.107-.179 1.646-.104.535-.142 1.072-.25 1.58-.126.504-.183 1.01-.317 1.468-.134.458-.228.902-.353 1.306-.11.286-.19.545-.272.804.32-.296.656-.591.989-.887.14-.31.274-.646.415-1 .188-.49.349-.99.482-1.496.148-.519.246-1.072.36-1.631.08-.56.153-1.13.217-1.705.03-.572.076-1.145.084-1.71a22.996 22.996 0 0 0-.037-1.66zm-.973 13.004c-.033 0-.058.013-.089.018-.136.13-.264.26-.398.388.162-.009.334-.014.524-.008a28.5 28.5 0 0 0 1.197.044c.433.009.915.093 1.401.119.487.026 1.02.158 1.563.223.543.064 1.079.223 1.65.31.554.121 1.114.27 1.691.41.554.152 1.12.283 1.659.46.539.178 1.094.312 1.61.5.519.166 1.02.333 1.487.498.485.169.933.321 1.348.472.83.304 1.523.564 2.01.745.487.181.754.283.754.283a18.876 18.876 0 0 0-2.503-1.57c-.39-.199-.804-.437-1.278-.643-.456-.208-.949-.446-1.474-.646-.526-.2-1.06-.41-1.627-.597-.567-.188-1.135-.342-1.707-.508a48.538 48.538 0 0 0-1.755-.386 25.12 25.12 0 0 0-1.745-.242c-.555-.033-1.104-.103-1.635-.08-.53.024-1.007.007-1.451.059-.444.051-.869.102-1.23.152l-.002-.001zm21.913-20.187c-.405.177-.852.354-1.305.595-.459.218-.948.457-1.425.735-.477.277-.982.557-1.477.879-.5.305-.968.66-1.461.994-.467.373-.933.74-1.37 1.117-.435.397-.859.772-1.244 1.174-.384.402-.75.788-1.056 1.198-.272.369-.536.713-.759 1.05.622-.34 1.237-.685 1.88-1.02.207-.188.414-.376.622-.579.38-.373.83-.698 1.251-1.07.43-.352.886-.696 1.34-1.046.476-.323.916-.684 1.394-.992.478-.308.922-.645 1.383-.933.46-.288.895-.58 1.318-.837.423-.256.83-.518 1.2-.744.751-.443 1.385-.818 1.825-1.075l.7-.409c-.962.248-1.904.57-2.816.963zm-38.15 28.025a11.77 11.77 0 0 1 2.982-1.53 6.732 6.732 0 0 1 4.915.335c.104.77.198 1.539.29 2.31v.59c-.185-.118-.366-.238-.551-.351a4.956 4.956 0 0 0-5.743.29 9.058 9.058 0 0 1-3.317 1.555 6.353 6.353 0 0 1-4.52-.83c-.59-.335-1.14-.725-1.727-1.064a4.78 4.78 0 0 0-5.08-.019c-.647.366-1.252.806-1.903 1.163a6.403 6.403 0 0 1-6.843-.271c-.428-.261-.84-.547-1.264-.804a4.814 4.814 0 0 0-5.223-.08c-.527.312-1.025.66-1.545.97a6.518 6.518 0 0 1-7.337-.175c-.341-.22-.676-.451-1.02-.664a4.976 4.976 0 0 0-5.817.166 10.677 10.677 0 0 1-2.756 1.437 6.176 6.176 0 0 1-4.935-.546c-.571-.311-1.108-.672-1.659-1.02a4.976 4.976 0 0 0-5.819.093c-.447.298-.896.59-1.365.844V73.61c.05-.145.085-.295.104-.448.014-.415.07-.82.112-1.228a7.695 7.695 0 0 1 4.502-1.274 8.276 8.276 0 0 1 3.931 1.38c.528.352 1.075.676 1.638.97 1.47.651 3.18.422 4.428-.592.704-.475 1.45-.887 2.226-1.232a6.993 6.993 0 0 1 6.455.57c.56.325 1.093.702 1.652 1.027a3.982 3.982 0 0 0 4.235.014c.585-.339 1.14-.726 1.725-1.066a7.332 7.332 0 0 1 4.304-1.056 8.543 8.543 0 0 1 4.08 1.555c.38.258.773.494 1.178.71 1.287.679 2.843.6 4.054-.208.5-.297.976-.631 1.477-.926a7.343 7.343 0 0 1 8.447.388 6.52 6.52 0 0 0 2.439 1.149 4.371 4.371 0 0 0 3.245-.845l.006.004zM43.919 30.57l1.28-1.512V67.4c-.427.076-.854.15-1.28.224V30.57zm-4.25 29.486c.44-1.255.873-2.511 1.28-3.777v11.793c-.428.057-.852.103-1.28.149v-8.165zm8.491 17.251c.528.352 1.075.675 1.638.968a4.27 4.27 0 0 0 4.428-.59 14.5 14.5 0 0 1 2.226-1.233 6.99 6.99 0 0 1 6.455.572c.56.321 1.093.699 1.652 1.025a3.975 3.975 0 0 0 4.235.014c.585-.336 1.14-.726 1.725-1.065a7.336 7.336 0 0 1 4.304-1.056 8.535 8.535 0 0 1 4.08 1.555c.38.257.773.493 1.178.707 1.287.68 2.843.6 4.054-.208.5-.296.976-.63 1.477-.926a7.341 7.341 0 0 1 8.447.39 6.532 6.532 0 0 0 2.439 1.148 4.376 4.376 0 0 0 3.246-.849 11.81 11.81 0 0 1 2.978-1.526 6.738 6.738 0 0 1 4.976.356c.081.036.157.084.233.122v.503c-.103.688-.186 1.377-.31 2.06-.081-.051-.164-.103-.245-.156a4.953 4.953 0 0 0-5.743.288 9.019 9.019 0 0 1-3.318 1.556 6.348 6.348 0 0 1-4.52-.83c-.59-.334-1.14-.726-1.727-1.064a4.783 4.783 0 0 0-5.08-.02c-.646.369-1.252.806-1.903 1.162a6.394 6.394 0 0 1-6.842-.27c-.428-.26-.84-.547-1.264-.804a4.815 4.815 0 0 0-5.223-.079c-.527.311-1.025.657-1.545.968a6.517 6.517 0 0 1-7.337-.174c-.341-.217-.676-.449-1.02-.661a4.976 4.976 0 0 0-5.817.165 10.74 10.74 0 0 1-2.756 1.437 6.178 6.178 0 0 1-4.935-.548c-.572-.306-1.109-.672-1.659-1.017a4.976 4.976 0 0 0-5.819.093c-.31.208-.622.4-.933.59-.151-.86-.279-1.73-.415-2.592a7.825 7.825 0 0 1 4.702-1.394 8.233 8.233 0 0 1 3.936 1.383h.002zm0 5.266c.528.352 1.075.676 1.638.97 1.47.65 3.18.422 4.428-.592.705-.475 1.45-.887 2.226-1.233a6.992 6.992 0 0 1 6.455.572c.56.324 1.093.702 1.652 1.027a3.983 3.983 0 0 0 4.235.014c.585-.34 1.14-.726 1.725-1.067a7.337 7.337 0 0 1 4.304-1.057 8.558 8.558 0 0 1 4.08 1.555c.38.259.773.496 1.178.71 1.287.68 2.843.6 4.054-.207.5-.296.976-.631 1.477-.926a7.341 7.341 0 0 1 8.447.388 6.538 6.538 0 0 0 2.436 1.147 4.371 4.371 0 0 0 3.246-.848 11.818 11.818 0 0 1 2.981-1.53 6.687 6.687 0 0 1 4.346.126 20.01 20.01 0 0 1-.83 2.247 4.998 4.998 0 0 0-4.61.802 9.05 9.05 0 0 1-3.317 1.555 6.367 6.367 0 0 1-4.52-.824c-.59-.335-1.14-.726-1.727-1.065a4.784 4.784 0 0 0-5.08-.02c-.646.369-1.252.808-1.903 1.164a6.398 6.398 0 0 1-6.842-.27c-.428-.262-.84-.548-1.265-.804a4.815 4.815 0 0 0-5.222-.08c-.527.31-1.026.658-1.545.968a6.515 6.515 0 0 1-7.338-.174c-.34-.219-.675-.449-1.02-.662a4.976 4.976 0 0 0-5.816.163 10.662 10.662 0 0 1-2.756 1.44 6.177 6.177 0 0 1-4.935-.547c-.572-.311-1.109-.672-1.66-1.018a4.908 4.908 0 0 0-5.3-.207 16.96 16.96 0 0 1-.92-2.244 7.256 7.256 0 0 1 3.756-.851 8.264 8.264 0 0 1 3.94 1.378h.002zm0 5.265c.528.353 1.075.676 1.638.969a4.27 4.27 0 0 0 4.428-.591 14.422 14.422 0 0 1 2.224-1.232 6.992 6.992 0 0 1 6.454.571c.562.325 1.093.701 1.658 1.027a3.98 3.98 0 0 0 4.234.013c.587-.336 1.14-.726 1.726-1.065a7.329 7.329 0 0 1 4.303-1.056 8.546 8.546 0 0 1 4.079 1.555 12 12 0 0 0 1.178.707 3.96 3.96 0 0 0 4.054-.207c.5-.296.978-.628 1.476-.926a7.342 7.342 0 0 1 8.449.389c.723.55 1.554.94 2.438 1.147a4.364 4.364 0 0 0 3.246-.847 11.829 11.829 0 0 1 2.981-1.53 6.92 6.92 0 0 1 2.124-.288 19.225 19.225 0 0 1-2.28 2.93 7.185 7.185 0 0 0-.933.532 9.019 9.019 0 0 1-3.312 1.555 6.353 6.353 0 0 1-4.52-.83c-.59-.333-1.14-.725-1.73-1.063a4.783 4.783 0 0 0-5.08-.02c-.645.368-1.25.807-1.901 1.162a6.394 6.394 0 0 1-6.842-.27c-.429-.26-.842-.547-1.267-.804a4.821 4.821 0 0 0-5.222-.08c-.526.31-1.023.659-1.545.969a6.517 6.517 0 0 1-7.337-.174c-.34-.22-.675-.448-1.02-.664a4.976 4.976 0 0 0-5.817.167 10.69 10.69 0 0 1-2.754 1.438 6.172 6.172 0 0 1-4.937-.549c-.57-.304-1.108-.67-1.659-1.016a5.605 5.605 0 0 0-2.263-.852c-.284-.334-.567-.665-.83-1.028-.316-.437-.616-.88-.907-1.327a6.522 6.522 0 0 1 1.537-.098 8.265 8.265 0 0 1 3.928 1.385l.001.001zm8.293 4.41a6.99 6.99 0 0 1 6.454.572c.56.323 1.093.702 1.652 1.026a3.98 3.98 0 0 0 4.235.014c.586-.337 1.14-.726 1.725-1.065a7.323 7.323 0 0 1 4.304-1.056 8.565 8.565 0 0 1 4.079 1.555c.379.258.772.495 1.178.71 1.287.68 2.843.6 4.054-.208.5-.296.976-.63 1.477-.925a7.342 7.342 0 0 1 8.448.386 7.722 7.722 0 0 0 1.846.988c-.941.454-1.905.859-2.887 1.213-.311-.2-.622-.399-.945-.585a4.779 4.779 0 0 0-5.077-.02c-.646.365-1.251.804-1.902 1.162a6.4 6.4 0 0 1-6.842-.271c-.43-.262-.842-.547-1.267-.804a4.81 4.81 0 0 0-5.228-.077c-.527.305-1.025.658-1.546.968a6.514 6.514 0 0 1-7.337-.177c-.341-.217-.676-.449-1.02-.661a4.976 4.976 0 0 0-5.817.164 18.72 18.72 0 0 1-.843.537c-.016-.008-.032-.009-.049-.015-1.088-.38-2.148-.8-3.174-1.266a5.813 5.813 0 0 0 2.248-.933 14.356 14.356 0 0 1 2.232-1.232h.002zm-19.467 17.66c-.387.074-.774.146-1.162.216a3.569 3.569 0 0 0-.489-1.133 1.815 1.815 0 0 0-.74-.648 3.881 3.881 0 0 0-1.026-.302c-.43-.072-.857-.144-1.286-.218-.12.686-.238 1.372-.356 2.057.142.026.282.05.425.073.216.051.44.065.66.04a.452.452 0 0 0 .277-.17 1.52 1.52 0 0 0 .169-.567c.017-.103.034-.207.053-.31l1.077.174c-.189 1.168-.378 2.335-.57 3.5l-1.094-.178.06-.356c.042-.18.042-.367 0-.547a.477.477 0 0 0-.207-.266 2.471 2.471 0 0 0-.669-.173l-.385-.067-.33 1.898c-.03.122-.04.248-.032.373a.214.214 0 0 0 .104.12c.12.053.249.088.38.104l.726.122c.464.09.94.09 1.404 0a2.62 2.62 0 0 0 1.107-.565 3.46 3.46 0 0 0 .853-1.077l1.064.545a362.33 362.33 0 0 1-1.602 2.903 260.722 260.722 0 0 1-7.499-1.275c.07-.38.14-.76.214-1.14l.216.038c.193.048.392.064.59.048a.372.372 0 0 0 .248-.168c.06-.16.1-.327.123-.497l.82-4.487c.04-.159.052-.324.035-.487a.348.348 0 0 0-.129-.195 1.081 1.081 0 0 0-.414-.136l-.374-.07c.07-.379.143-.758.213-1.14 2.326.433 4.656.83 6.99 1.191.184.928.365 1.851.556 2.77zm-11.49-2.982a2.903 2.903 0 0 0-1.45-.667l-1.278-.27c-.141.644-.279 1.29-.415 1.935.642.138 1.284.273 1.926.402a3.56 3.56 0 0 1 2.16 1.173c.452.536.634 1.25.492 1.938a2.367 2.367 0 0 1-1.105 1.579 3.542 3.542 0 0 1-2.648.244c-1.685-.345-3.369-.71-5.05-1.093.085-.377.172-.755.259-1.13l.415.094a.676.676 0 0 0 .549-.02 1.17 1.17 0 0 0 .23-.563c.335-1.497.672-2.994 1.009-4.49a.913.913 0 0 0 0-.589.895.895 0 0 0-.57-.27c-.094-.021-.189-.044-.284-.064l.26-1.13c2.31.527 4.625 1.018 6.946 1.474.145.928.293 1.855.445 2.782-.39.058-.78.115-1.17.17a2.892 2.892 0 0 0-.72-1.505zm-3.922 4.605c.482.104.962.207 1.444.305a1.58 1.58 0 0 0 1.19-.104c.493-.324.67-.962.414-1.494a1.222 1.222 0 0 0-.465-.49 3.129 3.129 0 0 0-.87-.285l-1.213-.255c-.166.774-.332 1.548-.5 2.323zm16.398 15.776a.845.845 0 0 0 .943-.497c.74-1.46 1.47-2.923 2.192-4.39a.968.968 0 0 0 .103-.287c.042-.332-.19-.53-.695-.595l-.395-.053c.05-.38.103-.764.152-1.147 2.638.346 5.28.651 7.927.917l-.115 1.153c-.119-.014-.238-.024-.36-.037a.903.903 0 0 0-.604.066.992.992 0 0 0-.187.607c-.16 1.502-.317 3.005-.473 4.51a.974.974 0 0 0 .065.656c.203.133.442.2.684.194.089.01.175.018.263.025.241.852.485 1.7.73 2.551l-1.243.27a3.262 3.262 0 0 0-.767-1.295 2.917 2.917 0 0 0-1.802-.685 265.69 265.69 0 0 1-3.963-.472 2.933 2.933 0 0 0-1.908.242 3.326 3.326 0 0 0-1.06 1.079l-1.14-.552c.443-.767.88-1.536 1.315-2.306l.338.046zm3.11.254c1.017.127 2.036.249 3.056.365l.65-5.717c-.644-.074-1.288-.15-1.933-.226a466.824 466.824 0 0 1-2.29 4.962.759.759 0 0 0-.076.228c-.025.207.168.336.595.388h-.002zm9.204-4.859a1.65 1.65 0 0 0-.641-.144c.037-.383.072-.767.108-1.153 1.47.138 2.94.262 4.413.372l-.089 1.155c-.177-.013-.353-.027-.53-.038-.222-.019-.338.05-.353.2a.933.933 0 0 0 .157.482c.42.728.846 1.453 1.277 2.177.415-.686.826-1.373 1.235-2.06.093-.132.163-.277.207-.432.007-.124-.129-.195-.41-.214a21.14 21.14 0 0 1-.445-.033l.083-1.155c1.205.089 2.41.166 3.613.232-.02.386-.043.773-.065 1.157l-.166-.009-.16-.014a.933.933 0 0 0-.887.518 316.412 316.412 0 0 1-3.225 5.099 2.676 2.676 0 0 1-2.616 1.355 2.177 2.177 0 0 1-1.19-.432 1.021 1.021 0 0 1-.428-.933.884.884 0 0 1 .35-.646.92.92 0 0 1 .648-.207c.342.035.651.218.848.5a.48.48 0 0 0 .324.213.548.548 0 0 0 .397-.11 2.31 2.31 0 0 0 .427-.572c.07-.117.137-.235.208-.35a264.985 264.985 0 0 1-2.682-4.431 1.555 1.555 0 0 0-.406-.527h-.002zm9.73 6.674a.718.718 0 0 0 .561-.112c.1-.18.147-.386.135-.591l.225-4.598a.885.885 0 0 0-.104-.58.958.958 0 0 0-.637-.17l-.302-.019.061-1.156c2.476.131 4.953.225 7.432.283.318.89.64 1.78.964 2.667l-1.176.367a2.935 2.935 0 0 0-1.016-1.367 3.224 3.224 0 0 0-1.616-.415c-.455-.016-.912-.031-1.367-.051l-.08 1.98c.687.027 1.37.051 2.057.072.88-.022 1.74.258 2.438.793a2.25 2.25 0 0 1 .857 1.824 2.315 2.315 0 0 1-.855 1.743 3.804 3.804 0 0 1-2.683.688 262.405 262.405 0 0 1-5.398-.23l.063-1.155c.147.013.295.02.443.027h-.003zm4.475-.014c.427.053.859-.058 1.208-.311a1.14 1.14 0 0 0 .156-1.542 1.257 1.257 0 0 0-.568-.405 3.478 3.478 0 0 0-.95-.135c-.43-.014-.862-.029-1.292-.047a876.06 876.06 0 0 1-.097 2.378c.516.025 1.031.045 1.545.062h-.002zm.128 7.66c1.118-1.19 2.189-.07 3.253.323.143-.403.394-.76.726-1.03.503.037.99.198 1.415.47.47.206.916.48 1.372.725.725-1.334.772-1.543 4.682-.132-1.397 1.338-3.328 1.7-7.725 1.665.663.174 1.318.407 1.992.519 3.063.53 6.21-.21 8.717-2.047.374-.261.83-.8 1.179-.123.073.423-.077.854-.398 1.14a4.458 4.458 0 0 0-2.02 3.007 2.943 2.943 0 0 1-2.046 2.204c-1.104.356-1.623.117-1.998-.726a14.97 14.97 0 0 1-3.046 1.444c-1.866.428-2.32-.026-2.433-1.903-3.836-.406-4.436-.907-3.193-2.724-.535-.878-1.412-1.812-.475-2.812h-.002zm17.406-7.479a3.8 3.8 0 0 0 .622 0c.014.386.03.774.042 1.159a273.23 273.23 0 0 1-3.561.103c-.009-.385-.02-.772-.026-1.157.168.003.335-.019.497-.065a.647.647 0 0 0 .256-.17 1.47 1.47 0 0 0 .215-.407 365.23 365.23 0 0 0 2.577-6.68c.667-.024 1.334-.05 2-.082a352.789 352.789 0 0 0 3.03 6.324c.095.235.243.446.433.614.205.085.429.111.647.075.023.385.047.77.069 1.157-1.452.086-2.903.16-4.354.22l-.05-1.156c.088-.005.175-.01.262-.017.174.006.346-.03.503-.104a.246.246 0 0 0 .133-.219 1.686 1.686 0 0 0-.143-.437l-.311-.75a259.9 259.9 0 0 1-2.767.109l-.311.857c-.049.114-.08.233-.093.356a.249.249 0 0 0 .08.172.47.47 0 0 0 .252.098h-.002zm2.312-2.77c-.324-.753-.65-1.507-.966-2.26l-.83 2.33c.6-.021 1.198-.048 1.798-.07h-.002zm4.492-15.334c.32-.665.813-1.23 1.427-1.638a4.684 4.684 0 0 1 4.264-.387c.057-.126.11-.25.167-.375.285-.028.572-.053.858-.08.37.973.743 1.945 1.119 2.915-.37.143-.738.287-1.11.427a5.722 5.722 0 0 0-1.205-1.42 2.245 2.245 0 0 0-1.555-.49c-.392.03-.766.173-1.08.41-.34.26-.6.61-.747 1.013a3.362 3.362 0 0 0-.197 1.495c.037.798.343 1.56.867 2.162.47.565 1.192.859 1.923.782a2.68 2.68 0 0 0 1.366-.518c.538-.39.989-.888 1.323-1.462.34.199.682.397 1.025.594a6.892 6.892 0 0 1-1.555 1.877 4.901 4.901 0 0 1-2.625.975 4.363 4.363 0 0 1-2.27-.397 4.147 4.147 0 0 1-1.696-1.477 4.483 4.483 0 0 1-.297-4.406h-.002zm7.579 10.264c.415.103.791.323 1.086.632.261.275.423.63.458 1.008a1.67 1.67 0 0 1-.112.801c-.108.268-.274.51-.485.707a2.932 2.932 0 0 1-.907.555c.343.04.68.121 1.004.24.332.131.624.35.844.63.217.284.35.623.384.978.043.446-.07.893-.318 1.265a2.673 2.673 0 0 1-1.16.967 6.965 6.965 0 0 1-2.326.498 250.54 250.54 0 0 1-4.813.356c-.026-.386-.05-.77-.074-1.155.118-.01.241-.016.36-.025.165 0 .329-.03.484-.088a.348.348 0 0 0 .169-.174 1.27 1.27 0 0 0 .02-.475c-.109-1.551-.215-3.103-.321-4.656 0-.16-.029-.32-.084-.47a.35.35 0 0 0-.188-.15 1.292 1.292 0 0 0-.482-.027l-.351.022-.074-1.155c1.684-.109 3.367-.234 5.048-.376a5.406 5.406 0 0 1 1.84.092h-.002zm-3.144 6.464c.007.15.03.3.066.447a.207.207 0 0 0 .118.103c.137.022.277.022.415 0l.666-.053c.326-.02.647-.08.957-.18a1.24 1.24 0 0 0 .612-.465 1.11 1.11 0 0 0 .201-.772c-.013-.225-.1-.44-.247-.61a1.127 1.127 0 0 0-.594-.34 3.805 3.805 0 0 0-1.159-.034c-.39.031-.778.063-1.17.091.043.608.087 1.21.138 1.813h-.003zm-.395-5.067c.054.677.103 1.355.158 2.034.329-.026.66-.05.987-.079a3.903 3.903 0 0 0 1.14-.215c.214-.08.398-.226.526-.415a.884.884 0 0 0 .137-.574.905.905 0 0 0-.226-.548.977.977 0 0 0-.538-.288 5.002 5.002 0 0 0-1.199 0l-.985.085zm6.103-7.231a1.46 1.46 0 0 0 .487-.109.365.365 0 0 0 .164-.201c.026-.164.024-.33-.006-.494-.161-1.516-.328-3.031-.489-4.546a1.403 1.403 0 0 0-.11-.488.363.363 0 0 0-.195-.171 1.108 1.108 0 0 0-.446-.016c-.118.014-.234.025-.349.036-.04-.384-.079-.767-.121-1.151 1.372-.143 2.743-.296 4.112-.46l.14 1.15a9.07 9.07 0 0 1-.272.031 1.58 1.58 0 0 0-.48.104.43.43 0 0 0-.189.207c-.037.15-.04.304-.01.454.084.739.172 1.477.258 2.214.795-.905 1.582-1.813 2.361-2.726.069-.076.13-.157.186-.243a.222.222 0 0 0 .022-.104.14.14 0 0 0-.086-.116.94.94 0 0 0-.36 0l-.338.043c-.05-.383-.099-.765-.147-1.148a251.2 251.2 0 0 0 3.804-.506l.162 1.147-.125.017a1.676 1.676 0 0 0-.367.079.933.933 0 0 0-.237.151 3.214 3.214 0 0 0-.343.344c-.602.671-1.21 1.34-1.822 2.004.959.975 1.926 1.943 2.902 2.903.154.174.337.318.541.428.19.056.39.065.584.026l.169-.023.165 1.14c-1.462.207-2.926.404-4.393.59-.047-.381-.094-.765-.143-1.149a4.02 4.02 0 0 0 .175-.023c.195-.011.388-.05.573-.115a.13.13 0 0 0 .089-.12.98.98 0 0 0-.234-.311 264.15 264.15 0 0 1-1.78-1.894c-.387.415-.777.83-1.17 1.244l.096.837a1 1 0 0 0 .113.414.348.348 0 0 0 .197.148c.154.027.313.027.467 0l.356-.044c.045.385.093.766.139 1.15-1.418.17-2.837.328-4.258.474l-.119-1.151c.116-.002.222-.015.33-.026h-.003zm1.604 12.197c.084-.13.145-.274.182-.425a324.7 324.7 0 0 0 2.038-6.861c.664-.078 1.326-.159 1.99-.242a368.003 368.003 0 0 0 3.532 6.056c.113.227.279.424.482.575a1.2 1.2 0 0 0 .65.026l.162 1.14c-1.44.208-2.882.398-4.325.572-.049-.382-.094-.767-.14-1.149l.258-.04c.174-.007.343-.058.493-.148a.24.24 0 0 0 .115-.23c-.04-.15-.1-.293-.18-.425l-.366-.725c-.918.116-1.836.226-2.753.331-.083.294-.163.587-.244.88-.038.117-.06.24-.064.363a.256.256 0 0 0 .092.164.485.485 0 0 0 .26.085c.207 0 .413-.015.617-.045.045.383.092.767.134 1.15-1.179.136-2.364.266-3.545.387-.039-.383-.081-.767-.119-1.152.168-.009.333-.044.49-.103a.64.64 0 0 0 .241-.184zm4.27-2.995c-.385-.726-.767-1.451-1.15-2.177-.207.797-.426 1.593-.641 2.39.594-.068 1.189-.14 1.785-.213h.005zm4.25-10.466a1.53 1.53 0 0 0 .46-.123.568.568 0 0 0 .22-.196c.074-.134.126-.28.155-.43.56-2.306 1.096-4.614 1.605-6.925.628-.1 1.256-.205 1.885-.311a324.603 324.603 0 0 0 3.663 5.92c.117.222.284.413.487.559.203.063.42.063.622 0 .072.38.141.76.208 1.14-1.364.252-2.73.492-4.095.72-.066-.38-.128-.76-.195-1.14l.25-.046a.933.933 0 0 0 .457-.167.249.249 0 0 0 .104-.233 1.763 1.763 0 0 0-.192-.414 71.03 71.03 0 0 1-.384-.707c-.869.147-1.74.29-2.61.427-.061.294-.126.59-.19.886-.03.12-.044.243-.044.366.012.063.047.12.097.16a.453.453 0 0 0 .251.074c.198-.007.395-.03.589-.067l.18 1.14a327.47 327.47 0 0 1-3.36.519c-.06-.389-.115-.771-.17-1.152h.007zm4.605-3.463c-.404-.707-.807-1.417-1.203-2.13-.162.804-.327 1.607-.496 2.41.562-.09 1.125-.184 1.691-.282l.008.002zm5.743-5.123a2.83 2.83 0 0 1 .989-.6 7.588 7.588 0 0 1 1.065-.31c1.716-.353 3.427-.723 5.133-1.11l.267 1.164c-.103.022-.207.05-.31.07l-.173.033a.821.821 0 0 0-.31.139.258.258 0 0 0-.117.181c-.006.133.007.266.04.395l1.037 4.594c.024.15.067.295.129.434a.42.42 0 0 0 .231.143c.148.018.298.006.442-.036l.384-.088c.083.379.172.754.258 1.131-1.401.318-2.806.624-4.215.919l-.238-1.131.393-.085c.15-.02.293-.07.423-.147a.36.36 0 0 0 .12-.202 1.83 1.83 0 0 0-.068-.549l-.353-1.632a29.19 29.19 0 0 1-.705.151 246.616 246.616 0 0 1-2.02 4.097c-.92.181-1.843.36-2.768.533-.07-.38-.144-.76-.214-1.14.124-.025.247-.045.37-.07.134-.02.264-.06.387-.117a.962.962 0 0 0 .256-.192c.1-.108.187-.229.256-.359.019-.033.04-.066.057-.104.461-.769.914-1.54 1.366-2.312a3.507 3.507 0 0 1-1.784-.434 1.915 1.915 0 0 1-.981-1.384 2.074 2.074 0 0 1 .066-1.087 2.21 2.21 0 0 1 .58-.895h.007zm1.544 1.658a.983.983 0 0 0 .311.561c.178.15.397.244.628.27.38.028.763-.004 1.134-.097.414-.086.835-.175 1.254-.264-.153-.706-.306-1.412-.457-2.118-.461.099-.92.195-1.382.291-.35.056-.688.165-1.005.324a.996.996 0 0 0-.414.443.933.933 0 0 0-.076.585l.007.005zm-38.184 9.35l.28-.012c.18.004.36-.024.532-.081a.342.342 0 0 0 .184-.183c.042-.175.053-.357.03-.536-.026-.588-.05-1.179-.077-1.769-1.046.045-2.092.083-3.137.115.015.59.033 1.178.052 1.77a1.96 1.96 0 0 0 .053.519.33.33 0 0 0 .197.192c.174.036.353.046.53.03l.293-.009.038 1.157c-1.425.05-2.85.086-4.274.109l-.02-1.158h.29c.172.006.344-.017.508-.068a.366.366 0 0 0 .192-.172c.045-.154.06-.316.044-.476-.03-1.515-.064-3.032-.094-4.547a1.953 1.953 0 0 0-.065-.554.355.355 0 0 0-.166-.185 1.02 1.02 0 0 0-.43-.053c-.127 0-.256 0-.38.007-.008-.386-.014-.772-.02-1.157 1.376-.023 2.753-.058 4.13-.104.012.386.025.771.04 1.157l-.382.013a1.006 1.006 0 0 0-.428.075.344.344 0 0 0-.159.186 1.59 1.59 0 0 0-.034.51c.016.486.03.97.044 1.456 1.041-.031 2.082-.07 3.123-.114-.02-.518-.043-1.043-.067-1.564a1.218 1.218 0 0 0-.054-.387.32.32 0 0 0-.17-.192 1.541 1.541 0 0 0-.518-.033l-.32.014-.047-1.158c1.382-.054 2.762-.119 4.14-.194.02.384.044.77.064 1.156-.115.007-.23.012-.349.018a1.244 1.244 0 0 0-.463.081.33.33 0 0 0-.154.176 1.836 1.836 0 0 0-.018.527l.236 4.532c-.005.183.025.365.087.538a.35.35 0 0 0 .189.166c.185.034.374.04.561.02.083 0 .167-.008.25-.014l.066 1.155c-1.428.08-2.856.148-4.286.207a59.98 59.98 0 0 1-.049-1.171l.008.005zm-4.831 6.953c.158.312.244.657.248 1.007.02.707-.297 1.38-.856 1.814a3.743 3.743 0 0 1-2.46.754h-1.556v1.568a.92.92 0 0 0 .046.37.356.356 0 0 0 .18.169c.134.044.274.062.415.054h.467c0 .386 0 .773.006 1.159-1.5.007-2.997.001-4.493-.019l.014-1.158h.311a1.71 1.71 0 0 0 .542-.049.352.352 0 0 0 .193-.17c.053-.154.074-.318.063-.48l.04-4.603a1.555 1.555 0 0 0-.048-.508.341.341 0 0 0-.163-.18 1.058 1.058 0 0 0-.428-.063c-.144 0-.29 0-.433-.005 0-.384.01-.772.015-1.158a255 255 0 0 0 4.71.018c.5-.015 1.001.038 1.488.157.371.098.72.27 1.023.504.28.22.507.498.668.814l.008.005zm-2.577.14a1.815 1.815 0 0 0-1.048-.246h-.995v2.375h.772c.35.017.702-.03 1.036-.14.212-.085.396-.228.529-.414.132-.196.2-.43.192-.667a1.059 1.059 0 0 0-.497-.914l.01.005zm-3.715-6.916h.28a.99.99 0 0 0 .65-.134c.11-.19.156-.412.129-.631.004-.94.006-1.878.007-2.817a215.39 215.39 0 0 1-3.171 2.788c-.01.18.003.362.036.54.026.08.087.145.166.174.178.052.364.074.55.065h.293c-.006.387-.009.772-.014 1.158a252.754 252.754 0 0 1-4.28-.084l.03-1.157.291.008a.933.933 0 0 0 .642-.12.901.901 0 0 0 .135-.562l.108-4.546a1.172 1.172 0 0 0-.103-.674.726.726 0 0 0-.519-.147c-.127 0-.255-.007-.38-.01.01-.387.023-.772.033-1.158 1.378.038 2.757.065 4.136.081 0 .386-.008.772-.011 1.158h-.384a.792.792 0 0 0-.527.112 1 1 0 0 0-.13.628c-.015.926-.03 1.852-.043 2.777a209.868 209.868 0 0 0 3.15-2.827.757.757 0 0 0-.137-.588 1.244 1.244 0 0 0-.572-.088h-.321c0-.386.007-.77.007-1.156 1.382.006 2.76.003 4.135-.01 0 .386.01.774.014 1.16h-.347a.822.822 0 0 0-.558.13c-.102.19-.142.408-.113.622.01 1.512.019 3.024.027 4.537-.03.223.018.45.133.644.207.108.441.148.672.117h.251c0 .388.008.773.013 1.159-1.43.014-2.857.017-4.283.01a54.428 54.428 0 0 1-.001-1.164l.006.005zm-6.982-1.4a2.112 2.112 0 0 1-1.14 1.818 5.494 5.494 0 0 1-5.351-.24 5.598 5.598 0 0 1-1.513-1.911l1.007-.622a3.654 3.654 0 0 0 2.981 1.956c.467.066.942-.048 1.328-.32.273-.226.435-.557.447-.91a1.093 1.093 0 0 0-.34-.902 2.367 2.367 0 0 0-1.418-.384c-.374-.019-.745-.039-1.117-.06l.069-1.227.94.05c.49.074.99.002 1.44-.207a.922.922 0 0 0 .414-.762.938.938 0 0 0-.403-.875 1.984 1.984 0 0 0-1.05-.329 2.086 2.086 0 0 0-1.534.5 5.053 5.053 0 0 0-1.119 1.496 125.34 125.34 0 0 1-1.12-.398l1.036-2.944.854.052.179.372a4.601 4.601 0 0 1 2.15-.39 4.29 4.29 0 0 1 2.242.667c.557.341.882.96.846 1.612a1.986 1.986 0 0 1-1.686 1.877 2.01 2.01 0 0 1 1.85 2.075l.008.005zm-14.313.124c.124.043.254.068.385.072.244.021.486.043.726.066.468.054.942.017 1.396-.11.4-.125.762-.347 1.057-.645.328-.325.589-.713.765-1.14l1.1.462c-.452 1.006-.91 2.012-1.37 3.018a254.18 254.18 0 0 1-7.554-.69c.04-.385.083-.768.125-1.151l.217.023c.196.03.396.03.591 0a.385.385 0 0 0 .233-.19c.046-.164.074-.333.083-.504l.469-4.536a1.406 1.406 0 0 0 0-.487.336.336 0 0 0-.143-.187 1.037 1.037 0 0 0-.425-.103 16.479 16.479 0 0 0-.375-.04c.04-.384.082-.768.125-1.153 2.344.251 4.692.467 7.042.646.253.906.51 1.81.77 2.713l-1.141.311a3.587 3.587 0 0 0-.574-1.093 1.854 1.854 0 0 0-.786-.592 3.892 3.892 0 0 0-1.045-.218c-.432-.04-.864-.078-1.296-.12-.064.692-.13 1.383-.196 2.074l.43.043c.219.032.442.028.66-.012.107-.03.2-.099.26-.194.08-.181.122-.377.125-.575l.028-.316c.362.03.726.06 1.087.092-.104 1.176-.197 2.356-.297 3.532l-1.109-.093c.01-.121.02-.243.032-.362a1.209 1.209 0 0 0-.042-.542.481.481 0 0 0-.223-.25 2.495 2.495 0 0 0-.68-.124l-.388-.034-.181 1.916c-.02.124-.02.25 0 .375.021.05.061.09.112.113l.007.005zm-5.113-3.214a3.476 3.476 0 0 1-2.422.44l-1.469-.195-.207 1.555a.995.995 0 0 0-.005.374c.027.078.08.145.15.189.118.058.247.094.38.103.147.02.294.037.441.056l-.146 1.15a226.458 226.458 0 0 1-4.25-.578c.058-.38.113-.762.168-1.14.097.014.196.03.292.04.17.037.346.044.518.02a.354.354 0 0 0 .208-.142c.07-.148.113-.308.125-.472.213-1.521.427-3.04.643-4.556.032-.168.04-.339.023-.509a.34.34 0 0 0-.13-.201 1.02 1.02 0 0 0-.397-.113l-.41-.058.167-1.147c1.48.215 2.962.414 4.444.6.475.048.94.162 1.385.34.34.146.647.36.9.63a2.39 2.39 0 0 1 .631 1.92 2.28 2.28 0 0 1-1.046 1.687l.007.007zm-1.507-2.903a1.668 1.668 0 0 0-.957-.374l-.94-.121c-.106.785-.21 1.57-.311 2.355a50 50 0 0 0 .725.095c.33.06.668.057.996-.01a1.17 1.17 0 0 0 .553-.348 1.15 1.15 0 0 0 .27-.637 1.082 1.082 0 0 0-.343-.97l.007.01z" fill="#5A534B"/></g></svg>