<svg width="100" height="120" viewBox="0 0 100 120" xmlns="http://www.w3.org/2000/svg" xmlns:xlink="http://www.w3.org/1999/xlink"><title>27BFEA0D-22BB-49BB-9352-EA39361CF90C</title><defs><path d="M24 80c16-20.218 24-36.218 24-48 0-17.673-6.327-32-24-32C6.327 0 0 14.327 0 32c0 11.782 8 27.782 24 48z" id="a"/><linearGradient x1="60.967%" y1="0%" x2="28.679%" y2="120.53%" id="c"><stop stop-color="#796F62" offset="0%"/><stop stop-color="#222" offset="100%"/></linearGradient></defs><g fill="none" fill-rule="evenodd"><g transform="translate(26 40)"><mask id="b" fill="#fff"><use xlink:href="#a"/></mask><use fill="#A7D71F" xlink:href="#a"/><path fill="#9AC71A" mask="url(#b)" d="M23 41h33v51H23z"/></g><circle fill="#BBEE2A" cx="50" cy="54" r="50"/><circle fill="#FFF" cx="50.5" cy="54.5" r="43.5"/><path d="M95.699 28.446c1.468.7-.982 1.345-2.627 1.677a1.45 1.45 0 0 1 1.3.827c.882.885-.667 1.235-.667 1.235 1.367 1.947-4.605 1.653-4.605 1.653 1.105 1.589-1.847 1.617-3.614 1.507a42.331 42.331 0 0 0-6.541 4.587c.222.067.437.158.639.271 1.618-2.768 3.491-.977 3.491-.977 3.993-1.62 3.419.981 3.419.981 5.397.778 2.94 2.694 2.94 2.694 5.663 3.516-.6 3.098-.6 3.098.276 1.52-1.74.066-3.01-.972.329.43.36 1.016.076 1.477-.223 1.187-1.447.23-1.447.23-.84 2.205-4.172-2.48-4.172-2.48-.63 1.636-2.176-.06-3.172-1.433.15.578.268 1.163.356 1.753.066.434.118.875.168 1.31l.093.804c.12.174.207.367.258.571 5.296-1.252 3.818 1.41 3.818 1.41 6.675 1.186.723 3.08.723 3.08.887 1.304-1.571.694-3.168.198.476.27.74.795.673 1.333.282 1.179-1.24.742-1.24.742.067 1.14-1.093.977-2.295.517-.171.423-.369.83-.574 1.233.297.166.504.453.564.785 4.135-.909 2.93 1.172 2.93 1.172 5.139 1.03.486 2.444.486 2.444.656 1.042-1.235.527-2.458.11.365.224.558.643.49 1.062.192.938-.982.571-.982.571.05 1.846-3.744-.676-3.744-.676 0 .029-.004.058-.008.087.534.198.845.503.483.988 0 0 1.037.301.41.899 0 0-.029.052-.075.12a74.213 74.213 0 0 0 12.576-3.038.56.56 0 0 1 .287.201c2.222 4.432 3.313 9.013 2.002 13.946-.1.536-.522.957-1.064 1.06-1.919.508-3.828 1.1-5.746 1.627a1.642 1.642 0 0 0-1.117.902 21.513 21.513 0 0 0-1.885 5.96.894.894 0 0 1-.685.776 60.274 60.274 0 0 1-10.43 2.522c-.735.127-1.48.176-2.207.335-.337.073-.64.255-.86.518-2.954 4.178-7.553 6.935-12.67 7.594a19.967 19.967 0 0 1-13.231-2.42 14.795 14.795 0 0 1-5.206-5.159 1.086 1.086 0 0 0-.693-.461 63.547 63.547 0 0 1-10.192-2.303 1.142 1.142 0 0 1-.922-.994 16.457 16.457 0 0 0-3.143-6.743 2.21 2.21 0 0 0-1.048-.642 188.645 188.645 0 0 0-5.807-1.662c-1.107-.3-1.377-1.043-1.411-2.07a23.75 23.75 0 0 1 1.39-8.754c.55-1.535 1.226-3.031 1.835-4.532l.194.05a61.468 61.468 0 0 0 8.677 2.428.599.599 0 0 1-.235-.56s-1.172.367-.982-.571c-.067-.42.126-.838.491-1.063-1.223.416-3.114.933-2.457-.11 0 0-4.652-1.413.486-2.444 0 0-1.205-2.08 2.928-1.172 0 0 .267-1.49 1.824-.527a.727.727 0 0 1 .073-.09.995.995 0 0 1 .182-.24 16.337 16.337 0 0 1-.354-.707 2.663 2.663 0 0 1-.923-.52c-1.268.516-2.551.755-2.485-.445 0 0-1.521.436-1.24-.742a1.339 1.339 0 0 1 .673-1.333c-1.596.497-4.055 1.106-3.168-.198 0 0-5.951-1.896.723-3.082 0 0-1.477-2.658 3.819-1.41.108-.606.64-1.05 1.263-1.054l.01-.03c.064-1.207.259-2.404.581-3.57-.159-.169-.314-.337-.48-.506-.875 1.33-2.923 4.1-3.67 2.154 0 0-3.333 4.684-4.172 2.479 0 0-1.224.959-1.447-.23a1.305 1.305 0 0 1 .076-1.478c-1.268 1.043-3.286 2.493-3.01.974 0 0-6.264.417-.6-3.098 0 0-2.458-1.916 2.936-2.695 0 0-.574-2.602 3.418-.981 0 0 1.874-1.79 3.492.976.203-.112.418-.203.64-.271a42.421 42.421 0 0 0-6.541-4.587c-1.769.11-4.72.083-3.614-1.507 0 0-5.973.295-4.606-1.652 0 0-1.552-.35-.667-1.235a1.45 1.45 0 0 1 1.301-.827c-1.645-.33-4.093-.977-2.625-1.677 0 0-4.11-4.468 2.28-2.312 0 0 .16-2.994 4.057.602 0 0 1.869-1.99 2.878 1.988 0 0 2.644.339 1.26 3.212 0 0 1.842.66 1.528 2.169a46.748 46.748 0 0 1 2.933 1.89c.028-.203.085-.4.17-.587-2.986-2.972-.182-3.352-.182-3.352-1.068-5.033 1.682-3.52 1.682-3.52 1.589-6.21 3.305-.527 3.305-.527 1.428-.768.665 1.507.058 2.984a1.51 1.51 0 0 1 1.446-.568c1.268-.205.724 1.204.724 1.204a.791.791 0 0 1 .816.395c.133-.546.256-1.093.351-1.648a9.601 9.601 0 0 0-.22-4.666 98.992 98.992 0 0 0-.574-1.769 253.27 253.27 0 0 1-.693-2.16 2.237 2.237 0 0 1 .218-1.728c-2.208 1.303-2.154-.448-2.154-.448-3.701.066-2.295-1.559-2.295-1.559-4.212-1.828.028-2.24.028-2.24-.375-1.04 1.152-.243 2.124.343a.967.967 0 0 1-.228-1.027c.004-.861.942-.33.942-.33.106-.593.546-.587 1.06-.338.022-.022.031-.044.056-.066 0 0-4.464-.972-3.079-2.21 0 0-1.08-.583-.26-1.094a1.08 1.08 0 0 1 1.117-.383c-1.147-.587-2.832-1.582-1.616-1.832 0 0-2.174-4.299 2.127-1.339 0 0 .692-2.297 2.88 1.284 0 0 1.275-.84 1.643.941a.8.8 0 0 1 .117-.01c.398-.115.828.01 1.102.318-.568-1.08-1.323-2.764-.216-2.285 0 0 .768-4.482 2.453.137 0 0 1.876-1.378 1.531 2.561 0 0 1.92.07.323 2.335h1.247c.304 0 .617 0 .92-.017a11.805 11.805 0 0 0 4.1-.8 24.965 24.965 0 0 1 6.54-1.862h.011c-.024-.014-.035-.022-.046-.027-.152-.078-.304-.153-.455-.23-.123-.061-.246-.126-.37-.187a2.06 2.06 0 0 0-.236-.105 1.27 1.27 0 0 1-.363-.222c-.108-.086-.21-.178-.318-.264-.06-.045-.13-.076-.193-.116a.725.725 0 0 1-.245-.235.34.34 0 0 1-.014-.348c.045-.094.093-.185.133-.28a.301.301 0 0 0 .009-.222.066.066 0 0 0-.035-.056.067.067 0 0 0-.066 0c-.293.06-.586.123-.882.175a2.13 2.13 0 0 1-.5.026 1.267 1.267 0 0 0-.512.104c-.19.08-.364.195-.511.34-.373.329-.749.655-1.129.977-.267.226-.542.442-.81.665a.696.696 0 0 1-.444.155c-.146 0-.292-.005-.438-.01a.071.071 0 0 0-.005-.013.198.198 0 0 1 .026-.031c.377-.408.778-.791 1.182-1.177l1.216-1.16a.184.184 0 0 0 .023-.028c-.092-.012-.18-.02-.267-.032-.142-.021-.284-.041-.425-.066a.206.206 0 0 1-.05-.025.168.168 0 0 1 .037-.04c.118-.073.237-.142.356-.213.066-.038.133-.074.196-.113.036-.023.034-.045-.008-.06-.056-.019-.115-.035-.172-.053l-.09-.03c-.06-.026-.066-.066-.01-.102a.572.572 0 0 1 .12-.06c.164-.052.327-.097.487-.153a1.97 1.97 0 0 0 .764-.502c.2-.21.389-.432.58-.651.189-.235.406-.445.648-.624a9.38 9.38 0 0 0 1.187-1.003c.368-.348.728-.703 1.099-1.05.128-.118.263-.228.404-.33a.596.596 0 0 0 .277-.52.41.41 0 0 0-.158-.303 9.542 9.542 0 0 1-.514-.468c-.13-.125-.246-.263-.37-.395a.104.104 0 0 0-.04-.026L44.876.583 44.85.568l.11-.015c.301-.032.605-.046.908-.04.066.01.134.01.2.002a.717.717 0 0 0 .16-.113c.262-.183.56-.309.875-.37.067-.014.141-.022.21-.032h.263c.047.009.093.015.14.022.303.049.596.146.868.288.385.192.716.475.964.824.265.383.416.832.436 1.296.001.115.017.23.048.342l.013.051v1.858c-.067.27-.167.53-.297.777-.182.334-.412.64-.684.91-.255.27-.533.52-.83.745a2.427 2.427 0 0 1-.76.398 2.348 2.348 0 0 1-.26.05c.077.034.166.069.249.111.066.035.13.075.19.12.05.033.082.086.087.145a.1.1 0 0 0 .088.073c.091.025.181.048.273.066.405.079.771.29 1.04.599.217.247.442.484.661.725a.31.31 0 0 1 .059.104c.041.125.078.252.117.376l1.395.004c.039-.125.077-.254.119-.38a.31.31 0 0 1 .06-.104c.218-.242.443-.48.66-.725.268-.31.635-.52 1.04-.598.091-.02.18-.043.272-.066a.096.096 0 0 0 .087-.073.201.201 0 0 1 .088-.145c.06-.045.124-.085.191-.12.082-.042.172-.077.248-.11a2.383 2.383 0 0 1-.26-.05 2.446 2.446 0 0 1-.76-.4 6.726 6.726 0 0 1-.83-.745 3.893 3.893 0 0 1-.687-.91 3.438 3.438 0 0 1-.297-.777V2.824a1.429 1.429 0 0 0 .06-.393c.02-.465.172-.914.437-1.297.247-.35.578-.632.963-.824.272-.142.565-.239.868-.288.047-.007.092-.013.14-.022h.262c.067.01.142.018.212.032.312.061.608.187.868.37a.667.667 0 0 0 .161.113.7.7 0 0 0 .2-.004 7.46 7.46 0 0 1 .909.047l.11.015-.02.015-1.002.461a.111.111 0 0 0-.041.026c-.123.132-.24.268-.369.396a8.87 8.87 0 0 1-.514.467.41.41 0 0 0-.158.304.596.596 0 0 0 .276.52c.142.1.277.21.405.329.37.347.735.702 1.098 1.05.367.367.764.702 1.187 1.003.242.18.46.39.648.625.19.22.38.44.58.65.211.225.473.397.764.503.16.055.324.101.488.154a.613.613 0 0 1 .12.059c.055.036.05.075-.01.102a.788.788 0 0 1-.09.03c-.056.018-.116.034-.172.053-.041.015-.043.036-.006.06.066.04.129.075.194.114.12.07.238.139.357.211a.207.207 0 0 1 .035.044.193.193 0 0 1-.05.025c-.141.023-.284.044-.426.066l-.263.032c.006.01.013.02.022.028.406.387.81.776 1.216 1.16.406.383.803.762 1.183 1.17a.29.29 0 0 1 .025.033.13.13 0 0 1-.005.013c-.145.004-.291.013-.437.01a.699.699 0 0 1-.445-.156c-.266-.223-.543-.44-.81-.665a72.32 72.32 0 0 1-1.127-.978 1.623 1.623 0 0 0-.511-.339 1.253 1.253 0 0 0-.512-.104c-.167.01-.335.002-.5-.026-.295-.053-.59-.116-.883-.174a.067.067 0 0 0-.066-.002.066.066 0 0 0-.035.056.304.304 0 0 0 .01.222c.038.097.086.188.13.28.06.11.055.243-.013.349a.743.743 0 0 1-.246.235c-.067.04-.133.07-.193.116-.108.084-.21.175-.317.259a1.29 1.29 0 0 1-.365.223 2.35 2.35 0 0 0-.235.105l-.37.186c-.151.078-.305.154-.457.23-.01.005-.02.014-.046.029.07.032.134.061.193.084 1.828.227 3.61.733 5.28 1.501 1.232.557 2.552.9 3.902 1.011.037-.157.096-.308.176-.449-1.923-2.513.147-2.58.147-2.58-.343-3.939 1.531-2.56 1.531-2.56C67.454 2.515 68.221 7 68.221 7c1.106-.478.352 1.206-.216 2.285a1.076 1.076 0 0 1 1.103-.317.77.77 0 0 1 .115.01c.368-1.78 1.645-.941 1.645-.941 2.187-3.58 2.88-1.283 2.88-1.283 4.3-2.961 2.125 1.339 2.125 1.339 1.218.25-.467 1.244-1.615 1.831a1.08 1.08 0 0 1 1.118.383c.818.512-.261 1.095-.261 1.095 1.386 1.238-3.08 2.21-3.08 2.21.026.022.035.043.057.065.515-.248.954-.257 1.06.339 0 0 .935-.533.943.33a.967.967 0 0 1-.229 1.025c.974-.586 2.5-1.384 2.125-.344 0 0 4.24.417.026 2.246 0 0 1.407 1.622-2.293 1.558 0 0 0 .046-.006.113.214.255.431.506.644.76.474.562.648 1.313.468 2.021-.2.742-.432 1.543-.729 2.337a10.497 10.497 0 0 0-.962 4.165c.06.884.17 1.764.327 2.636.05-.287.245-.527.818-.434a1.505 1.505 0 0 1 1.447.568c-.606-1.477-1.37-3.752.057-2.985 0 0 1.717-5.685 3.305.524 0 0 2.751-1.512 1.683 3.52 0 0 2.803.38-.182 3.353.085.187.142.384.171.587a46.59 46.59 0 0 1 2.93-1.89c-.312-1.512 1.53-2.17 1.53-2.17-1.385-2.874 1.26-3.211 1.26-3.211 1.007-3.98 2.879-1.989 2.879-1.989 3.896-3.596 4.057-.602 4.057-.602 6.388-2.158 2.278 2.31 2.278 2.31zm-17.744 22.19c.316-.022.626-.044.906-.068l1.369-.051c.335-.014.523-.01.523-.01a7.723 7.723 0 0 0-1.876-.606c-.281-.039-.595-.115-.92-.131-.198-.02-.405-.023-.61-.035l-.064.84c0 .046-.008.089-.011.133.23-.028.464-.058.683-.072zM23.8 49.758c-.173-.007-.354-.022-.523-.022a8.915 8.915 0 0 0-1.088.06c-.344.016-.673.092-.968.132a8.323 8.323 0 0 0-1.973.605s.198 0 .551.01c.353.011.846.03 1.44.052.294.023.62.045.952.07.331.023.695.066 1.064.103.208.01.422.042.635.075l-.09-1.085zm-9.674-16.917c-.191-.276-.428-.521-.663-.795-.236-.275-.505-.518-.779-.782-.273-.25-.567-.495-.861-.741-.311-.222-.604-.46-.92-.661-.31-.214-.62-.406-.927-.586-.307-.18-.608-.344-.898-.488-.283-.158-.564-.277-.819-.39a11.44 11.44 0 0 0-1.777-.639s.162.093.442.27c.28.179.675.418 1.146.713.235.152.485.321.755.494.269.173.542.361.828.557.286.196.572.414.871.62.299.207.575.445.875.66.285.231.573.46.847.694.261.249.548.465.787.711.13.138.26.261.391.385.405.222.793.452 1.182.68-.142-.229-.307-.46-.48-.702zm6.647 7.644c-.327-.015-.667.035-1.012.06-.355.04-.71.106-1.077.178a28.1 28.1 0 0 0-1.086.286c-.354.124-.715.237-1.058.378-.343.14-.683.285-1.004.442-.322.157-.63.322-.913.48-.283.156-.55.33-.792.476-.54.34-1.057.73-1.546 1.167l.466-.21c.3-.136.732-.328 1.243-.555.257-.11.533-.224.834-.349.288-.123.597-.247.92-.37.32-.136.658-.24.994-.37.335-.13.687-.23 1.03-.34.356-.105.701-.215 1.046-.308.352-.062.684-.177 1.02-.23.335-.055.656-.14.962-.166.305-.026.595-.077.868-.09.273-.012.518-.014.74-.031.108-.004.215-.002.321.006-.082-.097-.161-.193-.245-.288-.02 0-.035-.011-.056-.014-.224-.037-.48-.083-.76-.116s-.573-.026-.894-.036h-.001zm1.831-1.689c-.056-.266-.1-.562-.16-.862-.06-.3-.086-.635-.145-.967-.047-.338-.065-.692-.113-1.045a36.051 36.051 0 0 1-.082-1.086c-.015-.367-.044-.734-.05-1.095-.007-.361-.028-.72-.027-1.062.001-.341-.009-.68-.007-1.002.003-.323 0-.616 0-.894.014-.56.02-1.027.025-1.351.005-.325.012-.516.012-.516a15.41 15.41 0 0 0-.318 1.831c-.031.277-.073.579-.091.903-.019.324-.052.664-.062 1.017-.01.353-.019.718-.017 1.095.002.377.025.753.038 1.128.03.38.063.753.1 1.125.05.37.093.732.163 1.077.06.335.133.665.22.988.063.234.124.453.188.661.152.195.305.39.451.584a9.786 9.786 0 0 0-.123-.529h-.002zm1.286 1.266c.092.09.172.183.263.273.068-.2.13-.408.199-.606.045-.134.096-.27.143-.404-.215.272-.423.524-.602.737h-.003zM72.4 65.6c-.14-.199-.343-.49-.578-.829l-.353.098c.073.08.151.172.219.246.302.324.617.596.942.813 0 0-.082-.115-.228-.329l-.002.001zm-55.743-2.946c-1.307-.344-1.357-.327-2.167.807a2.028 2.028 0 0 0-.118.176c-1.915 3.12-2.294 6.546-1.998 10.1.074.274.28.494.548.588a854.442 854.442 0 0 0 10.955 3.06c.886.244 1.805.362 2.716.538-.008.075-.008.15-.017.227H21.98l-.076.227c1.08.621 2.159 1.234 3.33 1.906-.7.27-1.358.521-1.998.774.228.974.43 1.941.7 2.883.091.27.299.486.566.588a102.76 102.76 0 0 0 14.607 2.907c1.088.133 2.176.252 3.256.387.008.084.008.177.008.265-1.889.152-3.779.304-5.735.465.177.302.338.64.548.95a11.63 11.63 0 0 0 5.668 4.26 18.818 18.818 0 0 0 8.383.964 14.27 14.27 0 0 0 7.76-2.787 8.527 8.527 0 0 0 2.563-2.966c-1.356-.294-2.647-.572-3.939-.856 2.98-.58 5.928-.992 8.848-1.572 3.441-.68 6.84-1.512 10.258-2.294a.784.784 0 0 0 .556-.344c.126-.984.194-1.975.278-2.933-.852-.219-1.62-.42-2.471-.64 1.189-.697 2.252-1.32 3.306-1.94-.034-.077-.066-.16-.102-.235h-4.52c0-.06-.008-.126-.008-.186.303-.042.616-.092.919-.143a99.683 99.683 0 0 0 12.34-3.159.772.772 0 0 0 .657-.857c-.009-1.336.092-2.688-.017-4.016a14.94 14.94 0 0 0-2.176-6.555.723.723 0 0 0-1.029-.398 21.72 21.72 0 0 1-2.42.656c-2.344.534-4.698.972-7.06 1.345.28.199.328.408-.104.597 0 0 2.616 3.337-1.623 1.579 0 0-.216 2.14-2.72-.568 0 0-1.085 1.097-1.691-.796-3.02.332-6.05.567-9.09.74l-.097.024c-1.99.478-3.99.929-5.928 1.385l-2.708.623a2.34 2.34 0 0 1-.488.059 2.704 2.704 0 0 1-.65-.085c-.599-.142-1.19-.285-1.78-.427-1.231-.304-2.47-.606-3.71-.874a193.6 193.6 0 0 1-3.035-.664c-.121-.007-.243-.01-.364-.017a.03.03 0 0 0-.026-.01 122.15 122.15 0 0 1-7.81-.713c-.827-.103-1.651-.224-2.476-.339-.583 2.307-1.779 1.094-1.779 1.094-2.503 2.707-2.72.567-2.72.567-4.239 1.759-1.623-1.579-1.623-1.579-.692-.308-.155-.659.603-.944a104.56 104.56 0 0 1-8.504-1.844zm54.81.894a14.88 14.88 0 0 0-.31-.169c-.245-.129-.468-.275-.714-.41-.23-.143-.464-.28-.683-.427-.041-.03-.082-.056-.123-.084-.163.068-.326.13-.489.196.074.056.14.109.216.165.22.154.459.304.697.454.21.116.412.231.622.341.261-.022.529-.043.786-.067h-.001zm-3.48.894a1.629 1.629 0 0 1-.304-.828c-.673.442-1.35.824-2.016 1.157.783-.103 1.557-.213 2.32-.33v.001zM33.162 63.33c-.392-.28-.767-.57-1.125-.871a2.719 2.719 0 0 1-.026 1.748c1.026.189 2.071.365 3.141.52.112.016.228.029.34.045l-.086-.046a21.16 21.16 0 0 1-2.004-1.234l-.24-.012.001-.151h-.001zm-2.313-.586c-.122-.095-.246-.188-.363-.285-.064.082-.122.16-.186.247-.171.233-.38.444-.568.681-.188.237-.404.44-.611.668-.204.195-.39.405-.591.596l.682.121c.083-.082.166-.16.251-.241.213-.237.425-.471.621-.71.196-.24.388-.492.558-.744.075-.115.137-.224.209-.334l-.002.001zm-5.194-.718c-.416-.328-.061-.535.554-.665 0-.022-.012-.036-.01-.059 0 0-2.227.866-3.472.904.733.088 1.496.17 2.26.253-.162-.288.67-.433.67-.433h-.002zm.554 3.903a9.324 9.324 0 0 0 1.38-.55c.195-.099.413-.2.633-.33.099-.055.204-.122.308-.181-.201-.03-.401-.064-.602-.096-.176.122-.346.243-.503.35l-.88.586c-.213.142-.334.22-.334.22h-.002zM24.21 59a10.073 10.073 0 0 0-.856-.008c-.28.007-.545.026-.795.052-.259.01-.49.053-.71.083a7.98 7.98 0 0 0-1.443.34s.148-.004.402 0c.254.003.624 0 1.06.005.217 0 .453.016.704.019.251.003.508.021.78.033.27.013.55.042.83.058.281.016.568.067.857.091.284.042.57.076.846.129.278.066.556.096.816.168.23.066.455.113.668.174a15.74 15.74 0 0 1-.485-.665l-.073-.028c-.27-.09-.548-.152-.84-.229-.291-.076-.58-.101-.875-.153-.3-.024-.591-.062-.886-.069zm.838-22.119c.19-.008.38.036.555.13.213-.774.415-1.545.606-2.313a20.86 20.86 0 0 1-1.16 2.183zm1.158-18.955c-.262-.037-.522-.064-.775-.103-.253-.039-.493-.072-.72-.111-.226-.04-.445-.074-.647-.11a108.452 108.452 0 0 1-1.337-.254c.407.201.83.37 1.268.507.193.061.402.133.633.186.232.054.467.128.722.177.255.049.513.105.785.145.272.04.542.068.82.103.281.017.557.035.827.039.126 0 .242-.006.364-.008.045-.048.087-.097.133-.145l.25-.27c-.235.003-.48-.018-.73-.02-.262-.01-.529-.034-.798-.052-.268-.033-.531-.043-.795-.082v-.002zm3.482-1.769c-.022-.119-.034-.279-.08-.45-.048-.172-.108-.36-.174-.572-.065-.21-.175-.425-.275-.66-.101-.234-.252-.465-.388-.707-.137-.243-.31-.477-.484-.724-.173-.247-.366-.475-.559-.711-.212-.225-.406-.455-.625-.666-.218-.211-.429-.416-.645-.61-.216-.192-.432-.37-.64-.53-.204-.178-.41-.318-.599-.454-.418-.305-.863-.58-1.331-.821 0 0 .115.103.306.284l.802.752c.164.155.334.33.522.51.188.178.373.37.57.568.196.2.39.414.592.623.203.208.386.439.59.656.187.225.378.45.554.673.166.235.357.45.505.674.148.225.313.44.441.651.128.211.251.413.352.6.101.188.19.367.271.527a3.3 3.3 0 0 1 .151.338c.049.025.099.055.145.084.002-.014.001-.021 0-.034l-.001-.001zM28.58 13.88c-.019.023-.032.045-.05.07.15.114.291.239.423.373a24.08 24.08 0 0 1-.373-.441v-.002zm1.237 2.313c-.04.053-.08.105-.127.158.033.027.062.058.093.086l.116-.141c-.024-.034-.054-.066-.082-.1v-.003zm2.12-4.224a10.248 10.248 0 0 0-.13-.885 13.56 13.56 0 0 0-.178-.816c-.054-.262-.132-.5-.2-.721a8.694 8.694 0 0 0-.578-1.45s.029.151.066.417c.037.266.096.641.165 1.093.031.223.056.469.092.725.036.257.06.528.091.809.03.28.046.572.073.866.028.294.022.592.046.89.004.3.012.599.004.889v.094l.155-.166c.139-.143.293-.273.46-.39 0-.144.008-.29.008-.441-.028-.304-.033-.61-.074-.912v-.002zm18.45-1.848c-.218-.174-.437-.353-.662-.518-.31-.232-.627-.453-.937-.684a.847.847 0 0 0-1.019 0 .588.588 0 0 0-.224.467.606.606 0 0 1-.154.39c-.04-.104-.08-.2-.113-.3a.316.316 0 0 0-.11-.158.227.227 0 0 1-.037-.36c.146-.174.306-.335.48-.482l.034-.03a2.174 2.174 0 0 1-.157-.183.333.333 0 0 0-.27-.15 1.64 1.64 0 0 0-.492.005.71.71 0 0 0-.493.36c-.075.134-.16.261-.255.381a.183.183 0 0 0-.03.178.37.37 0 0 0 .173.215c.173.104.32.246.432.413.03.032.066.056.106.07l.805.424c.091.047.181.094.269.146a.41.41 0 0 0 .189.042c.173.012.346.033.518.063l1.003-.124h1.136c-.061-.053-.126-.112-.191-.163v-.002zm5.275-.42a.255.255 0 0 0 .106-.069c.111-.164.259-.303.431-.404a.365.365 0 0 0 .171-.212.176.176 0 0 0-.028-.173 2.948 2.948 0 0 1-.256-.374.706.706 0 0 0-.492-.352 1.662 1.662 0 0 0-.49-.004.333.333 0 0 0-.269.147 2.32 2.32 0 0 1-.156.184c.013.013.024.021.035.03.173.144.333.301.48.471a.22.22 0 0 1-.037.354.306.306 0 0 0-.111.155c-.033.097-.07.192-.113.293a.586.586 0 0 1-.153-.382.57.57 0 0 0-.224-.457.86.86 0 0 0-1.017 0c-.308.226-.625.442-.935.67-.224.164-.444.336-.663.507-.066.051-.132.11-.201.169h.52l.534.061c.29.036.58.068.868.095a4.18 4.18 0 0 1 .737-.105.408.408 0 0 0 .187-.041c.088-.05.177-.097.268-.143l.808-.42zm10.586-.399c-.068.186-.146.384-.2.602-.054.218-.136.443-.18.68-.045.237-.097.484-.13.739-.032.254-.046.506-.072.766 0 .213.005.424.014.63.151 0 .306.004.454.004h.156v-.621c.025-.248.017-.497.046-.743.03-.245.04-.488.076-.722.036-.234.053-.46.09-.675.036-.214.06-.42.092-.605.071-.376.124-.691.166-.911l.066-.35c-.237.39-.43.795-.578 1.21v-.004zM62.332 27.83a3.582 3.582 0 0 0-.183 1.479c.122.211.34.352.584.377.27.009.538.066.789.167V16.38c.272.01.543.017.814.017v14.214c.096.218.158.45.185.686a.407.407 0 0 1-.058.29c-.04.038-.086.076-.127.114v10.623c-.271-.056-.542-.116-.813-.174v-9.72l-.66.585a1.769 1.769 0 0 1-.839 1.971c-.128.093-.264.196-.396.295v6.467l-.815-.17v-5.932a1.242 1.242 0 0 1-1.03-.442c.132.328.196.678.188 1.031-.236.465-.6.855-1.05 1.124v3.84a64.835 64.835 0 0 0-.816-.157v-3.534a2.479 2.479 0 0 1-1.165-1.085c-.247 0-.49-.018-.73-.025v4.33c-.27-.04-.542-.08-.815-.116V36.47c-.52.122-1.029.351-1.664.573l-.225-.119v3.342c.165.115.342.214.528.293a25.522 25.522 0 0 0-3.896-.326c-.726 0-1.453.051-2.188.123a4.547 4.547 0 0 0 1.07-.668c.472-.397.668-2.794.275-3.275a2.615 2.615 0 0 0-1.21-.743v4.607c-.271.017-.543.036-.816.059v-4.872a.895.895 0 0 0-.57.337 2.9 2.9 0 0 1-1.32.718v4.006c-.272.034-.543.074-.816.112v-3.94a4.73 4.73 0 0 1-.831-.443c-.295-.136-.6-.249-1.01-.417.116-.645.242-1.28.337-1.926a.46.46 0 0 0-.148-.371c-.079-.015-.16-.025-.241-.037v7.43c-.272.046-.543.09-.816.14v-7.48c-.107.143-.25.255-.415.327a1.097 1.097 0 0 1-.887-.196.911.911 0 0 0-.59-.574v8.285l-.816.162v-8.37l-.156.043c-.338.09-.555.225-.573-.292a.324.324 0 0 0-.03-.14c-.899-.017-.573-1.132-1.135-1.42v10.57l-.815.17V16.374c-.63.018-1.262.008-1.893.015v26.157c-.272.055-.544.11-.815.162V16.685l.035-.04a.722.722 0 0 1 .452-.254h.297-.311a.728.728 0 0 0-.453.253c-1.091 1.262-2.171 2.534-3.253 3.803-.512.598-1.03 1.19-1.52 1.802v.84c.348 1.106.719 2.203 1.066 3.307a10.57 10.57 0 0 1 .255 5.071c-.558 3.211-1.76 6.228-2.825 9.284a19.4 19.4 0 0 0-1.155 4.79c-.016.19-.028.382-.034.574-.003.103-.073.83-.073 1.092v.801c0 .298.066 1.307.098 1.517.066.444.136.888.217 1.33a13.094 13.094 0 0 0 2.528 5.387c2.029 2.758 4.88 4.27 8.034 5.361 2.477.797 5 1.441 7.558 1.928 1.722.365 3.429.805 5.145 1.208a1.114 1.114 0 0 0 .347.028c3.275-.756 6.558-1.489 9.822-2.294a24.226 24.226 0 0 0 7.07-2.728 13.633 13.633 0 0 0 6.517-9.24c.066-.335.113-.673.16-1.01.028-.196.084-.974.084-1.164v-1.097c0-.27-.06-1.307-.09-1.553a65.187 65.187 0 0 0-.132-1.027 21.724 21.724 0 0 0-1.105-4.088v3.107c-.27-.025-.543-.057-.815-.087v-5.303a38.843 38.843 0 0 1-1.595-5.23 29.22 29.22 0 0 1-.298-1.68v11.964c-.272-.04-.543-.08-.815-.125v-23.43l-1.897-2.236v25.326c-.27-.052-.543-.104-.815-.159V16.617a1.031 1.031 0 0 0-.753-.223 22.922 22.922 0 0 1-3.94-.201l.09.015V26.74c.17.139.352.262.544.367.334.207.326.342.163.724zm-.147-12.185c-.792-.136-1.57-.34-2.32-.609v6.616c.312.164.709.201 1.018.374.196 1.47.242 1.554.75 1.726l.303.537v-8.685c.083.016.169.026.25.04zm-3.481 5.174v-6.206a18.58 18.58 0 0 0-2.321-.733v6.837a6.009 6.009 0 0 1 2.32.102zm-2.321 0v-6.614a29.186 29.186 0 0 0-2.321-.325v5.112c.567.365.853 1.037 1.368 1.473.259.192.591.316.95.354h.003zM53.28 35.855c-.62 1.142-.476 2.401.396 3.47v-3.334l-.396-.136zm.78-17.374v-5.58c-.033 0-.066-.008-.1-.011-.587-.043-1.171-.112-1.757-.167h-.463v4.95c.566.254 1.182.528 1.808.805a.314.314 0 0 0 .172.025c.113-.016.227-.023.34-.021v-.001zm-16.716 9.127c.21-.29.487-.53.81-.7a7.73 7.73 0 0 0 .917-.761c-.037-.073-.07-.146-.109-.22l.277.04V15.192c.287-.054.571-.118.853-.192v9.709c.13-.257.357-.457.634-.56-.22-.868-.138-.95.622-.784.241.023.484.015.723-.024v-.083c-.12-.227-.216-.408-.328-.616.112-.011.222-.036.328-.072v-8.26c.284-.108.567-.217.854-.315v8.18a.939.939 0 0 1 1.263.243c-.04-.56.017-1.122.165-1.665.146-.362.33-.709.553-1.034v-6.31c.284-.072.566-.15.853-.21v6.004c.262-.086.5-.231.691-.422a1.44 1.44 0 0 1 1.294-.541v-5.356l.853-.107v5.643c.462.142 1.1.346 1.46-.454a1.1 1.1 0 0 1 .522-.424v-4.82h-1.545c-.595.076-1.191.15-1.787.223a23.395 23.395 0 0 0-5.938 1.649 13.77 13.77 0 0 1-4.545.873h-.11.125c.161-.008.32-.024.48-.036v12.328c.025-.051.054-.101.085-.15zm.47 1.308v1.156l.856-.84c-.35-.068-.647-.177-.856-.316zm9.284 6.183l.308.062V34.7l-.308.4zm1.16-1.163v.497l1.16.266-.173-1.157c-.374.288-.688.585-.987.394zm22.678-8.734c.207-.726.37-1.474.525-2.22a.84.84 0 0 0-.101-.53c-.35-.546-.701-1.09-1.052-1.633v6.94c.169-.868.378-1.722.628-2.557zm-1.582-6.411c-.04-.098-.084-.176-.116-.285l-.09.034.206.25zm-.29-3.755a20.83 20.83 0 0 1-1.077 1.125l.02.032c.324-.328.72-.7 1.14-1.056l-.083-.1zm-.704-2.313c-.144.172-.268.32-.373.442.132-.134.274-.259.424-.373-.02-.018-.03-.039-.05-.063v-.006zm.042 4.7a11.68 11.68 0 0 0-.415-.074l.34.54h.007c.25.095.528.156.82.232.291.076.602.098.928.141.073.007.152 0 .226.007a135.83 135.83 0 0 1-.47-.747c-.217 0-.436 0-.637-.018-.279-.03-.55-.037-.799-.075v-.006zm3.505-7.235c.17-.197.329-.388.487-.564.157-.175.307-.35.447-.503.283-.305.518-.563.687-.744l.261-.28c-.4.238-.781.51-1.139.812-.16.136-.337.274-.511.445a8.32 8.32 0 0 0-.548.526c-.179.194-.373.388-.551.603-.18.215-.354.435-.535.657-.165.234-.33.468-.479.704a9.78 9.78 0 0 0-.414.715c-.123.24-.242.468-.331.7-.049.13-.09.247-.134.37.05.053.106.095.154.154l.08.097c.074-.148.154-.296.232-.458.11-.209.252-.417.378-.644.126-.227.29-.434.431-.667.151-.22.31-.445.475-.664.174-.215.329-.442.504-.65.175-.208.334-.413.506-.606v-.003zm2.294 6.84c.231-.064.443-.154.637-.223.439-.166.864-.37 1.272-.612 0 0-.132.033-.371.085-.239.053-.574.132-.974.22-.203.042-.422.082-.651.13-.23.05-.473.091-.724.137-.252.045-.504.077-.761.121l.354.463c.165-.035.333-.068.49-.11a6.85 6.85 0 0 0 .728-.208v-.003zm1.91 29.394c-.077-.626-.146-1.254-.239-1.88a24.11 24.11 0 0 0-1.297-4.673 59.62 59.62 0 0 1-2.47-7.666 26.506 26.506 0 0 1-.563-4.012 11.717 11.717 0 0 1 1.057-4.798c.265-.71.492-1.433.681-2.165a.662.662 0 0 0-.129-.518 352.042 352.042 0 0 0-1.553-1.818 1.426 1.426 0 0 1-1.204.167c.653.76 1.304 1.522 1.952 2.284.2.244.277.562.21.868-.189.68-.398 1.404-.664 2.1a10.84 10.84 0 0 0-.978 4.388c.08 1.26.255 2.51.524 3.744a42.52 42.52 0 0 0 1.808 5.778c.177.483.355.968.528 1.452a23.337 23.337 0 0 1 1.25 4.515c.049.327.09.654.13.982l.05.406.052 1.265v1.11l-.073 1.136c-.054.385-.106.77-.182 1.152-.759 4.021-3.25 7.526-6.834 9.617a25.623 25.623 0 0 1-7.33 2.81c-2.49.609-5.04 1.188-7.5 1.745l-2.518.572a.888.888 0 0 1-.196.021c-.12-.002-.24-.02-.357-.05-.593-.138-1.187-.28-1.784-.424a117.322 117.322 0 0 0-3.448-.793 65.28 65.28 0 0 1-7.756-1.962c-3.955-1.355-6.544-3.071-8.394-5.565a13.472 13.472 0 0 1-2.652-5.616c-.067-.377-.13-.756-.19-1.135l-.034-.22-.1-1.19v-1.214l.04-1.012a.924.924 0 0 0 .029-.107 9.89 9.89 0 0 1 .03-.544 19.78 19.78 0 0 1 1.203-5c.188-.531.377-1.062.57-1.592a46.698 46.698 0 0 0 2.288-7.724c.326-1.638.241-3.33-.246-4.93-.176-.552-.358-1.106-.539-1.657-.225-.679-.45-1.36-.662-2.043a1.022 1.022 0 0 1 .183-.868c.393-.483.797-.95 1.201-1.417l.98-1.138c.898-1.044 1.796-2.09 2.705-3.127a1.15 1.15 0 0 1 .77-.402c.221-.006.442-.009.662-.009l1.021.005c.313 0 .624-.004.936-.02a12.525 12.525 0 0 0 4.284-.837 22.52 22.52 0 0 1 5.898-1.675l1.74-.222 2.774-.004.518.057c.326.038.653.077.98.105 2.029.131 4.016.624 5.863 1.456a14.686 14.686 0 0 0 6.366 1.159c.282 0 .565-.004.85-.01h.006c.3-.013.597.055.86.198L66.81 15c-.01-.046-.016-.083-.028-.132-.022-.118-.04-.253-.058-.382-2.515.023-4.993-.165-7.327-1.258a17.56 17.56 0 0 0-6.019-1.496c-.512-.042-1.023-.109-1.543-.167h-2.858c-.613.076-1.226.16-1.831.234a23.706 23.706 0 0 0-6.096 1.73 13.648 13.648 0 0 1-4.662.92c-.921.05-1.841 0-2.76.025a.804.804 0 0 0-.487.268c-1.176 1.345-2.335 2.7-3.495 4.045-.545.635-1.108 1.27-1.636 1.922a.668.668 0 0 0-.12.519c.41 1.296.852 2.59 1.27 3.886.53 1.753.623 3.604.274 5.4-.598 3.41-1.885 6.62-3.03 9.873a20.505 20.505 0 0 0-1.242 5.083c-.017.208-.03.416-.037.627 0 .108-.077 1.23-.077 1.23s.062 2.12.093 2.31c.078.5.156.999.247 1.497.035.183.072.362.114.538a14.22 14.22 0 0 0 2.6 5.192c2.174 2.934 5.234 4.547 8.616 5.71 2.66.844 5.37 1.527 8.115 2.046l.904.198c1.543.343 3.077.726 4.62 1.087.042.009.087.015.135.022.102 0 .202-.01.308-.014 1.577-.361 3.152-.718 4.725-1.07 1.918-.434 3.837-.877 5.746-1.346a26.394 26.394 0 0 0 7.585-2.908c3.67-2.134 6.22-5.717 6.998-9.83.111-.56.171-1.137.256-1.705v-2.633zm-1.13 12.582c-.254.008-.506.063-.765.1-.142.346-.276.699-.427 1.033.146-.037.292-.076.44-.115.262-.036.517-.116.777-.138.26-.022.508-.076.753-.088.245-.011.482-.043.707-.05.224-.009.443-.027.64-.03.394 0 .727-.008.96-.008h.365a4.987 4.987 0 0 0-1.308-.515c-.2-.046-.41-.115-.644-.126a4.232 4.232 0 0 0-.721-.078c-.25 0-.51-.007-.777.02v-.005zm2.272-26.338a18.76 18.76 0 0 0-.063-1.016c-.017-.324-.06-.625-.09-.903a15.621 15.621 0 0 0-.317-1.831s.002.19.01.516c.01.326.011.79.025 1.35v.894c0 .318 0 .654-.007 1.002 0 .342-.02.7-.026 1.062-.004.363-.035.725-.05 1.095-.024.363-.048.73-.082 1.086-.047.353-.065.707-.114 1.043-.058.332-.083.666-.144.969-.061.302-.104.595-.161.862-.05.189-.087.36-.124.53.146-.195.299-.39.45-.585.064-.205.125-.426.19-.66.085-.323.158-.653.218-.988.068-.342.113-.707.164-1.076.037-.37.07-.746.1-1.125.013-.378.034-.756.038-1.128.003-.373-.003-.743-.017-1.097zm.319 7.975c-.02 0-.036.01-.055.013l-.246.288c.1-.006.206-.01.323-.006.222.018.473.026.74.033.268.007.566.069.867.088.3.02.63.118.966.165.336.048.667.166 1.02.231.343.09.689.2 1.046.303.342.113.692.211 1.025.343.333.131.677.23.996.37.32.124.63.247.92.37.3.125.576.238.832.35.513.226.942.418 1.243.553.301.134.466.21.466.21a11.596 11.596 0 0 0-1.547-1.166c-.241-.147-.497-.323-.79-.477-.282-.153-.587-.33-.912-.479-.325-.148-.655-.304-1.005-.443-.351-.14-.702-.253-1.056-.377a27.22 27.22 0 0 0-1.085-.286c-.369-.072-.724-.14-1.079-.18-.343-.024-.682-.076-1.01-.058-.329.017-.623.004-.898.043a30.15 30.15 0 0 0-.76.113l-.001-.001zm14.174-12.242c-.255.117-.536.235-.82.394-.29.146-.598.304-.898.489-.3.184-.617.37-.929.584-.314.202-.608.439-.919.66-.293.248-.587.491-.861.742-.274.264-.541.513-.783.78a8.712 8.712 0 0 0-.665.796c-.17.245-.337.474-.477.698.391-.226.778-.456 1.182-.678.13-.125.261-.25.392-.385.238-.247.521-.463.787-.711.27-.233.558-.462.843-.694.3-.215.576-.455.877-.66.3-.204.58-.428.87-.62.29-.19.563-.385.83-.555.265-.17.521-.344.754-.494.473-.294.871-.544 1.148-.715l.44-.271a11.48 11.48 0 0 0-1.77.64zM67.354 46.352a7.506 7.506 0 0 1 1.922-1.028 4.175 4.175 0 0 1 3.167.225c.067.517.128 1.035.187 1.552v.397c-.12-.079-.236-.16-.355-.236a3.088 3.088 0 0 0-3.702.195 5.734 5.734 0 0 1-2.138 1.046c-1.003.2-2.042 0-2.913-.558-.38-.226-.735-.488-1.113-.715a2.974 2.974 0 0 0-3.274-.013c-.417.246-.807.542-1.226.781a3.984 3.984 0 0 1-4.41-.182c-.276-.175-.541-.368-.815-.54a2.996 2.996 0 0 0-3.366-.053c-.34.209-.661.443-.996.651a4.059 4.059 0 0 1-4.729-.118c-.22-.147-.435-.303-.657-.446a3.1 3.1 0 0 0-3.75.112 6.786 6.786 0 0 1-1.775.966 3.836 3.836 0 0 1-3.181-.367c-.368-.21-.714-.452-1.069-.685a3.1 3.1 0 0 0-3.75.062c-.289.2-.578.396-.88.567v-.868a1.51 1.51 0 0 0 .067-.3c.009-.28.044-.552.072-.827a4.81 4.81 0 0 1 2.902-.855 5.194 5.194 0 0 1 2.533.926c.34.237.693.455 1.056.653.947.437 2.05.284 2.853-.398a9.24 9.24 0 0 1 1.435-.828 4.347 4.347 0 0 1 4.16.383c.362.218.705.472 1.065.69.833.55 1.893.553 2.73.01.376-.228.735-.488 1.111-.717a4.573 4.573 0 0 1 2.774-.71 5.373 5.373 0 0 1 2.63 1.046c.244.173.498.332.76.476a2.464 2.464 0 0 0 2.612-.14c.322-.198.629-.423.952-.621a4.575 4.575 0 0 1 5.444.26 4.128 4.128 0 0 0 1.572.772 2.732 2.732 0 0 0 2.091-.568l.004.003zM30.852 19.458l1.16-.952v24.148c-.386.048-.773.095-1.16.141V19.458zM28.53 38.416c.4-.85.791-1.702 1.16-2.56v7.995c-.388.038-.772.07-1.16.1v-5.535zm5.57 11.098c.34.237.692.454 1.055.651a2.66 2.66 0 0 0 2.854-.397 9.24 9.24 0 0 1 1.435-.83 4.344 4.344 0 0 1 4.161.386c.362.216.705.47 1.065.69.833.55 1.894.553 2.73.008.377-.226.735-.488 1.112-.716a4.574 4.574 0 0 1 2.775-.71 5.367 5.367 0 0 1 2.63 1.046c.244.173.497.331.759.475.83.458 1.833.404 2.613-.14.322-.199.63-.424.952-.623a4.573 4.573 0 0 1 5.445.262 4.143 4.143 0 0 0 1.572.773 2.734 2.734 0 0 0 2.093-.571 7.5 7.5 0 0 1 1.92-1.027 4.178 4.178 0 0 1 3.207.24c.052.024.101.056.15.082v.338c-.066.463-.12.926-.2 1.387l-.158-.106a3.086 3.086 0 0 0-3.702.194 5.709 5.709 0 0 1-2.138 1.046 3.95 3.95 0 0 1-2.914-.558c-.38-.224-.735-.488-1.113-.715a2.975 2.975 0 0 0-3.274-.013c-.417.247-.808.541-1.227.78a3.978 3.978 0 0 1-4.41-.18c-.277-.176-.542-.369-.816-.542a2.996 2.996 0 0 0-3.367-.053c-.34.21-.66.442-.995.651a4.057 4.057 0 0 1-4.73-.117c-.22-.146-.436-.302-.658-.445a3.1 3.1 0 0 0-3.75.111 6.827 6.827 0 0 1-1.776.967 3.837 3.837 0 0 1-3.181-.368c-.368-.206-.715-.452-1.07-.684a3.1 3.1 0 0 0-3.75.062c-.2.14-.401.27-.602.397-.097-.579-.18-1.164-.267-1.743a4.895 4.895 0 0 1 3.03-.938 5.166 5.166 0 0 1 2.538.93h.001zm-.608 3.468c.34.237.693.455 1.056.653.948.437 2.05.283 2.854-.398a9.32 9.32 0 0 1 1.436-.83 4.347 4.347 0 0 1 4.16.385c.362.218.706.472 1.066.69.833.55 1.894.554 2.73.01.377-.228.735-.488 1.112-.718a4.576 4.576 0 0 1 2.775-.71 5.384 5.384 0 0 1 2.63 1.046c.244.173.498.333.76.477.83.458 1.832.404 2.613-.14.322-.199.63-.424.952-.622a4.574 4.574 0 0 1 5.446.261 4.14 4.14 0 0 0 1.57.771 2.732 2.732 0 0 0 2.093-.57 7.507 7.507 0 0 1 1.922-1.029 4.143 4.143 0 0 1 2.801.085 13.731 13.731 0 0 1-.535 1.51 3.115 3.115 0 0 0-2.971.54 5.73 5.73 0 0 1-2.14 1.046 3.962 3.962 0 0 1-2.913-.554c-.38-.225-.735-.488-1.113-.716a2.976 2.976 0 0 0-3.275-.013c-.417.247-.807.543-1.227.782a3.982 3.982 0 0 1-4.41-.182c-.277-.176-.542-.368-.816-.54a2.997 2.997 0 0 0-3.367-.054c-.34.209-.661.443-.996.651a4.057 4.057 0 0 1-4.73-.117c-.22-.147-.436-.302-.658-.446a3.1 3.1 0 0 0-3.75.11 6.778 6.778 0 0 1-1.776.968 3.837 3.837 0 0 1-3.182-.367c-.368-.21-.714-.452-1.07-.685a3.055 3.055 0 0 0-3.416-.14 11.69 11.69 0 0 1-.593-1.508 4.52 4.52 0 0 1 2.42-.573 5.186 5.186 0 0 1 2.54.927h.002zm.829 3.475c.335.237.682.454 1.04.65a2.59 2.59 0 0 0 2.81-.397 9.07 9.07 0 0 1 1.412-.828 4.226 4.226 0 0 1 4.097.384c.357.218.694.471 1.053.69.82.55 1.864.553 2.687.01.373-.226.724-.489 1.096-.716a4.45 4.45 0 0 1 2.732-.71 5.25 5.25 0 0 1 2.589 1.045c.24.173.49.332.748.475a2.395 2.395 0 0 0 2.573-.14c.317-.198.621-.422.937-.622 1.66-1.121 3.807-1.017 5.363.262.46.37.987.632 1.548.771a2.657 2.657 0 0 0 2.06-.57 7.369 7.369 0 0 1 1.893-1.029 4.165 4.165 0 0 1 1.349-.193 12.855 12.855 0 0 1-1.448 1.97 4.501 4.501 0 0 0-.592.358 5.59 5.59 0 0 1-2.103 1.045c-.989.2-2.012 0-2.87-.558-.374-.224-.723-.487-1.097-.715a2.894 2.894 0 0 0-3.224-.013c-.41.247-.795.542-1.208.781a3.87 3.87 0 0 1-4.343-.18c-.272-.177-.535-.369-.804-.542a2.918 2.918 0 0 0-3.315-.054c-.334.209-.65.443-.98.652a3.948 3.948 0 0 1-4.658-.117c-.216-.148-.429-.302-.648-.447a3.017 3.017 0 0 0-3.692.113 6.662 6.662 0 0 1-1.749.966 3.726 3.726 0 0 1-3.134-.368c-.361-.205-.703-.451-1.053-.683a3.44 3.44 0 0 0-1.436-.573c-.18-.225-.36-.448-.527-.692a21.37 21.37 0 0 1-.576-.892c.322-.062.65-.084.976-.065.892.08 1.75.4 2.493.93v.002zm5.174 1.733a4.215 4.215 0 0 1 4.091.384c.356.218.693.472 1.048.69.819.55 1.862.553 2.684.01.372-.227.723-.488 1.094-.716a4.436 4.436 0 0 1 2.728-.71 5.25 5.25 0 0 1 2.586 1.045c.24.174.49.333.747.477a2.394 2.394 0 0 0 2.57-.14c.317-.198.619-.423.936-.621 1.658-1.122 3.802-1.018 5.356.26.36.276.754.5 1.17.664-.596.305-1.207.577-1.83.815a14.832 14.832 0 0 0-.599-.394 2.884 2.884 0 0 0-3.219-.013c-.41.245-.793.54-1.206.781a3.864 3.864 0 0 1-4.337-.182c-.272-.176-.534-.368-.803-.54a2.904 2.904 0 0 0-3.314-.052c-.334.205-.65.442-.98.65a3.937 3.937 0 0 1-4.652-.118c-.216-.147-.428-.302-.647-.445a3.01 3.01 0 0 0-3.687.11 12.2 12.2 0 0 1-.534.361c-.01-.005-.02-.005-.031-.01a23.196 23.196 0 0 1-2.013-.85c.512-.1.998-.314 1.426-.628a8.96 8.96 0 0 1 1.415-.828h.001zM26.201 69.493c-.246.045-.493.09-.74.132a2.12 2.12 0 0 0-.312-.69 1.142 1.142 0 0 0-.472-.394 2.565 2.565 0 0 0-.654-.183l-.82-.133-.227 1.25c.09.017.18.031.27.046.139.03.281.04.422.024a.29.29 0 0 0 .176-.103.896.896 0 0 0 .108-.345c.01-.063.022-.126.034-.19l.687.107c-.12.71-.242 1.42-.363 2.129l-.698-.108.038-.217a.701.701 0 0 0 0-.333.292.292 0 0 0-.132-.162 1.637 1.637 0 0 0-.426-.105l-.246-.04-.21 1.154a.736.736 0 0 0-.021.227.132.132 0 0 0 .066.073.906.906 0 0 0 .243.063c.153.024.307.048.462.074.296.054.6.054.896 0 .26-.059.503-.177.706-.344a2.11 2.11 0 0 0 .543-.655l.679.332c-.337.588-.678 1.177-1.022 1.765-1.597-.236-3.19-.494-4.78-.775.043-.23.089-.462.136-.694l.137.024c.123.029.25.039.377.029a.238.238 0 0 0 .158-.102c.038-.098.064-.2.078-.302l.523-2.73a.804.804 0 0 0 .022-.296.211.211 0 0 0-.082-.118.713.713 0 0 0-.264-.083l-.238-.042c.045-.23.091-.462.135-.694 1.483.263 2.969.505 4.457.725.117.564.233 1.125.354 1.684zm-6.979-1.77a1.835 1.835 0 0 0-.909-.41l-.8-.166c-.089.397-.175.794-.26 1.19.402.085.804.168 1.207.248.524.075 1.003.33 1.353.72.284.33.397.77.309 1.192-.08.405-.332.758-.693.97a2.258 2.258 0 0 1-1.66.151 149.122 149.122 0 0 1-3.164-.672c.053-.232.108-.464.162-.695l.26.058a.43.43 0 0 0 .344-.012.69.69 0 0 0 .144-.346c.21-.92.421-1.841.633-2.761a.552.552 0 0 0 0-.362.565.565 0 0 0-.357-.167l-.178-.038.163-.695c1.447.324 2.898.625 4.352.906.091.57.184 1.14.28 1.71l-.734.105a1.764 1.764 0 0 0-.452-.926zm-2.296 2.67c.353.045.705.09 1.059.13.29.053.603.037.873-.044.36-.138.49-.412.304-.64a.803.803 0 0 0-.342-.21 3.544 3.544 0 0 0-.638-.122l-.889-.11-.367.996zM27.339 80.77a.588.588 0 0 0 .645-.317 242.24 242.24 0 0 0 1.499-2.792.589.589 0 0 0 .07-.182c.03-.211-.13-.337-.475-.379l-.27-.033.104-.73c1.803.22 3.61.414 5.42.583l-.08.733-.245-.023a.66.66 0 0 0-.414.042.601.601 0 0 0-.128.386l-.323 2.868a.58.58 0 0 0 .045.418.859.859 0 0 0 .467.123l.18.016c.165.542.331 1.081.5 1.623l-.851.171a2.05 2.05 0 0 0-.524-.823 2.083 2.083 0 0 0-1.232-.436c-.903-.094-1.807-.194-2.71-.3a2.14 2.14 0 0 0-1.303.153 2.197 2.197 0 0 0-.725.687l-.78-.351c.303-.488.603-.977.9-1.467l.23.03zm1.513-.02c.549.075 1.099.146 1.65.214l.35-3.338a153.31 153.31 0 0 1-1.043-.132c-.407.968-.819 1.934-1.236 2.897a.469.469 0 0 0-.041.133c-.013.12.09.197.321.227h-.001zm7.044-2.404a.998.998 0 0 0-.402-.095l.068-.757c.92.09 1.84.172 2.763.244l-.056.759c-.11-.009-.22-.018-.332-.025-.139-.013-.212.032-.22.131a.633.633 0 0 0 .097.317c.264.478.53.954.8 1.43.26-.451.517-.903.773-1.354a.927.927 0 0 0 .13-.283c.005-.081-.08-.128-.256-.14a17.913 17.913 0 0 1-.28-.022l.052-.759c.755.058 1.51.11 2.263.153l-.04.76-.104-.007-.1-.01a.58.58 0 0 0-.556.341 209.487 209.487 0 0 1-2.02 3.349c-.327.613-.971.963-1.638.89a1.324 1.324 0 0 1-.745-.284.684.684 0 0 1-.267-.613.589.589 0 0 1 .218-.424.559.559 0 0 1 .406-.136.734.734 0 0 1 .531.328.3.3 0 0 0 .203.14.332.332 0 0 0 .249-.072 1.5 1.5 0 0 0 .267-.376c.044-.076.086-.154.13-.229a185.21 185.21 0 0 1-1.68-2.91 1.017 1.017 0 0 0-.253-.346h-.001zm5.727 4a.454.454 0 0 0 .365-.075.749.749 0 0 0 .088-.397l.146-3.088a.612.612 0 0 0-.068-.39.607.607 0 0 0-.413-.114l-.196-.012c.012-.257.026-.517.04-.776 1.607.088 3.215.151 4.825.19.206.598.415 1.195.626 1.79l-.764.247a1.967 1.967 0 0 0-.66-.918 2.039 2.039 0 0 0-1.05-.279c-.295-.01-.59-.02-.886-.034-.018.442-.036.885-.052 1.33.445.018.89.034 1.335.048a2.446 2.446 0 0 1 1.583.533c.362.295.568.748.556 1.224-.01.456-.213.884-.555 1.172a2.409 2.409 0 0 1-1.742.461 165.15 165.15 0 0 1-3.505-.154l.041-.776c.096.01.192.013.288.018h-.002zm3.136-.232c.316.025.635-.027.894-.146.33-.186.38-.503.115-.727a1.034 1.034 0 0 0-.42-.191 3.957 3.957 0 0 0-.703-.064c-.318-.007-.638-.013-.956-.022-.023.374-.047.748-.072 1.121.382.012.763.022 1.143.03h-.001zm.286 5.126c.728-.83 1.425-.049 2.119.225.093-.28.256-.53.472-.718.328.026.644.139.922.327.305.145.596.335.893.506.472-.93.503-1.075 3.049-.091-.91.932-2.168 1.184-5.03 1.16.432.122.857.284 1.297.362 1.994.37 4.043-.146 5.676-1.427.243-.182.54-.557.767-.086a.903.903 0 0 1-.258.795c-.696.468-1.174 1.23-1.316 2.096-.148.735-.659 1.324-1.332 1.536-.72.25-1.057.082-1.301-.505a9.477 9.477 0 0 1-1.984 1.006c-1.215.299-1.511-.018-1.584-1.327-2.498-.282-2.888-.632-2.08-1.898-.347-.612-.919-1.264-.308-1.961h-.002zm10.761-4.815c.124.011.248.011.371 0 .008.26.018.522.025.782-.709.03-1.417.051-2.125.07l-.015-.781c.1.002.2-.013.297-.045a.386.386 0 0 0 .152-.114 1.07 1.07 0 0 0 .129-.275c.526-1.5 1.038-3.004 1.537-4.512.398-.017.796-.034 1.194-.056.59 1.43 1.192 2.853 1.808 4.272.056.159.145.3.258.414a.63.63 0 0 0 .386.052l.041.781c-.866.058-1.732.107-2.598.149l-.029-.781.156-.012a.575.575 0 0 0 .3-.07.17.17 0 0 0 .08-.148 1.247 1.247 0 0 0-.086-.296l-.186-.506c-.55.027-1.102.053-1.65.074l-.186.579a.93.93 0 0 0-.056.24.177.177 0 0 0 .047.116.262.262 0 0 0 .151.067zm1.736-2.653c-.209-.374-.42-.748-.624-1.121l-.535 1.156c.387-.01.773-.024 1.16-.035h-.001zm2.61-8.741a2.69 2.69 0 0 1 .931-1.08 3.036 3.036 0 0 1 2.785-.254l.109-.248c.186-.018.374-.034.56-.051.242.64.485 1.28.73 1.92-.24.094-.481.189-.724.28a3.761 3.761 0 0 0-.787-.935 1.458 1.458 0 0 0-1.015-.322c-.256.02-.5.113-.705.27-.223.17-.392.402-.488.667-.116.314-.16.65-.129.985.024.525.224 1.027.566 1.424.307.372.778.566 1.256.515.323-.028.632-.146.892-.341.352-.257.646-.585.864-.963l.67.391a4.52 4.52 0 0 1-1.016 1.236 3.184 3.184 0 0 1-1.715.643 2.828 2.828 0 0 1-1.482-.262 2.715 2.715 0 0 1-1.107-.973 2.976 2.976 0 0 1-.194-2.902h-.002zm5.231 6.55c.263.068.501.213.688.417.165.181.267.415.29.664.018.18-.006.361-.071.529a1.326 1.326 0 0 1-.307.466 1.844 1.844 0 0 1-.574.366c.217.027.43.08.635.159.21.086.395.23.534.415.138.187.222.41.244.645.027.294-.045.589-.202.834a1.71 1.71 0 0 1-.734.638 4.256 4.256 0 0 1-1.473.329c-1.015.088-2.03.166-3.046.234l-.047-.762.228-.016c.104 0 .208-.02.306-.058a.226.226 0 0 0 .107-.115.871.871 0 0 0 .013-.313c-.069-1.023-.136-2.047-.203-3.071a.932.932 0 0 0-.053-.31.223.223 0 0 0-.12-.098.786.786 0 0 0-.304-.019l-.223.015-.046-.762c1.066-.072 2.13-.154 3.195-.248.389-.05.783-.029 1.165.06h-.002zm-1.939 3.12c.006.07.022.14.049.207a.15.15 0 0 0 .086.048c.1.01.203.01.303 0l.487-.024c.237-.01.472-.037.699-.084a.972.972 0 0 0 .447-.215c.117-.103.169-.23.147-.357a.408.408 0 0 0-.18-.282 1.01 1.01 0 0 0-.435-.158 4.37 4.37 0 0 0-.846-.015c-.285.014-.569.029-.855.042.031.281.063.56.1.838h-.002zm-.098-1.985c.042.363.081.727.124 1.091.259-.014.518-.027.776-.042.305-.008.608-.047.896-.116a.892.892 0 0 0 .413-.222.363.363 0 0 0 .108-.309.423.423 0 0 0-.178-.293.919.919 0 0 0-.423-.155 5.745 5.745 0 0 0-.942 0l-.774.046zm3.018-5.415a.998.998 0 0 0 .32-.066.228.228 0 0 0 .106-.124.837.837 0 0 0-.003-.303c-.106-.931-.215-1.862-.32-2.792a.817.817 0 0 0-.073-.3.233.233 0 0 0-.127-.105.773.773 0 0 0-.292-.01 6.312 6.312 0 0 1-.229.022c-.026-.235-.051-.47-.08-.706a184.86 184.86 0 0 0 2.694-.283l.091.707-.177.019a1.095 1.095 0 0 0-.315.063.27.27 0 0 0-.123.128.598.598 0 0 0-.007.279c.055.453.112.906.169 1.359a172.17 172.17 0 0 0 1.547-1.674c.045-.047.085-.097.121-.15a.13.13 0 0 0 .015-.063.087.087 0 0 0-.057-.072.655.655 0 0 0-.235 0l-.222.027-.096-.705c.831-.098 1.662-.202 2.492-.311l.106.705-.082.01a1.161 1.161 0 0 0-.24.048.618.618 0 0 0-.156.093c-.08.065-.155.136-.224.212-.395.412-.793.822-1.194 1.23a160.71 160.71 0 0 0 1.901 1.783c.101.107.221.196.355.263a.85.85 0 0 0 .382.016l.11-.015.109.7c-.958.128-1.917.25-2.877.364l-.094-.706.114-.014c.128-.008.254-.031.375-.071a.08.08 0 0 0 .059-.074.607.607 0 0 0-.154-.19c-.39-.387-.78-.775-1.166-1.164-.253.255-.509.51-.766.764l.063.514c.005.089.03.175.074.254.03.044.076.076.129.09a.923.923 0 0 0 .306 0l.233-.026.091.707c-.928.104-1.858.201-2.789.29l-.078-.707c.076 0 .145-.009.216-.016h-.002zm.897 7.891a.942.942 0 0 0 .108-.274c.419-1.47.823-2.946 1.211-4.425.395-.05.788-.102 1.182-.156.687 1.308 1.387 2.61 2.099 3.906.067.146.165.273.286.371.125.044.259.05.387.017l.096.735c-.856.134-1.713.257-2.57.369-.029-.246-.056-.495-.083-.741l.153-.026a.581.581 0 0 0 .293-.096.159.159 0 0 0 .068-.148 1.077 1.077 0 0 0-.106-.274l-.218-.468c-.545.075-1.09.146-1.636.214l-.144.567a.906.906 0 0 0-.039.235c.006.041.025.08.055.105a.27.27 0 0 0 .155.055c.123 0 .245-.01.366-.03.027.248.055.496.08.742-.7.089-1.404.172-2.107.25-.022-.247-.048-.494-.07-.742a.906.906 0 0 0 .29-.067.385.385 0 0 0 .144-.119zm3.048-1.488c-.25-.351-.497-.702-.745-1.053-.134.385-.277.77-.416 1.156.385-.033.77-.067 1.157-.103h.004zm3.486-6.409a.938.938 0 0 0 .286-.078.356.356 0 0 0 .138-.124.938.938 0 0 0 .096-.272c.35-1.46.683-2.92 1-4.383.392-.064.783-.13 1.175-.197a206.036 206.036 0 0 0 2.282 3.748c.073.14.177.26.304.353.126.04.261.04.387 0 .045.24.088.48.13.721-.85.16-1.7.312-2.552.456l-.121-.721.155-.03a.576.576 0 0 0 .285-.106.159.159 0 0 0 .065-.147 1.124 1.124 0 0 0-.12-.262c-.081-.149-.16-.299-.239-.448-.541.094-1.084.184-1.626.27-.038.187-.079.375-.119.562a1.012 1.012 0 0 0-.027.232.17.17 0 0 0 .06.1.28.28 0 0 0 .157.048c.123-.005.246-.019.367-.043l.112.722c-.696.113-1.394.222-2.094.328-.037-.246-.071-.488-.106-.729h.005zm2.316-2.875c-.275-.34-.551-.68-.822-1.022-.11.386-.223.771-.338 1.156.383-.043.768-.088 1.155-.135l.005.001zm3.895-3.106c.17-.183.37-.323.588-.412a4.1 4.1 0 0 1 .634-.213 137.19 137.19 0 0 0 3.05-.761l.16.799c-.062.015-.124.033-.185.047l-.103.023a.46.46 0 0 0-.184.095.181.181 0 0 0-.07.125c-.003.091.005.182.025.27l.616 3.153c.014.103.04.203.076.298a.24.24 0 0 0 .138.098.564.564 0 0 0 .262-.024l.229-.061c.049.26.102.517.153.776-.833.218-1.668.428-2.505.63l-.142-.776.233-.058a.6.6 0 0 0 .252-.101.256.256 0 0 0 .071-.138 1.44 1.44 0 0 0-.04-.377l-.21-1.12c-.138.036-.278.071-.419.104a181.23 181.23 0 0 1-1.2 2.81c-.547.126-1.096.247-1.646.366-.041-.26-.086-.52-.127-.782.073-.016.147-.03.22-.048a.587.587 0 0 0 .382-.212 1.15 1.15 0 0 0 .152-.246c.011-.023.024-.045.034-.071.274-.528.544-1.057.812-1.586a1.865 1.865 0 0 1-1.06-.299c-.312-.194-.528-.545-.584-.95a1.633 1.633 0 0 1 .04-.745c.07-.234.188-.445.344-.614h.004zm.764.536a.45.45 0 0 0 .216.261c.123.07.274.113.434.125.264.014.529-.002.785-.044l.87-.123c-.107-.328-.213-.656-.318-.985l-.957.136a3.277 3.277 0 0 0-.695.15.608.608 0 0 0-.287.206.308.308 0 0 0-.053.272l.005.002zm-24.637 6.465l.166-.008a.844.844 0 0 0 .317-.054.217.217 0 0 0 .109-.121c.025-.117.031-.238.018-.357l-.046-1.176c-.621.03-1.242.055-1.863.077.008.391.02.783.03 1.176-.003.116.008.232.032.345.02.06.063.106.117.128.104.024.21.03.315.02l.174-.006.023.77c-.847.032-1.694.056-2.54.072l-.011-.77h.172a.802.802 0 0 0 .301-.046.228.228 0 0 0 .115-.113.95.95 0 0 0 .026-.318l-.056-3.022a1.446 1.446 0 0 0-.038-.369.228.228 0 0 0-.1-.123.546.546 0 0 0-.255-.035c-.075 0-.152 0-.225.004l-.013-.769c.818-.015 1.636-.038 2.454-.069.007.257.015.513.024.77l-.227.009a.541.541 0 0 0-.254.05.224.224 0 0 0-.094.123 1.18 1.18 0 0 0-.02.339l.025.968a138.82 138.82 0 0 0 1.856-.076c-.012-.344-.026-.693-.04-1.04a.9.9 0 0 0-.032-.257.206.206 0 0 0-.101-.127.82.82 0 0 0-.308-.023l-.19.01-.028-.77c.82-.036 1.64-.08 2.46-.13l.038.77-.208.012a.67.67 0 0 0-.275.053.214.214 0 0 0-.091.117 1.364 1.364 0 0 0-.012.35l.14 3.014c-.002.121.016.243.053.357.024.051.063.09.112.11.11.023.222.028.333.014.05 0 .1-.005.149-.01l.039.769c-.848.052-1.697.098-2.546.137a44.608 44.608 0 0 1-.03-.778l.005.003zm-2.247 4.21c.112.216.172.453.175.694.014.487-.21.951-.602 1.25a2.67 2.67 0 0 1-1.73.52h-1.094v1.079a.621.621 0 0 0 .032.256.248.248 0 0 0 .127.115.79.79 0 0 0 .292.038h.329c0 .266 0 .532.003.798a174.6 174.6 0 0 1-3.159-.013l.01-.798h.22c.127.01.256-.002.38-.033a.246.246 0 0 0 .136-.117.84.84 0 0 0 .044-.332l.028-3.17a1.05 1.05 0 0 0-.033-.35.237.237 0 0 0-.115-.123.758.758 0 0 0-.3-.044c-.102 0-.204 0-.306-.003 0-.265.008-.532.011-.798 1.104.014 2.208.018 3.312.012.352-.01.704.026 1.046.109.26.067.505.185.719.347.196.15.357.342.47.56l.005.004zm-2.369.247a.797.797 0 0 0-.48-.12h-.457v1.154h.354c.161.008.322-.015.476-.068a.56.56 0 0 0 .242-.201.57.57 0 0 0 .088-.324.522.522 0 0 0-.227-.443l.004.002zm-2.353-4.385h.168a.54.54 0 0 0 .392-.091.765.765 0 0 0 .077-.431 592.8 592.8 0 0 0 .005-1.924c-.63.64-1.266 1.274-1.91 1.904-.006.123.001.247.021.369a.18.18 0 0 0 .1.119.91.91 0 0 0 .331.044h.177l-.008.79c-.86-.01-1.72-.03-2.579-.057l.019-.79.175.006a.507.507 0 0 0 .386-.083.681.681 0 0 0 .082-.383l.065-3.105a.896.896 0 0 0-.062-.46.401.401 0 0 0-.313-.1c-.076 0-.153-.005-.229-.007l.02-.79c.83.026 1.66.044 2.492.055 0 .263-.005.527-.007.79h-.231a.432.432 0 0 0-.318.077.761.761 0 0 0-.078.43c-.01.631-.018 1.263-.026 1.895.64-.638 1.272-1.282 1.897-1.93a.571.571 0 0 0-.082-.402.67.67 0 0 0-.345-.06h-.193c0-.264.004-.526.004-.79.833.005 1.663.003 2.491-.006 0 .263.006.528.008.792h-.208a.45.45 0 0 0-.337.089.783.783 0 0 0-.068.425c.006 1.032.012 2.064.016 3.097a.761.761 0 0 0 .08.44.607.607 0 0 0 .406.08h.15c0 .265.006.528.009.792-.862.009-1.722.011-2.58.006a42.131 42.131 0 0 1-.001-.794l.004.003zm-5.547-.807c-.012.512-.265.977-.661 1.213-.989.57-2.163.508-3.104-.16a3.7 3.7 0 0 1-.877-1.275c.196-.138.39-.277.584-.415.34.75.995 1.245 1.73 1.305a.97.97 0 0 0 .77-.214.873.873 0 0 0 .258-.607.792.792 0 0 0-.196-.6 1.241 1.241 0 0 0-.823-.257 98.995 98.995 0 0 1-.648-.04l.04-.819.546.034c.284.049.574 0 .834-.139a.643.643 0 0 0 .24-.508.665.665 0 0 0-.233-.584 1.049 1.049 0 0 0-.61-.219c-.323-.03-.643.09-.889.333a3.376 3.376 0 0 0-.649.998 66.65 66.65 0 0 1-.65-.265l.602-1.963.495.034.104.248c.391-.2.819-.29 1.246-.26a2.26 2.26 0 0 1 1.3.445c.324.228.512.64.491 1.075-.024.633-.433 1.157-.977 1.252.622.058 1.094.667 1.073 1.384l.004.004zm-8.172.496a.87.87 0 0 0 .25.046c.159.014.316.027.472.042a2.4 2.4 0 0 0 .908-.07c.26-.08.495-.223.687-.414a2.22 2.22 0 0 0 .498-.731l.715.296c-.294.645-.591 1.29-.89 1.936a167.48 167.48 0 0 1-4.912-.442l.08-.74.142.016c.128.02.257.02.384 0a.25.25 0 0 0 .152-.121c.03-.106.048-.215.054-.324l.305-2.91a.89.89 0 0 0 0-.312.216.216 0 0 0-.093-.12.682.682 0 0 0-.277-.066c-.08-.01-.163-.018-.244-.026l.082-.738c1.524.16 3.05.299 4.578.414.165.58.332 1.16.5 1.74l-.74.2a2.29 2.29 0 0 0-.374-.702 1.211 1.211 0 0 0-.511-.38 2.561 2.561 0 0 0-.68-.14l-.842-.076c-.042.443-.084.887-.128 1.33l.28.027c.142.02.287.018.429-.007.07-.02.13-.064.169-.125a.946.946 0 0 0 .082-.369l.018-.202c.235.019.472.038.706.059-.067.754-.128 1.51-.193 2.265l-.72-.06.02-.232a.765.765 0 0 0-.028-.348.31.31 0 0 0-.144-.16 1.642 1.642 0 0 0-.442-.08l-.253-.021c-.038.41-.078.819-.118 1.229a.778.778 0 0 0 0 .24.14.14 0 0 0 .073.072l.005.004zm-2.986-2.45a2.419 2.419 0 0 1-1.637.288l-.993-.128-.14 1.016a.629.629 0 0 0-.004.244.239.239 0 0 0 .101.124.72.72 0 0 0 .258.067l.298.037-.099.75c-.958-.117-1.916-.243-2.873-.377.04-.249.077-.498.114-.745.066.01.132.02.197.027.116.024.234.028.35.013a.24.24 0 0 0 .141-.093.85.85 0 0 0 .085-.308c.144-.994.288-1.985.434-2.976.022-.11.027-.221.016-.332a.222.222 0 0 0-.088-.131.708.708 0 0 0-.268-.074l-.277-.038.113-.749c1 .14 2.001.27 3.003.391.321.032.636.107.936.222.23.096.437.236.609.412a1.537 1.537 0 0 1 .427 1.254c-.05.452-.31.858-.708 1.102l.005.004zm-1.766-1.999a.747.747 0 0 0-.434-.173 74.287 74.287 0 0 1-.427-.056l-.14 1.092.329.045c.15.027.303.026.452-.005a.53.53 0 0 0 .25-.162.539.539 0 0 0 .123-.295.509.509 0 0 0-.156-.45l.003.004z" fill="url(#c)"/></g></svg>