<svg width="232" height="337" viewBox="0 0 232 337" xmlns="http://www.w3.org/2000/svg"><title>svg/album_list/leaves_white_3</title><g fill="#FFF" fill-rule="evenodd" opacity=".702"><path d="M132.922 91.498c.022-.546.332-.902.801-1.128 1.322-.634 2.614-1.324 3.984-1.868 1.307-.519 2.627-.281 3.78.13 1.857.66 3.84.667 5.677 1.364 1.708.649 3.444 1.229 5.155 1.878.859.325 1.032 1.621 2.195 1.343.244.648.24 1.306-.073 1.913-.213.41-.797.869-.115 1.177.608.275.676-.515.903-.876.149-.238.136-.58.172-.877.042-.354-.021-.777.48-.843.397-.052.691.189.95.461.3.316-.025.469-.128.728-.348.871-.844 1.745.654 2.285.522.189.549 1.493 1.83 1.072-.725-.758-.437-1.713-.757-2.558 1.459-.331 2.004 1.463 3.324 1.185.116-.502-.335-.656-.47-.977-.17-.404-.402-.804.162-1.07.454-.215.87-.074 1.107.339.174.3.221.672.375 1.178.29-.55.28-1.016.066-1.386-.805-1.395-1.394-2.994-3.194-3.523-.455-.134-.775-.45-.552-.954.215-.482.38-1.061 1.055-1.136.092-.01.224.057.29.131.737.842 1.555.77 2.114-.193.756-1.303.756-1.303 1.875.017.512.365 1.049 0 1.571.05-.518-.034-1.056.361-1.556-.07-.29.232-.412.556.036.632 1.422.242 2.797-.06 4.145-.505.411-.135.145-.476.21-.617.286-.627.19-1.853 1.522-1.305.166.069.27.048.246-.12-.025-.165-.102-.447-.187-.458-.932-.126-1.052-.536-.939-1.465.135-1.109-.712-1.892-1.955-1.909-1.769-.025-2.633-1.41-3.854-2.252-.441-.304-.163-.822.094-1.141.428-.53.531-1.037.133-1.597.421-.26.737-.017 1.081.08.443.128.445.213.44.77-.017 1.818 1.863 2.872 3.576 2.2.398-.155.811-.287 1.186-.488 1.164-.624 1.546-1.295 1.117-2.53-.33-.95-.118-1.623.458-2.336.3-.373.586-.796.736-1.244.524-1.568-.191-3.261-1.719-4.078-.534-.285-1.145-.426-1.702-.67-.844-.37-2.025-.288-2.208-1.57-.643.186-.654-1.067-1.477-.6-.408.23-.733-.175-.77-.533-.056-.553.457-.41.783-.47.17-.032.335-.074.5-.24-.721-.152-1.43-.176-2.161.046-2.126.643-2.66 1.483-1.642 3.427.883 1.687.452 2.88-.756 4.053-.707.688-1.019 1.795-2.127 2.082-.078-.121-.152-.199-.138-.22.998-1.506.567-3.273.914-4.898.061-.286.083-.823-.028-.865-1.586-.616-.573-2.438-1.62-3.334-.399-.34-.038-.88.356-1.247.186-.174.154-.451-.055-.643-.267-.244-.37.08-.556.143-1.196.406-2.341.041-2.807-.934-.177-.37-.273-.676-.737-.566-.165.04-.366.154-.441.292-.278.497.238.568.473.795.079.076.113.198.274.496-1.012-.268-1.785-.003-2.44.636-.436.423-.49.793-.028 1.227a27.048 27.048 0 0 1 1.554 1.55c.902 1.005.624 2.786-.518 3.478-.44.267-.625-.01-.855-.34-.78-1.125-1.71-2.162-1.902-3.825-1.235 1.207-1.3 2.876-2.762 3.772 1.422.825 2.19 2.573 4.204 1.615-.255.902-1.782 3.225-2.965 4.495.436-1.487-.422-1.99-1.29-2.526-1.036-.64-2.035-1.343-3.06-2.003-.356-.229-.72-.48-1.12-.6-.805-.246-1.132.002-1.282.914-.068.416-.009.874-.662.992-.272-1.407.233-2.747.335-4.11.036-.5.438-.857.941-1.02.23-.076.557-.099.576.202.088 1.365 1.041.705 1.627.639.73-.083.945-.671.891-1.358-.027-.361-.001-.729-.034-1.09-.036-.41.011-.913-.597-.954-.497-.033-.783.254-.918.718-.067.229-.13.484-.28.656-.36.416-.867.4-1.362.317-.376-.063-.492-.346-.43-.674.09-.49.255-.977.863-1.022.566-.042 1.04-.195 1.513-.545.696-.514.778-1.04.273-1.679-.33-.418-.63-.902-1.332-1.023-.504.285-.146 1.515-1.316 1.305-.28-.05-.48.77-.475 1.271.007.8-.207 1.537-.682 2.51-.712-1.554-1.827-2.496-2.963-3.434-.501.349-.501.949-.693 1.44-.18.46-.231.942.526 1.052.31.045.476.406.344.727-.12.292-.404.426-.733.472-.48.066-.868-.376-1.415-.132-.997.447-1.686 1.858-1.341 2.911.146.447.538.619.849.466 1.509-.74 2.418.112 3.309 1.104.159.177.354.334.641.286.294-.332-.192-.681.007-1.02.244-.418.546-1.006 1.03-.85.582.187.357.813.147 1.231-.425.845-.555 1.724-.494 2.647.033.504-.13.952-.373 1.385-.667 1.191-1.13 1.19-1.932.04-.426-.61-.129-.867.415-1.065.424-.155 1.003.173 1.29-.37.03-.353-.23-.432-.44-.529-1.159-.535-2.34.109-3.53-.006-.454-.044-1.16.581-1.051 1.529.093.811.38 1.328 1.139 1.366 1.351.066 2.314.67 2.503 1.95.18 1.21-.271 2.346-1.231 3.162-.325-.117-.386-.293-.302-.457.837-1.606.84-1.604-.804-2.645-1.285-.815-1.46-.83-2.038-.092-.46.587-.757 1.15.262 1.532.261.097.478.378.65.619.426.595.227 1.077-.496 1.126-.67.047-1.353.025-2.02-.051-.823-.094-1.273-.335-.952-1.407.366-1.222-.355-2.659-1.373-2.85-.946-.179-1.83-.952-2.847-.621-.998.324-1.575 1.117-1.981 2.037-.92 2.083-1.32 4.222-.831 6.494.129.599.598 1.582-.883 1.319-.433-.077-.91 1.439-.665 2.182.08.244.506.4.107.7-.264.2-.57.215-.866.081-.164-.074-.373-.162-.448-.303-.55-1.036-1.325-.66-2.11-.374-.461.168-.469.148-1.048 1.303-.599-.045-.883-.51-1.123-.964-.632.205-.797.713-.85 1.156-.194 1.628-1.49 2.79-1.811 4.366-.08.397-.533.44-.925.26-.534-.249-1.096-.35-1.523.137a19.908 19.908 0 0 0-1.536 2.028c-.076.11.108.464.256.632.248.28.615.216.792-.046.488-.727 1.257-1.03 1.948-1.481.545-.354 1.004-.416 1.635-.467 1.205-.097 2.035-1.015 2.753-1.936.575-.737 1.96-1.598 2.866-1.589 1.807.019 2.99-1.293 4.466-1.975.503-.233.724-.76 1.479-.852.773-.092.565-1.353 1.04-1.98.78 1.259 1 1.43 2.195.69 1.632-1.01 3.294-2.023 4.598-3.468.406-.449.73-.97 1.31-1.284.427.444.107.781-.172 1.061-.775.78-1.517 1.548-1.967 2.595-.318.74-1.095 1.148-1.843 1.431-1.886.716-3.62 1.797-5.596 2.288a2.696 2.696 0 0 0-1.135.575c-2.836 2.473-6.251 4.029-9.477 5.887-.498.287-1.156.383-1.411 1 .178.19.387.197.535.107 1.707-1.044 3.698-1.509 5.323-2.773 1.439-1.12 3.22-1.725 4.934-2.386 1.89-.73 3.626-1.76 5.321-2.834.658-.416 1.265-.696 2.03-.654l-.014.02zM93.07 8.817c-.047.515.244.912.509 1.298.818 1.19 1.227 1.267 2.49.523.308-.183.655-.327.91-.566.78-.731 1.62-.735 2.458-.2 1.03.658 2.264 1.012 3.197 1.93-.215.11-.354.232-.412.202-1.423-.733-2.836.073-4.253.018-.354-.013-.96-.093-1.006.166-.286 1.604-2.194.894-2.83 2.036-.326.586-.967-.318-1.603.062.406.502.235 1.14.358 1.694.164.737.027 1.062-.634 1.382-1.096.53-.174.806.166 1.257.433-.527.456-1.227 1.316-1.485-.67 1.03-.585 1.849.434 2.458.497.297.887.307 1.23-.184.239-.34.467-.688.707-1.029 1.25-1.78 2.09-1.86 4.056-.243-1.222.825-1.876 2.234-3.626 2.633 1.166 1.217 2.81.736 3.656 1.767.565-.326.511-.809.742-1.14.48-.685.938-1.342.303-2.238-.289-.408.115-.681.531-.497 1.18.517 2.33 1.096 3.55 1.68-1.283.885-1.265.892-2.005 2.622-.396.926-.865 1.822-1.305 2.73-.211.437-.372.886-.165 1.362.289.666.807.234 1.239.237.345.003.738-.039.911.65-1.314.032-2.588.118-3.859.076-1.053-.034-1.073-.212-.627-1.381.217-.572.14-1.172-.285-1.67-.358-.418-.793-.47-1.297-.27-.276.11-.587.135-.858.254-.375.163-.832.317-.697.871.11.451.383.728.907.632.114-.02.25-.058.346-.017.533.23.52.747.602 1.203.038.217-.139.33-.313.35-.473.056-.981.158-1.2-.453-.04-.11-.043-.24-.103-.338-1.1-1.785-1.879-1.735-2.982.209.246.5 1.16.2 1.216 1.065.03.472.7.228 1.086.28.797.109 1.68-.285 2.498.462-1.092.795-1.81 1.851-2.376 3.062.326.325.91.358 1.507.341.282-.008.643.071.704-.337.06-.403.23-.725.662-.636.464.096.575.49.615.95.113 1.313 1.388 2.141 2.582 1.71.518-.188.903-.626.552-1.088-.87-1.15-.218-1.977.427-2.854.135-.185.23-.398.417-.728-.758-.126-1.67.377-1.99-.62 1.089-.37 4.417-.461 5.2-.116.302.133.81.245.596.699-.213.454-.456 1.06-1.029 1.112-.511.047-.572-.493-.657-.901-.063-.305-.216-.589-.575-.533-.247.039-.438.338-.389.539.281 1.12-.016 2.34 1.022 3.351.512.5.823.488 1.311.368.493-.123.873-.391.837-.986a4.493 4.493 0 0 1 .009-.71c.13-1.408.885-2.099 2.339-2.103.766-.003 1.562-.042 2.148.619-.09.098-.152.225-.223.23-.585.046-1.17-.677-1.685-.21-.664.601-.81 1.556-1.103 2.371-.168.47.366.808.87.946.408.112.802.3.952-.355.06-.264.279-.521.487-.72.6-.57 1.17-.434 1.219.354.052.869.621 1.701.158 2.728-1.04-.463-1.939-.08-2.67.67-.467.48-1.455.89-.56 1.821.042.043-.08.217-.086.33-.025.496-.518.96-.028 1.495.621.676 1.31 1.265 2.223 1.424 2.062.36 4.12.488 6.085-.485.481-.24.967-.244 1.179.344.345.954 1.088.907 1.813.68.356-.112.617-.654 1.003-.082.267.396.173.767-.109 1.141-.225.3-.856.604-.434.988.444.404.191 1.284.995 1.346 1.081.081.801.575.393 1.14-.107.147-.134.32.097.621 1.486-.487 2.695.882 4.255.842.673-.018 1.174.35 1.191 1.233.017.907 1.588 2.149 2.478 2.137.264-.003.44-.166.557-.38.134-.244.026-.442-.13-.643-.334-.434-1.056-.35-1.279-.88-.313-.744-1.205-1.053-1.196-2.146.008-.735-1.054-1.383-1.838-1.82-1.226-.683-2.083-1.459-2.384-2.989-.285-1.456-1.841-2.264-2.675-3.467-.735-1.061-1.683-1.477-3.1-1.419.412-.456.94-.28 1.128-.646.225-.435-.027-.798-.221-1.162-.314-.59-.81-1.017-1.305-1.452-1.276-1.122-2.442-2.37-4.004-3.227.212-.14.338-.268.381-.245 2.058 1.075 4.369 1.73 5.582 4.043 1.384 2.637 3.37 4.836 5.532 6.915 1.535 1.477 2.793 3.236 4.156 4.884.337.408.577.9 1.586 1.225-1.32-1.635-2.057-3.2-3.295-4.442-1.306-1.309-2.49-2.714-3.353-4.355-.133-.254-.172-.554-.255-.834l-.05-.242c-1.218-1.754-2.808-3.217-4.008-4.986l-.235-.088c-.176-.03-.413.003-.518-.098-2.049-1.963-4.188-4.742-3.262-7.721.164-.525.155-1.048.13-1.577-.128-2.494.357-4.924.872-7.339.126-.588.025-1.505 1.103-1.667.32.56-.306.972-.25 1.467.104.162.276.208.446.161.4-.109.786-.334 1.214-.196.503.16.964.195 1.209-.366.197-.454.22-.908-.19-1.303-.166-.16-.272-.378-.404-.57-.307-.178-.607-.399-.984-.172.388-.276.677-.024.973.184.294-.184.692-.22.887-.634-.744-.933-1.741-.73-2.73-.487.089-1.369.083-1.328 1.328-1.153.713.1 1.515.127 1.459-.975-.02-.373.24-.504.501-.65.46-.255.447-.638.277-1.13-.687.409-1.4.711-2.177.71-.515-1.136.97-1.856.5-3.046-.436.317-.788.585-1.152.836-.226.154-.467.098-.659-.06-.282-.231-.172-.507-.078-.801.19-.597 1.05-.311 1.227-1.01-.67-.181-1.21.162-1.59.542-.977.973-2.395 1.636-2.494 3.288a.594.594 0 0 1-.78.53c-.327-.096-.758-.15-.869-.538-.114-.402.745-.175.54-.68-.236-.584-.32-1.3-1.08-1.511-.458-.128-.934-.202-1.284-.742.475-.681.988-1.432.361-2.347-.165-.24-.17-.594.275-.64.38-.04.34-.322.272-.511-.339-.954-.73-1.884-1.65-2.46-.81-.506-1.06-.462-1.537.475-.196.384-.437.457-.803.548-1.606.399-1.687.446-1.693 2.14-.006 1.41-.851 2.42-1.477 3.541-.248.444-.736.458-1.107.255-.578-.316-1.02-.088-1.61.278-.004-.833-.502-1.668.908-1.802.451-.043.896-.562 1.266-.938.54-.549.784-1.171.223-1.895-.288-.371-.468-.824-.73-1.218-.888-1.328-1.538-1.553-2.929-.757-.72.411-1.266.155-1.853-.071-2.935-1.13-4.47-.317-5.127 2.754-.074.345-.194.72-.125 1.046.2.956-.665 1.235-1.074 1.803-.418.58.216 1.43-.488 1.943-.191.14-.404.25-.608.374l-.024.02zM29.585 169.052c.316-.154.681-.242.881-.672-.653-.431-1.302-.785-2.143-.52-.365.116-.79.137-.806-.366-.017-.501.186-.951.856-.84.292.048.58.221.862.207.596-.03 1.277-.05 1.278-.896.002-.741 1.515-.88.726-1.88-.714.416-1.53.61-2.384.71-.176-1.145 1.213-1.844.68-2.99-.565-.025-.67.495-1.017.686-.363.198-.707.255-.947-.105-.232-.347-.025-.659.217-.953.24-.29.902-.036.875-.9-1.764.708-3.029 1.82-3.74 3.39-.653 1.44-.7 1.514-2.09.265.026-.28.198-.202.358-.136.151.061.293.19.466.042-.04-1.435-1.186-1.872-2.389-2.347.525-.928.966-1.676.27-2.785-.475-.758.444-.107.736-.222-.032-1.116-.596-2.025-1.314-2.817-.834-.919-1.492-.857-2.175.223-.291.463-.674.39-1.049.513-1.311.43-1.445.607-1.27 2.023.198 1.59-.96 2.6-1.642 3.806-.172.304-.684.22-1.007.049-.541-.288-1.008-.179-1.523.22-.085-.867-.398-1.632.979-1.758.515-.048.966-.832 1.437-1.29.344-.334.362-.695.126-1.122-.344-.625-.646-1.267-1.137-1.806-1.081-1.189-1.264-1.27-2.726-.57-.674.324-1.212.266-1.868-.033-2.66-1.213-4.713-.102-5.177 2.767-.066.407-.057.826-.077 1.24-.023.48-.094.851-.615 1.163-.49.294-.982.864-.705 1.526.245.585-.103.873-.469.928-.528.08-.287-.519-.465-.775-.056-.08-.175-.12-.422-.276.042 1.536.723 2.604 1.797 3.484.304.25.642.3 1 .086.206-.123.412-.251.634-.341.86-.349 1.401-1.375 2.538-1.142.772.158 3.06 1.51 3.759 2.243-.076.193-.282.28-.417.208-1.517-.802-3.015.467-4.526.033-.1-.03-.328.038-.333.079-.187 1.654-2.17.915-2.809 2.048-.345.612-.969.07-1.471-.006-.154-.024-.398.04-.484.15-.27.349.148.298.287.43.481.451.173 1.1.4 1.658.26.639-.443.83-.949 1.031-.275.11-.302.373-.15.583.175.244.43.464.74.183.214-.194.26-.539.74-.713-.353 1.34.474 1.95 1.51 2.559.606-.811 1.143-1.589 1.74-2.32.719-.878 2.446-.872 3.19-.025.242.276.192.545-.062.772-.755.672-1.328 1.545-2.273 2.008-.252.124-.65.11-.6.52.04.333.338.48.635.539.526.102 1.08.046 1.572.347.402.246.837.44 1.341.702.713-1.255 1.479-2.42.517-4.227l4.6 2.012c-2.518 1.255-2.436 3.843-3.578 5.742-.492.819-.028 1.21 1.11 1.191.407-.005.86-.091 1.044.732-1.365 0-2.664.044-3.957-.014-1.005-.044-1.078-.248-.656-1.248.342-.807.125-1.691-.502-2.053-.46-.266-2.208.153-2.485.637-.246.43-.09.838.34 1.04.246.116.602-.014.866.081.378.137.48.5.477.878-.001.327-.121.58-.485.63-.368.051-.723.051-.905-.368-.117-.269-.217-.557-.392-.788-.928-1.223-1.83-1.182-2.656.107-.33.516-.236.75.404 1.023 1.495.64 1.466.707 3.176.786.366.017.72.037 1.071.373-.195.745-.982.988-1.484 1.359-.636.469.36 1.697-1.129 1.585 1.117.508 2.078 1.185 2.755-.27.048-.103.338-.186.472-.143.375.12.51.422.548.813.154 1.547 1.24 2.31 2.616 1.85.352-.117.83-.44.618-.728-1.117-1.527-.114-2.655.828-3.973-.913-.036-1.836.332-2.287-.912 1.663 0 3.25-.031 4.835.018.52.016 1.19.153 1.281.755.071.473-.49.776-.834 1.09-.365.332-.65.168-.792-.263-.09-.277-.132-.577-.265-.832-.062-.12-.281-.209-.439-.227-.21-.024-.329.174-.333.343-.034 1.349.194 2.663.933 3.805.41.631 1.97.206 2.206-.548.05-.165.027-.352.045-.529.26-2.683 2.097-3.449 4.517-1.874-.274.528-.635.144-.873.02-.767-.401-1.254-.22-1.542.564-.082.223-.16.446-.25.665-.65 1.587-.65 1.587 1.169 2.195.366-.435.375-1.114.954-1.428.429-.23.97-.296 1.002.225.062.98.596 1.93.252 3.06-1.3-.559-2.217.064-3.034.91-.384.395-1.026.77-.321 1.448.097.094-.045.433-.083.656-.233 1.314-.138 1.646 1.076 2.196 1.428.646 2.925 1.083 4.537.667 1.024-.262 2.169-.006 3.086-.763.214-.177.563-.01.795.233 1.189 1.241 1.192 1.238 2.624.596.336.343.345.785.175 1.152-.263.567-.61.94-.165 1.713.384.666.867.835 1.418.989.092.57-.45.913-.329 1.403.115.079.212.203.303.2 1.59-.06 2.96.881 4.532.94.498.019.857.389.791.991-.051.47-.109.973.396 1.273.668.397 1.332.813 2.101.995.128.03.344-.107.452-.225.252-.277.071-.548-.093-.795-.349-.52-1.058-.552-1.416-1.227-.295-.556-.82-.898-.932-1.7-.106-.755-1.005-1.267-1.723-1.724-.446-.283-.949-.436-1.33-.877-.521-.6-1.15-1.011-1.193-1.97-.032-.734-.62-1.38-1.116-1.991-.737-.905-1.703-1.581-2.328-2.631-.365-.614-1.497-.491-2.335-.708 1.276-.752 1.44-1.068.577-2-1.119-1.209-2.3-2.382-3.67-3.344-.53-.374-1.16-.623-1.566-1.17.122-.055.268-.17.319-.138 1.812 1.125 4.195 1.358 5.372 3.49.772 1.397 1.892 2.597 2.568 4.065.12.263.3.535.527.71 2.828 2.182 4.897 5.035 7.123 7.749.262.318.567.602.921.976.322-.612-.152-.83-.33-1.13-1.191-1.998-2.94-3.58-4.276-5.46-1.857-2.613-3.8-5.159-5.888-7.588-.927-1.078-1.968-2.055-2.842-3.195-1.045-1.364-1.521-2.858-1.236-4.487.276-1.57.076-3.143.282-4.717.232-1.753.55-3.488.853-5.226.111-.639.352-1.267 1.02-1.596.118-.088.217-.193.305-.31.451-.533 1.038-.45 1.63-.349h.232m38.948-55.139a.95.95 0 0 1-.709.527c-2.944.4-5.785.608-8.323-1.546-1.743-1.48-3.772-2.633-5.473-4.195-1.138-1.045-2.65-1.777-2.9-3.514-.06-.426-1.087-.058-.677-.754.338-.576.461-1.459 1.472-1.372l-.021.014c-.206-1.107-.306-1.181-.941-.68-.386.303-.738.635-.88 1.128-.086.292-.205.643-.605.457-.259-.12-.478-.373-.647-.612-.233-.325-.001-.496.275-.7.888-.655 1.436-1.287.231-2.274-.4-.327.26-1.548-1.137-1.458.35.823.053 1.638-.365 2.586-1.136-.567-1.241-2.09-2.39-2.484-.453.416-.063.607.03.845.166.42.226.831-.197 1.135-.131.095-.37.165-.508.113-.451-.173-.65-.534-.576-1.01.043-.269.236-.533.038-.906-.812 1.747-.423 4.108.876 5.277.302.272.588.475.403.86-.253.524-.763.755-1.325.849-.06.01-.168-.14-.221-.233-.568-1.013-1.174-1.228-1.993-.55-.7.576-1.213.902-1.597-.232a1.152 1.152 0 0 0-.307-.442c-.402-.372-.945-.162-1.407-.3-.737-.218.33-.807-.158-.938-.872-.235-1.756-.62-2.698-.299-.403.138-.819.273-1.18.486-.337.199-.588.713-.31.914.959.693.318 1.426.216 2.166-.104.757-.01 1.46.889 1.755 1.62.53 1.884 2.111 2.642 3.304.233.37-.047.686-.321.941-.261.246-.554.46-.807.714-.18.18.262.895-.468.584-.361-.153-.795-.442-.587-.977.315-.805.01-1.541-.224-2.284-.07-.222-.177-.525-.353-.606-1.229-.556-2.534-.391-3.78-.152-.937.18-1.091 1.033-1.046 1.875.033.613-.268 1.029-.811 1.3-.11.054-.211.123-.322.177-2.574 1.264-2.408 3.758-.66 5.469.391.383.801.747 1.212 1.11.475.422 1.134.67.887 1.575-.089.322.49.732.874 1.013.845.618.84.623-.16 1.343.675.566 1.494.51 2.285.453 1.381-.101 1.981-.585 1.807-1.934-.273-2.093.574-3.282 2.504-3.977.672-.242 1.191-.854 1.952-.867.246.119.254.332.135.448-.916.894-1.597 1.852-1.963 3.142-.22.772-1.16 1.257-.38 2.291.403.537-.476 1.185-.398 1.869.484.4 1.09.062 1.598.265.22.09.505.194.434.493-.067.275-.353.39-.551.187-.893-.919-1.157.231-1.718.441-.494.186-.522.523-.409.84.195.54.423-.15.66-.041.529.24.927.648 1.606.723.516.056.299.808.254 1.269-.022.228-.167.501.158.581.217.054.495.023.703-.068.293-.126.203-.394.093-.616-.29-.587-.64-1.153-.615-1.927.533.11.593.575.75.89.427.86 1.098.856 1.861.584.586-.21.969-.539.614-1.222a11.49 11.49 0 0 1-.457-.986c-.855-2.111-.569-2.716 1.858-3.717.489 1.456.657 2.95.702 4.682 1.286-.632 1.938-1.741 3.027-2.266.302-.146.132-.515-.013-.803-.543-1.065-1.034-2.168-2.88-2.131 1.546-1.035 2.744-1.834 3.957-2.646.456.506-.264.992.135 1.532 1.075 1.46 1.983 3.037 3.07 4.488.598.796 1.026.657 1.65-.278.226-.339.439-.733 1.187-.654-.647.813-.929 1.698-1.309 2.541-.3.665-.704 1.319-1.46 1.536-.295.084-1.125.515-.765-.584.199-.607-.532-.684-.963-.772-.54-.111-1.143-.16-1.47.432-.202.367-.331.777-.454 1.179-.126.41-.22.894.234 1.136.493.262.918.128 1.183-.445.346-.745.894-.387 1.39-.16.326.148.444.416.33.74-.125.36-.373.679-.799.59-.54-.112-1.036-.26-1.614-.08-1.19.368-1.388.685-.932 1.81.254.622.552 1.226 1.232.367.457-.576 1.412.424 1.74-.634.188-.612.666-1.144 1.044-1.692.128-.185.35-.309.711-.617.262 1.425.137 2.897 1.648 3.689.382-.498 1.319-.704.846-1.661-.15-.307-.561-.574-.154-.91.304-.25.694-.15 1.05-.016 1.313.49 1.756.416 2.506-.415.911-1.007.74-1.632-.615-1.883-.863-.16-1.202-.716-1.555-1.373-.22-.408-.154-.982-.696-1.221-.395.125-.204.495-.323.731-.246.488-.81.823-1.165.594-.58-.374-.067-.86.26-1.184a4.652 4.652 0 0 0 1.155-1.813c.341-.969 1.057-1.58 2.074-1.831.34.594.929 1.233.655 1.755-.362.686-1.1-.182-1.678.008-.11.036-.207.11-.386.206.95 1.479 2.474 1.574 3.98 1.592.783.01.702-.824.95-1.296.253-.478-.11-.804-.53-.985-1.222-.531-1.849-1.405-1.566-2.724.244-1.137 1.04-1.822 2.047-2.215.257.12.29.211.214.333-.305.498-1.247.55-1.12 1.3.154.903.947 1.5 1.441 2.231.232.343.92.085 1.32-.267.343-.303.627-.624.176-1.047a1.243 1.243 0 0 1-.388-.79c-.109-.837.289-1.224 1.035-.861.813.394 1.732.629 2.518 1.41-.595.564-1.148 1.152-.999 2.09.148.928-.071 2.001 1.384 2.066.085.004.15.185.246.256 1.395 1.033 1.764 1.048 3.2.127.572-.368 1.075-.822 1.43-1.39.908-1.456 2.003-2.834 1.995-4.686-.002-.416.308-.696.886-.674 1.016.037 1.847-.47 1.692-1.26-.257-1.31.531-.562.859-.527.313.033.439.378.52.681.09.346.277.92.58.763.608-.317 1.127.42 1.752-.09.834-.682.905-.6 1.554.504 1.061-.257.971-1.62 2.106-2 .867-.289 1.449-1.397 2.136-2.119 1.544 1.105 2.615 1.01 3.953-.202.263-.239.317-.471.15-.785-.221-.418-.539-.45-.914-.248-.571.307-1.08.622-1.824.622-.597 0-1.079.098-1.708-.184-.927-.415-1.918.06-2.77.511-1.24.658-2.376.95-3.84.417-1.525-.558-3.142.096-4.672.478-1.962.488-1.948.542-2.892 1.673-.28-.438.28-.914-.124-1.282-.416-.38-.91-.373-1.386-.324-1.707.177-3.34.655-4.95 1.228-.55.196-1.028.657-1.688.529-.038-.538.34-.727.647-.823a6.037 6.037 0 0 0 2.353-1.357c.552-.51 1.307-.676 2.063-.624 4.394.306 8.655-.503 12.917-1.388 1.37-.285 2.798-.313 4.202-.446.6-.056 1.24.024 1.782-.757-2.005.29-3.864.09-5.734.507-1.657.37-3.391.467-5.099.538-2.086.087-4.192-.048-6.214.564-.721.217-1.32-.25-1.989-.116l.022-.02zm-28.76-63.98c-.601-.527-1.398-.546-2.118-.777-.71-.227-1.573-.228-1.971-1.025l.02.022c-1.317.134-2.311-.739-3.488-1.046-2.19-.572-4.407-1.074-6.539-1.806-1.674-.575-3.35-1.12-5.062-1.575-.29-.078-.561-.263-.952-.046.545.539 1.252.69 1.916.906 2.742.891 5.48 1.773 8.044 3.114 1.41.737 3.1.633 4.634 1.073 1.428.41 2.852.634 3.691 2.053.377.636 1.437.703 1.77 1.788-1.422-.806-2.664-1.538-3.936-2.22-.69-.37-1.342-.829-2.205-.848-.66-.014-1.166.103-1.354.951-.551-.733-.817-1.333-1.73-1.593-1.78-.507-3.304-1.758-5.408-1.245-.442.109-1.32-.342-1.85-.879-.55-.556-1.226-.988-2.026-1.193-.306-.078-.6-.162-.851.1-.258.27-.1.519.011.806.54 1.39 1.757 2.369 2.38 3.716.235.507.567.186.8-.149.24-.345.464-.415.869-.08.902.748 1.5.732 2.35-.011.3-.263.578-.454.968-.342.601.173.134.59.175.887.088.642.281 1.16 1.082 1.194.681.029.726.401.677.975-.166 1.972.511 3.726 1.72 5.287.926 1.196 1.56 1.127 3.112.693.854-.24 1.323-.523 1.532-1.261.187-.656.661-1.333-.022-1.998-.203-.198-.193-.474.082-.584.79-.316 1.617-.58 2.477-.544.504.02.518.489.34.814-.22.401-.561.742-.921 1.2.588.325.777 1.42 1.732.751 1.739-1.218 1.741-1.385.575-3.316 1.278.801 1.768 1.64 1.708 2.782-.05.982-.682 1.447-1.604 1.7-.633.173-1.05.477-.885 1.289.172.846.804 1.101 1.417.998.725-.123 1.462-.125 2.175-.279.287-.061.635-.223.608-.573-.034-.453-.394-.255-.685-.267-.966-.045-1.062-.267-.6-1.023.405-.661.816-.619 1.297-.112.124.131.255.262.35.413.126.202.33.432.311.636-.097 1.155.995 2.014.897 3.195-.978.004-.95-.812-1.33-1.338-.193.176-.42.307-.534.5-.468.777-1.05 1.276-2.08 1.148-.79-.098-.907.444-.84 1.04.105.942.89 1.611 1.893 1.524.426-.037.826-.2 1.376.102-.7.828-.87 1.658.123 2.365 1.19-.533 1.755-1.5 1.936-2.8.937.56.983 1.47 1.233 2.209.33.97 1.675.367 1.743 1.64.369-.48.547-.653.65-.858.579-1.16.373-1.646-.843-1.983-.291-.081-.618-.041-.913-.115-.56-.139-.616-.562-.423-.978.18-.39.594-.354.965-.267.11.027.257.104.292.193.26.647.65 1.07 1.362.57.4-.28.24-1.547-.17-2.005-.31-.347-1.495-.45-1.894-.165-1.16.83-1.288.797-1.764-.662-.254-.778-.418-1.583-.627-2.392.473-.143.52.198.625.432.501 1.105.791 1.253 1.665.535 1.124-.922 2.132-1.974 3.202-2.96.395-.363.304-.87.407-1.34.784.2 1.08.852 1.588 1.258.468.373.956.726 1.268.962-.19.83-.512.62-.8.6-1.06-.077-1.454.808-1.935 1.42-.468.595.316.925.67 1.253.522.483.645 1.3 1.582 1.662.022-1.408.77-2.47 1.334-3.607 1.818.765 2.114 1.618 1.121 3.1-.133.2-.338.371-.417.587-.16.441-.997.744-.376 1.35.51.5 1.116.748 1.82.31.152-.094.3-.192.449-.287.317.23.07.412-.03.605-.144.274-.666.554-.136.849.423.234.588-.12.76-.485.415-.886 1.224-1.157 2.57-.943-.745-1.434-.582-2.83.152-4.207.082-.154.25-.412.201-.461-.97-.982 0-2.597-1.244-3.496-.202-.147-.238-.506-.489-1.084 1.52.786 2.556 1.632 3.451 2.649.258.292.267.659.21 1.017-.038.232-.129.457-.183.687-.495 2.126-.03 2.733 2.185 2.848.307.016.615.002.943.002.01-.452-1.513-.849-.077-1.249.466-.13.955-.47.992-.658.202-1.022 1.144-1.157 1.818-1.608.404-.27.882-.464 1.223-.791 1.193-1.152 1.749-2.662.226-4.02-.748-.667-1.398-1.292-.915-2.44.232-.554-.327-.96-.804-1.27-.806-.524-1.783-.406-2.663-.656-.335-.096-.598.136-.758.397-.372.603-.869 1.208-.708 1.95.187.86-.507.756-.908.968-.294-.135-.142-.32-.118-.472.108-.69-1.203-.956-.65-1.673.68-.885 1.244-1.899 2.46-2.324 1.54-.54 1.57-.597 1.412-2.278-.055-.577.497-.62.613-.995l-.078-.039.062.057c.624-.807-.193-1.023-.637-1.303-.674-.424-1.734-.49-3.37-.373.002.344.617.185.524.565-.076.308-.333.27-.578.17-.951-.395-1.135.821-1.856.833-.77.013-.787-1.242-1.794-1.022-.46.101-.873-.04-.878.666-.001.154-.643-.124-.853-.414-.269-.37-.378-.88.072-1.103 1.512-.754 1.678-2.236 2.192-3.533.086-.216.109-.467-.092-.676-.47-.054-.4.304-.453.566-.084.427-.21.912-.787.69-.509-.196-.407-.665-.19-1.066.105-.196.24-.376.478-.738-1.286.106-1.638 1.408-2.695 1.486-.425-.69-.013-1.454-.185-2.295-.904.471-1.033 1.429-1.745 1.93-.34.238-.028.937.409 1.22.64.413.24.682-.096.925-.57.41-.702.018-.838-.444-.166-.567-.4-1.117-1.219-1.364-.125.997.999 1.633.677 2.573l-.905-.144.025-.025c.117.915-.434 1.406-1.184 1.813-2.243 1.219-4.466 2.434-6.904 3.32-1.494.544-2.904 1.217-4.526 1.296.173 1.134 1.19 1.205 2.028 1.415.826.208 1.67.447 2.492.564 1.32.19 2.088.845 2.588 1.844-1.006-1.273-2.955-2.252-3.92-1.884-.777.296-1.022.872-.683 1.794-.557-.98-1.335-1.562-1.974-2.265-.36-.397-1.11-.724-.51-1.455m67.336 97.769c.19-.007.381.005.568-.023 1.24-.18 1.274-.192.935-1.351-.208-.715-.519-1.389.305-1.939.264-.175.52-.351.861-.252.393.114.361.45.384.739.049.636.075 1.273.114 1.962 2.59-1.277 2.685-1.703.729-3.217.572-.502 1.24-.75 1.907-.973 1.261 1.382 1.487 3.372 3.21 4.327-.09.495-.436.774-.753 1.057-.362.321-.648.53-.889-.185-.211-.625-.871-.702-1.41-.376-.427.258-.741.771-.54 1.253.286.68.672.125 1.031-.029.404-.173.81-.054.855.369.034.328-.356.43-.692.434-.378.007-.76-.01-1.13.048-.488.077-.528.458-.488.835.052.49.377.386.784.439 1.226.16 1.497-.908 2.274-1.465.472.373.226.888.325 1.301.103.427.25.923.777.863.621-.07.785-.517.512-1.08-.04-.084.036-.217.085-.459.76.136 1.537.902 2.342.081.505-.516.582-.98-.085-1.232-.609-.23-.904-.594-1.134-1.106-.071-.163-.166-.35-.309-.446-.626-.418-.632-.406-.16-1.007.3-.38.451-.877.954-1.091.266-.113.556-.387.802-.006.128.197.269.464.227.666-.098.462-.458.223-.743.167-.177-.034-.386-.098-.494.27.394.832 1.342.819 2.151 1.012.323.076.598-.103.774-.397.217-.363.205-.692-.136-.966-.603-.482-1.077-1.022-.993-1.84.289-.338.083-.774.252-1.136 1.108-1.85 1.02-2.043-1.144-2.52-.247-.054-.384-.16-.137-.112.1.02.209-.084.3-.185.084-.15.068-.283-.043-.405l-3.633-.566c.748-.398 1.6-.167 2.34-.841-.9-1.495-1.806-3.057-1.86-4.88.532.355.95.091 1.303-.45.176-.267.367-.52.16-.82-.473-.682-1.014.095-1.513-.036-.263-.408.621-.438.299-.86-.727-.231-.947.754-1.873.609.888-.888.99-1.805.262-2.837-.639.06-.309 1.053-.98 1.045-.609-.132-.503-.785-.855-1.09-.24-.061-.377.05-.432.233-.317 1.056-.648.543-.985.012-.181 1.154-.187 1.156.43 2.97.106.314.15.602-.167.797-.34.209-.582.098-.693-.279-.091-.313-.404-.329-.616-.273-.861.225-1.65.487-1.83-.805-.037-.267-.941.274-1.11-.533-.046-.218-.893-.382-1.373-.39-.55-.007-.408.631-.63.95-1.01 1.436-.955 1.542.284 2.91 1.135 1.252 1.124 1.728-.076 3.041-.747-.282-.473-.908-.442-1.386.059-.908-.394-1.289-1.26-1.473-.895-.19-1.764-.167-2.07.735-.262.777-.77 1.151-1.405 1.581-1.313.892-1.476 1.91-.397 3.066.932.997 1.245 2.278 1.978 3.36.372.55.768.524 1.254.523.495-.002.836-.243.988-.7.221-.667-.197-1.518.564-2.02.777-.511 1.655-.845 2.721-1.198-.077.707-.709.893-.957 1.309-.614 1.023-1.055 2.098-1.215 3.265-.12.869-.86 1.913.693 2.385.183.056.164.581.358.788.192.208.447.055.585-.186l-.025.02z"/><path d="M132.534 90.923c1.02.838 2.38.632 3.552 1.013.65.21 1.336.285 1.97.876-1.039.15-1.857-.202-2.648-.482-2.334-.826-4.452-.336-6.481.818-1.057.601-1.03.973.082 1.614.268.154.56.27.841.404.221.106.475.176.581.652-1.583.246-2.534-1.587-4.33-1.228.95.844 2.117 1.019 2.778 1.948-.907.11-1.474-.477-2.143-.84-.703-.383-1.316-.845-1.973.28-.311.532-1.383.716-2.147.955-.64.2-1.258.5-1.45 1.047-.363 1.025-.977 1.337-2.406.7 1.098 1.325 2.202 1.913 3.22 2.572.641.416 1.22.12 1.402-.575.038-.145-.067-.321-.106-.484-.098.146-.178.307-.298.435-.283.3-.555.17-.788-.065-.187-.187-.287-.522-.023-.597 1.495-.427 1.323-2.069 2.332-2.81.338.05.475.252.444.5-.126 1.021.508 1.228 1.38 1.153.863-.075 1.452.246 2.159.753 1.33.955 2.923 1.571 4.087 2.773.243.25.647.367 1.045.35.382-.017.678-.013.704-.56.055-1.194.583-1.884 1.722-1.738.753.096.654-.067.663-.491.01-.535.005-1.062-.201-1.58-.224-.558-.325-1.14-.071-1.861 1.012.059 2.076.022 2.988.568.82.493 1.197.232 1.487-.51.055-.138.277-.218.383-.295.207-.039.326.025.315.174-.129 1.6-.138 1.627 1.528 1.964.542.109.86.447 1.266.716.842.558.958.512 1.487-.43.118-.21.202-.439.342-.633.15-.205.372-.31.65-.214.273.094.36.307.387.553.065.61-.256 1.012-1.11 1.27 1.165.366 1.803.403 2.269-.615.255-.558 0-.726-.272-1.028-.215-.237-.395-.494-.022-.746.313-.211.565-.12.81.14.24.255.24.704.702.778.091-1.629-.753-2.926-2.162-3.247-.45-.102-.991-.144-.829-.7.149-.506.612-.732 1.184-.385.213.129.434.242.8.12.054-.493.221-1.006.468-1.521.392-.819.08-1.212-.888-1.508-1.195-.364-2.417-.564-3.649-.782-1.382-.245-2.78-.642-4.147-1.041-.56-.164-1.075-.266-1.646-.046-.686.266-1.762.257-1.867.992-.12.83 1.007.874 1.621 1.185 1.21.61 2.354 1.345 3.72 1.683.556.138 1.179.388 1.396 1.046-2.925-.794-5.55-2.314-8.539-2.868-.853-.158-1.7-.466-2.583-.133l.014-.019zm-97.11 102.339c-.017.37.107.826-.074 1.094-.908 1.347-.59 2.392.733 3.233.467.297.656.755.884 1.189.352.67.946 1.071 1.664 1.14.916.085 1.086.443.766 1.192-.065.154-.018.347.31.505.743-.982 1.236-2.115 1.757-3.225.232-.494-.082-.823-.595-.954-.112-.029-.29-.027-.362.037-.251.228.095.245.17.36.189.292.235.58-.072.815-.157.122-.419.13-.52-.024-.732-1.12-2.19-.929-3.167-1.59.003-.623.514-.439.82-.52.526-.139.855-.5.69-.947-.802-2.166.892-3.688 1.475-5.491.24-.74 1.097-1.225.975-2.121l-.118-.85c-1.504.642-2.355-.022-2.598-1.29-.113-.585-.417-.328-.61-.336-.954-.038-1.687.558-2.513.887-.743.296-1.112.087-1.115-.688-.002-.37-.11-.784.022-1.105.469-1.14.395-2.113-.96-2.85 1.767-.203 1.561-.25 1.95-1.8.305-1.218.786-2.386.892-3.666.078-.944-.52-1.123-1.217-1.349-.526-.171-.672.193-.904.475-.173.21-.395.33-.648.133-.324-.25-.281-.531.019-.767.232-.182.511-.32.527-.684-1.953.385-2.537.887-2.815 2.472-.067.382-.08.812-.54.861-.47.05-.637-.335-.646-.739-.006-.303.152-.763-.125-.864-.569-.208-1.203-.301-1.817-.333-.982-.053-1.108.61-1.144 1.359-.12 2.442-.256 4.883-.414 7.322-.051.787.24 1.45.635 2.1.194.319.353.697.824.675.485-.024.604-.443.716-.775.433-1.287.829-2.586 1.23-3.884.089-.284.14-.579.303-.857.266 1.05.161 2.032-.2 3.086-.6 1.754-.766 3.603-.69 5.459.008.192.134.335.496.43.6-1.475-.366-3.254.865-4.798.304 2.05-.99 4.01.144 5.787.655 1.025 1.272 2.156 2.346 2.85.76-.067.703-.698.965-1.08.242-.352.018-.883.54-1.205.724.587.208 1.17-.028 1.726-.264.624-.56 1.234-.24 1.964.846-.6.535-1.819 1.439-2.34.154-.142.119-.343.172-.516.048.207-.064.356-.197.497m31.666-80.698c1.436.546 2.913.858 4.478.687.537-.06 1.249.15 1.515-.398.3-.62-.357-1.01-.725-1.45-.205-.247-.625-.39-.484-.924 1.512.204 1.605 2.112 3.141 2.33-.553-1.309-1.877-2.084-2.446-3.538.294.172.398.205.461.272.895.947 1.608 2.31 2.724 2.727 1.049.391 2.484-.48 3.814-.368.46.04.81-.207 1.17-.446.822-.547.83-.536 1.987-.173-.538-1.245-1.162-2.297-2.104-3.223-.598.49.028.65.08.916.046.24.072.613-.1.61-1.36-.03-1.999 1.225-3.098 1.555-.42-.281-.307-.547-.106-.782.398-.466.147-.772-.307-.934-2.254-.808-3.117-2.776-4.191-4.511-.429-.691-.936-1.158-1.479-1.567-.548.034-.538.345-.597.622-.144.679-.482.832-1.298.787-1.481-.083-1.494.04-1.817 1.402-.133.558-.24 1.12-.358 1.682-1.681-.303-1.864-.412-3.29-1.959-.508.13-.777.73-1.503.64-.085-.44.366-.638.571-.935.197-.285.206-.585-.095-.76-1.398-.813-2.146-2.262-3.524-3.097-.663-.403-1.186-.433-1.734.157-.231.25-.32.475-.215.772.115.325.332.706-.25.793-.53.08-.545-.336-.598-.68-.025-.164-.062-.326-.263-.383-.706 1.35-.577 2.313.513 3.146.336.257.896.465.618.888-.313.479-.855.275-1.288-.035-.19-.136-.407-.238-.655-.38-.173.52-.33.923-.81 1.257-.54.377-.59 1.007.062 1.463.833.582 1.557 1.268 2.504 1.752 1.273.65 2.399 1.558 3.555 2.396.725.526 1.515.738 2.413.696.384-.018.765-.055.964-.397.228-.392-.097-.655-.357-.883-1.017-.897-1.81-1.952-2.818-3.255 1.199.323 1.608 1.069 2.197 1.596 1.463 1.31 2.884 2.673 4.871 3.305l-.021.02c.044-.749-.94-.792-1.097-1.403-.582-.289-.985-.812-1.587-1.073.624.234 1.019.763 1.577 1.083m58.385-76.694c.043.378-.003.74-.153 1.095-.423.997-.523 1.843.7 2.496.498.266.78.963 1.08 1.504.36.65.86 1.157 1.602 1.213 1.23.092 1.107.755.64 1.651 1.201-.19 1.063-1.136 1.459-1.672.404-.551.845-1.112.826-1.85-.012-.471-.312-.652-.755-.65-.223.001-.588-.01-.249.35.321.342.369.71-.022.934-.315.18-.6-.133-.757-.404-.25-.431-.63-.558-1.106-.627-.57-.084-1.125-.26-1.462-.673-.155-.288-.004-.477.155-.505 1.117-.191 1.332-.908 1.018-1.778-.263-.727-.094-1.209.296-1.87.747-1.274 1.06-2.76 2.02-3.966.334-.42.264-1.069-.012-1.769-1.122.581-1.894-.06-2.34-.914-.437-.839-.924-.924-1.713-.619-.706.274-1.316.792-2.128.816-.83-1.314-.49-2.613.023-3.853-.277-.445-.805-.065-1.047-.413-.1-.146-.224-.312-.23-.473-.01-.218.22-.322.404-.274 1.272.329 1.433-.37 1.35-1.32a2.154 2.154 0 0 1 .022-.558c.109-.606.814-1.04.621-1.712-.228-.8-1.13-.416-1.625-.764-.132-.094-.264-.307-.247-.447.02-.148.192-.34.345-.4.575-.225 1.112-.15 1.545.508.122-.714.408-1.329-.31-1.615-.476-.19-1.07-.577-1.534.128-.178.27-.474.47-.79.154-.424-.424-.039-.636.274-.866.152-.11.32-.227.29-.448-1.637.16-2.5.852-2.79 2.312-.075.376-.059.822-.57.81-.627-.016-.55-.517-.614-.958-.033-.24.413-1.028-.49-.685-.798.3-2.113-1.08-2.442.7-.044.244-.112.486-.127.732-.146 2.347-.25 4.696-.437 7.04-.083 1.035.45 1.795 1.001 2.546.377.514 1.054.414 1.156-.207.252-1.545 1.286-2.853 1.337-4.447.022-.696.265-1.33.934-1.783-.888 1.593-.571 3.396-1.07 5.102-.49 1.68-.913 3.613-.249 5.458l-.03-.017c.903.015.562-.667.568-1.055.015-1.058.34-2.083.29-2.654-.033.795-.34 2.059-.253 3.35.1 1.495 1.245 2.402 2.089 3.474.823 1.045 1.583 1.18 2.132-.246-.312.9-.966 1.786-.162 2.746l-.014-.012c.446-.388.693-.88.774-1.444.073-.514.231-.959.785-1.163.151-.136.137-.335.207-.5-.015.187-.06.362-.215.493M85.897 91.283c.193-.287.516-.297.839-.326.483-.045.89-.236.983-.688.088-.421-.323-.614-.658-.753-1.257-.52-1.261-1.481-1.153-2.493-.086-.02-.172-.039-.246-.06-.049.021-.145.03-.163.069-.086.177-.249.16-.204.02.387-1.198 1.42-2.096 1.932-3.239.264-.59.785-1.368.18-1.796-.691-.49-1.664-1.077-2.62-.685-.844.346-1.293.205-2.097-.174-1.332-.626-2.947-.154-4.433-.3-.264 0-.003-.346-.061-.116-.015.054.023.085.112.093 2.91.232 5.84-.08 8.75.247.542.06.993-.257 1.285-.693a1.23 1.23 0 0 0 .125-.473c.013-.055.003-.121.03-.17 1.17-2.172.925-2.565-1.852-2.942.269-.202.824-.122.814-.541-.013-.5-.48-.43-.864-.407-.386.022-.779.093-1.127-.135-.444-.045-.926.073-1.475-.384.753-.21 1.4-.508 1.043-1.32-.197-.449-.615-.746-1.046-.616-.848.254-.317 1.014-.525 1.56-.543-.04-.305-.754-.788-.771-.494-.018-.199.66-.861.714-.154-.984-.46-1.973-1.844-2.273-.248.527.833 1.092.098 1.521-.591.346-1.054-.32-1.605-.44-.726.216 1.244 1.312-.519 1.228-.364-.017-.154.358 0 .503.586.547 1.072 1.21 2 1.368.29.048.429.247.386.522-.05.33-.29.3-.572.264-1.006-.132-1.139.948-1.75 1.09-.523.121-1.128-.447-1.94-.398-1.358.081-1.328 1.384-2.31 1.717-.138.046.072.385.232.59.675.865 1.246 1.638 2.737 1.576 1.19-.05 2.054.832 2.027 1.531-.012.28.014.618-.366.752-.392.138-.553-.123-.771-.362-1.192-1.303-2.143-1.321-3.21-.077-.154.18-.396.48-.327.602.633 1.115-.07 2.174-.094 3.255-.025 1.083.904 2.004 2.303 1.924 1.27-.072 1.995.744 3.022 1.031 1.027.286 1.005.53 1.576.12.588-.423.747-.863.397-1.532-1.043-1.985-.97-2.219.797-3.97.528.622-.224 1.168-.061 1.79.284 1.09.86 2.025 1.382 3.003.526.983 1.294 1.44 2.52 1.02l-.028.024zM35.146 49.37c1.835-.362 3.516-1.107 4.967-2.352.664-.57 1.314-1.084 2.222-1.027l.05-.056-.07.031c-.942 1.044-2.063 1.85-3.185 2.654-.243.175-.555.326-.488.693.066.358.393.434.69.497.574.122 1.13.453 1.74.168 2.001-.934 4.034-1.803 5.995-2.823 1.18-.614 1.177-1.568.192-2.455-.384-.345-.658.025-.983.04-.269.01-.45-.13-.561-.37-.13-.284-.003-.543.235-.6 1.466-.358 1.403-1.64 1.61-2.759-.452-.367-.5.132-.711.261-.14.086-.355.173-.482.12-.333-.14-.08-.374-.046-.594.14-.923-.45-1.595-1.184-1.35-.186.061-.732.161-.14.543.188.122.36.328.46.538.107.223.105.512-.115.686-.222.175-.427.065-.622-.12-.963-.91-.963-.903-1.902-.075-.176.157-.376.347-.589.384-1.063.183-1.147.897-.822 1.97-.86-.856-1.54-.831-2.218-.018-.173.206-.526.266-.809.347-1.223.353-1.286.282-1.164-1.069.045-.498.07-1.007.02-1.502-.037-.369-.246-.414-.665-.497-.633-.127-1.75-.09-1.644-1.403.04-.491-.361-.454-.612-.338-.373.176-.865.374-1.02.709-.553 1.188-1.657 1.783-2.418 2.73-.368.46-.795.842-1.332.86-1.166.038-1.53.666-1.211 1.909-1.234-.578-1.258-2.296-2.617-2.2-.05-.696.716-.626.643-1.331-1.373.399-1.94 1.672-2.836 2.712.776-.3 1.39-.495 1.86.485.334.694 1.267.573 1.907.869 1.279.59 2.504 1.094 3.62-.506.116 1.02-.891 1.083-.92 1.903 1.099-.28 1.716-1.31 2.91-1.917-.236.883-.79 1.14-1.139 1.553-.541.637-.505.917.289 1.179 1.13.373 2.261.789 3.471.785.544-.333 1.165-.464 1.735-.728.149-.248.529-.094.64-.41-.05.377-.465.119-.587.377-.572.327-1.215.458-1.8.745l-.345.776-.019-.024zm27.358 118.77c.282.094.936.212.478.53-.849.588-.701 1.278-.611 2.11.34-.256.645-.488.938-.71.564.297.414.946.781 1.333.115-.214.237-.594.323-.586 1.42.133 1.34-.769 1.184-1.688-.059-.345-.235-.682.195-.88.568-.26.642.174.761.559.028.091.157.17.257.218 1.404.686 1.469.693 2.09 1.742.336.568.785.798 1.407.792.422-.004.848.006.741-.63-.068-.408.292-.598.496-.858.29-.371.326-.717.003-1.081a2.753 2.753 0 0 1-.626-1.216c-.252-1.102-.003-1.432 1.31-1.803.247.2.123.4 0 .6-.389.64-.588 1.27.13 1.827.817.633 1.672.623 2.427-.112.31-.302.627-.428 1.028-.543 1.586-.46 2.14-1.337 1.5-2.807-.438-1.011-.456-2.077-.765-3.094-.145-.478-.147-.83-.673-.933-.504-.1-.87.07-1.175.51-1.116 1.597-1.128 1.588-3.451 1.495 2.038-.859 2.488-2.692 3.453-4.136.254-.378-.044-.722-.282-.872-.57-.36-.165-.828-.229-1.216-.342-.38-.646.052-.96.014-.886-.109-1.312.288-1.287 1.162.013.482-.138.902-.396 1.295 0 .074.001.148-.001.22-1.048.946-2.385.602-3.598.793-.799.126-1.893.137-1.707 1.202.143.819.03 2.292 1.688 2.063.17-.155-.065.04.108-.114.119-.105.236-.212.37-.299-.078.114-.223.143-.315.25-1.702 2.059.967 3.405.754 5.256.06-1.204-1.17-1.427-1.699-2.264-.75-1.185-.41-2.484-.992-3.666-.443-.904-.799-1.272-1.72-1.18l-.193.15c-.01.197.248.499-.051.563-.244.052-.533-.174-.811-.205-1.039-.117-1.256.13-1.018 1.115.04.168.09.334.138.499.111.385.242.764.334 1.154.167.708-.521.107-.6.37-.185.617.673 1.093.274 1.755-.477.151-.265-.723-.676-.482-.372.217-.885.37-.98.889-.063.345.188.52.496.581.363.073.667-.199.985-.228.566-.05.107.374.18.57l-.013-.014z"/><path d="M71.121 160.15c-.771.062-1.533.134-1.122-1.116.134-.408.174-.85.272-1.349-.763-.342-1.535.027-1.92.494-.501.608-.09 1.414.361 2.027-.205.48-.632.262-.942.369-.336.116-.657.34-1.04.21-.256-1.615-.096-3.332-1.068-4.771-.41-.608.163-.763.452-.98.298-.222.686-.292.92.152.084.16.071.377.158.534.346.63.768.723 1.304.2.656-.64.776-1.602 1.33-2.313.23-.295-.05-.551-.387-.66-.857-.279-1.533-.086-1.976.77l.106.1-.09-.115c-.275-.056-.647.007-.606-.472.032-.368.16-.741.119-1.096-.035-.285-.226-.596-.588-.61-.26-.009-.516.132-.554.384-.115.768-.45.853-.914.322-.461-.527-.946-.5-1.438-.168-.41.276-.857.659-.203 1.139.38.279.607.592.578 1.074-.06 1.016.555.877 1.485.408-.643 1.036-1.388 1.199-1.893 1.669-.212.12.077-.011-.137.106.047-.035.104-.05.154-.078-.028-.95-.708-1.42-1.346-1.884-.339-.246-.751-.413-1.14.023-.308.345-.194.613-.049 1.002.49 1.299.46 1.311-.805 2.292 0-.615.02-1.147-.006-1.677-.019-.383-.298-.523-.626-.533-.326-.01-.602.06-.547.517.05.412-.071.83-.492.853-.482.026-.61-.545-.892-.852-.306-.333-.154-.583.098-.95.932-1.354.881-1.64.122-2.63-.538-.703-1.162-.86-1.92-.541-.73.307-1.519.589-1.982 1.276-.738 1.096-1.843 1.38-2.974 1.67-.165.042-.449.186-.457-.007-.064-1.37-1.653-.706-2.016-1.672-.107-.284-.435-.265-.608-.082-.47.496-1.159.266-1.672.613-.491.331-.966.406-1.468-.097-.539-.54-1.188-.417-1.873-.138.885.755 2.814 1.653 3.633 1.662.973.01 1.842.066 2.678.82.927.837 2.256.764 3.43 1.01.163.034.454-.107.504-.034 1.262 1.859 3.214.986 4.865 1.364-1.869 1.015-3.673.597-5.359-.386-1.479-.862-3.104-.874-4.743-1.05l4.726 2.069-.029-.024c1.669.033 3.18.762 4.765 1.16.722-.659 1.482-.852 2.22-.075.638.673 1.473.789 2.072.99-.635-.103-1.407-.397-2.152-.84-.672-.402-1.418-.772-2.168-.1l2.202 2.652-.013.011c-.014-.123-.03-.245-.045-.368-.04-.335-.478-.666-.086-.997.335-.282.677-.01.994.145.648.317 1.299.63 1.934.975.388.21.789.271 1.212.24l-.001.001c1.176-.93 2.592-1.124 3.982-1.308.953-.125 1.914-.2 2.857-.4.485-.104.978-.232.797-.952l.017.023zm14.423-73.47c.446-.18.806-.127 1.148.251.482.532 1.09.963 1.34 1.98.522-1.086 1.083-1.936.649-2.74-.344-.638-1.236-.706-2.281-.176.438-1.083.76-1.88 1.1-2.717 1.178 1.107 2.616 1.522 4.013 1.936 1.017.302 1.545-.047 1.898-1.094.174-.515.433-.626.913-.681.428-.049.84-.217 1.26-.326.547-.143.87-.458.866-1.02-.003-.667-.486-.722-1.024-.764-1.145-.09-1.647-.706-1.535-2.052.507.65 1.058.908 1.673 1.076.316.086.588.212.825-.101.253-.334.303-.62-.124-.896-.302-.194-.666-.472-.39-.873.314-.463.872-.393 1.37-.404.475-.01.605.262.69.668.18.856.54 1.54 1.65 1.596 1.389.07 1.576.004 2.123-1.146.467-.982.341-1.944.127-2.976-.16-.763-.962-1.682.183-2.419.113-.072.04-.45.006-.68-.107-.702.222-.94.82-.583.726.433 1.15.205 1.514-.406.03-.05.022-.13.062-.167 1.353-1.238 1.381-1.232 1.792-2.882.122-.486.304-.761.84-.758.417.002.744-.193.906-.536.194-.41.79-.906.345-1.272-.56-.46-.743.27-1.046.587-.29.305-.612.717-.984.79-.905.182-1.38.782-1.846 1.417-.48.653-1.047 1.15-1.874 1.377-.547.15-.925.621-1.402.87-1.118.581-1.317 2.048-2.886 2.303-1.274.207-1.772 1.79-2.952 2.396-.07.033-.139.067-.21.098a.98.98 0 0 1-.66.143.884.884 0 0 0-.426.224 3.502 3.502 0 0 0-.684 1.94c-.115-.645-.517-1.008-1.147-.836-1.09.297-2.007.83-2.078 2.041-.128-.99.699-1.34 1.376-1.857.946-.722 2.344-.93 2.813-2.21.014-.2-.073-.345-.257-.44a1.67 1.67 0 0 0-.844-.074c-1.422.243-2.859.046-4.284.144-.54.037-1.379-.013-1.393.582-.018.774.879.622 1.448.696.55.071 1.114.008 1.77.02-.887 1.1-2.703 1.176-2.927 2.766l-.014-.017c-.113.349.887-.182.419.537-1.093 1.68-1.53 3.665-2.637 5.35-.258.393-.462.877-.022 1.323l-.012-.008z"/><path d="M95.67 75.098c.643-1.199 1.758-1.95 2.94-2.566 1.109-.578 1.994-1.359 2.875-2.186 1.025-.962 2.116-1.862 3.118-2.873-2 .514-2.868 2.855-5.404 3.034 1.235-1.313 2.69-2.04 3.464-3.465.061.088.024-.034-.055-.068-.525-.225-.966-.657-1.608-.599.228.548-.234.923-.38 1.379-.085.264-.1.55-.444.699-.39-.002-.542-.496-1.022-.458-1.293.102-2.382-.455-3.466-1.039-.927-.499-.997-.451-1.464.516-.025.05-.012.127-.048.159-.827.74-1.293 1.54-.267 2.488-1.081.483-2.1-.009-2.95.592-.198.14-.337-.628-.927-.747-1.39-.281-1.371-.366-2.279.553-.518-.246.04-.736-.26-1.03-1.262.091-.495 1.135-.794 1.686-.497.917.759.953 1.43 1.432-.694.429-1.22.967-1.019 1.807 2.178 1.106 4.44.713 6.697.334.81-1.155.77-1.21-1.213-1.628a1.26 1.26 0 0 0-.925-.245c.165 0 .518-.077.814.18.812.225 1.654.327 2.47.544.606.16.182.488.209.747.05.324.19.593.508.754m35.245 62.909c.969-.293 1.593.866 2.637.594.741-.193 1.588.161 2.32-.408.258-.201.503.206.906.289-.067-.641-.4-1.111-.658-1.617-.827.328-1.697.495-2.402 1.063-.367-.447.086-1.014-.458-1.34-1.126-.677-1.455-1.949-1.964-3.066-.338-.747-.56-1.59-1.443-.453-.108.14-.45.194-.644.137-.81-.238-.95.236-1.135.9-.311 1.125-.529 1.15-1.39.41-.374-.323-.568-.977-1.257-.74-.219.075-.382-.102-.29-.262.529-.915-.455-1.24-.668-1.858-.153-.444-.528-.624-.975-.258-.163.134-.386.348-.547.026-.062-.123-.012-.368.074-.494.146-.214.54-.363.1-.643-.235-.149-.435.063-.638.169-.338.176-.22 1.136-1.028.602-.118-.078-.256.578-.27.938-.021.629.659.797.808 1.293-.331.709-.83-.046-1.231.199-.492.301-1.01.65-.513 1.233 1.19 1.391 2.503 2.671 4.07 3.608.296.177.732.407 1.23.111.045-.764-.871-1.192-.826-2.46 1.225 2.533 3.343 2.466 5.215 2.963.885.234 1.007-.26 1-.957l-.023.02z"/><path d="M119.194 142.63l.353 1.19c.428-.268.518-.856 1.322-1.06-.523.761-.119 1.29.193 1.875.202.381.389.64.845.497.482-.153.763-.441.502-.97-.135-.277-.199-.575.032-.875.61-.276.882.322 1.32.489.607.23.6.512.296 1.105-.612 1.192-.37 1.778.647 2.468.944.641 1.626.547 2.75-.294.946-.708 1.379-1.742 1.97-2.665.301-.469.318-.94 1.17-.842.533.061.85-.595 1.002-1.272.632 1.497 2.12 1.109 3.165 1.582.219.098.405.013.486-.135.416-.757 1.448-.741 1.945-1.416.369-.5.839-.698 1.42-.135.289.282.741.18 1.084-.02.354-.208 1.078-.234.92-.752-.215-.708-.704-.054-1.079-.034-.316.017-.657 0-.95-.098-1.088-.368-2.122-.289-3.161.165a2.299 2.299 0 0 1-1.517.108c-1.77-.484-3.521-.552-5.272.06-.111.038-.317.102-.339.07-1.005-1.454-2.356-.318-3.535-.421-.321-.028-.646-.009-.97-.011l.021.023c.706-.783 1.585-1.195 2.698-1.1.213-.128.219-.262.015-.404-.377-.256-.735.014-1.098.043-2.063.166-3.956-.08-5.309-1.78-.141-.178-.341-.35-.803-.234l1.235 1.398c-.567.456-1.23.148-1.792.27v.338c1.279 1.023 2.834.658 4.296.749-1.713.005-2.602 1.348-3.862 2.088m-69.002 15.442c-.11.198.112.978-.272.557-.614-.674-.462.21-.666.159-.351-.087-.35-.436-.475-.683-.654-1.291-1.957-1.376-3.158-1.438-.45-.023-.91-.14-1.505-.133.396.658.295 1.346.482 2.014.59.054.194-1.043.916-.69.49.238 1.416-.352 1.353-.003-.198 1.112 1.142 1.457 1.042 2.446-.042.403.13.84.262 1.244.19.583-.18 1.399.347 1.74.583.379 1.386-.242 2.15.08.435.182.765-.357.97-.726.362-.645.785-.454 1.244-.153.382.477.224 1.364 1.118 1.525-.309.652.045 1.156.298 1.742.227.526.42.842 1.043.817.275-.012.465.1.376.45-.077.306-1 .126-.47.671.268.273.791.003.97-.298.425-.718.752 1.038 1.098.014.171-.504.517-1.011.086-1.562-.106-.135-.137-.324-.2-.477.455-.47.665.041.975.156.478.178.853-.098 1.184-.377.4-.337.102-.698-.073-.99a96.599 96.599 0 0 0-2.366-3.753c-.192-.286-.569-.472-.887-.664-.751-.452-.793.226-1.012.632-.765-.4-.78-1.562-1.539-1.722-.84-.18-1.52-.486-2.16-.98-.385.054-.839-.121-1.13.402zm60.497 103.093c.108.486-.108.88-.508 1.2-1.127.9-2.212 1.841-3.407 2.675-1.14.795-2.471.927-3.682.865-1.95-.101-3.867.405-5.805.268-1.803-.129-3.617-.19-5.423-.318-.906-.065-1.378-1.161-2.437-.615-.388-.507-.54-1.087-.38-1.703.109-.416.564-.97-.166-1.065-.653-.084-.532.628-.666 1.005-.088.247.006.545.041.816.043.322.203.678-.265.866-.371.148-.712.013-1.027-.16-.364-.2-.086-.419-.047-.673.13-.857.403-1.754-1.171-1.842-.549-.031-.882-1.173-2.02-.47.879.48.826 1.395 1.334 2.055-1.331.67-2.281-.768-3.49-.183.006.472.477.491.683.739.26.312.58.603.097.984-.388.306-.824.29-1.15-.012-.238-.22-.372-.534-.64-.94-.15.56-.03.966.264 1.237 1.106 1.02 2.052 2.274 3.916 2.274.47 0 .854.196.757.696-.093.48-.117 1.033-.75 1.274a.417.417 0 0 1-.31-.041c-.912-.55-1.686-.276-1.998.717-.423 1.343-.423 1.343-1.815.47-.58-.188-1.013.272-1.53.364.509-.105.936-.592 1.52-.342.225-.279.267-.596-.184-.547-1.43.156-2.687.777-3.884 1.517-.366.226-.028.457-.057.597-.13.627.253 1.68-1.163 1.543-.177-.017-.273.028-.209.17.063.138.204.366.289.354.929-.13 1.142.2 1.252 1.047.131 1.01 1.133 1.48 2.338 1.174 1.715-.436 2.877.56 4.254.984.498.153.351.681.178 1.029-.289.576-.268 1.05.249 1.44-.346.338-.709.205-1.064.208-.457.003-.48-.071-.606-.563-.412-1.604-2.477-2.046-3.973-1.012-.348.241-.716.464-1.03.737-.977.851-1.188 1.54-.483 2.517.543.75.497 1.397.109 2.174-.203.406-.379.852-.419 1.285-.136 1.516.955 2.82 2.623 3.145.583.112 1.206.078 1.803.15.902.105 2.023-.272 2.502.808.577-.329.884.77 1.569.147.339-.309.749-.036.869.27.184.472-.345.478-.646.616-.156.072-.306.151-.425.34.731-.053 1.421-.215 2.076-.6 1.902-1.116 2.219-1.993.778-3.44-1.251-1.257-1.116-2.418-.226-3.763.52-.788.56-1.844 1.563-2.383.104.087.194.136.185.158-.609 1.584.225 3.028.273 4.547.008.268.114.746.23.754 1.678.131 1.129 1.997 2.352 2.515.465.196.244.765-.05 1.19-.14.2-.043.437.205.551.316.146.338-.166.503-.27 1.06-.666 2.252-.642 2.932.097.258.28.423.523.845.306.15-.077.317-.23.357-.371.152-.51-.364-.438-.644-.577-.094-.047-.156-.145-.382-.365 1.041-.027 1.725-.46 2.208-1.192.32-.485.285-.824-.263-1.087a25.341 25.341 0 0 1-1.867-.962c-1.108-.65-1.26-2.29-.32-3.195.363-.349.606-.153.907.078 1.019.788 2.161 1.46 2.739 2.874.907-1.382.578-2.867 1.778-4.034-1.568-.358-2.723-1.698-4.442-.333.033-.86.961-3.3 1.805-4.724-.072 1.421.876 1.642 1.84 1.89 1.153.294 2.283.654 3.43.97.397.11.808.235 1.222.239.836.007 1.094-.295 1.023-1.137-.032-.384-.197-.771.406-1.044.595 1.168.423 2.477.646 3.703.082.45-.221.868-.669 1.142-.205.126-.515.23-.604-.029-.407-1.178-1.172-.35-1.723-.14-.684.26-.754.834-.54 1.424.112.312.173.641.29.952.131.35.205.806.802.684.488-.1.696-.426.717-.87.01-.218.012-.46.115-.649.251-.46.744-.576 1.242-.632.378-.041.557.177.575.482.027.455-.017.926-.593 1.123-.537.184-.959.44-1.333.871-.551.633-.506 1.118.132 1.549.418.282.82.63 1.528.556.42-.382-.217-1.372.963-1.49.283-.029.281-.802.16-1.242-.196-.702-.163-1.406.066-2.385 1.055 1.183 2.354 1.724 3.671 2.255.403-.437.261-.965.33-1.446.067-.452.002-.89-.756-.79-.309.04-.555-.234-.503-.55.047-.289.29-.48.596-.606.45-.182.928.106 1.398-.25.858-.652 1.19-2.071.61-2.91-.247-.355-.666-.404-.93-.19-1.284 1.042-2.363.527-3.457-.115-.195-.114-.42-.202-.687-.085-.206.368.346.55.234.899-.137.43-.29 1.027-.795 1.015-.606-.014-.536-.624-.432-1.046.211-.853.13-1.66-.147-2.457-.15-.435-.098-.872.034-1.316.363-1.22.812-1.339 1.856-.535.555.427.33.73-.149 1.045-.373.246-1.01.108-1.158.66.053.318.324.32.548.35 1.246.172 2.235-.7 3.412-.907.448-.08.983-.812.655-1.618-.282-.69-.68-1.07-1.423-.907-1.32.291-2.393.01-2.878-1.07-.459-1.018-.29-2.134.444-3.1.342.018.442.158.399.324-.429 1.63-.433 1.629 1.401 2.12 1.433.384 1.606.352 1.99-.447.306-.636.46-1.208-.614-1.28-.275-.018-.551-.209-.775-.377-.55-.414-.473-.889.214-1.12a12.182 12.182 0 0 1 1.964-.477c.817-.13 1.308-.035 1.25.991-.065 1.17.97 2.249 2 2.154.955-.088 1.991.364 2.896-.19.887-.544 1.258-1.392 1.433-2.306.398-2.072.279-4.057-.729-5.931-.265-.493-.95-1.237.542-1.389.436-.045.54-1.502.128-2.092-.135-.194-.583-.221-.269-.59.208-.244.5-.336.818-.294.176.023.398.045.503.15.776.77 1.437.238 2.127-.216.406-.268.418-.252.705-1.419.59-.115.973.22 1.313.558.561-.343.6-.833.548-1.237-.197-1.483.781-2.842.72-4.311-.016-.37.411-.525.832-.468.575.08 1.141.024 1.438-.516a18.35 18.35 0 0 0 1.006-2.182c.047-.117-.214-.38-.396-.49a.515.515 0 0 0-.754.246c-.3.766-.972 1.232-1.533 1.808-.443.452-.872.625-1.469.833-1.141.398-1.726 1.42-2.203 2.417-.381.797-1.517 1.914-2.393 2.14-1.75.451-2.584 1.913-3.848 2.895-.431.335-.52.856-1.228 1.132-.725.281-.227 1.337-.538 2.011-1.05-.905-1.302-.999-2.283-.038-1.338 1.31-2.704 2.633-3.623 4.241-.286.5-.476 1.043-.962 1.47-.518-.28-.288-.66-.085-.979.565-.886 1.1-1.754 1.288-2.792.133-.733.787-1.294 1.443-1.737 1.652-1.118 3.072-2.519 4.866-3.462.39-.206.717-.473.96-.8 2.157-2.91 5.088-5.163 7.766-7.633.414-.382 1.027-.637 1.127-1.246-.216-.122-.42-.073-.541.044-1.403 1.36-3.217 2.285-4.488 3.819-1.126 1.358-2.704 2.351-4.204 3.377-1.653 1.13-3.086 2.487-4.471 3.87-.538.538-1.058.941-1.807 1.102l.009-.021zm57.993 62.452c-.077-.465-.451-.74-.798-1.01-1.071-.836-1.485-.798-2.53.184-.254.24-.555.457-.745.734-.58.845-1.391 1.066-2.327.812-1.15-.313-2.425-.305-3.543-.871.182-.152.288-.296.35-.285 1.548.277 2.723-.798 4.104-1.117.345-.08.95-.166.933-.406-.102-1.485 1.908-1.355 2.253-2.524.177-.6 1.01.029 1.534-.47-.51-.337-.496-.942-.746-1.398-.331-.607-.276-.927.287-1.38.933-.751-.022-.755-.456-1.064-.295.576-.152 1.198-.922 1.648.404-1.08.13-1.779-.999-2.05-.55-.134-.929-.041-1.144.48-.15.361-.289.726-.44 1.088-.789 1.89-1.58 2.178-3.86 1.264.985-1.043 1.285-2.452 2.88-3.256-1.412-.77-2.887.08-3.947-.61-.47.434-.303.845-.449 1.195-.302.728-.589 1.425.236 2.05.375.284.05.628-.396.575-1.261-.15-2.509-.363-3.826-.561 1.032-1.11 1.013-1.112 1.32-2.826.164-.918.406-1.828.616-2.74.101-.44.15-.877-.162-1.242-.436-.511-.834.003-1.252.112-.335.087-.704.225-1.034-.336 1.262-.368 2.473-.774 3.71-1.066 1.025-.243 1.087-.091.931 1.053-.075.56.141 1.068.67 1.396.443.275.877.21 1.316-.098.24-.168.535-.27.768-.445.324-.241.73-.495.469-.948-.213-.368-.542-.54-1.025-.321-.106.048-.23.116-.33.105-.57-.065-.68-.523-.866-.904-.088-.18.056-.325.22-.388.443-.172.91-.394 1.266.087.064.088.098.202.179.272 1.484 1.286 2.224 1.04 2.83-.956-.355-.377-1.168.124-1.424-.623-.14-.407-.731-.019-1.116.035-.795.11-1.555.685-2.522.24.868-.983 1.312-2.098 1.574-3.31-.392-.202-.965-.08-1.537.09-.27.08-.637.104-.6.478.037.371-.052.698-.49.732-.47.036-.67-.282-.818-.677-.419-1.126-1.845-1.525-2.897-.836-.456.299-.725.784-.277 1.1 1.113.786.677 1.683.261 2.622-.087.198-.128.41-.23.748.76-.084 1.523-.764 2.068.03-.965.608-4.158 1.55-4.996 1.45-.323-.04-.84-.007-.74-.461.098-.456.19-1.052.731-1.246.483-.173.669.286.848.623.132.252.347.463.68.32.23-.098.344-.41.249-.574-.536-.914-.536-2.064-1.778-2.686-.612-.307-.91-.216-1.353.016-.447.236-.75.57-.575 1.084.07.204.125.415.158.628.207 1.272-.36 2.076-1.763 2.455-.74.202-1.5.442-2.221.012.064-.11.094-.237.161-.26.554-.192 1.29.293 1.677-.251.5-.701.416-1.58.507-2.373.051-.456-.544-.616-1.064-.607-.42.007-.846-.057-.836.56.004.247-.146.53-.301.758-.445.657-1.027.685-1.26.004-.256-.75-1.001-1.336-.797-2.36 1.114.139 1.892-.431 2.421-1.28.34-.543 1.196-1.16.112-1.748-.05-.027.027-.211.005-.313-.093-.442.274-.979-.325-1.322-.76-.435-1.564-.774-2.483-.678-2.076.216-4.095.636-5.763 2.001-.409.335-.877.465-1.22.002-.559-.75-1.266-.516-1.912-.129-.317.19-.441.736-.95.332-.35-.278-.347-.63-.163-1.032.146-.322.684-.753.186-.982-.525-.24-.487-1.08-1.279-.927-1.063.209-.909-.299-.647-.902.068-.156.053-.316-.241-.521-1.321.813-2.811-.078-4.308.36-.647.19-1.217-.005-1.442-.777-.23-.793-2.04-1.48-2.898-1.239-.254.071-.385.26-.448.48-.072.248.08.394.277.53.426.296 1.103.036 1.443.445.478.573 1.413.614 1.661 1.579.166.648 1.345.944 2.206 1.125 1.345.284 2.355.745 3.007 2.014.619 1.207 2.312 1.516 3.401 2.359.96.744 1.974.864 3.328.447-.29.508-.84.49-.936.86-.114.44.215.695.488.966.442.437 1.022.685 1.602.94 1.497.657 2.918 1.453 4.629 1.803-.172.178-.263.324-.31.315-2.241-.414-4.628-.393-6.345-2.114-1.959-1.963-4.396-3.384-6.974-4.654-1.831-.903-3.462-2.125-5.166-3.223-.422-.272-.77-.643-1.821-.668 1.66 1.098 2.741 2.284 4.23 3.057 1.57.814 3.045 1.744 4.266 2.966.187.188.296.443.442.667l.105.2c1.591 1.229 3.471 2.105 5.048 3.352l.248.016c.176-.02.398-.11.523-.048 2.442 1.197 5.164 3.09 4.972 5.951-.034.504.097.962.247 1.421.71 2.162.815 4.427.887 6.685.018.55.331 1.331-.672 1.752-.441-.41.066-.934-.103-1.355-.14-.116-.316-.112-.47-.027-.36.2-.68.498-1.127.487-.523-.01-.976.078-1.08.635-.084.45.001.856.49 1.098.198.097.352.262.525.397.339.077.68.194.99-.104-.31.344-.647.197-.982.09-.242.238-.617.374-.708.788.939.629 1.854.191 2.753-.278.236 1.228.232 1.19-1.012 1.359-.712.097-1.493.28-1.179 1.235.107.323-.113.506-.331.701-.385.344-.281.678-.001 1.067.567-.537 1.185-.988 1.936-1.188.765.867-.5 1.885.234 2.81.347-.392.624-.72.917-1.034.181-.194.428-.207.65-.117.326.13.286.402.265.685-.043.574-.941.545-.948 1.206.69-.014 1.13-.456 1.409-.888.713-1.11 1.926-2.06 1.633-3.54-.061-.313.186-.668.628-.669.339 0 .769-.063.966.25.205.324-.677.346-.36.738.365.452.614 1.06 1.4 1.05.472-.006.949-.065 1.414.32-.298.723-.617 1.516.205 2.16.216.168.304.478-.115.634-.358.133-.252.371-.142.52.552.752 1.149 1.47 2.174 1.737.902.236 1.132.133 1.373-.815.098-.389.313-.515.646-.69 1.457-.767 1.524-.829 1.13-2.322-.326-1.241.252-2.35.592-3.499.135-.454.603-.593 1.01-.51.633.128 1.005-.186 1.489-.661.2.732.878 1.337-.452 1.82-.426.155-.734.727-1.002 1.154-.392.622-.481 1.233.232 1.725.366.252.646.604.992.883 1.17.939 1.852.97 3.007-.092.598-.548 1.187-.464 1.808-.417 3.101.235 4.392-.877 4.302-3.751-.01-.322.018-.683-.125-.953-.42-.79.35-1.258.611-1.864.267-.62-.545-1.203.013-1.837.152-.172.332-.325.5-.487l.018-.023zm23.535-157.453c-.27.218-.602.39-.693.82.732.21 1.443.353 2.193-.098.325-.196.73-.325.864.114.135.437.045.886-.628.961-.294.033-.612-.045-.882.04-.568.181-1.222.376-1.023 1.12.173.653-1.256 1.166-.258 1.842.591-.55 1.335-.932 2.135-1.241.44.962-.737 1.937.05 2.807.55-.124.53-.61.819-.866.304-.269.623-.408.94-.154.305.246.179.574.015.895-.163.319-.863.266-.633 1.02 1.537-1.08 2.496-2.386 2.813-3.952.291-1.437.319-1.514 1.956-.775.041.254-.143.23-.313.213-.161-.015-.328-.092-.46.084.376 1.252 1.587 1.34 2.86 1.447-.288.953-.537 1.725.396 2.52.638.545-.404.21-.658.387.294.973 1.053 1.628 1.934 2.139 1.021.593 1.643.367 2.047-.76.173-.483.56-.517.893-.722 1.165-.718 1.253-.908.75-2.11-.566-1.348.313-2.537.688-3.775.094-.311.61-.37.961-.303.59.113 1.016-.103 1.42-.587.286.74.769 1.332-.531 1.8-.487.175-.737.982-1.084 1.507-.254.383-.186.705.143 1.02.48.46.922.948 1.523 1.295 1.326.767 1.521.79 2.768-.204.575-.459 1.108-.547 1.812-.454 2.857.379 4.577-1.13 4.349-3.775-.033-.375-.14-.742-.218-1.111-.092-.428-.11-.774.319-1.183.405-.386.745-1.015.322-1.525-.375-.452-.107-.795.233-.939.492-.207.4.383.632.562.073.057.197.06.473.133-.403-1.34-1.313-2.104-2.557-2.601-.352-.14-.69-.097-.986.184-.17.161-.34.328-.532.464-.749.53-1.03 1.573-2.182 1.662-.783.06-3.312-.537-4.16-1.002.028-.189.205-.319.354-.29 1.654.313 2.801-1.191 4.363-1.2.103 0 .308-.12.303-.156-.209-1.504 1.881-1.368 2.23-2.53.189-.628.92-.312 1.423-.375.155-.02.375-.138.432-.258.178-.376-.213-.224-.38-.304-.57-.272-.425-.924-.776-1.355-.403-.495.232-.846.674-1.154.24-.167.203-.406.008-.552-.228-.17-.527-.296-.76.031-.16.226-.124.541-.545.82.024-1.27-.918-1.595-2.063-1.862-.394.87-.73 1.694-1.134 2.491-.487.96-2.157 1.401-3.075.848-.299-.18-.314-.43-.122-.695.572-.787.919-1.703 1.723-2.355.214-.175.601-.265.456-.614-.117-.282-.44-.335-.74-.309-.533.046-1.055.238-1.6.101-.447-.113-.913-.171-1.462-.27-.392 1.289-.857 2.512.498 3.853l-4.918-.58c2.136-1.756 1.447-4.013 2.102-5.98.282-.848-.258-1.07-1.352-.761-.392.11-.81.304-1.182-.373 1.319-.354 2.563-.728 3.826-1.012.98-.221 1.1-.061.928.928-.14.799.278 1.521.969 1.677.507.115 2.096-.706 2.25-1.203.136-.442-.111-.761-.575-.828-.264-.038-.577.168-.855.153-.397-.023-.58-.316-.668-.65-.075-.288-.02-.542.32-.68.343-.14.687-.232.961.09.177.207.341.435.565.592 1.185.837 2.047.567 2.54-.781.198-.54.051-.72-.632-.796-1.594-.176-1.582-.243-3.253.13-.357.08-.704.154-1.122-.05.012-.707.715-1.124 1.113-1.581.504-.577-.747-1.4.716-1.687-1.198-.159-2.286-.505-2.596.951-.022.102-.283.25-.423.247-.39-.008-.592-.238-.721-.573-.513-1.322-1.743-1.713-2.963-.952-.312.195-.698.603-.426.802 1.44 1.054.737 2.307.138 3.71.89-.204 1.695-.767 2.424.211-1.606.43-3.132.869-4.675 1.236-.505.12-1.185.173-1.415-.333-.18-.398.29-.81.549-1.175.274-.387.588-.317.826.027.153.22.264.473.452.663.09.09.322.11.478.086.21-.033.277-.238.242-.388-.286-1.196-.816-2.294-1.8-3.107-.543-.45-1.95.328-2 1.053-.011.158.056.317.08.477.382 2.428-1.212 3.578-3.92 2.818.14-.535.578-.291.837-.243.836.154 1.264-.13 1.357-.896.027-.217.05-.434.084-.65.254-1.565.254-1.565-1.646-1.629-.25.478-.1 1.078-.585 1.503-.36.315-.867.512-1.02.062-.292-.847-1.031-1.545-.965-2.628 1.386.156 2.126-.63 2.716-1.585.277-.448.81-.943-.032-1.359-.116-.056-.059-.392-.074-.598-.085-1.217-.256-1.484-1.558-1.654-1.531-.2-3.08-.196-4.54.587-.927.495-2.093.566-2.8 1.47-.165.21-.542.155-.823 0-1.441-.784-1.443-.78-2.676.155-.404-.215-.517-.601-.44-.969.12-.566.367-.985-.245-1.55-.528-.486-1.034-.51-1.603-.503-.222-.478.22-.92-.013-1.32-.13-.04-.252-.124-.34-.097-1.52.464-3.066-.01-4.599.345-.485.113-.919-.12-.997-.667-.062-.427-.125-.885-.683-1.018-.74-.177-1.479-.371-2.264-.332-.13.007-.307.183-.384.315-.178.31.06.5.278.676.46.368 1.152.211 1.657.713.416.413 1.003.578 1.3 1.255.281.637 1.27.855 2.072 1.071.497.134 1.02.139 1.492.428.644.393 1.35.592 1.616 1.425.204.637.925 1.055 1.548 1.463.925.606 2.017.951 2.869 1.713.497.446 1.562.045 2.422.02-1.055.992-1.139 1.312-.086 1.909 1.366.774 2.785 1.5 4.334 1.993.6.191 1.267.248 1.789.625-.105.08-.22.218-.276.203-2.015-.52-4.372-.11-6.012-1.68-1.076-1.03-2.44-1.797-3.439-2.914-.179-.2-.416-.393-.676-.488-3.247-1.189-5.918-3.164-8.708-4.976-.328-.213-.69-.384-1.12-.62-.167.62.342.69.585.908 1.622 1.45 3.684 2.39 5.419 3.7 2.409 1.817 4.886 3.555 7.476 5.152 1.15.71 2.386 1.3 3.499 2.077 1.33.93 2.143 2.122 2.251 3.629.104 1.454.668 2.785.84 4.225.19 1.603.291 3.212.409 4.82.043.59-.041 1.206-.608 1.668a1.455 1.455 0 0 0-.223.351c-.31.587-.896.666-1.492.73l-.223.06m-24.618 58.609a.947.947 0 0 1 .56-.648c2.749-1.114 5.445-2.032 8.404-.794 2.032.852 4.264 1.341 6.276 2.276 1.345.625 2.98.878 3.629 2.342.159.359 1.064-.23.832.488-.19.595-.101 1.404-1.099 1.59l.018-.02c.46.921.574.961 1.07.356.3-.367.562-.75.584-1.22.013-.28.046-.62.476-.56.278.04.55.205.77.371.301.227.117.437-.102.687-.703.807-1.083 1.505.313 2.062.465.185.114 1.43 1.443.99-.532-.635-.438-1.429-.258-2.371 1.232.204 1.692 1.519 2.895 1.567.34-.483-.083-.55-.229-.735-.26-.327-.414-.674-.077-1.05.105-.118.32-.242.465-.232.476.036.754.302.794.74.021.248-.103.53.177.808.372-1.748-.56-3.726-2.091-4.418-.355-.161-.68-.265-.592-.653.12-.526.559-.862 1.08-1.09.055-.023.195.08.268.148.788.744 1.423.777 2.055-.031.54-.689.959-1.109 1.598-.21.092.13.246.237.4.31.476.223.951-.102 1.43-.101.763.001-.129.797.374.786.898-.02 1.842.09 2.676-.436.357-.226.727-.452 1.025-.733.279-.262.4-.78.083-.884-1.088-.363-.642-1.174-.719-1.851-.078-.693-.333-1.288-1.272-1.314-1.69-.047-2.318-1.37-3.33-2.225-.314-.265-.118-.615.088-.911.194-.284.425-.549.61-.837.132-.205-.464-.72.314-.635.386.041.873.183.798.708-.114.79.354 1.359.756 1.952.12.177.293.416.483.442 1.318.171 2.54-.312 3.687-.845.863-.401.81-1.19.569-1.92-.177-.531.016-.975.477-1.354.092-.076.174-.163.268-.24 2.189-1.778 1.44-3.93-.651-4.983a33.23 33.23 0 0 0-1.433-.665c-.559-.247-1.253-.295-1.228-1.156.01-.306-.647-.517-1.083-.665-.962-.325-.96-.33-.163-1.223-.786-.323-1.563-.063-2.314.193-1.31.446-1.776 1.028-1.289 2.17.758 1.771.22 3.036-1.48 4.148-.593.386-.95 1.06-1.682 1.268-.265-.041-.323-.227-.236-.36.674-1.023 1.106-2.043 1.155-3.273.03-.736.824-1.406-.173-2.115-.516-.368.18-1.165-.057-1.747-.56-.227-1.067.227-1.605.18-.234-.022-.534-.04-.535-.321-.001-.26.248-.435.487-.308 1.08.578 1.063-.503 1.556-.833.434-.291.38-.595.197-.844-.315-.425-.374.24-.628.207-.568-.076-1.049-.331-1.722-.221-.511.084-.479-.634-.544-1.052-.033-.206.043-.484-.29-.47a1.281 1.281 0 0 0-.663.241c-.253.188-.103.4.055.567.42.441.891.849 1.049 1.537-.54.04-.708-.353-.934-.589-.615-.647-1.263-.47-1.936-.032-.516.335-.809.724-.305 1.233.237.24.464.49.674.75 1.324 1.637 1.19 2.243-.918 3.752-.815-1.155-1.33-2.427-1.782-3.939-1.094.89-1.462 2.034-2.39 2.779-.257.206-.006.487.202.702.775.797 1.51 1.641 3.284 1.131l-3.197 3.353c-.56-.328.02-.942-.492-1.314-1.382-1.006-2.632-2.16-4.024-3.155-.766-.546-1.146-.313-1.528.672-.138.356-.251.758-.992.882.432-.882.496-1.734.665-2.575.132-.663.369-1.343 1.048-1.73.265-.15.964-.744.877.316-.05.586.675.465 1.112.431.547-.042 1.142-.156 1.317-.76.11-.376.137-.77.161-1.156.025-.394.002-.844-.493-.94-.539-.102-.917.126-1.039.699-.158.745-.772.571-1.304.5-.35-.046-.528-.251-.494-.565.036-.35.2-.695.633-.727.548-.04 1.062-.039 1.578-.347 1.063-.632 1.178-.962.473-1.834-.392-.482-.822-.936-1.276-.005-.306.626-1.464-.008-1.531 1.009-.038.587-.374 1.179-.61 1.759-.08.196-.264.362-.542.727-.588-1.186-.815-2.514-2.46-2.82-.253.537-1.109.96-.427 1.681.218.231.678.36.364.762-.234.298-.636.31-1.011.285-1.384-.092-1.794.088-2.322 1.014-.643 1.122-.33 1.628 1.037 1.497.872-.082 1.33.32 1.826.807.308.302.38.824.961.894.352-.212.08-.489.139-.727.123-.493.59-.934.986-.824.648.179.268.74.027 1.109-.39.6-.613 1.212-.687 1.895-.102.94-.649 1.663-1.572 2.148-.468-.435-1.188-.845-1.047-1.376.188-.697 1.106-.124 1.62-.44.097-.06.174-.15.324-.282-1.266-1.055-2.761-.744-4.22-.37-.759.194-.484.906-.613 1.386-.13.486.297.678.744.73 1.307.15 2.119.758 2.156 1.992.032 1.063-.575 1.872-1.455 2.478-.276-.038-.329-.11-.285-.237.177-.517 1.075-.808.775-1.435-.362-.754-1.268-1.074-1.918-1.59-.305-.241-.91.164-1.211.577-.26.356-.46.711.076.967a1.1 1.1 0 0 1 .56.595c.304.709.01 1.152-.796 1.026-.878-.137-1.82-.105-2.764-.59.441-.65.837-1.31.472-2.097-.362-.779-.403-1.78-1.825-1.46-.082.018-.188-.124-.297-.162-1.591-.549-1.951-.466-3.12.716-.467.472-.846 1.002-1.054 1.594-.535 1.516-1.267 3.012-.823 4.64.1.366-.133.692-.696.823-.99.23-1.673.892-1.338 1.547.558 1.085-.38.631-.705.686-.31.052-.513-.22-.663-.466-.169-.28-.485-.737-.74-.52-.513.436-1.188-.079-1.671.533-.645.816-.733.762-1.62-.042-.964.5-.556 1.676-1.563 2.304-.77.48-1.07 1.606-1.563 2.419-1.752-.573-2.765-.213-3.77 1.2-.2.279-.196.497.039.73.313.311.627.257.942-.018.48-.418.897-.827 1.615-1.02.577-.154 1.019-.365 1.693-.28.994.126 1.838-.548 2.555-1.167 1.043-.9 2.071-1.45 3.61-1.36 1.605.096 3.014-.898 4.401-1.63 1.78-.937 1.754-.98 2.4-2.221.373.313-.056.877.421 1.096.492.226.967.093 1.415-.074 1.607-.597 3.073-1.44 4.492-2.36.484-.316.838-.845 1.506-.903.163.463-.157.727-.431.891a6.201 6.201 0 0 0-1.953 1.803c-.412.593-1.103.933-1.846 1.083-4.316.868-8.24 2.683-12.15 4.566-1.256.605-2.628 1-3.952 1.48-.567.204-1.205.3-1.543 1.127 1.868-.774 3.711-1.079 5.419-1.93 1.513-.755 3.165-1.289 4.798-1.794 1.994-.616 4.06-1.042 5.87-2.104.645-.378 1.333-.122 1.948-.413l-.016.024zm42.867 48.864c.705.308 1.48.118 2.23.135.739.017 1.572-.206 2.145.393l-.025-.014c1.24-.46 2.407.052 3.616.017 2.25-.063 4.51-.195 6.742-.103 1.753.073 3.5.119 5.26.077.3-.007.605.085.931-.207-.653-.333-1.372-.283-2.064-.301-2.858-.075-5.711-.142-8.504-.658-1.537-.284-3.143.245-4.73.255-1.475.008-2.903.18-4.049-.852-.513-.463-1.554-.247-2.131-1.116 1.564.341 2.936.664 4.326.935.753.148 1.491.383 2.33.175.64-.158 1.101-.392 1.082-1.186.706.502 1.104.961 2.049.954 1.837-.015 3.605.692 5.515-.304.402-.21 1.356-.04 1.996.294a4.477 4.477 0 0 0 2.237.526c.315-.01.619-.012.8-.308.185-.304-.026-.483-.202-.707-.85-1.083-2.255-1.63-3.175-2.654-.346-.386-.591-.017-.737.338-.15.366-.35.486-.821.295-1.048-.425-1.62-.256-2.267.619-.23.31-.452.548-.855.55-.621.004-.268-.483-.379-.734-.236-.543-.544-.949-1.326-.772-.665.152-.796-.164-.884-.682-.304-1.779-1.372-3.147-2.909-4.208-1.175-.813-1.77-.588-3.168.196-.768.431-1.155.803-1.182 1.506-.026.625-.325 1.344.492 1.753.242.121.298.367.058.535-.689.483-1.425.929-2.264 1.12-.492.112-.616-.296-.52-.629.118-.41.367-.798.607-1.294-.646-.134-1.086-1.049-1.85-.213-1.393 1.522-1.356 1.67.226 3.068-1.424-.375-2.095-.987-2.306-2.007-.183-.878.317-1.45 1.149-1.911.57-.316.9-.692.55-1.364-.365-.7-1.036-.761-1.604-.512-.671.296-1.383.489-2.035.809-.263.128-.56.36-.452.662.14.39.44.122.724.058.944-.211 1.09-.04.822.744-.235.687-.643.756-1.227.435-.151-.084-.308-.165-.435-.273-.17-.146-.42-.295-.451-.479-.179-1.042-1.436-1.516-1.62-2.58.944-.257 1.108.469 1.6.833.145-.205.333-.378.399-.578.269-.805.713-1.395 1.737-1.549.786-.118.772-.625.567-1.133-.324-.801-1.24-1.187-2.188-.85-.403.142-.75.39-1.354.265.481-.91.45-1.684-.676-2.049-1.024.778-1.342 1.774-1.21 2.966-1.037-.252-1.296-1.04-1.712-1.625-.546-.769-1.704.11-2.07-.993-.243.519-.374.716-.426.924-.285 1.17.028 1.545 1.282 1.527.301-.004.607-.124.91-.136.573-.022.727.335.639.752-.082.39-.49.465-.869.484-.112.005-.273-.025-.328-.094-.404-.502-.88-.773-1.45-.148-.32.35.133 1.423.637 1.72.381.225 1.55.01 1.869-.345.924-1.032 1.055-1.035 1.86.126.428.619.777 1.285 1.17 1.943-.424.248-.55-.04-.706-.22-.745-.842-1.06-.896-1.735-.04-.868 1.103-1.594 2.29-2.394 3.435-.296.422-.09.844-.078 1.284-.804.028-1.243-.47-1.83-.695-.54-.208-1.094-.392-1.452-.519-.012-.78.348-.679.63-.735 1.044-.207 1.215-1.087 1.535-1.75.312-.646-.523-.733-.943-.93-.617-.29-.93-.977-1.92-1.053.311 1.244-.16 2.372-.437 3.52-1.936-.203-2.424-.878-1.814-2.44.082-.21.239-.413.264-.623.05-.43.788-.913.045-1.286-.61-.308-1.255-.37-1.831.2-.124.121-.245.245-.366.367-.36-.12-.166-.344-.113-.54.074-.278.512-.66-.07-.782-.463-.097-.54.257-.62.623-.191.887-.908 1.335-2.258 1.495 1.056 1.07 1.228 2.341.844 3.743-.042.156-.143.426-.086.457 1.169.613.614 2.285 2.027 2.755.229.077.349.383.727.827-1.653-.298-2.853-.774-3.958-1.438-.318-.19-.412-.51-.442-.84-.018-.215.016-.436.014-.653-.023-1.999-.614-2.413-2.782-1.94-.3.065-.594.157-.911.241.096.402 1.662.356.369 1.08-.42.234-.812.661-.803.836.046.951-.832 1.314-1.377 1.886-.326.342-.743.636-.994 1.013-.882 1.322-1.062 2.795.728 3.595.88.395 1.656.776 1.46 1.912-.093.547.542.76 1.076.908.902.254 1.818-.103 2.728-.11.345-.003.544-.276.638-.546.217-.627.554-1.289.224-1.9-.384-.708.312-.796.65-1.086.315.042.21.244.224.384.058.635 1.388.53 1.023 1.305-.45.954-.755 1.992-1.829 2.682-1.36.873-1.375.93-.827 2.37.19.493-.333.674-.357 1.034l.085.014-.073-.034c-.414.872.427.85.922.982.75.198 1.79-.018 3.342-.544-.082-.302-.639-.003-.638-.362 0-.29.257-.323.518-.298 1.012.1.902-1.017 1.596-1.215.74-.21 1.053.89 1.974.436.421-.209.852-.191.69-.814-.034-.136.652-.057.923.144.346.256.572.677.19.99-1.282 1.054-1.094 2.402-1.284 3.676-.032.213.005.439.248.57.467-.073.315-.37.304-.614-.02-.398-.012-.857.598-.811.537.04.55.48.436.889-.056.2-.145.393-.288.773 1.216-.426 1.249-1.663 2.252-2.005.573.496.355 1.276.72 1.971.762-.648.66-1.524 1.23-2.15.272-.296-.194-.831-.682-.967-.716-.198-.393-.539-.126-.839.453-.508.674-.198.914.174.294.456.65.88 1.499.884-.115-.909-1.35-1.178-1.26-2.089l.908-.107-.018.028c-.33-.775.087-1.35.716-1.902 1.879-1.653 3.74-3.298 5.885-4.71 1.315-.864 2.518-1.821 4.066-2.31-.434-.954-1.432-.753-2.292-.722-.847.031-1.719.04-2.54.149-1.319.175-2.216-.203-2.934-.953 1.271.86 3.385 1.218 4.23.644.68-.462.781-1.032.237-1.756.768.718 1.658 1.03 2.44 1.483.443.256 1.244.35.837 1.148m-88.099-68.617c-.181.054-.369.094-.542.166-1.156.48-1.186.5-.585 1.432.37.575.828 1.087.162 1.785-.213.222-.419.444-.772.445-.406 0-.455-.303-.545-.551-.197-.547-.372-1.101-.573-1.698-2.2 1.795-2.191 2.194.055 3.02-.434.59-1.02.981-1.613 1.35-1.544-.89-2.232-2.583-4.122-2.977-.028-.46.24-.794.48-1.125.273-.377.5-.635.901-.068.352.496 1.008.393 1.451-.033.352-.339.534-.871.226-1.243-.436-.524-.679.064-.989.292-.35.257-.769.257-.912-.103-.11-.28.242-.47.566-.562.363-.104.737-.188 1.08-.334.453-.194.401-.54.274-.861-.165-.418-.455-.242-.86-.183-1.223.176-1.233 1.186-1.852 1.877-.544-.206-.427-.723-.62-1.061-.2-.349-.46-.747-.955-.558-.583.223-.636.658-.24 1.083.06.063.017.2.027.426-.766.077-1.698-.396-2.281.535-.367.585-.332 1.013.372 1.062.643.045 1.014.288 1.357.68.107.125.243.265.403.312.703.206.706.194.391.845-.199.412-.228.889-.664 1.207-.23.168-.446.485-.773.213-.17-.14-.368-.339-.375-.527-.015-.432.39-.315.678-.34.178-.016.396-.013.413-.365-.577-.63-1.49-.373-2.317-.333-.33.016-.552.245-.653.55-.125.375-.035.661.359.813.696.269 1.281.622 1.393 1.363-.2.372.102.703.025 1.066-.634 1.915-.505 2.061 1.699 1.92.251-.015.409.043.158.064-.102.008-.182.128-.246.24-.045.155.001.267.138.345l3.642-.441c-.628.544-1.505.56-2.063 1.346 1.224 1.082 2.466 2.222 2.948 3.813-.597-.175-.94.166-1.152.733-.107.28-.232.553.04.762.616.479.956-.345 1.469-.358.35.29-.497.546-.086.834.757.015.737-.909 1.665-1.02-.648 1.01-.53 1.844.416 2.563.603-.218.05-1.006.7-1.173.62-.041.672.561 1.084.739.246-.009.352-.142.361-.317.057-1.012.499-.646.95-.266-.098-1.063-.093-1.066-1.116-2.504-.177-.248-.288-.49-.027-.744.278-.271.54-.236.735.067.162.252.468.185.66.08.779-.42 1.479-.855 1.957.236.1.225.844-.485 1.198.18.095.181.952.106 1.418-.012.533-.135.245-.66.385-.997.636-1.526.558-1.605-.961-2.488-1.392-.809-1.493-1.23-.644-2.697.788.056.67.677.754 1.106.157.814.685 1.032 1.565.97.91-.064 1.743-.31 1.825-1.182.07-.752.473-1.213.985-1.756 1.057-1.125.975-2.063-.34-2.8-1.135-.638-1.74-1.683-2.703-2.446-.49-.388-.865-.263-1.334-.136-.478.13-.75.43-.79.873-.056.643.548 1.284-.068 1.922-.63.652-1.4 1.173-2.346 1.76-.092-.643.474-.97.616-1.4.352-1.06.525-2.12.403-3.188-.089-.796.38-1.907-1.23-1.92-.192-.002-.297-.469-.533-.601-.235-.133-.445.067-.521.315l.02-.023z"/><path d="M111.2 261.57c-1.182-.473-2.448.06-3.67.028-.677-.016-1.358.095-2.11-.26.968-.402 1.842-.304 2.672-.262 2.449.123 4.38-.857 6.067-2.398.88-.802.766-1.123-.46-1.399-.295-.066-.604-.092-.908-.138-.238-.035-.5-.032-.715-.423 1.472-.626 2.822.741 4.472-.04-1.117-.496-2.285-.349-3.143-.995.851-.332 1.537.038 2.269.185.77.154 1.47.402 1.84-.757.175-.55 1.167-.99 1.849-1.397.57-.342 1.096-.766 1.154-1.297.108-.996.628-1.43 2.158-1.24-1.373-.88-2.579-1.113-3.716-1.43-.718-.199-1.208.211-1.22.87-.002.137.14.266.217.399.06-.155.1-.317.186-.46.202-.337.495-.293.776-.147.225.116.4.385.163.52-1.344.762-.79 2.162-1.59 3.075-.338.045-.518-.098-.547-.324-.12-.931-.78-.949-1.604-.658-.817.29-1.461.16-2.264-.104-1.51-.496-3.194-.626-4.601-1.382-.294-.158-.711-.156-1.092-.037-.366.113-.652.186-.548.674.228 1.066-.12 1.809-1.254 1.976-.75.11-.616.228-.524.603.115.474.245.936.567 1.338.347.434.582.92.507 1.62-.991.21-2.01.518-3.02.273-.908-.22-1.211.106-1.316.835-.02.135-.217.263-.3.358-.192.088-.322.063-.346-.071-.253-1.442-.25-1.468-1.94-1.333-.548.044-.936-.17-1.391-.303-.945-.273-1.046-.203-1.335.763-.064.216-.092.439-.181.646a.568.568 0 0 1-.578.357c-.286-.013-.42-.178-.503-.387-.208-.52.008-.957.771-1.406-1.21-.02-1.835.113-2.045 1.13-.116.556.171.639.505.833.263.154.498.334.197.652-.252.266-.517.252-.815.086-.292-.162-.398-.558-.862-.503.296 1.457 1.417 2.38 2.854 2.299.459-.027.991-.13.965.4-.023.484-.417.803-1.052.646-.236-.058-.477-.101-.8.102.063.447.023.942-.094 1.46-.186.821.209 1.087 1.213 1.096 1.24.012 2.468-.128 3.708-.256 1.394-.142 2.837-.154 4.252-.157.58 0 1.101-.044 1.601-.386.6-.41 1.64-.681 1.57-1.356-.081-.761-1.18-.508-1.846-.623-1.312-.225-2.591-.574-3.99-.518-.57.022-1.23-.037-1.595-.56 3.012-.058 5.906.6 8.924.314.862-.082 1.752-.03 2.527-.552l-.01.021zm69.667-115.202c-.07-.33-.298-.699-.187-.981.56-1.42.006-2.258-1.47-2.656-.521-.141-.812-.495-1.135-.818-.497-.498-1.165-.698-1.875-.572-.905.161-1.153-.11-1.022-.852.027-.152-.064-.31-.418-.364-.486 1.057-.695 2.182-.937 3.293-.107.496.273.703.8.686.115-.003.286-.05.34-.126.19-.266-.148-.191-.247-.273-.252-.209-.365-.45-.124-.736.123-.147.374-.223.508-.113.972.796 2.334.25 3.434.58.144.549-.392.518-.67.67-.475.257-.708.66-.442 1.011 1.285 1.7.008 3.477-.13 5.215-.057.713-.77 1.361-.441 2.119.086.2.174.398.314.716 1.301-.953 2.28-.589 2.813.464.247.486.48.18.668.138.932-.213 1.499-.928 2.22-1.431.647-.453 1.053-.365 1.238.316.09.326.29.662.24.979-.184 1.125.116 1.962 1.598 2.26-1.658.636-1.448.624-1.458 2.09-.007 1.15-.197 2.302.003 3.456.147.851.766.854 1.493.872.55.014.604-.343.762-.651.117-.23.304-.393.595-.286.37.136.396.395.162.68-.181.22-.419.414-.348.739 1.796-.844 2.242-1.438 2.136-2.904-.026-.354-.114-.736.318-.898.442-.165.695.13.799.483.078.266.033.711.325.728.598.036 1.233-.046 1.833-.176.96-.208.926-.825.785-1.493a399.83 399.83 0 0 1-1.327-6.552c-.136-.705-.575-1.213-1.109-1.683-.262-.23-.505-.522-.954-.38-.463.146-.48.545-.51.867-.115 1.245-.19 2.49-.273 3.736-.018.273.003.546-.09.833-.504-.856-.634-1.747-.534-2.768.166-1.699-.11-3.37-.62-4.983-.054-.167-.21-.26-.581-.25-.232 1.453 1.12 2.77.295 4.446-.776-1.725.01-3.785-1.503-5.055-.875-.733-1.737-1.569-2.938-1.901-.719.255-.515.796-.678 1.2-.151.372.191.781-.238 1.2-.837-.33-.476-.976-.38-1.526.109-.618.25-1.23-.23-1.79-.676.747-.088 1.738-.839 2.43-.115.166-.033.333-.044.5-.095-.17-.022-.33.073-.489m-11.557 79.218c-1.516-.11-3.016-.001-4.487.555-.504.19-1.242.191-1.37.742-.143.623.583.797 1.043 1.089.256.163.695.181.684.687-1.508.212-2.047-1.443-3.583-1.238.843 1.01 2.305 1.349 3.198 2.481-.325-.075-.433-.077-.51-.12-1.087-.601-2.097-1.616-3.274-1.694-1.106-.074-2.286 1.065-3.597 1.31-.455.084-.734.392-1.025.695-.665.695-.676.687-1.879.667.813.956 1.664 1.72 2.793 2.292.462-.586-.18-.564-.294-.786-.101-.198-.214-.52-.047-.561 1.32-.327 1.642-1.597 2.626-2.172.472.14.425.402.286.66-.274.514.04.718.518.744 2.367.128 3.664 1.636 5.111 2.885.578.498 1.177.778 1.798.997.522-.172.439-.443.43-.702-.02-.635.27-.857 1.068-1.03 1.45-.31 1.434-.42 1.425-1.703-.003-.526-.033-1.049-.05-1.573 1.694-.168 1.897-.12 3.64.872.459-.246.577-.843 1.3-.952.185.365-.203.656-.332.97-.123.302-.06.569.272.645 1.542.354 2.606 1.436 4.134 1.814.736.182 1.248.074 1.638-.587.164-.28.197-.501.025-.735-.188-.257-.487-.535.055-.763.494-.207.605.155.738.443.062.138.136.271.345.27.363-1.372.01-2.185-1.238-2.636-.385-.14-.975-.178-.807-.622.19-.502.761-.463 1.253-.303.216.071.45.105.723.166.044-.503.1-.898.484-1.316.433-.472.334-1.04-.404-1.272-.942-.296-1.802-.713-2.831-.894-1.383-.242-2.685-.75-4-1.189-.824-.275-1.637-.257-2.494.013-.367.115-.726.246-.838.598-.127.404.249.552.553.686 1.194.526 2.21 1.248 3.49 2.135-1.234.026-1.806-.525-2.499-.836-1.722-.774-3.415-1.606-5.484-1.648l.016-.023c.133.67 1.095.453 1.39.95.63.104 1.143.46 1.786.534-.658-.044-1.164-.408-1.778-.545M131 308.195a1.79 1.79 0 0 1-.11-1.004c.173-.986.071-1.757-1.265-2.015-.543-.106-.98-.645-1.397-1.044-.5-.478-1.103-.796-1.834-.652-1.21.237-1.247-.379-1.007-1.289-1.116.48-.76 1.275-1.015 1.85-.261.59-.554 1.197-.362 1.841.123.413.455.494.882.377.216-.058.57-.143.158-.372-.39-.218-.523-.53-.198-.828.261-.24.61-.038.826.16.342.315.74.328 1.216.266.571-.074 1.148-.062 1.571.213.218.214.117.42-.03.485-1.035.457-1.073 1.144-.564 1.829.425.571.375 1.039.155 1.722-.421 1.315-.373 2.703-1.016 4.012-.224.458-.003 1.01.428 1.555.947-.802 1.844-.437 2.476.199.62.625 1.11.574 1.8.1.618-.423 1.086-1.036 1.864-1.268 1.111.942 1.09 2.173.886 3.397.373.32.793-.15 1.109.093.132.102.29.216.334.356.06.19-.137.34-.326.346-1.306.04-1.296.697-.993 1.512.06.158.099.328.11.496.038.561-.54 1.126-.195 1.667.409.645 1.19.074 1.75.252.15.048.327.202.343.33.016.135-.105.348-.238.44-.503.348-1.04.42-1.613-.047.05.66-.08 1.276.68 1.342.505.044 1.17.23 1.452-.51.108-.283.347-.536.727-.34.51.264.187.55-.06.833-.121.137-.257.283-.175.47 1.544-.565 2.213-1.398 2.15-2.757-.017-.35-.137-.739.36-.86.61-.149.653.311.818.683.088.203-.156 1.012.636.477.7-.472 2.295.403 2.193-1.249-.015-.226-.007-.457-.05-.677-.413-2.103-.867-4.198-1.238-6.309-.164-.932-.858-1.463-1.568-1.982-.485-.354-1.115-.091-1.067.482.12 1.425-.57 2.844-.243 4.26.142.618.057 1.24-.481 1.81.482-1.63-.25-3.136-.17-4.767.076-1.605.03-3.415-1.047-4.868l.033.008c-.876.22-.386.732-.3 1.075.236.935.163 1.921.345 2.411-.155-.708-.156-1.9-.545-3.014-.448-1.29-1.77-1.792-2.837-2.516-1.041-.707-1.807-.629-2.001.768.089-.873.512-1.822-.491-2.458l.017.006c-.34.457-.463.954-.408 1.471.05.472.003.904-.484 1.227-.114.159-.053.33-.082.494-.03-.169-.027-.335.091-.49m25.162-59.011c-.118.302-.428.395-.732.504-.457.164-.805.438-.789.86.015.394.458.457.814.492 1.337.133 1.568.977 1.702 1.896a5.98 5.98 0 0 1 .251-.011c.043-.031.133-.064.141-.103.041-.178.203-.205.192-.07-.09 1.155-.877 2.212-1.101 3.35-.116.588-.437 1.408.249 1.627.783.252 1.862.518 2.693-.075.733-.522 1.2-.514 2.066-.39 1.434.207 2.883-.626 4.353-.882.255-.07.084.303.086.085.002-.05-.042-.068-.13-.052-2.866.549-5.623 1.581-8.51 2.048-.538.086-.899.482-1.078.942a1.044 1.044 0 0 0-.01.449c.001.052.026.107.012.157-.619 2.214-.289 2.497 2.482 2.11-.211.247-.767.32-.658.687.13.436.565.254.93.134.368-.119.73-.284 1.121-.173.439-.075.877-.303 1.515-.044-.678.38-1.233.81-.696 1.432.296.344.77.498 1.156.272.759-.444.067-.975.14-1.509.532-.106.471.585.942.475.481-.113.036-.633.663-.852.38.826.91 1.617 2.317 1.523.115-.528-1.062-.745-.453-1.313.49-.457 1.093.008 1.654-.029.65-.377-1.511-.832.211-1.215.357-.078.065-.354-.118-.442-.694-.33-1.32-.787-2.254-.686-.292.032-.472-.106-.497-.36-.028-.303.21-.34.491-.38 1.002-.145.876-1.13 1.433-1.412.476-.242 1.195.1 1.968-.152 1.293-.423.956-1.562 1.827-2.11.121-.076-.16-.32-.364-.458-.856-.587-1.59-1.12-3.015-.68-1.139.352-2.18-.2-2.32-.822-.054-.25-.159-.54.177-.756.347-.223.564-.035.83.118 1.459.838 2.382.609 3.119-.762.106-.199.27-.526.174-.615-.875-.817-.446-1.93-.677-2.889-.231-.96-1.346-1.53-2.678-1.098-1.21.393-2.103-.138-3.163-.125-1.059.014-1.095-.206-1.55.303-.468.524-.519.953-.022 1.45 1.475 1.478 1.46 1.703.166 3.7-.657-.41-.06-1.085-.363-1.59-.531-.887-1.308-1.56-2.044-2.285-.74-.73-1.59-.933-2.673-.247l.02-.027zm58.906 23.752c-1.687.793-3.135 1.885-4.242 3.355-.508.674-1.015 1.295-1.905 1.48l-.035.061.06-.045c.664-1.163 1.556-2.162 2.45-3.16.194-.217.46-.43.308-.736-.148-.298-.48-.28-.783-.259-.583.042-1.198-.106-1.72.302-1.713 1.34-3.472 2.631-5.126 4.037-.995.845-.766 1.684.395 2.21.451.204.629-.192.939-.29a.567.567 0 0 1 .63.181c.192.216.13.477-.086.59-1.332.693-.97 1.805-.905 2.844.524.206.453-.246.626-.414.115-.112.301-.245.437-.23.354.036.165.309.184.51.082.85.81 1.288 1.462.883.165-.103.67-.332.008-.515a1.292 1.292 0 0 1-.572-.354c-.155-.169-.221-.424-.05-.634.173-.211.396-.168.629-.056 1.145.553 1.143.546 1.855-.426.133-.183.282-.402.478-.49.984-.437.897-1.086.33-1.947 1.032.531 1.683.334 2.147-.558.118-.226.445-.37.698-.515 1.1-.627 1.176-.58 1.377.64.075.45.17.905.334 1.327.124.315.336.3.76.265.642-.052 1.711-.374 1.92.81.077.442.456.306.67.139.32-.252.747-.553.82-.888.252-1.19 1.179-1.998 1.69-3.03.247-.498.57-.945 1.084-1.1 1.118-.336 1.322-.982.72-1.994 1.328.19 1.756 1.695 3.046 1.26.213.598-.544.735-.307 1.337 1.233-.706 1.48-1.974 2.1-3.121-.68.465-1.225.795-1.912.055-.485-.525-1.358-.177-2.046-.271-1.374-.189-2.677-.316-3.378 1.382-.352-.868.606-1.184.44-1.913-.995.53-1.348 1.597-2.359 2.44.02-.838.494-1.208.734-1.661.373-.702.272-.938-.556-.963-1.18-.036-2.37-.11-3.539.207-.447.434-1.015.71-1.503 1.09-.086.256-.49.22-.522.526-.04-.345.421-.225.478-.483.476-.437 1.065-.718 1.562-1.122l.15-.772.025.016zm-54.434-97.448c-.295-.01-.955.056-.586-.343.68-.737.375-1.306.092-2.016l-.739.868c-.614-.115-.623-.725-1.069-.97-.06.218-.089.584-.173.599-1.404.25-1.113 1.024-.746 1.792.138.288.388.54.019.825-.487.375-.66.013-.867-.295-.048-.073-.191-.109-.3-.125-1.518-.24-1.581-.23-2.429-.993-.459-.413-.946-.498-1.546-.333-.406.113-.82.215-.567.746.162.342-.14.603-.277.884-.192.402-.145.716.253.953.382.229.684.536.891.907.503.905.34 1.26-.841 1.926-.285-.112-.212-.319-.142-.528.226-.663.27-1.269-.555-1.574-.938-.345-1.762-.116-2.318.727-.228.346-.505.539-.865.744-1.424.816-1.752 1.73-.788 2.86.663.775.931 1.709 1.47 2.523.253.384.337.692.87.648.51-.043.823-.288 1.014-.753.702-1.695.716-1.69 2.982-2.21-1.767 1.284-1.77 3.014-2.36 4.534-.156.399.212.625.477.695.636.168.355.686.508 1.011.42.246.611-.213.924-.261.882-.134 1.2-.593.97-1.356-.127-.42-.08-.83.077-1.242a5.067 5.067 0 0 1-.051-.194c.788-1.104 2.161-1.147 3.288-1.629.742-.317 1.796-.61 1.365-1.5-.33-.683-.569-2.01-2.116-1.379-.127.18.052-.051-.078.129-.09.123-.178.247-.286.359.047-.12.18-.184.244-.303 1.159-2.251-1.736-2.746-1.967-4.43.226 1.075 1.465.954 2.175 1.553 1.004.85.982 2.08 1.822 2.97.642.68 1.072.913 1.94.594l.15-.183c-.035-.176-.356-.375-.082-.508.222-.11.556.015.831-.03 1.031-.166 1.182-.44.72-1.245-.078-.137-.165-.27-.25-.403-.199-.31-.415-.61-.595-.929-.328-.58.478-.23.491-.48.035-.592-.906-.789-.677-1.475.424-.256.426.567.766.25.308-.288.768-.556.737-1.037-.02-.32-.304-.408-.616-.383-.367.03-.597.348-.897.456-.536.191-.193-.302-.308-.455l.015.009z"/><path d="M154.195 184.748c.73-.253 1.45-.514 1.347.693-.034.394.032.793.055 1.258.818.103 1.477-.421 1.739-.932.34-.665-.248-1.268-.828-1.69.086-.477.55-.395.824-.57.296-.188.554-.468.955-.454.628 1.355.877 2.908 2.156 3.924.54.428.022.713-.205.978-.235.273-.594.435-.924.105-.12-.119-.159-.313-.28-.43-.482-.463-.912-.437-1.306.163-.482.733-.372 1.61-.74 2.38-.152.318.179.471.53.48.894.024 1.501-.321 1.727-1.19l-.125-.06.113.078c.28-.022.623-.173.697.259.056.332.02.694.144.995.1.242.358.466.711.384.253-.059.467-.248.445-.48-.07-.706.233-.868.807-.52.57.344 1.031.195 1.429-.225.33-.348.671-.801-.073-1.055-.434-.147-.726-.363-.812-.795-.181-.91-.743-.629-1.53.025.377-1.078 1.058-1.414 1.435-1.958.176-.162-.072.03.107-.13-.037.044-.088.072-.13.11.25.828 1.018 1.066 1.744 1.309.385.129.823.169 1.096-.316.216-.383.043-.59-.19-.894-.78-1.016-.753-1.035.238-2.226.145.542.252 1.015.4 1.474.11.333.412.384.732.308.317-.076.566-.21.406-.597-.145-.35-.127-.75.274-.878.46-.148.718.322 1.062.519.375.214.287.474.13.86-.581 1.434-.465 1.673.502 2.348.686.479 1.325.456 1.983-.021.632-.459 1.327-.911 1.613-1.636.455-1.156 1.455-1.691 2.479-2.24.15-.08.39-.28.443-.112.385 1.19 1.763.194 2.342.95.17.223.482.121.606-.085.337-.558 1.057-.534 1.471-.972.396-.419.837-.608 1.44-.295.648.336 1.246.06 1.843-.363-1.034-.436-3.108-.727-3.902-.522-.942.243-1.795.418-2.78-.03-1.093-.496-2.36-.087-3.551 0-.166.012-.413.211-.479.16-1.658-1.31-3.337-.036-5.02.059 1.565-1.377 3.406-1.476 5.266-1.048 1.632.376 3.204-.034 4.83-.304l-5.054-.596.034.013c-1.62.403-3.251.152-4.876.213-.542.766-1.23 1.133-2.126.64-.775-.428-1.61-.313-2.236-.336.638-.073 1.453-.014 2.277.184.744.179 1.552.311 2.118-.475l-2.753-1.763.01-.013.13.312c.119.285.62.462.32.855-.258.335-.653.184-.995.13-.701-.111-1.404-.22-2.099-.358-.424-.085-.825-.034-1.227.103v-.002c-.916 1.123-2.237 1.66-3.537 2.182-.891.357-1.802.672-2.665 1.093-.444.216-.89.456-.545 1.043l-.022-.016zm3.394 68.395c-.388.274-.749.32-1.168.076-.591-.344-1.28-.565-1.762-1.396-.247 1.091-.589 1.984.02 2.58.483.472 1.36.301 2.245-.436l-.422 2.675c-1.399-.669-2.886-.662-4.333-.665-1.053-.002-1.48.442-1.575 1.455-.047.498-.271.663-.721.835-.402.154-.76.409-1.141.614-.494.267-.732.627-.596 1.121.16.587.64.51 1.17.407 1.127-.216 1.757.196 1.966 1.41-.642-.441-1.236-.526-1.87-.515-.325.006-.617-.034-.773.303-.165.36-.146.624.332.756.337.093.754.243.583.668-.195.488-.75.571-1.23.71-.456.131-.645-.074-.822-.41-.376-.707-.887-1.216-1.97-.978-1.359.299-1.524.405-1.781 1.559-.22.985.128 1.8.579 2.652.333.63 1.326 1.231.393 2.176-.092.093.067.407.155.6.269.59.007.884-.655.726-.803-.193-1.158.116-1.366.748-.018.053.009.121-.021.164-1.015 1.44-1.043 1.441-1.052 3-.002.46-.113.749-.631.884-.404.107-.674.363-.75.707-.09.411-.549 1.002-.033 1.208.65.26.654-.429.872-.787.21-.343.422-.79.764-.95.832-.394 1.149-1.045 1.45-1.725.308-.699.74-1.283 1.484-1.696.494-.275.748-.787 1.15-1.129.943-.801.788-2.144 2.244-2.774 1.182-.512 1.29-2.034 2.286-2.872.06-.048.12-.096.18-.14.163-.165.365-.26.604-.298a.915.915 0 0 0 .359-.307c.27-.612.337-1.228.202-1.885.265.538.738.754 1.306.439.983-.543 1.743-1.25 1.526-2.334.357.838-.359 1.36-.89 1.99-.745.88-2.046 1.425-2.198 2.673.035.18.153.285.352.32.291.021.566-.042.834-.152 1.315-.582 2.75-.78 4.103-1.236.514-.172 1.336-.345 1.209-.872-.165-.686-.996-.32-1.563-.238-.548.08-1.078.281-1.714.44.597-1.198 2.333-1.734 2.175-3.192l.017.012c.027-.336-.814.39-.53-.364.658-1.762.612-3.622 1.284-5.392.157-.412.24-.89-.29-1.17l.013.005z"/><path d="M150.54 265.956c-.34 1.222-1.239 2.172-2.236 3.02-.934.796-1.605 1.712-2.26 2.668-.764 1.112-1.606 2.186-2.335 3.336 1.811-.971 2.097-3.256 4.504-4.07-.883 1.476-2.116 2.492-2.529 3.946-.08-.06-.014.037.07.046.56.062 1.087.328 1.693.111-.349-.423.01-.873.044-1.312.019-.254-.034-.51.263-.73.377-.1.64.296 1.095.139 1.225-.425 2.409-.216 3.593.017 1.013.2 1.07.14 1.293-.833.012-.05-.019-.115.008-.152.625-.865.887-1.69-.328-2.26.93-.704 2.03-.535 2.708-1.283.16-.176.475.465 1.073.417 1.409-.113 1.41-.033 2.07-1.076.559.081.135.657.495.838 1.197-.406.21-1.127.369-1.689.264-.935-.957-.643-1.718-.89.569-.557.949-1.167.557-1.854-2.364-.41-4.456.521-6.547 1.44-.51 1.225-.459 1.263 1.555 1.118.374.142.747.056.952-.024-.16.043-.483.202-.829.053-.838.011-1.675.14-2.514.16-.623.016-.29-.382-.378-.603-.125-.272-.324-.473-.669-.533m-48.879-46.243c-.866.508-1.743-.35-2.687.16-.67.362-1.572.269-2.144.96-.202.243-.535-.052-.944-.02.215.546.648.874 1.017 1.252.721-.502 1.523-.875 2.069-1.557.46.298.156.915.758 1.061 1.248.304 1.866 1.338 2.62 2.19.504.57.916 1.254 1.501.025.072-.151.39-.288.59-.287.839 0 .863-.455.884-1.087.035-1.07.24-1.149 1.247-.72.436.188.778.713 1.388.326.193-.122.393-.009.341.156-.294.942.732.973 1.084 1.462.252.351.657.413 1.003-.025.125-.16.29-.407.522-.165.09.093.098.321.045.454-.09.226-.437.46.056.592.26.07.404-.168.576-.314.284-.243-.057-1.056.85-.796.133.038.112-.574.04-.895-.128-.559-.824-.53-1.085-.929.152-.71.813-.174 1.142-.494.404-.392.823-.834.204-1.217-1.477-.917-3.047-1.704-4.782-2.123-.328-.08-.802-.168-1.215.221.137.684 1.123.823 1.38 1.951-1.781-1.912-3.811-1.305-5.737-1.258-.91.024-.912.49-.74 1.101l.017-.024z"/><path d="M111.892 212.61a441.52 441.52 0 0 1-.622-.956c-.35.347-.3.888-1.027 1.276.326-.806-.19-1.167-.629-1.6-.285-.284-.526-.463-.933-.219-.43.259-.633.585-.257.983.197.21.329.455.176.779-.525.4-.928-.055-1.39-.089-.64-.045-.701-.295-.547-.896.31-1.207-.062-1.66-1.206-2.004-1.064-.32-1.7-.062-2.588.97-.746.868-.92 1.89-1.274 2.855-.18.491-.086.91-.931 1.044-.53.084-.68.744-.669 1.38-.963-1.155-2.308-.428-3.43-.574-.234-.03-.394.093-.437.245-.224.773-1.224 1.026-1.545 1.75-.239.534-.646.83-1.34.485-.345-.173-.758.033-1.043.299-.292.274-.985.484-.71.9.374.567.692-.136 1.05-.25.3-.096.634-.17.941-.16 1.137.043 2.117-.294 3.014-.963a2.508 2.508 0 0 1 1.44-.488c1.823-.032 3.531-.425 5.078-1.416.098-.063.282-.173.31-.15 1.314 1.02 2.352-.33 3.515-.544.317-.059.626-.16.939-.242l-.026-.015c-.497.872-1.249 1.462-2.346 1.667-.176.168-.15.287.08.359.425.128.708-.203 1.051-.322 1.954-.68 3.84-.953 5.547.192.18.12.413.22.831-.001l-1.522-.911c.44-.548 1.153-.449 1.667-.701l-.08-.298c-1.476-.57-2.892.154-4.325.453 1.653-.448 2.195-1.86 3.238-2.838m63.008-31.45c.06-.202-.338-.83.132-.56.752.435.397-.303.606-.312.36-.014.442.293.62.478.936.967 2.214.705 3.39.448.439-.096.911-.11 1.485-.272-.539-.477-.603-1.109-.94-1.647-.583.104.058.967-.724.844-.528-.083-1.284.676-1.305.352-.071-1.03-1.447-.987-1.583-1.883-.055-.365-.325-.704-.547-1.026-.321-.465-.156-1.278-.745-1.443-.653-.182-1.282.573-2.097.488-.462-.049-.654.511-.766.89-.197.66-.65.601-1.165.455-.481-.32-.537-1.142-1.44-1.052.146-.654-.315-1.006-.697-1.456-.344-.404-.605-.633-1.2-.45-.264.082-.473.034-.47-.298.002-.29.936-.37.295-.712-.323-.17-.764.202-.866.513-.241.742-.972-.719-1.064.272-.047.488-.261 1.024.285 1.397.134.091.21.25.305.368-.328.531-.65.136-.977.115-.504-.033-.801.307-1.056.639-.307.4.066.64.305.851a87.292 87.292 0 0 0 3.17 2.691c.254.203.66.269 1.013.355.833.204.713-.404.829-.818.833.154 1.122 1.173 1.892 1.118.854-.06 1.583.034 2.317.302.36-.146.84-.11.998-.646z"/></g></svg>