<svg width="212" height="336" viewBox="0 0 212 336" xmlns="http://www.w3.org/2000/svg"><title>svg/album_list/leaves_white_2</title><g fill="#FFF" fill-rule="evenodd" opacity=".702"><path d="M171.582 220.74c.022-.547.332-.903.801-1.129 1.322-.634 2.614-1.324 3.984-1.868 1.307-.518 2.627-.281 3.78.13 1.857.66 3.84.668 5.677 1.364 1.708.649 3.445 1.23 5.155 1.878.859.325 1.032 1.622 2.195 1.343.244.648.24 1.307-.073 1.914-.213.41-.797.868-.115 1.176.608.275.676-.515.903-.876.149-.237.136-.58.172-.877.042-.353-.021-.777.48-.843.397-.051.691.19.95.461.3.316-.025.47-.128.728-.348.872-.844 1.745.654 2.285.522.189.549 1.494 1.83 1.072-.725-.758-.437-1.713-.757-2.557 1.459-.332 2.004 1.462 3.324 1.185.116-.503-.334-.657-.47-.978-.17-.404-.402-.804.162-1.07.454-.215.87-.074 1.107.34.174.3.221.671.375 1.177.29-.55.28-1.016.066-1.386-.805-1.395-1.394-2.994-3.194-3.523-.455-.133-.775-.45-.552-.953.215-.483.38-1.062 1.055-1.137.092-.01.224.057.29.131.738.842 1.555.771 2.114-.192.756-1.304.756-1.304 1.875.016.512.365 1.049 0 1.571.05-.518-.034-1.056.362-1.556-.07-.29.232-.412.556.036.633 1.422.24 2.797-.061 4.145-.506.411-.135.145-.476.21-.616.286-.628.19-1.854 1.522-1.305.166.068.27.048.246-.122-.025-.164-.102-.446-.187-.457-.932-.125-1.052-.536-.939-1.465.135-1.108-.712-1.891-1.955-1.909-1.769-.025-2.633-1.41-3.854-2.251-.441-.305-.163-.823.094-1.142.428-.529.531-1.037.133-1.597.421-.26.737-.017 1.081.081.443.127.445.212.44.769-.017 1.818 1.863 2.873 3.576 2.201.398-.156.811-.287 1.186-.488 1.164-.625 1.546-1.296 1.117-2.531-.33-.95-.118-1.623.458-2.336.3-.372.586-.796.737-1.243.524-1.568-.192-3.262-1.72-4.079-.534-.285-1.145-.426-1.702-.67-.844-.37-2.025-.288-2.208-1.57-.643.186-.654-1.067-1.477-.6-.408.23-.733-.175-.77-.533-.056-.553.457-.41.784-.47.168-.032.334-.074.498-.24-.72-.151-1.428-.176-2.16.046-2.126.643-2.66 1.483-1.642 3.427.883 1.687.452 2.88-.756 4.054-.707.687-1.019 1.795-2.127 2.081-.078-.121-.152-.198-.138-.22.998-1.506.567-3.273.914-4.898.061-.286.083-.823-.028-.865-1.586-.615-.573-2.437-1.62-3.333-.399-.34-.038-.881.356-1.248.186-.173.154-.451-.055-.643-.267-.244-.37.08-.556.143-1.196.406-2.341.041-2.807-.934-.176-.37-.273-.675-.737-.565-.165.04-.365.154-.441.292-.278.497.238.567.473.794.079.077.113.198.274.496-1.012-.268-1.785-.003-2.44.636-.436.423-.49.793-.028 1.227.533.502 1.065 1.008 1.554 1.551.902 1.004.624 2.785-.518 3.478-.44.267-.625-.01-.855-.341-.78-1.124-1.71-2.161-1.902-3.825-1.235 1.208-1.3 2.876-2.762 3.772 1.422.825 2.191 2.573 4.204 1.615-.255.903-1.782 3.225-2.965 4.495.436-1.486-.422-1.99-1.29-2.526-1.036-.64-2.035-1.342-3.06-2.002-.356-.23-.72-.48-1.12-.601-.805-.245-1.132.002-1.282.915-.068.415-.009.873-.662.991-.272-1.407.233-2.747.335-4.11.036-.5.438-.857.941-1.02.231-.076.557-.098.576.202.088 1.365 1.041.705 1.627.639.73-.083.945-.67.891-1.357-.027-.362-.001-.73-.034-1.091-.036-.41.011-.913-.597-.954-.497-.033-.783.254-.918.719-.067.228-.13.484-.28.655-.36.416-.867.4-1.362.317-.376-.063-.492-.346-.43-.674.09-.49.255-.977.863-1.022.566-.042 1.04-.194 1.513-.545.696-.514.778-1.04.273-1.679-.33-.418-.63-.902-1.332-1.023-.504.285-.146 1.516-1.316 1.306-.28-.05-.479.77-.475 1.27.007.8-.207 1.537-.682 2.51-.712-1.554-1.827-2.496-2.963-3.434-.501.35-.501.95-.693 1.44-.18.46-.231.942.526 1.052.31.045.476.406.344.727-.12.292-.404.426-.733.472-.48.066-.868-.376-1.415-.131-.997.447-1.686 1.857-1.341 2.91.146.447.538.619.849.466 1.509-.74 2.418.113 3.309 1.104.159.177.354.334.641.286.294-.332-.191-.681.007-1.02.244-.417.546-1.006 1.03-.85.582.188.357.813.147 1.231-.425.845-.555 1.724-.494 2.647.033.504-.13.952-.373 1.386-.667 1.19-1.13 1.188-1.932.04-.425-.61-.129-.868.415-1.066.424-.155 1.003.173 1.29-.37.03-.353-.23-.432-.44-.528-1.159-.536-2.34.108-3.53-.007-.454-.043-1.16.582-1.051 1.53.093.81.38 1.327 1.139 1.365 1.351.067 2.314.67 2.503 1.951.18 1.21-.271 2.346-1.231 3.161-.325-.117-.386-.293-.302-.457.837-1.606.84-1.603-.804-2.645-1.285-.815-1.46-.83-2.038-.092-.46.588-.757 1.15.262 1.532.261.097.478.378.65.62.426.595.227 1.076-.495 1.126-.67.046-1.354.025-2.021-.052-.823-.094-1.273-.335-.952-1.406.366-1.223-.355-2.66-1.373-2.851-.946-.179-1.83-.952-2.847-.621-.998.324-1.575 1.118-1.981 2.037-.92 2.083-1.32 4.222-.831 6.495.129.598.598 1.581-.883 1.318-.433-.077-.91 1.44-.665 2.182.08.244.506.4.107.7-.264.201-.57.216-.866.081-.164-.074-.373-.161-.447-.302-.55-1.037-1.326-.66-2.11-.375-.462.168-.47.149-1.05 1.303-.598-.045-.881-.509-1.122-.963-.632.204-.797.712-.85 1.155-.194 1.628-1.49 2.791-1.811 4.366-.08.398-.533.44-.925.26-.534-.249-1.096-.35-1.523.138a19.908 19.908 0 0 0-1.536 2.027c-.075.111.108.465.256.632.248.28.615.217.792-.046.488-.727 1.257-1.03 1.948-1.48.545-.355 1.004-.417 1.635-.467 1.205-.097 2.035-1.016 2.753-1.937.575-.737 1.96-1.598 2.866-1.589 1.807.02 2.99-1.293 4.466-1.975.503-.233.724-.76 1.48-.851.772-.093.564-1.354 1.039-1.98.78 1.258 1 1.429 2.195.688 1.632-1.009 3.294-2.022 4.598-3.466.406-.45.73-.97 1.31-1.285.427.444.107.782-.172 1.061-.775.78-1.517 1.548-1.967 2.595-.318.74-1.095 1.148-1.843 1.432-1.886.716-3.62 1.797-5.596 2.288a2.696 2.696 0 0 0-1.135.575c-2.836 2.472-6.251 4.028-9.476 5.886-.5.287-1.157.384-1.412 1 .178.19.387.198.535.107 1.707-1.043 3.698-1.508 5.323-2.773 1.439-1.12 3.22-1.725 4.934-2.386 1.89-.73 3.626-1.76 5.321-2.834.658-.416 1.265-.696 2.03-.653l-.014.02zm-39.852-82.681c-.047.514.244.911.509 1.297.818 1.19 1.227 1.267 2.49.523.308-.182.655-.327.91-.566.78-.73 1.62-.735 2.458-.2 1.03.659 2.264 1.012 3.198 1.93-.216.11-.355.232-.413.202-1.423-.733-2.836.074-4.253.019-.354-.014-.96-.094-1.006.166-.286 1.603-2.194.893-2.83 2.035-.326.586-.967-.317-1.603.063.406.502.235 1.14.359 1.693.163.738.026 1.062-.635 1.383-1.096.53-.174.805.166 1.256.433-.527.457-1.227 1.316-1.484-.67 1.029-.585 1.848.434 2.457.497.297.887.307 1.23-.184.239-.34.467-.688.707-1.029 1.25-1.78 2.09-1.86 4.056-.243-1.222.826-1.876 2.234-3.626 2.633 1.166 1.217 2.81.736 3.656 1.767.565-.326.511-.809.742-1.139.48-.686.938-1.343.303-2.24-.289-.407.115-.68.531-.496 1.18.518 2.33 1.097 3.55 1.68-1.283.885-1.265.893-2.005 2.622-.396.926-.865 1.822-1.305 2.73-.211.437-.371.886-.165 1.363.289.665.807.233 1.239.237.345.003.738-.04.911.65-1.314.03-2.588.117-3.859.075-1.053-.034-1.073-.211-.627-1.38.217-.572.14-1.173-.285-1.67-.358-.418-.793-.472-1.297-.271-.276.11-.587.135-.858.254-.375.164-.832.318-.697.872.11.45.383.727.907.631.114-.02.25-.057.346-.017.533.23.521.747.602 1.204.038.217-.139.328-.313.35-.473.055-.98.158-1.2-.453-.04-.111-.043-.242-.103-.339-1.1-1.785-1.879-1.735-2.982.21.246.5 1.16.2 1.216 1.064.03.472.7.228 1.087.28.796.109 1.679-.284 2.497.462-1.092.795-1.81 1.851-2.376 3.062.326.325.91.359 1.508.342.281-.009.642.07.703-.337.06-.404.23-.725.662-.636.464.095.575.489.615.949.113 1.313 1.388 2.142 2.582 1.71.518-.188.903-.626.552-1.088-.87-1.15-.218-1.977.427-2.854.136-.184.23-.398.417-.727-.758-.127-1.67.377-1.99-.62 1.089-.37 4.417-.462 5.2-.117.302.133.81.245.596.699-.213.455-.456 1.06-1.029 1.112-.511.047-.572-.493-.657-.901-.063-.304-.216-.589-.575-.532-.247.038-.438.337-.389.538.281 1.12-.016 2.34 1.022 3.352.512.5.823.488 1.311.367.493-.123.873-.391.837-.986a4.493 4.493 0 0 1 .009-.71c.13-1.408.885-2.099 2.339-2.102.767-.003 1.562-.043 2.148.618-.09.098-.152.225-.223.23-.585.046-1.17-.677-1.685-.21-.664.601-.81 1.556-1.103 2.371-.168.47.366.808.87.947.408.111.802.3.952-.356.06-.264.28-.521.487-.719.6-.57 1.17-.435 1.219.353.052.869.621 1.701.159 2.728-1.041-.462-1.94-.08-2.67.67-.468.48-1.456.89-.56 1.822.04.043-.082.216-.087.33-.025.495-.518.96-.028 1.494.621.676 1.31 1.265 2.223 1.424 2.062.361 4.12.488 6.085-.485.481-.239.967-.243 1.18.345.344.954 1.088.906 1.812.68.356-.112.617-.655 1.003-.083.267.396.173.768-.109 1.141-.225.3-.856.604-.434.988.445.404.191 1.284.995 1.346 1.081.081.801.575.393 1.14-.107.147-.134.32.097.622 1.487-.488 2.695.88 4.255.84.673-.017 1.174.352 1.191 1.235.017.906 1.588 2.148 2.478 2.136.264-.003.44-.166.557-.38.134-.243.026-.442-.13-.643-.334-.434-1.056-.35-1.279-.88-.313-.744-1.205-1.052-1.196-2.146.008-.735-1.054-1.383-1.838-1.82-1.226-.682-2.083-1.459-2.384-2.988-.285-1.456-1.841-2.264-2.675-3.468-.735-1.06-1.683-1.476-3.099-1.419.412-.456.939-.28 1.127-.645.225-.436-.027-.799-.221-1.163-.314-.59-.81-1.017-1.305-1.451-1.276-1.122-2.442-2.37-4.004-3.228.213-.14.338-.268.381-.245 2.058 1.075 4.37 1.73 5.582 4.043 1.384 2.638 3.37 4.836 5.532 6.916 1.535 1.476 2.793 3.235 4.156 4.884.337.408.577.9 1.586 1.224-1.32-1.635-2.057-3.2-3.295-4.441-1.306-1.31-2.49-2.714-3.353-4.356-.133-.253-.172-.554-.255-.833l-.05-.243c-1.218-1.754-2.807-3.217-4.008-4.986l-.235-.088c-.175-.03-.413.003-.518-.098-2.049-1.963-4.188-4.742-3.262-7.721.164-.525.155-1.048.13-1.577-.127-2.494.358-4.924.873-7.338.125-.588.024-1.506 1.102-1.667.32.56-.306.971-.25 1.466.104.162.276.208.446.161.4-.108.786-.334 1.214-.196.503.16.964.196 1.209-.366.197-.454.22-.908-.19-1.303-.166-.16-.272-.378-.404-.57-.307-.178-.607-.399-.983-.171.387-.277.676-.025.972.183.294-.183.692-.22.887-.634-.744-.933-1.741-.729-2.73-.487.089-1.368.083-1.328 1.329-1.153.712.1 1.514.127 1.458-.974-.02-.374.24-.505.501-.65.46-.255.447-.639.277-1.13-.687.408-1.4.71-2.177.71-.515-1.137.97-1.857.5-3.047-.436.318-.788.586-1.152.836-.226.154-.467.098-.659-.06-.281-.231-.172-.507-.078-.801.19-.597 1.05-.311 1.227-1.01-.67-.181-1.21.163-1.59.542-.977.974-2.394 1.636-2.494 3.289a.594.594 0 0 1-.78.53c-.327-.097-.758-.151-.869-.539-.114-.402.745-.175.54-.68-.236-.584-.32-1.3-1.08-1.51-.458-.129-.934-.202-1.284-.743.475-.681.989-1.431.361-2.347-.165-.24-.17-.594.275-.64.38-.04.34-.322.272-.511-.339-.953-.73-1.884-1.65-2.459-.81-.506-1.06-.463-1.537.474-.196.384-.436.457-.803.548-1.606.4-1.687.446-1.693 2.14-.006 1.41-.851 2.42-1.477 3.542-.248.443-.736.457-1.107.254-.578-.316-1.02-.088-1.61.278-.004-.833-.502-1.668.908-1.802.451-.043.896-.562 1.266-.938.54-.549.784-1.17.223-1.894-.288-.372-.468-.825-.73-1.218-.888-1.328-1.538-1.554-2.929-.757-.72.41-1.266.154-1.853-.072-2.935-1.13-4.47-.317-5.127 2.755-.074.344-.194.719-.125 1.045.2.956-.665 1.235-1.074 1.803-.418.581.216 1.43-.488 1.944-.191.139-.404.25-.608.374l-.024.02zM68.245 298.293c.316-.154.681-.242.881-.672-.653-.43-1.302-.785-2.143-.52-.365.116-.79.137-.806-.365-.017-.502.186-.952.856-.84.292.047.58.22.862.206.596-.03 1.277-.05 1.278-.896.002-.74 1.515-.88.726-1.879-.714.415-1.53.609-2.384.71-.176-1.146 1.214-1.844.68-2.99-.565-.025-.67.495-1.017.685-.363.198-.707.255-.947-.105-.232-.347-.025-.659.217-.953.24-.29.902-.036.875-.9-1.764.708-3.028 1.82-3.74 3.39-.653 1.44-.7 1.514-2.09.265.026-.28.198-.202.358-.136.151.061.293.19.466.042-.04-1.435-1.186-1.872-2.389-2.347.525-.928.966-1.676.27-2.785-.475-.758.444-.106.736-.222-.032-1.116-.596-2.025-1.314-2.817-.833-.919-1.492-.857-2.175.223-.29.464-.674.39-1.049.513-1.311.43-1.445.607-1.27 2.023.198 1.59-.96 2.601-1.642 3.807-.171.303-.684.219-1.007.048-.541-.287-1.008-.179-1.523.22-.085-.867-.398-1.632.979-1.758.515-.048.966-.832 1.437-1.29.344-.334.362-.695.126-1.122-.344-.624-.646-1.266-1.137-1.806-1.081-1.189-1.264-1.27-2.726-.569-.674.323-1.212.265-1.868-.034-2.66-1.213-4.713-.102-5.177 2.767-.066.407-.057.826-.077 1.24-.023.48-.094.852-.614 1.163-.492.294-.983.864-.706 1.526.245.585-.103.873-.469.928-.528.08-.287-.519-.465-.775-.056-.08-.175-.12-.422-.275.042 1.535.723 2.603 1.797 3.484.304.249.642.299 1 .085.206-.123.412-.251.634-.34.86-.35 1.401-1.376 2.538-1.143.772.158 3.06 1.51 3.759 2.243-.076.193-.281.28-.417.208-1.517-.802-3.015.467-4.526.033-.1-.029-.328.039-.332.08-.188 1.653-2.172.915-2.81 2.047-.344.612-.969.07-1.471-.006-.154-.024-.398.04-.484.15-.27.349.148.299.287.43.481.451.173 1.1.4 1.658.26.639-.443.83-.949 1.031-.275.11-.302.373-.15.583.175.244.43.464.74.183.214-.194.26-.538.74-.713-.353 1.34.474 1.951 1.51 2.56.606-.812 1.143-1.59 1.74-2.32.719-.878 2.447-.873 3.19-.025.242.275.192.544-.062.771-.755.672-1.328 1.545-2.273 2.008-.252.124-.65.11-.6.52.04.333.338.481.635.539.526.103 1.08.046 1.572.347.402.247.837.44 1.342.702.712-1.255 1.478-2.42.517-4.227l4.599 2.012c-2.518 1.255-2.436 3.843-3.578 5.742-.492.82-.028 1.21 1.11 1.192.407-.006.86-.092 1.044.731-1.365 0-2.664.044-3.957-.014-1.005-.044-1.078-.248-.656-1.248.342-.807.125-1.69-.502-2.052-.46-.267-2.208.152-2.485.636-.246.43-.09.838.34 1.04.246.116.602-.014.866.082.378.137.48.5.477.877-.001.328-.121.58-.485.63-.367.052-.723.052-.905-.368-.117-.268-.216-.557-.392-.788-.928-1.223-1.83-1.181-2.656.107-.33.516-.236.75.404 1.024 1.495.64 1.466.707 3.176.785.366.017.72.037 1.071.373-.195.745-.982.988-1.484 1.36-.636.468.36 1.697-1.129 1.585 1.117.508 2.078 1.184 2.755-.271.048-.102.338-.185.472-.142.375.12.51.42.548.813.154 1.547 1.24 2.31 2.616 1.85.352-.118.83-.44.618-.73-1.117-1.525-.113-2.654.828-3.971-.913-.037-1.836.331-2.287-.913 1.663 0 3.25-.03 4.835.018.52.016 1.19.153 1.281.755.071.474-.49.776-.834 1.09-.365.332-.65.169-.792-.263-.09-.277-.132-.577-.264-.832-.063-.12-.282-.209-.44-.227-.21-.024-.329.174-.333.343-.034 1.349.194 2.663.933 3.805.41.631 1.97.206 2.206-.548.05-.165.027-.352.045-.528.26-2.683 2.097-3.45 4.517-1.875-.274.528-.635.145-.873.02-.767-.401-1.254-.22-1.542.565-.082.222-.16.445-.25.665-.65 1.587-.65 1.587 1.169 2.194.366-.435.375-1.114.954-1.427.429-.231.97-.296 1.002.224.062.98.596 1.93.252 3.06-1.3-.558-2.217.064-3.034.91-.384.395-1.026.77-.321 1.449.097.093-.045.432-.083.656-.233 1.313-.138 1.645 1.076 2.195 1.428.647 2.925 1.083 4.537.667 1.024-.262 2.169-.005 3.086-.763.214-.176.563-.01.795.233 1.189 1.241 1.192 1.238 2.624.596.336.343.345.785.175 1.153-.263.566-.61.94-.165 1.712.384.666.867.835 1.418.989.092.57-.45.913-.329 1.403.115.079.212.203.303.2 1.59-.06 2.96.881 4.532.94.498.02.857.389.791.992-.051.469-.109.973.396 1.273.668.396 1.332.813 2.101.994.128.03.344-.107.452-.224.252-.278.071-.548-.093-.796-.349-.52-1.058-.551-1.416-1.227-.295-.556-.82-.898-.932-1.7-.106-.755-1.005-1.267-1.723-1.724-.446-.283-.949-.436-1.33-.877-.521-.6-1.15-1.011-1.193-1.97-.032-.733-.62-1.38-1.116-1.99-.737-.906-1.703-1.582-2.328-2.632-.365-.614-1.497-.49-2.335-.708 1.276-.752 1.44-1.068.577-2-1.119-1.208-2.3-2.382-3.67-3.344-.53-.373-1.16-.623-1.566-1.17.122-.055.268-.17.319-.138 1.812 1.125 4.195 1.358 5.372 3.49.773 1.397 1.892 2.597 2.568 4.065.12.263.3.535.527.71 2.829 2.182 4.897 5.035 7.123 7.749.262.318.567.603.921.976.322-.612-.152-.83-.33-1.13-1.191-1.998-2.94-3.58-4.276-5.46-1.857-2.612-3.8-5.158-5.888-7.587-.927-1.079-1.968-2.055-2.842-3.196-1.045-1.364-1.521-2.858-1.236-4.486.276-1.571.076-3.143.282-4.718.232-1.753.55-3.487.853-5.226.111-.639.352-1.266 1.02-1.595.118-.088.217-.194.305-.31.451-.534 1.038-.45 1.63-.35h.232m38.948-55.139a.95.95 0 0 1-.709.527c-2.944.4-5.785.608-8.323-1.546-1.743-1.48-3.772-2.633-5.473-4.195-1.138-1.045-2.65-1.777-2.9-3.514-.06-.425-1.087-.057-.677-.754.338-.576.461-1.459 1.473-1.372l-.022.014c-.206-1.106-.306-1.18-.941-.68-.386.303-.738.635-.88 1.128-.086.293-.205.643-.605.457-.259-.12-.478-.372-.647-.611-.233-.326 0-.496.275-.7.888-.656 1.436-1.287.231-2.274-.4-.328.261-1.549-1.137-1.459.35.823.053 1.638-.365 2.586-1.136-.566-1.241-2.09-2.39-2.484-.453.416-.063.607.03.845.166.42.226.831-.197 1.135-.131.095-.37.165-.508.113-.451-.172-.65-.533-.576-1.01.043-.268.236-.533.038-.906-.812 1.747-.423 4.108.876 5.278.302.271.588.474.403.86-.253.523-.763.754-1.325.848-.06.01-.168-.14-.221-.233-.568-1.013-1.174-1.227-1.993-.55-.7.576-1.213.903-1.597-.232a1.152 1.152 0 0 0-.307-.442c-.402-.372-.945-.162-1.407-.299-.737-.219.33-.808-.158-.94-.872-.234-1.756-.619-2.698-.298-.403.138-.819.273-1.18.487-.337.198-.588.712-.31.913.959.694.318 1.426.216 2.167-.104.756-.01 1.46.89 1.754 1.62.53 1.883 2.111 2.64 3.305.235.37-.046.685-.32.94-.261.246-.553.461-.807.714-.18.18.262.895-.467.585-.362-.154-.796-.443-.588-.977.315-.805.01-1.542-.224-2.285-.07-.222-.176-.525-.353-.606-1.228-.556-2.533-.39-3.78-.152-.937.181-1.091 1.033-1.046 1.875.033.613-.268 1.029-.811 1.3-.11.054-.211.123-.322.177-2.574 1.264-2.408 3.758-.66 5.469.391.383.802.747 1.212 1.111.475.421 1.134.67.887 1.575-.089.322.49.731.874 1.012.845.618.84.624-.16 1.343.675.566 1.494.51 2.285.453 1.381-.101 1.981-.585 1.807-1.934-.273-2.093.574-3.282 2.504-3.977.672-.241 1.191-.853 1.952-.867.246.12.254.332.135.449-.916.893-1.597 1.851-1.963 3.142-.219.771-1.16 1.256-.38 2.29.403.537-.476 1.185-.398 1.87.484.399 1.09.061 1.598.265.22.089.505.193.434.492-.066.275-.353.39-.551.188-.893-.92-1.157.23-1.718.44-.494.186-.522.523-.409.84.195.54.423-.15.66-.041.529.241.927.648 1.606.723.516.056.299.808.254 1.27-.022.228-.167.5.158.58.217.055.495.023.703-.067.293-.127.203-.395.093-.617-.29-.586-.64-1.153-.615-1.927.533.111.593.575.75.89.427.86 1.098.856 1.861.584.586-.209.969-.538.614-1.221a11.49 11.49 0 0 1-.457-.987c-.855-2.11-.569-2.715 1.858-3.716.489 1.455.657 2.95.702 4.682 1.286-.633 1.938-1.742 3.027-2.267.302-.146.132-.515-.013-.802-.543-1.065-1.034-2.17-2.88-2.132l3.957-2.646c.456.506-.264.992.135 1.532 1.075 1.46 1.983 3.038 3.07 4.488.599.796 1.026.657 1.65-.278.226-.339.439-.733 1.187-.654-.646.813-.929 1.698-1.309 2.542-.3.664-.704 1.318-1.46 1.535-.295.085-1.125.516-.765-.583.199-.608-.532-.685-.963-.773-.54-.11-1.143-.16-1.47.432-.202.367-.331.777-.454 1.179-.126.41-.22.894.234 1.136.493.262.918.128 1.183-.445.346-.745.894-.387 1.39-.16.326.148.444.416.33.74-.125.36-.373.68-.799.59-.54-.112-1.036-.26-1.614-.08-1.19.368-1.387.685-.932 1.81.254.622.552 1.226 1.232.367.457-.576 1.412.425 1.74-.634.188-.612.666-1.143 1.044-1.691.128-.186.35-.31.712-.618.261 1.425.136 2.897 1.647 3.689.382-.498 1.319-.704.846-1.66-.15-.308-.561-.575-.154-.912.304-.249.694-.148 1.05-.015 1.313.491 1.756.417 2.506-.415.911-1.007.74-1.632-.615-1.882-.863-.16-1.202-.716-1.555-1.374-.22-.408-.154-.981-.696-1.221-.395.125-.204.495-.323.731-.246.488-.81.823-1.165.594-.58-.374-.067-.86.26-1.183a4.652 4.652 0 0 0 1.155-1.814c.341-.969 1.057-1.58 2.074-1.831.34.595.929 1.233.655 1.756-.362.686-1.1-.183-1.678.007-.11.036-.207.11-.386.207.95 1.478 2.474 1.573 3.98 1.591.783.01.702-.824.951-1.296.252-.478-.112-.803-.53-.985-1.223-.53-1.85-1.405-1.567-2.724.244-1.136 1.04-1.822 2.047-2.214.257.119.29.21.214.332-.305.498-1.247.551-1.12 1.301.154.902.947 1.5 1.441 2.23.232.343.92.085 1.32-.267.343-.303.627-.623.176-1.047a1.243 1.243 0 0 1-.387-.79c-.11-.837.288-1.223 1.034-.86.813.393 1.732.628 2.518 1.41-.595.563-1.148 1.151-.999 2.09.148.927-.071 2 1.385 2.065.084.004.15.185.245.256 1.395 1.034 1.764 1.048 3.2.127.572-.367 1.075-.822 1.43-1.39.909-1.456 2.003-2.834 1.995-4.686-.002-.416.308-.695.886-.674 1.016.037 1.847-.47 1.692-1.26-.257-1.31.531-.562.86-.527.312.033.438.379.518.682.091.345.278.919.58.762.61-.317 1.128.42 1.753-.09.835-.682.905-.6 1.554.504 1.061-.257.971-1.619 2.106-1.999.867-.29 1.449-1.398 2.136-2.12 1.544 1.105 2.615 1.01 3.953-.202.264-.239.317-.47.15-.784-.221-.419-.539-.45-.914-.25-.571.308-1.08.624-1.824.623-.597 0-1.079.098-1.708-.183-.927-.416-1.918.058-2.77.51-1.24.658-2.376.95-3.84.417-1.525-.557-3.142.096-4.672.478-1.962.488-1.948.542-2.892 1.673-.28-.438.28-.914-.124-1.282-.416-.38-.91-.373-1.386-.323-1.707.176-3.34.655-4.95 1.227-.55.196-1.028.657-1.688.529-.038-.537.34-.727.647-.823a6.037 6.037 0 0 0 2.353-1.356c.552-.511 1.307-.676 2.063-.624 4.394.306 8.655-.504 12.918-1.39 1.37-.284 2.797-.312 4.2-.445.6-.056 1.242.025 1.783-.757-2.005.29-3.864.09-5.734.507-1.657.37-3.391.467-5.099.538-2.086.087-4.192-.048-6.214.564-.721.217-1.32-.25-1.989-.116l.022-.02zm-28.76-63.98c-.601-.527-1.398-.545-2.118-.776-.71-.228-1.572-.229-1.971-1.026l.02.022c-1.317.135-2.31-.739-3.488-1.046-2.189-.572-4.407-1.073-6.539-1.806-1.674-.575-3.35-1.12-5.062-1.575-.29-.077-.561-.263-.952-.046.545.54 1.252.69 1.916.906 2.742.892 5.48 1.773 8.044 3.114 1.41.737 3.1.633 4.634 1.073 1.428.41 2.852.634 3.691 2.053.377.637 1.437.704 1.77 1.789-1.422-.807-2.664-1.539-3.936-2.221-.69-.37-1.342-.829-2.205-.847-.66-.014-1.166.102-1.354.95-.551-.733-.817-1.332-1.73-1.593-1.78-.506-3.304-1.758-5.408-1.244-.442.108-1.32-.343-1.85-.88-.55-.555-1.226-.987-2.026-1.192-.306-.08-.6-.163-.851.1-.258.269-.1.518.011.806.54 1.389 1.757 2.368 2.38 3.715.235.508.567.186.8-.149.24-.345.464-.415.87-.08.901.748 1.498.732 2.35-.011.3-.263.577-.454.967-.341.601.172.134.588.175.886.088.643.281 1.16 1.082 1.195.681.028.726.4.678.974-.167 1.973.51 3.727 1.72 5.287.925 1.196 1.558 1.127 3.11.693.855-.24 1.324-.523 1.533-1.261.187-.656.661-1.333-.022-1.998-.203-.198-.193-.473.082-.583.79-.317 1.617-.58 2.477-.545.504.02.518.489.34.814-.22.402-.561.742-.921 1.2.588.325.777 1.42 1.732.751 1.739-1.218 1.741-1.385.575-3.316 1.278.801 1.768 1.64 1.708 2.782-.05.983-.682 1.447-1.604 1.7-.633.173-1.05.478-.885 1.29.172.845.804 1.1 1.417.997.725-.122 1.462-.124 2.175-.278.287-.062.635-.223.608-.574-.034-.453-.394-.254-.684-.267-.967-.045-1.063-.267-.601-1.023.405-.661.816-.619 1.297-.112.124.132.255.263.35.413.126.203.33.432.311.636-.097 1.155.995 2.015.897 3.195-.978.004-.949-.812-1.33-1.338-.193.176-.42.307-.534.5-.468.777-1.05 1.276-2.08 1.149-.79-.098-.907.443-.84 1.04.105.941.89 1.61 1.893 1.523.426-.037.826-.2 1.376.103-.7.828-.87 1.657.123 2.364 1.19-.533 1.755-1.5 1.936-2.8.937.561.984 1.47 1.233 2.209.33.97 1.675.367 1.743 1.64.37-.48.547-.652.65-.858.579-1.159.373-1.646-.843-1.983-.291-.081-.618-.041-.913-.115-.56-.139-.616-.561-.423-.978.18-.39.594-.354.965-.266.11.026.257.104.292.193.26.646.65 1.068 1.362.568.4-.28.24-1.546-.17-2.004-.31-.347-1.495-.45-1.894-.165-1.16.83-1.288.797-1.764-.662-.254-.778-.418-1.583-.627-2.392.473-.143.52.198.625.433.501 1.105.791 1.252 1.665.535 1.124-.923 2.132-1.975 3.202-2.96.395-.364.304-.87.407-1.34.784.199 1.08.851 1.588 1.257.468.374.956.726 1.268.962-.19.83-.512.62-.8.6-1.06-.076-1.453.808-1.935 1.42-.467.596.316.925.67 1.253.522.484.646 1.3 1.582 1.662.023-1.407.77-2.47 1.334-3.607 1.818.765 2.114 1.618 1.121 3.101-.133.2-.338.37-.417.586-.16.441-.997.744-.376 1.351.51.5 1.116.748 1.82.308.152-.093.3-.19.449-.286.317.23.071.412-.03.605-.144.274-.666.554-.136.85.423.233.588-.12.76-.486.415-.885 1.224-1.157 2.57-.943-.745-1.433-.582-2.83.152-4.207.082-.154.25-.412.201-.46-.97-.983 0-2.598-1.244-3.497-.202-.146-.238-.505-.489-1.084 1.52.786 2.556 1.632 3.451 2.65.258.291.267.658.21 1.016-.038.233-.129.457-.183.687-.495 2.126-.03 2.733 2.185 2.848.307.016.615.003.943.003.011-.453-1.513-.85-.077-1.25.466-.129.955-.47.992-.658.202-1.021 1.144-1.157 1.818-1.608.404-.27.882-.463 1.223-.791 1.193-1.151 1.749-2.662.227-4.019-.749-.668-1.398-1.292-.916-2.441.232-.554-.327-.96-.804-1.269-.806-.525-1.783-.407-2.663-.657-.334-.096-.598.137-.758.397-.372.603-.869 1.208-.708 1.95.187.86-.507.756-.908.968-.294-.135-.142-.32-.118-.471.108-.69-1.203-.957-.65-1.674.68-.885 1.244-1.898 2.46-2.324 1.54-.54 1.57-.596 1.412-2.277-.055-.578.497-.621.614-.996l-.08-.038.063.056c.624-.807-.193-1.023-.637-1.303-.673-.423-1.734-.49-3.37-.373.002.344.617.185.524.565-.076.308-.333.27-.578.17-.951-.395-1.135.822-1.856.833-.77.013-.787-1.242-1.794-1.021-.46.1-.872-.04-.878.665-.001.154-.643-.124-.853-.414-.269-.37-.377-.88.072-1.103 1.512-.754 1.678-2.236 2.192-3.533.086-.216.109-.466-.092-.675-.47-.055-.4.304-.452.565-.085.428-.21.912-.788.69-.509-.196-.407-.665-.19-1.066.105-.195.24-.376.478-.738-1.286.106-1.638 1.408-2.695 1.486-.425-.69-.013-1.454-.185-2.294-.904.47-1.033 1.428-1.745 1.929-.34.238-.028.937.409 1.22.64.413.24.683-.096.925-.569.41-.702.018-.837-.444-.167-.567-.4-1.117-1.22-1.364-.124.997.999 1.633.677 2.573l-.905-.144.025-.024c.117.915-.434 1.405-1.184 1.812-2.243 1.22-4.466 2.434-6.904 3.321-1.494.543-2.904 1.216-4.526 1.295.173 1.134 1.19 1.205 2.028 1.416.826.208 1.67.446 2.492.564 1.32.189 2.088.844 2.588 1.844-1.006-1.274-2.955-2.253-3.92-1.885-.777.296-1.022.872-.683 1.794-.557-.979-1.335-1.562-1.974-2.265-.36-.397-1.11-.723-.51-1.455m67.336 97.769c.19-.006.382.005.568-.022 1.24-.181 1.274-.193.935-1.352-.208-.715-.519-1.389.305-1.938.264-.176.52-.352.861-.253.393.114.361.45.384.739.049.636.075 1.273.114 1.963 2.59-1.278 2.685-1.704.73-3.218.571-.501 1.239-.75 1.906-.972 1.262 1.381 1.487 3.371 3.21 4.327-.09.494-.436.773-.753 1.056-.362.322-.648.531-.889-.184-.211-.626-.871-.703-1.41-.377-.427.259-.741.771-.54 1.253.286.68.672.125 1.031-.029.404-.173.81-.054.855.369.034.328-.356.43-.692.435-.378.007-.76-.01-1.13.047-.488.077-.527.459-.488.835.052.49.377.386.784.439 1.226.16 1.497-.908 2.274-1.465.473.374.226.888.325 1.302.103.426.25.922.777.863.621-.071.785-.518.512-1.081-.04-.083.036-.217.085-.459.76.136 1.537.902 2.342.081.505-.516.582-.98-.085-1.232-.609-.23-.904-.593-1.134-1.106-.071-.163-.166-.35-.309-.446-.626-.418-.632-.406-.16-1.006.3-.38.452-.878.954-1.092.266-.112.557-.386.802-.006.128.197.269.465.227.666-.098.463-.458.224-.743.168-.177-.034-.386-.099-.494.269.394.832 1.342.819 2.152 1.012.322.076.597-.103.773-.397.217-.363.205-.692-.136-.965-.603-.483-1.077-1.023-.993-1.84.289-.339.083-.775.252-1.137 1.108-1.85 1.02-2.042-1.144-2.52-.247-.054-.384-.16-.137-.112.1.02.209-.083.3-.185.084-.15.068-.283-.043-.404l-3.633-.567c.748-.398 1.6-.166 2.34-.841-.9-1.495-1.806-3.056-1.86-4.88.532.356.95.092 1.303-.45.176-.267.367-.52.16-.82-.473-.681-1.014.095-1.513-.036-.263-.408.621-.438.299-.86-.727-.23-.947.754-1.873.609.888-.887.99-1.805.262-2.837-.639.061-.309 1.053-.98 1.046-.609-.133-.503-.786-.855-1.092-.24-.06-.377.051-.432.234-.316 1.057-.648.543-.985.012-.181 1.154-.187 1.156.43 2.971.106.313.15.601-.167.796-.34.21-.582.098-.693-.279-.091-.313-.404-.329-.616-.273-.861.225-1.65.487-1.83-.805-.037-.267-.941.274-1.11-.533-.046-.217-.893-.382-1.373-.39-.55-.007-.408.632-.63.95-1.01 1.436-.955 1.542.284 2.91 1.135 1.252 1.124 1.728-.076 3.042-.747-.283-.473-.909-.442-1.387.059-.908-.394-1.288-1.26-1.473-.895-.19-1.764-.167-2.07.735-.262.777-.77 1.151-1.405 1.582-1.313.891-1.476 1.91-.397 3.065.932.998 1.245 2.278 1.978 3.36.372.551.768.525 1.254.523.495-.001.836-.243.988-.7.221-.667-.197-1.517.564-2.019.778-.512 1.655-.846 2.721-1.199-.077.708-.709.893-.957 1.309-.614 1.023-1.055 2.099-1.215 3.265-.12.869-.86 1.913.693 2.385.183.056.164.581.358.789.192.208.447.055.585-.187l-.024.02z"/><path d="M171.194 220.164c1.02.838 2.38.632 3.552 1.013.65.21 1.336.286 1.97.876-1.038.15-1.857-.202-2.648-.482-2.334-.826-4.452-.336-6.481.819-1.057.6-1.03.973.082 1.614.268.153.56.27.842.404.22.105.474.176.58.652-1.583.245-2.534-1.588-4.33-1.229.95.844 2.118 1.02 2.779 1.948-.908.11-1.475-.477-2.144-.84-.703-.383-1.316-.845-1.973.28-.311.532-1.383.716-2.147.956-.64.2-1.258.5-1.45 1.047-.363 1.024-.977 1.336-2.406.7 1.098 1.324 2.202 1.913 3.22 2.571.641.416 1.22.12 1.402-.575.038-.144-.067-.321-.106-.484-.098.147-.178.307-.298.435-.283.3-.555.17-.788-.065-.187-.186-.287-.522-.023-.597 1.495-.427 1.323-2.068 2.332-2.809.338.048.475.251.444.5-.126 1.02.508 1.227 1.38 1.152.863-.074 1.452.246 2.159.754 1.33.954 2.923 1.57 4.087 2.772.243.25.647.367 1.045.35.382-.017.678-.013.704-.56.056-1.194.583-1.883 1.722-1.738.753.096.654-.067.663-.49.01-.536.005-1.063-.201-1.58-.224-.56-.325-1.14-.071-1.862 1.012.059 2.076.022 2.988.568.82.493 1.197.232 1.487-.51.055-.138.277-.217.383-.295.207-.038.326.025.315.174-.129 1.6-.138 1.627 1.528 1.964.542.109.86.447 1.266.717.842.557.958.511 1.487-.43.118-.21.202-.44.343-.634.149-.205.371-.309.65-.214.272.094.36.308.386.553.065.61-.256 1.012-1.109 1.271 1.164.366 1.802.402 2.268-.616.255-.557 0-.726-.272-1.027-.215-.238-.395-.495-.022-.747.313-.21.565-.12.81.14.24.255.24.705.702.778.091-1.629-.753-2.926-2.162-3.247-.45-.102-.991-.144-.829-.699.149-.506.612-.732 1.184-.385.213.128.434.242.8.118.054-.491.221-1.005.468-1.52.392-.818.08-1.212-.888-1.508-1.195-.364-2.417-.564-3.648-.782-1.383-.245-2.78-.641-4.148-1.041-.56-.163-1.075-.266-1.646-.045-.686.265-1.762.256-1.867.991-.12.83 1.007.874 1.622 1.185 1.209.611 2.353 1.345 3.72 1.683.555.138 1.178.388 1.395 1.046-2.925-.794-5.55-2.314-8.539-2.867-.853-.159-1.7-.467-2.583-.133l.014-.02zm-97.11 102.339c-.017.37.107.826-.074 1.094-.908 1.347-.59 2.392.733 3.233.467.298.656.755.884 1.19.352.669.946 1.07 1.664 1.139.916.086 1.086.443.766 1.193-.065.154-.018.346.31.504.743-.981 1.236-2.115 1.757-3.225.232-.494-.082-.822-.595-.954-.112-.029-.29-.027-.362.037-.251.229.095.246.17.36.189.293.235.58-.072.815-.157.122-.419.13-.52-.024-.732-1.12-2.19-.929-3.167-1.59.003-.623.514-.439.82-.52.526-.138.856-.5.69-.947-.802-2.166.892-3.688 1.475-5.49.24-.74 1.097-1.225.975-2.122l-.118-.849c-1.504.641-2.355-.023-2.597-1.29-.114-.586-.418-.328-.61-.337-.955-.038-1.688.558-2.514.887-.743.297-1.112.088-1.115-.687-.002-.371-.11-.784.023-1.106.468-1.14.394-2.113-.96-2.85 1.766-.203 1.56-.25 1.95-1.8.304-1.218.785-2.386.891-3.666.079-.944-.519-1.123-1.217-1.349-.526-.17-.672.193-.904.475-.173.21-.395.33-.648.134-.324-.25-.28-.532.02-.767.231-.183.51-.32.526-.685-1.953.385-2.537.887-2.814 2.472-.068.382-.081.813-.54.862-.47.049-.638-.336-.647-.74-.006-.303.152-.763-.125-.864-.568-.208-1.203-.3-1.817-.333-.982-.053-1.108.61-1.144 1.36a471.84 471.84 0 0 1-.414 7.322c-.051.786.24 1.45.635 2.099.194.319.353.697.824.675.485-.024.604-.443.716-.775.433-1.287.829-2.586 1.23-3.883.089-.285.14-.58.303-.858.266 1.051.161 2.032-.2 3.086-.6 1.754-.766 3.603-.69 5.459.008.193.134.335.496.43.6-1.474-.366-3.254.866-4.797.303 2.05-.99 4.01.143 5.786.655 1.025 1.272 2.156 2.346 2.85.76-.067.703-.698.965-1.08.242-.351.018-.882.54-1.204.725.586.208 1.17-.027 1.725-.265.625-.56 1.234-.241 1.964.846-.6.535-1.818 1.439-2.34.154-.142.119-.342.172-.516.048.207-.064.356-.197.497m31.666-80.698c1.437.547 2.913.858 4.478.687.537-.06 1.249.15 1.515-.398.3-.62-.356-1.01-.725-1.45-.205-.247-.625-.39-.484-.923 1.512.203 1.605 2.112 3.141 2.33-.553-1.31-1.877-2.085-2.446-3.538.294.17.398.204.461.271.895.947 1.608 2.31 2.724 2.727 1.049.392 2.484-.48 3.814-.367.46.04.81-.208 1.17-.447.822-.547.83-.536 1.987-.172-.538-1.245-1.162-2.297-2.104-3.223-.598.49.028.649.08.916.046.239.072.613-.1.608-1.36-.029-1.999 1.227-3.098 1.556-.42-.281-.307-.546-.106-.781.398-.467.147-.773-.307-.935-2.254-.808-3.117-2.776-4.191-4.511-.429-.691-.936-1.158-1.479-1.567-.548.034-.538.345-.597.622-.144.679-.482.832-1.298.787-1.481-.083-1.494.04-1.817 1.402-.133.558-.24 1.12-.358 1.682-1.68-.303-1.864-.412-3.29-1.959-.508.13-.777.73-1.503.64-.084-.44.366-.637.571-.935.197-.284.206-.585-.095-.76-1.398-.813-2.146-2.262-3.524-3.097-.663-.402-1.186-.433-1.734.157-.231.25-.32.475-.215.772.115.326.332.706-.25.793-.53.08-.545-.336-.598-.68-.025-.163-.062-.325-.263-.383-.706 1.351-.577 2.313.513 3.146.336.258.896.465.618.888-.313.479-.855.276-1.288-.035-.19-.136-.407-.238-.655-.38-.173.52-.33.923-.809 1.257-.54.377-.591 1.008.061 1.463.834.582 1.557 1.268 2.504 1.753 1.273.649 2.399 1.558 3.555 2.396.725.525 1.515.737 2.413.695.384-.018.765-.055.964-.397.228-.392-.097-.655-.357-.883-1.017-.897-1.81-1.952-2.818-3.255 1.199.323 1.608 1.07 2.197 1.596 1.463 1.31 2.884 2.673 4.871 3.305l-.021.02c.044-.749-.94-.792-1.097-1.403-.582-.289-.985-.811-1.587-1.073.624.234 1.019.763 1.577 1.083m58.385-76.693c.043.377-.003.74-.153 1.095-.423.996-.523 1.842.7 2.496.498.266.78.962 1.08 1.504.36.648.86 1.157 1.602 1.212 1.23.092 1.107.755.64 1.652 1.201-.191 1.063-1.136 1.459-1.673.404-.551.845-1.112.826-1.849-.012-.472-.312-.653-.755-.65-.223 0-.588-.01-.249.35.321.341.369.71-.022.933-.315.181-.6-.133-.757-.404-.249-.431-.63-.558-1.105-.627-.571-.083-1.125-.26-1.463-.672-.155-.29-.004-.478.155-.505 1.117-.192 1.333-.91 1.018-1.779-.263-.727-.094-1.208.296-1.87.747-1.274 1.06-2.76 2.02-3.965.334-.421.264-1.07-.012-1.77-1.122.582-1.894-.06-2.34-.914-.437-.839-.924-.924-1.713-.618-.706.273-1.316.79-2.128.815-.83-1.314-.49-2.613.023-3.853-.277-.445-.805-.065-1.047-.413-.1-.146-.224-.312-.23-.473-.01-.218.22-.321.404-.274 1.272.33 1.433-.37 1.35-1.32a2.154 2.154 0 0 1 .022-.558c.109-.605.814-1.04.621-1.712-.228-.8-1.13-.416-1.625-.764-.132-.093-.264-.307-.247-.447.02-.148.192-.34.345-.4.576-.225 1.112-.15 1.545.509.122-.715.408-1.33-.31-1.616-.476-.19-1.07-.577-1.534.128-.178.27-.474.47-.79.154-.424-.424-.039-.636.274-.866.152-.11.32-.226.29-.447-1.637.16-2.5.852-2.79 2.311-.075.376-.059.822-.57.81-.627-.016-.55-.516-.614-.958-.033-.24.413-1.028-.49-.685-.798.301-2.113-1.08-2.442.7-.044.245-.112.487-.127.732-.145 2.347-.25 4.697-.437 7.04-.083 1.035.45 1.795 1.001 2.547.377.513 1.054.414 1.156-.208.252-1.544 1.286-2.853 1.337-4.447.023-.696.265-1.33.934-1.783-.888 1.593-.571 3.396-1.07 5.103-.49 1.68-.913 3.612-.249 5.458l-.03-.018c.903.015.563-.666.568-1.055.015-1.058.34-2.082.29-2.653-.033.795-.34 2.058-.253 3.35.1 1.494 1.245 2.402 2.089 3.473.823 1.045 1.583 1.18 2.132-.246-.312.9-.966 1.787-.162 2.746l-.014-.012c.446-.387.693-.88.774-1.444.073-.514.231-.958.785-1.163.151-.135.137-.335.208-.5-.016.187-.062.362-.216.493m-39.578 55.413c.193-.287.516-.298.839-.327.483-.044.89-.236.983-.687.088-.422-.323-.615-.658-.753-1.257-.522-1.261-1.482-1.153-2.494-.086-.02-.172-.039-.246-.06-.049.021-.145.03-.163.07-.086.176-.249.16-.204.02.387-1.2 1.42-2.097 1.932-3.24.264-.59.785-1.368.18-1.795-.691-.49-1.664-1.078-2.62-.686-.843.346-1.292.205-2.097-.173-1.331-.626-2.947-.155-4.433-.301-.264 0-.003-.345-.061-.115-.015.054.023.085.112.092 2.91.232 5.84-.079 8.75.247.542.06.993-.257 1.285-.693a1.23 1.23 0 0 0 .125-.473c.013-.055.003-.12.03-.17 1.17-2.171.925-2.565-1.851-2.942.268-.202.823-.122.813-.541-.013-.5-.48-.43-.864-.407-.386.022-.779.093-1.127-.134-.443-.046-.926.072-1.475-.385.753-.21 1.4-.508 1.043-1.32-.197-.449-.615-.746-1.046-.616-.848.254-.317 1.015-.525 1.56-.543-.039-.305-.754-.788-.771-.494-.018-.199.66-.861.715-.154-.985-.46-1.974-1.844-2.273-.248.526.833 1.091.098 1.52-.59.346-1.054-.319-1.605-.44-.726.216 1.244 1.313-.519 1.229-.364-.018-.154.357 0 .503.586.546 1.072 1.209 2 1.367.29.048.429.247.386.522-.05.33-.29.3-.572.264-1.006-.131-1.138.948-1.75 1.09-.522.121-1.127-.446-1.94-.398-1.358.081-1.328 1.384-2.31 1.717-.138.046.072.385.232.59.675.866 1.246 1.639 2.737 1.577 1.191-.05 2.054.831 2.027 1.53-.011.28.014.618-.366.752-.392.138-.553-.123-.771-.361-1.192-1.303-2.143-1.322-3.21-.078-.154.18-.396.48-.327.603.633 1.114-.07 2.173-.094 3.254-.025 1.083.904 2.004 2.303 1.925 1.27-.073 1.995.744 3.022 1.03 1.027.287 1.005.53 1.576.12.588-.423.748-.863.397-1.532-1.043-1.985-.97-2.219.797-3.97.528.622-.224 1.168-.061 1.79.284 1.091.86 2.026 1.382 3.003.526.983 1.295 1.44 2.52 1.021l-.028.024zm-50.751-41.914c1.835-.362 3.516-1.107 4.967-2.352.664-.57 1.314-1.084 2.222-1.027l.05-.055-.07.03c-.942 1.045-2.063 1.85-3.185 2.655-.243.175-.555.325-.487.692.065.358.392.434.689.497.574.122 1.13.453 1.74.169 2.001-.934 4.034-1.804 5.995-2.823 1.18-.614 1.177-1.569.192-2.455-.384-.346-.658.024-.983.039-.268.011-.45-.13-.561-.37-.13-.284-.003-.543.235-.6 1.466-.358 1.404-1.64 1.61-2.759-.452-.367-.5.132-.711.261-.14.086-.354.174-.482.12-.333-.14-.08-.374-.046-.594.14-.923-.45-1.595-1.184-1.35-.186.061-.732.161-.14.544.188.121.36.328.46.537.107.223.105.512-.115.686-.222.175-.427.065-.622-.12-.963-.91-.963-.903-1.902-.075-.176.157-.376.347-.589.384-1.063.184-1.147.897-.822 1.97-.86-.856-1.54-.831-2.218-.018-.173.207-.526.266-.809.348-1.223.352-1.286.281-1.164-1.07.045-.498.07-1.007.02-1.502-.037-.369-.246-.414-.665-.496-.633-.127-1.75-.09-1.644-1.404.04-.491-.361-.454-.612-.337-.373.175-.865.373-1.02.708-.553 1.189-1.657 1.783-2.418 2.73-.368.46-.795.842-1.332.86-1.166.039-1.53.666-1.211 1.909-1.234-.578-1.258-2.296-2.617-2.2-.05-.696.716-.626.643-1.33-1.373.398-1.94 1.671-2.836 2.712.776-.3 1.39-.496 1.86.484.334.695 1.267.573 1.907.869 1.279.59 2.504 1.095 3.62-.506.116 1.02-.891 1.083-.92 1.903 1.1-.28 1.716-1.31 2.91-1.916-.236.882-.79 1.14-1.139 1.552-.541.638-.505.917.289 1.18 1.13.372 2.261.788 3.472.784.543-.333 1.164-.463 1.734-.728.149-.248.529-.094.64-.41-.05.378-.465.119-.587.377-.572.328-1.215.458-1.8.745-.114.26-.229.517-.345.776l-.019-.024zm27.359 118.77c.281.095.935.212.477.53-.849.588-.701 1.278-.611 2.11.34-.256.645-.488.938-.71.564.297.415.947.782 1.334.114-.215.236-.594.322-.586 1.42.132 1.34-.77 1.184-1.689-.059-.344-.235-.682.195-.88.568-.26.642.175.761.559.028.091.157.17.257.218 1.404.686 1.469.694 2.09 1.743.336.568.785.797 1.407.792.422-.005.848.005.741-.63-.068-.408.292-.599.496-.859.29-.371.326-.717.003-1.081a2.753 2.753 0 0 1-.626-1.215c-.252-1.103-.003-1.433 1.31-1.803.247.2.123.398 0 .6-.389.639-.588 1.269.13 1.826.817.633 1.672.624 2.427-.112.31-.302.627-.428 1.028-.543 1.586-.46 2.14-1.337 1.501-2.807-.44-1.01-.457-2.077-.766-3.093-.145-.479-.147-.83-.673-.934-.504-.1-.87.07-1.175.51-1.116 1.597-1.128 1.589-3.451 1.495 2.038-.859 2.488-2.692 3.453-4.136.254-.378-.044-.722-.282-.872-.57-.359-.165-.828-.229-1.216-.342-.38-.645.053-.96.014-.886-.108-1.312.288-1.287 1.162.013.482-.138.902-.396 1.295 0 .074.001.148-.001.22-1.047.946-2.384.602-3.598.793-.799.126-1.893.137-1.707 1.202.143.82.03 2.293 1.688 2.063.17-.155-.065.04.108-.114.12-.105.236-.212.37-.299-.078.114-.223.144-.315.251-1.702 2.058.967 3.405.754 5.255.06-1.204-1.17-1.426-1.699-2.263-.75-1.186-.41-2.484-.992-3.667-.443-.904-.799-1.272-1.72-1.18l-.193.15c-.01.197.248.5-.051.563-.243.052-.533-.174-.811-.205-1.039-.117-1.256.131-1.018 1.116.04.167.09.333.138.498.111.385.242.765.334 1.154.167.708-.52.107-.6.37-.185.617.673 1.093.274 1.755-.477.151-.265-.722-.676-.482-.372.217-.885.371-.98.89-.063.345.188.518.496.58.363.073.667-.199.985-.227.566-.052.107.374.18.569l-.012-.014z"/><path d="M109.781 289.392c-.771.06-1.533.133-1.122-1.117.134-.408.174-.85.272-1.349-.763-.342-1.535.027-1.92.494-.501.608-.09 1.414.361 2.027-.205.481-.632.263-.942.37-.336.115-.657.339-1.04.21-.256-1.615-.095-3.332-1.068-4.772-.41-.608.163-.763.452-.979.298-.223.686-.292.92.151.084.16.071.377.158.535.346.629.768.722 1.304.199.656-.64.777-1.602 1.33-2.313.23-.295-.05-.55-.387-.66-.857-.279-1.533-.085-1.976.771l.106.1-.09-.116c-.275-.056-.647.008-.606-.472.032-.368.16-.741.119-1.096-.034-.285-.226-.596-.588-.609-.26-.01-.516.13-.554.383-.115.768-.45.853-.914.322-.461-.527-.946-.5-1.438-.168-.41.276-.857.66-.203 1.14.38.278.607.591.578 1.073-.06 1.016.555.877 1.485.409-.643 1.035-1.388 1.198-1.893 1.668-.212.12.077-.011-.137.106.047-.035.104-.05.154-.078-.028-.95-.708-1.42-1.346-1.884-.338-.246-.751-.413-1.14.024-.308.344-.194.613-.048 1.001.49 1.299.46 1.312-.806 2.293 0-.616.02-1.148-.006-1.677-.019-.384-.298-.524-.626-.534-.326-.01-.601.06-.547.517.05.412-.071.83-.492.854-.482.026-.61-.546-.892-.852-.306-.334-.154-.584.098-.95.932-1.355.881-1.64.122-2.631-.538-.702-1.161-.86-1.92-.54-.73.306-1.519.588-1.982 1.275-.738 1.096-1.843 1.38-2.974 1.67-.165.043-.449.187-.457-.006-.064-1.37-1.653-.706-2.016-1.673-.107-.284-.435-.265-.608-.082-.47.496-1.159.266-1.672.613-.49.332-.966.406-1.468-.097-.539-.54-1.188-.416-1.873-.138.885.756 2.814 1.653 3.633 1.662.973.01 1.842.066 2.679.821.926.836 2.255.763 3.43 1.009.162.034.453-.107.503-.033 1.262 1.858 3.214.986 4.865 1.363-1.869 1.015-3.673.597-5.359-.385-1.479-.862-3.104-.874-4.743-1.05l4.726 2.068-.028-.024c1.668.033 3.179.762 4.764 1.16.722-.659 1.482-.852 2.22-.075.638.673 1.473.79 2.072.991-.635-.104-1.407-.398-2.152-.842-.672-.4-1.418-.77-2.168-.098l2.202 2.65-.012.013-.046-.37c-.04-.334-.478-.664-.086-.996.335-.282.678-.01.994.145.648.317 1.299.631 1.934.976.388.21.789.27 1.213.24h-.002c1.176-.93 2.592-1.124 3.982-1.307.954-.126 1.914-.2 2.857-.402.485-.103.978-.23.797-.95l.017.022zm14.423-73.471c.446-.18.806-.127 1.148.251.482.533 1.09.963 1.341 1.98.521-1.086 1.082-1.936.648-2.74-.344-.638-1.236-.706-2.28-.176l1.098-2.716c1.179 1.106 2.617 1.522 4.014 1.935 1.017.303 1.545-.047 1.898-1.094.174-.514.433-.626.913-.68.428-.05.84-.218 1.26-.327.547-.142.87-.457.866-1.02-.003-.667-.486-.722-1.024-.764-1.145-.09-1.647-.706-1.535-2.051.507.649 1.058.907 1.673 1.075.316.087.588.213.825-.1.253-.335.303-.62-.124-.897-.302-.194-.665-.471-.39-.873.315-.463.872-.393 1.37-.403.476-.01.605.261.69.668.18.856.54 1.54 1.65 1.596 1.389.07 1.576.003 2.123-1.147.467-.982.342-1.944.127-2.976-.16-.763-.962-1.682.183-2.419.113-.071.04-.45.006-.68-.107-.702.222-.939.82-.583.726.433 1.15.206 1.514-.405.03-.051.023-.13.062-.168 1.353-1.238 1.381-1.231 1.792-2.881.122-.487.304-.762.84-.758.417.001.744-.194.906-.537.194-.41.79-.906.345-1.272-.56-.46-.743.27-1.046.587-.29.305-.612.717-.983.79-.906.182-1.381.782-1.847 1.418-.479.653-1.047 1.15-1.874 1.376-.547.15-.925.621-1.402.87-1.118.581-1.317 2.049-2.886 2.303-1.274.207-1.772 1.79-2.951 2.396-.07.033-.14.067-.21.098a.98.98 0 0 1-.661.143.884.884 0 0 0-.426.224 3.502 3.502 0 0 0-.683 1.94c-.116-.645-.518-1.008-1.148-.835-1.09.296-2.007.829-2.078 2.04-.128-.99.699-1.34 1.376-1.857.946-.722 2.344-.93 2.813-2.21.014-.2-.073-.345-.257-.44a1.67 1.67 0 0 0-.844-.073c-1.422.243-2.859.045-4.284.144-.54.036-1.379-.014-1.393.581-.018.774.88.622 1.448.696.55.071 1.114.008 1.77.021-.887 1.1-2.702 1.176-2.927 2.766l-.014-.018c-.112.35.887-.182.419.537-1.092 1.68-1.53 3.666-2.637 5.35-.258.393-.462.877-.022 1.323l-.012-.008z"/><path d="M134.33 204.34c.643-1.2 1.758-1.95 2.94-2.567 1.109-.578 1.994-1.359 2.875-2.186 1.025-.962 2.116-1.862 3.118-2.873-2 .515-2.868 2.855-5.404 3.034 1.235-1.312 2.69-2.04 3.464-3.464.061.087.024-.035-.055-.069-.525-.224-.966-.656-1.607-.598.227.548-.235.922-.382 1.378-.084.264-.099.55-.443.699-.39-.001-.542-.496-1.022-.458-1.293.102-2.382-.455-3.466-1.038-.927-.5-.997-.452-1.464.515-.025.05-.012.127-.048.159-.827.74-1.293 1.54-.267 2.488-1.081.483-2.1-.009-2.949.592-.199.14-.338-.628-.928-.747-1.39-.28-1.37-.366-2.279.553-.518-.245.04-.735-.26-1.03-1.262.091-.495 1.136-.794 1.686-.496.917.759.954 1.43 1.432-.694.429-1.22.967-1.019 1.807 2.178 1.106 4.44.713 6.697.334.81-1.154.77-1.209-1.213-1.627a1.26 1.26 0 0 0-.925-.246c.165 0 .518-.077.814.18.812.226 1.654.328 2.47.544.606.16.182.488.209.747.05.324.19.593.508.755m35.245 62.908c.969-.292 1.593.866 2.637.594.741-.193 1.588.161 2.32-.408.258-.201.503.207.906.289-.067-.64-.4-1.111-.658-1.616-.827.327-1.697.494-2.401 1.063-.367-.447.085-1.015-.459-1.341-1.126-.677-1.455-1.948-1.964-3.066-.338-.746-.56-1.59-1.443-.452-.108.139-.45.193-.644.136-.81-.238-.95.237-1.135.9-.311 1.125-.529 1.151-1.39.41-.374-.323-.568-.977-1.257-.74-.218.075-.382-.102-.29-.262.529-.915-.455-1.239-.668-1.858-.153-.444-.528-.624-.975-.258-.163.134-.386.349-.547.027-.062-.124-.012-.369.074-.495.146-.214.54-.363.1-.643-.235-.148-.435.063-.638.17-.338.175-.22 1.135-1.028.601-.118-.078-.256.578-.27.938-.021.629.659.797.808 1.293-.331.71-.83-.046-1.231.199-.492.301-1.01.65-.513 1.233 1.19 1.392 2.503 2.672 4.07 3.609.296.177.732.406 1.231.11.044-.764-.872-1.191-.827-2.46 1.225 2.534 3.343 2.466 5.215 2.963.885.234 1.007-.26 1-.956l-.023.02z"/><path d="M157.854 271.872l.353 1.19c.428-.268.518-.856 1.322-1.06-.523.76-.119 1.29.193 1.875.202.38.389.639.845.496.482-.152.763-.441.503-.97-.136-.277-.2-.575.031-.875.61-.275.882.322 1.32.489.607.23.6.512.296 1.105-.612 1.192-.37 1.778.647 2.468.944.642 1.626.548 2.75-.294.946-.707 1.379-1.742 1.97-2.665.301-.469.318-.939 1.17-.842.533.061.85-.595 1.002-1.272.632 1.497 2.12 1.11 3.165 1.582.219.098.405.013.486-.135.416-.757 1.448-.74 1.945-1.416.369-.499.839-.697 1.42-.135.289.282.741.18 1.084-.02.354-.208 1.078-.233.92-.752-.215-.708-.704-.053-1.079-.034-.316.017-.657.001-.95-.098-1.088-.368-2.122-.289-3.161.165a2.299 2.299 0 0 1-1.517.108c-1.77-.484-3.521-.552-5.272.06-.111.038-.317.103-.339.07-1.005-1.454-2.356-.318-3.535-.421-.321-.028-.646-.009-.97-.01l.021.023c.706-.784 1.585-1.196 2.698-1.101.213-.128.22-.262.015-.404-.377-.256-.735.015-1.098.043-2.063.166-3.956-.08-5.309-1.779-.141-.179-.341-.35-.803-.235l1.236 1.399c-.568.456-1.23.147-1.793.27v.337c1.279 1.024 2.834.658 4.296.75-1.713.005-2.602 1.347-3.862 2.088m-69.002 15.442c-.11.198.112.977-.272.556-.613-.674-.462.21-.666.16-.351-.088-.35-.437-.475-.683-.654-1.292-1.957-1.377-3.158-1.438-.45-.023-.91-.142-1.505-.134.397.659.295 1.347.482 2.014.59.054.194-1.043.916-.69.49.238 1.416-.352 1.353-.003-.198 1.112 1.142 1.458 1.042 2.446-.042.404.13.84.262 1.244.19.584-.18 1.4.347 1.74.583.38 1.386-.242 2.15.08.435.183.765-.357.97-.726.363-.645.785-.453 1.244-.152.382.476.224 1.363 1.118 1.524-.309.652.045 1.157.298 1.742.227.526.42.843 1.043.817.275-.011.465.1.376.45-.077.307-1 .126-.469.671.267.273.79.003.968-.298.426-.718.753 1.038 1.1.014.17-.504.516-1.011.085-1.562-.105-.135-.137-.324-.2-.476.456-.47.665.04.975.156.478.177.853-.099 1.185-.378.4-.337.101-.697-.074-.99a96.599 96.599 0 0 0-2.366-3.753c-.192-.286-.569-.472-.887-.664-.751-.452-.793.226-1.012.632-.765-.4-.78-1.562-1.538-1.722-.841-.179-1.52-.486-2.16-.979-.386.053-.84-.122-1.132.402zM42.967 41.64c-.317.384-.76.456-1.258.338-1.404-.334-2.813-.61-4.206-1.038-1.328-.41-2.252-1.376-2.948-2.37-1.121-1.598-2.7-2.796-3.785-4.408-1.01-1.5-2.077-2.968-3.088-4.47-.507-.753.066-1.8-1.017-2.298.161-.618.525-1.095 1.108-1.348.395-.17 1.113-.153.738-.787-.336-.566-.823-.033-1.202.094-.25.083-.426.34-.618.535-.228.232-.41.578-.846.324-.345-.201-.449-.553-.506-.908-.067-.41.277-.326.502-.452.755-.425 1.63-.762.73-2.056-.313-.452.38-1.417-.874-1.881.164.987-.59 1.51-.797 2.316-1.347-.637-.8-2.27-2.005-2.863-.368.296-.093.68-.161.994-.086.397-.12.828-.716.682-.48-.117-.736-.47-.699-.914.027-.323.192-.622.347-1.082-.533.225-.78.57-.812.969-.123 1.5-.529 3.017.619 4.485.29.371.371.795-.083 1.026-.436.222-.886.544-1.465.192a.417.417 0 0 1-.16-.27c-.127-1.056-.82-1.496-1.794-1.131-1.319.493-1.319.493-1.488-1.141-.209-.574-.838-.631-1.228-.982.395.336 1.042.373 1.204.988.36.005.634-.157.318-.483-1.003-1.03-2.266-1.638-3.587-2.126-.402-.15-.377.26-.505.323-.573.283-1.168 1.234-1.932.033-.095-.15-.19-.198-.262-.06-.07.135-.164.386-.102.446.675.651.547 1.022-.054 1.63-.715.726-.468 1.805.515 2.566 1.4 1.083 1.33 2.611 1.844 3.958.185.487-.321.696-.702.774-.632.127-.992.435-.981 1.082-.48-.064-.598-.431-.82-.71-.283-.358-.239-.421.071-.823 1.01-1.313.087-3.212-1.649-3.754-.403-.126-.806-.28-1.215-.359-1.272-.246-1.945.013-2.28 1.17-.257.889-.795 1.251-1.646 1.424-.445.09-.905.226-1.27.461-1.279.826-1.636 2.489-.864 4.003.27.529.68.999.992 1.512.472.776 1.46 1.428.904 2.47.614.252-.064 1.17.85 1.327.451.077.489.568.322.85-.258.436-.59.024-.883-.129-.153-.078-.308-.148-.53-.126.492.544 1.044.988 1.75 1.268 2.05.81 2.937.52 3.191-1.506.22-1.76 1.218-2.368 2.826-2.495.942-.075 1.798-.693 2.84-.235-.004.135.012.236-.01.243-1.623.495-2.248 2.041-3.416 3.015-.206.17-.517.548-.452.646.93 1.402-.88 2.118-.533 3.401.131.487-.453.663-.97.693-.243.014-.37.235-.308.501.08.339.34.164.522.23 1.178.425 1.893 1.38 1.73 2.37-.062.375-.152.655.279.855.153.07.376.107.512.053.495-.195.121-.557.058-.863-.021-.104.018-.212.053-.526.661.804 1.424 1.076 2.298 1.006.58-.046.825-.283.695-.877a25.341 25.341 0 0 1-.391-2.063c-.17-1.274 1.029-2.402 2.32-2.22.498.072.494.384.497.764.006 1.287.18 2.601-.579 3.927 1.648-.135 2.616-1.31 4.274-1.082-.683-1.457-.338-3.191-2.472-3.706.699-.503 3.192-1.274 4.833-1.486-1.163.819-.754 1.702-.355 2.614.477 1.09.89 2.202 1.346 3.3.16.38.313.782.565 1.11.509.663.906.68 1.525.106.283-.261.487-.63 1.073-.323-.554 1.188-1.692 1.859-2.52 2.789-.305.342-.82.36-1.312.177-.226-.085-.499-.264-.35-.495.678-1.046-.444-1.139-.949-1.444-.627-.378-1.122-.08-1.455.452-.177.28-.399.531-.572.814-.195.32-.509.658-.045 1.053.379.324.764.286 1.127.03.178-.126.37-.274.582-.309.517-.085.912.231 1.262.59.266.271.204.547-.025.749-.342.302-.74.557-1.25.224-.476-.31-.937-.484-1.508-.514-.837-.044-1.192.29-1.138 1.057.035.504.008 1.036.502 1.547.56.095.948-1.016 1.768-.158.196.205.804-.272 1.076-.639.433-.587 1.008-.994 1.92-1.416-.283 1.56.09 2.916.484 4.282.592.048.92-.389 1.343-.63.396-.227.701-.547.157-1.083-.223-.219-.158-.582.124-.736.255-.14.556-.067.844.098.42.241.487.796 1.057.947 1.042.275 2.366-.337 2.668-1.31.128-.414-.09-.775-.423-.851-1.61-.37-1.87-1.537-2.037-2.795-.03-.224-.1-.455-.356-.594-.416.065-.22.611-.564.738-.424.157-.988.404-1.29-.001-.361-.487.162-.806.559-.984.802-.359 1.388-.92 1.846-1.63.25-.385.626-.613 1.057-.783 1.186-.465 1.555-.184 1.565 1.134.005.7-.373.709-.915.526-.424-.143-.707-.73-1.233-.507-.218.238-.053.453.06.648.633 1.088 1.929 1.33 2.816 2.13.34.305 1.246.275 1.679-.48.37-.646.424-1.195-.161-1.68-1.043-.861-1.481-1.88-.93-2.926.52-.988 1.503-1.543 2.717-1.559.196.28.148.445-.01.514-1.548.665-1.55.661-.807 2.41.579 1.365.71 1.481 1.577 1.292.689-.15 1.235-.381.63-1.272-.155-.228-.174-.563-.18-.842-.013-.69.41-.92 1.014-.521.56.37 1.095.796 1.586 1.253.605.564.833 1.01-.012 1.596-.962.67-1.174 2.15-.466 2.901.658.7.94 1.794 1.933 2.166.975.364 1.871.134 2.7-.29 1.877-.962 3.368-2.279 4.224-4.226.226-.514.39-1.512 1.429-.428.303.316 1.515-.5 1.727-1.188.07-.226-.185-.595.299-.574.32.013.573.186.736.462.09.153.209.342.19.49-.128 1.085.698 1.278 1.48 1.542.462.156.457.175 1.553-.317.453.393.425.901.368 1.377.617.232 1.027-.039 1.312-.33 1.048-1.067 2.721-1.133 3.84-2.086.283-.241.668 0 .882.367.29.503.683.915 1.291.816a18.552 18.552 0 0 0 2.34-.55c.12-.036.168-.403.142-.614a.515.515 0 0 0-.658-.443c-.789.234-1.57-.007-2.368-.096-.63-.07-1.03-.301-1.561-.644-1.016-.654-2.183-.485-3.262-.247-.862.19-2.441-.017-3.16-.569-1.432-1.102-3.097-.859-4.65-1.25-.529-.134-.994.117-1.647-.271-.669-.398-1.193.645-1.916.815.066-1.386-.015-1.641-1.376-1.823-1.856-.247-3.74-.51-5.573-.243-.57.082-1.114.266-1.75.146-.098-.58.343-.633.719-.67 1.046-.1 2.06-.212 2.993-.703.66-.347 1.504-.177 2.257.067 1.899.614 3.877.87 5.724 1.703.403.182.814.274 1.222.264 3.62-.092 7.201.831 10.796 1.42.556.091 1.134.417 1.676.122-.038-.246-.201-.377-.369-.4-1.935-.268-3.78-1.127-5.772-1.185-1.763-.051-3.517-.684-5.249-1.234-1.909-.606-3.86-.9-5.803-1.14-.754-.093-1.392-.255-1.98-.746l.022-.006zm-13.509 84.148c.32-.347.305-.81.305-1.251-.001-1.359-.286-1.66-1.703-1.88-.345-.052-.702-.156-1.037-.135-1.022.063-1.697-.44-2.072-1.334-.462-1.1-1.254-2.099-1.496-3.329.233.05.41.045.44.101.736 1.39 2.306 1.654 3.408 2.547.275.222.715.645.894.484 1.107-.994 2.242.67 3.376.222.582-.23.599.813 1.315.92-.049-.61.437-.971.642-1.449.274-.635.56-.789 1.265-.624 1.166.274.58-.482.556-1.014-.635.123-1.037.618-1.865.288 1.1-.346 1.481-.993 1-2.05-.232-.514-.539-.757-1.082-.606-.378.105-.75.22-1.128.324-1.976.543-2.69.095-3.374-2.264 1.43.134 2.724-.497 4.34.266-.264-1.587-1.84-2.227-1.95-3.486-.63-.103-.852.28-1.218.382-.76.21-1.485.413-1.47 1.447.007.47-.464.426-.697.042-.658-1.086-1.258-2.2-1.913-3.36 1.51.13 1.5.113 3.04-.7.823-.436 1.69-.805 2.537-1.201.41-.191.784-.422.88-.892.134-.659-.517-.656-.86-.919-.274-.21-.61-.415-.371-1.02 1.067.767 2.132 1.471 3.124 2.266.822.659.74.8-.257 1.383-.487.285-.754.769-.688 1.386.057.52.375.82.888.978.28.085.542.255.824.33.39.108.839.27 1.035-.213.16-.395.092-.76-.378-1.006-.103-.054-.232-.109-.286-.196-.3-.488-.007-.857.18-1.238.088-.18.29-.156.441-.066.408.244.87.475.71 1.052-.03.104-.098.2-.104.308-.1 1.961.55 2.393 2.497 1.642.078-.512-.817-.844-.387-1.506.235-.361-.435-.588-.714-.858-.577-.559-1.498-.803-1.742-1.84 1.308.08 2.46-.257 3.577-.797-.082-.433-.531-.81-1.017-1.156-.23-.164-.474-.438-.746-.178-.27.257-.582.389-.878.064-.318-.349-.191-.702.03-1.06.629-1.024.066-2.394-1.125-2.799-.516-.175-1.064-.088-1.038.46.066 1.36-.91 1.569-1.905 1.82-.21.052-.402.15-.732.278.535.548 1.54.73 1.25 1.649-1.073-.386-3.782-2.323-4.218-3.045-.168-.279-.512-.665-.093-.868.42-.202.946-.497 1.432-.19.434.274.187.704.031 1.052-.117.26-.15.558.167.733.218.12.535.018.606-.158.39-.984 1.296-1.693 1.021-3.054-.134-.671-.39-.85-.845-1.056-.462-.207-.912-.24-1.209.214-.117.18-.25.353-.396.511-.876.947-1.858.995-3.021.123-.614-.46-1.271-.91-1.377-1.743.126-.017.245-.073.305-.034.492.319.563 1.197 1.23 1.167.86-.038 1.5-.644 2.181-1.061.392-.24.151-.808-.176-1.213-.264-.326-.476-.7-.955-.314-.193.156-.509.212-.784.23-.791.054-1.172-.387-.779-.99.435-.664.437-1.612 1.37-2.08.576.962 1.504 1.224 2.5 1.118.636-.067 1.649.23 1.445-.988-.01-.056.183-.108.25-.188.291-.346.94-.387.842-1.07-.125-.866-.353-1.71-.995-2.375-1.448-1.503-3.023-2.834-5.125-3.309-.516-.115-.906-.404-.753-.96.247-.902-.372-1.315-1.075-1.585-.346-.133-.852.105-.847-.545.004-.448.283-.662.713-.764.344-.083 1.015.076.889-.458-.134-.561.551-1.05-.057-1.578-.82-.71-.324-.9.312-1.066.165-.043.282-.152.263-.51-1.455-.54-1.67-2.264-2.937-3.174-.548-.392-.745-.961-.275-1.614.483-.67-.09-2.519-.808-3.046-.212-.157-.442-.144-.653-.058-.24.096-.263.305-.249.545.03.517.651.89.54 1.41-.158.73.385 1.492-.223 2.282-.408.53.084 1.64.471 2.43.605 1.235.863 2.315.265 3.61-.57 1.23.23 2.755.235 4.133.005 1.214.535 2.087 1.697 2.897-.579.084-.903-.36-1.254-.208-.418.181-.416.597-.46.979-.074.618.088 1.227.245 1.841.404 1.584.651 3.194 1.428 4.758-.246-.026-.416-.008-.438-.05-1.054-2.022-2.54-3.89-2.242-6.302.342-2.752-.04-5.547-.625-8.361-.416-1.998-.457-4.036-.641-6.055-.046-.5.032-1.002-.595-1.846.157 1.984-.112 3.566.195 5.215.325 1.739.5 3.474.29 5.188-.033.264-.167.506-.254.76l-.093.206c.012 2.01.479 4.03.467 6.04.046.07.094.137.14.205.124.128.331.247.36.384.56 2.66.745 5.97-1.63 7.581-.417.284-.698.67-.967 1.07-1.266 1.89-2.986 3.367-4.721 4.814-.423.353-.845 1.08-1.795.55.051-.6.777-.523 1.005-.916.005-.181-.107-.318-.269-.387-.378-.16-.81-.23-1.077-.588-.314-.42-.662-.722-1.166-.46-.406.211-.673.528-.562 1.062.045.216.01.438.01.657.147.315.266.656.69.717-.46-.032-.553-.389-.675-.718-.336-.044-.674-.256-1.056-.073.082 1.127.99 1.578 1.913 1.998-.821.942-.794.916-1.693.039-.515-.501-1.14-1.004-1.7-.168-.188.283-.467.222-.756.17-.508-.09-.707.197-.841.656.773.117 1.508.326 2.128.794-.212 1.137-1.793.767-2.07 1.916.522.031.95.048 1.379.085.265.024.426.21.493.44.098.338-.14.473-.377.63-.479.32-1.01-.405-1.533-.004.435.535 1.055.61 1.566.563 1.314-.12 2.81.25 3.795-.892.21-.24.64-.264.914.083.208.267.523.567.399.915-.13.361-.691-.32-.805.17-.131.567-.457 1.138.035 1.75.295.369.635.709.618 1.313-.753.21-1.574.446-1.575 1.49 0 .274-.19.534-.571.3-.325-.2-.447.03-.498.208-.252.898-.45 1.81-.03 2.783.37.856.593.974 1.488.58.367-.162.599-.07.941.084 1.502.676 1.592.69 2.526-.538.777-1.022 2.007-1.248 3.122-1.688.44-.174.838.11 1.023.48.289.579.766.678 1.438.767-.453.61-.513 1.516-1.713.765-.384-.24-1.024-.13-1.525-.08-.732.075-1.269.381-1.217 1.245.026.444-.078.882-.085 1.326-.019 1.5.376 2.056 1.924 2.313.8.134 1.096.65 1.44 1.168 1.726 2.588 3.396 2.92 5.606 1.08.248-.205.549-.406.673-.685.365-.816 1.208-.498 1.846-.665.653-.172.612-1.171 1.456-1.121.229.014.46.06.69.094h.03zm138.564-78.392c-.337-.078-.677-.234-1.073-.042.286.707.61 1.355 1.427 1.668.355.136.706.376.443.752-.261.374-.67.58-1.144.096-.207-.21-.342-.51-.575-.67-.492-.337-1.048-.732-1.512-.117-.408.539-1.692-.271-1.61.93.798.128 1.556.479 2.293.92-.488.939-1.98.61-2.182 1.766.437.358.806.043 1.187.113.399.074.705.24.699.646-.005.392-.341.494-.696.563-.35.067-.74-.516-1.193.128 1.798.547 3.417.499 4.847-.215 1.31-.656 1.389-.681 1.814 1.064-.175.189-.269.028-.36-.116-.088-.136-.13-.315-.35-.311-.755 1.068-.079 2.076.621 3.145-.928.36-1.69.639-1.743 1.864-.036.838-.413-.19-.71-.281-.585.831-.634 1.832-.494 2.84.162 1.171.722 1.522 1.859 1.147.487-.162.752.122 1.119.258 1.283.477 1.487.429 2.124-.708.714-1.276 2.192-1.315 3.399-1.781.303-.118.666.252.83.57.275.536.707.737 1.337.757-.407.682-.577 1.427-1.746.69-.437-.275-1.227.024-1.854.074-.459.036-.671.288-.717.741-.067.661-.178 1.31-.082 1.998.212 1.516.313 1.685 1.865 2.055.715.17 1.113.536 1.473 1.149 1.46 2.484 3.708 2.91 5.652 1.102.276-.257.498-.567.742-.856.28-.335.542-.563 1.128-.477.554.082 1.259-.037 1.4-.685.125-.573.561-.574.884-.394.466.26-.056.55-.054.844 0 .093.074.192.186.455.809-1.143.85-2.33.476-3.617-.107-.364-.35-.604-.752-.664-.232-.034-.468-.065-.693-.133-.879-.264-1.874.157-2.653-.697-.53-.58-1.616-2.94-1.773-3.894.167-.095.378-.035.448.1.77 1.496 2.663 1.474 3.632 2.7.063.08.283.169.309.142 1.057-1.09 2.236.64 3.366.2.611-.238.812.532 1.172.89.11.11.34.21.469.182.406-.092.045-.306.006-.486-.137-.617.466-.904.59-1.446.142-.622.809-.339 1.323-.18.28.086.446-.09.44-.333-.006-.284-.09-.598-.491-.58-.277.013-.503.236-.981.075 1.015-.763.69-1.706.196-2.772-.928.226-1.784.468-2.661.64-1.056.207-2.432-.837-2.562-1.9-.042-.347.145-.512.473-.525.972-.034 1.908-.324 2.916-.092.27.06.58.31.765-.018.15-.267-.006-.553-.212-.774-.364-.392-.837-.684-1.065-1.199-.186-.421-.427-.824-.686-1.318-1.258.484-2.508.871-2.731 2.764-.965-1.588-1.708-2.81-2.57-4.232 2.699.602 4.052-1.33 6.006-2.025.842-.3.685-.863-.233-1.534-.328-.241-.738-.452-.433-1.162 1.09.822 2.152 1.572 3.153 2.393.778.636.725.829-.16 1.302-.716.382-1.028 1.156-.725 1.796.221.471 1.846 1.217 2.333 1.033.432-.165.531-.557.299-.963-.133-.231-.489-.351-.647-.58-.226-.327-.109-.652.1-.925.18-.238.415-.35.733-.167.322.184.606.398.521.812-.054.266-.133.537-.12.81.071 1.448.815 1.961 2.181 1.52.547-.176.599-.403.238-.987-.843-1.365-.783-1.397-2.105-2.483-.283-.233-.555-.46-.651-.917.564-.424 1.326-.127 1.93-.095.765.041.644-1.452 1.771-.475-.613-1.041-1.01-2.112-2.349-1.46-.094.046-.371-.069-.454-.18-.234-.314-.177-.614.007-.923.726-1.217.277-2.427-1.074-2.92-.345-.126-.904-.179-.894.158.056 1.783-1.364 2-2.838 2.393.709.576 1.648.863 1.326 2.04-1.329-1.001-2.613-1.934-3.852-2.923-.406-.324-.867-.828-.609-1.32.203-.387.817-.27 1.263-.291.474-.022.612.268.488.668-.079.256-.21.499-.244.764-.016.126.11.322.226.43.155.144.358.071.455-.05.766-.96 1.305-2.054 1.34-3.33.02-.705-1.46-1.335-2.061-.928-.132.09-.215.24-.326.357-1.679 1.796-3.567 1.248-4.635-1.354.508-.22.586.277.707.51.393.754.881.916 1.542.518.187-.113.372-.228.563-.334 1.39-.764 1.39-.763.271-2.3-.531.096-.91.585-1.545.465-.469-.09-.937-.369-.677-.767.488-.75.583-1.763 1.477-2.378.731 1.188 1.806 1.287 2.922 1.164.523-.057 1.241.057 1.05-.861-.026-.127.273-.288.426-.427.907-.816 1.012-1.115.345-2.246-.786-1.33-1.742-2.548-3.258-3.216-.961-.425-1.735-1.3-2.883-1.301-.267-.001-.455-.332-.507-.649-.269-1.618-.273-1.618-1.769-2.013-.08-.451.156-.778.493-.943.52-.254 1.002-.318 1.07-1.148.059-.715-.235-1.129-.59-1.572.24-.47.86-.394 1.032-.823-.049-.127-.057-.275-.132-.328-1.303-.912-1.88-2.423-3.104-3.412-.387-.313-.471-.798-.088-1.197.298-.31.62-.643.381-1.165-.315-.69-.618-1.393-1.132-1.988-.086-.099-.333-.129-.484-.108-.353.05-.358.355-.362.634-.007.589.543 1.039.458 1.745-.07.583.162 1.147-.187 1.798-.33.613.107 1.527.43 2.292.201.474.518.888.582 1.439.087.75.364 1.428-.128 2.151-.377.553-.262 1.378-.2 2.12.092 1.102.493 2.176.416 3.316-.045.666.926 1.258 1.477 1.92-1.432-.22-1.736-.09-1.558 1.108.23 1.553.531 3.119 1.097 4.642.22.591.585 1.152.61 1.794-.128-.033-.308-.038-.33-.091-.831-1.91-2.607-3.513-2.378-5.773.15-1.481-.086-3.028.178-4.503.048-.264.055-.57-.03-.834-1.063-3.29-1.151-6.611-1.44-9.925-.035-.39-.123-.78-.201-1.265-.593.251-.333.695-.356 1.02-.144 2.172.385 4.375.42 6.548.051 3.018.207 6.04.543 9.064.149 1.342.445 2.68.518 4.036.086 1.62-.353 2.995-1.474 4.008-1.082.977-1.783 2.242-2.812 3.263-1.146 1.136-2.352 2.207-3.547 3.29-.439.397-.975.71-1.688.547-.143-.007-.28.01-.414.041-.653.117-1.077-.296-1.494-.726a26.512 26.512 0 0 0-.185-.14m-61.34 16.685a.947.947 0 0 1 .854.042c2.571 1.48 4.955 3.04 5.8 6.134.58 2.125 1.569 4.186 2.07 6.346.337 1.445 1.144 2.888.39 4.302-.185.346.836.696.127.957-.585.216-1.168.784-1.928.112l.025.003c-.442.929-.403 1.043.378 1.061.475.011.938-.018 1.322-.291.229-.162.516-.345.733.031.141.243.178.559.182.835.008.377-.271.361-.604.343-1.068-.057-1.852.073-1.431 1.516.14.48-1.057.97.108 1.746.173-.81.856-1.224 1.71-1.663.597 1.097-.156 2.269.547 3.247.59-.03.383-.405.439-.633.097-.406.275-.742.78-.708.157.01.386.103.468.224.265.397.226.78-.094 1.08-.182.17-.482.247-.528.638 1.607-.783 2.591-2.735 2.194-4.368-.092-.379-.21-.699.15-.868.489-.229 1.023-.09 1.524.18.053.029.057.203.048.303-.101 1.078.265 1.599 1.29 1.6.875 0 1.464.072 1.15 1.13a1.04 1.04 0 0 0 .001.505c.118.513.667.687.96 1.065.47.602-.706.389-.389.778.569.696 1.063 1.508 1.992 1.841.397.143.803.294 1.208.356.378.059.86-.164.748-.478-.384-1.082.53-1.229 1.016-1.707.498-.487.81-1.056.252-1.81-1.003-1.362-.347-2.671-.297-3.995.016-.41.413-.471.772-.492.343-.022.694-.002 1.035-.034.244-.022.282-.809.694-.144.205.33.393.801-.066 1.065-.693.396-.854 1.115-1.074 1.797-.065.204-.147.488-.05.654.676 1.143 1.809 1.809 2.935 2.385.848.432 1.438-.095 1.864-.735.31-.465.778-.587 1.36-.457.117.026.237.037.355.064 2.748.63 3.983-1.286 3.526-3.582a33.23 33.23 0 0 0-.359-1.538c-.149-.593-.539-1.17.155-1.68.247-.18.009-.827-.143-1.262-.336-.959-.33-.96.864-.882-.23-.818-.913-1.27-1.577-1.704-1.158-.758-1.903-.767-2.503.32-.93 1.687-2.258 2.043-4.18 1.387-.67-.23-1.42-.096-2.035-.544-.131-.235-.02-.395.138-.408 1.221-.099 2.291-.386 3.29-1.105.599-.43 1.616-.216 1.56-1.438-.027-.633 1.03-.575 1.343-1.12-.167-.582-.837-.702-1.13-1.155-.128-.198-.298-.445-.077-.62.204-.16.495-.071.543.196.209 1.205 1.05.528 1.614.713.496.162.703-.066.786-.365.14-.51-.42-.146-.55-.368-.29-.493-.384-1.03-.885-1.492-.381-.351.204-.768.493-1.077.142-.153.408-.264.193-.517a1.281 1.281 0 0 0-.6-.374c-.303-.085-.378.164-.412.392-.089.602-.12 1.225-.565 1.772-.365-.4-.158-.775-.111-1.098.13-.883-.407-1.284-1.166-1.545-.582-.2-1.069-.192-1.16.519-.043.335-.1.667-.176.993-.475 2.05-1.035 2.318-3.522 1.586.408-1.353 1.093-2.542 2.007-3.83-1.375-.313-2.503.101-3.66-.171-.322-.077-.389.295-.43.591-.15 1.102-.363 2.2 1.13 3.284l-4.61-.456c-.086-.642.755-.563.733-1.196-.059-1.709.08-3.404.008-5.113-.041-.94-.459-1.096-1.47-.79-.366.11-.752.268-1.306-.24.962-.202 1.672-.676 2.438-1.06.604-.304 1.286-.536 2.009-.24.282.117 1.18.302.29.886-.492.322.05.818.346 1.141.37.406.826.804 1.41.57.363-.145.691-.366 1.01-.584.325-.223.666-.518.436-.967-.25-.488-.663-.646-1.189-.389-.684.334-.926-.257-1.198-.72-.179-.304-.126-.57.142-.737.298-.187.671-.27.963.05.369.408.684.814 1.244 1.032 1.153.448 1.484.335 1.737-.757.138-.606.231-1.225-.782-1.009-.681.144-.895-1.158-1.737-.585-.487.332-1.16.43-1.762.602-.204.058-.448.015-.907.021.573-1.194 1.48-2.19.707-3.675-.578.132-1.439-.282-1.586.699-.048.314.134.755-.377.755-.379 0-.636-.31-.847-.621-.78-1.147-1.174-1.36-2.229-1.206-1.28.185-1.485.743-.54 1.74.6.637.566 1.245.488 1.935-.048.43-.415.807-.114 1.308.384.147.435-.238.659-.338.464-.207 1.099-.11 1.257.27.257.62-.419.666-.858.704a4.212 4.212 0 0 0-1.916.625c-.804.5-1.71.513-2.66.084.054-.637-.066-1.457.439-1.672.665-.281.778.795 1.344 1.005.108.04.226.045.422.082.052-1.648-1.113-2.634-2.306-3.554-.62-.478-1.013.177-1.47.371-.463.196-.352.652-.117 1.036.685 1.122.707 2.136-.242 2.925-.819.68-1.83.7-2.85.38-.14-.242-.115-.328.012-.371.517-.18 1.298.35 1.608-.273.371-.75.066-1.66.072-2.49.002-.389-.689-.616-1.2-.6-.441.014-.844.076-.716.656.066.301.017.555-.123.808-.372.675-.902.717-1.299.004-.433-.776-1.038-1.5-1.237-2.542.784-.052 1.548-.147 1.943-.92.391-.763 1.155-1.413.028-2.336-.066-.054-.019-.225-.056-.334-.547-1.591-.835-1.824-2.485-2.018-.66-.077-1.31-.049-1.905.151-1.524.513-3.154.857-4.163 2.209-.226.304-.627.321-1.077-.042-.791-.64-1.733-.77-2.043-.102-.512 1.108-.732.089-.974-.134-.232-.212-.143-.539-.042-.808.117-.306.283-.836-.045-.904-.66-.136-.67-.984-1.45-.989-1.04-.006-1.05-.108-.963-1.302-.989-.452-1.664.594-2.778.187-.852-.311-1.924.146-2.869.257-.627-1.733-1.534-2.309-3.267-2.232-.342.015-.512.152-.55.48-.053.438.183.653.593.732.625.12 1.205.197 1.798.645.477.36.915.578 1.264 1.162.512.86 1.563 1.11 2.492 1.295 1.351.268 2.419.738 3.295 2.008.912 1.323 2.562 1.82 3.993 2.464 1.835.825 1.853.778 3.228.522-.017.488-.726.497-.605 1.008.125.526.522.819.93 1.07 1.46.898 3.027 1.533 4.626 2.085.546.188 1.181.14 1.638.631-.264.414-.67.325-.968.21a6.201 6.201 0 0 0-2.623-.43c-.72.04-1.414-.294-1.99-.787-3.34-2.867-7.188-4.842-11.077-6.763-1.25-.618-2.406-1.456-3.6-2.205-.51-.32-.978-.764-1.838-.52 1.76.994 3.135 2.26 4.857 3.08 1.526.729 2.964 1.702 4.367 2.678 1.714 1.192 3.322 2.558 5.273 3.33.695.275.917.975 1.524 1.28l-.028.002zm-12.115 63.863c.192.746.818 1.239 1.266 1.84.443.593 1.131 1.113 1.012 1.933l-.004-.029c1.126.695 1.44 1.929 2.213 2.86 1.434 1.734 2.93 3.434 4.231 5.25 1.022 1.426 2.062 2.831 3.179 4.193.19.231.305.529.735.606-.14-.72-.621-1.256-1.033-1.812-1.7-2.299-3.404-4.588-4.717-7.107-.722-1.386-2.128-2.326-3.112-3.57-.916-1.158-1.93-2.177-1.822-3.715.048-.69-.762-1.377-.433-2.367.694 1.443 1.284 2.723 1.926 3.985.348.685.617 1.41 1.296 1.944.52.407.988.627 1.602.122.04.866-.078 1.462.51 2.202 1.142 1.438 1.674 3.267 3.635 4.159.413.187.866 1.044.996 1.754.135.735.437 1.456.963 2.086.202.242.391.48.735.44.354-.04.365-.317.433-.593.33-1.336-.104-2.781.137-4.136.09-.51-.35-.477-.72-.373-.38.107-.599.023-.738-.465-.31-1.087-.796-1.435-1.884-1.406-.384.01-.71-.018-.96-.334-.385-.488.216-.51.346-.751.282-.52.412-1.013-.208-1.52-.53-.43-.36-.729-.007-1.117 1.215-1.335 1.635-3.019 1.525-4.883-.083-1.426-.627-1.757-2.105-2.376-.813-.34-1.343-.415-1.915-.004-.508.365-1.259.572-1.078 1.467.054.266-.106.46-.385.375-.805-.246-1.61-.55-2.277-1.094-.391-.319-.146-.668.175-.797.396-.16.855-.203 1.394-.319-.292-.591.158-1.501-.972-1.59-2.056-.16-2.15-.039-2.278 2.068-.58-1.352-.512-2.258.161-3.053.58-.684 1.339-.642 2.214-.27.6.254 1.1.283 1.414-.406.326-.72-.038-1.286-.585-1.58-.646-.347-1.236-.789-1.89-1.106-.262-.128-.629-.22-.8.052-.22.35.175.422.4.606.748.614.703.833-.08 1.106-.686.237-.991-.041-1.098-.7-.027-.17-.06-.344-.053-.51.01-.224-.026-.513.1-.65.71-.783.31-2.065 1.036-2.865.783.585.313 1.162.328 1.773.251-.011.504.03.7-.041.801-.284 1.54-.298 2.292.415.577.547.968.223 1.242-.251.431-.748.171-1.708-.677-2.248-.36-.229-.77-.351-1.043-.903 1.013-.181 1.604-.682 1.198-1.794-1.243-.329-2.224.035-3.081.873-.441-.973.02-1.662.226-2.35.27-.904-1.136-1.275-.492-2.243-.559.128-.795.146-.99.233-1.097.496-1.2.974-.414 1.95.188.235.47.403.666.634.37.438.184.78-.198.966-.359.176-.67-.1-.917-.386-.073-.086-.149-.23-.127-.317.146-.627.067-1.168-.777-1.233-.472-.037-1.04.98-.963 1.56.057.44.947 1.228 1.422 1.26 1.382.094 1.466.195 1.046 1.543-.224.72-.534 1.404-.81 2.119-.457-.181-.307-.458-.263-.691.206-1.106.055-1.388-1.036-1.391-1.403-.006-2.786.153-4.18.227-.515.027-.72.45-1.06.73-.517-.617-.395-1.27-.579-1.87-.169-.555-.365-1.105-.485-1.465.607-.49.75-.143.968.045.805.695 1.604.287 2.324.131.7-.151.254-.863.152-1.315-.152-.665.197-1.334-.352-2.16-.79 1.01-1.969 1.333-3.043 1.82-1.033-1.65-.801-2.449.805-2.93.216-.065.473-.066.654-.175.37-.226 1.204.059 1.041-.757-.133-.67-.481-1.216-1.285-1.32-.172-.023-.344-.042-.515-.062-.127-.358.17-.342.356-.422.265-.112.835-.002.574-.536-.21-.425-.535-.267-.873-.105-.817.395-1.611.106-2.569-.86-.192 1.491-1.088 2.41-2.429 2.97-.15.063-.425.15-.413.214.236 1.298-1.424 1.89-.923 3.293.08.228-.088.511-.205 1.083-.783-1.487-1.146-2.725-1.303-4.005-.046-.367.148-.639.39-.865.158-.147.353-.256.523-.391 1.56-1.249 1.523-1.97-.184-3.387-.236-.196-.49-.372-.751-.57-.257.324.742 1.53-.624.956-.443-.186-1.02-.232-1.153-.118-.722.622-1.548.153-2.333.076-.472-.046-.96-.194-1.411-.16-1.584.12-2.856.884-2.385 2.788.232.936.408 1.782-.607 2.328-.49.263-.265.894-.054 1.407.356.866 1.201 1.368 1.767 2.08.214.271.552.26.823.168.628-.216 1.356-.357 1.634-.994.322-.738.82-.244 1.257-.157.16.275-.063.317-.165.414-.465.436.436 1.42-.399 1.609-1.028.234-2.034.632-3.239.21-1.525-.534-1.58-.51-2.376.808-.273.453-.737.152-1.036.355l.042.075-.018-.078c-.942.211-.408.86-.206 1.331.305.714 1.116 1.4 2.486 2.3.188-.252-.391-.506-.108-.727.229-.178.413.004.554.225.543.86 1.357.085 1.94.51.621.454-.053 1.378.872 1.823.423.204.675.555 1.066.044.086-.11.446.478.455.815.011.43-.182.868-.663.76-1.62-.362-2.566.616-3.688 1.25-.187.107-.343.275-.297.548.346.322.487.02.672-.14.301-.26.668-.537 1.007-.027.3.448-.04.729-.432.89-.192.079-.399.128-.787.25 1.085.695 2.08-.04 2.967.54-.038.757-.787 1.065-1.11 1.78.98.202 1.608-.417 2.451-.353.402.031.536-.666.342-1.134-.284-.685.183-.641.584-.616.68.045.571.41.426.828-.178.512-.293 1.053.226 1.726.646-.65.098-1.79.87-2.28l.644.65-.033.003c.408-.737 1.117-.762 1.94-.607 2.459.463 4.9.916 7.334 1.738 1.491.504 2.986.863 4.324 1.782.484-.93-.288-1.593-.843-2.25-.546-.65-1.089-1.33-1.68-1.91-.95-.932-1.205-1.871-1.056-2.9.104 1.532 1.124 3.418 2.097 3.73.782.252 1.294-.02 1.53-.894-.093 1.047.208 1.94.333 2.836.07.506.49 1.195-.39 1.366M94.4 16.275c-.155-.109-.302-.233-.465-.325-1.09-.615-1.124-.626-1.488.42-.226.646-.348 1.323-1.307 1.228-.307-.031-.608-.057-.826-.335-.251-.32-.041-.545.098-.768.31-.492.639-.972.985-1.497-2.769-.63-3.077-.376-2.346 1.902-.732.021-1.401-.2-2.056-.44-.25-1.764.661-3.348-.192-5.08.344-.306.773-.3 1.182-.315.465-.017.808.003.608.669-.174.582.311 1.035.92 1.122.483.069 1.015-.115 1.118-.587.145-.666-.468-.495-.839-.6-.417-.116-.676-.447-.48-.782.152-.26.52-.098.79.1.306.223.603.465.93.646.431.237.672-.016.847-.314.227-.388-.09-.508-.386-.792-.892-.854-1.693-.24-2.62-.302-.172-.556.307-.782.455-1.143.151-.372.306-.822-.148-1.095-.535-.322-.91-.096-1 .478-.014.085-.149.136-.32.283-.533-.556-.733-1.582-1.826-1.469-.687.072-1.003.363-.608.948.36.534.397.976.3 1.488-.033.16-.06.355.002.51.27.68.282.676-.425.828-.447.097-.841.367-1.36.22-.274-.077-.656-.053-.644-.478.006-.22.04-.5.184-.62.332-.279.489.112.686.325.122.13.254.303.541.1.142-.842-.622-1.403-1.163-2.03-.216-.25-.533-.285-.835-.177-.373.133-.543.38-.421.784.217.714.3 1.392-.216 1.937-.416.072-.491.513-.824.675-1.9.68-1.936.872-.468 2.522.167.188.218.348.048.164-.07-.075-.213-.065-.342-.046-.15.06-.21.165-.187.32.864.867 1.728 1.733 2.59 2.6-.815-.161-1.368-.842-2.33-.797-.1 1.63-.233 3.31-1.19 4.67-.23-.579-.709-.638-1.287-.457-.287.089-.578.158-.576.5.003.781.86.542 1.187.938-.014.455-.736-.055-.71.446.454.605 1.17.02 1.83.684-1.196.11-1.781.717-1.765 1.906.543.34.824-.58 1.356-.17.413.462-.03.874.084 1.308.159.188.329.19.473.09.832-.579.816-.005.794.584.777-.73.783-.729 1.286-2.42.086-.293.209-.529.57-.48.385.052.518.28.4.62-.1.283.142.483.342.57.811.355 1.585.638 1.02 1.687-.117.217.902.367.595 1.056-.084.186.503.815.883 1.11.434.336.67-.214 1.023-.312 1.593-.438 1.608-.548 1.368-2.289-.22-1.594.05-1.934 1.73-2.167.44.655-.121.945-.408 1.274-.545.626-.392 1.176.198 1.831.61.677 1.318 1.183 2.057.71.635-.407 1.246-.373 1.989-.304 1.537.14 2.226-.503 1.998-1.992-.197-1.287.255-2.407.263-3.636.005-.625-.326-.843-.715-1.135-.396-.297-.801-.327-1.173-.085-.542.352-.675 1.223-1.557 1.13-.902-.096-1.786-.38-2.831-.766.45-.468 1.055-.222 1.482-.375 1.052-.376 1.994-.893 2.76-1.646.572-.56 1.737-.874.756-2.152-.117-.151.186-.522.146-.79-.04-.266-.327-.309-.57-.216l.03.001z"/><path d="M42.962 42.291c-.355-1.223-1.554-1.892-2.282-2.874-.403-.544-.91-1.012-1.093-1.824.912.516 1.373 1.265 1.851 1.945 1.411 2.005 3.372 2.924 5.625 3.305 1.174.199 1.356-.088.82-1.224-.13-.273-.3-.533-.451-.8-.119-.21-.282-.414-.106-.824 1.398.774 1.152 2.68 2.784 3.5-.296-1.187-1.132-2.016-1.15-3.09.785.466.915 1.234 1.25 1.901.352.702.588 1.407 1.73.984.54-.2 1.497.31 2.239.597.62.24 1.278.393 1.732.11.851-.527 1.513-.384 2.305.938-.15-1.624-.71-2.717-1.16-3.808-.285-.689-.91-.822-1.437-.426-.11.083-.122.274-.18.416.158-.047.31-.116.476-.136.39-.049.536.21.594.52.047.25-.057.554-.309.45-1.429-.59-2.19.708-3.402.64-.244-.239-.243-.469-.082-.631.66-.667.267-1.2-.47-1.669-.73-.465-1.024-1.053-1.31-1.848-.54-1.495-1.474-2.902-1.744-4.477-.057-.328-.316-.656-.643-.883-.315-.218-.549-.4-.87-.017-.699.836-1.498 1.02-2.328.229-.548-.523-.559-.345-.798-.042-.302.383-.587.77-.705 1.27-.129.541-.366 1.025-.965 1.398-.776-.652-1.646-1.266-2.074-2.212-.386-.852-.83-.89-1.469-.523-.119.067-.34-.01-.467-.017-.186-.096-.247-.214-.156-.315.98-1.087 1.003-1.102-.144-2.35-.373-.405-.442-.843-.618-1.283-.366-.912-.484-.949-1.423-.582-.21.082-.402.198-.62.255a.568.568 0 0 1-.637-.235c-.166-.233-.12-.441-.005-.636.282-.483.758-.582 1.582-.257-.73-.966-1.218-1.376-2.149-.917-.51.253-.398.529-.346.912.041.302.044.598-.392.556-.365-.034-.517-.252-.57-.589-.051-.33.195-.657-.134-.988-.966 1.13-1.004 2.582-.054 3.663.304.345.712.702.278 1.008-.396.279-.89.165-1.156-.432-.1-.222-.214-.438-.573-.568-.314.325-.729.599-1.208.825-.762.36-.729.834-.118 1.631.754.984 1.621 1.866 2.485 2.765.97 1.01 1.868 2.14 2.741 3.254.359.456.713.84 1.29 1.023.693.22 1.547.874 2.035.402.55-.532-.325-1.242-.646-1.838-.63-1.172-1.142-2.395-2.048-3.463-.367-.435-.728-.992-.54-1.601 1.9 2.338 3.163 5.023 5.247 7.225.595.629 1.102 1.363 1.99 1.652l-.022.005zm133.672-16.026c.216-.26.367-.666.658-.752 1.464-.434 1.783-1.385 1.188-2.794-.21-.497-.11-.944-.054-1.397.086-.7-.168-1.349-.704-1.83-.684-.614-.624-.977.042-1.33.137-.072.204-.241.03-.553-1.132.267-2.147.795-3.172 1.289-.457.22-.386.648-.048 1.053.073.088.216.194.309.19.326-.015.059-.235.062-.364.01-.326.13-.564.504-.55.192.006.406.158.402.33-.029 1.256 1.24 1.994 1.658 3.064-.344.451-.65.01-.94-.116-.497-.215-.957-.15-1.07.274-.548 2.06-2.735 2.148-4.19 3.108-.597.395-1.547.231-1.94.957-.105.19-.207.383-.372.69 1.552.438 1.868 1.433 1.366 2.501-.23.495.154.49.303.612.742.602 1.654.61 2.494.867.756.232.936.606.514 1.172-.202.27-.343.636-.625.79-.999.548-1.474 1.3-.796 2.652-1.522-.915-1.383-.757-2.544.137-.911.702-1.936 1.263-2.723 2.13-.58.64-.2 1.13.233 1.714.326.442.642.264.982.2.253-.05.497-.003.591.292.122.377-.067.556-.436.546-.285-.006-.583-.074-.796.181 1.771.896 2.513.882 3.603-.104.263-.238.51-.543.904-.302.402.246.325.627.11.926-.16.225-.54.464-.373.704.34.494.796.944 1.268 1.337.755.629 1.22.222 1.66-.3a399.83 399.83 0 0 1 4.345-5.08c.472-.542.603-1.2.644-1.91.02-.349.1-.72-.288-.987-.4-.274-.725-.041-.997.133-1.052.676-2.08 1.383-3.112 2.085-.227.154-.429.338-.712.442.364-.925.986-1.575 1.852-2.125 1.442-.915 2.588-2.161 3.545-3.557.099-.145.076-.325-.161-.611-1.287.712-1.492 2.588-3.322 2.97.882-1.674 2.99-2.323 3.058-4.297.04-1.141.168-2.335-.31-3.486-.644-.41-.944.085-1.362.205-.387.11-.499.632-1.093.551-.256-.863.476-.976.968-1.239.554-.295 1.125-.56 1.27-1.283-1.005-.073-1.425 1-2.432.835-.202.011-.283.178-.421.273.075-.18.246-.221.43-.243M107.095 65.93c-.848-1.263-1.856-2.378-3.2-3.196-.461-.28-.916-.86-1.428-.622-.58.27-.27.95-.217 1.492.03.303.285.66-.12.962-1.096-1.057-.123-2.502-1.23-3.585-.277 1.285.356 2.646.013 4.047-.14-.302-.205-.389-.219-.476-.196-1.227-.018-2.648-.68-3.623-.623-.916-2.248-1.146-3.248-2.028-.346-.306-.76-.336-1.178-.379-.957-.097-.958-.11-1.682-1.07-.254 1.229-.332 2.37-.087 3.611.746.003.333-.49.438-.715.094-.202.279-.489.413-.383 1.07.84 2.27.311 3.328.733.181.457-.055.582-.344.632-.573.1-.54.474-.267.866 1.357 1.943.967 3.895.873 5.804-.036.76.112 1.406.322 2.03.457.305.62.073.818-.093.488-.407.841-.316 1.468.208 1.138.952 1.215.87 2.22.074.413-.327.806-.672 1.208-1.009 1.177 1.232 1.263 1.422 1.554 3.406.477.21 1.02-.064 1.55.438-.173.371-.64.244-.968.337-.313.088-.485.302-.34.61.67 1.433.473 2.937 1.115 4.374.31.693.71 1.03 1.471.93.322-.043.516-.153.595-.433.087-.306.122-.713.635-.426.468.261.25.572.105.854-.07.135-.13.275 0 .438 1.305-.558 1.729-1.337 1.316-2.598-.128-.39-.461-.878-.008-1.019.513-.16.834.315 1.01.801.077.214.195.419.314.672.425-.276.77-.474 1.336-.43.638.052 1.024-.376.754-1.1-.347-.925-.548-1.86-1.039-2.782-.66-1.239-1.062-2.578-1.526-3.884-.29-.818-.805-1.448-1.545-1.958-.317-.217-.641-.42-.988-.29-.397.147-.281.534-.2.857.321 1.264.377 2.51.467 4.064-.78-.956-.699-1.746-.88-2.484-.45-1.833-.837-3.68-2.078-5.336l.028-.001c-.446.517.317 1.142.107 1.68.306.56.342 1.184.679 1.736-.37-.546-.395-1.169-.665-1.737M18.412 86.6c.173-.301.408-.537.723-.705.884-.471 1.428-1.026.81-2.238-.252-.493-.096-1.17-.038-1.744.068-.689-.053-1.36-.615-1.846-.933-.808-.47-1.216.395-1.587-1.065-.585-1.473.186-2.083.34-.625.156-1.284.3-1.674.847-.249.35-.108.663.246.927.18.134.464.362.391-.104-.069-.442.095-.739.53-.666.35.058.407.458.383.75-.038.463.198.785.539 1.121.41.404.756.866.8 1.37-.035.303-.26.35-.402.273-.997-.532-1.562-.14-1.788.682-.188.687-.588.936-1.262 1.183-1.294.478-2.359 1.37-3.787 1.67-.498.105-.797.619-.96 1.294 1.214.252 1.478 1.184 1.366 2.073-.11.874.232 1.23 1.03 1.482.714.225 1.485.216 2.147.687-.059 1.456-1.042 2.196-2.132 2.79-.022.49.607.532.61.93 0 .167.008.362-.075.484-.113.163-.352.1-.474-.045-.835-1.005-1.347-.592-1.802.149a1.79 1.79 0 0 1-.323.392c-.42.375-1.22.267-1.435.872-.256.72.675.984.879 1.534.054.148.043.383-.048.474-.097.096-.34.132-.494.083-.584-.182-.97-.56-.956-1.3-.49.447-1.054.722-.638 1.363.276.425.538 1.064 1.295.83.29-.09.636-.057.716.363.106.564-.318.486-.694.465-.182-.01-.38-.028-.477.152 1.395.869 2.463.884 3.496-.004.266-.228.497-.562.899-.245.492.389.157.707-.035 1.065-.105.195-.894.5.016.795.803.26 1.096 2.056 2.334.96.17-.152.356-.287.503-.457 1.403-1.62 2.774-3.267 4.21-4.86.633-.703.624-1.577.596-2.455-.02-.6-.615-.936-1.037-.544-1.048.972-2.592 1.302-3.506 2.43-.4.494-.941.809-1.724.736 1.583-.624 2.319-2.128 3.652-3.07 1.313-.927 2.71-2.078 3.192-3.82l.015.03c-.713-.554-.815.146-1.032.426-.592.76-1.414 1.31-1.688 1.756.463-.559 1.401-1.293 2.04-2.285.74-1.148.322-2.498.236-3.785-.084-1.256-.617-1.81-1.838-1.104.743-.467 1.752-.719 1.636-1.9l.005.017a2.033 2.033 0 0 0-1.41.585c-.341.33-.71.558-1.266.373-.194.008-.292.162-.44.24.116-.128.248-.227.443-.23m61.993-16.503c-.311.092-.575-.094-.848-.267-.411-.259-.841-.364-1.163-.092-.301.254-.078.642.113.944.718 1.136.195 1.837-.446 2.508.057.067.115.132.163.192.05.014.132.065.168.048.166-.077.287.033.174.108-.966.64-2.284.67-3.319 1.194-.534.27-1.377.523-1.129 1.198.284.773.74 1.786 1.718 2.077.862.255 1.144.628 1.579 1.388.72 1.256 2.268 1.886 3.375 2.886.212.159-.187.253-.014.12.041-.03.028-.075-.04-.134-2.196-1.92-4.707-3.457-6.852-5.446-.4-.37-.934-.41-1.406-.268a1.044 1.044 0 0 0-.36.268c-.04.033-.068.086-.116.106-2.126.875-2.146 1.31-.135 3.255-.325-.014-.724-.407-.946-.096-.264.372.147.602.466.816.321.217.674.401.827.777.33.3.78.504.967 1.167-.716-.301-1.397-.473-1.557.332-.088.446.082.914.498 1.079.817.325.81-.548 1.275-.82.412.355-.17.733.206 1.036.385.31.52-.361 1.08-.002-.417.809-.715 1.713.226 2.764.487-.235-.067-1.296.756-1.166.661.104.666.867 1.04 1.286.698.28-.274-1.704 1.088-.582.281.233.32-.167.276-.366-.168-.75-.193-1.524-.847-2.197-.205-.21-.207-.439-.023-.613.222-.21.398-.044.602.152.731.7 1.43-.005 1.995.26.484.226.656 1.003 1.332 1.457 1.129.758 1.819-.208 2.786.141.135.049.153-.324.138-.57-.065-1.035-.097-1.942-1.321-2.793-.979-.681-1.185-1.842-.78-2.334.163-.197.328-.459.705-.327.389.136.374.423.417.727.238 1.666.987 2.251 2.521 1.988.222-.038.58-.11.592-.241.105-1.192 1.247-1.54 1.86-2.312.613-.773.377-2.002-.784-2.786-1.054-.712-1.186-1.743-1.849-2.57-.663-.825-.512-.99-1.193-1.034-.701-.047-1.07.177-1.156.875-.256 2.072-.443 2.198-2.814 2.409-.08-.77.819-.715 1.03-1.265.372-.965.424-1.992.543-3.018.119-1.031-.244-1.827-1.452-2.258l.034-.001zm17.549 61.042c-1.664-.842-3.415-1.31-5.256-1.278-.843.015-1.644-.002-2.338-.59l-.07.01.073.02c1.324-.193 2.662-.105 3.998-.015.29.02.622.097.77-.21.143-.3-.076-.552-.279-.776-.391-.435-.653-1.01-1.297-1.17-2.11-.525-4.21-1.116-6.336-1.554-1.28-.264-1.8.433-1.499 1.671.117.482.539.378.806.562.221.154.29.366.246.608-.052.285-.296.396-.517.295-1.367-.622-2.02.348-2.799 1.038.16.54.473.206.712.238.16.022.378.087.45.203.19.302-.142.32-.29.46-.617.587-.515 1.431.206 1.695.182.067.673.323.41-.311a1.292 1.292 0 0 1-.073-.669c.038-.226.198-.435.469-.429.273.006.376.21.431.461.27 1.242.273 1.237 1.478 1.2.226-.008.49-.026.68.075.95.506 1.408.037 1.737-.94.218 1.141.774 1.532 1.762 1.35.251-.047.566.122.836.233 1.17.48 1.182.569.344 1.479-.31.335-.61.69-.84 1.08-.173.29-.03.45.259.762.436.473 1.347 1.118.543 2.01-.301.334.04.549.303.614.395.097.896.249 1.204.1 1.093-.533 2.301-.3 3.428-.533.546-.112 1.096-.134 1.535.176.953.674 1.588.437 2.014-.66.669 1.163-.254 2.428.884 3.176-.341.537-.915.024-1.244.581 1.316.537 2.467-.049 3.753-.267-.785-.248-1.382-.475-1.22-1.472.114-.706-.697-1.18-1.047-1.78-.697-1.199-1.399-2.303-3.168-1.81.467-.812 1.306-.251 1.778-.831-1.03-.458-2.089-.08-3.375-.357.673-.5 1.256-.355 1.761-.444.782-.138.906-.364.416-1.032-.698-.951-1.373-1.935-2.342-2.66-.617-.085-1.184-.364-1.785-.514-.254.09-.473-.25-.735-.088.246-.244.436.194.675.08.637.106 1.221.397 1.846.54l.7-.356.003.029zm43.277-102.89c-.173-.239-.631-.718-.09-.674 1 .083 1.26-.507 1.645-1.167l-1.139-.048c-.288-.555.188-.938.107-1.44-.21.087-.515.29-.579.232-1.062-.952-1.492-.247-1.871.516-.142.286-.187.637-.639.522-.596-.152-.417-.512-.301-.864.027-.083-.032-.218-.086-.313-.745-1.345-.792-1.389-.713-2.526.042-.616-.19-1.053-.69-1.423-.34-.25-.674-.514-.937.012-.17.338-.561.26-.867.327-.435.095-.653.325-.595.785.055.443-.001.87-.167 1.26-.403.955-.783 1.045-2.035.524-.087-.294.12-.364.33-.437.66-.23 1.165-.57.897-1.407-.305-.952-.993-1.46-2-1.379-.412.034-.735-.066-1.118-.223-1.52-.62-2.442-.315-2.738 1.14-.204 1-.774 1.785-1.085 2.711-.146.436-.337.692.026 1.084.348.376.733.472 1.218.337 1.767-.491 1.772-.477 3.576.989-2.099-.602-3.464.46-5.026.93-.41.124-.36.553-.253.805.259.605-.322.702-.484 1.023.065.482.545.35.775.567.648.613 1.205.58 1.665-.07.253-.36.605-.574 1.026-.704.04-.055.08-.109.122-.16 1.355-.058 2.234.997 3.308 1.589.707.388 1.586 1.039 2.022.151.335-.681 1.234-1.685-.216-2.516-.22.01.073.01-.15.017-.152.005-.304.013-.458-.004.124-.036.256.03.388.006 2.488-.473 1.095-3.059 2.28-4.277-.708.84.151 1.742.115 2.67-.05 1.314-1.034 2.054-1.218 3.264-.141.925-.06 1.407.727 1.895l.236.006c.117-.137.076-.512.35-.379.223.109.33.448.535.638.765.71 1.075.66 1.424-.2.06-.145.111-.296.164-.445.122-.347.225-.703.365-1.041.256-.615.476.235.682.092.487-.338.063-1.2.744-1.442.464.177-.184.685.275.757.417.066.911.263 1.27-.057.241-.213.136-.49-.077-.721-.25-.271-.641-.257-.91-.427-.481-.304.118-.337.168-.522l.002.017z"/><path d="M129.969 28.875c.649.42 1.297.826.284 1.488-.331.217-.606.514-.958.818.423.709 1.241.905 1.805.797.733-.141.846-.976.823-1.693.428-.226.649.19.955.299.331.117.71.148.946.473-.681 1.329-1.751 2.481-1.764 4.114-.006.69-.549.457-.897.44-.36-.016-.709-.2-.652-.663.02-.167.149-.317.166-.484.07-.666-.217-.988-.932-.93-.875.072-1.499.699-2.33.883-.345.076-.262.43-.054.713.533.719 1.178.985 2.002.628l-.03-.136.008.138c.19.206.52.384.225.708-.227.248-.534.443-.695.726-.13.228-.147.57.135.797.202.163.483.215.652.055.513-.49.827-.35.907.315.08.662.48.934 1.057.988.477.046 1.045.036.786-.706-.151-.433-.16-.796.127-1.13.605-.703.038-.972-.962-1.19 1.082-.367 1.766-.038 2.427-.075.236.04-.068-.039.167.004-.056-.002-.11-.025-.165-.035-.5.708-.214 1.46.042 2.181.135.383.373.752.924.67.434-.067.49-.33.587-.7.32-1.24.351-1.232 1.9-1.184-.337.447-.644.823-.915 1.224-.195.29-.048.56.208.765.255.203.514.317.72-.047.187-.33.513-.562.861-.325.4.27.189.764.245 1.156.062.427-.197.518-.599.632-1.487.425-1.603.664-1.54 1.842.045.835.457 1.324 1.238 1.549.75.215 1.535.485 2.282.264 1.19-.353 2.228.105 3.29.574.156.069.461.135.362.28-.7 1.036.933 1.509.693 2.43-.07.272.202.455.441.426.647-.078 1.07.504 1.671.56.574.055.994.286 1.12.955.133.717.72 1.017 1.42 1.227-.293-1.083-1.341-2.896-1.991-3.396-.772-.592-1.435-1.157-1.689-2.21-.281-1.165-1.383-1.912-2.186-2.797-.11-.124-.42-.196-.42-.28.01-2.111-2.026-2.65-3.138-3.92 2.049.387 3.26 1.776 4.069 3.506.708 1.517 1.999 2.504 3.212 3.618l-2.64-4.349.01.035c-1.315-1.028-2.122-2.468-3.17-3.71-.937.044-1.65-.274-1.813-1.283-.141-.873-.745-1.46-1.113-1.968.45.458.906 1.137 1.258 1.908.317.696.71 1.414 1.677 1.376l-.305-3.254.017-.001-.166.296c-.152.267.017.771-.478.777-.422.004-.546-.401-.714-.704-.344-.62-.691-1.24-1.01-1.874-.195-.387-.481-.672-.837-.904h.002c-1.45-.031-2.686-.742-3.898-1.445-.83-.482-1.638-1.006-2.5-1.427-.445-.217-.909-.42-1.159.213l-.001-.028zM78.163 73.658c-.455-.137-.713-.393-.78-.874-.092-.677-.341-1.356.016-2.247-1.012.477-1.926.757-2.02 1.604-.075.671.6 1.257 1.725 1.5l-2.368 1.315c-.334-1.514-1.255-2.682-2.143-3.823-.647-.832-1.26-.896-2.117-.346-.42.27-.689.194-1.102-.054-.368-.222-.79-.348-1.186-.522-.514-.225-.944-.19-1.25.221-.364.488-.007.818.4 1.173.864.755.928 1.505.1 2.416-.049-.777-.347-1.297-.747-1.79-.204-.252-.353-.507-.714-.422-.385.09-.582.269-.392.727.135.322.273.743-.167.87-.505.147-.912-.239-1.316-.532-.385-.278-.34-.554-.184-.9.325-.732.412-1.447-.443-2.155-1.07-.887-1.257-.951-2.324-.444-.911.434-1.339 1.21-1.733 2.09-.292.65-.154 1.803-1.473 1.65-.13-.016-.28.303-.377.49-.3.576-.693.55-.975-.068-.342-.752-.806-.842-1.432-.616-.052.018-.09.081-.141.084-1.76.087-1.778.065-3.012 1.018-.363.281-.66.372-1.085.047-.333-.253-.701-.307-1.019-.155-.38.181-1.127.184-.972.718.195.671.74.25 1.157.202.399-.047.882-.153 1.219.017.822.413 1.53.262 2.251.08.74-.187 1.467-.207 2.251.126.52.22 1.08.105 1.597.211 1.212.25 2.175-.699 3.568.06 1.131.617 2.397-.236 3.67.034a4.8 4.8 0 0 1 .222.055c.23.027.43.129.606.293a.915.915 0 0 0 .464.093 3.017 3.017 0 0 0 1.61-1c-.262.54-.14 1.045.458 1.299 1.032.44 2.057.604 2.778-.235-.44.797-1.293.555-2.117.524-1.152-.045-2.382-.735-3.458-.086-.12.138-.131.296-.037.475.164.242.383.42.634.562 1.269.679 2.308 1.687 3.5 2.473.452.299 1.094.84 1.432.415.438-.552-.361-.98-.775-1.377-.4-.383-.885-.677-1.402-1.08 1.311-.267 2.803.77 3.854-.252l.001.021c.282-.186-.808-.401-.04-.642 1.794-.566 3.232-1.747 5.04-2.307.421-.13.85-.36.743-.95l.005.014z"/><path d="M63.725 75.992c-1.17.485-2.473.36-3.755.097-1.202-.246-2.338-.21-3.494-.139-1.347.084-2.711.082-4.066.214 1.88.83 3.856-.351 5.98 1.045-1.707.212-3.267-.134-4.667.436 0-.1-.037.011.007.084.296.479.411 1.058.955 1.402.119-.536.693-.53 1.06-.773.213-.142.381-.341.738-.243.31.236.16.687.565.949 1.089.704 1.653 1.765 2.199 2.842.466.92.548.928 1.452.506.047-.022.079-.085.125-.087 1.066-.04 1.877-.342 1.578-1.65 1.128.299 1.672 1.27 2.68 1.344.235.017-.075.66.33 1.102.957 1.041.895 1.091 2.124.969.28.49-.435.51-.356.906 1.057.693 1.017-.528 1.558-.75.9-.368-.083-1.15-.356-1.901.788.105 1.503.03 1.803-.703-1.132-2.115-3.154-3.19-5.165-4.273-1.28.353-1.278.417.076 1.914.118.383.415.624.605.736-.132-.1-.456-.256-.552-.62-.525-.654-1.141-1.235-1.674-1.883-.396-.481.122-.465.243-.67.137-.266.173-.546.007-.854m6.347-66.988c-.933-.37-.797-1.589-1.78-2.02-.698-.305-1.18-1.072-2.076-1.098-.316-.01-.288-.453-.565-.756-.298.507-.29 1.05-.36 1.572.839.26 1.626.662 2.5.672.048.546-.625.687-.37 1.252.53 1.17.095 2.293-.112 3.412-.139.747-.425 1.494.904 1.198.163-.036.467.13.59.289.516.66.889.4 1.4.027.865-.631 1.053-.519 1.334.54.122.458-.082 1.051.6 1.293.214.077.248.305.086.365-.924.348-.316 1.176-.485 1.755-.121.415.08.772.638.774.203.001.499-.021.451.31-.018.128-.193.276-.33.315-.234.068-.631-.06-.432.409.105.249.38.215.602.26.366.075.797-.694 1.15.18.052.129.522-.265.73-.52.362-.444-.089-.975.064-1.426.653-.317.638.533 1.093.596.558.077 1.163.135 1.085-.59-.187-1.728-.534-3.45-1.272-5.074-.14-.307-.361-.736-.922-.821-.455.529.043 1.391-.688 2.288.41-2.58-1.318-3.807-2.541-5.295-.578-.703-.947-.417-1.323.094l.03-.001z"/><path d="M81.969 12.694l.37-1.079c-.488-.062-.883.311-1.637-.024.836-.239.803-.868.874-1.48.048-.4.04-.7-.402-.87-.469-.18-.851-.138-.933.403-.044.283-.156.538-.505.618-.64-.167-.528-.766-.786-1.15-.359-.533-.2-.735.369-.983 1.143-.499 1.27-1.07.837-2.185-.402-1.035-.998-1.377-2.358-1.441-1.143-.054-2.056.438-3.034.753-.498.16-.77.492-1.396-.09-.393-.366-1.005-.08-1.498.322.316-1.47-1.085-2.083-1.66-3.056-.121-.203-.316-.253-.463-.194-.747.3-1.562-.332-2.33-.14-.568.14-1.052.002-1.207-.757-.076-.379-.493-.577-.878-.638-.396-.062-.988-.478-1.147-.006-.216.644.534.462.844.674.261.178.525.395.705.643.666.923 1.536 1.487 2.615 1.782.49.134.945.433 1.27.835 1.148 1.416 2.51 2.52 4.243 3.129.11.039.31.116.31.152.005 1.663 1.707 1.65 2.592 2.435.241.214.511.395.769.591l-.004-.03c-.993.146-1.921-.083-2.758-.822-.24-.035-.319.059-.233.285.16.413.595.432.9.629 1.739 1.12 3.115 2.439 3.264 4.49.015.215.08.46.513.654l-.22-1.761c.703.01 1.063.633 1.58.882l.184-.246c-.46-1.514-1.902-2.184-3.02-3.13 1.371 1.027 2.817.585 4.23.805m63.574 30.289c.197-.077.447-.778.523-.241.12.86.484.125.62.285.232.275.04.529.004.783-.185 1.333.808 2.179 1.734 2.947.346.287.649.65 1.129 1.003.044-.718.503-1.158.72-1.756-.442-.394-.727.642-1.111-.05-.26-.467-1.324-.595-1.082-.811.768-.69-.113-1.748.51-2.407.254-.269.355-.69.472-1.063.168-.54.91-.91.677-1.475-.258-.627-1.24-.658-1.674-1.352-.247-.395-.806-.2-1.173-.056-.642.251-.875-.142-1.077-.638-.043-.576.57-1.126-.056-1.782.604-.288.598-.868.717-1.447.107-.52.126-.866-.385-1.222-.226-.157-.317-.352-.054-.554.23-.176.868.51.743-.206-.064-.359-.63-.477-.937-.366-.733.267-.032-1.208-.87-.671-.412.264-.967.425-.925 1.085.01.162-.067.318-.102.467-.62.068-.508-.43-.692-.7-.285-.417-.735-.442-1.154-.438-.504.004-.463.446-.483.764a87.292 87.292 0 0 0-.169 4.155c-.003.324.195.686.344 1.017.352.781.758.313 1.155.15.392.75-.233 1.605.285 2.178.573.636.947 1.269 1.188 2.012.337.194.603.595 1.123.39z"/></g></svg>