<svg width="212" height="336" viewBox="0 0 212 336" xmlns="http://www.w3.org/2000/svg"><title>svg/album_list/leaves_white</title><style>path{fill:#f2f1ef}</style><g id="Page-1" fill="none" fill-rule="evenodd" opacity=".702"><g id="png_pages/berezdubrava_scroll_01" transform="translate(-137 -633)" fill="#FFF"><g id="Альбом-Copy" transform="translate(97 566)"><g id="Group-5"><g id="svg/album_list/leaves_white"><g id="Листья-Copy-6" transform="matrix(-1 0 0 1 251.473 196.241)"><path d="M39.89 91.498c-.021-.546-.331-.902-.8-1.128-1.322-.634-2.614-1.324-3.984-1.868-1.307-.519-2.627-.281-3.78.13-1.858.66-3.84.667-5.677 1.364-1.708.649-3.445 1.229-5.156 1.878-.858.325-1.03 1.621-2.195 1.343-.243.648-.24 1.306.074 1.913.213.41.796.869.115 1.177-.608.275-.677-.515-.903-.876-.149-.238-.136-.58-.172-.877-.042-.354.021-.777-.48-.843-.397-.052-.691.189-.95.461-.3.316.025.469.128.728.348.871.843 1.745-.654 2.285-.522.189-.549 1.493-1.83 1.072.725-.758.437-1.713.757-2.558-1.459-.331-2.005 1.463-3.324 1.185-.116-.502.334-.656.47-.977.17-.404.402-.804-.162-1.07-.454-.215-.87-.074-1.108.339-.173.3-.22.672-.374 1.178-.29-.55-.28-1.016-.066-1.386.805-1.395 1.394-2.994 3.194-3.523.455-.134.775-.45.552-.954-.215-.482-.38-1.061-1.055-1.136-.092-.01-.224.057-.29.131-.738.842-1.555.77-2.114-.193-.757-1.303-.757-1.303-1.875.017-.512.365-1.049 0-1.571.05.517-.034 1.056.361 1.556-.07.29.232.412.556-.037.632-1.421.242-2.796-.06-4.144-.505-.411-.135-.145-.476-.21-.617-.286-.627-.19-1.853-1.522-1.305-.166.069-.27.048-.246-.12.025-.165.102-.447.187-.458.932-.126 1.052-.536.939-1.465-.135-1.109.712-1.892 1.954-1.909 1.77-.025 2.634-1.41 3.855-2.252.441-.304.163-.822-.094-1.141-.429-.53-.531-1.037-.133-1.597-.421-.26-.737-.017-1.081.08-.443.128-.445.213-.44.77.017 1.818-1.863 2.872-3.576 2.2-.398-.155-.812-.287-1.186-.488-1.164-.624-1.546-1.295-1.117-2.53.33-.95.118-1.623-.458-2.336-.3-.373-.586-.796-.737-1.244-.524-1.568.192-3.261 1.72-4.078.534-.285 1.144-.426 1.702-.67.844-.37 2.025-.288 2.208-1.57.642.186.654-1.067 1.477-.6.408.23.733-.175.77-.533.056-.553-.457-.41-.784-.47-.168-.032-.334-.074-.498-.24.72-.152 1.428-.176 2.16.046 2.126.643 2.66 1.483 1.642 3.427-.883 1.687-.452 2.88.756 4.053.707.688 1.019 1.795 2.127 2.082.078-.121.151-.199.138-.22-.999-1.506-.567-3.273-.914-4.898-.061-.286-.083-.823.027-.865 1.587-.616.574-2.438 1.622-3.334.398-.34.037-.88-.357-1.247-.187-.174-.154-.451.055-.643.267-.244.37.08.556.143 1.196.406 2.341.041 2.807-.934.176-.37.273-.676.737-.566.165.04.365.154.441.292.278.497-.238.568-.473.795-.08.076-.113.198-.274.496 1.012-.268 1.785-.003 2.44.636.436.423.49.793.028 1.227a27.048 27.048 0 0 0-1.554 1.55c-.902 1.005-.624 2.786.518 3.478.44.267.625-.01.855-.34.78-1.125 1.71-2.162 1.902-3.825 1.235 1.207 1.3 2.876 2.762 3.772-1.422.825-2.191 2.573-4.204 1.615.254.902 1.782 3.225 2.965 4.495-.436-1.487.422-1.99 1.289-2.526 1.037-.64 2.035-1.343 3.061-2.003.356-.229.72-.48 1.12-.6.805-.246 1.132.002 1.282.914.068.416.009.874.662.992.272-1.407-.233-2.747-.335-4.11-.037-.5-.438-.857-.941-1.02-.231-.076-.557-.099-.576.202-.089 1.365-1.041.705-1.628.639-.728-.083-.944-.671-.89-1.358.027-.361.001-.729.033-1.09.036-.41-.01-.913.598-.954.497-.033.783.254.918.718.066.229.13.484.279.656.361.416.868.4 1.363.317.375-.063.492-.346.43-.674-.09-.49-.256-.977-.863-1.022-.566-.042-1.04-.195-1.513-.545-.696-.514-.778-1.04-.273-1.679.33-.418.63-.902 1.332-1.023.504.285.145 1.515 1.316 1.305.28-.05.479.77.475 1.271-.007.8.207 1.537.682 2.51.712-1.554 1.827-2.496 2.962-3.434.502.349.502.949.694 1.44.18.46.231.942-.526 1.052-.31.045-.476.406-.344.727.12.292.404.426.733.472.48.066.868-.376 1.414-.132.998.447 1.687 1.858 1.342 2.911-.146.447-.538.619-.849.466-1.51-.74-2.418.112-3.309 1.104-.159.177-.354.334-.641.286-.294-.332.191-.681-.007-1.02-.244-.418-.546-1.006-1.03-.85-.582.187-.357.813-.147 1.231.425.845.554 1.724.494 2.647-.033.504.13.952.373 1.385.666 1.191 1.13 1.19 1.932.04.425-.61.128-.867-.415-1.065-.424-.155-1.003.173-1.29-.37-.03-.353.23-.432.44-.529 1.159-.535 2.34.109 3.53-.006.454-.044 1.16.581 1.051 1.529-.093.811-.38 1.328-1.139 1.366-1.351.066-2.314.67-2.504 1.95-.179 1.21.272 2.346 1.232 3.162.325-.117.386-.293.301-.457-.836-1.606-.84-1.604.805-2.645 1.285-.815 1.46-.83 2.038-.092.46.587.757 1.15-.262 1.532-.261.097-.478.378-.651.619-.425.595-.226 1.077.496 1.126.67.047 1.354.025 2.021-.051.823-.094 1.273-.335.952-1.407-.366-1.222.355-2.659 1.373-2.85.946-.179 1.83-.952 2.847-.621.998.324 1.575 1.117 1.981 2.037.92 2.083 1.319 4.222.831 6.494-.129.599-.598 1.582.883 1.319.433-.077.91 1.439.665 2.182-.08.244-.506.4-.107.7.264.2.57.215.866.081.164-.074.373-.162.447-.303.55-1.036 1.326-.66 2.11-.374.462.168.47.148 1.049 1.303.598-.045.882-.51 1.123-.964.632.205.797.713.85 1.156.194 1.628 1.49 2.79 1.811 4.366.08.397.533.44.925.26.534-.249 1.096-.35 1.522.137a19.908 19.908 0 0 1 1.537 2.028c.075.11-.108.464-.256.632a.487.487 0 0 1-.792-.046c-.489-.727-1.257-1.03-1.949-1.481-.544-.354-1.003-.416-1.634-.467-1.205-.097-2.035-1.015-2.753-1.936-.575-.737-1.96-1.598-2.866-1.589-1.808.019-2.99-1.293-4.466-1.975-.503-.233-.724-.76-1.48-.852-.773-.092-.564-1.353-1.039-1.98-.78 1.259-1 1.43-2.196.69-1.63-1.01-3.293-2.023-4.597-3.468-.406-.449-.73-.97-1.31-1.284-.428.444-.107.781.172 1.061.775.78 1.517 1.548 1.967 2.595.317.74 1.095 1.148 1.843 1.431 1.886.716 3.62 1.797 5.596 2.288.431.107.815.298 1.135.575 2.836 2.473 6.25 4.029 9.476 5.887.5.287 1.157.383 1.412 1-.178.19-.387.197-.535.107-1.707-1.044-3.698-1.509-5.323-2.773-1.439-1.12-3.22-1.725-4.935-2.386-1.89-.73-3.625-1.76-5.32-2.834-.659-.416-1.265-.696-2.03-.654l.013.02z" id="Fill-213"/><path d="M79.744 8.817c.046.515-.245.912-.51 1.298-.818 1.19-1.227 1.267-2.49.523-.308-.183-.656-.327-.91-.566-.78-.731-1.62-.735-2.458-.2-1.03.658-2.264 1.012-3.198 1.93.216.11.355.232.413.202 1.423-.733 2.836.073 4.253.018.354-.013.96-.093 1.006.166.286 1.604 2.194.894 2.83 2.036.326.586.967-.318 1.603.062-.406.502-.235 1.14-.359 1.694-.163.737-.027 1.062.635 1.382 1.096.53.174.806-.166 1.257-.433-.527-.457-1.227-1.316-1.485.669 1.03.585 1.849-.434 2.458-.497.297-.887.307-1.23-.184-.239-.34-.467-.688-.707-1.029-1.251-1.78-2.09-1.86-4.056-.243 1.222.825 1.876 2.234 3.626 2.633-1.166 1.217-2.81.736-3.656 1.767-.565-.326-.511-.809-.742-1.14-.48-.685-.938-1.342-.303-2.238.289-.408-.115-.681-.532-.497-1.179.517-2.329 1.096-3.55 1.68 1.284.885 1.266.892 2.006 2.622.396.926.865 1.822 1.305 2.73.21.437.371.886.165 1.362-.29.666-.807.234-1.239.237-.346.003-.738-.039-.911.65 1.314.032 2.588.118 3.859.076 1.053-.034 1.073-.212.627-1.381-.217-.572-.14-1.172.285-1.67.358-.418.793-.47 1.297-.27.276.11.587.135.857.254.376.163.833.317.698.871-.11.451-.383.728-.907.632-.114-.02-.25-.058-.346-.017-.533.23-.521.747-.602 1.203-.038.217.139.33.313.35.473.056.98.158 1.2-.453.04-.11.042-.24.102-.338 1.1-1.785 1.88-1.735 2.982.209-.245.5-1.16.2-1.215 1.065-.03.472-.7.228-1.087.28-.797.109-1.679-.285-2.497.462 1.092.795 1.81 1.851 2.376 3.062-.326.325-.91.358-1.508.341-.281-.008-.642.071-.703-.337-.06-.403-.23-.725-.662-.636-.464.096-.575.49-.615.95-.113 1.313-1.388 2.141-2.582 1.71-.518-.188-.903-.626-.552-1.088.87-1.15.218-1.977-.427-2.854-.136-.185-.23-.398-.417-.728.757-.126 1.67.377 1.99-.62-1.089-.37-4.417-.461-5.2-.116-.302.133-.81.245-.596.699.213.454.456 1.06 1.029 1.112.511.047.572-.493.657-.901.063-.305.216-.589.575-.533.247.039.438.338.389.539-.282 1.12.016 2.34-1.022 3.351-.512.5-.823.488-1.311.368-.494-.123-.873-.391-.837-.986a4.493 4.493 0 0 0-.009-.71c-.13-1.408-.885-2.099-2.339-2.103-.767-.003-1.562-.042-2.148.619.09.098.152.225.223.23.585.046 1.17-.677 1.685-.21.664.601.81 1.556 1.103 2.371.168.47-.366.808-.87.946-.408.112-.802.3-.952-.355-.06-.264-.28-.521-.488-.72-.6-.57-1.169-.434-1.218.354-.052.869-.621 1.701-.159 2.728 1.04-.463 1.94-.08 2.67.67.468.48 1.456.89.56 1.821-.04.043.082.217.087.33.024.496.518.96.027 1.495-.62.676-1.31 1.265-2.222 1.424-2.062.36-4.12.488-6.085-.485-.481-.24-.967-.244-1.18.344-.344.954-1.088.907-1.812.68-.356-.112-.617-.654-1.004-.082-.266.396-.172.767.11 1.141.225.3.856.604.434.988-.445.404-.191 1.284-.996 1.346-1.08.081-.8.575-.392 1.14.107.147.134.32-.097.621-1.487-.487-2.695.882-4.255.842-.673-.018-1.174.35-1.191 1.233-.017.907-1.588 2.149-2.479 2.137-.263-.003-.439-.166-.557-.38-.133-.244-.025-.442.13-.643.335-.434 1.056-.35 1.28-.88.313-.744 1.205-1.053 1.195-2.146-.007-.735 1.054-1.383 1.84-1.82 1.225-.683 2.082-1.459 2.383-2.989.285-1.456 1.841-2.264 2.675-3.467.735-1.061 1.683-1.477 3.099-1.419-.412-.456-.939-.28-1.127-.646-.225-.435.027-.798.221-1.162.314-.59.81-1.017 1.305-1.452 1.276-1.122 2.442-2.37 4.004-3.227-.213-.14-.338-.268-.381-.245-2.058 1.075-4.37 1.73-5.582 4.043-1.384 2.637-3.37 4.836-5.532 6.915-1.535 1.477-2.794 3.236-4.156 4.884-.337.408-.577.9-1.586 1.225 1.32-1.635 2.057-3.2 3.295-4.442 1.306-1.309 2.49-2.714 3.353-4.355.133-.254.172-.554.255-.834l.05-.242c1.218-1.754 2.807-3.217 4.008-4.986l.235-.088c.175-.03.413.003.518-.098 2.049-1.963 4.188-4.742 3.262-7.721-.164-.525-.156-1.048-.13-1.577.127-2.494-.358-4.924-.873-7.339-.125-.588-.024-1.505-1.102-1.667-.32.56.305.972.25 1.467-.104.162-.276.208-.446.161-.4-.109-.786-.334-1.214-.196-.503.16-.964.195-1.209-.366-.197-.454-.22-.908.19-1.303.166-.16.272-.378.404-.57.307-.178.607-.399.983-.172-.387-.276-.676-.024-.972.184-.295-.184-.692-.22-.887-.634.744-.933 1.74-.73 2.73-.487-.089-1.369-.083-1.328-1.329-1.153-.713.1-1.514.127-1.458-.975.02-.373-.24-.504-.501-.65-.46-.255-.447-.638-.278-1.13.688.409 1.402.711 2.178.71.515-1.136-.97-1.856-.5-3.046.436.317.788.585 1.152.836.226.154.467.098.659-.06.281-.231.172-.507.078-.801-.19-.597-1.05-.311-1.227-1.01.67-.181 1.21.162 1.59.542.977.973 2.394 1.636 2.494 3.288a.594.594 0 0 0 .78.53c.327-.096.758-.15.869-.538.113-.402-.745-.175-.54-.68.236-.584.32-1.3 1.08-1.511.458-.128.934-.202 1.284-.742-.475-.681-.989-1.432-.361-2.347.165-.24.17-.594-.275-.64-.38-.04-.34-.322-.272-.511.338-.954.729-1.884 1.65-2.46.81-.506 1.06-.462 1.537.475.196.384.436.457.803.548 1.606.399 1.687.446 1.693 2.14.006 1.41.851 2.42 1.477 3.541.248.444.736.458 1.107.255.578-.316 1.02-.088 1.61.278.004-.833.502-1.668-.908-1.802-.451-.043-.897-.562-1.266-.938-.54-.549-.784-1.171-.223-1.895.288-.371.468-.824.73-1.218.888-1.328 1.538-1.553 2.928-.757.72.411 1.267.155 1.854-.071 2.935-1.13 4.47-.317 5.127 2.754.074.345.194.72.125 1.046-.2.956.664 1.235 1.074 1.803.418.58-.216 1.43.488 1.943.19.14.404.25.608.374l.024.02z" id="Fill-227"/><path d="M143.228 169.052c-.316-.154-.681-.242-.881-.672.653-.431 1.302-.785 2.143-.52.365.116.79.137.806-.366.017-.501-.186-.951-.856-.84-.292.048-.58.221-.862.207-.596-.03-1.277-.05-1.278-.896-.002-.741-1.515-.88-.726-1.88.714.416 1.53.61 2.384.71.176-1.145-1.214-1.844-.68-2.99.565-.025.67.495 1.017.686.363.198.707.255.947-.105.231-.347.025-.659-.217-.953-.24-.29-.902-.036-.875-.9 1.764.708 3.028 1.82 3.74 3.39.653 1.44.7 1.514 2.09.265-.026-.28-.198-.202-.358-.136-.152.061-.293.19-.466.042.04-1.435 1.186-1.872 2.388-2.347-.524-.928-.965-1.676-.27-2.785.476-.758-.444-.107-.736-.222.033-1.116.597-2.025 1.315-2.817.833-.919 1.492-.857 2.175.223.29.463.673.39 1.049.513 1.311.43 1.445.607 1.27 2.023-.198 1.59.959 2.6 1.642 3.806.171.304.684.22 1.007.049.541-.288 1.007-.179 1.523.22.085-.867.398-1.632-.979-1.758-.515-.048-.966-.832-1.437-1.29-.344-.334-.362-.695-.126-1.122.344-.625.646-1.267 1.137-1.806 1.081-1.189 1.264-1.27 2.726-.57.674.324 1.212.266 1.868-.033 2.66-1.213 4.713-.102 5.177 2.767.066.407.057.826.077 1.24.023.48.094.851.614 1.163.492.294.983.864.706 1.526-.245.585.103.873.469.928.528.08.286-.519.465-.775.055-.08.175-.12.422-.276-.042 1.536-.724 2.604-1.797 3.484-.304.25-.642.3-1 .086-.206-.123-.413-.251-.634-.341-.86-.349-1.401-1.375-2.538-1.142-.772.158-3.06 1.51-3.76 2.243.077.193.282.28.418.208 1.517-.802 3.015.467 4.526.033.1-.03.328.038.332.079.188 1.654 2.172.915 2.81 2.048.344.612.969.07 1.471-.006.154-.024.398.04.484.15.27.349-.148.298-.288.43-.48.451-.172 1.1-.399 1.658-.261.639.442.83.949 1.031.275.11.302.373.15.583-.175.244-.43.464-.74.183-.214-.194-.26-.539-.74-.713.352 1.34-.474 1.95-1.51 2.559-.606-.811-1.144-1.589-1.74-2.32-.72-.878-2.447-.872-3.19-.025-.242.276-.192.545.062.772.755.672 1.328 1.545 2.273 2.008.252.124.65.11.6.52-.04.333-.338.48-.635.539-.526.102-1.08.046-1.572.347-.402.246-.837.44-1.342.702-.712-1.255-1.478-2.42-.517-4.227l-4.599 2.012c2.518 1.255 2.436 3.843 3.577 5.742.493.819.028 1.21-1.108 1.191-.408-.005-.861-.091-1.046.732 1.366 0 2.665.044 3.958-.014 1.005-.044 1.078-.248.656-1.248-.342-.807-.125-1.691.502-2.053.46-.266 2.208.153 2.485.637.246.43.09.838-.34 1.04-.246.116-.602-.014-.866.081-.378.137-.48.5-.477.878.001.327.121.58.485.63.367.051.723.051.905-.368.117-.269.216-.557.391-.788.929-1.223 1.831-1.182 2.657.107.33.516.236.75-.404 1.023-1.495.64-1.466.707-3.176.786-.366.017-.72.037-1.071.373.194.745.982.988 1.484 1.359.636.469-.36 1.697 1.129 1.585-1.117.508-2.078 1.185-2.755-.27-.048-.103-.338-.186-.472-.143-.375.12-.51.422-.549.813-.153 1.547-1.24 2.31-2.615 1.85-.352-.117-.83-.44-.619-.728 1.117-1.527.114-2.655-.827-3.973.913-.036 1.836.332 2.287-.912-1.663 0-3.25-.031-4.835.018-.52.016-1.19.153-1.281.755-.071.473.49.776.834 1.09.365.332.65.168.791-.263.091-.277.133-.577.265-.832.063-.12.282-.209.44-.227.21-.024.329.174.333.343.033 1.349-.194 2.663-.933 3.805-.41.631-1.97.206-2.206-.548-.051-.165-.027-.352-.045-.529-.26-2.683-2.097-3.449-4.517-1.874.274.528.635.144.872.02.768-.401 1.255-.22 1.543.564.082.223.16.446.25.665.649 1.587.65 1.587-1.17 2.195-.365-.435-.374-1.114-.953-1.428-.429-.23-.97-.296-1.002.225-.062.98-.596 1.93-.252 3.06 1.3-.559 2.217.064 3.034.91.384.395 1.026.77.321 1.448-.097.094.045.433.083.656.233 1.314.137 1.646-1.076 2.196-1.428.646-2.925 1.083-4.538.667-1.023-.262-2.168-.006-3.085-.763-.214-.177-.563-.01-.795.233-1.19 1.241-1.192 1.238-2.625.596-.335.343-.344.785-.174 1.152.263.567.61.94.165 1.713-.385.666-.868.835-1.419.989-.09.57.45.913.33 1.403-.115.079-.212.203-.303.2-1.59-.06-2.96.881-4.532.94-.498.019-.857.389-.791.991.051.47.109.973-.396 1.273-.668.397-1.332.813-2.102.995-.127.03-.343-.107-.45-.225-.253-.277-.073-.548.092-.795.349-.52 1.058-.552 1.416-1.227.295-.556.82-.898.932-1.7.106-.755 1.004-1.267 1.723-1.724.446-.283.949-.436 1.33-.877.521-.6 1.15-1.011 1.193-1.97.032-.734.62-1.38 1.116-1.991.737-.905 1.703-1.581 2.328-2.631.365-.614 1.497-.491 2.335-.708-1.276-.752-1.44-1.068-.577-2 1.119-1.209 2.3-2.382 3.67-3.344.53-.374 1.16-.623 1.566-1.17-.122-.055-.268-.17-.319-.138-1.812 1.125-4.195 1.358-5.373 3.49-.772 1.397-1.89 2.597-2.567 4.065-.12.263-.3.535-.527.71-2.829 2.182-4.897 5.035-7.123 7.749-.262.318-.567.602-.922.976-.321-.612.153-.83.331-1.13 1.191-1.998 2.94-3.58 4.276-5.46 1.857-2.613 3.8-5.159 5.888-7.588.927-1.078 1.968-2.055 2.842-3.195 1.045-1.364 1.521-2.858 1.236-4.487-.277-1.57-.076-3.143-.283-4.717-.231-1.753-.55-3.488-.852-5.226-.111-.639-.352-1.267-1.02-1.596a1.517 1.517 0 0 1-.305-.31c-.451-.533-1.038-.45-1.63-.349h-.232" id="Fill-239"/><path d="M104.28 113.913a.95.95 0 0 0 .709.527c2.944.4 5.785.608 8.323-1.546 1.743-1.48 3.772-2.633 5.473-4.195 1.138-1.045 2.65-1.777 2.9-3.514.06-.426 1.086-.058.677-.754-.338-.576-.462-1.459-1.473-1.372l.022.014c.206-1.107.306-1.181.94-.68.386.303.739.635.881 1.128.086.292.205.643.605.457.259-.12.478-.373.647-.612.233-.325 0-.496-.275-.7-.888-.655-1.436-1.287-.231-2.274.4-.327-.261-1.548 1.137-1.458-.35.823-.053 1.638.365 2.586 1.136-.567 1.24-2.09 2.39-2.484.453.416.063.607-.03.845-.167.42-.227.831.197 1.135.131.095.37.165.508.113.451-.173.65-.534.576-1.01-.043-.269-.236-.533-.038-.906.812 1.747.423 4.108-.876 5.277-.302.272-.588.475-.403.86.253.524.763.755 1.325.849.06.01.168-.14.221-.233.568-1.013 1.173-1.228 1.993-.55.7.576 1.213.902 1.597-.232.056-.163.177-.321.307-.442.402-.372.945-.162 1.407-.3.737-.218-.33-.807.158-.938.872-.235 1.756-.62 2.698-.299.403.138.819.273 1.18.486.337.199.588.713.309.914-.958.693-.317 1.426-.215 2.166.103.757.01 1.46-.89 1.755-1.62.53-1.884 2.111-2.64 3.304-.235.37.045.686.32.941.261.246.553.46.807.714.18.18-.262.895.467.584.362-.153.796-.442.587-.977-.314-.805-.01-1.541.225-2.284.07-.222.176-.525.353-.606 1.228-.556 2.533-.391 3.78-.152.937.18 1.09 1.033 1.046 1.875-.033.613.268 1.029.811 1.3.11.054.211.123.322.177 2.574 1.264 2.408 3.758.66 5.469-.392.383-.802.747-1.212 1.11-.475.422-1.134.67-.887 1.575.089.322-.49.732-.874 1.013-.845.618-.841.623.16 1.343-.676.566-1.494.51-2.285.453-1.381-.101-1.982-.585-1.807-1.934.273-2.093-.574-3.282-2.504-3.977-.672-.242-1.192-.854-1.953-.867-.245.119-.253.332-.134.448.915.894 1.597 1.852 1.963 3.142.219.772 1.16 1.257.38 2.291-.403.537.476 1.185.398 1.869-.484.4-1.09.062-1.598.265-.22.09-.505.194-.434.493.066.275.353.39.551.187.893-.919 1.157.231 1.718.441.494.186.522.523.409.84-.195.54-.423-.15-.66-.041-.529.24-.927.648-1.606.723-.516.056-.299.808-.254 1.269.021.228.167.501-.158.581a1.175 1.175 0 0 1-.703-.068c-.293-.126-.203-.394-.093-.616.29-.587.64-1.153.615-1.927-.533.11-.593.575-.75.89-.427.86-1.098.856-1.861.584-.586-.21-.969-.539-.614-1.222.167-.321.321-.65.457-.986.855-2.111.569-2.716-1.858-3.717-.489 1.456-.657 2.95-.702 4.682-1.287-.632-1.938-1.741-3.027-2.266-.302-.146-.132-.515.013-.803.542-1.065 1.034-2.168 2.88-2.131l-3.957-2.646c-.456.506.264.992-.135 1.532-1.075 1.46-1.984 3.037-3.07 4.488-.599.796-1.026.657-1.65-.278-.226-.339-.439-.733-1.187-.654.646.813.929 1.698 1.309 2.541.3.665.704 1.319 1.46 1.536.295.084 1.124.515.765-.584-.2-.607.532-.684.963-.772.54-.111 1.143-.16 1.47.432.202.367.331.777.454 1.179.126.41.22.894-.234 1.136-.493.262-.918.128-1.183-.445-.346-.745-.894-.387-1.39-.16-.326.148-.445.416-.33.74.125.36.373.679.799.59.54-.112 1.035-.26 1.614-.08 1.19.368 1.387.685.932 1.81-.254.622-.553 1.226-1.232.367-.457-.576-1.412.424-1.74-.634-.188-.612-.666-1.144-1.044-1.692-.128-.185-.35-.309-.712-.617-.261 1.425-.137 2.897-1.647 3.689-.382-.498-1.319-.704-.846-1.661.15-.307.561-.574.153-.91-.303-.25-.694-.15-1.05-.016-1.313.49-1.755.416-2.505-.415-.911-1.007-.74-1.632.615-1.883.863-.16 1.202-.716 1.555-1.373.219-.408.154-.982.696-1.221.395.125.204.495.322.731.247.488.811.823 1.166.594.58-.374.067-.86-.26-1.184a4.652 4.652 0 0 1-1.155-1.813c-.341-.969-1.057-1.58-2.074-1.831-.34.594-.929 1.233-.655 1.755.362.686 1.1-.182 1.678.008.11.036.207.11.386.206-.95 1.479-2.474 1.574-3.98 1.592-.783.01-.703-.824-.951-1.296-.252-.478.112-.804.53-.985 1.223-.531 1.85-1.405 1.567-2.724-.244-1.137-1.04-1.822-2.047-2.215-.257.12-.29.211-.214.333.305.498 1.247.55 1.12 1.3-.154.903-.947 1.5-1.442 2.231-.231.343-.92.085-1.318-.267-.344-.303-.628-.624-.177-1.047a1.24 1.24 0 0 0 .387-.79c.11-.837-.288-1.224-1.035-.861-.812.394-1.73.629-2.517 1.41.595.564 1.148 1.152.999 2.09-.148.928.071 2.001-1.385 2.066-.084.004-.15.185-.245.256-1.395 1.033-1.764 1.048-3.2.127-.572-.368-1.075-.822-1.43-1.39-.909-1.456-2.003-2.834-1.995-4.686.002-.416-.308-.696-.886-.674-1.016.037-1.847-.47-1.692-1.26.257-1.31-.531-.562-.86-.527-.312.033-.438.378-.519.681-.09.346-.277.92-.58.763-.608-.317-1.127.42-1.753-.09-.834-.682-.904-.6-1.553.504-1.061-.257-.971-1.62-2.106-2-.867-.289-1.449-1.397-2.136-2.119-1.544 1.105-2.615 1.01-3.953-.202-.264-.239-.317-.471-.15-.785.221-.418.539-.45.914-.248.571.307 1.08.622 1.824.622.597 0 1.079.098 1.708-.184.927-.415 1.918.06 2.77.511 1.24.658 2.376.95 3.84.417 1.525-.558 3.142.096 4.672.478 1.962.488 1.948.542 2.892 1.673.28-.438-.28-.914.124-1.282.416-.38.91-.373 1.386-.324 1.706.177 3.34.655 4.95 1.228.55.196 1.028.657 1.688.529.038-.538-.34-.727-.647-.823a6.037 6.037 0 0 1-2.353-1.357c-.552-.51-1.307-.676-2.063-.624-4.394.306-8.655-.503-12.918-1.388-1.37-.285-2.797-.313-4.2-.446-.601-.056-1.242.024-1.783-.757 2.005.29 3.864.09 5.734.507 1.657.37 3.391.467 5.098.538 2.086.087 4.193-.048 6.215.564.721.217 1.32-.25 1.989-.116l-.022-.02z" id="Fill-249"/><path d="M133.04 49.933c.601-.527 1.398-.546 2.118-.777.71-.227 1.572-.228 1.971-1.025l-.02.022c1.317.134 2.31-.739 3.488-1.046 2.189-.572 4.407-1.074 6.539-1.806 1.674-.575 3.35-1.12 5.062-1.575.29-.078.561-.263.952-.046-.545.539-1.253.69-1.916.906-2.742.891-5.48 1.773-8.045 3.114-1.41.737-3.099.633-4.633 1.073-1.428.41-2.852.634-3.691 2.053-.377.636-1.437.703-1.77 1.788 1.422-.806 2.664-1.538 3.936-2.22.69-.37 1.342-.829 2.205-.848.66-.014 1.166.103 1.353.951.552-.733.817-1.333 1.732-1.593 1.778-.507 3.303-1.758 5.406-1.245.443.109 1.32-.342 1.851-.879.55-.556 1.225-.988 2.026-1.193.306-.078.6-.162.851.1.258.27.1.519-.011.806-.54 1.39-1.757 2.369-2.38 3.716-.235.507-.567.186-.8-.149-.24-.345-.464-.415-.87-.08-.901.748-1.498.732-2.35-.011-.3-.263-.577-.454-.967-.342-.601.173-.134.59-.176.887-.088.642-.28 1.16-1.081 1.194-.681.029-.726.401-.678.975.167 1.972-.51 3.726-1.72 5.287-.925 1.196-1.559 1.127-3.11.693-.855-.24-1.324-.523-1.533-1.261-.187-.656-.661-1.333.022-1.998.202-.198.192-.474-.082-.584-.791-.316-1.617-.58-2.477-.544-.504.02-.518.489-.34.814.22.401.56.742.921 1.2-.588.325-.777 1.42-1.732.751-1.739-1.218-1.741-1.385-.575-3.316-1.278.801-1.768 1.64-1.709 2.782.051.982.682 1.447 1.605 1.7.633.173 1.05.477.885 1.289-.172.846-.804 1.101-1.417.998-.725-.123-1.462-.125-2.175-.279-.287-.061-.635-.223-.608-.573.034-.453.393-.255.684-.267.967-.045 1.063-.267.601-1.023-.405-.661-.816-.619-1.297-.112-.125.131-.255.262-.35.413-.126.202-.33.432-.312.636.098 1.155-.994 2.014-.896 3.195.977.004.949-.812 1.33-1.338.193.176.419.307.534.5.468.777 1.05 1.276 2.08 1.148.79-.098.907.444.84 1.04-.106.942-.891 1.611-1.893 1.524-.426-.037-.826-.2-1.377.102.7.828.872 1.658-.122 2.365-1.19-.533-1.755-1.5-1.936-2.8-.937.56-.984 1.47-1.234 2.209-.328.97-1.675.367-1.742 1.64-.37-.48-.547-.653-.65-.858-.579-1.16-.373-1.646.842-1.983.292-.081.618-.041.914-.115.56-.139.616-.562.423-.978-.18-.39-.594-.354-.965-.267-.11.027-.257.104-.292.193-.26.647-.65 1.07-1.363.57-.398-.28-.24-1.547.17-2.005.31-.347 1.496-.45 1.895-.165 1.16.83 1.288.797 1.764-.662.254-.778.418-1.583.627-2.392-.473-.143-.52.198-.625.432-.501 1.105-.792 1.253-1.665.535-1.124-.922-2.132-1.974-3.202-2.96-.395-.363-.304-.87-.407-1.34-.784.2-1.08.852-1.588 1.258-.468.373-.956.726-1.268.962.19.83.512.62.8.6 1.06-.077 1.453.808 1.935 1.42.467.595-.317.925-.67 1.253-.522.483-.646 1.3-1.582 1.662-.023-1.408-.77-2.47-1.334-3.607-1.818.765-2.114 1.618-1.121 3.1.133.2.338.371.416.587.16.441.998.744.377 1.35-.51.5-1.116.748-1.82.31-.152-.094-.3-.192-.45-.287-.316.23-.07.412.031.605.144.274.666.554.136.849-.423.234-.588-.12-.76-.485-.415-.886-1.224-1.157-2.57-.943.744-1.434.582-2.83-.152-4.207-.082-.154-.25-.412-.201-.461.97-.982 0-2.597 1.244-3.496.201-.147.238-.506.488-1.084-1.52.786-2.555 1.632-3.45 2.649-.258.292-.267.659-.21 1.017.038.232.128.457.182.687.496 2.126.031 2.733-2.184 2.848-.308.016-.615.002-.943.002-.011-.452 1.513-.849.077-1.249-.466-.13-.955-.47-.992-.658-.202-1.022-1.144-1.157-1.818-1.608-.404-.27-.883-.464-1.223-.791-1.193-1.152-1.749-2.662-.227-4.02.749-.667 1.398-1.292.916-2.44-.232-.554.327-.96.804-1.27.806-.524 1.783-.406 2.663-.656.334-.096.597.136.758.397.372.603.869 1.208.707 1.95-.186.86.508.756.91.968.293-.135.14-.32.117-.472-.108-.69 1.203-.956.65-1.673-.68-.885-1.245-1.899-2.46-2.324-1.54-.54-1.57-.597-1.412-2.278.054-.577-.497-.62-.614-.995l.08-.039-.063.057c-.625-.807.192-1.023.637-1.303.673-.424 1.733-.49 3.369-.373 0 .344-.616.185-.523.565.076.308.332.27.578.17.951-.395 1.135.821 1.856.833.77.013.787-1.242 1.794-1.022.46.101.872-.04.878.666.001.154.643-.124.853-.414.269-.37.377-.88-.072-1.103-1.512-.754-1.678-2.236-2.192-3.533-.086-.216-.11-.467.092-.676.47-.054.4.304.452.566.084.427.21.912.788.69.509-.196.407-.665.19-1.066-.105-.196-.24-.376-.478-.738 1.286.106 1.637 1.408 2.695 1.486.425-.69.013-1.454.185-2.295.904.471 1.033 1.429 1.745 1.93.34.238.028.937-.41 1.22-.639.413-.24.682.097.925.569.41.702.018.837-.444.167-.567.4-1.117 1.22-1.364.124.997-.999 1.633-.677 2.573l.905-.144-.025-.025c-.117.915.434 1.406 1.184 1.813 2.243 1.219 4.466 2.434 6.904 3.32 1.494.544 2.904 1.217 4.526 1.296-.173 1.134-1.19 1.205-2.028 1.415-.826.208-1.67.447-2.492.564-1.32.19-2.088.845-2.588 1.844 1.006-1.273 2.955-2.252 3.92-1.884.777.296 1.022.872.683 1.794.556-.98 1.335-1.562 1.974-2.265.36-.397 1.11-.724.51-1.455" id="Fill-269"/><path d="M65.702 147.702c-.189-.007-.38.005-.567-.023-1.24-.18-1.274-.192-.935-1.351.208-.715.519-1.389-.305-1.939-.264-.175-.52-.351-.861-.252-.393.114-.361.45-.384.739-.049.636-.075 1.273-.114 1.962-2.59-1.277-2.685-1.703-.73-3.217-.571-.502-1.239-.75-1.907-.973-1.26 1.382-1.486 3.372-3.21 4.327.091.495.436.774.754 1.057.362.321.648.53.889-.185.211-.625.871-.702 1.41-.376.427.258.741.771.54 1.253-.286.68-.673.125-1.031-.029-.404-.173-.81-.054-.855.369-.034.328.356.43.692.434.378.007.76-.01 1.13.048.488.077.527.458.488.835-.052.49-.377.386-.784.439-1.227.16-1.497-.908-2.275-1.465-.472.373-.225.888-.324 1.301-.103.427-.25.923-.777.863-.621-.07-.785-.517-.512-1.08.04-.084-.037-.217-.085-.459-.76.136-1.537.902-2.342.081-.505-.516-.582-.98.085-1.232.609-.23.904-.594 1.134-1.106.071-.163.166-.35.309-.446.626-.418.632-.406.16-1.007-.3-.38-.452-.877-.955-1.091-.265-.113-.556-.387-.801-.006-.128.197-.269.464-.227.666.098.462.458.223.743.167.177-.034.386-.098.494.27-.394.832-1.342.819-2.152 1.012-.322.076-.597-.103-.773-.397-.218-.363-.205-.692.136-.966.603-.482 1.077-1.022.993-1.84-.29-.338-.083-.774-.252-1.136-1.108-1.85-1.02-2.043 1.144-2.52.247-.054.384-.16.137-.112-.1.02-.21-.084-.3-.185-.084-.15-.068-.283.043-.405l3.633-.566c-.748-.398-1.6-.167-2.34-.841.9-1.495 1.806-3.057 1.86-4.88-.532.355-.95.091-1.303-.45-.176-.267-.367-.52-.16-.82.473-.682 1.014.095 1.513-.036.263-.408-.621-.438-.299-.86.727-.231.947.754 1.873.609-.888-.888-.99-1.805-.262-2.837.639.06.308 1.053.98 1.045.609-.132.503-.785.855-1.09.24-.061.377.05.432.233.316 1.056.648.543.985.012.181 1.154.187 1.156-.43 2.97-.106.314-.15.602.167.797.339.209.582.098.693-.279.091-.313.404-.329.616-.273.861.225 1.65.487 1.83-.805.037-.267.941.274 1.11-.533.046-.218.893-.382 1.373-.39.55-.007.407.631.63.95 1.01 1.436.955 1.542-.284 2.91-1.135 1.252-1.124 1.728.076 3.041.747-.282.473-.908.442-1.386-.059-.908.394-1.289 1.26-1.473.895-.19 1.764-.167 2.07.735.262.777.77 1.151 1.405 1.581 1.312.892 1.476 1.91.397 3.066-.932.997-1.245 2.278-1.978 3.36-.372.55-.768.524-1.254.523-.495-.002-.836-.243-.989-.7-.22-.667.198-1.518-.563-2.02-.778-.511-1.655-.845-2.721-1.198.077.707.709.893.957 1.309.614 1.023 1.055 2.098 1.215 3.265.12.869.86 1.913-.693 2.385-.184.056-.165.581-.358.788-.192.208-.447.055-.585-.186l.024.02z" id="Fill-331"/><path d="M40.279 90.923c-1.02.838-2.38.632-3.552 1.013-.65.21-1.336.285-1.97.876 1.038.15 1.857-.202 2.648-.482 2.334-.826 4.452-.336 6.481.818 1.057.601 1.03.973-.082 1.614-.268.154-.56.27-.842.404-.22.106-.474.176-.58.652 1.583.246 2.533-1.587 4.33-1.228-.951.844-2.118 1.019-2.779 1.948.908.11 1.475-.477 2.144-.84.703-.383 1.316-.845 1.973.28.31.532 1.383.716 2.147.955.64.2 1.258.5 1.45 1.047.363 1.025.977 1.337 2.406.7-1.098 1.325-2.202 1.913-3.22 2.572-.641.416-1.22.12-1.403-.575-.037-.145.068-.321.107-.484.098.146.178.307.298.435.283.3.555.17.788-.065.187-.187.287-.522.023-.597-1.496-.427-1.323-2.069-2.332-2.81-.338.05-.475.252-.445.5.127 1.021-.508 1.228-1.378 1.153-.864-.075-1.453.246-2.16.753-1.33.955-2.923 1.571-4.087 2.773-.243.25-.647.367-1.045.35-.383-.017-.678-.013-.704-.56-.056-1.194-.583-1.884-1.722-1.738-.753.096-.654-.067-.663-.491-.011-.535-.005-1.062.201-1.58.223-.558.325-1.14.071-1.861-1.012.059-2.076.022-2.988.568-.82.493-1.197.232-1.487-.51-.055-.138-.277-.218-.383-.295-.207-.039-.327.025-.315.174.129 1.6.138 1.627-1.528 1.964-.542.109-.861.447-1.266.716-.842.558-.958.512-1.487-.43-.118-.21-.202-.439-.343-.633-.149-.205-.371-.31-.65-.214-.273.094-.36.307-.386.553-.066.61.255 1.012 1.109 1.27-1.164.366-1.802.403-2.268-.615-.255-.558 0-.726.272-1.028.215-.237.395-.494.022-.746-.313-.211-.565-.12-.81.14-.24.255-.24.704-.702.778-.091-1.629.753-2.926 2.162-3.247.45-.102.991-.144.829-.7-.149-.506-.612-.732-1.184-.385-.213.129-.434.242-.8.12-.054-.493-.221-1.006-.468-1.521-.392-.819-.08-1.212.888-1.508 1.194-.364 2.417-.564 3.648-.782 1.383-.245 2.78-.642 4.148-1.041.56-.164 1.075-.266 1.646-.046.686.266 1.761.257 1.867.992.12.83-1.007.874-1.622 1.185-1.209.61-2.353 1.345-3.72 1.683-.555.138-1.178.388-1.395 1.046 2.925-.794 5.55-2.314 8.539-2.868.853-.158 1.7-.466 2.583-.133l-.014-.019z" id="Fill-343"/><path d="M137.39 193.262c.016.37-.108.826.073 1.094.908 1.347.59 2.392-.733 3.233-.467.297-.657.755-.885 1.189-.351.67-.945 1.071-1.663 1.14-.916.085-1.086.443-.766 1.192.065.154.017.347-.31.505-.743-.982-1.236-2.115-1.757-3.225-.232-.494.082-.823.595-.954.112-.029.29-.027.361.037.252.228-.094.245-.169.36-.189.292-.235.58.072.815.156.122.418.13.52-.024.732-1.12 2.19-.929 3.167-1.59-.003-.623-.514-.439-.82-.52-.527-.139-.856-.5-.69-.947.801-2.166-.892-3.688-1.476-5.491-.239-.74-1.096-1.225-.974-2.121l.118-.85c1.504.642 2.355-.022 2.597-1.29.114-.585.418-.328.61-.336.955-.038 1.688.558 2.514.887.743.296 1.112.087 1.115-.688.002-.37.11-.784-.023-1.105-.468-1.14-.394-2.113.96-2.85-1.766-.203-1.56-.25-1.95-1.8-.304-1.218-.785-2.386-.891-3.666-.079-.944.519-1.123 1.217-1.349.526-.171.672.193.904.475.173.21.395.33.648.133.324-.25.28-.531-.02-.767-.231-.182-.51-.32-.526-.684 1.953.385 2.537.887 2.814 2.472.067.382.081.812.54.861.47.05.638-.335.647-.739.006-.303-.152-.763.125-.864.568-.208 1.203-.301 1.817-.333.981-.053 1.108.61 1.144 1.359.12 2.442.256 4.883.414 7.322.051.787-.24 1.45-.636 2.1-.193.319-.352.697-.823.675-.485-.024-.604-.443-.716-.775-.434-1.287-.829-2.586-1.23-3.884-.089-.284-.14-.579-.303-.857-.266 1.05-.161 2.032.2 3.086.6 1.754.766 3.603.69 5.459-.008.192-.134.335-.496.43-.6-1.475.366-3.254-.866-4.798-.303 2.05.99 4.01-.144 5.787-.655 1.025-1.27 2.156-2.345 2.85-.76-.067-.703-.698-.965-1.08-.243-.352-.018-.883-.54-1.205-.725.587-.208 1.17.027 1.726.265.624.56 1.234.241 1.964-.846-.6-.535-1.819-1.439-2.34-.154-.142-.119-.343-.172-.516-.048.207.064.356.197.497" id="Fill-367"/><path d="M105.723 112.564c-1.437.546-2.913.858-4.478.687-.537-.06-1.249.15-1.515-.398-.3-.62.356-1.01.725-1.45.205-.247.625-.39.483-.924-1.511.204-1.604 2.112-3.14 2.33.553-1.309 1.877-2.084 2.446-3.538-.294.172-.398.205-.461.272-.895.947-1.608 2.31-2.724 2.727-1.05.391-2.484-.48-3.814-.368-.461.04-.81-.207-1.17-.446-.822-.547-.83-.536-1.987-.173.538-1.245 1.162-2.297 2.104-3.223.598.49-.028.65-.08.916-.046.24-.072.613.1.61 1.36-.03 1.999 1.225 3.098 1.555.42-.281.307-.547.106-.782-.398-.466-.147-.772.307-.934 2.254-.808 3.117-2.776 4.191-4.511.429-.691.936-1.158 1.479-1.567.548.034.538.345.597.622.144.679.482.832 1.298.787 1.481-.083 1.494.04 1.817 1.402.133.558.24 1.12.358 1.682 1.68-.303 1.864-.412 3.29-1.959.507.13.777.73 1.502.64.085-.44-.365-.638-.57-.935-.197-.285-.206-.585.095-.76 1.398-.813 2.146-2.262 3.524-3.097.663-.403 1.186-.433 1.734.157.23.25.32.475.215.772-.115.325-.333.706.25.793.53.08.545-.336.598-.68.025-.164.062-.326.263-.383.706 1.35.577 2.313-.513 3.146-.336.257-.896.465-.618.888.312.479.855.275 1.288-.035.19-.136.407-.238.655-.38.173.52.33.923.809 1.257.54.377.59 1.007-.061 1.463-.834.582-1.557 1.268-2.504 1.752-1.273.65-2.4 1.558-3.555 2.396-.725.526-1.515.738-2.413.696-.384-.018-.765-.055-.964-.397-.228-.392.097-.655.357-.883 1.016-.897 1.81-1.952 2.818-3.255-1.199.323-1.608 1.069-2.197 1.596-1.463 1.31-2.884 2.673-4.871 3.305l.021.02c-.045-.749.94-.792 1.097-1.403.582-.289.985-.812 1.587-1.073-.624.234-1.019.763-1.577 1.083" id="Fill-371"/><path d="M47.338 35.87c-.043.378.003.74.153 1.095.422.997.523 1.843-.7 2.496-.498.266-.78.963-1.08 1.504-.36.65-.86 1.157-1.602 1.213-1.231.092-1.107.755-.64 1.651-1.201-.19-1.064-1.136-1.459-1.672-.405-.551-.845-1.112-.826-1.85.012-.471.312-.652.755-.65.223.001.587-.01.249.35-.321.342-.369.71.022.934.315.18.6-.133.757-.404.249-.431.63-.558 1.105-.627.571-.084 1.125-.26 1.463-.673.155-.288.004-.477-.155-.505-1.117-.191-1.333-.908-1.018-1.778.263-.727.093-1.209-.296-1.87-.747-1.274-1.06-2.76-2.02-3.966-.334-.42-.264-1.069.012-1.769 1.122.581 1.893-.06 2.34-.914.436-.839.924-.924 1.713-.619.706.274 1.316.792 2.128.816.83-1.314.49-2.613-.023-3.853.277-.445.805-.065 1.047-.413.1-.146.224-.312.23-.473.01-.218-.22-.322-.405-.274-1.271.329-1.432-.37-1.35-1.32a2.127 2.127 0 0 0-.021-.558c-.11-.606-.814-1.04-.621-1.712.228-.8 1.13-.416 1.625-.764.132-.094.264-.307.247-.447-.02-.148-.192-.34-.345-.4-.576-.225-1.112-.15-1.545.508-.123-.714-.408-1.329.31-1.615.475-.19 1.07-.577 1.534.128.178.27.474.47.79.154.424-.424.039-.636-.274-.866-.152-.11-.32-.227-.29-.448 1.637.16 2.5.852 2.79 2.312.075.376.059.822.57.81.627-.016.55-.517.614-.958.033-.24-.413-1.028.49-.685.798.3 2.113-1.08 2.442.7.044.244.112.486.127.732.145 2.347.25 4.696.437 7.04.083 1.035-.45 1.795-1.001 2.546-.377.514-1.054.414-1.156-.207-.252-1.545-1.286-2.853-1.337-4.447-.023-.696-.265-1.33-.934-1.783.888 1.593.571 3.396 1.07 5.102.49 1.68.913 3.613.249 5.458l.03-.017c-.903.015-.563-.667-.568-1.055-.015-1.058-.34-2.083-.29-2.654.032.795.34 2.059.253 3.35-.1 1.495-1.246 2.402-2.09 3.474-.822 1.045-1.582 1.18-2.131-.246.312.9.966 1.786.162 2.746l.014-.012a2.283 2.283 0 0 1-.774-1.444c-.073-.514-.231-.959-.785-1.163-.151-.136-.137-.335-.208-.5.016.187.062.362.216.493" id="Fill-375"/><path d="M86.916 91.283c-.193-.287-.516-.297-.839-.326-.483-.045-.89-.236-.984-.688-.087-.421.324-.614.66-.753 1.256-.52 1.26-1.481 1.152-2.493.086-.02.172-.039.246-.06.049.021.144.03.163.069.085.177.249.16.203.02-.386-1.198-1.42-2.096-1.93-3.239-.265-.59-.787-1.368-.182-1.796.692-.49 1.665-1.077 2.622-.685.842.346 1.291.205 2.096-.174 1.331-.626 2.947-.154 4.433-.3.264 0 .002-.346.061-.116.015.054-.023.085-.112.093-2.91.232-5.84-.08-8.75.247-.542.06-.993-.257-1.285-.693a1.23 1.23 0 0 1-.125-.473c-.013-.055-.003-.121-.03-.17-1.171-2.172-.925-2.565 1.851-2.942-.268-.202-.823-.122-.813-.541.013-.5.48-.43.864-.407.386.022.779.093 1.127-.135.443-.045.926.073 1.475-.384-.754-.21-1.4-.508-1.043-1.32.197-.449.615-.746 1.046-.616.848.254.317 1.014.525 1.56.543-.04.305-.754.788-.771.494-.018.199.66.861.714.154-.984.46-1.973 1.844-2.273.248.527-.833 1.092-.098 1.521.59.346 1.054-.32 1.605-.44.726.216-1.244 1.312.519 1.228.364-.017.154.358 0 .503-.586.547-1.072 1.21-2 1.368-.29.048-.429.247-.387.522.052.33.292.3.573.264 1.005-.132 1.138.948 1.75 1.09.522.121 1.127-.447 1.94-.398 1.358.081 1.327 1.384 2.31 1.717.137.046-.072.385-.232.59-.675.865-1.247 1.638-2.737 1.576-1.191-.05-2.054.832-2.027 1.531.011.28-.014.618.366.752.392.138.553-.123.771-.362 1.192-1.303 2.143-1.321 3.21-.077.153.18.396.48.327.602-.633 1.115.07 2.174.094 3.255.025 1.083-.904 2.004-2.303 1.924-1.27-.072-1.996.744-3.022 1.031-1.027.286-1.005.53-1.576.12-.588-.423-.748-.863-.397-1.532 1.043-1.985.97-2.219-.797-3.97-.528.622.224 1.168.061 1.79-.284 1.09-.86 2.025-1.382 3.003-.526.983-1.295 1.44-2.52 1.02l.028.024z" id="Fill-413"/><path d="M137.667 49.37c-1.835-.362-3.516-1.107-4.967-2.352-.664-.57-1.314-1.084-2.222-1.027l-.05-.056.07.031c.941 1.044 2.063 1.85 3.185 2.654.243.175.555.326.487.693-.065.358-.392.434-.69.497-.573.122-1.128.453-1.739.168-2.002-.934-4.034-1.803-5.996-2.823-1.18-.614-1.176-1.568-.19-2.455.382-.345.657.025.981.04.27.01.45-.13.562-.37.13-.284.002-.543-.235-.6-1.466-.358-1.404-1.64-1.61-2.759.452-.367.5.132.711.261.14.086.354.173.482.12.332-.14.08-.374.046-.594-.14-.923.45-1.595 1.184-1.35.186.061.732.161.14.543a1.37 1.37 0 0 0-.46.538c-.107.223-.105.512.115.686.222.175.426.065.622-.12.963-.91.963-.903 1.902-.075.176.157.376.347.588.384 1.064.183 1.148.897.823 1.97.86-.856 1.54-.831 2.218-.018.173.206.526.266.809.347 1.223.353 1.286.282 1.164-1.069-.045-.498-.07-1.007-.02-1.502.036-.369.246-.414.665-.497.633-.127 1.749-.09 1.644-1.403-.04-.491.361-.454.611-.338.374.176.865.374 1.022.709.552 1.188 1.656 1.783 2.417 2.73.368.46.794.842 1.332.86 1.166.038 1.53.666 1.211 1.909 1.234-.578 1.258-2.296 2.617-2.2.05-.696-.716-.626-.643-1.331 1.373.399 1.94 1.672 2.836 2.712-.776-.3-1.39-.495-1.86.485-.334.694-1.267.573-1.907.869-1.279.59-2.504 1.094-3.62-.506-.116 1.02.891 1.083.92 1.903-1.1-.28-1.716-1.31-2.91-1.917.235.883.789 1.14 1.139 1.553.541.637.505.917-.289 1.179-1.13.373-2.262.789-3.472.785-.543-.333-1.164-.464-1.734-.728-.149-.248-.529-.094-.64-.41.05.377.465.119.587.377.572.327 1.214.458 1.8.745.114.26.229.517.344.776l.02-.024z" id="Fill-433"/><path d="M110.308 168.14c-.281.094-.936.212-.477.53.849.588.701 1.278.611 2.11-.34-.256-.645-.488-.938-.71-.564.297-.415.946-.782 1.333-.114-.214-.236-.594-.322-.586-1.42.133-1.34-.769-1.184-1.688.059-.345.235-.682-.195-.88-.568-.26-.642.174-.761.559-.028.091-.157.17-.257.218-1.404.686-1.469.693-2.09 1.742-.337.568-.785.798-1.407.792-.422-.004-.848.006-.741-.63.068-.408-.292-.598-.496-.858-.29-.371-.326-.717-.003-1.081.31-.352.522-.764.626-1.216.252-1.102.003-1.432-1.31-1.803-.247.2-.123.4 0 .6.389.64.588 1.27-.13 1.827-.817.633-1.672.623-2.427-.112-.31-.302-.627-.428-1.028-.543-1.586-.46-2.14-1.337-1.501-2.807.44-1.011.457-2.077.766-3.094.145-.478.147-.83.673-.933.504-.1.87.07 1.175.51 1.116 1.597 1.128 1.588 3.451 1.495-2.038-.859-2.488-2.692-3.453-4.136-.254-.378.044-.722.282-.872.57-.36.165-.828.229-1.216.342-.38.645.052.96.014.886-.109 1.312.288 1.287 1.162-.013.482.138.902.396 1.295 0 .074-.001.148.001.22 1.047.946 2.384.602 3.598.793.799.126 1.892.137 1.706 1.202-.142.819-.029 2.292-1.687 2.063-.17-.155.065.04-.108-.114-.12-.105-.236-.212-.37-.299.078.114.223.143.315.25 1.702 2.059-.967 3.405-.754 5.256-.06-1.204 1.169-1.427 1.699-2.264.75-1.185.41-2.484.992-3.666.443-.904.799-1.272 1.72-1.18l.193.15c.01.197-.248.499.051.563.243.052.533-.174.81-.205 1.04-.117 1.257.13 1.019 1.115-.04.168-.09.334-.138.499-.111.385-.242.764-.334 1.154-.167.708.52.107.599.37.186.617-.672 1.093-.273 1.755.476.151.265-.723.675-.482.373.217.886.37.98.889.064.345-.187.52-.495.581-.363.073-.667-.199-.985-.228-.566-.05-.108.374-.18.57l.012-.014z" id="Fill-441"/><path d="M101.692 160.15c.77.062 1.533.134 1.122-1.116-.134-.408-.174-.85-.272-1.349.763-.342 1.535.027 1.92.494.5.608.09 1.414-.361 2.027.205.48.632.262.942.369.335.116.657.34 1.04.21.256-1.615.095-3.332 1.067-4.771.41-.608-.163-.763-.45-.98-.299-.222-.687-.292-.92.152-.085.16-.072.377-.159.534-.346.63-.768.723-1.304.2-.656-.64-.777-1.602-1.33-2.313-.23-.295.05-.551.387-.66.857-.279 1.533-.086 1.976.77l-.106.1.09-.115c.275-.056.646.007.606-.472-.032-.368-.16-.741-.119-1.096.034-.285.225-.596.588-.61.26-.009.516.132.553.384.116.768.45.853.915.322.46-.527.945-.5 1.438-.168.409.276.856.659.203 1.139-.38.279-.607.592-.578 1.074.06 1.016-.555.877-1.485.408.643 1.036 1.388 1.199 1.893 1.669.212.12-.077-.011.136.106-.046-.035-.103-.05-.153-.078.028-.95.708-1.42 1.346-1.884.338-.246.75-.413 1.14.023.308.345.194.613.048 1.002-.49 1.299-.46 1.311.806 2.292 0-.615-.02-1.147.006-1.677.019-.383.298-.523.626-.533.326-.01.601.06.547.517-.05.412.071.83.492.853.482.026.61-.545.892-.852.306-.333.154-.583-.098-.95-.932-1.354-.881-1.64-.122-2.63.538-.703 1.161-.86 1.92-.541.73.307 1.518.589 1.982 1.276.738 1.096 1.843 1.38 2.974 1.67.165.042.449.186.457-.007.064-1.37 1.653-.706 2.016-1.672.107-.284.435-.265.608-.082.47.496 1.159.266 1.672.613.49.331.966.406 1.468-.097.539-.54 1.188-.417 1.873-.138-.885.755-2.814 1.653-3.633 1.662-.973.01-1.842.066-2.679.82-.926.837-2.255.764-3.43 1.01-.162.034-.453-.107-.503-.034-1.262 1.859-3.214.986-4.865 1.364 1.869 1.015 3.672.597 5.359-.386 1.478-.862 3.103-.874 4.743-1.05l-4.726 2.069.028-.024c-1.668.033-3.18.762-4.764 1.16-.722-.659-1.482-.852-2.22-.075-.638.673-1.473.789-2.072.99.635-.103 1.407-.397 2.152-.84.672-.402 1.418-.772 2.168-.1l-2.203 2.652.013.011.046-.368c.04-.335.478-.666.086-.997-.335-.282-.678-.01-.994.145-.648.317-1.299.63-1.934.975-.388.21-.789.271-1.213.24l.002.001c-1.176-.93-2.592-1.124-3.983-1.308-.953-.125-1.913-.2-2.856-.4-.485-.104-.978-.232-.797-.952l-.017.023z" id="Fill-469"/><path d="M87.268 86.68c-.445-.18-.805-.127-1.147.251-.482.532-1.09.963-1.341 1.98-.521-1.086-1.082-1.936-.648-2.74.344-.638 1.236-.706 2.28-.176l-1.098-2.717c-1.179 1.107-2.617 1.522-4.014 1.936-1.017.302-1.545-.047-1.898-1.094-.174-.515-.434-.626-.913-.681-.428-.049-.84-.217-1.26-.326-.547-.143-.87-.458-.867-1.02.004-.667.487-.722 1.025-.764 1.145-.09 1.647-.706 1.534-2.052-.506.65-1.057.908-1.672 1.076-.316.086-.588.212-.825-.101-.253-.334-.303-.62.124-.896.302-.194.665-.472.39-.873-.315-.463-.872-.393-1.37-.404-.476-.01-.605.262-.69.668-.18.856-.54 1.54-1.65 1.596-1.389.07-1.576.004-2.123-1.146-.467-.982-.342-1.944-.127-2.976.16-.763.962-1.682-.183-2.419-.113-.072-.041-.45-.006-.68.107-.702-.222-.94-.82-.583-.726.433-1.15.205-1.514-.406-.03-.05-.023-.13-.063-.167-1.352-1.238-1.38-1.232-1.791-2.882-.122-.486-.304-.761-.84-.758-.417.002-.744-.193-.906-.536-.195-.41-.79-.906-.345-1.272.56-.46.743.27 1.046.587.29.305.612.717.983.79.906.182 1.381.782 1.847 1.417.479.653 1.047 1.15 1.874 1.377.547.15.925.621 1.402.87 1.118.581 1.316 2.048 2.886 2.303 1.274.207 1.772 1.79 2.951 2.396.07.033.14.067.21.098.2.128.42.17.66.143a.884.884 0 0 1 .427.224c.42.572.643 1.206.683 1.94.116-.645.517-1.008 1.148-.836 1.09.297 2.007.83 2.078 2.041.128-.99-.699-1.34-1.376-1.857-.946-.722-2.344-.93-2.813-2.21-.014-.2.073-.345.257-.44a1.67 1.67 0 0 1 .844-.074c1.422.243 2.859.046 4.284.144.54.037 1.379-.013 1.393.582.018.774-.88.622-1.448.696-.55.071-1.114.008-1.77.02.887 1.1 2.702 1.176 2.927 2.766l.014-.017c.112.349-.887-.182-.419.537 1.092 1.68 1.53 3.665 2.637 5.35.258.393.462.877.022 1.323l.011-.008z" id="Fill-477"/><path d="M77.143 75.098c-.643-1.199-1.758-1.95-2.94-2.566-1.109-.578-1.994-1.359-2.875-2.186-1.025-.962-2.116-1.862-3.118-2.873 2 .514 2.868 2.855 5.404 3.034-1.235-1.313-2.69-2.04-3.464-3.465-.061.088-.024-.034.055-.068.525-.225.966-.657 1.607-.599-.227.548.235.923.382 1.379.084.264.099.55.443.699.39-.002.541-.496 1.022-.458 1.293.102 2.382-.455 3.466-1.039.927-.499.997-.451 1.464.516.025.05.012.127.048.159.827.74 1.293 1.54.267 2.488 1.08.483 2.1-.009 2.949.592.199.14.338-.628.928-.747 1.39-.281 1.37-.366 2.279.553.518-.246-.04-.736.26-1.03 1.262.091.495 1.135.794 1.686.496.917-.759.953-1.43 1.432.694.429 1.219.967 1.019 1.807-2.178 1.106-4.44.713-6.697.334-.81-1.155-.77-1.21 1.213-1.628a1.26 1.26 0 0 1 .925-.245c-.165 0-.518-.077-.814.18-.812.225-1.654.327-2.47.544-.606.16-.182.488-.209.747-.05.324-.19.593-.508.754" id="Fill-499"/><path d="M41.898 138.007c-.969-.293-1.593.866-2.637.594-.742-.193-1.589.161-2.32-.408-.258-.201-.503.206-.906.289.067-.641.4-1.111.658-1.617.827.328 1.697.495 2.401 1.063.367-.447-.085-1.014.459-1.34 1.126-.677 1.455-1.949 1.964-3.066.338-.747.56-1.59 1.443-.453.108.14.45.194.644.137.81-.238.95.236 1.135.9.311 1.125.528 1.15 1.39.41.374-.323.568-.977 1.257-.74.218.075.382-.102.29-.262-.53-.915.454-1.24.667-1.858.154-.444.529-.624.976-.258.163.134.386.348.547.026.062-.123.012-.368-.074-.494-.146-.214-.54-.363-.1-.643.235-.149.435.063.638.169.338.176.219 1.136 1.027.602.12-.078.257.578.27.938.022.629-.658.797-.807 1.293.33.709.83-.046 1.231.199.492.301 1.01.65.512 1.233-1.19 1.391-2.502 2.671-4.07 3.608-.295.177-.731.407-1.23.111-.045-.764.872-1.192.827-2.46-1.225 2.533-3.343 2.466-5.216 2.963-.884.234-1.006-.26-1-.957l.024.02z" id="Fill-535"/><path d="M53.62 142.63l-.354 1.19c-.428-.268-.519-.856-1.322-1.06.523.761.118 1.29-.193 1.875-.202.381-.389.64-.845.497-.482-.153-.763-.441-.503-.97.136-.277.2-.575-.031-.875-.61-.276-.882.322-1.32.489-.607.23-.601.512-.296 1.105.612 1.192.37 1.778-.647 2.468-.944.641-1.626.547-2.75-.294-.946-.708-1.379-1.742-1.97-2.665-.302-.469-.319-.94-1.17-.842-.533.061-.85-.595-1.002-1.272-.632 1.497-2.12 1.109-3.165 1.582-.219.098-.405.013-.486-.135-.416-.757-1.448-.741-1.945-1.416-.369-.5-.839-.698-1.42-.135-.289.282-.741.18-1.085-.02-.353-.208-1.077-.234-.92-.752.216-.708.705-.054 1.08-.034.315.017.657 0 .95-.098 1.088-.368 2.121-.289 3.161.165a2.299 2.299 0 0 0 1.517.108c1.77-.484 3.521-.552 5.272.06.111.038.317.102.339.07 1.005-1.454 2.356-.318 3.535-.421.321-.028.646-.009.97-.011l-.021.023c-.706-.783-1.585-1.195-2.698-1.1-.214-.128-.22-.262-.015-.404.377-.256.735.014 1.098.043 2.063.166 3.956-.08 5.309-1.78.14-.178.341-.35.802-.234l-1.235 1.398c.567.456 1.23.148 1.793.27v.338c-1.279 1.023-2.834.658-4.296.749 1.713.005 2.602 1.348 3.862 2.088" id="Fill-555"/><path d="M122.62 158.072c.111.198-.112.978.273.557.613-.674.461.21.666.159.351-.087.35-.436.475-.683.654-1.291 1.956-1.376 3.158-1.438.45-.023.91-.14 1.505-.133-.397.658-.295 1.346-.482 2.014-.59.054-.194-1.043-.917-.69-.489.238-1.415-.352-1.352-.003.198 1.112-1.142 1.457-1.042 2.446.042.403-.13.84-.262 1.244-.19.583.18 1.399-.347 1.74-.583.379-1.386-.242-2.15.08-.435.182-.765-.357-.97-.726-.363-.645-.785-.454-1.244-.153-.382.477-.224 1.364-1.118 1.525.309.652-.045 1.156-.298 1.742-.227.526-.42.842-1.043.817-.275-.012-.465.1-.376.45.077.306 1 .126.469.671-.267.273-.79.003-.969-.298-.425-.718-.753 1.038-1.098.014-.171-.504-.517-1.011-.086-1.562.105-.135.137-.324.2-.477-.456-.47-.665.041-.975.156-.478.178-.853-.098-1.185-.377-.4-.337-.101-.698.074-.99a96.599 96.599 0 0 1 2.366-3.753c.192-.286.568-.472.887-.664.75-.452.793.226 1.012.632.765-.4.78-1.562 1.538-1.722.84-.18 1.52-.486 2.16-.98.386.054.84-.121 1.132.402z" id="Fill-565"/></g><g id="Листья-Copy-3" transform="scale(1 -1) rotate(-37 -225.495 -77.007)"><path d="M39.89 83.368c-.021-.498-.331-.822-.8-1.028-1.322-.578-2.614-1.206-3.984-1.702-1.307-.473-2.627-.257-3.78.117-1.858.602-3.84.61-5.677 1.244-1.708.59-3.445 1.12-5.156 1.71-.858.297-1.03 1.479-2.195 1.225-.243.59-.24 1.19.074 1.743.213.374.796.792.115 1.072-.608.25-.677-.47-.903-.798-.149-.217-.136-.528-.172-.8-.042-.321.021-.707-.48-.767-.397-.047-.691.172-.95.42-.3.288.025.427.128.663.348.794.843 1.59-.654 2.082-.522.172-.549 1.361-1.83.977.725-.69.437-1.561.757-2.33-1.459-.303-2.005 1.332-3.324 1.08-.116-.458.334-.599.47-.891.17-.368.402-.733-.162-.975-.454-.196-.87-.067-1.108.309-.173.273-.22.612-.374 1.073-.29-.501-.28-.925-.066-1.263.805-1.27 1.394-2.728 3.194-3.21.455-.121.775-.41.552-.869-.215-.44-.38-.967-1.055-1.035a.417.417 0 0 0-.29.12c-.738.767-1.555.702-2.114-.176-.757-1.188-.757-1.188-1.875.015-.512.333-1.049 0-1.571.045.517-.03 1.056.33 1.556-.064.29.212.412.507-.037.577-1.421.22-2.796-.055-4.144-.46-.411-.123-.145-.435-.21-.562-.286-.572-.19-1.69-1.522-1.19-.166.063-.27.044-.246-.11.025-.15.102-.406.187-.417.932-.114 1.052-.488.939-1.334-.135-1.01.712-1.724 1.954-1.74 1.77-.022 2.634-1.285 3.855-2.051.441-.277.163-.75-.094-1.04-.429-.482-.531-.945-.133-1.455-.421-.238-.737-.016-1.081.074-.443.115-.445.192-.44.7.017 1.657-1.863 2.617-3.576 2.006-.398-.143-.812-.262-1.186-.445-1.164-.57-1.546-1.181-1.117-2.306.33-.865.118-1.479-.458-2.129-.3-.339-.586-.725-.737-1.133-.524-1.428.192-2.971 1.72-3.716.534-.26 1.144-.388 1.702-.61.844-.337 2.025-.263 2.208-1.43.642.169.654-.973 1.477-.547.408.21.733-.16.77-.486.056-.504-.457-.373-.784-.428-.168-.03-.334-.067-.498-.219.72-.138 1.428-.16 2.16.042 2.126.586 2.66 1.351 1.642 3.123-.883 1.537-.452 2.624.756 3.693.707.626 1.019 1.635 2.127 1.897.078-.111.151-.181.138-.2-.999-1.373-.567-2.983-.914-4.464-.061-.26-.083-.75.027-.788 1.587-.56.574-2.22 1.622-3.037.398-.31.037-.803-.357-1.137-.187-.158-.154-.41.055-.586.267-.222.37.073.556.13 1.196.37 2.341.038 2.807-.85.176-.338.273-.616.737-.516.165.036.365.14.441.266.278.453-.238.517-.473.724-.08.07-.113.18-.274.452 1.012-.244 1.785-.003 2.44.58.436.385.49.722.028 1.118-.533.457-1.065.918-1.554 1.413-.902.915-.624 2.537.518 3.168.44.244.625-.009.855-.31.78-1.025 1.71-1.97 1.902-3.485 1.235 1.1 1.3 2.62 2.762 3.436-1.422.753-2.191 2.345-4.204 1.472.254.823 1.782 2.938 2.965 4.096-.436-1.355.422-1.813 1.289-2.301 1.037-.584 2.035-1.224 3.061-1.825.356-.21.72-.437 1.12-.548.805-.223 1.132.002 1.282.834.068.379.009.795.662.903.272-1.282-.233-2.503-.335-3.744-.037-.456-.438-.781-.941-.93-.231-.069-.557-.09-.576.184-.089 1.244-1.041.642-1.628.582-.728-.075-.944-.61-.89-1.236.027-.33.001-.665.033-.994.036-.374-.01-.832.598-.87.497-.03.783.232.918.655.066.208.13.441.279.597.361.38.868.365 1.363.29.375-.058.492-.316.43-.614-.09-.448-.256-.89-.863-.932-.566-.038-1.04-.177-1.513-.496-.696-.47-.778-.949-.273-1.53.33-.381.63-.822 1.332-.933.504.26.145 1.381 1.316 1.19.28-.046.479.702.475 1.158-.007.729.207 1.4.682 2.287.712-1.416 1.827-2.275 2.962-3.13.502.319.502.866.694 1.313.18.419.231.858-.526.959-.31.04-.476.37-.344.662.12.266.404.388.733.43.48.06.868-.342 1.414-.12.998.407 1.687 1.692 1.342 2.652-.146.407-.538.564-.849.425-1.51-.674-2.418.102-3.309 1.005-.159.162-.354.305-.641.261-.294-.303.191-.62-.007-.929-.244-.38-.546-.917-1.03-.775-.582.17-.357.741-.147 1.122.425.77.554 1.57.494 2.412-.033.459.13.867.373 1.262.666 1.085 1.13 1.083 1.932.037.425-.557.128-.791-.415-.972-.424-.14-1.003.158-1.29-.336-.03-.322.23-.394.44-.482 1.159-.488 2.34.099 3.53-.006.454-.04 1.16.53 1.051 1.393-.093.74-.38 1.21-1.139 1.244-1.351.061-2.314.61-2.504 1.778-.179 1.103.272 2.137 1.232 2.88.325-.106.386-.266.301-.416-.836-1.463-.84-1.46.805-2.41 1.285-.742 1.46-.756 2.038-.083.46.535.757 1.047-.262 1.395-.261.089-.478.344-.651.564-.425.543-.226.982.496 1.027.67.042 1.354.022 2.021-.047.823-.086 1.273-.305.952-1.282-.366-1.114.355-2.423 1.373-2.598.946-.162 1.83-.866 2.847-.565.998.295 1.575 1.018 1.981 1.856.92 1.898 1.319 3.847.831 5.917-.129.546-.598 1.442.883 1.202.433-.07.91 1.311.665 1.988-.08.222-.506.364-.107.638.264.183.57.196.866.074.164-.068.373-.147.447-.276.55-.944 1.326-.601 2.11-.342.462.154.47.136 1.049 1.188.598-.04.882-.464 1.123-.878.632.186.797.65.85 1.053.194 1.483 1.49 2.543 1.811 3.978.08.362.533.4.925.236.534-.226 1.096-.318 1.522.126a18.412 18.412 0 0 1 1.537 1.848c.075.1-.108.423-.256.575a.515.515 0 0 1-.792-.042c-.489-.662-1.257-.938-1.949-1.349-.544-.323-1.003-.379-1.634-.425-1.205-.089-2.035-.926-2.753-1.765-.575-.67-1.96-1.455-2.866-1.447-1.808.017-2.99-1.179-4.466-1.8-.503-.212-.724-.693-1.48-.776-.773-.084-.564-1.233-1.039-1.804-.78 1.147-1 1.303-2.196.628-1.63-.92-3.293-1.843-4.597-3.159-.406-.41-.73-.883-1.31-1.17-.428.404-.107.712.172.967.775.71 1.517 1.41 1.967 2.364.317.674 1.095 1.046 1.843 1.304 1.886.653 3.62 1.638 5.596 2.085.431.097.815.27 1.135.524 2.836 2.252 6.25 3.67 9.476 5.363.5.262 1.157.35 1.412.912-.178.173-.387.18-.535.097-1.707-.951-3.698-1.375-5.323-2.527-1.439-1.02-3.22-1.571-4.935-2.174-1.89-.664-3.625-1.603-5.32-2.582-.659-.38-1.265-.634-2.03-.595l.013.018z" id="Fill-213"/><path d="M79.744 8.034c.046.469-.245.83-.51 1.182-.818 1.084-1.227 1.154-2.49.476-.308-.166-.656-.297-.91-.515-.78-.666-1.62-.67-2.458-.182-1.03.6-2.264.921-3.198 1.758.216.1.355.211.413.184 1.423-.668 2.836.067 4.253.017.354-.012.96-.085 1.006.151.286 1.461 2.194.815 2.83 1.855.326.534.967-.29 1.603.057-.406.457-.235 1.038-.359 1.543-.163.672-.027.968.635 1.26 1.096.483.174.734-.166 1.145-.433-.48-.457-1.118-1.316-1.353.669.938.585 1.684-.434 2.239-.497.27-.887.28-1.23-.168-.239-.31-.467-.627-.707-.937-1.251-1.623-2.09-1.695-4.056-.222 1.222.752 1.876 2.036 3.626 2.4-1.166 1.108-2.81.67-3.656 1.61-.565-.298-.511-.737-.742-1.038-.48-.625-.938-1.224-.303-2.04.289-.373-.115-.62-.532-.454-1.179.472-2.329 1-3.55 1.532 1.284.806 1.266.813 2.006 2.389.396.843.865 1.66 1.305 2.486.21.399.371.808.165 1.242-.29.607-.807.213-1.239.216-.346.003-.738-.036-.911.592 1.314.029 2.588.107 3.859.07 1.053-.032 1.073-.194.627-1.259-.217-.52-.14-1.068.285-1.521.358-.381.793-.43 1.297-.247.276.1.587.123.857.232.376.149.833.29.698.794-.11.41-.383.662-.907.575-.114-.019-.25-.052-.346-.015-.533.21-.521.68-.602 1.096-.038.198.139.3.313.319.473.051.98.144 1.2-.412.04-.102.042-.22.102-.309 1.1-1.627 1.88-1.58 2.982.19-.245.457-1.16.183-1.215.97-.03.43-.7.209-1.087.256-.797.099-1.679-.26-2.497.42 1.092.725 1.81 1.688 2.376 2.79-.326.297-.91.327-1.508.312-.281-.008-.642.065-.703-.307-.06-.368-.23-.66-.662-.58-.464.087-.575.446-.615.865-.113 1.197-1.388 1.952-2.582 1.558-.518-.17-.903-.57-.552-.99.87-1.048.218-1.802-.427-2.601-.136-.168-.23-.363-.417-.663.757-.115 1.67.343 1.99-.565-1.089-.337-4.417-.42-5.2-.106-.302.121-.81.223-.596.637.213.414.456.966 1.029 1.013.511.043.572-.45.657-.821.063-.277.216-.536.575-.485.247.035.438.307.389.49-.282 1.021.016 2.133-1.022 3.054-.512.456-.823.445-1.311.335-.494-.112-.873-.356-.837-.898a3.732 3.732 0 0 0-.009-.647c-.13-1.283-.885-1.912-2.339-1.916-.767-.003-1.562-.038-2.148.564.09.089.152.205.223.21.585.041 1.17-.617 1.685-.192.664.548.81 1.417 1.103 2.16.168.428-.366.736-.87.863-.408.101-.802.273-.952-.324-.06-.241-.28-.475-.488-.655-.6-.52-1.169-.397-1.218.321-.052.792-.621 1.55-.159 2.486 1.04-.422 1.94-.073 2.67.61.468.437 1.456.81.56 1.66-.04.04.082.197.087.3.024.452.518.875.027 1.362-.62.617-1.31 1.153-2.222 1.298-2.062.329-4.12.445-6.085-.442-.481-.218-.967-.222-1.18.314-.344.869-1.088.826-1.812.62-.356-.103-.617-.597-1.004-.076-.266.36-.172.7.11 1.04.225.273.856.55.434.9-.445.368-.191 1.17-.996 1.226-1.08.074-.8.524-.392 1.04.107.133.134.29-.097.565-1.487-.444-2.695.803-4.255.767-.673-.016-1.174.32-1.191 1.124-.017.826-1.588 1.957-2.479 1.947-.263-.003-.439-.152-.557-.347-.133-.222-.025-.402.13-.585.335-.396 1.056-.32 1.28-.802.313-.678 1.205-.96 1.195-1.956-.007-.67 1.054-1.26 1.84-1.658 1.225-.622 2.082-1.329 2.383-2.723.285-1.326 1.841-2.063 2.675-3.159.735-.967 1.683-1.345 3.099-1.293-.412-.415-.939-.256-1.127-.588-.225-.397.027-.728.221-1.06.314-.537.81-.926 1.305-1.322 1.276-1.022 2.442-2.16 4.004-2.94-.213-.128-.338-.245-.381-.224-2.058.98-4.37 1.577-5.582 3.684-1.384 2.403-3.37 4.406-5.532 6.3-1.535 1.346-2.794 2.949-4.156 4.45-.337.373-.577.82-1.586 1.117 1.32-1.49 2.057-2.916 3.295-4.047 1.306-1.193 2.49-2.473 3.353-3.97.133-.23.172-.504.255-.758l.05-.221c1.218-1.598 2.807-2.932 4.008-4.543.078-.028.157-.054.235-.08.175-.027.413.003.518-.09 2.049-1.788 4.188-4.32 3.262-7.035-.164-.478-.156-.954-.13-1.436.127-2.273-.358-4.487-.873-6.687-.125-.536-.024-1.372-1.102-1.519-.32.51.305.886.25 1.336-.104.148-.276.19-.446.147-.4-.099-.786-.304-1.214-.178-.503.146-.964.178-1.209-.334-.197-.413-.22-.827.19-1.187.166-.145.272-.344.404-.52.307-.162.607-.363.983-.156-.387-.251-.676-.022-.972.168-.295-.168-.692-.201-.887-.578.744-.85 1.74-.664 2.73-.444-.089-1.247-.083-1.21-1.329-1.05-.713.09-1.514.115-1.458-.888.02-.34-.24-.46-.501-.592-.46-.233-.447-.582-.278-1.03.688.372 1.402.647 2.178.647.515-1.036-.97-1.692-.5-2.776.436.29.788.534 1.152.762.226.14.467.089.659-.055.281-.21.172-.462.078-.73-.19-.544-1.05-.284-1.227-.92.67-.165 1.21.148 1.59.493.977.888 2.394 1.492 2.494 2.997.022.318.352.596.78.483.327-.088.758-.138.869-.49.113-.367-.745-.16-.54-.62.236-.532.32-1.184 1.08-1.377.458-.117.934-.184 1.284-.676-.475-.62-.989-1.304-.361-2.138.165-.219.17-.541-.275-.584-.38-.036-.34-.293-.272-.466.338-.868.729-1.716 1.65-2.24.81-.461 1.06-.421 1.537.432.196.35.436.416.803.5 1.606.363 1.687.406 1.693 1.95.006 1.283.851 2.204 1.477 3.226.248.404.736.417 1.107.232.578-.288 1.02-.08 1.61.253.004-.759.502-1.52-.908-1.641-.451-.04-.897-.513-1.266-.855-.54-.5-.784-1.067-.223-1.726.288-.339.468-.751.73-1.11.888-1.21 1.538-1.416 2.928-.69.72.375 1.267.141 1.854-.065 2.935-1.03 4.47-.29 5.127 2.51.074.313.194.655.125.952-.2.872.664 1.125 1.074 1.643.418.53-.216 1.303.488 1.77.19.128.404.229.608.342l.024.018z" id="Fill-227"/><path d="M143.228 154.03c-.316-.14-.681-.22-.881-.612.653-.393 1.302-.715 2.143-.474.365.106.79.125.806-.333.017-.457-.186-.867-.856-.766-.292.044-.58.202-.862.19-.596-.028-1.277-.047-1.278-.817-.002-.676-1.515-.802-.726-1.713.714.379 1.53.555 2.384.647.176-1.044-1.214-1.68-.68-2.724.565-.023.67.45 1.017.624.363.18.707.233.947-.095.231-.317.025-.6-.217-.869-.24-.265-.902-.033-.875-.82 1.764.645 3.028 1.658 3.74 3.089.653 1.312.7 1.38 2.09.241-.026-.255-.198-.184-.358-.124-.152.056-.293.174-.466.039.04-1.308 1.186-1.706 2.388-2.139-.524-.846-.965-1.527-.27-2.537.476-.691-.444-.097-.736-.203.033-1.016.597-1.845 1.315-2.566.833-.838 1.492-.78 2.175.203.29.422.673.355 1.049.467 1.311.392 1.445.553 1.27 1.844-.198 1.448.959 2.37 1.642 3.468.171.276.684.2 1.007.044.541-.262 1.007-.163 1.523.2.085-.79.398-1.486-.979-1.602-.515-.043-.966-.757-1.437-1.174-.344-.305-.362-.634-.126-1.023.344-.569.646-1.154 1.137-1.645 1.081-1.084 1.264-1.157 2.726-.52.674.295 1.212.242 1.868-.03 2.66-1.105 4.713-.093 5.177 2.521.066.37.057.753.077 1.13.023.437.094.776.614 1.06.492.268.983.787.706 1.39-.245.533.103.795.469.846.528.073.286-.473.465-.707.055-.073.175-.108.422-.25-.042 1.399-.724 2.372-1.797 3.174-.304.227-.642.272-1 .078-.206-.112-.413-.23-.634-.31-.86-.319-1.401-1.254-2.538-1.041-.772.143-3.06 1.375-3.76 2.043.077.176.282.255.418.19 1.517-.731 3.015.425 4.526.03.1-.027.328.035.332.072.188 1.507 2.172.834 2.81 1.866.344.558.969.064 1.471-.006.154-.021.398.037.484.137.27.318-.148.272-.288.392-.48.411-.172 1.003-.399 1.51-.261.582.442.757.949.94.275.1.302.34.15.531-.175.223-.43.423-.74.167-.214-.177-.26-.49-.74-.65.352 1.22-.474 1.778-1.51 2.332-.606-.74-1.144-1.448-1.74-2.113-.72-.8-2.447-.795-3.19-.023-.242.25-.192.495.062.703.755.612 1.328 1.407 2.273 1.829.252.113.65.1.6.474-.04.303-.338.438-.635.49-.526.094-1.08.043-1.572.317-.402.225-.837.402-1.342.64-.712-1.144-1.478-2.205-.517-3.852l-4.599 1.834c2.518 1.143 2.436 3.501 3.577 5.231.493.747.028 1.102-1.108 1.086-.408-.005-.861-.084-1.046.667 1.366 0 2.665.04 3.958-.013 1.005-.04 1.078-.226.656-1.137-.342-.736-.125-1.541.502-1.87.46-.243 2.208.139 2.485.58.246.39.09.763-.34.947-.246.105-.602-.013-.866.074-.378.125-.48.456-.477.8.001.298.121.529.485.574.367.047.723.047.905-.335.117-.245.216-.508.391-.718.929-1.115 1.831-1.077 2.657.097.33.47.236.683-.404.933-1.495.582-1.466.644-3.176.715-.366.016-.72.034-1.071.34.194.68.982.9 1.484 1.239.636.427-.36 1.546 1.129 1.444-1.117.463-2.078 1.079-2.755-.247-.048-.093-.338-.169-.472-.13-.375.11-.51.385-.549.741-.153 1.41-1.24 2.106-2.615 1.687-.352-.108-.83-.402-.619-.665 1.117-1.39.114-2.419-.827-3.62.913-.032 1.836.303 2.287-.83-1.663 0-3.25-.029-4.835.016-.52.015-1.19.14-1.281.688-.071.431.49.707.834.992.365.303.65.154.791-.24.091-.251.133-.525.265-.757.063-.11.282-.19.44-.207.21-.021.329.159.333.313.033 1.229-.194 2.426-.933 3.467-.41.575-1.97.187-2.206-.5-.051-.15-.027-.32-.045-.481-.26-2.445-2.097-3.143-4.517-1.708.274.481.635.132.872.018.768-.365 1.255-.2 1.543.514.082.204.16.407.25.606.649 1.446.65 1.446-1.17 2-.365-.397-.374-1.015-.953-1.3-.429-.211-.97-.27-1.002.204-.062.893-.596 1.759-.252 2.788 1.3-.509 2.217.058 3.034.828.384.361 1.026.702.321 1.32-.097.086.045.395.083.599.233 1.196.137 1.499-1.076 2-1.428.59-2.925.987-4.538.608-1.023-.239-2.168-.005-3.085-.696-.214-.16-.563-.008-.795.213-1.19 1.13-1.192 1.128-2.625.543-.335.312-.344.715-.174 1.05.263.516.61.857.165 1.56-.385.607-.868.76-1.419.901-.09.52.45.832.33 1.279-.115.071-.212.185-.303.182-1.59-.055-2.96.803-4.532.857-.498.017-.857.353-.791.903.051.427.109.886-.396 1.16-.668.361-1.332.74-2.102.906-.127.027-.343-.097-.45-.205-.253-.253-.073-.499.092-.724.349-.475 1.058-.503 1.416-1.118.295-.507.82-.819.932-1.549.106-.688 1.004-1.155 1.723-1.571.446-.258.949-.398 1.33-.8.521-.546 1.15-.92 1.193-1.795.032-.668.62-1.257 1.116-1.813.737-.825 1.703-1.44 2.328-2.398.365-.559 1.497-.447 2.335-.645-1.276-.685-1.44-.972-.577-1.822 1.119-1.101 2.3-2.17 3.67-3.047.53-.34 1.16-.567 1.566-1.066-.122-.05-.268-.155-.319-.126-1.812 1.025-4.195 1.238-5.373 3.18-.772 1.273-1.89 2.367-2.567 3.704-.12.24-.3.488-.527.647-2.829 1.988-4.897 4.587-7.123 7.06-.262.29-.567.55-.922.89-.321-.558.153-.756.331-1.03 1.191-1.82 2.94-3.262 4.276-4.975 1.857-2.38 3.8-4.7 5.888-6.913.927-.982 1.968-1.872 2.842-2.911 1.045-1.243 1.521-2.605 1.236-4.088-.277-1.432-.076-2.864-.283-4.298-.231-1.598-.55-3.178-.852-4.763-.111-.581-.352-1.153-1.02-1.453a1.455 1.455 0 0 1-.305-.282c-.451-.486-1.038-.41-1.63-.318l-.232-.001" id="Fill-239"/><path d="M104.28 103.79a.947.947 0 0 0 .709.48c2.944.365 5.785.555 8.323-1.408 1.743-1.348 3.772-2.399 5.473-3.822 1.138-.952 2.65-1.619 2.9-3.202.06-.387 1.086-.052.677-.687-.338-.525-.462-1.329-1.473-1.25l.022.013c.206-1.008.306-1.076.94-.62.386.277.739.579.881 1.028.086.267.205.586.605.416.259-.109.478-.339.647-.557.233-.296 0-.452-.275-.637-.888-.598-1.436-1.173-.231-2.072.4-.3-.261-1.411 1.137-1.33-.35.75-.053 1.493.365 2.357 1.136-.516 1.24-1.905 2.39-2.264.453.38.063.554-.03.77-.167.383-.227.758.197 1.035.131.086.37.15.508.103.451-.158.65-.487.576-.92-.043-.245-.236-.486-.038-.826.812 1.592.423 3.743-.876 4.808-.302.248-.588.432-.403.784.253.477.763.688 1.325.773.06.009.168-.127.221-.212.568-.923 1.173-1.119 1.993-.502.7.526 1.213.823 1.597-.21.056-.149.177-.293.307-.403.402-.34.945-.148 1.407-.273.737-.2-.33-.736.158-.856.872-.213 1.756-.564 2.698-.272.403.126.819.249 1.18.443.337.181.588.65.309.833-.958.632-.317 1.3-.215 1.974.103.689.01 1.33-.89 1.598-1.62.483-1.884 1.924-2.64 3.011-.235.337.045.625.32.857.261.224.553.42.807.65.18.165-.262.816.467.533.362-.14.796-.403.587-.89-.314-.733-.01-1.405.225-2.082.07-.202.176-.478.353-.551 1.228-.507 2.533-.357 3.78-.14.937.166 1.09.942 1.046 1.71-.033.558.268.937.811 1.183.11.05.211.113.322.162 2.574 1.152 2.408 3.424.66 4.983-.392.349-.802.68-1.212 1.012-.475.384-1.134.61-.887 1.435.089.293-.49.666-.874.923-.845.563-.841.568.16 1.223-.676.516-1.494.465-2.285.413-1.381-.092-1.982-.533-1.807-1.762.273-1.908-.574-2.99-2.504-3.624-.672-.22-1.192-.778-1.953-.79-.245.109-.253.303-.134.409.915.814 1.597 1.687 1.963 2.863.219.703 1.16 1.145.38 2.087-.403.489.476 1.079.398 1.703-.484.364-1.09.056-1.598.241-.22.081-.505.177-.434.449.066.25.353.356.551.171.893-.837 1.157.21 1.718.402.494.169.522.476.409.764-.195.492-.423-.136-.66-.037-.529.22-.927.59-1.606.659-.516.051-.299.736-.254 1.156.021.209.167.457-.158.53-.218.05-.495.02-.703-.062-.293-.115-.203-.359-.093-.562.29-.534.64-1.05.615-1.755-.533.1-.593.524-.75.81-.427.784-1.098.78-1.861.533-.586-.19-.969-.49-.614-1.113.167-.293.321-.594.457-.9.855-1.922.569-2.473-1.858-3.385-.489 1.326-.657 2.688-.702 4.266-1.287-.577-1.938-1.587-3.027-2.066-.302-.132-.132-.469.013-.73.542-.971 1.034-1.977 2.88-1.943l-3.957-2.41c-.456.46.264.903-.135 1.396-1.075 1.33-1.984 2.767-3.07 4.088-.599.726-1.026.6-1.65-.253-.226-.308-.439-.668-1.187-.596.646.74.929 1.547 1.309 2.316.3.606.704 1.201 1.46 1.399.295.077 1.124.47.765-.532-.2-.553.532-.623.963-.704.54-.1 1.143-.145 1.47.394.202.334.331.708.454 1.074.126.374.22.815-.234 1.035-.493.24-.918.117-1.183-.405-.346-.679-.894-.352-1.39-.146-.326.135-.445.38-.33.674.125.33.373.619.799.539.54-.103 1.035-.238 1.614-.075 1.19.336 1.387.626.932 1.65-.254.567-.553 1.117-1.232.335-.457-.525-1.412.386-1.74-.578-.188-.558-.666-1.042-1.044-1.541-.128-.17-.35-.282-.712-.563-.261 1.298-.137 2.64-1.647 3.361-.382-.453-1.319-.64-.846-1.513.15-.28.561-.523.153-.83-.303-.227-.694-.135-1.05-.013-1.313.447-1.755.379-2.505-.379-.911-.918-.74-1.487.615-1.715.863-.146 1.202-.653 1.555-1.251.219-.372.154-.895.696-1.113.395.114.204.451.322.666.247.444.811.75 1.166.541.58-.34.067-.784-.26-1.078a4.212 4.212 0 0 1-1.155-1.653c-.341-.882-1.057-1.439-2.074-1.668-.34.542-.929 1.124-.655 1.6.362.625 1.1-.167 1.678.007.11.033.207.1.386.188-.95 1.347-2.474 1.433-3.98 1.45-.783.009-.703-.751-.951-1.181-.252-.435.112-.732.53-.898 1.223-.483 1.85-1.28 1.567-2.481-.244-1.036-1.04-1.66-2.047-2.018-.257.108-.29.192-.214.303.305.454 1.247.502 1.12 1.185-.154.822-.947 1.366-1.442 2.033-.231.311-.92.076-1.318-.244-.344-.276-.628-.568-.177-.954.234-.202.347-.434.387-.72.11-.763-.288-1.115-1.035-.785-.812.36-1.73.573-2.517 1.286.595.513 1.148 1.05.999 1.904-.148.845.071 1.823-1.385 1.882-.084.004-.15.168-.245.233-1.395.942-1.764.955-3.2.116-.572-.335-1.075-.75-1.43-1.266-.909-1.327-2.003-2.583-1.995-4.27.002-.38-.308-.634-.886-.615-1.016.035-1.847-.428-1.692-1.147.257-1.193-.531-.512-.86-.48-.312.03-.438.344-.519.62-.09.315-.277.838-.58.695-.608-.289-1.127.383-1.753-.083-.834-.62-.904-.546-1.553.46-1.061-.234-.971-1.475-2.106-1.821-.867-.264-1.449-1.274-2.136-1.931-1.544 1.006-2.615.92-3.953-.184-.264-.218-.317-.43-.15-.715.221-.382.539-.41.914-.227.571.28 1.08.567 1.824.567.597 0 1.079.089 1.708-.167.927-.379 1.918.053 2.77.465 1.24.6 2.376.866 3.84.38 1.525-.508 3.142.087 4.672.435 1.962.445 1.948.494 2.892 1.525.28-.4-.28-.833.124-1.169.416-.345.91-.34 1.386-.294 1.706.16 3.34.597 4.95 1.118.55.178 1.028.599 1.688.482.038-.49-.34-.662-.647-.75a6.201 6.201 0 0 1-2.353-1.236c-.552-.465-1.307-.616-2.063-.568-4.394.279-8.655-.46-12.918-1.266-1.37-.26-2.797-.285-4.2-.405-.601-.052-1.242.022-1.783-.69 2.005.264 3.864.081 5.734.462 1.657.337 3.391.425 5.098.49 2.086.079 4.193-.044 6.215.514.721.198 1.32-.228 1.989-.106l-.022-.019z" id="Fill-249"/><path d="M133.04 45.496c.601-.48 1.398-.497 2.118-.708.71-.207 1.572-.208 1.971-.934l-.02.02c1.317.123 2.31-.673 3.488-.953 2.189-.521 4.407-.978 6.539-1.645 1.674-.524 3.35-1.02 5.062-1.436.29-.07.561-.239.952-.041-.545.49-1.253.628-1.916.825-2.742.812-5.48 1.615-8.045 2.837-1.41.672-3.099.577-4.633.978-1.428.374-2.852.577-3.691 1.87-.377.58-1.437.642-1.77 1.63 1.422-.735 2.664-1.402 3.936-2.023.69-.337 1.342-.755 2.205-.772.66-.013 1.166.093 1.353.866.552-.668.817-1.214 1.732-1.452 1.778-.461 3.303-1.601 5.406-1.134.443.1 1.32-.312 1.851-.8.55-.507 1.225-.9 2.026-1.088.306-.071.6-.148.851.091.258.246.1.473-.011.735-.54 1.266-1.757 2.158-2.38 3.385-.235.463-.567.17-.8-.135-.24-.314-.464-.379-.87-.073-.901.682-1.498.667-2.35-.01-.3-.24-.577-.414-.967-.311-.601.157-.134.536-.176.807-.088.586-.28 1.058-1.081 1.089-.681.025-.726.365-.678.887.167 1.798-.51 3.396-1.72 4.818-.925 1.09-1.559 1.027-3.11.631-.855-.218-1.324-.477-1.533-1.15-.187-.596-.661-1.213.022-1.82.202-.18.192-.43-.082-.53-.791-.29-1.617-.53-2.477-.497-.504.019-.518.445-.34.742.22.366.56.676.921 1.093-.588.296-.777 1.294-1.732.684-1.739-1.11-1.741-1.262-.575-3.021-1.278.73-1.768 1.494-1.709 2.535.051.895.682 1.318 1.605 1.548.633.158 1.05.436.885 1.175-.172.77-.804 1.004-1.417.91-.725-.112-1.462-.114-2.175-.254-.287-.056-.635-.203-.608-.523.034-.412.393-.232.684-.243.967-.04 1.063-.243.601-.932-.405-.603-.816-.564-1.297-.102-.125.12-.255.239-.35.376-.126.184-.33.394-.312.58.098 1.052-.994 1.835-.896 2.91.977.005.949-.739 1.33-1.218.193.16.419.28.534.455.468.708 1.05 1.163 2.08 1.047.79-.09.907.404.84.948-.106.857-.891 1.467-1.893 1.387-.426-.034-.826-.183-1.377.094.7.754.872 1.51-.122 2.154-1.19-.486-1.755-1.366-1.936-2.552-.937.512-.984 1.34-1.234 2.013-.328.884-1.675.335-1.742 1.496-.37-.44-.547-.596-.65-.783-.579-1.056-.373-1.5.842-1.807.292-.074.618-.037.914-.104.56-.127.616-.512.423-.891-.18-.357-.594-.323-.965-.244-.11.025-.257.095-.292.177-.26.589-.65.973-1.363.518-.398-.255-.24-1.409.17-1.827.31-.316 1.496-.41 1.895-.15 1.16.757 1.288.726 1.764-.603.254-.709.418-1.442.627-2.18-.473-.13-.52.181-.625.394-.501 1.007-.792 1.141-1.665.488-1.124-.84-2.132-1.8-3.202-2.697-.395-.331-.304-.792-.407-1.22-.784.18-1.08.775-1.588 1.145-.468.34-.956.661-1.268.877.19.756.512.565.8.547 1.06-.07 1.453.735 1.935 1.293.467.543-.317.843-.67 1.142-.522.44-.646 1.184-1.582 1.514-.023-1.283-.77-2.25-1.334-3.286-1.818.697-2.114 1.474-1.121 2.825.133.182.338.337.416.534.16.402.998.677.377 1.23-.51.456-1.116.682-1.82.282-.152-.086-.3-.174-.45-.261-.316.21-.07.375.031.551.144.25.666.505.136.774-.423.213-.588-.109-.76-.442-.415-.807-1.224-1.054-2.57-.86.744-1.306.582-2.579-.152-3.833-.082-.14-.25-.375-.201-.42.97-.894 0-2.366 1.244-3.185.201-.134.238-.46.488-.987-1.52.715-2.555 1.486-3.45 2.413-.258.266-.267.6-.21.926.038.212.128.417.182.627.496 1.936.031 2.49-2.184 2.594-.308.015-.615.003-.943.003-.011-.413 1.513-.774.077-1.139-.466-.117-.955-.428-.992-.6-.202-.93-1.144-1.053-1.818-1.464-.404-.247-.883-.423-1.223-.722-1.193-1.048-1.749-2.425-.227-3.661.749-.609 1.398-1.178.916-2.225-.232-.504.327-.873.804-1.156.806-.478 1.783-.37 2.663-.598.334-.088.597.124.758.361.372.55.869 1.102.707 1.777-.186.784.508.69.91.882.293-.122.14-.29.117-.43-.108-.628 1.203-.87.65-1.524-.68-.806-1.245-1.73-2.46-2.118-1.54-.49-1.57-.543-1.412-2.075.054-.526-.497-.565-.614-.906l.08-.036-.063.052c-.625-.736.192-.933.637-1.187.673-.386 1.733-.447 3.369-.34 0 .313-.616.168-.523.514.076.28.332.246.578.155.951-.36 1.135.749 1.856.76.77.011.787-1.133 1.794-.931.46.092.872-.037.878.606.001.14.643-.113.853-.377.269-.337.377-.802-.072-1.006-1.512-.686-1.678-2.036-2.192-3.218-.086-.197-.11-.425.092-.616.47-.05.4.277.452.516.084.389.21.83.788.628.509-.178.407-.606.19-.971-.105-.178-.24-.343-.478-.672 1.286.096 1.637 1.282 2.695 1.353.425-.628.013-1.324.185-2.09.904.43 1.033 1.301 1.745 1.758.34.216.028.854-.41 1.11-.639.377-.24.623.097.844.569.374.702.017.837-.404.167-.517.4-1.018 1.22-1.243.124.908-.999 1.488-.677 2.345l.905-.132-.025-.022c-.117.833.434 1.28 1.184 1.651 2.243 1.111 4.466 2.218 6.904 3.026 1.494.495 2.904 1.108 4.526 1.18-.173 1.033-1.19 1.098-2.028 1.29-.826.19-1.67.407-2.492.514-1.32.172-2.088.769-2.588 1.68 1.006-1.16 2.955-2.053 3.92-1.717.777.27 1.022.795.683 1.634.556-.892 1.335-1.423 1.974-2.063.36-.362 1.11-.66.51-1.326" id="Fill-269"/><path d="M65.702 134.577c-.189-.006-.38.005-.567-.02-1.24-.165-1.274-.176-.935-1.232.208-.65.519-1.265-.305-1.766-.264-.16-.52-.32-.861-.23-.393.104-.361.41-.384.673-.049.58-.075 1.16-.114 1.788-2.59-1.163-2.685-1.551-.73-2.931-.571-.457-1.239-.684-1.907-.886-1.26 1.259-1.486 3.072-3.21 3.942.091.45.436.705.754.963.362.293.648.484.889-.168.211-.57.871-.64 1.41-.343.427.235.741.702.54 1.141-.286.62-.673.114-1.031-.026-.404-.158-.81-.05-.855.336-.034.299.356.391.692.396.378.006.76-.009 1.13.044.488.07.527.417.488.76-.052.447-.377.352-.784.4-1.227.145-1.497-.827-2.275-1.335-.472.34-.225.81-.324 1.186-.103.389-.25.84-.777.786-.621-.064-.785-.47-.512-.984.04-.076-.037-.198-.085-.418-.76.123-1.537.822-2.342.074-.505-.47-.582-.893.085-1.123.609-.21.904-.54 1.134-1.008.071-.148.166-.319.309-.406.626-.38.632-.37.16-.917-.3-.346-.452-.8-.955-.995-.265-.102-.556-.352-.801-.005-.128.18-.269.423-.227.606.098.422.458.204.743.153.177-.03.386-.09.494.246-.394.758-1.342.746-2.152.922-.322.07-.597-.094-.773-.362-.218-.33-.205-.63.136-.88.603-.439 1.077-.931.993-1.676-.29-.308-.083-.706-.252-1.036-1.108-1.685-1.02-1.86 1.144-2.295.247-.05.384-.147.137-.102-.1.018-.21-.077-.3-.17-.084-.136-.068-.257.043-.368l3.633-.516c-.748-.362-1.6-.152-2.34-.766.9-1.362 1.806-2.785 1.86-4.447-.532.324-.95.084-1.303-.409-.176-.244-.367-.474-.16-.747.473-.622 1.014.086 1.513-.034.263-.371-.621-.399-.299-.783.727-.21.947.687 1.873.555-.888-.809-.99-1.645-.262-2.585.639.055.308.96.98.953.609-.12.503-.716.855-.995.24-.055.377.046.432.213.316.963.648.495.985.011.181 1.052.187 1.053-.43 2.707-.106.285-.15.548.167.726.339.19.582.089.693-.255.091-.285.404-.3.616-.248.861.204 1.65.444 1.83-.734.037-.243.941.25 1.11-.485.046-.199.893-.348 1.373-.355.55-.007.407.574.63.864 1.01 1.31.955 1.406-.284 2.652-1.135 1.14-1.124 1.574.076 2.771.747-.257.473-.827.442-1.263-.059-.827.394-1.174 1.26-1.342.895-.174 1.764-.153 2.07.67.262.707.77 1.048 1.405 1.44 1.312.813 1.476 1.741.397 2.794-.932.909-1.245 2.075-1.978 3.061-.372.502-.768.478-1.254.477-.495-.002-.836-.222-.989-.638-.22-.608.198-1.383-.563-1.84-.778-.466-1.655-.77-2.721-1.092.077.644.709.813.957 1.192.614.933 1.055 1.912 1.215 2.975.12.792.86 1.744-.693 2.174-.184.05-.165.529-.358.718-.192.19-.447.05-.585-.17l.024.017z" id="Fill-331"/><path d="M40.279 82.844c-1.02.763-2.38.576-3.552.922-.65.192-1.336.26-1.97.799 1.038.136 1.857-.184 2.648-.44 2.334-.752 4.452-.305 6.481.746 1.057.548 1.03.887-.082 1.47-.268.14-.56.246-.842.369-.22.096-.474.16-.58.594 1.583.223 2.533-1.447 4.33-1.12-.951.77-2.118.93-2.779 1.776.908.1 1.475-.435 2.144-.766.703-.349 1.316-.77 1.973.255.31.485 1.383.653 2.147.87.64.183 1.258.456 1.45.955.363.933.977 1.217 2.406.638-1.098 1.207-2.202 1.743-3.22 2.343-.641.379-1.22.11-1.403-.524-.037-.132.068-.293.107-.441.098.133.178.28.298.396.283.273.555.155.788-.059.187-.17.287-.476.023-.544-1.496-.39-1.323-1.885-2.332-2.56-.338.045-.475.23-.445.455.127.93-.508 1.119-1.378 1.05-.864-.067-1.453.225-2.16.687-1.33.87-2.923 1.432-4.087 2.527-.243.228-.647.334-1.045.318-.383-.015-.678-.011-.704-.51-.056-1.088-.583-1.716-1.722-1.583-.753.087-.654-.061-.663-.448-.011-.487-.005-.967.201-1.438.223-.51.325-1.04.071-1.697-1.012.053-2.076.02-2.988.518-.82.448-1.197.21-1.487-.466-.055-.125-.277-.197-.383-.268-.207-.035-.327.022-.315.159.129 1.457.138 1.482-1.528 1.789-.542.1-.861.407-1.266.653-.842.508-.958.466-1.487-.392-.118-.192-.202-.4-.343-.577a.568.568 0 0 0-.65-.195c-.273.086-.36.28-.386.504-.066.556.255.922 1.109 1.158-1.164.333-1.802.366-2.268-.561-.255-.508 0-.662.272-.937.215-.216.395-.45.022-.68-.313-.192-.565-.11-.81.128-.24.232-.24.642-.702.709-.091-1.484.753-2.667 2.162-2.959.45-.093.991-.131.829-.637-.149-.461-.612-.667-1.184-.351-.213.117-.434.22-.8.108-.054-.448-.221-.916-.468-1.385-.392-.746-.08-1.104.888-1.374 1.194-.331 2.417-.514 3.648-.712 1.383-.224 2.78-.585 4.148-.95.56-.148 1.075-.241 1.646-.04.686.241 1.761.233 1.867.903.12.757-1.007.797-1.622 1.08-1.209.556-2.353 1.225-3.72 1.533-.555.126-1.178.354-1.395.953 2.925-.723 5.55-2.108 8.539-2.612.853-.145 1.7-.425 2.583-.122l-.014-.017z" id="Fill-343"/><path d="M137.39 176.089c.016.337-.108.752.073.996.908 1.228.59 2.18-.733 2.946-.467.271-.657.688-.885 1.084-.351.61-.945.976-1.663 1.038-.916.078-1.086.404-.766 1.087.065.14.017.316-.31.46-.743-.895-1.236-1.927-1.757-2.939-.232-.45.082-.75.595-.87.112-.025.29-.024.361.035.252.208-.094.223-.169.328-.189.266-.235.529.072.742.156.111.418.119.52-.022.732-1.02 2.19-.846 3.167-1.448-.003-.568-.514-.4-.82-.474-.527-.126-.856-.455-.69-.863.801-1.974-.892-3.36-1.476-5.003-.239-.674-1.096-1.116-.974-1.933l.118-.773c1.504.584 2.355-.021 2.597-1.176.114-.534.418-.299.61-.307.955-.034 1.688.509 2.514.809.743.27 1.112.08 1.115-.627.002-.338.11-.714-.023-1.007-.468-1.039-.394-1.925.96-2.597-1.766-.185-1.56-.228-1.95-1.64-.304-1.11-.785-2.174-.891-3.34-.079-.86.519-1.023 1.217-1.23.526-.155.672.176.904.433.173.191.395.3.648.122.324-.228.28-.484-.02-.699-.231-.166-.51-.291-.526-.623 1.953.35 2.537.808 2.814 2.252.067.348.081.74.54.785.47.045.638-.306.647-.674.006-.276-.152-.695.125-.787.568-.19 1.203-.274 1.817-.304.981-.048 1.108.557 1.144 1.239.12 2.225.256 4.449.414 6.672.051.716-.24 1.32-.636 1.912-.193.29-.352.636-.823.615-.485-.021-.604-.403-.716-.706-.434-1.172-.829-2.356-1.23-3.538-.089-.26-.14-.528-.303-.781-.266.957-.161 1.85.2 2.811.6 1.599.766 3.284.69 4.974-.008.176-.134.306-.496.392-.6-1.343.366-2.965-.866-4.371-.303 1.868.99 3.653-.144 5.272-.655.934-1.27 1.965-2.345 2.597-.76-.06-.703-.636-.965-.983-.243-.321-.018-.805-.54-1.098-.725.534-.208 1.065.027 1.572.265.569.56 1.124.241 1.789-.846-.547-.535-1.657-1.439-2.131-.154-.13-.119-.313-.172-.47-.048.187.064.324.197.452" id="Fill-367"/><path d="M105.723 102.561c-1.437.498-2.913.782-4.478.626-.537-.054-1.249.137-1.515-.362-.3-.565.356-.921.725-1.321.205-.225.625-.356.483-.842-1.511.185-1.604 1.925-3.14 2.123.553-1.193 1.877-1.899 2.446-3.223-.294.156-.398.186-.461.247-.895.863-1.608 2.104-2.724 2.484-1.05.357-2.484-.437-3.814-.334-.461.036-.81-.19-1.17-.407-.822-.498-.83-.489-1.987-.157.538-1.135 1.162-2.093 2.104-2.937.598.447-.028.592-.08.835-.046.218-.072.558.1.554 1.36-.026 1.999 1.118 3.098 1.418.42-.256.307-.498.106-.712-.398-.425-.147-.704.307-.852 2.254-.736 3.117-2.529 4.191-4.11.429-.63.936-1.055 1.479-1.427.548.03.538.314.597.566.144.619.482.758 1.298.718 1.481-.076 1.494.035 1.817 1.277.133.508.24 1.021.358 1.532 1.68-.276 1.864-.375 3.29-1.784.507.118.777.665 1.502.583.085-.4-.365-.581-.57-.852-.197-.26-.206-.533.095-.693 1.398-.74 2.146-2.06 3.524-2.822.663-.367 1.186-.394 1.734.143.23.228.32.433.215.704-.115.296-.333.643.25.723.53.072.545-.307.598-.62.025-.15.062-.297.263-.35.706 1.232.577 2.109-.513 2.867-.336.235-.896.424-.618.81.312.435.855.25 1.288-.032.19-.125.407-.218.655-.347.173.475.33.841.809 1.146.54.343.59.917-.061 1.332-.834.53-1.557 1.156-2.504 1.597-1.273.592-2.4 1.42-3.555 2.183-.725.48-1.515.672-2.413.634-.384-.016-.765-.05-.964-.362-.228-.357.097-.596.357-.805 1.016-.816 1.81-1.778 2.818-2.965-1.199.294-1.608.974-2.197 1.454-1.463 1.193-2.884 2.436-4.871 3.011l.021.018c-.045-.682.94-.721 1.097-1.278.582-.263.985-.739 1.587-.977-.624.213-1.019.695-1.577.986" id="Fill-371"/><path d="M47.338 32.683a1.79 1.79 0 0 0 .153.998c.422.908.523 1.678-.7 2.274-.498.242-.78.877-1.08 1.37-.36.591-.86 1.054-1.602 1.105-1.231.084-1.107.688-.64 1.505-1.201-.174-1.064-1.035-1.459-1.524-.405-.502-.845-1.013-.826-1.685.012-.43.312-.595.755-.592.223 0 .587-.01.249.318-.321.312-.369.647.022.851.315.165.6-.121.757-.368.249-.393.63-.509 1.105-.572.571-.076 1.125-.237 1.463-.612.155-.263.004-.436-.155-.46-1.117-.175-1.333-.828-1.018-1.62.263-.663.093-1.102-.296-1.705-.747-1.16-1.06-2.514-2.02-3.613-.334-.383-.264-.974.012-1.612 1.122.53 1.893-.055 2.34-.833.436-.764.924-.842 1.713-.563.706.25 1.316.72 2.128.743.83-1.198.49-2.381-.023-3.511.277-.405.805-.06 1.047-.376.1-.133.224-.285.23-.431.01-.199-.22-.293-.405-.25-1.271.3-1.432-.337-1.35-1.203a1.79 1.79 0 0 0-.021-.508c-.11-.552-.814-.947-.621-1.56.228-.729 1.13-.38 1.625-.696.132-.085.264-.28.247-.407-.02-.135-.192-.31-.345-.364-.576-.206-1.112-.137-1.545.463-.123-.651-.408-1.211.31-1.472.475-.174 1.07-.526 1.534.116.178.246.474.428.79.14.424-.386.039-.579-.274-.788-.152-.101-.32-.207-.29-.408 1.637.145 2.5.776 2.79 2.106.075.342.059.749.57.737.627-.014.55-.47.614-.872.033-.218-.413-.937.49-.624.798.274 2.113-.983 2.442.638.044.222.112.443.127.667.145 2.138.25 4.279.437 6.414.083.943-.45 1.636-1.001 2.32-.377.468-1.054.378-1.156-.189-.252-1.407-1.286-2.6-1.337-4.051-.023-.635-.265-1.213-.934-1.625.888 1.451.571 3.094 1.07 4.649.49 1.531.913 3.291.249 4.973l.03-.016c-.903.014-.563-.607-.568-.961-.015-.964-.34-1.898-.29-2.418.032.724.34 1.876.253 3.053-.1 1.361-1.246 2.188-2.09 3.164-.822.952-1.582 1.075-2.131-.224.312.82.966 1.628.162 2.502l.014-.01a2.033 2.033 0 0 1-.774-1.317c-.073-.468-.231-.873-.785-1.06-.151-.123-.137-.304-.208-.455.016.17.062.33.216.45" id="Fill-375"/><path d="M86.916 83.172c-.193-.261-.516-.27-.839-.298-.483-.04-.89-.215-.984-.626-.087-.384.324-.56.66-.686 1.256-.475 1.26-1.35 1.152-2.272.086-.018.172-.035.246-.054.049.019.144.027.163.062.085.162.249.146.203.019-.386-1.092-1.42-1.91-1.93-2.951-.265-.538-.787-1.247-.182-1.637.692-.446 1.665-.981 2.622-.624.842.315 1.291.186 2.096-.158 1.331-.57 2.947-.141 4.433-.274.264 0 .002-.315.061-.105.015.049-.023.077-.112.084-2.91.211-5.84-.072-8.75.225-.542.055-.993-.234-1.285-.632a1.044 1.044 0 0 1-.125-.43c-.013-.05-.003-.11-.03-.156-1.171-1.978-.925-2.337 1.851-2.68-.268-.184-.823-.11-.813-.493.013-.456.48-.392.864-.37.386.02.779.084 1.127-.123.443-.042.926.066 1.475-.35-.754-.191-1.4-.463-1.043-1.203.197-.41.615-.68 1.046-.562.848.232.317.925.525 1.421.543-.035.305-.686.788-.702.494-.016.199.602.861.651.154-.897.46-1.798 1.844-2.07.248.48-.833.994-.098 1.385.59.315 1.054-.291 1.605-.4.726.196-1.244 1.195.519 1.118.364-.016.154.326 0 .458-.586.498-1.072 1.102-2 1.246-.29.045-.429.225-.387.476.052.3.292.274.573.24 1.005-.12 1.138.864 1.75.993.522.111 1.127-.406 1.94-.362 1.358.074 1.327 1.262 2.31 1.565.137.042-.072.35-.232.537-.675.789-1.247 1.493-2.737 1.437-1.191-.045-2.054.757-2.027 1.394.011.256-.014.564.366.685.392.126.553-.112.771-.33 1.192-1.186 2.143-1.203 3.21-.07.153.164.396.438.327.55-.633 1.015.07 1.98.094 2.964.025.987-.904 1.827-2.303 1.754-1.27-.066-1.996.678-3.022.94-1.027.26-1.005.482-1.576.108-.588-.385-.748-.786-.397-1.395 1.043-1.81.97-2.022-.797-3.617-.528.566.224 1.063.061 1.63-.284.994-.86 1.846-1.382 2.737-.526.895-1.295 1.312-2.52.93l.028.02z" id="Fill-413"/><path d="M137.667 44.983c-1.835-.33-3.516-1.009-4.967-2.143-.664-.519-1.314-.988-2.222-.936l-.05-.05.07.028c.941.951 2.063 1.686 3.185 2.418.243.16.555.297.487.631-.065.326-.392.395-.69.453-.573.11-1.128.413-1.739.153-2.002-.85-4.034-1.643-5.996-2.572-1.18-.56-1.176-1.429-.19-2.237.382-.314.657.023.981.036.27.01.45-.118.562-.337.13-.259.002-.494-.235-.547-1.466-.326-1.404-1.493-1.61-2.513.452-.335.5.12.711.238.14.078.354.158.482.109.332-.127.08-.341.046-.542-.14-.84.45-1.453 1.184-1.23.186.056.732.148.14.496-.188.11-.36.299-.46.49-.107.203-.105.466.115.624.222.16.426.06.622-.108.963-.83.963-.824 1.902-.07.176.144.376.317.588.35 1.064.168 1.148.818.823 1.796.86-.78 1.54-.758 2.218-.017.173.188.526.243.809.317 1.223.32 1.286.256 1.164-.974-.045-.454-.07-.918-.02-1.37.036-.335.246-.376.665-.452.633-.115 1.749-.081 1.644-1.278-.04-.448.361-.414.611-.308.374.16.865.34 1.022.646.552 1.083 1.656 1.624 2.417 2.488.368.418.794.766 1.332.783 1.166.035 1.53.606 1.211 1.739 1.234-.527 1.258-2.092 2.617-2.004.05-.634-.716-.57-.643-1.213 1.373.363 1.94 1.524 2.836 2.471-.776-.273-1.39-.451-1.86.442-.334.633-1.267.522-1.907.791-1.279.538-2.504.998-3.62-.46-.116.93.891.986.92 1.734-1.1-.255-1.716-1.195-2.91-1.747.235.804.789 1.04 1.139 1.415.541.58.505.836-.289 1.074-1.13.34-2.262.719-3.472.715-.543-.303-1.164-.422-1.734-.663-.149-.226-.529-.086-.64-.373.05.343.465.108.587.343.572.298 1.214.418 1.8.679l.344.706.02-.021z" id="Fill-433"/><path d="M110.308 153.2c-.281.085-.936.192-.477.483.849.535.701 1.164.611 1.922l-.938-.647c-.564.27-.415.862-.782 1.215-.114-.196-.236-.542-.322-.534-1.42.12-1.34-.701-1.184-1.539.059-.314.235-.621-.195-.8-.568-.238-.642.157-.761.507-.028.084-.157.155-.257.2-1.404.625-1.469.631-2.09 1.587-.337.518-.785.726-1.407.722-.422-.004-.848.004-.741-.574.068-.372-.292-.545-.496-.783-.29-.338-.326-.653-.003-.985.31-.32.522-.695.626-1.107.252-1.004.003-1.305-1.31-1.643-.247.183-.123.363 0 .547.389.582.588 1.156-.13 1.664-.817.577-1.672.568-2.427-.102-.31-.275-.627-.39-1.028-.495-1.586-.419-2.14-1.218-1.501-2.558.44-.92.457-1.892.766-2.818.145-.436.147-.756.673-.85.504-.091.87.064 1.175.464 1.116 1.455 1.128 1.447 3.451 1.362-2.038-.782-2.488-2.452-3.453-3.768-.254-.345.044-.658.282-.795.57-.327.165-.754.229-1.108.342-.346.645.048.96.013.886-.099 1.312.262 1.287 1.06-.013.438.138.82.396 1.179 0 .067-.001.134.001.2 1.047.862 2.384.549 3.598.723.799.115 1.892.124 1.706 1.095-.142.746-.029 2.089-1.687 1.88-.17-.141.065.036-.108-.104-.12-.096-.236-.193-.37-.272.078.103.223.13.315.228 1.702 1.875-.967 3.102-.754 4.788-.06-1.097 1.169-1.3 1.699-2.062.75-1.08.41-2.263.992-3.34.443-.824.799-1.16 1.72-1.076l.193.137c.01.18-.248.454.051.513.243.047.533-.16.81-.187 1.04-.107 1.257.12 1.019 1.016-.04.153-.09.304-.138.454-.111.35-.242.697-.334 1.052-.167.645.52.098.599.337.186.562-.672.996-.273 1.599.476.138.265-.658.675-.44.373.199.886.339.98.811.064.315-.187.473-.495.53-.363.066-.667-.182-.985-.208-.566-.047-.108.34-.18.519l.012-.013z" id="Fill-441"/><path d="M101.692 145.92c.77.055 1.533.121 1.122-1.017-.134-.372-.174-.775-.272-1.23.763-.311 1.535.025 1.92.45.5.554.09 1.289-.361 1.847.205.438.632.24.942.336.335.106.657.31 1.04.192.256-1.471.095-3.036 1.067-4.348.41-.553-.163-.695-.45-.892-.299-.203-.687-.266-.92.138-.085.146-.072.344-.159.487-.346.573-.768.659-1.304.182-.656-.584-.777-1.46-1.33-2.108-.23-.268.05-.501.387-.601.857-.254 1.533-.078 1.976.703l-.106.09.09-.105c.275-.05.646.007.606-.43-.032-.335-.16-.675-.119-.999.034-.26.225-.542.588-.555.26-.008.516.12.553.35.116.7.45.777.915.293.46-.48.945-.456 1.438-.153.409.251.856.6.203 1.038-.38.254-.607.539-.578.978.06.926-.555.8-1.485.372.643.944 1.388 1.092 1.893 1.52.212.11-.077-.01.136.097-.046-.032-.103-.046-.153-.07.028-.867.708-1.295 1.346-1.718.338-.224.75-.376 1.14.022.308.314.194.559.048.913-.49 1.183-.46 1.194.806 2.088 0-.56-.02-1.045.006-1.528.019-.35.298-.476.626-.486.326-.01.601.055.547.471-.05.376.071.757.492.778.482.024.61-.497.892-.776.306-.304.154-.532-.098-.866-.932-1.234-.881-1.495-.122-2.397.538-.64 1.161-.783 1.92-.493.73.28 1.518.537 1.982 1.163.738.999 1.843 1.257 2.974 1.521.165.04.449.17.457-.005.064-1.249 1.653-.644 2.016-1.524.107-.26.435-.242.608-.075.47.452 1.159.242 1.672.558.49.302.966.37 1.468-.088.539-.492 1.188-.38 1.873-.126-.885.689-2.814 1.507-3.633 1.515-.973.008-1.842.06-2.679.748-.926.762-2.255.695-3.43.919-.162.031-.453-.097-.503-.03-1.262 1.693-3.214.898-4.865 1.242 1.869.925 3.672.544 5.359-.351 1.478-.786 3.103-.797 4.743-.957l-4.726 1.884.028-.021c-1.668.03-3.18.694-4.764 1.056-.722-.6-1.482-.775-2.22-.067-.638.613-1.473.718-2.072.902.635-.095 1.407-.362 2.152-.767.672-.365 1.418-.702 2.168-.09l-2.203 2.416.013.01.046-.335c.04-.305.478-.606.086-.909-.335-.257-.678-.008-.994.133-.648.288-1.299.575-1.934.888-.388.192-.789.247-1.213.219l.002.001c-1.176-.847-2.592-1.024-3.983-1.192-.953-.114-1.913-.182-2.856-.365-.485-.094-.978-.21-.797-.867l-.017.021z" id="Fill-469"/><path d="M87.268 78.978c-.445-.165-.805-.116-1.147.228-.482.485-1.09.877-1.341 1.804-.521-.99-1.082-1.763-.648-2.497.344-.58 1.236-.643 2.28-.16l-1.098-2.475c-1.179 1.009-2.617 1.387-4.014 1.764-1.017.275-1.545-.043-1.898-.997-.174-.469-.434-.57-.913-.62-.428-.045-.84-.198-1.26-.298-.547-.13-.87-.416-.867-.929.004-.608.487-.657 1.025-.696 1.145-.082 1.647-.643 1.534-1.87-.506.592-1.057.828-1.672.981-.316.079-.588.193-.825-.092-.253-.305-.303-.565.124-.816.302-.177.665-.43.39-.796-.315-.422-.872-.358-1.37-.368-.476-.009-.605.239-.69.609-.18.78-.54 1.404-1.65 1.454-1.389.064-1.576.004-2.123-1.044-.467-.895-.342-1.772-.127-2.712.16-.696.962-1.532-.183-2.204-.113-.065-.041-.41-.006-.62.107-.64-.222-.855-.82-.53-.726.393-1.15.186-1.514-.37-.03-.047-.023-.12-.063-.153-1.352-1.128-1.38-1.122-1.791-2.625-.122-.444-.304-.694-.84-.691-.417.001-.744-.176-.906-.49-.195-.373-.79-.824-.345-1.158.56-.418.743.246 1.046.535.29.278.612.653.983.72.906.166 1.381.712 1.847 1.291.479.595 1.047 1.048 1.874 1.254.547.138.925.567 1.402.793 1.118.53 1.316 1.867 2.886 2.099 1.274.188 1.772 1.631 2.951 2.182.07.031.14.062.21.09.2.117.42.155.66.13a.915.915 0 0 1 .427.205c.42.52.643 1.098.683 1.767.116-.588.517-.918 1.148-.761 1.09.27 2.007.755 2.078 1.859.128-.902-.699-1.221-1.376-1.692-.946-.658-2.344-.847-2.813-2.013-.014-.182.073-.315.257-.401.275-.095.557-.105.844-.068 1.422.222 2.859.042 4.284.132.54.033 1.379-.013 1.393.53.018.705-.88.566-1.448.634-.55.064-1.114.007-1.77.019.887 1.002 2.702 1.07 2.927 2.52l.014-.016c.112.317-.887-.166-.419.489 1.092 1.53 1.53 3.34 2.637 4.875.258.357.462.799.022 1.205l.011-.007z" id="Fill-477"/><path d="M77.143 68.425c-.643-1.093-1.758-1.777-2.94-2.338-1.109-.527-1.994-1.238-2.875-1.992-1.025-.877-2.116-1.696-3.118-2.618 2 .469 2.868 2.602 5.404 2.765-1.235-1.196-2.69-1.859-3.464-3.157-.061.08-.024-.031.055-.062.525-.205.966-.598 1.607-.546-.227.5.235.841.382 1.256.084.241.099.501.443.637.39-.001.541-.451 1.022-.417 1.293.093 2.382-.415 3.466-.946.927-.455.997-.412 1.464.47.025.045.012.115.048.144.827.674 1.293 1.403.267 2.267 1.08.44 2.1-.008 2.949.54.199.128.338-.573.928-.681 1.39-.256 1.37-.334 2.279.504.518-.224-.04-.67.26-.938 1.262.082.495 1.034.794 1.536.496.835-.759.868-1.43 1.305.694.39 1.219.88 1.019 1.646-2.178 1.007-4.44.65-6.697.304-.81-1.052-.77-1.101 1.213-1.483.324-.234.706-.248.925-.223-.165 0-.518-.07-.814.163-.812.206-1.654.299-2.47.496-.606.146-.182.445-.209.68-.05.296-.19.541-.508.688" id="Fill-499"/><path d="M41.898 125.744c-.969-.267-1.593.789-2.637.54-.742-.175-1.589.148-2.32-.37-.258-.184-.503.187-.906.262.067-.584.4-1.012.658-1.472.827.298 1.697.45 2.401.968.367-.407-.085-.924.459-1.222 1.126-.616 1.455-1.774 1.964-2.793.338-.68.56-1.449 1.443-.412.108.127.45.176.644.124.81-.217.95.216 1.135.82.311 1.026.528 1.049 1.39.373.374-.293.568-.89 1.257-.673.218.068.382-.093.29-.239-.53-.834.454-1.13.667-1.693.154-.404.529-.569.976-.235.163.122.386.317.547.024.062-.112.012-.336-.074-.45-.146-.195-.54-.331-.1-.586.235-.136.435.057.638.154.338.16.219 1.035 1.027.548.12-.071.257.527.27.855.022.573-.658.726-.807 1.178.33.646.83-.042 1.231.181.492.275 1.01.593.512 1.124-1.19 1.268-2.502 2.434-4.07 3.288-.295.16-.731.37-1.23.1-.045-.696.872-1.085.827-2.241-1.225 2.308-3.343 2.247-5.216 2.7-.884.213-1.006-.237-1-.872l.024.019z" id="Fill-535"/><path d="M53.62 129.956c-.119.361-.237.723-.354 1.085-.428-.245-.519-.78-1.322-.967.523.694.118 1.176-.193 1.71-.202.346-.389.582-.845.451-.482-.138-.763-.401-.503-.883.136-.253.2-.524-.031-.797-.61-.251-.882.293-1.32.445-.607.21-.601.466-.296 1.007.612 1.086.37 1.62-.647 2.248-.944.585-1.626.5-2.75-.267-.946-.645-1.379-1.588-1.97-2.428-.302-.428-.319-.856-1.17-.768-.533.056-.85-.542-1.002-1.159-.632 1.364-2.12 1.01-3.165 1.441-.219.09-.405.013-.486-.122-.416-.69-1.448-.675-1.945-1.29-.369-.455-.839-.636-1.42-.123-.289.257-.741.164-1.085-.019-.353-.189-1.077-.212-.92-.685.216-.645.705-.048 1.08-.03.315.015.657 0 .95-.09 1.088-.336 2.121-.263 3.161.15a2.508 2.508 0 0 0 1.517.099c1.77-.441 3.521-.503 5.272.054.111.035.317.094.339.065 1.005-1.325 2.356-.29 3.535-.385.321-.025.646-.007.97-.01l-.021.022c-.706-.714-1.585-1.09-2.698-1.003-.214-.117-.22-.239-.015-.368.377-.233.735.013 1.098.04 2.063.15 3.956-.074 5.309-1.622.14-.162.341-.32.802-.214l-1.235 1.274c.567.416 1.23.135 1.793.246v.308c-1.279.932-2.834.6-4.296.683 1.713.004 2.602 1.227 3.862 1.902" id="Fill-555"/><path d="M122.62 144.026c.111.18-.112.89.273.507.613-.614.461.191.666.145.351-.079.35-.397.475-.622.654-1.176 1.956-1.254 3.158-1.31.45-.021.91-.129 1.505-.122-.397.6-.295 1.227-.482 1.835-.59.05-.194-.95-.917-.628-.489.217-1.415-.321-1.352-.003.198 1.013-1.142 1.328-1.042 2.229.042.367-.13.765-.262 1.133-.19.532.18 1.275-.347 1.586-.583.345-1.386-.221-2.15.072-.435.167-.765-.325-.97-.66-.363-.589-.785-.414-1.244-.14-.382.434-.224 1.242-1.118 1.39.309.593-.045 1.053-.298 1.586-.227.48-.42.768-1.043.745-.275-.01-.465.09-.376.41.077.279 1 .114.469.611-.267.248-.79.003-.969-.271-.425-.654-.753.945-1.098.012-.171-.459-.517-.921-.086-1.423.105-.123.137-.295.2-.434-.456-.428-.665.037-.975.142-.478.162-.853-.09-1.185-.344-.4-.307-.101-.635.074-.901a87.292 87.292 0 0 1 2.366-3.42c.192-.261.568-.43.887-.605.75-.412.793.205 1.012.575.765-.363.78-1.423 1.538-1.569.84-.163 1.52-.443 2.16-.892.386.049.84-.11 1.132.366z" id="Fill-565"/></g></g></g></g></g></g></svg>