<svg xmlns="http://www.w3.org/2000/svg" width="140.844" height="145.625" viewBox="0 0 140.844 145.625"><defs><style>.cls-1{fill:#385443;fill-rule:evenodd}</style></defs><path class="cls-1" d="M138.874 43.167c2.2 1.062-1.471 2.041-3.935 2.545a2.17 2.17 0 0 1 1.948 1.255c1.321 1.342-1 1.873-1 1.873 2.048 2.954-6.9 2.508-6.9 2.508 1.657 2.41-2.766 2.453-5.414 2.286a63.422 63.422 0 0 0-9.8 6.959 4.773 4.773 0 0 1 .957.412c2.424-4.2 5.231-1.482 5.231-1.482 5.983-2.459 5.122 1.488 5.122 1.488 8.087 1.18 4.405 4.087 4.405 4.087 8.485 5.335-.9 4.7-.9 4.7.415 2.306-2.607.1-4.509-1.475a2 2 0 0 1 .114 2.242c-.334 1.8-2.167.348-2.167.348-1.259 3.346-6.252-3.762-6.252-3.762-.942 2.482-3.259-.092-4.752-2.174a25.932 25.932 0 0 1 .533 2.659c.1.658.178 1.328.252 1.988l.14 1.22a2.678 2.678 0 0 1 .386.866c7.935-1.9 5.721 2.138 5.721 2.138 10 1.8 1.083 4.675 1.083 4.675 1.328 1.978-2.354 1.052-4.746.3a2.039 2.039 0 0 1 1.007 2.021c.423 1.789-1.857 1.127-1.857 1.127.1 1.729-1.638 1.482-3.438.784a23.86 23.86 0 0 1-.861 1.871 1.719 1.719 0 0 1 .846 1.19c6.194-1.378 4.388 1.778 4.388 1.778 7.7 1.563.729 3.708.729 3.708.983 1.581-1.85.8-3.682.167a1.6 1.6 0 0 1 .734 1.612c.288 1.423-1.471.866-1.471.866.075 2.8-5.61-1.026-5.61-1.026a1.1 1.1 0 0 1-.012.132c.8.3 1.266.763.723 1.5 0 0 1.555.456.615 1.363 0 0-.043.079-.112.181a110.038 110.038 0 0 0 18.841-4.608.84.84 0 0 1 .43.305c3.329 6.724 4.964 13.674 3 21.159a2.01 2.01 0 0 1-1.594 1.608c-2.875.771-5.736 1.67-8.609 2.468a2.466 2.466 0 0 0-1.673 1.368 32.936 32.936 0 0 0-2.824 9.042 1.351 1.351 0 0 1-1.027 1.178 89.371 89.371 0 0 1-15.628 3.827c-1.1.192-2.216.267-3.305.508a2.312 2.312 0 0 0-1.29.785 27.483 27.483 0 0 1-18.982 11.522 29.6 29.6 0 0 1-19.823-3.671 22.305 22.305 0 0 1-7.8-7.827 1.627 1.627 0 0 0-1.038-.7 94.2 94.2 0 0 1-15.271-3.494 1.724 1.724 0 0 1-1.38-1.508 25.11 25.11 0 0 0-4.71-10.23 3.306 3.306 0 0 0-1.57-.975q-4.33-1.331-8.7-2.521c-1.659-.455-2.064-1.583-2.115-3.139a36.448 36.448 0 0 1 2.084-13.282c.823-2.33 1.836-4.6 2.748-6.876.1.025.2.051.291.076a91.2 91.2 0 0 0 13 3.683.914.914 0 0 1-.352-.85s-1.756.557-1.471-.866a1.606 1.606 0 0 1 .736-1.612c-1.832.63-4.665 1.415-3.682-.167 0 0-6.969-2.145.729-3.708 0 0-1.806-3.155 4.387-1.778 0 0 .4-2.261 2.733-.8a1.1 1.1 0 0 1 .109-.138 1.508 1.508 0 0 1 .272-.364q-.282-.538-.53-1.072a3.976 3.976 0 0 1-1.383-.787c-1.9.781-3.822 1.144-3.723-.677 0 0-2.279.662-1.857-1.126a2.039 2.039 0 0 1 1.008-2.022c-2.392.755-6.076 1.679-4.747-.3 0 0-8.916-2.877 1.083-4.676 0 0-2.213-4.033 5.722-2.138a1.937 1.937 0 0 1 1.893-1.6c.005-.015.009-.031.015-.046a25.638 25.638 0 0 1 .87-5.417c-.238-.255-.471-.511-.718-.766-1.312 2.017-4.381 6.219-5.5 3.267 0 0-4.994 7.106-6.251 3.761 0 0-1.834 1.455-2.168-.348a2 2 0 0 1 .115-2.243c-1.9 1.582-4.924 3.783-4.51 1.477 0 0-9.385.633-.9-4.7 0 0-3.682-2.907 4.4-4.089 0 0-.86-3.947 5.121-1.488 0 0 2.808-2.716 5.232 1.481a4.923 4.923 0 0 1 .958-.411 63.557 63.557 0 0 0-9.8-6.959c-2.65.168-7.072.125-5.415-2.286 0 0-8.948.447-6.9-2.507 0 0-2.325-.53-1-1.874a2.172 2.172 0 0 1 1.95-1.254c-2.465-.5-6.132-1.483-3.933-2.545 0 0-6.158-6.779 3.415-3.507 0 0 .241-4.543 6.079.913 0 0 2.8-3.02 4.312 3.016 0 0 3.962.514 1.888 4.874 0 0 2.76 1 2.289 3.29a69.943 69.943 0 0 1 4.394 2.867 3.228 3.228 0 0 1 .256-.89c-4.474-4.509-.274-5.086-.274-5.086-1.6-7.635 2.521-5.34 2.521-5.34 2.38-9.421 4.952-.8 4.952-.8 2.139-1.165.995 2.287.086 4.528a2.245 2.245 0 0 1 2.166-.862c1.9-.311 1.085 1.826 1.085 1.826a1.181 1.181 0 0 1 1.223.6c.2-.829.383-1.659.526-2.5a14.744 14.744 0 0 0-.329-7.079c-.278-.9-.57-1.8-.86-2.684-.354-1.1-.7-2.192-1.039-3.279a3.432 3.432 0 0 1 .327-2.62c-3.309 1.976-3.227-.68-3.227-.68-5.546.1-3.439-2.365-3.439-2.365-6.31-2.773.042-3.4.042-3.4-.562-1.576 1.726-.367 3.182.521a1.48 1.48 0 0 1-.341-1.557c.006-1.307 1.411-.5 1.411-.5.159-.9.818-.891 1.588-.514.033-.034.047-.066.084-.1 0 0-6.689-1.474-4.613-3.352 0 0-1.617-.885-.39-1.661a1.607 1.607 0 0 1 1.674-.581c-1.719-.891-4.243-2.4-2.421-2.779 0 0-3.258-6.522 3.186-2.031 0 0 1.037-3.485 4.315 1.948 0 0 1.911-1.275 2.462 1.427a1.184 1.184 0 0 1 .175-.015 1.6 1.6 0 0 1 1.651.482c-.85-1.637-1.982-4.193-.323-3.467 0 0 1.15-6.8 3.675.209 0 0 2.81-2.092 2.294 3.885 0 0 2.875.106.483 3.543h1.869c.456 0 .925 0 1.379-.026a17.494 17.494 0 0 0 6.142-1.215 37.046 37.046 0 0 1 9.8-2.824h.016c-.037-.022-.053-.034-.069-.041-.228-.118-.456-.232-.682-.35-.185-.092-.369-.19-.556-.282a3.068 3.068 0 0 0-.352-.16 1.9 1.9 0 0 1-.544-.337c-.162-.13-.314-.27-.476-.4-.09-.069-.194-.115-.29-.177a1.092 1.092 0 0 1-.367-.356.522.522 0 0 1-.021-.528c.067-.142.139-.28.2-.425a.462.462 0 0 0 .013-.337.1.1 0 0 0-.151-.083c-.439.09-.879.185-1.322.264a3.153 3.153 0 0 1-.75.039 1.9 1.9 0 0 0-.766.158 2.434 2.434 0 0 0-.766.515q-.837.75-1.691 1.484c-.4.342-.812.67-1.214 1.008a1.034 1.034 0 0 1-.665.236c-.218 0-.437-.008-.656-.015a.109.109 0 0 0-.007-.02.3.3 0 0 1 .038-.048c.565-.619 1.166-1.2 1.771-1.785l1.822-1.76a.279.279 0 0 0 .034-.042c-.138-.018-.268-.031-.4-.049-.213-.032-.425-.063-.637-.1a.307.307 0 0 1-.075-.038.253.253 0 0 1 .056-.061c.177-.11.355-.216.533-.323.1-.057.2-.112.294-.172.054-.035.051-.067-.011-.09-.085-.029-.173-.054-.258-.081a1.914 1.914 0 0 1-.134-.045c-.091-.04-.1-.1-.015-.155a.852.852 0 0 1 .179-.09c.245-.08.49-.148.729-.233a2.952 2.952 0 0 0 1.145-.762c.3-.319.582-.655.87-.988a5.321 5.321 0 0 1 .97-.947 14.1 14.1 0 0 0 1.778-1.521c.551-.528 1.091-1.067 1.646-1.594a6.8 6.8 0 0 1 .606-.5.907.907 0 0 0 .415-.788.625.625 0 0 0-.237-.461 15.244 15.244 0 0 1-.77-.709c-.194-.19-.369-.4-.553-.6a.155.155 0 0 0-.062-.039q-.75-.352-1.5-.7l-.039-.023.164-.022a10.9 10.9 0 0 1 1.361-.062 1.076 1.076 0 0 0 .3.005 1.074 1.074 0 0 0 .24-.172 3.417 3.417 0 0 1 1.31-.562c.1-.02.212-.033.316-.048h.393c.071.013.139.022.21.033a4.269 4.269 0 0 1 1.3.437 3.912 3.912 0 0 1 1.444 1.25 3.764 3.764 0 0 1 .653 1.966 2.139 2.139 0 0 0 .072.519l.02.078v2.819a5.279 5.279 0 0 1-.445 1.178 5.933 5.933 0 0 1-1.024 1.38 10.147 10.147 0 0 1-1.245 1.131 3.621 3.621 0 0 1-1.138.605 3.478 3.478 0 0 1-.389.075c.115.052.248.105.372.169a2.22 2.22 0 0 1 .286.181.3.3 0 0 1 .13.22.149.149 0 0 0 .132.111c.136.039.271.073.408.1a2.772 2.772 0 0 1 1.56.909c.324.375.661.735.989 1.1a.471.471 0 0 1 .088.158c.062.19.118.383.176.571l2.09.006c.058-.19.115-.385.178-.577a.473.473 0 0 1 .089-.158c.327-.367.665-.727.989-1.1a2.754 2.754 0 0 1 1.558-.907c.138-.031.272-.065.408-.1a.144.144 0 0 0 .131-.111.306.306 0 0 1 .131-.22 2.081 2.081 0 0 1 .287-.181c.123-.064.257-.118.371-.169a3.53 3.53 0 0 1-.389-.075 3.649 3.649 0 0 1-1.138-.605 10.122 10.122 0 0 1-1.244-1.131 5.9 5.9 0 0 1-1.03-1.38 5.256 5.256 0 0 1-.445-1.18V4.294c.005-.026.013-.052.02-.078a2.193 2.193 0 0 0 .071-.519 3.783 3.783 0 0 1 .654-1.967A3.916 3.916 0 0 1 74.549.48a4.273 4.273 0 0 1 1.3-.437c.07-.011.138-.02.21-.033h.393c.1.016.213.028.317.048a3.4 3.4 0 0 1 1.3.561 1 1 0 0 0 .242.172 1.036 1.036 0 0 0 .3-.005 10.868 10.868 0 0 1 1.361.071c.049.005.1.014.165.022l-.031.023-1.5.7a.166.166 0 0 0-.062.039c-.183.2-.358.406-.552.6-.249.245-.5.481-.771.709a.624.624 0 0 0-.236.461.908.908 0 0 0 .413.788 6.492 6.492 0 0 1 .608.5c.554.527 1.1 1.066 1.645 1.595a14.162 14.162 0 0 0 1.778 1.521 5.32 5.32 0 0 1 .97.947c.286.333.571.669.87.988a2.951 2.951 0 0 0 1.145.762c.24.084.485.153.73.234a.913.913 0 0 1 .18.089c.082.054.075.114-.016.155a1.17 1.17 0 0 1-.134.045c-.084.028-.174.052-.257.081-.062.023-.064.055-.01.09.1.061.194.115.292.173.178.107.356.211.535.321a.313.313 0 0 1 .052.066.288.288 0 0 1-.075.038c-.212.035-.425.067-.638.1-.129.018-.257.031-.395.049a.185.185 0 0 0 .034.042c.607.588 1.214 1.178 1.822 1.76s1.203 1.157 1.772 1.777a.44.44 0 0 1 .037.048.2.2 0 0 1-.007.02c-.218.007-.437.02-.655.015a1.039 1.039 0 0 1-.666-.236c-.4-.339-.815-.667-1.214-1.009q-.853-.734-1.689-1.484a2.429 2.429 0 0 0-.766-.514 1.857 1.857 0 0 0-.767-.158 3.219 3.219 0 0 1-.748-.04c-.443-.08-.884-.175-1.323-.264a.1.1 0 0 0-.152.083.466.466 0 0 0 .015.337c.057.146.129.284.195.425a.523.523 0 0 1-.019.528 1.119 1.119 0 0 1-.369.357c-.1.061-.2.106-.29.176-.161.127-.314.266-.475.393a1.93 1.93 0 0 1-.546.338 3.5 3.5 0 0 0-.352.16c-.187.094-.371.19-.556.282-.225.118-.455.233-.683.35-.015.007-.03.02-.069.043.106.049.2.093.289.128a26.6 26.6 0 0 1 7.91 2.277 17.584 17.584 0 0 0 5.847 1.534 2.618 2.618 0 0 1 .263-.681c-2.881-3.813.221-3.915.221-3.915-.514-5.976 2.294-3.885 2.294-3.885 2.525-7.013 3.675-.208 3.675-.208 1.657-.725.527 1.83-.324 3.467a1.6 1.6 0 0 1 1.653-.482 1.141 1.141 0 0 1 .172.016c.552-2.7 2.464-1.428 2.464-1.428 3.278-5.432 4.316-1.947 4.316-1.947 6.442-4.492 3.184 2.032 3.184 2.032 1.824.379-.7 1.888-2.421 2.778a1.608 1.608 0 0 1 1.675.581c1.226.777-.391 1.661-.391 1.661 2.078 1.879-4.613 3.352-4.613 3.352.038.034.052.066.085.1.771-.376 1.429-.39 1.588.514 0 0 1.4-.809 1.412.5a1.48 1.48 0 0 1-.342 1.556c1.458-.889 3.744-2.1 3.183-.522 0 0 6.352.632.039 3.407 0 0 2.108 2.462-3.436 2.365 0 0 0 .069-.008.171.321.386.646.768.965 1.154a3.466 3.466 0 0 1 .7 3.065c-.3 1.126-.647 2.341-1.091 3.545a16.093 16.093 0 0 0-1.442 6.319 36.781 36.781 0 0 0 .49 4c.075-.436.367-.8 1.226-.659a2.241 2.241 0 0 1 2.167.862c-.908-2.241-2.052-5.693.086-4.529 0 0 2.572-8.625 4.951.795 0 0 4.123-2.294 2.522 5.34 0 0 4.2.578-.273 5.088a3.272 3.272 0 0 1 .257.89 69.709 69.709 0 0 1 4.391-2.868c-.469-2.293 2.291-3.29 2.291-3.29-2.075-4.361 1.887-4.873 1.887-4.873 1.509-6.038 4.314-3.017 4.314-3.017 5.838-5.456 6.078-.914 6.078-.914 9.571-3.274 3.413 3.506 3.413 3.506zM112.822 76.1c.477-.019.947-.038 1.37-.059l2.072-.044c.507-.012.792-.009.792-.009a18.5 18.5 0 0 0-2.84-.523c-.425-.034-.9-.1-1.392-.114-.3-.017-.613-.02-.924-.03l-.095.727c0 .039-.013.076-.018.114.35-.024.703-.05 1.035-.062zm-82.516-.781c-.25-.006-.51-.019-.753-.019-.54-.008-1.066.022-1.566.051-.494.014-.968.08-1.392.115a18.278 18.278 0 0 0-2.84.523s.285 0 .793.009 1.217.025 2.072.044c.424.02.893.039 1.37.06s1 .058 1.531.09c.3.009.607.036.914.065zm-13.5-25.959c-.294-.4-.657-.756-1.018-1.154s-.774-.751-1.194-1.135c-.419-.363-.87-.717-1.322-1.075-.477-.322-.926-.666-1.41-.959-.476-.31-.952-.589-1.423-.85s-.933-.5-1.377-.709c-.434-.229-.866-.401-1.256-.566a18.214 18.214 0 0 0-2.726-.927s.248.135.678.393 1.035.606 1.758 1.034c.36.22.744.466 1.157.717s.832.524 1.271.808.878.6 1.336.9.882.646 1.342.957c.438.336.879.667 1.3 1.008.4.361.841.674 1.207 1.032.2.2.4.379.6.558.621.323 1.216.656 1.813.986-.217-.331-.471-.666-.736-1.018zm9.543 12.817c-.51-.019-1.04.046-1.578.079-.553.051-1.107.138-1.68.231-.562.112-1.128.239-1.694.372-.552.161-1.114.308-1.649.491s-1.065.371-1.567.575-.981.419-1.423.623-.859.429-1.235.62a18.1 18.1 0 0 0-2.412 1.517l.727-.274c.468-.176 1.141-.425 1.939-.72.4-.144.831-.291 1.3-.454.45-.16.932-.321 1.434-.481.5-.177 1.028-.312 1.551-.481s1.072-.3 1.607-.443c.555-.136 1.094-.279 1.632-.4.548-.081 1.067-.23 1.59-.3s1.023-.181 1.5-.215.928-.1 1.354-.116.808-.019 1.156-.041a4.946 4.946 0 0 1 .5.008c-.128-.126-.252-.251-.382-.375-.031 0-.056-.014-.088-.018-.349-.048-.75-.108-1.186-.151s-.893-.034-1.394-.047zm3.811-3.386c-.12-.389-.214-.822-.341-1.26s-.181-.928-.306-1.413c-.1-.493-.137-1.011-.24-1.526a36.666 36.666 0 0 1-.173-1.587c-.031-.536-.094-1.072-.107-1.6s-.058-1.052-.056-1.551-.019-.993-.014-1.465 0-.9 0-1.306c.029-.818.041-1.5.052-1.974s.025-.754.025-.754a16.3 16.3 0 0 0-.674 2.676c-.065.405-.154.845-.193 1.319s-.11.97-.131 1.486-.039 1.049-.035 1.6.052 1.1.08 1.648c.062.555.133 1.1.21 1.644.109.539.2 1.069.348 1.573a13.263 13.263 0 0 0 .464 1.444c.135.342.264.662.4.966.322.284.645.568.956.853a10.718 10.718 0 0 0-.262-.773zm1.865 2.311c.079.078.148.158.227.236.058-.173.112-.353.171-.524.039-.116.083-.233.123-.349-.185.235-.364.453-.518.637zm73.071 38.027c-.271-.184-.66-.453-1.112-.767l-.679.091c.141.074.291.159.42.227a12.034 12.034 0 0 0 1.812.752s-.157-.106-.438-.304zm-84.79-4.645c-1.963-.519-2.038-.494-3.254 1.215a3.057 3.057 0 0 0-.177.266c-2.875 4.7-3.444 9.864-3 15.22a1.3 1.3 0 0 0 .823.885q8.2 2.358 16.448 4.611c1.33.367 2.71.545 4.078.81-.013.113-.013.227-.026.342h-6.9l-.114.342c1.621.937 3.241 1.86 5 2.873-1.051.407-2.039.785-3 1.166.342 1.468.646 2.925 1.051 4.344a1.439 1.439 0 0 0 .849.886 153.782 153.782 0 0 0 21.931 4.381c1.633.2 3.267.38 4.888.583.012.126.012.266.012.4-2.836.229-5.673.457-8.61.7.266.455.507.963.823 1.431a17.466 17.466 0 0 0 8.509 6.419 28.156 28.156 0 0 0 12.586 1.454 21.377 21.377 0 0 0 11.651-4.2 12.836 12.836 0 0 0 3.848-4.469c-2.037-.444-3.974-.862-5.914-1.291 4.473-.874 8.9-1.494 13.284-2.369 5.166-1.025 10.268-2.278 15.4-3.456a1.176 1.176 0 0 0 .835-.519c.19-1.482.292-2.976.418-4.419-1.279-.33-2.431-.633-3.71-.963 1.785-1.051 3.381-1.989 4.964-2.926-.052-.114-.1-.239-.153-.353h-6.786c0-.089-.013-.19-.013-.28.455-.063.925-.138 1.38-.215a149.216 149.216 0 0 0 18.527-4.76 1.162 1.162 0 0 0 .986-1.292c-.013-2.013.138-4.051-.025-6.052a22.568 22.568 0 0 0-3.267-9.877 1.088 1.088 0 0 0-1.545-.6 32.483 32.483 0 0 1-3.633.988 158.682 158.682 0 0 1-10.6 2.027c.42.3.493.615-.156.9 0 0 3.928 5.029-2.437 2.379 0 0-.325 3.224-4.084-.855 0 0-1.628 1.652-2.539-1.2-4.534.5-9.084.855-13.647 1.115l-.145.036c-2.987.72-5.99 1.4-8.9 2.088l-4.066.938a3.5 3.5 0 0 1-.733.089 4.045 4.045 0 0 1-.975-.128c-.9-.214-1.787-.429-2.673-.644a203.822 203.822 0 0 0-5.571-1.317q-2.279-.481-4.556-1c-.182-.011-.365-.015-.547-.026a.044.044 0 0 0-.038-.014 182.74 182.74 0 0 1-11.725-1.075c-1.242-.156-2.48-.338-3.719-.511-.875 3.477-2.67 1.648-2.67 1.648-3.758 4.079-4.085.855-4.085.855-6.363 2.65-2.436-2.379-2.436-2.379-1.039-.465-.233-.993.906-1.423-4.288-.757-8.546-1.663-12.768-2.778zm81.554 2.3c-.126-.1-.251-.2-.382-.3-.3-.229-.574-.49-.876-.728-.284-.256-.571-.5-.84-.761-.05-.052-.1-.1-.151-.15-.2.121-.4.233-.6.349.091.1.171.194.265.293.27.274.564.541.856.809.259.205.507.411.764.607.321-.04.65-.077.966-.12zm-4.551.568a1.656 1.656 0 0 1-.5-.986 37.76 37.76 0 0 1-3.321 1.378q1.936-.184 3.823-.394zm-52.533-1.33q-.993-.484-1.9-1.007a2.217 2.217 0 0 1-.044 2.022c1.734.218 3.5.422 5.308.6.189.019.385.034.576.053-.048-.019-.1-.035-.146-.053a41.213 41.213 0 0 1-3.388-1.427l-.406-.014.003-.175zm-3.124-1.758c-.168-.108-.339-.214-.5-.325-.088.094-.169.182-.257.281-.235.266-.522.506-.781.776s-.557.5-.842.761c-.281.222-.537.461-.814.678.311.047.625.092.939.138.114-.094.229-.182.346-.275.293-.269.585-.536.855-.809s.534-.559.769-.846c.102-.131.188-.255.287-.38zm-7.662.295c-.543-.74-.08-1.207.724-1.5 0-.048-.015-.08-.014-.132 0 0-2.909 1.952-4.536 2.036.958.2 1.955.385 2.953.571-.211-.649.875-.976.875-.976zm.345 4.875a11.984 11.984 0 0 0 1.813-.752c.257-.134.543-.271.832-.451.13-.074.269-.166.405-.246-.264-.041-.527-.088-.791-.131-.231.166-.454.332-.661.478-.472.329-.876.606-1.156.8s-.439.301-.439.301zM32 88.654c-.444-.023-.876-.02-1.3-.011s-.828.034-1.207.068c-.393.013-.745.069-1.079.109a13.766 13.766 0 0 0-2.189.445s.224-.005.61 0 .947 0 1.61.007c.328 0 .687.021 1.068.025s.771.028 1.183.044.836.055 1.262.076.861.087 1.3.119c.432.055.865.1 1.284.169.422.087.845.126 1.239.22.35.087.691.148 1.015.228-.253-.283-.5-.576-.737-.872l-.111-.036c-.409-.118-.831-.2-1.274-.3s-.882-.133-1.33-.201c-.456-.032-.897-.082-1.344-.09zm1.537-33.783a2.068 2.068 0 0 1 .9.171q.519-1.528.983-3.044a26.2 26.2 0 0 1-1.882 2.873zm.694-27.9c-.372-.059-.741-.1-1.1-.161s-.7-.113-1.022-.175-.633-.115-.919-.17c-.565-.115-1.044-.215-1.375-.286l-.524-.112a11.8 11.8 0 0 0 1.8.793c.275.095.571.207.9.291s.663.2 1.025.276.729.165 1.115.227.77.106 1.164.161c.4.027.791.054 1.175.061.179 0 .344-.01.517-.013.064-.075.124-.152.188-.227l.357-.423c-.335.006-.684-.027-1.038-.03-.372-.016-.751-.053-1.133-.082-.381-.051-.755-.067-1.129-.128zm4.809-3.049c-.03-.185-.046-.433-.111-.7s-.148-.56-.238-.888-.241-.662-.38-1.026-.346-.723-.534-1.1-.427-.741-.666-1.125-.505-.738-.77-1.106c-.292-.35-.56-.707-.861-1.035s-.591-.647-.889-.947-.595-.575-.882-.826c-.281-.275-.565-.493-.824-.705a13.833 13.833 0 0 0-1.834-1.276s.159.16.422.441.651.689 1.105 1.17c.225.24.46.513.719.791s.513.576.784.885.537.643.816.967.532.683.812 1.021c.258.35.522.7.764 1.045.228.366.491.7.695 1.049s.432.684.608 1.012.346.642.485.933.262.57.373.819a5.481 5.481 0 0 1 .208.524c.067.039.136.086.2.131.003-.021.001-.033-.001-.052zm.094-3.206c-.016.02-.027.039-.043.061a3.429 3.429 0 0 1 .365.322 20.802 20.802 0 0 1-.322-.381zm.683 3.619c-.035.046-.068.091-.109.137.028.023.053.05.08.074l.1-.122c-.021-.029-.047-.057-.071-.087zm3.676-6c-.039-.423-.093-.825-.161-1.22s-.141-.773-.223-1.126c-.066-.361-.163-.688-.247-.994a12.781 12.781 0 0 0-.72-2s.036.209.082.576.119.884.205 1.507c.039.308.07.646.115 1s.075.728.113 1.115.057.789.091 1.194.027.816.057 1.227c.005.413.015.826.005 1.226v.129l.193-.228a3.974 3.974 0 0 1 .572-.537c0-.2.01-.4.01-.609-.035-.419-.042-.841-.092-1.257zm26.534-3.571c-.311-.247-.623-.5-.942-.735-.441-.329-.892-.642-1.332-.97a1.206 1.206 0 0 0-1.448 0 .834.834 0 0 0-.318.662.859.859 0 0 1-.219.553c-.057-.147-.113-.284-.161-.424a.448.448 0 0 0-.157-.225.322.322 0 0 1-.052-.512 5.73 5.73 0 0 1 .681-.683l.049-.043a3.086 3.086 0 0 1-.222-.259.474.474 0 0 0-.384-.214 2.335 2.335 0 0 0-.7.008 1.01 1.01 0 0 0-.7.511 4.137 4.137 0 0 1-.363.541.26.26 0 0 0-.042.252.525.525 0 0 0 .246.306 1.934 1.934 0 0 1 .613.586.4.4 0 0 0 .151.1l1.145.6c.129.067.257.134.381.208a.583.583 0 0 0 .269.059 7.108 7.108 0 0 1 .736.089l1.426-.176h1.615c-.087-.075-.179-.158-.272-.231zm8.072-.55a.363.363 0 0 0 .151-.1 1.941 1.941 0 0 1 .614-.586.527.527 0 0 0 .244-.306.259.259 0 0 0-.041-.252 4.276 4.276 0 0 1-.364-.541 1.006 1.006 0 0 0-.7-.511 2.325 2.325 0 0 0-.697-.006.472.472 0 0 0-.384.214 3.347 3.347 0 0 1-.222.267l.049.043a5.746 5.746 0 0 1 .683.683.323.323 0 0 1-.052.512.443.443 0 0 0-.158.225c-.047.141-.1.278-.161.424a.858.858 0 0 1-.218-.553.831.831 0 0 0-.319-.662 1.208 1.208 0 0 0-1.447 0c-.439.328-.89.641-1.332.97-.319.239-.631.488-.944.735-.094.075-.188.16-.286.245h.742l.759.089q.62.079 1.236.137a5.853 5.853 0 0 1 1.049-.152.573.573 0 0 0 .267-.059c.124-.073.252-.141.381-.208zm16.716-.4c-.085.306-.181.633-.248.994s-.168.732-.223 1.124-.12.8-.16 1.22-.057.837-.09 1.267c0 .352.006.7.018 1.041.187 0 .378.006.561.006h.194V18.44c.031-.41.02-.822.057-1.227s.048-.807.093-1.194.066-.761.111-1.115.076-.694.115-1c.088-.622.153-1.142.205-1.506l.082-.577a12.852 12.852 0 0 0-.715 1.998zm-5.043 27.898a5.538 5.538 0 0 0-.278 2.263 1.156 1.156 0 0 0 .885.577 3.476 3.476 0 0 1 1.194.256V24.185c.413.017.823.027 1.233.027v21.757a3.6 3.6 0 0 1 .28 1.049.628.628 0 0 1-.087.444c-.062.058-.13.117-.192.175v16.26c-.411-.085-.821-.178-1.232-.267V48.753l-1 .895a2.719 2.719 0 0 1-1.269 3.017c-.194.143-.4.3-.6.451v9.9c-.41-.088-.821-.175-1.235-.261v-9.08a1.872 1.872 0 0 1-1.56-.676 4 4 0 0 1 .286 1.578 4.214 4.214 0 0 1-1.592 1.72v5.877c-.413-.081-.823-.163-1.234-.24v-5.408a3.77 3.77 0 0 1-1.765-1.661c-.373 0-.743-.028-1.105-.038v6.627c-.41-.062-.821-.121-1.234-.177v-6.34c-.787.186-1.558.537-2.52.876l-.341-.181v5.115a4.492 4.492 0 0 0 .8.449 38.246 38.246 0 0 0-5.9-.5c-1.1 0-2.2.079-3.313.189a6.874 6.874 0 0 0 1.621-1.023c.714-.607 1.011-4.277.415-5.012a3.954 3.954 0 0 0-1.832-1.138v7.052q-.616.038-1.235.09v-7.457a1.353 1.353 0 0 0-.864.515 4.368 4.368 0 0 1-2 1.1v6.131c-.41.052-.821.113-1.235.172v-6.03a7.268 7.268 0 0 1-1.258-.679c-.447-.209-.908-.381-1.53-.639.176-.986.367-1.96.511-2.947a.709.709 0 0 0-.224-.569c-.119-.023-.243-.037-.365-.056v11.372c-.412.072-.822.14-1.235.215V50.534a1.591 1.591 0 0 1-.629.5 1.648 1.648 0 0 1-1.343-.3 1.387 1.387 0 0 0-.895-.879v12.681l-1.235.249V49.972l-.235.066c-.512.139-.841.345-.868-.446a.5.5 0 0 0-.046-.214c-1.361-.027-.867-1.733-1.718-2.173v16.179l-1.235.259V24.176c-.955.028-1.911.013-2.867.024v40.037q-.617.127-1.234.248V24.652l.053-.062a1.091 1.091 0 0 1 .685-.388h.449-.471a1.1 1.1 0 0 0-.685.388c-1.653 1.931-3.288 3.879-4.927 5.821-.774.915-1.56 1.82-2.3 2.758v1.286c.526 1.692 1.087 3.372 1.613 5.061a16.353 16.353 0 0 1 .386 7.763c-.845 4.915-2.664 9.533-4.278 14.21a29.961 29.961 0 0 0-1.749 7.333c-.024.291-.042.584-.051.878-.005.158-.111 1.271-.111 1.671v1.227c0 .456.1 2 .148 2.321.1.68.207 1.359.329 2.035a20.138 20.138 0 0 0 3.829 8.247c3.072 4.221 7.39 6.536 12.166 8.206a94.857 94.857 0 0 0 11.445 2.95c2.607.559 5.192 1.233 7.791 1.85a1.67 1.67 0 0 0 .378.047.675.675 0 0 0 .147-.005c4.96-1.157 9.931-2.278 14.874-3.51a36.452 36.452 0 0 0 10.706-4.176 20.863 20.863 0 0 0 9.87-14.144c.1-.512.17-1.029.242-1.545.042-.3.127-1.492.127-1.782v-1.68c0-.414-.09-2-.137-2.376-.064-.526-.128-1.05-.2-1.573a33.536 33.536 0 0 0-1.672-6.257v4.756c-.41-.039-.823-.087-1.235-.133v-8.117a59.933 59.933 0 0 1-2.415-8.006c-.177-.85-.323-1.71-.451-2.572v18.313a64.496 64.496 0 0 1-1.234-.191V29.392q-1.437-1.709-2.873-3.421v38.765c-.41-.08-.823-.16-1.235-.243V24.548a1.55 1.55 0 0 0-1.14-.341 34.345 34.345 0 0 1-5.966-.308c.046.007.091.017.137.024v16.119a5.443 5.443 0 0 0 .823.562c.505.317.494.523.247 1.108zm-1.955-17.945a18 18 0 0 1-3.211-.907v9.857c.433.245.982.3 1.41.557.27 2.189.334 2.315 1.036 2.572l.42.8v-12.94c.115.024.234.039.345.061zm-4.445 7.594v-9.024a20.525 20.525 0 0 0-2.866-1.067v9.942a6.331 6.331 0 0 1 2.865.148zm-4.1.323V20.946a28 28 0 0 0-2.866-.528v8.3c.7.592 1.054 1.683 1.689 2.391a2.1 2.1 0 0 0 1.173.575zm-4.445 23.128a5.694 5.694 0 0 0 .341 4.579v-4.4zm.341-26.49v-8.05c-.042 0-.083-.011-.125-.015-.725-.062-1.447-.161-2.171-.241h-.573v7.141c.7.366 1.461.761 2.235 1.161a.339.339 0 0 0 .213.036 2.312 2.312 0 0 1 .421-.031zm-23.254 14.2a3.441 3.441 0 0 1 1.172-1.06 11.315 11.315 0 0 0 1.327-1.15c-.053-.11-.1-.22-.157-.332l.4.061V23.744q.623-.122 1.235-.29v14.682a1.718 1.718 0 0 1 .918-.848c-.319-1.311-.2-1.435.9-1.185a3.91 3.91 0 0 0 1.047-.035v-.126c-.175-.343-.313-.617-.476-.932a2.019 2.019 0 0 0 .476-.109V22.412c.411-.163.82-.328 1.235-.477v12.37a1.322 1.322 0 0 1 1.828.368 7.848 7.848 0 0 1 .24-2.517 8.227 8.227 0 0 1 .8-1.564V21.05c.411-.109.819-.227 1.235-.318v9.08a2.537 2.537 0 0 0 1-.639 2.043 2.043 0 0 1 1.872-.818v-8.1l1.235-.161v8.534c.669.214 1.591.523 2.112-.688a1.608 1.608 0 0 1 .757-.641v-7.287h-2.236q-1.293.17-2.587.336a32.74 32.74 0 0 0-8.594 2.493 19.181 19.181 0 0 1-6.579 1.321h-.16.182c.233-.013.462-.037.694-.055V42.75a2.568 2.568 0 0 1 .123-.227zm-.123 2.177v2.3c.268-.605.507-1.146.738-1.672a1.707 1.707 0 0 1-.738-.627zm14.906 7.742l.266.054v-.4zm1.5-.571v.875l2.33.467c-.12-.7-.219-1.274-.348-2.036-.752.507-1.383 1.03-1.982.694zm33.968-14.83c.38-1.022.681-2.075.964-3.126a.956.956 0 0 0-.185-.745c-.641-.77-1.287-1.536-1.932-2.3v9.772a30.748 30.748 0 0 1 1.153-3.601zm-3.029-9.4c-.034-.084-.072-.152-.1-.246l-.078.029zm-1.519-4.2c-.355.431-.718.833-1.03 1.158l.019.033c.31-.337.688-.721 1.09-1.087zm.925-3.908c-.124.149-.231.276-.322.382a3.444 3.444 0 0 1 .366-.322c-.018-.016-.027-.034-.044-.055zm-.408 6.406c-.173-.027-.324-.045-.478-.064l.392.467h.008c.288.082.607.134.942.2s.693.085 1.067.122c.084.006.175 0 .26.006l-.541-.646c-.249 0-.5 0-.731-.015-.321-.026-.633-.032-.919-.065zm5.46-10.65c.272-.309.529-.61.783-.886s.495-.551.721-.791c.455-.48.833-.885 1.105-1.169s.421-.442.421-.442a13.814 13.814 0 0 0-1.834 1.278c-.259.213-.543.43-.823.7-.286.252-.594.523-.882.827s-.6.609-.888.947-.57.684-.861 1.033c-.265.369-.532.737-.771 1.107s-.468.747-.666 1.124-.39.737-.534 1.1c-.078.206-.143.39-.215.582.081.084.171.15.248.243l.128.152c.12-.232.248-.465.374-.72.176-.328.406-.655.609-1.012s.467-.682.694-1.048c.243-.347.5-.7.765-1.045.279-.338.529-.694.811-1.021s.537-.65.815-.954zm2.093 10.681c.327-.084.625-.2.9-.29a11.966 11.966 0 0 0 1.795-.793s-.187.043-.524.111-.81.17-1.375.285c-.286.054-.595.106-.919.169s-.667.117-1.022.176-.711.1-1.074.158c.168.2.334.4.5.6.233-.046.47-.088.693-.142.362-.07.704-.173 1.026-.27zm3.333 44.781c-.113-.949-.215-1.9-.353-2.849a37.088 37.088 0 0 0-1.927-7.078 91.6 91.6 0 0 1-3.67-11.612 40.9 40.9 0 0 1-.835-6.078 18.046 18.046 0 0 1 1.57-7.269 33.737 33.737 0 0 0 1.011-3.279 1.018 1.018 0 0 0-.191-.785q-1.149-1.38-2.308-2.753a2.083 2.083 0 0 1-1.788.252q1.455 1.728 2.9 3.46a1.572 1.572 0 0 1 .311 1.315c-.28 1.031-.591 2.127-.985 3.182a16.694 16.694 0 0 0-1.454 6.647 38.646 38.646 0 0 0 .779 5.671 65.347 65.347 0 0 0 2.686 8.752c.262.733.527 1.467.784 2.2a35.9 35.9 0 0 1 1.857 6.84c.072.495.134.99.194 1.487l.073.615.078 1.916v1.682l-.109 1.721c-.08.583-.158 1.167-.27 1.745A21.506 21.506 0 0 1 97.221 91.1a37.616 37.616 0 0 1-10.888 4.256c-3.7.923-7.486 1.8-11.142 2.644l-3.74.867a1.294 1.294 0 0 1-.291.032 2.219 2.219 0 0 1-.53-.076q-1.32-.314-2.65-.643c-1.7-.417-3.408-.835-5.122-1.2a95.434 95.434 0 0 1-11.52-2.973c-5.876-2.053-9.721-4.652-12.47-8.43a20.586 20.586 0 0 1-3.939-8.507c-.1-.571-.194-1.146-.282-1.72l-.051-.334-.149-1.8v-1.84l.059-1.534a1.421 1.421 0 0 0 .044-.162q.011-.414.044-.823a30.457 30.457 0 0 1 1.788-7.574q.418-1.208.846-2.413a71.8 71.8 0 0 0 3.4-11.7 15.647 15.647 0 0 0-.366-7.467c-.262-.838-.532-1.676-.8-2.511a168.4 168.4 0 0 1-.984-3.095 1.572 1.572 0 0 1 .272-1.315c.583-.731 1.184-1.439 1.784-2.146l1.456-1.724c1.333-1.582 2.668-3.167 4.017-4.738a1.7 1.7 0 0 1 1.145-.608c.328-.01.656-.014.982-.014l1.518.007c.465 0 .927-.006 1.389-.03a18.29 18.29 0 0 0 6.365-1.267 32.956 32.956 0 0 1 8.76-2.538l2.586-.337 4.12-.005.769.086c.485.058.97.116 1.457.159a24.784 24.784 0 0 1 8.708 2.205 21.442 21.442 0 0 0 9.457 1.756c.418 0 .838-.006 1.261-.015h.01a2.417 2.417 0 0 1 1.277.3l-.605-.721c-.015-.069-.024-.125-.042-.2-.033-.179-.06-.383-.087-.579-3.736.035-7.416-.249-10.883-1.905a25.674 25.674 0 0 0-8.941-2.266c-.76-.064-1.519-.165-2.292-.253h-4.245c-.911.114-1.822.241-2.721.354a34.69 34.69 0 0 0-9.054 2.621 19.93 19.93 0 0 1-6.926 1.393c-1.368.076-2.735 0-4.1.038a1.189 1.189 0 0 0-.723.406c-1.747 2.038-3.468 4.09-5.191 6.128-.81.962-1.646 1.925-2.431 2.912a1.027 1.027 0 0 0-.178.785c.609 1.963 1.266 3.925 1.886 5.887a17.346 17.346 0 0 1 .407 8.18c-.887 5.166-2.8 10.03-4.5 14.956a31.569 31.569 0 0 0-1.845 7.7 18.63 18.63 0 0 0-.055.95c0 .164-.114 1.864-.114 1.864s.091 3.21.137 3.5c.116.756.233 1.512.368 2.267.051.276.107.547.169.815a21.709 21.709 0 0 0 3.861 7.864c3.23 4.445 7.776 6.889 12.8 8.649a101.421 101.421 0 0 0 12.054 3.1c.444.1.9.2 1.343.3 2.291.52 4.571 1.1 6.863 1.647.062.013.129.023.2.033.152 0 .3-.014.457-.021q3.515-.821 7.019-1.62c2.849-.658 5.7-1.329 8.535-2.039a38.749 38.749 0 0 0 11.268-4.406 21.968 21.968 0 0 0 10.394-14.891c.166-.848.255-1.722.381-2.583v-3.984zm-1.142 17.9c-.426.007-.848.055-1.281.086-.238.3-.462.605-.715.894.245-.032.488-.066.737-.1.438-.031.865-.1 1.3-.119s.851-.066 1.261-.076.807-.037 1.183-.044.742-.023 1.071-.025c.66 0 1.217-.007 1.607-.007h.612a13.8 13.8 0 0 0-2.19-.445c-.334-.04-.687-.1-1.078-.109-.38-.034-.79-.068-1.207-.068s-.854-.006-1.3.017zm4.928-38.81a19.027 19.027 0 0 0-.132-1.485c-.036-.474-.128-.914-.192-1.32a16.521 16.521 0 0 0-.672-2.676s.006.277.024.754.022 1.155.052 1.974v1.306c0 .464 0 .955-.016 1.464 0 .5-.044 1.022-.054 1.552s-.076 1.06-.108 1.6c-.05.53-.1 1.067-.173 1.587-.1.516-.137 1.034-.241 1.525-.122.485-.177.973-.306 1.415s-.22.87-.341 1.26c-.106.276-.183.526-.262.775.309-.285.633-.57.954-.855.136-.3.264-.623.4-.965a13.7 13.7 0 0 0 .465-1.443c.143-.5.238-1.034.347-1.573.078-.54.148-1.09.21-1.644.029-.552.073-1.105.081-1.649s-.006-1.085-.036-1.602zm-.938 12.543c-.032 0-.056.013-.086.017-.131.126-.255.251-.384.375.156-.009.322-.014.505-.008.346.023.737.033 1.155.042s.883.09 1.352.115.983.153 1.507.215 1.041.215 1.591.3c.535.116 1.075.26 1.632.394.534.147 1.08.274 1.6.445s1.056.3 1.554.481c.5.161.984.322 1.434.481.468.163.9.31 1.3.455.8.294 1.469.544 1.939.719s.727.273.727.273a18.208 18.208 0 0 0-2.414-1.515c-.376-.191-.776-.421-1.233-.62-.44-.2-.915-.43-1.422-.623s-1.022-.395-1.569-.576-1.095-.329-1.647-.49a46.824 46.824 0 0 0-1.693-.372 24.234 24.234 0 0 0-1.683-.233c-.535-.032-1.065-.1-1.577-.077s-.972.006-1.4.056-.838.099-1.187.147zm21.138-19.471c-.391.17-.822.341-1.259.573-.443.211-.915.441-1.375.709s-.947.538-1.425.848c-.482.294-.933.637-1.409.959-.45.36-.9.713-1.321 1.077-.42.383-.829.745-1.2 1.133s-.724.76-1.019 1.155c-.262.356-.517.688-.732 1.014.6-.329 1.193-.662 1.813-.985.2-.181.4-.362.6-.558.366-.36.8-.673 1.207-1.033.415-.339.855-.671 1.293-1.008.459-.312.883-.66 1.344-.957s.89-.622 1.334-.9.864-.56 1.272-.807.8-.5 1.157-.718c.725-.427 1.336-.789 1.761-1.037l.675-.394a18.392 18.392 0 0 0-2.716.929zm-36.8 27.031a11.4 11.4 0 0 1 2.876-1.476 6.494 6.494 0 0 1 4.741.324c.1.742.191 1.484.279 2.227v.569c-.178-.113-.353-.229-.531-.338a4.781 4.781 0 0 0-5.54.28 8.738 8.738 0 0 1-3.2 1.5 6.134 6.134 0 0 1-4.36-.8c-.569-.324-1.1-.7-1.666-1.027a4.612 4.612 0 0 0-4.9-.018c-.624.353-1.208.777-1.836 1.121a6.177 6.177 0 0 1-6.6-.261c-.413-.252-.81-.528-1.22-.775a4.644 4.644 0 0 0-5.038-.077c-.508.3-.989.636-1.49.935a6.288 6.288 0 0 1-7.078-.169c-.329-.212-.652-.435-.984-.64a4.8 4.8 0 0 0-5.611.16 10.3 10.3 0 0 1-2.658 1.386 5.958 5.958 0 0 1-4.761-.527c-.551-.3-1.069-.648-1.6-.983a4.8 4.8 0 0 0-5.613.089c-.432.288-.865.569-1.317.814v-1.245a2.09 2.09 0 0 0 .1-.432c.014-.4.067-.791.108-1.185a7.423 7.423 0 0 1 4.343-1.228 7.984 7.984 0 0 1 3.792 1.33 17.013 17.013 0 0 0 1.58.936 4.122 4.122 0 0 0 4.271-.571 13.989 13.989 0 0 1 2.148-1.188 6.746 6.746 0 0 1 6.226.55c.541.313 1.055.677 1.594.99a3.841 3.841 0 0 0 4.085.014c.564-.327 1.1-.7 1.664-1.028a7.073 7.073 0 0 1 4.152-1.019 8.241 8.241 0 0 1 3.935 1.5 12.274 12.274 0 0 0 1.137.684 3.827 3.827 0 0 0 3.91-.2c.482-.286.942-.609 1.425-.893a7.084 7.084 0 0 1 8.148.374 6.29 6.29 0 0 0 2.353 1.108 4.217 4.217 0 0 0 3.13-.815zM42.353 29.497l1.234-1.458v36.983q-.617.11-1.234.216V29.497zm-4.1 28.441c.425-1.21.842-2.422 1.235-3.643V65.67c-.413.055-.822.1-1.235.144v-7.876zm8.191 16.64a17.021 17.021 0 0 0 1.58.934 4.119 4.119 0 0 0 4.271-.57 13.988 13.988 0 0 1 2.148-1.189 6.743 6.743 0 0 1 6.226.552c.541.31 1.055.674 1.594.989a3.835 3.835 0 0 0 4.085.013c.564-.324 1.1-.7 1.664-1.027a7.077 7.077 0 0 1 4.152-1.019 8.233 8.233 0 0 1 3.935 1.5 11.939 11.939 0 0 0 1.137.682 3.823 3.823 0 0 0 3.91-.2c.482-.286.942-.609 1.425-.894a7.082 7.082 0 0 1 8.148.376 6.313 6.313 0 0 0 2.353 1.108 4.221 4.221 0 0 0 3.131-.819 11.392 11.392 0 0 1 2.873-1.472 6.5 6.5 0 0 1 4.8.343c.078.035.151.081.225.118v.485c-.1.664-.18 1.328-.3 1.988l-.236-.151a4.778 4.778 0 0 0-5.54.278 8.7 8.7 0 0 1-3.2 1.5 6.124 6.124 0 0 1-4.36-.8c-.569-.322-1.1-.7-1.666-1.026a4.614 4.614 0 0 0-4.9-.019c-.624.355-1.208.777-1.836 1.12a6.168 6.168 0 0 1-6.6-.26c-.413-.252-.81-.528-1.22-.776a4.645 4.645 0 0 0-5.038-.076c-.508.3-.989.634-1.49.934a6.287 6.287 0 0 1-7.078-.168c-.329-.21-.652-.433-.984-.638a4.8 4.8 0 0 0-5.611.159 10.361 10.361 0 0 1-2.658 1.386 5.96 5.96 0 0 1-4.761-.528c-.551-.295-1.069-.648-1.6-.981a4.8 4.8 0 0 0-5.613.09c-.3.2-.6.386-.9.569-.146-.83-.269-1.669-.4-2.5a7.549 7.549 0 0 1 4.535-1.345 7.942 7.942 0 0 1 3.797 1.334zm0 5.079a17.082 17.082 0 0 0 1.58.936 4.125 4.125 0 0 0 4.271-.571 14.108 14.108 0 0 1 2.148-1.189 6.745 6.745 0 0 1 6.226.551c.541.313 1.055.677 1.594.991a3.842 3.842 0 0 0 4.085.013c.564-.327 1.1-.7 1.664-1.029a7.078 7.078 0 0 1 4.152-1.019 8.256 8.256 0 0 1 3.935 1.5 12.03 12.03 0 0 0 1.137.685 3.826 3.826 0 0 0 3.91-.2c.482-.286.942-.609 1.425-.893a7.082 7.082 0 0 1 8.148.374 6.307 6.307 0 0 0 2.35 1.106 4.217 4.217 0 0 0 3.131-.818 11.4 11.4 0 0 1 2.876-1.475 6.451 6.451 0 0 1 4.192.121 19.3 19.3 0 0 1-.8 2.167 4.821 4.821 0 0 0-4.447.774 8.73 8.73 0 0 1-3.2 1.5 6.142 6.142 0 0 1-4.36-.795c-.569-.323-1.1-.7-1.666-1.027a4.615 4.615 0 0 0-4.9-.019c-.624.355-1.208.779-1.836 1.122a6.172 6.172 0 0 1-6.6-.261c-.413-.252-.81-.528-1.22-.775a4.645 4.645 0 0 0-5.038-.077c-.508.3-.989.635-1.49.934a6.285 6.285 0 0 1-7.078-.168c-.329-.211-.652-.433-.984-.639a4.8 4.8 0 0 0-5.611.158 10.285 10.285 0 0 1-2.658 1.388 5.959 5.959 0 0 1-4.761-.527c-.551-.3-1.069-.648-1.6-.982a4.735 4.735 0 0 0-5.113-.2 16.358 16.358 0 0 1-.887-2.164 7 7 0 0 1 3.622-.821 7.972 7.972 0 0 1 3.801 1.329zm0 5.079a16.636 16.636 0 0 0 1.58.934 4.119 4.119 0 0 0 4.271-.57 13.912 13.912 0 0 1 2.146-1.188 6.745 6.745 0 0 1 6.225.551c.542.313 1.055.676 1.6.99a3.84 3.84 0 0 0 4.084.013c.566-.324 1.1-.7 1.665-1.027a7.07 7.07 0 0 1 4.151-1.019 8.244 8.244 0 0 1 3.934 1.5 11.8 11.8 0 0 0 1.137.682 3.82 3.82 0 0 0 3.91-.2c.482-.285.944-.606 1.424-.893a7.083 7.083 0 0 1 8.15.375 6.235 6.235 0 0 0 2.352 1.107 4.21 4.21 0 0 0 3.131-.817 11.418 11.418 0 0 1 2.876-1.477 6.676 6.676 0 0 1 2.049-.277 18.544 18.544 0 0 1-2.2 2.826 6.931 6.931 0 0 0-.9.513 8.7 8.7 0 0 1-3.195 1.5 6.129 6.129 0 0 1-4.36-.8c-.569-.322-1.1-.7-1.668-1.026a4.614 4.614 0 0 0-4.9-.019c-.623.355-1.207.778-1.835 1.121a6.168 6.168 0 0 1-6.6-.26c-.413-.252-.812-.528-1.222-.776a4.651 4.651 0 0 0-5.037-.078c-.507.3-.987.636-1.49.935a6.287 6.287 0 0 1-7.078-.167c-.328-.212-.651-.433-.984-.641a4.8 4.8 0 0 0-5.611.161 10.312 10.312 0 0 1-2.657 1.387 5.954 5.954 0 0 1-4.762-.529c-.549-.294-1.069-.647-1.6-.98a5.407 5.407 0 0 0-2.183-.822c-.274-.322-.547-.642-.8-.992a30.52 30.52 0 0 1-.876-1.28 6.292 6.292 0 0 1 1.483-.094 7.973 7.973 0 0 1 3.789 1.336zm8 4.254a6.744 6.744 0 0 1 6.225.551c.541.312 1.055.677 1.594.99a3.839 3.839 0 0 0 4.085.013c.565-.325 1.1-.7 1.664-1.027a7.064 7.064 0 0 1 4.152-1.019 8.262 8.262 0 0 1 3.934 1.5 11.941 11.941 0 0 0 1.137.685 3.827 3.827 0 0 0 3.91-.2c.482-.286.942-.608 1.425-.893a7.083 7.083 0 0 1 8.149.373 7.492 7.492 0 0 0 1.781.953 29.437 29.437 0 0 1-2.785 1.17c-.3-.193-.6-.385-.911-.565a4.61 4.61 0 0 0-4.898-.019c-.623.352-1.207.776-1.835 1.121a6.174 6.174 0 0 1-6.6-.262c-.414-.252-.812-.527-1.222-.775a4.64 4.64 0 0 0-5.043-.074c-.508.294-.989.634-1.491.933a6.284 6.284 0 0 1-7.078-.17c-.329-.21-.652-.433-.984-.638a4.8 4.8 0 0 0-5.611.158c-.267.181-.538.353-.813.518-.015-.007-.031-.008-.047-.014a36.488 36.488 0 0 1-3.062-1.221 5.608 5.608 0 0 0 2.169-.9 13.848 13.848 0 0 1 2.153-1.189zm-18.779 17.033q-.559.108-1.121.209a3.442 3.442 0 0 0-.471-1.093 1.751 1.751 0 0 0-.714-.625 3.744 3.744 0 0 0-.99-.291c-.414-.07-.827-.139-1.24-.211l-.344 1.984c.137.026.272.048.41.071a1.873 1.873 0 0 0 .637.039.436.436 0 0 0 .267-.164 1.47 1.47 0 0 0 .163-.547l.051-.3 1.039.168q-.273 1.691-.549 3.377l-1.056-.172.058-.344a1.164 1.164 0 0 0 0-.527.46.46 0 0 0-.2-.257 2.384 2.384 0 0 0-.645-.167l-.372-.064-.318 1.83a1.222 1.222 0 0 0-.031.36.206.206 0 0 0 .1.116 1.32 1.32 0 0 0 .367.1c.232.039.465.077.7.118a3.592 3.592 0 0 0 1.355 0 2.528 2.528 0 0 0 1.068-.545 3.338 3.338 0 0 0 .822-1.039l1.027.526q-.765 1.4-1.546 2.8-3.624-.562-7.233-1.23.1-.549.206-1.1l.208.037a1.767 1.767 0 0 0 .57.046.359.359 0 0 0 .239-.162 2.189 2.189 0 0 0 .118-.479l.791-4.328a1.335 1.335 0 0 0 .034-.47.336.336 0 0 0-.124-.188 1.043 1.043 0 0 0-.4-.131l-.36-.067c.068-.366.138-.732.205-1.1q3.366.626 6.743 1.149c.177.895.352 1.785.536 2.671zm-11.083-2.876a2.8 2.8 0 0 0-1.4-.643l-1.232-.261c-.136.622-.269 1.245-.4 1.867q.929.2 1.858.388a3.434 3.434 0 0 1 2.083 1.131 2.207 2.207 0 0 1 .475 1.869 2.283 2.283 0 0 1-1.066 1.523 3.417 3.417 0 0 1-2.554.236q-2.439-.5-4.872-1.055c.082-.363.166-.728.25-1.09l.4.091a.652.652 0 0 0 .53-.019 1.114 1.114 0 0 0 .221-.543q.486-2.166.974-4.331a.881.881 0 0 0 0-.568.863.863 0 0 0-.55-.261c-.09-.02-.182-.042-.274-.061l.251-1.09q3.343.762 6.7 1.421.21 1.343.43 2.684-.564.084-1.129.164a2.789 2.789 0 0 0-.695-1.452zm-3.784 4.442c.465.1.928.2 1.393.294a1.524 1.524 0 0 0 1.148-.1 1.136 1.136 0 0 0 .4-1.441 1.179 1.179 0 0 0-.449-.473 3.018 3.018 0 0 0-.84-.275l-1.169-.246q-.24 1.12-.483 2.241zm15.818 15.217a.815.815 0 0 0 .91-.48q1.071-2.112 2.114-4.234a.934.934 0 0 0 .1-.277q.061-.48-.671-.574l-.381-.051c.048-.367.1-.737.147-1.106q3.817.5 7.647.884l-.111 1.112c-.115-.013-.23-.023-.347-.035a.871.871 0 0 0-.583.063.957.957 0 0 0-.181.586q-.23 2.173-.456 4.35a.939.939 0 0 0 .063.633 1.148 1.148 0 0 0 .66.187c.085.009.168.017.253.024.233.822.468 1.64.705 2.461l-1.2.26a3.146 3.146 0 0 0-.739-1.249 2.814 2.814 0 0 0-1.739-.661q-1.912-.213-3.823-.455a2.829 2.829 0 0 0-1.84.233 3.208 3.208 0 0 0-1.022 1.041l-1.1-.532q.64-1.11 1.268-2.225zm3 .245q1.472.184 2.948.352l.627-5.515q-.932-.106-1.864-.218-1.091 2.4-2.21 4.787a.732.732 0 0 0-.073.22c-.024.199.162.324.574.374zm8.879-4.687a1.6 1.6 0 0 0-.619-.139c.036-.369.07-.74.105-1.112q2.125.2 4.256.359l-.085 1.114c-.171-.013-.341-.026-.512-.037-.214-.018-.326.048-.34.193a.9.9 0 0 0 .151.465q.609 1.053 1.232 2.1.6-.993 1.191-1.988a1.333 1.333 0 0 0 .2-.416c.007-.119-.124-.188-.395-.206a28.92 28.92 0 0 1-.43-.032l.08-1.114q1.744.128 3.486.224l-.063 1.116-.16-.009-.154-.014a.9.9 0 0 0-.856.5q-1.529 2.469-3.111 4.918a2.581 2.581 0 0 1-2.524 1.307 2.1 2.1 0 0 1-1.148-.416.985.985 0 0 1-.412-.9.853.853 0 0 1 .337-.623.888.888 0 0 1 .625-.2 1.139 1.139 0 0 1 .818.482.463.463 0 0 0 .313.206.529.529 0 0 0 .383-.106 2.228 2.228 0 0 0 .412-.552c.067-.113.132-.227.2-.337q-1.318-2.131-2.587-4.275a1.5 1.5 0 0 0-.391-.508zm9.385 6.437a.693.693 0 0 0 .542-.108 1.046 1.046 0 0 0 .13-.57l.217-4.435a.854.854 0 0 0-.1-.56.924.924 0 0 0-.615-.164l-.291-.017.059-1.115q3.582.189 7.169.273.46 1.288.93 2.572l-1.135.354a2.831 2.831 0 0 0-.98-1.319 3.11 3.11 0 0 0-1.559-.4c-.439-.015-.879-.03-1.318-.049q-.04.952-.077 1.909c.662.027 1.322.05 1.984.07a3.715 3.715 0 0 1 2.352.765 2.171 2.171 0 0 1 .826 1.759 2.233 2.233 0 0 1-.825 1.682 3.67 3.67 0 0 1-2.588.663q-2.6-.084-5.207-.222l.061-1.114c.142.013.285.019.427.026zm4.317-.013a1.644 1.644 0 0 0 1.165-.3 1.1 1.1 0 0 0 .151-1.487 1.213 1.213 0 0 0-.548-.391 3.355 3.355 0 0 0-.916-.13c-.415-.014-.832-.028-1.247-.046-.03.765-.061 1.531-.093 2.294q.747.036 1.49.06zm.124 7.388c1.078-1.147 2.111-.067 3.138.312a2.256 2.256 0 0 1 .7-.994 2.949 2.949 0 0 1 1.365.453c.453.2.883.463 1.323.7.7-1.287.745-1.488 4.517-.127-1.348 1.29-3.211 1.639-7.452 1.606.64.168 1.271.392 1.922.5a11.038 11.038 0 0 0 8.408-1.974c.361-.252.8-.771 1.137-.119a1.2 1.2 0 0 1-.383 1.1 4.3 4.3 0 0 0-1.949 2.9 2.839 2.839 0 0 1-1.974 2.126c-1.065.344-1.565.113-1.927-.7a14.441 14.441 0 0 1-2.938 1.393c-1.8.413-2.239-.025-2.347-1.836-3.7-.391-4.279-.875-3.08-2.627-.516-.847-1.362-1.748-.458-2.713zm16.79-7.213a3.766 3.766 0 0 0 .6 0c.013.372.028.746.04 1.117-1.146.042-2.291.073-3.435.1-.008-.372-.018-.745-.025-1.116a1.643 1.643 0 0 0 .48-.063.624.624 0 0 0 .247-.163 1.454 1.454 0 0 0 .207-.393q1.276-3.213 2.486-6.443c.643-.024 1.287-.048 1.93-.08q1.429 3.061 2.922 6.1a1.572 1.572 0 0 0 .418.592 1.142 1.142 0 0 0 .624.073c.022.371.045.743.066 1.116q-2.1.124-4.2.212l-.047-1.115c.084-.005.168-.01.252-.017a1.03 1.03 0 0 0 .485-.1.237.237 0 0 0 .128-.211 1.626 1.626 0 0 0-.138-.422l-.3-.723c-.89.039-1.782.076-2.669.105l-.3.827a1.2 1.2 0 0 0-.089.343.238.238 0 0 0 .076.166.453.453 0 0 0 .244.095zm2.23-2.672c-.312-.727-.626-1.454-.932-2.181l-.8 2.249c.579-.021 1.155-.047 1.734-.068zm4.333-14.791a3.951 3.951 0 0 1 1.377-1.58 4.519 4.519 0 0 1 4.113-.373c.055-.122.106-.242.161-.362.275-.027.552-.051.828-.076q.535 1.407 1.079 2.811c-.356.138-.712.277-1.071.412a5.519 5.519 0 0 0-1.162-1.37 2.166 2.166 0 0 0-1.5-.472 1.974 1.974 0 0 0-1.041.395 2.152 2.152 0 0 0-.721.977 3.243 3.243 0 0 0-.19 1.442 3.413 3.413 0 0 0 .836 2.085 2.126 2.126 0 0 0 1.855.755 2.586 2.586 0 0 0 1.318-.5 4.6 4.6 0 0 0 1.276-1.41q.492.287.989.573a6.648 6.648 0 0 1-1.5 1.81 4.728 4.728 0 0 1-2.533.941 4.209 4.209 0 0 1-2.19-.383 4 4 0 0 1-1.635-1.425 4.324 4.324 0 0 1-.287-4.25zm7.311 9.9a2.177 2.177 0 0 1 1.048.61 1.635 1.635 0 0 1 .442.972 1.611 1.611 0 0 1-.108.773 1.934 1.934 0 0 1-.468.682 2.828 2.828 0 0 1-.875.535 4.276 4.276 0 0 1 .968.232 1.933 1.933 0 0 1 .814.608 1.827 1.827 0 0 1 .371.943 1.876 1.876 0 0 1-.307 1.22 2.578 2.578 0 0 1-1.118.933 6.719 6.719 0 0 1-2.245.48q-2.32.194-4.642.343-.038-.558-.072-1.114c.114-.009.233-.015.347-.024a1.336 1.336 0 0 0 .467-.085.336.336 0 0 0 .163-.168 1.224 1.224 0 0 0 .019-.458q-.156-2.244-.309-4.491a1.314 1.314 0 0 0-.081-.453.337.337 0 0 0-.181-.144 1.246 1.246 0 0 0-.465-.027l-.339.021-.071-1.114q2.437-.157 4.869-.362a5.215 5.215 0 0 1 1.776.088zm-3.033 6.235a2.235 2.235 0 0 0 .064.431.2.2 0 0 0 .114.1 1.266 1.266 0 0 0 .4 0l.643-.051a3.718 3.718 0 0 0 .923-.174 1.192 1.192 0 0 0 .59-.448 1.075 1.075 0 0 0 .194-.745.985.985 0 0 0-.238-.588 1.087 1.087 0 0 0-.573-.328 3.671 3.671 0 0 0-1.118-.033c-.376.03-.751.061-1.129.088.042.586.084 1.167.133 1.748zm-.381-4.887c.052.653.1 1.307.153 1.962.317-.025.636-.049.952-.076a3.765 3.765 0 0 0 1.1-.208 1.064 1.064 0 0 0 .507-.4.853.853 0 0 0 .132-.554.873.873 0 0 0-.218-.528.942.942 0 0 0-.519-.278 4.825 4.825 0 0 0-1.156 0zm5.887-6.975a1.405 1.405 0 0 0 .47-.105.352.352 0 0 0 .158-.194 1.4 1.4 0 0 0-.005-.476c-.156-1.463-.317-2.924-.472-4.385a1.353 1.353 0 0 0-.107-.471.35.35 0 0 0-.187-.165 1.069 1.069 0 0 0-.43-.015 14.25 14.25 0 0 1-.337.034c-.039-.37-.076-.739-.117-1.11q1.985-.206 3.967-.443l.134 1.109c-.087.011-.176.021-.262.03a1.525 1.525 0 0 0-.463.1.414.414 0 0 0-.182.2 1 1 0 0 0-.01.438c.081.712.166 1.424.249 2.135q1.151-1.309 2.278-2.629a1.792 1.792 0 0 0 .179-.235.214.214 0 0 0 .021-.1.135.135 0 0 0-.083-.112.906.906 0 0 0-.347 0l-.326.042-.142-1.108q1.837-.23 3.67-.488l.156 1.107-.121.016a1.617 1.617 0 0 0-.354.076.9.9 0 0 0-.228.146 3.1 3.1 0 0 0-.331.332q-.871.971-1.758 1.933 1.388 1.41 2.8 2.8a1.913 1.913 0 0 0 .522.413 1.177 1.177 0 0 0 .563.025l.163-.023c.052.367.106.737.159 1.1q-2.115.3-4.237.57l-.138-1.109c.054-.006.111-.014.168-.022a2.037 2.037 0 0 0 .553-.111.125.125 0 0 0 .086-.116.945.945 0 0 0-.226-.3q-.864-.91-1.717-1.827-.56.6-1.129 1.2l.093.807a.966.966 0 0 0 .109.4.336.336 0 0 0 .19.142 1.276 1.276 0 0 0 .451 0l.343-.042.134 1.11q-2.051.246-4.107.456l-.115-1.11c.112-.002.214-.014.318-.025zm1.548 11.765a1.346 1.346 0 0 0 .175-.41q1.02-3.3 1.966-6.618c.641-.075 1.279-.153 1.919-.233q1.674 2.933 3.408 5.841a1.558 1.558 0 0 0 .465.555 1.157 1.157 0 0 0 .627.025l.156 1.1q-2.084.3-4.172.551c-.047-.368-.091-.74-.135-1.108l.249-.039a1 1 0 0 0 .475-.143.231.231 0 0 0 .111-.222 1.537 1.537 0 0 0-.173-.409l-.353-.7q-1.329.168-2.656.32c-.08.283-.157.566-.235.848a1.257 1.257 0 0 0-.062.351.247.247 0 0 0 .089.158.468.468 0 0 0 .251.082 4.029 4.029 0 0 0 .595-.044c.043.37.088.74.129 1.109-1.137.132-2.28.257-3.42.374-.037-.37-.078-.74-.114-1.111a1.578 1.578 0 0 0 .472-.1.617.617 0 0 0 .233-.177zm4.118-2.889c-.371-.7-.739-1.4-1.108-2.1-.2.769-.412 1.537-.619 2.306q.859-.099 1.722-.206zm4.1-10.095a1.47 1.47 0 0 0 .444-.119.548.548 0 0 0 .213-.189 1.415 1.415 0 0 0 .149-.414q.811-3.337 1.548-6.68.909-.146 1.818-.3 1.733 2.869 3.534 5.711a1.539 1.539 0 0 0 .47.538 1.012 1.012 0 0 0 .6 0c.069.366.136.733.2 1.1q-1.974.364-3.95.695c-.064-.368-.123-.734-.188-1.1l.241-.045a.9.9 0 0 0 .441-.161.24.24 0 0 0 .1-.224 1.7 1.7 0 0 0-.185-.4 45.662 45.662 0 0 1-.37-.682q-1.258.213-2.518.412c-.059.284-.122.57-.184.855a1.519 1.519 0 0 0-.042.353.258.258 0 0 0 .094.154.437.437 0 0 0 .242.072 3.7 3.7 0 0 0 .568-.065l.174 1.1q-1.617.258-3.242.5c-.058-.375-.11-.744-.164-1.111zm4.442-3.34c-.389-.682-.778-1.367-1.16-2.055q-.234 1.164-.478 2.324.812-.129 1.631-.271zm5.54-4.942a2.737 2.737 0 0 1 .954-.578 7.387 7.387 0 0 1 1.028-.3q2.483-.51 4.951-1.07l.258 1.123c-.1.021-.2.047-.3.067l-.166.032a.792.792 0 0 0-.3.134.249.249 0 0 0-.112.175 1.279 1.279 0 0 0 .039.381l1 4.431a1.662 1.662 0 0 0 .124.418.4.4 0 0 0 .223.138 1.05 1.05 0 0 0 .426-.034l.371-.085c.08.365.166.727.249 1.091q-2.028.459-4.066.886l-.23-1.091.379-.082a1.063 1.063 0 0 0 .408-.142.347.347 0 0 0 .116-.194 1.765 1.765 0 0 0-.066-.53 563.97 563.97 0 0 0-.34-1.574c-.225.05-.451.1-.68.146q-.952 1.977-1.948 3.951-1.332.263-2.671.514c-.067-.366-.139-.732-.206-1.1.119-.023.238-.043.357-.067a1.374 1.374 0 0 0 .373-.113.928.928 0 0 0 .247-.185 1.6 1.6 0 0 0 .247-.346c.018-.032.039-.064.055-.1.445-.742.882-1.486 1.318-2.23a3.383 3.383 0 0 1-1.721-.419 1.847 1.847 0 0 1-.947-1.335 2 2 0 0 1 .064-1.048 2.131 2.131 0 0 1 .559-.864zm1.49 1.6a.948.948 0 0 0 .3.541 1.141 1.141 0 0 0 .605.26 3.465 3.465 0 0 0 1.094-.093c.4-.083.806-.169 1.21-.255q-.222-1.021-.441-2.043c-.445.095-.888.188-1.333.281a3.327 3.327 0 0 0-.969.312.961.961 0 0 0-.4.427.9.9 0 0 0-.073.565zm-36.834 9.018l.27-.011a1.518 1.518 0 0 0 .514-.079.33.33 0 0 0 .177-.176 1.459 1.459 0 0 0 .03-.517c-.026-.567-.049-1.137-.075-1.706q-1.514.064-3.026.111c.014.568.032 1.136.05 1.707a1.891 1.891 0 0 0 .051.5.323.323 0 0 0 .19.186 1.773 1.773 0 0 0 .512.029l.282-.009.037 1.116q-2.063.071-4.123.105c-.006-.372-.014-.745-.019-1.117h.28a1.446 1.446 0 0 0 .489-.066.353.353 0 0 0 .186-.165 1.236 1.236 0 0 0 .042-.46c-.029-1.461-.062-2.924-.091-4.385a1.884 1.884 0 0 0-.062-.535.342.342 0 0 0-.161-.178.984.984 0 0 0-.415-.051c-.122 0-.246 0-.366.006-.008-.372-.013-.744-.02-1.116q1.992-.033 3.985-.1.017.558.039 1.116l-.369.013a.97.97 0 0 0-.413.072.332.332 0 0 0-.153.179 1.534 1.534 0 0 0-.033.492l.042 1.405q1.507-.046 3.013-.11c-.019-.5-.042-1.006-.065-1.509a1.175 1.175 0 0 0-.052-.373.308.308 0 0 0-.164-.185 1.487 1.487 0 0 0-.5-.032l-.309.013-.045-1.117q2-.078 3.994-.187l.062 1.115c-.111.007-.223.012-.337.018a1.2 1.2 0 0 0-.447.078.319.319 0 0 0-.148.17 1.771 1.771 0 0 0-.018.508l.228 4.371a1.419 1.419 0 0 0 .084.519.339.339 0 0 0 .182.16 1.856 1.856 0 0 0 .542.019c.08 0 .161-.007.241-.013l.063 1.114q-2.065.115-4.134.2a57.85 57.85 0 0 1-.047-1.13zm-4.66 6.707a2.209 2.209 0 0 1 .24.971 2.137 2.137 0 0 1-.826 1.75 3.611 3.611 0 0 1-2.374.727h-1.5v1.512a.887.887 0 0 0 .044.358.343.343 0 0 0 .174.162 1.063 1.063 0 0 0 .4.052h.451c0 .373 0 .746.005 1.118q-2.169.011-4.334-.018l.014-1.117h.3a1.649 1.649 0 0 0 .523-.047.34.34 0 0 0 .186-.164 1.2 1.2 0 0 0 .061-.464l.038-4.439a1.5 1.5 0 0 0-.046-.49.329.329 0 0 0-.157-.173 1.021 1.021 0 0 0-.413-.061c-.139 0-.279 0-.418-.005 0-.371.01-.745.015-1.117q2.272.03 4.543.017a5.339 5.339 0 0 1 1.435.152 2.751 2.751 0 0 1 .987.486 2.36 2.36 0 0 1 .645.785zm-2.486.134a1.751 1.751 0 0 0-1.01-.237h-.96v2.291h.744a2.785 2.785 0 0 0 1-.134 1.164 1.164 0 0 0 .51-.4 1.088 1.088 0 0 0 .185-.643 1.021 1.021 0 0 0-.479-.882zm-3.583-6.67h.27a.955.955 0 0 0 .627-.129.971.971 0 0 0 .124-.609q.006-1.359.007-2.717-1.51 1.354-3.059 2.689a2.243 2.243 0 0 0 .035.521.265.265 0 0 0 .16.168 1.6 1.6 0 0 0 .53.062h.283l-.013 1.117q-2.064-.023-4.129-.081l.03-1.116.28.008a.9.9 0 0 0 .619-.116.869.869 0 0 0 .13-.542l.105-4.385a1.13 1.13 0 0 0-.1-.65.7.7 0 0 0-.5-.142c-.123 0-.246-.006-.367-.01l.032-1.116q1.994.055 3.99.078c0 .372-.008.745-.011 1.117h-.37a.764.764 0 0 0-.509.108.967.967 0 0 0-.125.606l-.042 2.678q1.537-1.352 3.038-2.727a.73.73 0 0 0-.131-.567 1.2 1.2 0 0 0-.552-.085h-.31c0-.372.007-.743.007-1.115q2 .01 3.989-.009c0 .372.01.746.013 1.118h-.334a.793.793 0 0 0-.539.126.991.991 0 0 0-.109.6q.015 2.187.026 4.376a.967.967 0 0 0 .129.621 1.081 1.081 0 0 0 .648.113h.242c0 .374.008.746.013 1.118q-2.069.02-4.132.009c-.005-.379-.004-.75-.001-1.122zm-6.735-1.351a2.037 2.037 0 0 1-1.1 1.754 5.3 5.3 0 0 1-5.162-.232 5.4 5.4 0 0 1-1.459-1.843l.971-.6a3.525 3.525 0 0 0 2.876 1.887 1.789 1.789 0 0 0 1.281-.309 1.19 1.19 0 0 0 .431-.878 1.054 1.054 0 0 0-.327-.869 2.283 2.283 0 0 0-1.369-.371c-.36-.018-.718-.037-1.077-.057l.066-1.184.908.048a2.432 2.432 0 0 0 1.388-.2.889.889 0 0 0 .4-.735.905.905 0 0 0-.389-.844 1.914 1.914 0 0 0-1.013-.317 2.012 2.012 0 0 0-1.48.482 4.874 4.874 0 0 0-1.079 1.443q-.543-.19-1.081-.384l1-2.839.824.05.172.359a4.439 4.439 0 0 1 2.074-.377 4.138 4.138 0 0 1 2.163.644 1.714 1.714 0 0 1 .816 1.555 1.916 1.916 0 0 1-1.626 1.81 1.942 1.942 0 0 1 1.785 2.002zm-13.807.12a1.275 1.275 0 0 0 .372.07c.235.02.468.041.7.063a3.515 3.515 0 0 0 1.346-.105 2.494 2.494 0 0 0 1.02-.623 3.341 3.341 0 0 0 .738-1.1l1.062.446q-.656 1.455-1.322 2.911-3.647-.278-7.287-.665c.039-.372.08-.741.12-1.111l.21.022a1.8 1.8 0 0 0 .57 0 .371.371 0 0 0 .225-.182 2.274 2.274 0 0 0 .08-.487l.452-4.375a1.356 1.356 0 0 0 0-.47.324.324 0 0 0-.138-.18 1 1 0 0 0-.41-.1c-.12-.014-.242-.027-.362-.039q.059-.555.121-1.111 3.392.363 6.793.623.366 1.31.742 2.617l-1.1.3a3.46 3.46 0 0 0-.554-1.055 1.788 1.788 0 0 0-.758-.571 3.755 3.755 0 0 0-1.008-.21c-.417-.038-.833-.075-1.25-.115q-.093 1-.189 2l.414.041a1.969 1.969 0 0 0 .637-.011.437.437 0 0 0 .251-.187 1.44 1.44 0 0 0 .121-.555l.027-.305c.349.029.7.058 1.048.089-.1 1.134-.19 2.272-.286 3.407l-1.07-.09.031-.349a1.166 1.166 0 0 0-.041-.523.464.464 0 0 0-.215-.242 2.407 2.407 0 0 0-.655-.119l-.375-.033q-.086.924-.175 1.849a1.186 1.186 0 0 0 0 .361.208.208 0 0 0 .108.109zm-4.932-3.1a3.353 3.353 0 0 1-2.336.424l-1.417-.188-.2 1.5a.96.96 0 0 0-.005.361.35.35 0 0 0 .144.182 1 1 0 0 0 .367.1l.426.054-.141 1.108q-2.052-.259-4.1-.557c.056-.367.109-.735.162-1.1.094.014.189.029.282.04a1.469 1.469 0 0 0 .5.019.341.341 0 0 0 .2-.137 1.289 1.289 0 0 0 .121-.456q.308-2.2.62-4.394a1.7 1.7 0 0 0 .022-.491.328.328 0 0 0-.125-.194.984.984 0 0 0-.383-.109l-.395-.056.161-1.106q2.142.31 4.286.578a4.96 4.96 0 0 1 1.336.328 2.6 2.6 0 0 1 .869.608 2.331 2.331 0 0 1 .509.858 2.306 2.306 0 0 1 .1.994 2.2 2.2 0 0 1-1.01 1.627zm-1.454-2.8a1.609 1.609 0 0 0-.923-.361c-.3-.038-.605-.077-.907-.117q-.152 1.137-.3 2.272c.236.033.468.063.7.092a2.554 2.554 0 0 0 .961-.01 1.129 1.129 0 0 0 .533-.336 1.107 1.107 0 0 0 .261-.614 1.044 1.044 0 0 0-.331-.936z"/></svg>