<svg width="33" height="26" viewBox="0 0 33 26" xmlns="http://www.w3.org/2000/svg"><title>svg/photo-camera</title><path d="M31 26H2c-1.06 0-2-.922-2-2V5c0-1.079.94-2 2-2h29c1.06 0 2 .921 2 2v19c0 1.078-.94 2-2 2zM2 4c-.51 0-1 .48-1 1v19c0 .52.49 1 1 1h29c.511 0 1-.48 1-1V5c0-.521-.489-1-1-1H2z"/><path d="M21.628 21.007a6.73 6.73 0 0 1-6.723-6.723c0-3.706 3.016-6.721 6.723-6.721a6.729 6.729 0 0 1 6.722 6.721 6.73 6.73 0 0 1-6.722 6.723zm0-12.444a5.729 5.729 0 0 0-5.723 5.721 5.73 5.73 0 0 0 5.723 5.723 5.729 5.729 0 0 0 5.722-5.723 5.728 5.728 0 0 0-5.722-5.721zM12 4H5c.223 0 0-.24 0-1V1c0-.76.223-1 0-1h7c-.223 0 0 .24 0 1v2c-.001.762-.223 1 0 1zM6 3h5V1H6v2zm0 18c-.776 0-1-.229-1-1V8c0-.771.224-1 1-1-.224 0 0 .229 0 1v12c0 .772-.224 1 0 1z"/></svg>