<svg width="1190" height="1860" viewBox="0 0 1190 1860" xmlns="http://www.w3.org/2000/svg"><title>Path 2 Copy 2</title><defs><filter x="-10.5%" y="-8.3%" width="120.9%" height="116.6%" filterUnits="objectBoundingBox" id="a"><feGaussianBlur stdDeviation="50" in="SourceGraphic"/></filter></defs><path d="M1082.93 2130.705c-45.008-129.33-121.183-223.07-228.524-281.22-161.012-87.224-163.826-467.99 112.033-412.636 183.906 36.903 298.566-20.128 343.98-171.093-159.886-324.293-174.712-482.806-44.476-475.537 195.353 10.903 30.964 91.417 90.64 239.027 59.675 147.61 204.36 327.089 38.845 407.603-165.516 80.515-329.342 33.548-212.243 234.834 117.1 201.285 374.38 216.382 243.77 415.99-57.653 88.11-122.3 147.05-193.939 176.82-51 21.194-109.524-2.969-130.718-53.969a100 100 0 0 1-5.255-16.59l-14.113-63.23zM920.838 637.577c116.536 0 10.133 14.258 20.267 54.515 10.133 40.257 35.467-47.805 24.77-122.449-10.696-74.643 54.047-150.964 85.01-75.482 30.964 75.482 41.66 259.994-104.713 269.22-146.375 9.225-70.936 22.215-70.936 150.125s-110.906 66.257-69.809-78.837c41.097-145.093-53.483-22.644-53.483-116.578 0-93.933 52.357-80.514 168.894-80.514zm1219.973 635.728c46.164-46.967 50.668 28.795 13.511 227.285-43.161 64.3-86.698 89.46-130.61 75.482-65.87-20.967-63.617-22.645-36.031 118.255s-69.247 57.031-210.554-164.383c-141.307-221.414 88.95-161.029 206.05-88.063 117.1 72.966 88.387-98.126 157.634-168.576z" filter="url(#a)" transform="rotate(60 1240.337 398.387)" fill-rule="evenodd" opacity=".2"/></svg>