<svg width="36" height="33" viewBox="0 0 36 33" xmlns="http://www.w3.org/2000/svg"><title>svg/text/quote_sign</title><path d="M16.55.8c1.333 2.8 2.092 5.6 2.275 8.4.183 2.8-.183 5.542-1.1 8.225s-2.367 5.275-4.35 7.775c-1.983 2.5-4.458 4.817-7.425 6.95l-4.25-2.7a1.73 1.73 0 0 1-.7-.725 2.07 2.07 0 0 1-.25-.975c0-.467.117-.867.35-1.2.233-.333.6-.767 1.1-1.3.433-.5 1.008-1.283 1.725-2.35.717-1.067 1.308-2.35 1.775-3.85.467-1.5.683-3.192.65-5.075-.033-1.883-.567-3.908-1.6-6.075-.367-.767-.308-1.492.175-2.175.483-.683 1.225-1.208 2.225-1.575L16.55.8zM33 .8c1.333 2.8 2.092 5.6 2.275 8.4.183 2.8-.183 5.542-1.1 8.225s-2.367 5.275-4.35 7.775c-1.983 2.5-4.458 4.817-7.425 6.95l-4.25-2.7a1.73 1.73 0 0 1-.7-.725 2.07 2.07 0 0 1-.25-.975c0-.467.117-.867.35-1.2.233-.333.6-.767 1.1-1.3.433-.5 1.008-1.283 1.725-2.35.717-1.067 1.308-2.35 1.775-3.85.467-1.5.683-3.192.65-5.075-.033-1.883-.567-3.908-1.6-6.075-.367-.767-.308-1.492.175-2.175.483-.683 1.225-1.208 2.225-1.575L33 .8z" fill="#BBEE2A" fill-rule="evenodd"/></svg>