<svg width="37" height="32" viewBox="0 0 37 32" xmlns="http://www.w3.org/2000/svg"><title>svg/video-camera</title><path d="M23.13 32H2.872A2.878 2.878 0 0 1 0 29.123V13.877A2.878 2.878 0 0 1 2.873 11h20.256A2.877 2.877 0 0 1 26 13.877v15.246A2.877 2.877 0 0 1 23.13 32zM2.871 12A1.876 1.876 0 0 0 1 13.875v15.25C1 30.159 1.84 31 2.872 31H23.13c1.03 0 1.87-.841 1.87-1.875v-15.25C25 12.841 24.16 12 23.13 12H2.872z"/><path d="M36.515 31c-.1 0-.2-.033-.285-.099L25.2 22.412a.521.521 0 0 1-.2-.415c0-.164.075-.32.2-.416l11.027-8.484a.466.466 0 0 1 .505-.042.516.516 0 0 1 .265.457L37 30.484c0 .194-.102.37-.264.457a.446.446 0 0 1-.22.059zM26 21.997L36 29.5 35.997 15 26 21.997zM6 12c-3.31 0-6-2.692-6-6s2.691-6 6-6c3.308 0 6 2.691 6 6s-2.692 6-6 6zM6 1C3.243 1 1 3.243 1 6s2.243 5 5 5 5-2.243 5-5-2.243-5-5-5zm14 11c-3.308 0-6-2.691-6-6s2.692-6 6-6 6 2.691 6 6-2.692 6-6 6zm0-11c-2.757 0-5 2.243-5 5s2.243 5 5 5 5-2.243 5-5-2.243-5-5-5z"/></svg>